<?xml version="1.0" encoding="UTF-8"?>
<svg xmlns="http://www.w3.org/2000/svg" version="1.1" viewBox="0 0 600 474.5">
  <!-- Generator: Adobe Illustrator 28.7.1, SVG Export Plug-In . SVG Version: 1.2.0 Build 142)  -->
  <g>
    <g id="_Слой_1" data-name="Слой_1">
      <path d="M567.5,270.6c-2,0-4,.2-5.9.6-7.2-18-20.4-30-35.4-30s-1.5,0-2.2,0v-60.1c0-27.2-22.3-49.5-49.5-49.5h-123.6v-1.5c0-8.8-7.1-15.9-15.9-15.9h-28.9v-50.4c14.1-3.5,24.5-16.3,24.5-31.5S316.1,0,298.2,0s-32.5,14.5-32.5,32.5,10.4,27.9,24.5,31.5v50.4h-28.9c-8.8,0-15.9,7.1-15.9,15.9v1.5h-123.6c-27.2,0-49.5,22.3-49.5,49.5v60.1c-14.4.7-27,12.5-34,30-1.9-.4-3.9-.6-5.9-.6C14.5,270.6,0,285.2,0,303.1s14.5,32.5,32.5,32.5,4-.2,5.9-.6c7,17.4,19.6,29.2,34,30v60.1c0,27.2,22.3,49.5,49.5,49.5h352.6c27.2,0,49.5-22.3,49.5-49.5v-60.1c.7,0,1.5,0,2.2,0,15,0,28.2-12,35.4-30,1.9.4,3.9.6,5.9.6,17.9,0,32.5-14.5,32.5-32.5s-14.5-32.5-32.5-32.5ZM186.7,247.2l24.4-5.5c2.2-10,6.1-19.5,11.3-28l-14.4-20.8c6.3-8.6,13.8-16.2,22.2-22.7l21.8,13.8c8.1-5,17-8.8,26.5-11.1l4.6-25.2c5.5-.8,11.1-1.2,16.8-1.2s10.3.4,15.4,1l5.7,25.3c9,2.1,17.5,5.6,25.2,10.2l21.1-14.5c8.8,6.5,16.7,14.2,23.3,22.9l-13.7,21.6c4.7,7.5,8.3,15.7,10.7,24.4l24.8,4.5c1,6.1,1.5,12.3,1.5,18.6s-.3,9.6-.9,14.3l-24.2,5.4c-1.9,9.1-5.2,17.6-9.6,25.5l14,20.3c-6.3,9-13.9,17-22.5,23.8l-20.4-12.9c-4,2.7-8.3,5.1-12.7,7.1l-16.8-32.8c19.5-8.2,33.2-27.5,33.2-50s-24.3-54.2-54.2-54.2-54.2,24.3-54.2,54.2,13.7,41.8,33.2,50l-16.8,32.7c-2.7-1.3-5.4-2.6-8-4.1l-20,13.8c-8.7-6.2-16.5-13.5-23.2-21.8l13-20.6c-5.6-8.5-9.9-18-12.4-28.2l-24.3-4.4c-1-5.9-1.5-12-1.5-18.2s.3-9,.8-13.3ZM444.1,369.5c-2.2,2.6-54.7,63-149.7,63s-138.1-62.3-139.8-64.9c-5.5-8.5-3.1-19.9,5.4-25.4,8.5-5.5,19.8-3.1,25.4,5.3,1.5,2.2,33.4,48.3,109,48.3s120-48.1,121.7-50.1c6.6-7.7,18.2-8.5,25.9-2,7.7,6.6,8.6,18.1,2.1,25.8Z"/>
    </g>
  </g>
</svg>