<svg width="400" height="110" viewBox="0 0 400 110" fill="none" xmlns="http://www.w3.org/2000/svg">
<g clip-path="url(#clip0_2592_19662)">
<path d="M72.6742 55.8589H54.5022V62.4997H72.6742V55.8589Z" fill="black"/>
<path d="M95.8038 73.8973H32.1226V44.333H95.8038V73.8973ZM110.778 55.7949H102.193V37.5575H66.7827V28.8662H60.3938V37.5575H25.7335V55.7949H15.8984V62.4357H25.7335V80.6606H102.193V62.4357H110.778V55.7949Z" fill="black"/>
</g>
<path d="M143.859 46.672H131.165C130.176 46.672 129.256 46.9278 128.419 47.4388C127.597 47.9401 126.932 48.6051 126.431 49.4256C125.92 50.2633 125.664 51.1842 125.664 52.1726V69.5382H131.029V52.2842C131.029 52.2295 131.043 52.1817 131.109 52.1154C131.175 52.0496 131.221 52.037 131.276 52.037H143.859V46.672Z" fill="black"/>
<path fill-rule="evenodd" clip-rule="evenodd" d="M164.721 46.672C165.73 46.6721 166.664 46.9261 167.504 47.4388C168.224 47.8783 168.82 48.4448 169.286 49.1319L169.478 49.4336C169.973 50.27 170.222 51.1879 170.222 52.1726V64.0376C170.222 65.0227 169.973 65.9407 169.478 66.7766C169.049 67.499 168.489 68.0996 167.806 68.5747L167.504 68.7714C166.664 69.2838 165.73 69.5381 164.721 69.5382H152.485C151.497 69.5382 150.576 69.2819 149.74 68.7714C149.021 68.3327 148.421 67.7685 147.947 67.0836L147.752 66.7833C147.241 65.9462 146.983 65.0262 146.983 64.0376V52.1726C146.983 51.1842 147.241 50.2633 147.752 49.4256C148.253 48.6053 148.918 47.94 149.74 47.4388C150.576 46.928 151.497 46.672 152.485 46.672H164.721ZM152.597 52.037C152.542 52.037 152.494 52.0493 152.428 52.1154C152.362 52.1817 152.35 52.2295 152.35 52.2842V63.926C152.35 63.9805 152.362 64.0269 152.428 64.0934C152.495 64.1596 152.542 64.1732 152.597 64.1732H164.609C164.636 64.1731 164.658 64.1704 164.679 64.1612L164.742 64.1107C164.801 64.0468 164.819 63.9947 164.819 63.926V52.2842C164.819 52.2153 164.801 52.1617 164.742 52.0982C164.695 52.0473 164.662 52.0371 164.609 52.037H152.597Z" fill="black"/>
<path fill-rule="evenodd" clip-rule="evenodd" d="M164.721 46.672C165.73 46.6721 166.664 46.9261 167.504 47.4388C168.224 47.8783 168.82 48.4448 169.286 49.1319L169.478 49.4336C169.973 50.27 170.222 51.1879 170.222 52.1726V64.0376C170.222 65.0227 169.973 65.9407 169.478 66.7766C169.049 67.499 168.489 68.0996 167.806 68.5747L167.504 68.7714C166.664 69.2838 165.73 69.5381 164.721 69.5382H152.485C151.497 69.5382 150.576 69.2819 149.74 68.7714C149.021 68.3327 148.421 67.7685 147.947 67.0836L147.752 66.7833C147.241 65.9462 146.983 65.0262 146.983 64.0376V52.1726C146.983 51.1842 147.241 50.2633 147.752 49.4256C148.253 48.6053 148.918 47.94 149.74 47.4388C150.576 46.928 151.497 46.672 152.485 46.672H164.721ZM152.597 52.037C152.542 52.037 152.494 52.0493 152.428 52.1154C152.362 52.1817 152.35 52.2295 152.35 52.2842V63.926C152.35 63.9805 152.362 64.0269 152.428 64.0934C152.495 64.1596 152.542 64.1732 152.597 64.1732H164.609C164.636 64.1731 164.658 64.1704 164.679 64.1612L164.742 64.1107C164.801 64.0468 164.819 63.9947 164.819 63.926V52.2842C164.819 52.2153 164.801 52.1617 164.742 52.0982C164.695 52.0473 164.662 52.0371 164.609 52.037H152.597Z" fill="black"/>
<path fill-rule="evenodd" clip-rule="evenodd" d="M219.411 46.672C220.42 46.6721 221.353 46.9261 222.194 47.4388C222.914 47.8783 223.51 48.4448 223.976 49.1319L224.167 49.4336C224.663 50.27 224.911 51.1879 224.911 52.1726V64.0376C224.911 65.0227 224.663 65.9407 224.167 66.7766C223.739 67.499 223.179 68.0996 222.495 68.5747L222.194 68.7714C221.353 69.2838 220.42 69.5381 219.411 69.5382H207.175C206.187 69.5382 205.266 69.2819 204.429 68.7714C203.71 68.3327 203.111 67.7685 202.637 67.0836L202.441 66.7833C201.93 65.9462 201.673 65.0262 201.673 64.0376V52.1726C201.673 51.1842 201.93 50.2633 202.441 49.4256C202.942 48.6053 203.607 47.94 204.429 47.4388C205.266 46.928 206.187 46.672 207.175 46.672H219.411ZM207.287 52.037C207.232 52.037 207.184 52.0493 207.118 52.1154C207.052 52.1817 207.039 52.2295 207.039 52.2842V63.926C207.039 63.9805 207.052 64.0269 207.118 64.0934C207.184 64.1596 207.232 64.1732 207.287 64.1732H219.299C219.326 64.1731 219.348 64.1704 219.368 64.1612L219.432 64.1107C219.491 64.0468 219.509 63.9947 219.509 63.926V52.2842C219.509 52.2153 219.491 52.1617 219.432 52.0982C219.384 52.0473 219.351 52.0371 219.299 52.037H207.287Z" fill="black"/>
<path fill-rule="evenodd" clip-rule="evenodd" d="M273.877 46.672C274.886 46.6721 275.82 46.9261 276.66 47.4388C277.38 47.8783 277.976 48.4448 278.442 49.1319L278.634 49.4336C279.129 50.27 279.378 51.1879 279.378 52.1726V64.0376C279.378 65.0227 279.129 65.9407 278.634 66.7766C278.205 67.499 277.645 68.0996 276.962 68.5747L276.66 68.7714C275.82 69.2838 274.886 69.5381 273.877 69.5382H261.641C260.653 69.5382 259.732 69.2819 258.896 68.7714C258.177 68.3327 257.577 67.7685 257.103 67.0836L256.908 66.7833C256.397 65.9462 256.139 65.0262 256.139 64.0376V52.1726C256.139 51.1842 256.397 50.2633 256.908 49.4256C257.409 48.6053 258.074 47.94 258.896 47.4388C259.732 46.928 260.653 46.672 261.641 46.672H273.877ZM261.753 52.037C261.698 52.037 261.65 52.0493 261.584 52.1154C261.518 52.1817 261.506 52.2295 261.506 52.2842V63.926C261.506 63.9805 261.518 64.0269 261.584 64.0934C261.651 64.1596 261.698 64.1732 261.753 64.1732H273.766C273.792 64.1731 273.814 64.1704 273.835 64.1612L273.898 64.1107C273.957 64.0468 273.975 63.9947 273.975 63.926V52.2842C273.975 52.2153 273.957 52.1617 273.898 52.0982C273.851 52.0473 273.818 52.0371 273.766 52.037H261.753Z" fill="black"/>
<path fill-rule="evenodd" clip-rule="evenodd" d="M180.194 39.6271V46.672H192.566C193.575 46.6721 194.508 46.9259 195.348 47.4388C196.069 47.8784 196.665 48.4446 197.131 49.1319L197.322 49.4336C197.817 50.2699 198.066 51.1877 198.066 52.1726V64.0376C198.066 65.0227 197.817 65.9396 197.322 66.7753C196.893 67.4981 196.333 68.0994 195.649 68.5747L195.348 68.7714C194.508 69.2839 193.575 69.5382 192.566 69.5382H174.829V39.6271H180.194ZM180.441 51.3566C180.194 51.3566 179.977 51.449 179.791 51.6344C179.606 51.8198 179.514 52.0373 179.514 52.2842V63.926C179.514 64.1731 179.606 64.389 179.791 64.5745C179.977 64.7597 180.194 64.8523 180.441 64.8523H192.454C192.701 64.8523 192.917 64.7597 193.102 64.5745C193.288 64.3889 193.381 64.1733 193.381 63.926V52.2842C193.381 52.0373 193.288 51.8198 193.102 51.6344C192.917 51.4492 192.701 51.3566 192.454 51.3566H180.441Z" fill="black"/>
<path d="M249.445 47.4388C248.604 46.926 247.671 46.672 246.662 46.672H228.926V69.5382H234.291V52.2842C234.291 52.2295 234.304 52.1817 234.37 52.1154C234.436 52.0496 234.483 52.037 234.538 52.037H246.55C246.605 52.037 246.652 52.0497 246.718 52.1154C246.784 52.1817 246.797 52.2295 246.797 52.2842V69.5382H252.163V52.1726C252.163 51.1877 251.914 50.2699 251.418 49.4336L251.227 49.1319C250.761 48.4447 250.165 47.8784 249.445 47.4388Z" fill="black"/>
<path d="M315.072 47.4388C314.232 46.926 313.299 46.6721 312.29 46.672H284.134V69.5382H289.536V52.2842C289.536 52.214 289.554 52.1617 289.612 52.0995L289.613 52.0982C289.661 52.0475 289.693 52.037 289.746 52.037H298.051C298.106 52.037 298.153 52.0497 298.218 52.1154L298.22 52.1168C298.286 52.1827 298.298 52.2297 298.298 52.2842V69.5382H303.7V52.2842C303.7 52.2292 303.713 52.1812 303.779 52.1154C303.845 52.0495 303.891 52.0371 303.946 52.037H312.215C312.269 52.037 312.316 52.0493 312.383 52.1154C312.449 52.1822 312.462 52.2299 312.462 52.2842V69.5382H317.79V52.1726C317.79 51.1877 317.541 50.2699 317.046 49.4336L316.855 49.1319C316.455 48.543 315.961 48.0432 315.374 47.6355L315.072 47.4388Z" fill="black"/>
<path d="M327.913 69.5382H322.547V46.672H327.913V69.5382ZM327.913 44.9922H322.547V39.6271H327.913V44.9922Z" fill="black"/>
<path d="M332.519 52.1723V64.0373C332.519 65.0258 332.775 65.9459 333.286 66.783C333.787 67.6046 334.451 68.2697 335.273 68.7711C336.11 69.2823 337.031 69.5379 338.02 69.5379H355.756V64.1729H338.132C338.076 64.1729 338.029 64.1592 337.963 64.0931C337.897 64.027 337.884 63.9806 337.884 63.9257V52.2839C337.884 52.2292 337.896 52.1809 337.961 52.1151L337.963 52.1165C338.029 52.05 338.076 52.0367 338.132 52.0367H355.682V46.6717H338.02C337.031 46.6717 336.111 46.9279 335.274 47.4385C334.452 47.94 333.787 48.6057 333.286 49.4266C332.775 50.2641 332.519 51.1843 332.519 52.1723Z" fill="black"/>
<path d="M378.028 64.1729H366.016C365.96 64.1729 365.913 64.1592 365.847 64.0931C365.781 64.027 365.769 63.9806 365.769 63.9257V62.8014H360.404V64.0373C360.404 65.0257 360.659 65.9457 361.17 66.783C361.672 67.6046 362.336 68.2697 363.157 68.7711C363.994 69.2823 364.915 69.5379 365.904 69.5379H378.14C379.149 69.5379 380.082 69.2839 380.923 68.7711L381.223 68.5744C381.908 68.0991 382.468 67.499 382.896 66.7763C383.392 65.9403 383.641 65.0224 383.641 64.0373V60.9222C383.64 59.9166 383.394 58.9867 382.896 58.1473C382.406 57.3208 381.741 56.6567 380.915 56.1658C380.076 55.6685 379.146 55.4217 378.14 55.4216H366.016C365.961 55.4216 365.913 55.4096 365.847 55.3432C365.781 55.277 365.769 55.2306 365.769 55.1758V52.2839C365.769 52.2292 365.78 52.1809 365.846 52.1151L365.847 52.1165C365.914 52.05 365.961 52.0367 366.016 52.0367H378.028C378.081 52.0367 378.113 52.0465 378.161 52.0979C378.22 52.1611 378.238 52.2142 378.238 52.2839V53.4082H383.641V52.1723C383.641 51.1878 383.392 50.2696 382.896 49.4333C382.407 48.6082 381.746 47.9409 380.923 47.4385L380.603 47.2591C379.847 46.8672 379.023 46.6717 378.14 46.6717H365.904C364.915 46.6717 363.995 46.9279 363.159 47.4385C362.337 47.94 361.672 48.6057 361.17 49.4266C360.659 50.2643 360.404 51.1845 360.404 52.1723V55.2874C360.404 56.2965 360.657 57.2299 361.17 58.0702C361.673 58.8933 362.339 59.5542 363.165 60.0438C364.001 60.5399 364.919 60.788 365.904 60.788H378.028C378.081 60.788 378.113 60.798 378.161 60.8491L378.221 60.9395C378.233 60.9691 378.238 60.9993 378.238 61.0338V63.9257C378.238 63.9953 378.22 64.0472 378.161 64.1104C378.113 64.1616 378.082 64.1729 378.028 64.1729Z" fill="black"/>
<defs>
<clipPath id="clip0_2592_19662">
<rect width="95" height="52" fill="white" transform="translate(15.8984 28.8662)"/>
</clipPath>
</defs>
</svg>
