<svg width="55" height="55" viewBox="0 0 55 55" fill="none" xmlns="http://www.w3.org/2000/svg">
<path fill-rule="evenodd" clip-rule="evenodd" d="M5.94304 55H49.057C52.3392 55 55 52.3392 54.9999 49.0569V5.94304C54.9999 2.66084 52.3392 0 49.0569 0H5.94304C2.66084 0 0 2.66084 0 5.94304V49.057C0 52.3392 2.66084 55 5.94304 55ZM27.5 6.95288C15.8664 6.95288 6.43256 16.3847 6.43256 28.0203C6.43256 37.3284 12.4689 45.2253 20.8398 48.0111C21.8926 48.206 22.2792 47.5539 22.2792 46.9975C22.2792 46.7665 22.275 46.2907 22.2697 45.6729L22.2697 45.6722C22.2634 44.9468 22.2555 44.0256 22.2505 43.0752C16.3895 44.3497 15.1529 40.5894 15.1529 40.5894C14.1945 38.1544 12.8137 37.5068 12.8137 37.5068C10.9021 36.1993 12.9578 36.2261 12.9578 36.2261C15.0731 36.3746 16.1872 38.3974 16.1872 38.3974C18.0661 41.6179 21.1156 40.6869 22.318 40.1485C22.5071 38.7872 23.0529 37.8573 23.6556 37.3314C18.9761 36.7989 14.0568 34.9922 14.0568 26.9198C14.0568 24.6198 14.88 22.7404 16.2277 21.265C16.009 20.7342 15.2878 18.5916 16.4318 15.6896C16.4318 15.6896 18.201 15.1237 22.2267 17.8494C23.9074 17.3825 25.7096 17.1484 27.4999 17.1402C29.2902 17.1484 31.0939 17.3825 32.7776 17.8494C36.7987 15.1236 38.5652 15.6896 38.5652 15.6896C39.712 18.5916 38.9908 20.7342 38.772 21.265C40.1229 22.7404 40.9401 24.6199 40.9401 26.9198C40.9401 35.0116 36.0117 36.7931 31.3204 37.3146C32.0761 37.9685 32.7492 39.2505 32.7492 41.2159C32.7492 43.0994 32.7385 44.7373 32.7313 45.8239V45.8249L32.7313 45.8268C32.7277 46.365 32.7251 46.7676 32.7251 46.9975C32.7251 47.5582 33.1043 48.2152 34.172 48.0083C42.5384 45.2194 48.5673 37.3253 48.5673 28.0202C48.5674 16.3847 39.135 6.95288 27.5 6.95288ZM14.412 37.2012C14.3656 37.3061 14.2007 37.3374 14.0508 37.2655C13.8978 37.1968 13.8123 37.0539 13.8617 36.949C13.907 36.8414 14.0719 36.8113 14.2246 36.8832C14.3775 36.9521 14.4648 37.0962 14.412 37.2012ZM15.2654 38.1528C15.1649 38.2459 14.9683 38.2026 14.8352 38.0554C14.6972 37.9086 14.6717 37.712 14.7735 37.6176C14.877 37.5246 15.0675 37.5683 15.2055 37.7151C15.3434 37.8637 15.3704 38.0585 15.2654 38.1528ZM16.096 39.3661C15.9668 39.4561 15.7556 39.3719 15.6252 39.1846C15.496 38.9973 15.496 38.7724 15.6282 38.6825C15.7586 38.5925 15.9668 38.6737 16.0991 38.8593C16.2278 39.0497 16.2278 39.2745 16.096 39.3661ZM17.234 40.5385C17.1184 40.6658 16.8725 40.6315 16.6925 40.4577C16.5082 40.288 16.4571 40.0468 16.5727 39.9194C16.6899 39.7919 16.9372 39.8277 17.1185 40.0001C17.3013 40.1698 17.3569 40.4124 17.234 40.5385ZM18.8039 41.2192C18.7528 41.3842 18.516 41.4591 18.2775 41.389C18.0389 41.3168 17.8833 41.1235 17.9313 40.957C17.9807 40.7907 18.2189 40.7127 18.459 40.7877C18.6972 40.8595 18.8533 41.0512 18.8039 41.2192ZM20.5281 41.3452C20.5339 41.5189 20.3315 41.663 20.0811 41.6662C19.8293 41.672 19.6253 41.5313 19.6225 41.3601C19.6225 41.1847 19.8205 41.0423 20.0722 41.0378C20.3227 41.0331 20.5281 41.1728 20.5281 41.3452ZM22.1324 41.0723C22.1623 41.2417 21.9883 41.4158 21.7395 41.4622C21.4949 41.5071 21.2687 41.4022 21.2374 41.2343C21.207 41.0605 21.3842 40.8864 21.6285 40.8414C21.8775 40.7981 22.1007 40.8999 22.1324 41.0723Z" fill="black"/>
</svg>
