<svg width="55" height="55" viewBox="0 0 55 55" fill="none" xmlns="http://www.w3.org/2000/svg">
<g clip-path="url(#clip0_2001_4690)">
<path d="M29.3392 26.561L41.7162 44.2645H36.6366L26.5367 29.8184V29.8175L25.0539 27.6968L13.2556 10.8203H18.3351L27.8564 24.4403L29.3392 26.561Z" fill="black"/>
<path d="M49.0571 0H5.94287C2.6608 0 0 2.6608 0 5.94287V49.0571C0 52.3392 2.6608 55 5.94287 55H49.0571C52.3392 55 55 52.3392 55 49.0571V5.94287C55 2.6608 52.3392 0 49.0571 0ZM35.0808 46.6411L24.8603 31.7664L12.0641 46.6411H8.75697L23.3918 29.6301L8.75697 8.33068H19.9192L29.5973 22.416L41.7144 8.33068H45.0216L31.0663 24.5528H31.0654L46.243 46.6411H35.0808Z" fill="black"/>
</g>
<defs>
<clipPath id="clip0_2001_4690">
<rect width="55" height="55" fill="white"/>
</clipPath>
</defs>
</svg>
