<svg xmlns:xlink="http://www.w3.org/1999/xlink" xmlns="http://www.w3.org/2000/svg" data-v-dd76b8fc="" aria-labelledby="svgIcon-title-bed54197-3aac-4fe7-92e4-41b70fc7b60d" alt="Logo" role="img" class="svgIcon" style="width: 160px; height: 24px; fill: #ffffff" width="160"  height="24" ><defs><symbol viewBox="0 0 160 24" id="v-rebrand-logo"><path fill-rule="evenodd" clip-rule="evenodd" d="M103.033 12.365c0 3.634.458 5.87 3.785 5.87 3.297 0 3.755-2.236 3.755-5.87 0-3.606-.458-5.841-3.755-5.841-3.327 0-3.785 2.235-3.785 5.84zm-6.135-.21c0-5.93 1.496-11.323 9.92-11.323s9.891 5.393 9.891 11.324c0 5.901-1.496 11.295-9.891 11.295-8.424 0-9.92-5.394-9.92-11.295zM.14 1.1h6.045v22.083H.141V1.1zm21.495 10.223L15.531 1.1h-6.35v22.083h5.739V11.709l.092.002 6.93 11.472h5.553V1.1h-5.767v10.223h-.092zm17.027 6.762c2.259 0 3.876-.355 3.876-5.93 0-5.542-1.556-5.69-4.122-5.69h-1.862v11.62h2.108zm-8.15 5.098V1.1h7.509c7.204 0 10.652 1.908 10.652 11.027 0 9.297-3.388 11.056-10.561 11.056h-7.6zM50.839 1.1h6.044v22.083h-6.044V1.1zm98.345 17.135c-3.327 0-3.786-2.236-3.786-5.87 0-3.606.459-5.841 3.786-5.841 3.294 0 3.754 2.235 3.754 5.84 0 3.635-.46 5.871-3.754 5.871zm0-17.403c-8.425 0-9.922 5.393-9.922 11.324 0 5.901 1.497 11.295 9.922 11.295 8.393 0 9.889-5.394 9.889-11.295 0-5.931-1.465-11.324-9.889-11.324zM89.208 14.661h-3.9l.667-4.799h8.757v13.32h-5.558c-.973.18-2.102.269-3.416.269-7.418 0-9.249-4.62-9.249-11.295C76.51 4.498 79.013.832 86.826.832c2.808 0 5.31.714 7.022 1.788l-3.236 4.918c-1.038-.568-2.291-1.014-4.06-1.014-2.382 0-3.969.626-3.969 5.811 0 4.977.948 6.228 3.726 6.228 2.901 0 2.9-1.023 2.899-3.334V14.66zm38.465 0h3.899V15.229c.002 2.311.003 3.334-2.898 3.334-2.779 0-3.726-1.251-3.726-6.228 0-5.185 1.587-5.811 3.968-5.811 1.77 0 3.023.446 4.061 1.014l3.235-4.918c-1.71-1.074-4.213-1.788-7.021-1.788-7.813 0-10.317 3.666-10.317 11.324 0 6.675 1.831 11.295 9.249 11.295 1.314 0 2.443-.088 3.415-.268h5.559V9.862h-8.757l-.667 4.799zM74.918 1.1v5.393h-9.096v2.892h6.704l-.73 5.243h-5.974v3.31h9.096v5.244H59.9V1.1h15.018z"></path></symbol></defs><title id="svgIcon-title-bed54197-3aac-4fe7-92e4-41b70fc7b60d" fill="#E51075">
    Logo
  </title> <!----> <use xlink:href="#v-rebrand-logo"></use></svg>