<?xml version="1.0" encoding="utf-8"?>
<!-- Generator: Adobe Illustrator 26.1.0, SVG Export Plug-In . SVG Version: 6.00 Build 0)  -->
<svg version="1.1" id="Слой_1" xmlns="http://www.w3.org/2000/svg" xmlns:xlink="http://www.w3.org/1999/xlink" x="0px" y="0px"
	 viewBox="0 0 175.48 138.37" style="enable-background:new 0 0 175.48 138.37;" xml:space="preserve">
<style type="text/css">
	.st0{fill:#FFFFFF;}
</style>
<path id="_x23_0da8ffff_1_" class="st0" d="M82.09,0.19c15.25-1.03,30.79,2.05,44.42,8.94c20.23,9.97,36.36,27.85,43.83,48.96
	c3.37,9.38,5.13,19.2,5.13,29.17v36.8c0,1.47,0,3.08-0.29,4.54c-0.88,3.66-3.52,7.04-7.04,8.65c-2.49,1.17-5.28,1.32-7.77,0.88
	c-5.57-1.03-9.97-6.3-9.97-12.02c0-11.43,0-22.87,0-34.3c0.15-3.23,0.15-6.74-1.61-9.53c-2.79-5.28-9.82-7.77-15.25-5.57
	c-4.69,1.61-8.06,6.45-8.21,11.43c0,11.58,0,23.16,0,34.74c0,2.2,0.15,4.4-0.59,6.45c-1.17,4.1-4.54,7.33-8.65,8.5
	c-5.42,1.47-11.58-0.88-14.22-5.86c-1.91-2.93-1.76-6.6-1.61-9.97c0-11.58,0-23.02,0-34.6c-0.15-5.86-4.98-11.14-10.7-11.87
	c-3.81-0.59-7.77,0.73-10.55,3.37c-2.49,2.35-3.81,5.72-3.81,9.09v33.57c0,2.79,0.29,5.72-0.73,8.36
	c-1.61,4.84-6.45,8.36-11.58,8.21c-5.28,0.29-10.41-3.37-12.02-8.21c-0.88-2.49-0.73-4.98-0.73-7.62c0-11.58,0-23.16,0-34.74
	c0-5.72-4.54-10.99-10.12-12.02c-5.13-1.03-10.7,1.47-13.34,6.16c-1.03,1.91-1.61,4.1-1.61,6.3v37.68c0,3.66-1.61,7.33-4.4,9.68
	c-4.25,3.66-11.14,3.96-15.54,0.59c-3.23-2.2-5.13-6.01-5.13-9.97V87.86c0-14.37,3.66-28.73,10.55-41.49
	C16.13,35.96,23.9,26.73,33.13,19.4C46.76,7.96,64.21,1.22,82.09,0.19L82.09,0.19z"/>
</svg>
