<svg width="102" height="8" viewBox="0 0 102 8" fill="none" xmlns="http://www.w3.org/2000/svg">
<path d="M101.854 4.35355C102.049 4.15829 102.049 3.84171 101.854 3.64645L98.6716 0.464466C98.4763 0.269204 98.1597 0.269204 97.9645 0.464466C97.7692 0.659728 97.7692 0.976311 97.9645 1.17157L100.793 4L97.9645 6.82843C97.7692 7.02369 97.7692 7.34027 97.9645 7.53553C98.1597 7.7308 98.4763 7.7308 98.6716 7.53553L101.854 4.35355ZM1 4.5H101.5V3.5H1V4.5Z" fill="#3F3F3F"/>
<path d="M0.646446 4.35355C0.451187 4.15829 0.451187 3.84171 0.646446 3.64645L3.82843 0.464466C4.02369 0.269204 4.34027 0.269204 4.53554 0.464466C4.7308 0.659728 4.7308 0.976311 4.53554 1.17157L1.70711 4L4.53554 6.82843C4.7308 7.02369 4.7308 7.34027 4.53554 7.53553C4.34027 7.7308 4.02369 7.7308 3.82843 7.53553L0.646446 4.35355ZM101.5 4.5H1V3.5H101.5V4.5Z" fill="#3F3F3F"/>
</svg>
