<?xml version="1.0" encoding="utf-8"?>
<!-- Generator: Adobe Illustrator 23.0.1, SVG Export Plug-In . SVG Version: 6.00 Build 0)  -->
<svg version="1.1" id="Слой_1" xmlns="http://www.w3.org/2000/svg" xmlns:xlink="http://www.w3.org/1999/xlink" x="0px" y="0px"
	 viewBox="0 0 64.5 17.1" style="enable-background:new 0 0 64.5 17.1;" xml:space="preserve">
<style type="text/css">
	.st0{fill:#22314E;}
</style>
<g>
	<path class="st0" d="M3.7,2.1c0,1-0.8,1.9-1.8,1.9C0.8,4,0,3.1,0,2.1s0.8-1.9,1.8-1.9C2.8,0.2,3.7,1.1,3.7,2.1z"/>
	<path class="st0" d="M3.7,8.5c0,1-0.8,1.9-1.8,1.9c-1,0-1.8-0.8-1.8-1.9s0.8-1.9,1.8-1.9C2.8,6.6,3.7,7.5,3.7,8.5z"/>
	<path class="st0" d="M3.7,15c0,1-0.8,1.9-1.8,1.9C0.8,16.8,0,16,0,15c0-1,0.8-1.9,1.8-1.9C2.8,13.1,3.7,13.9,3.7,15z"/>
	<path class="st0" d="M10,8.5c0,1-0.8,1.9-1.8,1.9c-1,0-1.8-0.8-1.8-1.9s0.8-1.9,1.8-1.9C9.2,6.6,10,7.5,10,8.5z"/>
	<path class="st0" d="M10,2.1C10,3.1,9.2,4,8.2,4c-1,0-1.8-0.8-1.8-1.9s0.8-1.9,1.8-1.9C9.2,0.2,10,1.1,10,2.1z"/>
	<path class="st0" d="M16.4,8.5c0,1-0.8,1.9-1.8,1.9c-1,0-1.8-0.8-1.8-1.9s0.8-1.9,1.8-1.9C15.6,6.6,16.4,7.5,16.4,8.5z"/>
	<path class="st0" d="M16.4,2.1c0,1-0.8,1.9-1.8,1.9c-1,0-1.8-0.8-1.8-1.9s0.8-1.9,1.8-1.9C15.6,0.2,16.4,1.1,16.4,2.1z"/>
	<path class="st0" d="M16.4,15c0,1-0.8,1.9-1.8,1.9c-1,0-1.8-0.8-1.8-1.9c0-1,0.8-1.9,1.8-1.9C15.6,13.1,16.4,13.9,16.4,15z"/>
	<path class="st0" d="M10,15c0,1-0.8,1.9-1.8,1.9c-1,0-1.8-0.8-1.8-1.9c0-1,0.8-1.9,1.8-1.9C9.2,13.1,10,13.9,10,15z"/>
	<g>
		<path class="st0" d="M30.3,10l3.3,6.8h-2.8l-3.2-6.5H24v6.5h-2.4V0.3h7c2.8,0,5.1,1.5,5.1,4.9C33.8,7.8,32.5,9.5,30.3,10z
			 M28.7,2.6H24v5.3h4.7c1.6,0,2.7-0.9,2.7-2.6C31.4,3.5,30.3,2.6,28.7,2.6z"/>
		<path class="st0" d="M30.3,10l3.3,6.8h-2.8l-3.2-6.5H24v6.5h-2.4V0.3h7c2.8,0,5.1,1.5,5.1,4.9C33.8,7.8,32.5,9.5,30.3,10z
			 M28.7,2.6H24v5.3h4.7c1.6,0,2.7-0.9,2.7-2.6C31.4,3.5,30.3,2.6,28.7,2.6z"/>
		<path class="st0" d="M30.3,10l3.3,6.8h-2.8l-3.2-6.5H24v6.5h-2.4V0.3h7c2.8,0,5.1,1.5,5.1,4.9C33.8,7.8,32.5,9.5,30.3,10z
			 M28.7,2.6H24v5.3h4.7c1.6,0,2.7-0.9,2.7-2.6C31.4,3.5,30.3,2.6,28.7,2.6z"/>
	</g>
	<g>
		<path class="st0" d="M43.5,17.1c-4.1,0-6.8-3.5-6.8-8.5S39.4,0,43.5,0c4.2,0,6.8,3.5,6.8,8.5S47.7,17.1,43.5,17.1z M43.5,2.5
			c-2.8,0-4.3,2.3-4.3,6.1s1.5,6.1,4.3,6.1c2.8,0,4.3-2.3,4.3-6.1S46.4,2.5,43.5,2.5z"/>
		<path class="st0" d="M43.5,17.1c-4.1,0-6.8-3.5-6.8-8.5S39.4,0,43.5,0c4.2,0,6.8,3.5,6.8,8.5S47.7,17.1,43.5,17.1z M43.5,2.5
			c-2.8,0-4.3,2.3-4.3,6.1s1.5,6.1,4.3,6.1c2.8,0,4.3-2.3,4.3-6.1S46.4,2.5,43.5,2.5z"/>
		<path class="st0" d="M43.5,17.1c-4.1,0-6.8-3.5-6.8-8.5S39.4,0,43.5,0c4.2,0,6.8,3.5,6.8,8.5S47.7,17.1,43.5,17.1z M43.5,2.5
			c-2.8,0-4.3,2.3-4.3,6.1s1.5,6.1,4.3,6.1c2.8,0,4.3-2.3,4.3-6.1S46.4,2.5,43.5,2.5z"/>
	</g>
	<g>
		<path class="st0" d="M58.6,17.1c-2.3,0-4.3-1-5.7-2.7l1.7-1.7c1.1,1.2,2.7,2,4.2,2c2.2,0,3.3-0.8,3.3-2.4c0-1.3-0.9-1.9-3.6-2.7
			c-3.4-1-5-1.9-5-4.9c0-2.9,2.3-4.6,5.3-4.6c2.2,0,3.8,0.8,5.2,2.2L62.3,4c-1-1.1-2.1-1.6-3.7-1.6c-1.9,0-2.7,0.9-2.7,2.1
			c0,1.2,0.7,1.7,3.5,2.6c3.2,1,5.1,2,5.1,5C64.5,15,62.7,17.1,58.6,17.1z"/>
		<path class="st0" d="M58.6,17.1c-2.3,0-4.3-1-5.7-2.7l1.7-1.7c1.1,1.2,2.7,2,4.2,2c2.2,0,3.3-0.8,3.3-2.4c0-1.3-0.9-1.9-3.6-2.7
			c-3.4-1-5-1.9-5-4.9c0-2.9,2.3-4.6,5.3-4.6c2.2,0,3.8,0.8,5.2,2.2L62.3,4c-1-1.1-2.1-1.6-3.7-1.6c-1.9,0-2.7,0.9-2.7,2.1
			c0,1.2,0.7,1.7,3.5,2.6c3.2,1,5.1,2,5.1,5C64.5,15,62.7,17.1,58.6,17.1z"/>
		<path class="st0" d="M58.6,17.1c-2.3,0-4.3-1-5.7-2.7l1.7-1.7c1.1,1.2,2.7,2,4.2,2c2.2,0,3.3-0.8,3.3-2.4c0-1.3-0.9-1.9-3.6-2.7
			c-3.4-1-5-1.9-5-4.9c0-2.9,2.3-4.6,5.3-4.6c2.2,0,3.8,0.8,5.2,2.2L62.3,4c-1-1.1-2.1-1.6-3.7-1.6c-1.9,0-2.7,0.9-2.7,2.1
			c0,1.2,0.7,1.7,3.5,2.6c3.2,1,5.1,2,5.1,5C64.5,15,62.7,17.1,58.6,17.1z"/>
	</g>
</g>
</svg>
