<?xml version="1.0" encoding="utf-8"?>
<!-- Generator: Adobe Illustrator 23.0.1, SVG Export Plug-In . SVG Version: 6.00 Build 0)  -->
<svg version="1.1" id="Слой_1" xmlns="http://www.w3.org/2000/svg" xmlns:xlink="http://www.w3.org/1999/xlink" x="0px" y="0px"
	 viewBox="0 0 83.1 18.8" style="enable-background:new 0 0 83.1 18.8;" xml:space="preserve">
<style type="text/css">
	.st0{fill:#1E1E1E;}
	.st1{fill:#E6007A;}
</style>
<g>
	<path class="st0" d="M19.5,7.9c-1.6,0-3.1,0.7-4,2c-1.1,1.3-1.6,2.9-1.6,4.6c-0.1,1.1,0.3,2.1,1,3c0.7,0.8,1.6,1.2,2.7,1.1
		c1.5,0,2.9-0.7,3.8-1.9c1.1-1.4,1.7-3.1,1.7-4.8c0-1-0.3-2.1-0.8-2.9C21.7,8.2,20.7,7.9,19.5,7.9z M19.5,15.8
		c-0.5,0.5-1.2,0.8-1.9,0.8c-0.5,0-1-0.2-1.3-0.6c-0.3-0.5-0.5-1-0.4-1.6c0-1.2,0.3-2.4,1-3.3c0.5-0.8,1.5-1.4,2.5-1.3
		c1.1,0,1.7,0.7,1.7,2.1C21.1,13.3,20.5,14.7,19.5,15.8z M80.1,12.8c-0.5-0.2-1,0.1-1.2,0.5c-0.9,2.2-1.9,3.3-3.3,3.3
		c-0.7,0-1-0.6-1-1.7c0.1-1.3,0.3-2.5,0.6-3.8l0.3-1.3h2.7c0.5,0,0.9-0.3,0.9-0.8c0.1-0.5-0.2-1-0.8-1.1c-0.1,0-0.1,0-0.2,0h-2.2
		l0.4-2.2c0.1-0.5-0.2-1.1-0.8-1.2c-0.1,0-0.1,0-0.2,0c-0.5,0-0.9,0.3-1,0.8l-0.6,2.6h-6.3c-1.6,0-3.1,0.7-4,2
		c-1.1,1.3-1.6,2.9-1.6,4.6c0,0.5,0.1,0.9,0.2,1.3c-0.4,0.5-1,0.8-1.6,0.8c-0.3,0-0.6-0.1-0.8-0.3c-0.2-0.3-0.3-0.7-0.3-1.1
		c0-1.1,0.2-2.3,0.4-3.4l1.6-7.6c0.1-0.5-0.2-1.1-0.7-1.2c-0.5-0.1-1.1,0.2-1.2,0.7l0,0l-0.9,4.6C58,8,57.2,7.8,56.4,7.8
		c-1.6,0-3.1,0.7-4.1,1.9c-1.1,1.3-1.7,3-1.6,4.8c0,0.5,0.1,1.1,0.2,1.6c-0.4,0.3-0.9,0.5-1.4,0.5c-0.3,0-0.7-0.1-0.9-0.3
		c-0.2-0.3-0.3-0.7-0.3-1.1c0-0.8,0.1-1.5,0.3-2.2c0.1-0.6-0.3-1.1-0.8-1.2c0,0-0.1,0-0.1,0c-0.5-0.1-1,0.3-1.1,0.8
		c-0.3,1.1-0.7,2.1-1.4,3c-0.5,0.7-1.2,1.2-2.1,1.2c-0.4,0-0.8-0.2-1.1-0.6c-0.3-0.5-0.4-1.1-0.4-1.7c-0.1-1.2,0.3-2.3,1-3.3
		c0.6-0.8,1.5-1.3,2.6-1.3c0.5,0,1,0.1,1.5,0.3c0.3,0.1,0.6,0.1,0.9-0.1c0.5-0.3,0.6-0.9,0.3-1.3c-0.1-0.2-0.3-0.3-0.5-0.4
		c-0.3-0.1-0.5-0.2-0.8-0.3c-0.5-0.1-1-0.2-1.5-0.2c-1.6,0-3,0.7-4,1.9c-0.6,0.7-1,1.5-1.3,2.3l0,0c-1,3.1-2.2,4.6-3.7,4.6
		c-0.4,0-0.9-0.2-1.1-0.5c-0.2-0.4-0.4-0.8-0.3-1.2c0-0.1,0-0.3,0-0.4c0.9-0.4,1.7-0.9,2.3-1.7c0.6-0.7,0.9-1.6,0.9-2.6
		c0-1.6-0.8-2.3-2.6-2.3c-1.2,0-2.3,0.5-3.2,1.3l1.1-4.9c0.1-0.5-0.2-1.1-0.8-1.2c-0.1,0-0.1,0-0.2,0c-0.5,0-0.9,0.3-1,0.8
		l-2.9,13.6c-0.1,0.5,0.2,1.1,0.8,1.2c0.1,0,0.1,0,0.2,0l0,0c0.5,0,0.9-0.4,0.9-0.8l0.9-4.2c0.2-0.6,0.4-1.1,0.6-1.6
		c0.3-0.6,0.8-1.1,1.3-1.5c0.5-0.5,1.2-0.7,2-0.7c0.4-0.1,0.7,0.2,0.8,0.6c0,0.1,0,0.1,0,0.2c-0.1,0.7-0.4,1.3-0.9,1.7
		c-0.6,0.5-1.3,0.9-2,1c-0.1,0.6-0.1,1-0.1,1.3c0,1.1,0.3,2.1,0.9,3c0.6,0.8,1.5,1.2,2.5,1.1c1.3,0,2.6-0.6,3.4-1.7l0.4-0.4
		c0.1,0.4,0.3,0.7,0.6,1c0.6,0.7,1.5,1.2,2.5,1.1c1.3,0,2.5-0.6,3.4-1.9c0.4,1.3,1.3,1.9,2.9,1.9c0.9,0,1.7-0.3,2.4-0.9
		c0.6,0.6,1.4,0.9,2.2,0.8c1.3,0,2.5-0.6,3.4-1.9c0.4,1.3,1.3,1.9,2.9,1.9c1,0,2-0.4,2.7-1c0.7,0.7,1.6,1.1,2.5,1
		c1.5,0,2.9-0.7,3.8-1.9c1.1-1.4,1.7-3.1,1.7-4.8c0-0.7-0.1-1.4-0.4-2.1h2.6l-0.3,1.1c-0.3,1.3-0.5,2.6-0.6,4c0,2.4,1,3.7,3,3.7
		c2.2,0,3.9-1.5,5.1-4.5C80.8,13.6,80.6,13,80.1,12.8C80.2,12.8,80.1,12.8,80.1,12.8z M57.9,11.6c-0.3,1.7-0.9,3-1.5,3.8
		c-0.6,0.8-1.4,1.2-2.1,1.2c-0.4,0-0.8-0.2-1.1-0.6c-0.3-0.5-0.4-1.1-0.4-1.6c-0.1-1.2,0.3-2.3,1-3.3c0.9-1.3,2.7-1.7,4-0.8
		c0.1,0.1,0.3,0.2,0.4,0.3L57.9,11.6z M68.8,14c-0.3,0.6-0.7,1.3-1.1,1.8c-0.5,0.5-1.2,0.8-1.9,0.8c-0.5,0-0.9-0.2-1.2-0.6
		c-0.3-0.5-0.5-1-0.4-1.6c0-1.2,0.3-2.4,1-3.3c0.5-0.8,1.5-1.3,2.5-1.3c1.1,0,1.7,0.7,1.7,2.1C69.2,12.6,69,13.3,68.8,14L68.8,14z
		 M27.9,3c-0.5,0-0.9,0.3-1,0.8l-2.9,13.6c-0.1,0.5,0.2,1.1,0.8,1.2c0.1,0,0.1,0,0.2,0c0.5,0,0.9-0.3,1-0.8l2.9-13.6
		C29,3.6,28.7,3.1,28.1,3C28.1,3,28,3,27.9,3z M7.1,0C3.2,0,0,3.2,0,7.1c0,0.8,0.1,1.6,0.4,2.3c0.2,0.5,0.7,0.8,1.3,0.6
		c0.5-0.2,0.8-0.7,0.6-1.3C2,8.2,1.9,7.6,2,7C2,4.2,4.4,1.9,7.3,2c2.8,0.1,5.1,2.5,5,5.3c-0.1,2.7-2.2,4.8-4.8,5c0,0-1,0.1-1.5,0.1
		c-0.2,0-0.4,0.1-0.5,0.1c0,0-0.1,0-0.1,0c0,0,0-0.1,0-0.1l0.2-0.8l0.9-4.3c0.1-0.5-0.2-1-0.8-1.2c-0.5-0.1-1,0.2-1.2,0.8
		c0,0-2.2,10.4-2.2,10.5c-0.1,0.5,0.2,1,0.7,1.1c0,0,0,0,0.1,0c0.5,0.1,1-0.2,1.1-0.7c0,0,0,0,0,0c0-0.1,0.3-1.5,0.3-1.5
		c0.2-1,1.1-1.8,2.1-2c0.2,0,1.1-0.1,1.1-0.1c3.9-0.4,6.8-3.8,6.4-7.8C13.8,2.9,10.8,0.1,7.1,0z"/>
	<path class="st1" d="M82.2,16.4c-0.6-0.1-1.3,0.3-1.4,0.9c0,0,0,0,0,0c-0.1,0.6,0.3,1.3,0.9,1.4c0,0,0,0,0,0
		c0.6,0.1,1.3-0.2,1.4-0.9c0,0,0,0,0-0.1C83.2,17.2,82.8,16.6,82.2,16.4z"/>
</g>
</svg>
