<?xml version="1.0" encoding="utf-8"?>
<!-- Generator: Adobe Illustrator 23.0.1, SVG Export Plug-In . SVG Version: 6.00 Build 0)  -->
<svg version="1.1" id="Слой_1" xmlns="http://www.w3.org/2000/svg" xmlns:xlink="http://www.w3.org/1999/xlink" x="0px" y="0px"
	 viewBox="0 0 76.5 22" style="enable-background:new 0 0 76.5 22;" xml:space="preserve">
<style type="text/css">
	.st0{fill-rule:evenodd;clip-rule:evenodd;fill:url(#path3336-6_1_);}
	.st1{fill-rule:evenodd;clip-rule:evenodd;fill:url(#SVGID_1_);}
	.st2{fill-rule:evenodd;clip-rule:evenodd;fill:url(#SVGID_2_);}
	.st3{fill-rule:evenodd;clip-rule:evenodd;fill:url(#SVGID_3_);}
	.st4{fill-rule:evenodd;clip-rule:evenodd;fill:url(#SVGID_4_);}
	.st5{fill-rule:evenodd;clip-rule:evenodd;fill:url(#SVGID_5_);}
	.st6{fill-rule:evenodd;clip-rule:evenodd;fill:url(#SVGID_6_);}
</style>
<linearGradient id="path3336-6_1_" gradientUnits="userSpaceOnUse" x1="193.7354" y1="-246.6676" x2="199.3829" y2="-256.4351" gradientTransform="matrix(0.8 0 0 -0.8 -150.435 -185.0259)">
	<stop  offset="0" style="stop-color:#699AD7"/>
	<stop  offset="0.2435" style="stop-color:#7EB1DD"/>
	<stop  offset="1" style="stop-color:#7EBAE4"/>
</linearGradient>
<path id="path3336-6_3_" class="st0" d="M7.7,11.3l6.2,10.7l-2.8,0l-1.6-2.9L7.8,22l-1.4,0l-0.7-1.2L8,16.6l-1.7-2.9L7.7,11.3z"/>
<g>
	<linearGradient id="SVGID_1_" gradientUnits="userSpaceOnUse" x1="0.6106" y1="16.4867" x2="5.1285" y2="8.6727">
		<stop  offset="0" style="stop-color:#699AD7"/>
		<stop  offset="0.2435" style="stop-color:#7EB1DD"/>
		<stop  offset="1" style="stop-color:#7EBAE4"/>
	</linearGradient>
	<polygon class="st1" points="5.4,9.8 0.7,9.8 0,11 0.7,12.2 4,12.2 2.3,15.1 3.8,17.5 10,6.9 7.1,6.9 	"/>
	<linearGradient id="SVGID_2_" gradientUnits="userSpaceOnUse" x1="13.7876" y1="20.2838" x2="16.8163" y2="15.0456">
		<stop  offset="0" style="stop-color:#699AD7"/>
		<stop  offset="0.2435" style="stop-color:#7EB1DD"/>
		<stop  offset="1" style="stop-color:#7EBAE4"/>
	</linearGradient>
	<polygon class="st2" points="22.8,15.4 10.4,15.4 11.9,17.9 15.2,17.9 17.6,21.9 19,21.9 19.7,20.7 18.1,17.9 21.4,17.9 	"/>
	<linearGradient id="SVGID_3_" gradientUnits="userSpaceOnUse" x1="12.7091" y1="8.5107" x2="16.3528" y2="2.2087">
		<stop  offset="0" style="stop-color:#699AD7"/>
		<stop  offset="0.2435" style="stop-color:#7EB1DD"/>
		<stop  offset="1" style="stop-color:#7EBAE4"/>
	</linearGradient>
	<polygon class="st3" points="19,8.2 17.3,5.3 19.7,1.3 19,0 17.6,0 15.9,2.9 14.3,0 11.4,0 17.6,10.7 	"/>
</g>
<g>
	<linearGradient id="SVGID_4_" gradientUnits="userSpaceOnUse" x1="7.1638" y1="23.0298" x2="10.7569" y2="16.6785">
		<stop  offset="0" style="stop-color:#415E9A"/>
		<stop  offset="0.2317" style="stop-color:#4A6BAF"/>
		<stop  offset="1" style="stop-color:#5277C3"/>
	</linearGradient>
	<polygon class="st4" points="6.3,13.7 8,16.6 5.6,20.7 6.3,22 7.8,22 9.4,19.1 11.1,22 13.9,21.9 7.7,11.3 	"/>
	<linearGradient id="SVGID_5_" gradientUnits="userSpaceOnUse" x1="6.9999" y1="9.5769" x2="9.9706" y2="4.3257">
		<stop  offset="0" style="stop-color:#415E9A"/>
		<stop  offset="0.2317" style="stop-color:#4A6BAF"/>
		<stop  offset="1" style="stop-color:#5277C3"/>
	</linearGradient>
	<polygon class="st5" points="10.1,4.1 7.8,0 6.3,0 5.6,1.2 7.2,4.1 3.9,4.1 2.5,6.5 14.9,6.5 13.5,4.1 	"/>
	<linearGradient id="SVGID_6_" gradientUnits="userSpaceOnUse" x1="17.9238" y1="17.3187" x2="22.3616" y2="9.4743">
		<stop  offset="0" style="stop-color:#415E9A"/>
		<stop  offset="0.2317" style="stop-color:#4A6BAF"/>
		<stop  offset="1" style="stop-color:#5277C3"/>
	</linearGradient>
	<polygon class="st6" points="24.6,9.7 21.3,9.7 23,6.9 21.5,4.4 15.4,15.1 18.2,15.1 19.9,12.2 24.6,12.2 25.3,11 	"/>
</g>
<g id="g5329_3_" transform="translate(-132.5822,958.04022)">
	<g id="text5407_3_">
		<path id="path4683_3_" d="M173.6-953.7h-1.6v7.1c0,1,0,2.6,0.1,4.3h-0.1c-0.8-1.5-1.7-2.9-2.3-3.8l-4.9-7.6h-2.1v13.5h1.6v-7.1
			c0-1,0-2.9-0.1-4.6h0.1c1.2,2,1.8,3.1,2.5,4.1l4.9,7.6h1.9V-953.7z"/>
		<path id="path4685_3_" d="M176.6-940.2h1.7v-9.7h-1.7V-940.2z M177.4-951.2c0.6,0,1-0.5,1-1c0-0.6-0.5-1-1-1c-0.6,0-1,0.5-1,1
			C176.4-951.7,176.8-951.2,177.4-951.2z"/>
		<path id="path4687_3_" d="M188.7-949.8h-1.9l-2.4,3.6h-0.1l-2.3-3.6H180l3.5,4.7v0.1l-3.6,4.9h1.9l2.5-3.8h0.1l2.5,3.8h2.1l-3.7-5
			v-0.1L188.7-949.8z"/>
	</g>
	<g id="text5356_3_" transform="scale(0.95067318,1.0518862)">
		<path id="path4680_3_" d="M205.3-906.4c-3.3,0-6.1,2.4-6.1,6.5s2.7,6.5,6.1,6.5s6.1-2.4,6.1-6.5S208.6-906.4,205.3-906.4z
			 M205.3-905.2c2.5,0,4.4,1.9,4.4,5.2s-1.9,5.2-4.4,5.2s-4.4-1.9-4.4-5.2S202.8-905.2,205.3-905.2z"/>
	</g>
	<g id="text5364_3_">
		<path id="path4677_3_" d="M201.6-950c0,1.9,1,2.9,3.2,3.8c1.7,0.7,2.4,1.3,2.4,2.6c0,1.6-1.3,2.3-2.9,2.3c-0.9,0-1.9-0.1-3-0.5
			l-0.2,1.3c1,0.4,2,0.5,3.1,0.5c2.6,0,4.8-1.3,4.8-4c0-1.9-1.1-2.8-3.4-3.7c-1.5-0.6-2.3-1.2-2.3-2.6c0-1.3,1.1-2,2.6-2
			c0.8,0,1.8,0.2,2.4,0.5l0.2-1.3c-0.7-0.3-1.7-0.5-2.7-0.5C203.4-953.5,201.6-952.1,201.6-950L201.6-950z"/>
	</g>
</g>
</svg>
