<?xml version="1.0" encoding="utf-8"?>
<!-- Generator: Adobe Illustrator 23.0.1, SVG Export Plug-In . SVG Version: 6.00 Build 0)  -->
<svg version="1.1" id="Слой_1" xmlns="http://www.w3.org/2000/svg" xmlns:xlink="http://www.w3.org/1999/xlink" x="0px" y="0px"
	 viewBox="0 0 143.1 24.8" style="enable-background:new 0 0 143.1 24.8;" xml:space="preserve">
<style type="text/css">
	.st0{fill:#3B3B3B;}
</style>
<g>
	<path class="st0" d="M12.9,17.8c0,0.3-0.3,0.6-0.6,0.6H1.2c0.3,2.8,2.4,5.3,5.3,5.3c2,0,3.5-0.8,4.6-2.4c0.2-0.2,0.4-0.4,0.7-0.2
		c0.2,0.1,0.3,0.2,0.3,0.4c0,0.2,0,0.3-0.1,0.4c-1.1,2-3.4,2.9-5.6,2.9c-3.8,0-6.4-3.4-6.4-7c0-3.6,2.7-7,6.4-7
		C10.2,10.9,12.9,14.2,12.9,17.8z M11.7,17.3C11.5,14.5,9.4,12,6.5,12s-5,2.5-5.3,5.3H11.7z"/>
	<path class="st0" d="M26.5,11.1c0.3,0,0.6,0.3,0.6,0.6c0,0.3-0.2,0.6-0.6,0.6h-3V24c0,0.3-0.2,0.6-0.6,0.6c-0.3,0-0.6-0.3-0.6-0.6
		V12.3h-2.9c-0.3,0-0.6-0.2-0.6-0.6c0-0.3,0.2-0.6,0.6-0.6h2.9V6.8c0-0.3,0.2-0.5,0.4-0.6c0.4-0.1,0.7,0.2,0.7,0.6v4.3H26.5z"/>
	<path class="st0" d="M44.7,16.8v7.1c0,0.3-0.3,0.6-0.6,0.6c-0.3,0-0.6-0.2-0.6-0.6v-7.1c0-2.4-1.4-4.8-4-4.8c-3.4,0-4.9,3-4.7,6.1
		c0,0.1,0,0.4,0,0.5v5.3c0,0.3-0.2,0.5-0.4,0.6c-0.4,0.1-0.7-0.2-0.7-0.6V0.6C33.8,0.3,34,0,34.4,0c0.3,0,0.6,0.3,0.6,0.6v13.2
		c1-1.7,2.7-2.9,4.7-2.9C42.9,10.9,44.7,13.8,44.7,16.8z"/>
	<path class="st0" d="M64.8,17.8c0,0.3-0.3,0.6-0.6,0.6H53c0.3,2.8,2.4,5.3,5.3,5.3c2,0,3.5-0.8,4.6-2.4c0.2-0.2,0.4-0.4,0.7-0.2
		c0.2,0.1,0.3,0.2,0.3,0.4c0,0.2,0,0.3-0.1,0.4c-1.1,2-3.4,2.9-5.6,2.9c-3.8,0-6.4-3.4-6.4-7c0-3.6,2.7-7,6.4-7
		C62,10.9,64.8,14.2,64.8,17.8z M63.6,17.3c-0.2-2.8-2.4-5.3-5.3-5.3c-2.9,0-5,2.5-5.3,5.3H63.6z"/>
	<path class="st0" d="M78.5,11.7c0,0.4-0.2,0.6-0.5,0.6c-3.3,0.5-4.8,3.2-4.8,6.3v5.3c0,0.3-0.2,0.5-0.4,0.6
		c-0.4,0.1-0.7-0.2-0.7-0.6V11.7c0-0.3,0.2-0.5,0.4-0.6c0.4-0.1,0.7,0.2,0.7,0.6v2.5c0.9-1.6,2.8-3,4.7-3
		C78.1,11.1,78.5,11.4,78.5,11.7z"/>
	<path class="st0" d="M96.8,17.8c0,0.3-0.3,0.6-0.6,0.6H85.1c0.3,2.8,2.4,5.3,5.3,5.3c2,0,3.5-0.8,4.6-2.4c0.2-0.2,0.4-0.4,0.7-0.2
		c0.2,0.1,0.3,0.2,0.3,0.4c0,0.2,0,0.3-0.1,0.4c-1.1,2-3.4,2.9-5.6,2.9c-3.8,0-6.4-3.4-6.4-7c0-3.6,2.7-7,6.4-7
		C94.1,10.9,96.8,14.2,96.8,17.8z M95.6,17.3c-0.2-2.8-2.4-5.3-5.3-5.3s-5,2.5-5.3,5.3H95.6z"/>
	<path class="st0" d="M114.8,11.8v3.9V24c0,0.3-0.3,0.6-0.6,0.6c-0.3,0-0.6-0.2-0.6-0.6v-2.3c-0.9,1.8-2.6,3.2-4.6,3.2
		c-3.3,0-5.2-2.9-5.2-5.9v-7.2c0-0.3,0.2-0.6,0.6-0.6s0.6,0.3,0.6,0.6v7.2c0,2.4,1.4,4.8,4,4.8c3.8,0,4.6-3.5,4.6-7.4v-4.6
		c0-0.3,0.3-0.7,0.7-0.5C114.7,11.3,114.8,11.6,114.8,11.8z"/>
	<path class="st0" d="M143.1,16.8v7.2c0,0.3-0.3,0.6-0.6,0.6c-0.3,0-0.6-0.2-0.6-0.6v-7.2c0-2.4-1.4-4.8-4-4.8
		c-3.4,0-4.6,3.6-4.6,6.4v5.5c0,0.3-0.3,0.6-0.6,0.6c-0.3,0-0.6-0.2-0.6-0.6v-7.2c0-2.4-1.4-4.8-4-4.8c-3.4,0-4.8,2.7-4.7,6.2
		c0,0.1,0,0.2,0,0.3v5.4c0,0.3-0.2,0.5-0.4,0.6c-0.4,0.1-0.7-0.2-0.7-0.6V11.7c0-0.3,0.2-0.5,0.4-0.6c0.4-0.1,0.7,0.2,0.7,0.6v2
		c1-1.7,2.7-2.8,4.7-2.8c2.3,0,4,1.4,4.8,3.6c0.9-2.1,2.7-3.6,5-3.6C141.2,10.9,143.1,13.7,143.1,16.8z"/>
</g>
</svg>
