<?xml version="1.0" encoding="utf-8"?>
<!-- Generator: Adobe Illustrator 23.0.1, SVG Export Plug-In . SVG Version: 6.00 Build 0)  -->
<svg version="1.1" id="Слой_1" xmlns="http://www.w3.org/2000/svg" xmlns:xlink="http://www.w3.org/1999/xlink" x="0px" y="0px"
	 viewBox="0 0 72.9 28.8" style="enable-background:new 0 0 72.9 28.8;" xml:space="preserve">
<style type="text/css">
	.st0{fill:#1E1E1E;}
	.st1{fill:#469EA2;}
	.st2{fill:#6ACAD1;}
	.st3{fill:#083B54;fill-opacity:0.15;}
	.st4{fill:#083B54;fill-opacity:5.000000e-02;}
</style>
<g>
	<path class="st0" d="M30.9,6.6h2.6v15.6h-2.6V6.6z M36.2,6.6h5.4c1.2,0,2.1,0.1,2.9,0.4c0.8,0.3,1.4,0.6,1.8,1.1
		C46.7,8.4,47,9,47.2,9.5c0.2,0.6,0.3,1.2,0.3,1.8c0,0.6-0.1,1.3-0.3,1.9c-0.2,0.6-0.5,1.1-0.9,1.6c-0.5,0.5-1.1,0.9-1.8,1.1
		c-0.8,0.3-1.7,0.4-2.9,0.4h-2.8v5.8h-2.6V6.6z M41.5,14.1c0.6,0,1.1,0,1.6-0.2c0.4-0.1,0.7-0.3,1-0.5c0.2-0.2,0.4-0.5,0.5-0.9
		c0.1-0.4,0.1-0.7,0.1-1.1c0-0.4,0-0.8-0.1-1.1c-0.1-0.3-0.3-0.6-0.5-0.8c-0.3-0.2-0.6-0.4-1-0.5c-0.5-0.1-1.1-0.2-1.6-0.2h-2.7v5.4
		H41.5z M59.3,6.6v2.3H52v4.4h6.9v2.3H52v6.6h-2.6V6.6H59.3z M63.2,17.4c0.1,1,0.5,1.8,1.1,2.2c0.6,0.5,1.5,0.7,2.8,0.7
		c0.5,0,1-0.1,1.5-0.2c0.4-0.1,0.7-0.3,1-0.5c0.2-0.2,0.4-0.5,0.5-0.8c0.1-0.3,0.2-0.6,0.1-0.9c0-0.2,0-0.5-0.1-0.7
		c-0.1-0.2-0.2-0.5-0.4-0.7c-0.2-0.2-0.5-0.4-0.8-0.5c-0.4-0.2-0.8-0.3-1.2-0.4l-2-0.4c-0.7-0.1-1.4-0.3-2.1-0.5
		c-0.6-0.2-1.1-0.5-1.5-0.9c-0.4-0.4-0.7-0.8-0.9-1.3c-0.2-0.6-0.3-1.2-0.3-1.9c0-1.3,0.6-2.6,1.7-3.3c0.6-0.4,1.2-0.7,1.9-0.8
		c0.8-0.2,1.6-0.3,2.3-0.3c1.1,0,2,0.1,2.7,0.4c0.6,0.2,1.2,0.5,1.8,1c0.4,0.4,0.8,0.9,1,1.4c0.2,0.5,0.4,1.1,0.5,1.6l-2.5,0.4
		C70,10.1,69.7,9.4,69.2,9s-1.3-0.6-2.4-0.6c-0.5,0-1,0-1.6,0.2c-0.4,0.1-0.7,0.2-1,0.5c-0.2,0.2-0.4,0.4-0.5,0.7
		c-0.1,0.3-0.2,0.5-0.2,0.8c0,0.7,0.2,1.2,0.5,1.5c0.4,0.3,1,0.6,2,0.8l2.1,0.4c1.6,0.3,2.8,0.8,3.6,1.6c0.8,0.7,1.2,1.8,1.2,3.2
		c0,0.6-0.1,1.2-0.4,1.8c-0.2,0.6-0.6,1.1-1.1,1.5c-0.5,0.4-1.2,0.8-1.8,1c-0.8,0.3-1.7,0.4-2.6,0.4c-2,0-3.6-0.4-4.7-1.3
		c-1.1-0.8-1.8-2.1-1.9-3.9L63.2,17.4L63.2,17.4z"/>
	<path class="st1" d="M0,21.5l12.4,7.2l12.4-7.2V7.2L12.4,0L0,7.2C0,7.2,0,21.5,0,21.5z"/>
	<path class="st2" d="M11.2,1.7l-9,5.2c0,0.2,0,0.3,0,0.5l9,5.2c0.8-0.6,1.8-0.6,2.6,0l9-5.2c0-0.2,0-0.3,0-0.5l-9-5.2
		C13,2.3,11.9,2.3,11.2,1.7z M23.6,8.9l-9,5.3c0.1,0.9-0.4,1.8-1.3,2.2l0,10.4c0.1,0.1,0.3,0.1,0.4,0.2l9-5.2
		c-0.1-0.9,0.4-1.8,1.3-2.2V9.1C23.9,9,23.7,8.9,23.6,8.9z M1.3,8.9C1.1,9,1,9.1,0.9,9.2v10.4c0.9,0.4,1.4,1.3,1.3,2.2l9,5.2
		c0.1-0.1,0.3-0.2,0.4-0.2V16.4c-0.9-0.4-1.4-1.3-1.3-2.2C10.3,14.1,1.3,8.9,1.3,8.9z"/>
	<path class="st1" d="M12.4,1.6L23.6,8v12.8l-11.1,6.4L1.3,20.8V8L12.4,1.6 M12.4,0L0,7.2v14.4l12.4,7.2l12.4-7.2V7.2
		C24.9,7.2,12.4,0,12.4,0z"/>
	<path class="st1" d="M12.5,16.8h-0.2c-1.3,0-2.3-1-2.3-2.3c0,0,0,0,0,0v-0.2c0-1.3,1-2.3,2.3-2.3c0,0,0,0,0,0h0.2
		c1.3,0,2.3,1,2.3,2.3c0,0,0,0,0,0v0.2C14.9,15.8,13.8,16.8,12.5,16.8C12.5,16.8,12.5,16.8,12.5,16.8z M12.5,26.4h-0.2
		c-0.8,0-1.6,0.5-2,1.2l2.1,1.2l2.1-1.2C14.1,26.8,13.4,26.4,12.5,26.4z M24.9,19.2L24.9,19.2c-1.4,0-2.4,1-2.4,2.3c0,0,0,0,0,0v0.2
		c0,0.4,0.1,0.8,0.3,1.1l2.1-1.2V19.2z M22.8,6c-0.2,0.3-0.3,0.7-0.3,1.1v0.2c0,1.3,1,2.3,2.3,2.3c0,0,0,0,0,0h0.1V7.2L22.8,6
		L22.8,6z M12.4,0l-2.1,1.2c0.4,0.7,1.2,1.2,2,1.2h0.2c0.8,0,1.6-0.5,2-1.2L12.4,0z M2.1,6L0,7.2v2.4h0.1c1.3,0,2.3-1,2.3-2.3
		c0,0,0,0,0,0V7.1C2.4,6.7,2.3,6.3,2.1,6z M0.1,19.2L0.1,19.2L0,21.6l2.1,1.2c0.2-0.3,0.3-0.7,0.3-1.1v-0.2
		C2.4,20.2,1.4,19.2,0.1,19.2C0.1,19.2,0.1,19.2,0.1,19.2z"/>
	<path class="st3" d="M12.4,28.8V14.5L0,7.3v14.4L12.4,28.8z"/>
	<path class="st4" d="M24.9,21.5V7.2l-12.4,7.2v14.4L24.9,21.5z"/>
</g>
</svg>
