<svg width="150" height="32" viewBox="0 0 150 32" fill="none" xmlns="http://www.w3.org/2000/svg">
<g clip-path="url(#clip0_221_512)">
<path d="M20.8578 20.9967C20.2413 20.9967 19.6325 20.9851 19.0237 21.0082C18.9158 21.0121 18.7463 21.1509 18.7154 21.2588C18.0565 23.5875 15.9102 24.96 13.3825 24.9947C9.89915 25.041 6.4158 25.0063 2.93244 25.0179C2.60491 25.0179 2.47005 24.9253 2.48546 24.5822C2.50858 23.9576 2.48932 23.333 2.49317 22.7085C2.49702 21.733 3.16364 21.0699 4.16934 21.066C6.31561 21.0583 8.46574 21.066 10.612 21.066C11.8451 21.066 12.6273 20.0405 12.3074 18.853C12.1495 18.267 11.7449 17.9162 11.1592 17.8622C10.454 17.7928 9.74117 17.7966 9.03217 17.7889C7.58334 17.7735 6.13065 17.7889 4.68183 17.7581C2.52785 17.7118 0.647455 16.2545 0.0694648 14.2188C0.0463452 14.1417 0.0386386 14.0569 0.0078125 13.8795H2.235C2.32363 12.854 2.27739 11.894 2.50858 11.0111C3.04419 8.98316 4.48531 7.86508 6.52369 7.50653C6.93984 7.43328 7.37141 7.41786 7.79527 7.41786C10.9935 7.41014 14.1955 7.414 17.3938 7.41786C17.7739 7.41786 17.9653 7.60292 17.9679 7.97304C17.9679 8.53978 17.9679 9.11039 17.9679 9.67713C17.9679 10.7528 17.3629 11.362 16.2763 11.3658C13.4326 11.3697 10.5889 11.3658 7.74517 11.3658C6.78186 11.3658 6.22699 12.0675 6.44662 13.0044C6.56993 13.5326 7.04003 13.895 7.64114 13.8988C8.87803 13.9065 10.1149 13.8718 11.3518 13.9104C12.793 13.9528 14.0799 14.4077 15.1011 15.4795C15.9295 16.347 16.3765 17.3918 16.4266 18.5793C16.4574 19.3118 16.3919 20.0521 16.3572 20.7885C16.3457 20.9967 16.3881 21.1239 16.6154 21.1239C17.1433 21.1239 17.6673 21.1239 18.1952 21.1239C18.542 21.1239 18.5189 20.8733 18.5189 20.642C18.5189 18.907 18.5189 17.1759 18.5189 15.441C18.5189 15.0709 18.5343 14.7007 18.5151 14.3345C18.4996 14.0145 18.5921 13.868 18.9428 13.8873C19.4514 13.9142 19.9677 13.8757 20.4764 13.8988C20.827 13.9142 20.9388 13.7986 20.9349 13.44C20.9195 11.6087 20.9349 9.77352 20.9195 7.94219C20.9156 7.53737 21.0351 7.38701 21.4512 7.40243C22.1333 7.43328 22.8153 7.40629 23.4973 7.41014C24.3566 7.41786 25.0117 7.98846 25.0309 8.84822C25.0656 10.3827 25.0386 11.9171 25.0463 13.4516C25.0463 13.7099 24.9269 13.76 24.7073 13.76C24.1254 13.7523 23.5397 13.7677 22.9579 13.7562C22.6843 13.7523 22.5764 13.8603 22.5803 14.134C22.5841 16.3239 22.5841 18.5099 22.5803 20.6998C22.5803 20.9697 22.6689 21.0776 22.9502 21.0699C23.532 21.0545 24.1177 21.0738 24.6996 21.0622C24.9539 21.0545 25.0502 21.1393 25.0502 21.4053C25.0386 22.4848 25.0425 23.5644 25.0502 24.6439C25.0502 24.9176 24.9346 25.0217 24.6649 25.0179C23.9828 25.0101 23.3008 25.0179 22.6188 25.0179C21.5707 25.014 20.9503 24.401 20.9349 23.3562C20.9233 22.6159 20.9272 21.8795 20.9195 21.1393C20.9195 21.1123 20.9002 21.0892 20.8656 21.0005L20.8578 20.9967Z" fill="#FF1A77"/>
<path d="M59.8646 24.4665C59.8145 24.4665 59.7644 24.451 59.7336 24.4665C58.9013 25.0062 57.9765 25.0294 57.0286 25.0139C55.5798 24.9908 54.1271 25.0139 52.6783 25.0024C50.3124 24.9831 48.4705 23.6491 47.7345 21.4091C47.6228 21.0737 47.4686 20.9696 47.1334 20.985C46.5785 21.012 46.0237 21.0082 45.4688 20.9812C45.3532 20.9735 45.176 20.8308 45.1451 20.7151C45.0565 20.4183 44.9949 20.106 44.9949 19.7975C44.9794 17.9662 44.991 16.131 44.9756 14.2997C44.9756 13.9913 45.0526 13.8641 45.3802 13.8795C45.9042 13.9026 46.4321 13.8679 46.9562 13.891C47.2953 13.9065 47.3916 13.7831 47.3916 13.4515C47.3877 12.4838 47.4494 11.52 47.8463 10.6139C48.6323 8.80574 50.0503 7.79562 51.9693 7.51032C52.79 7.38695 53.6377 7.4255 54.4739 7.41008C55.2831 7.39466 56.0961 7.42165 56.9053 7.40237C57.9418 7.37924 58.9591 7.3908 59.8569 8.18116C59.9918 7.42936 60.4888 7.38695 61.0514 7.40237C61.8914 7.4255 62.7276 7.41779 63.5676 7.40237C63.8836 7.39466 63.9915 7.50647 63.9876 7.81876C63.9799 9.6655 63.9799 11.5122 63.9876 13.359C63.9876 13.6443 63.9028 13.7677 63.5984 13.76C63.0436 13.7407 62.4887 13.7638 61.9338 13.7522C61.6564 13.7484 61.5639 13.8563 61.5639 14.1301C61.5716 16.3315 61.5716 18.5368 61.5639 20.7383C61.5639 21.0544 61.7065 21.1277 61.9762 21.1238C62.5041 21.1161 63.0281 21.1354 63.556 21.12C63.8527 21.1122 63.9992 21.1932 63.9953 21.5248C63.976 23.3137 64.057 25.1103 63.9414 26.8954C63.8065 29.0004 62.3423 31.0207 59.8762 31.7339C59.2982 31.8997 58.674 31.9845 58.0728 31.9884C55.102 32.0154 52.1273 32 49.1564 32C48.5861 32 48.5745 31.9884 48.5745 31.4371C48.5745 30.8549 48.5745 30.2727 48.5745 29.6906C48.5745 28.6149 49.1448 28.0404 50.2276 28.0404C52.7438 28.0366 55.26 28.0404 57.78 28.0366C58.0343 28.0366 58.2925 28.0173 58.5429 27.9749C59.2442 27.8592 59.7644 27.4583 59.8531 26.7604C59.9494 26.0125 59.8762 25.2453 59.8762 24.478L59.8646 24.4665ZM49.1024 16.8751V19.3041C49.1024 19.331 49.1024 19.3619 49.1024 19.3889C49.1063 20.4298 49.7729 21.12 50.8287 21.1315C52.4625 21.1469 54.0963 21.1431 55.7301 21.1315C56.308 21.1315 56.8668 20.958 57.1558 20.4337C57.36 20.0674 57.4794 19.6125 57.491 19.1922C57.5295 17.5614 57.5141 15.9267 57.5026 14.2959C57.5026 13.9797 57.5989 13.8679 57.9187 13.8795C58.4736 13.8988 59.0285 13.8988 59.5795 13.8718C59.6951 13.8679 59.8916 13.7368 59.8993 13.652C60.038 12.3527 59.6681 11.3002 57.9881 11.2963C56.466 11.2886 54.9478 11.2848 53.4258 11.3041C53.106 11.3041 52.7669 11.358 52.474 11.4776C51.6687 11.8091 51.476 12.5069 51.5069 13.2935C51.5223 13.6404 51.4221 13.7792 51.056 13.7561C50.5474 13.7291 50.0311 13.7677 49.5224 13.7445C49.1795 13.7291 49.0832 13.8602 49.0909 14.1879C49.1101 15.0824 49.0986 15.9768 49.0986 16.8713L49.1024 16.8751Z" fill="#FF1A77"/>
<path d="M104.062 23.3563C103.549 24.5206 102.686 25.0334 101.461 25.0141C100.197 24.991 98.9292 25.0411 97.6654 25.0026C96.1163 24.9524 94.7099 24.4705 93.7389 23.1982C93.3266 22.6585 93.08 21.9838 92.8179 21.3476C92.7101 21.0893 92.6099 20.9891 92.3401 20.9968C91.7737 21.0122 91.2034 21.016 90.6331 20.9891C90.506 20.9852 90.2902 20.858 90.2709 20.7577C89.9126 19.0074 90.0667 16.6209 91.8508 15.2021C92.7679 14.4734 93.8237 14.03 94.9796 13.9953C97.7617 13.9182 100.548 13.9221 103.33 13.8912C104.328 13.8797 104.208 14.03 104.201 13.0045C104.193 11.9095 103.557 11.3081 102.409 11.3042C100.32 11.2965 98.2279 11.3119 96.1395 11.2965C95.1222 11.2888 94.5673 10.7066 94.5596 9.69653C94.5596 9.32641 94.5596 8.95629 94.5596 8.59002C94.5596 7.80352 94.9552 7.41155 95.7464 7.41412C98.1624 7.41412 100.582 7.36014 102.994 7.43725C104.956 7.49894 106.559 8.32785 107.557 10.0975C108.146 11.1462 108.262 12.2989 108.243 13.4748C108.243 13.7062 108.131 13.764 107.927 13.7601C107.345 13.7563 106.759 13.7679 106.177 13.7563C105.904 13.7524 105.788 13.8527 105.792 14.1264C105.792 16.3279 105.796 18.5293 105.792 20.7307C105.792 21.0315 105.927 21.1279 106.208 21.124C106.763 21.1163 107.318 21.1317 107.873 21.1201C108.142 21.1163 108.25 21.2011 108.246 21.4864C108.235 22.5235 108.235 23.5606 108.246 24.5977C108.25 24.9216 108.115 25.018 107.811 25.0103C106.971 24.9987 106.135 25.0103 105.295 25.0064C104.536 25.0064 104.15 24.6286 104.123 23.8652C104.12 23.738 104.116 23.6107 104.112 23.4835C104.112 23.4565 104.093 23.4334 104.058 23.3601L104.062 23.3563ZM98.6595 17.7813C98.0083 17.7813 97.3532 17.7698 96.702 17.7852C96.2512 17.7968 95.7888 17.7929 95.3534 17.8893C94.5943 18.0628 94.155 18.8262 94.2552 19.6744C94.3438 20.4339 95.0451 21.097 95.8659 21.1124C97.2723 21.1394 98.6788 21.1471 100.081 21.1124C101.095 21.0854 101.723 20.3876 101.734 19.3736C101.738 18.992 101.715 18.6064 101.742 18.2247C101.765 17.8854 101.63 17.7736 101.303 17.7775C100.424 17.7891 99.5419 17.7813 98.6633 17.7775L98.6595 17.7813Z" fill="#FF1A77"/>
<path d="M32.4139 9.24143C32.7106 8.51276 33.2115 7.98842 33.9205 7.70697C34.3097 7.55276 34.7374 7.43324 35.1497 7.42553C36.5408 7.39083 37.9357 7.40625 39.3305 7.41396C42.0972 7.43324 44.5055 9.57685 44.8446 12.3181C44.8908 12.6843 44.8908 13.0506 44.9255 13.4169C44.9486 13.6829 44.833 13.7638 44.5787 13.76C44.0238 13.7484 43.4689 13.7716 42.9141 13.7523C42.575 13.7407 42.4363 13.8332 42.4401 14.2034C42.4555 16.3778 42.4517 18.5523 42.4401 20.7267C42.4401 21.039 42.5365 21.1585 42.8524 21.147C43.3919 21.1277 43.9352 21.1547 44.4746 21.1393C44.7752 21.1277 44.8715 21.2434 44.8677 21.5364C44.8561 22.5581 44.8561 23.5836 44.8677 24.6053C44.8677 24.9137 44.7713 25.0332 44.4477 25.0255C43.7233 25.0063 42.9988 25.0255 42.2706 25.0178C41.4229 25.0101 40.8102 24.3894 40.7986 23.5296C40.7909 22.8202 40.7871 22.107 40.7986 21.3976C40.8063 21.1046 40.7139 20.9928 40.4095 21.0005C39.8546 21.0197 39.2997 20.9928 38.7448 21.0082C38.4597 21.0159 38.3749 20.9079 38.3749 20.6342C38.3826 18.5176 38.3826 16.4009 38.3749 14.2843C38.3749 13.9913 38.4713 13.8795 38.7718 13.8911C39.3113 13.9103 39.8546 13.8834 40.394 13.8988C40.7177 13.9103 40.8063 13.7793 40.8025 13.4708C40.7871 12.2564 39.9779 11.3773 38.6292 11.3272C37.1689 11.2732 35.7008 11.3079 34.2404 11.3773C33.3002 11.4236 32.4717 12.3605 32.4679 13.3089C32.4679 13.7099 32.3176 13.7831 31.9669 13.7677C31.4275 13.7446 30.888 13.7677 30.3447 13.76C30.0943 13.76 29.9864 13.8525 29.9864 14.1108C29.9902 16.3277 29.9902 18.5446 29.9864 20.7614C29.9864 21.0506 30.1212 21.1316 30.3755 21.1277C30.9304 21.1238 31.4853 21.1354 32.0402 21.1238C32.3214 21.1161 32.4563 21.1932 32.4525 21.5055C32.4409 22.5426 32.4447 23.5797 32.4525 24.6169C32.4525 24.8944 32.3561 25.0255 32.0517 25.0217C30.942 25.0101 29.8322 25.0101 28.7263 25.0217C28.4219 25.0217 28.3372 24.9022 28.341 24.613C28.3526 23.5489 28.3372 22.4809 28.3526 21.4169C28.3564 21.1084 28.2717 20.9812 27.948 20.9966C27.4085 21.0197 26.8691 20.9928 26.3258 21.0082C26.0637 21.0159 25.9404 20.9465 25.9404 20.6535C25.9481 18.5214 25.9481 16.3894 25.9404 14.2612C25.9404 13.9836 26.0291 13.8834 26.3103 13.8911C26.8344 13.9065 27.3623 13.8795 27.8902 13.9026C28.237 13.9181 28.3564 13.8062 28.3564 13.4438C28.341 11.6125 28.3564 9.77733 28.341 7.94601C28.3372 7.54505 28.4412 7.38697 28.8612 7.40625C29.5008 7.43709 30.1405 7.41396 30.7801 7.41396C31.7473 7.41782 32.3291 7.98456 32.3792 8.96384C32.3831 9.05637 32.4024 9.1489 32.4139 9.24529V9.24143Z" fill="#FF1A77"/>
<path d="M80.595 21.1008H82.8723C82.7066 21.7755 82.4061 22.296 82.0284 22.7664C80.8301 24.27 79.2695 25.0334 77.3351 25.018C75.7861 25.0064 74.2333 25.0025 72.6843 25.018C70.2644 25.0449 68.2183 23.3987 67.4554 21.4401C67.3282 21.1086 67.1741 20.9736 66.8119 20.9929C66.2724 21.0237 65.733 20.9929 65.1896 21.0045C64.9469 21.0122 64.812 20.9235 64.7812 20.6845C64.7234 20.2642 64.6232 19.844 64.6155 19.4237C64.5962 17.7196 64.6155 16.0117 64.6001 14.3076C64.6001 13.9992 64.6772 13.8719 65.0047 13.8874C65.5287 13.9105 66.0566 13.8758 66.5845 13.8989C66.9275 13.9143 67.0161 13.7833 67.0161 13.4517C67.0045 11.6204 67.0084 9.78518 67.0122 7.95386C67.0122 7.38325 67.0585 7.33699 67.6095 7.33699C68.2222 7.33699 68.831 7.33313 69.4437 7.33699C70.484 7.34856 71.1198 7.9847 71.1198 9.01795C71.1198 10.4522 71.1121 11.8902 71.1275 13.3245C71.1275 13.6522 71.0505 13.7833 70.6998 13.7678C70.1604 13.7408 69.6171 13.7755 69.0776 13.7563C68.7578 13.7447 68.6576 13.8796 68.6576 14.1842C68.6653 15.9037 68.6499 17.6233 68.6653 19.3428C68.6769 20.3606 69.2048 21.043 70.1642 21.0777C71.8519 21.1394 73.5474 21.1278 75.2351 21.0584C76.106 21.0237 76.6416 20.3143 76.6454 19.4314C76.6493 17.7274 76.657 16.0194 76.6377 14.3153C76.6377 13.9683 76.7456 13.8719 77.077 13.8835C77.601 13.9066 78.1289 13.8719 78.6568 13.8951C79.019 13.9105 79.1192 13.764 79.1154 13.4208C79.1038 11.9442 79.1423 10.4637 79.0999 8.98711C79.073 8.01169 79.8321 7.32157 80.7569 7.32928C81.3965 7.33313 82.0361 7.3447 82.6758 7.32542C83.0341 7.31386 83.196 7.44109 83.196 7.81121C83.1883 9.65795 83.1883 11.5047 83.196 13.3553C83.196 13.683 83.065 13.7678 82.7605 13.7601C82.2481 13.7408 81.7356 13.7717 81.2269 13.7486C80.8802 13.7331 80.7568 13.8527 80.7607 14.2073C80.7761 15.7148 80.7838 17.2184 80.7607 18.7259C80.7491 19.4854 80.6567 20.2449 80.595 21.097V21.1008Z" fill="#FF1A77"/>
<path d="M115.417 9.86981C115.479 9.73102 115.525 9.65777 115.548 9.58066C115.937 8.28138 117.032 7.42933 118.38 7.41391C119.929 7.39849 121.478 7.41391 123.031 7.40234C123.332 7.40234 123.478 7.47945 123.467 7.80716C123.447 8.53198 123.474 9.2568 123.443 9.98162C123.409 10.8144 122.819 11.358 121.964 11.3619C120.6 11.3734 119.232 11.385 117.868 11.3619C116.508 11.3349 115.537 12.1175 115.433 13.4399C115.409 13.7137 115.286 13.7638 115.051 13.7599C114.496 13.7484 113.941 13.7676 113.386 13.7561C113.117 13.7522 113.009 13.8448 113.013 14.1262C113.02 16.3431 113.02 18.5599 113.013 20.7768C113.013 21.0428 113.124 21.1276 113.367 21.1276C113.922 21.1238 114.477 21.1354 115.032 21.1276C115.286 21.1238 115.425 21.1855 115.421 21.4823C115.409 22.5464 115.409 23.6144 115.421 24.6785C115.421 24.9368 115.325 25.0255 115.07 25.0216C114.304 25.0101 113.533 25.0255 112.766 25.0139C111.999 25.0023 111.39 24.4009 111.375 23.6337C111.36 22.8934 111.36 22.157 111.375 21.4168C111.383 21.1045 111.271 20.9888 110.955 21.0004C110.389 21.0197 109.818 21.0004 109.248 21.0081C108.998 21.012 108.894 20.9349 108.894 20.6688C108.901 18.5214 108.901 16.3778 108.894 14.2303C108.894 13.9643 108.994 13.8833 109.248 13.891C109.788 13.9026 110.331 13.8679 110.87 13.9026C111.286 13.9296 111.333 13.7175 111.333 13.3898C111.325 11.6279 111.333 9.86596 111.333 8.10403C111.333 7.64395 111.568 7.41391 112.038 7.41391C112.82 7.41391 113.602 7.41391 114.384 7.41391C115.074 7.41391 115.329 7.66837 115.344 8.3662C115.352 8.82114 115.352 9.27608 115.355 9.73102C115.355 9.75801 115.375 9.78114 115.421 9.87367L115.417 9.86981Z" fill="#FF1A77"/>
<path d="M86.001 6.963C86.001 4.83095 86.001 2.6989 86.001 0.570708C86.001 0.027094 86.0319 -0.00760478 86.5867 0.000106064C87.3535 0.0116723 88.1242 -0.0114602 88.8833 0.0733591C89.5653 0.150468 90.0624 0.755769 90.0662 1.43432C90.0778 5.42854 90.0701 9.4189 90.0778 13.4131C90.0778 13.6714 89.9892 13.764 89.731 13.7601C89.1607 13.7485 88.5943 13.7678 88.024 13.7524C87.7504 13.7447 87.6387 13.8526 87.6387 14.1225C87.6387 16.3394 87.631 18.5562 87.6232 20.7731C87.6232 21.0661 87.7928 21.124 88.0356 21.124C88.5904 21.1201 89.1453 21.1317 89.7002 21.124C89.9699 21.1201 90.0816 21.2049 90.0778 21.4902C90.0662 22.5428 90.0662 23.5914 90.0778 24.644C90.0778 24.9177 89.9815 25.0256 89.704 25.0218C88.9218 25.0102 88.1396 25.0295 87.3574 25.0102C86.6445 24.9948 86.0627 24.4358 86.028 23.7109C85.9933 22.9591 85.9972 22.2035 86.0087 21.4517C86.0164 21.097 85.8893 20.9775 85.5348 20.9929C84.9953 21.0199 84.4559 20.9929 83.9126 21.0044C83.6698 21.0083 83.5542 20.9466 83.5542 20.6729C83.5619 18.5293 83.5619 16.3818 83.5542 14.2382C83.5542 13.9799 83.639 13.8835 83.901 13.8912C84.4405 13.9028 84.9838 13.8681 85.5194 13.9028C85.9586 13.9297 86.0049 13.71 86.0049 13.363C85.9972 11.2309 86.0049 9.0989 86.0049 6.97071L86.001 6.963Z" fill="#FF1A77"/>
<path d="M131.628 25.0873C130.56 25.0873 129.493 25.0873 128.429 25.0873C127.647 25.0873 127.324 24.7595 127.316 23.9846C127.316 23.6453 127.308 23.3022 127.316 22.9629C127.32 22.7162 127.227 22.5851 126.965 22.6159C126.923 22.6198 126.88 22.6159 126.838 22.6159C125.971 22.6082 125.94 22.6082 125.979 21.7138C126.002 21.1701 126.048 20.5957 126.237 20.0945C126.661 18.988 127.613 18.4636 128.715 18.3518C129.909 18.2285 131.123 18.2709 132.329 18.2477C132.857 18.2362 132.888 18.213 132.861 17.6964C132.822 16.9832 132.475 16.6477 131.751 16.6477C130.399 16.6477 129.05 16.6477 127.697 16.6477C126.996 16.6477 126.376 16.4395 126.472 15.4294C126.495 15.175 126.491 14.9167 126.472 14.6622C126.445 14.3152 126.595 14.2265 126.923 14.2304C128.53 14.242 130.136 14.2034 131.743 14.2458C133.173 14.2844 134.417 14.7509 134.995 16.1967C135.2 16.7056 135.215 17.2954 135.281 17.8506C135.288 17.9277 135.08 18.0974 134.961 18.1051C134.102 18.1783 134.102 18.1706 134.102 19.0188C134.102 20.133 133.581 20.6574 132.452 20.6497C131.585 20.642 130.722 20.5995 129.855 20.5995C129.393 20.5995 128.826 20.561 128.626 21.0699C128.453 21.5094 128.476 22.0299 128.449 22.5195C128.449 22.5658 128.715 22.6738 128.857 22.6776C130.861 22.6892 132.868 22.6969 134.872 22.6776C135.284 22.6738 135.419 22.7933 135.388 23.202C135.354 23.653 135.358 24.1118 135.388 24.5668C135.415 24.9677 135.3 25.1142 134.872 25.1027C133.793 25.0718 132.71 25.0911 131.632 25.0911L131.628 25.0873Z" fill="#FF1A77"/>
<path d="M141.785 18.2438C141.785 19.0843 141.754 19.8669 141.793 20.6457C141.847 21.7175 142.876 22.666 143.951 22.6775C144.432 22.6814 144.933 22.7238 145.392 22.612C146.579 22.3228 147.164 21.4477 147.195 20.025C147.211 19.4467 147.195 18.8722 147.195 18.2207C147.738 18.2207 148.332 18.2091 148.925 18.2322C149.022 18.2322 149.195 18.3787 149.195 18.4597C149.183 19.6202 149.156 20.7845 149.106 21.945C149.095 22.1725 148.979 22.3999 148.898 22.666C149.153 22.6814 149.361 22.693 149.607 22.7084C149.422 23.3098 149.014 23.7224 148.59 24.104C147.85 24.771 146.941 25.0409 145.974 25.0833C145.01 25.1257 144.043 25.1411 143.118 24.7749C142.224 24.424 141.554 23.8226 141.076 23.0014C140.949 22.7855 140.86 22.6004 140.548 22.6043C140.41 22.6043 140.194 22.4385 140.14 22.2958C139.966 21.8525 139.774 21.3937 139.731 20.9272C139.666 20.1638 139.72 19.3927 139.708 18.6255C139.704 18.3595 139.77 18.2361 140.063 18.2438C140.641 18.2631 141.219 18.2477 141.785 18.2477V18.2438Z" fill="#FF1A77"/>
<path d="M145.265 14.2034C146.294 14.1841 147.272 14.3191 148.155 14.8974C149.145 15.5451 149.746 16.455 149.966 17.6116C150.05 18.0665 149.989 18.1167 149.507 18.1244C149.338 18.1244 149.164 18.1167 148.995 18.1359C148.32 18.2053 147.808 18.1051 147.369 17.4342C146.783 16.5436 145.758 16.5321 144.787 16.613C143.908 16.6863 143.234 17.095 142.814 17.9008C142.756 18.0164 142.552 18.1089 142.413 18.1167C141.947 18.1475 141.477 18.1359 141.007 18.1359C140.556 18.1359 140.491 18.0473 140.575 17.6C140.887 15.9383 142.194 14.6275 143.866 14.3345C144.324 14.2535 144.795 14.2497 145.261 14.2111L145.265 14.2034Z" fill="#FF1A77"/>
<path d="M22.9733 0.0809367C23.5282 0.0809367 24.0831 0.0886476 24.6379 0.0809367C24.9308 0.0732259 25.0464 0.192744 25.0425 0.485756C25.0348 1.5807 25.0348 2.67178 25.0425 3.76672C25.0425 4.07901 24.9154 4.20238 24.6109 4.20238C23.532 4.19467 22.4493 4.19467 21.3703 4.20238C21.0428 4.20238 20.9157 4.06744 20.9195 3.73973C20.9311 2.66021 20.9311 1.5807 20.9195 0.501178C20.9195 0.185033 21.0467 0.0732259 21.3549 0.0809367C21.8944 0.0963584 22.4339 0.0847921 22.9772 0.0847921L22.9733 0.0809367Z" fill="#FF1A77"/>
<path d="M137.909 25.1065C137.073 25.0911 136.445 24.4434 136.456 23.6029C136.468 22.7354 137.15 22.0646 138.001 22.0877C138.814 22.1109 139.512 22.8087 139.469 23.5991C139.416 24.5745 138.699 25.1489 137.909 25.1065Z" fill="#FF1A77"/>
</g>
<defs>
<clipPath id="clip0_221_512">
<rect width="150" height="32" fill="white"/>
</clipPath>
</defs>
</svg>
