<svg width="155" height="24" viewBox="0 0 155 24" fill="none" xmlns="http://www.w3.org/2000/svg">
<path d="M45.3488 11.1516C46.8882 9.12692 48.4515 7.07164 50.0015 5.03101H54.5719C52.9182 7.16222 51.3536 9.1802 49.7757 11.2142H47.3026C46.8789 11.759 46.4698 12.2864 46.0381 12.8419C46.4725 13.4026 46.8829 13.9301 47.3092 14.4789H48.4037C49.7478 16.2158 51.0813 17.9394 52.4693 19.7323C53.2317 17.9381 53.9582 16.2278 54.6967 14.4882H56.337C57.6798 11.3207 59.0134 8.17454 60.3588 5.00171H65.6411C66.9507 8.09328 68.2723 11.2155 69.6377 14.4363H67.996C68.8793 16.5342 69.7213 18.5295 70.6112 20.6421H66.6678C66.2428 19.667 65.7845 18.6148 65.313 17.5292H57.3876C57.0317 18.3697 56.7129 19.2608 56.2733 20.088C56.1179 20.381 55.6743 20.6887 55.3542 20.698C53.3406 20.7526 51.3231 20.7513 49.3095 20.702C48.9549 20.6927 48.498 20.4569 48.2775 20.1772C46.8072 18.3124 45.3887 16.4063 43.9515 14.5109H39.4715V20.6434H35.8349V14.4696C35.4152 14.4403 35.0898 14.4176 34.7378 14.3937V11.2088H37.1923V5.03634H40.805V11.1529C42.3431 11.1529 43.8214 11.1529 45.3488 11.1529V11.1516ZM62.9993 8.09728C62.1014 10.2378 61.2766 12.2038 60.4332 14.2138H65.568C64.7153 12.1812 63.8905 10.2192 62.9993 8.09728Z" fill="#FF1A77"/>
<path d="M111.001 14.4655C110.586 14.4389 110.261 14.4189 109.906 14.3963V11.2221H112.371V5.00298C112.725 4.97368 112.986 4.93239 113.249 4.93106C116.63 4.92706 120.011 4.97235 123.39 4.9164C127.299 4.85247 129.02 6.6893 128.832 11.1941H126.53C126.161 12.325 125.814 13.3839 125.461 14.4615C125.594 14.4748 125.846 14.5015 126.1 14.5268C126.125 14.5841 126.149 14.6413 126.174 14.6986C125.539 15.0596 124.903 15.4206 124.214 15.8135C125.239 17.348 126.294 18.9224 127.44 20.6367H123.291C122.317 19.1169 121.298 17.5278 120.273 15.9267H114.571V20.618H111.002C111.001 18.5707 111.001 16.5541 111.001 14.4655ZM125.145 11.2381C125.145 10.8518 125.151 10.5428 125.143 10.2351C125.098 8.50482 124.778 8.19446 123.041 8.19446C120.902 8.19446 118.764 8.19446 116.626 8.19446C116.406 8.19446 116.187 8.21577 115.911 8.22909V11.2354H113.532V12.642H120.736C122.071 12.642 122.255 12.5128 122.702 11.2368C123.463 11.2368 124.235 11.2368 125.145 11.2368V11.2381Z" fill="#FF1A77"/>
<path d="M83.0139 11.2541C83.9941 12.3144 84.9783 13.3786 85.9771 14.4576H87.0144V11.2727C86.7899 11.2461 86.5495 11.2181 86.2919 11.1888V4.99902H89.8355V11.1848C90.1729 11.2155 90.3987 11.2355 90.6709 11.2608V14.4403H89.3374V20.6434H85.7114C83.8998 18.6867 82.0204 16.6567 80.0427 14.5215C80.5142 14.4975 80.8529 14.4802 81.3496 14.4549C80.3149 13.3294 79.3613 12.2931 78.401 11.2488C78.1208 11.2355 77.8498 11.2221 77.5483 11.2075C77.2322 10.8745 76.9041 10.5295 76.503 10.1072V11.1848C76.7354 11.2128 76.9586 11.2381 77.2189 11.2701V14.4722H75.8827V20.686H72.3032V14.5322H73.5557V11.2887C73.3552 11.2674 73.1347 11.2448 72.8571 11.2155V5.01368H76.4087C78.2602 7.01035 80.1888 9.0896 82.1479 11.2008C82.4162 11.2168 82.7057 11.2355 83.0139 11.2541ZM85.6543 15.5884V14.4975H84.6289C84.9942 14.8865 85.2811 15.1928 85.6543 15.5884Z" fill="#FF1A77"/>
<path d="M149.578 4.95776C150.395 6.87185 151.201 8.76196 152.021 10.6867H154.7C154.794 10.8559 154.879 11.009 155 11.2262H149.505C149.977 12.353 150.414 13.4013 150.865 14.4816H152.241C153.109 16.5089 153.964 18.5082 154.864 20.6128H150.92C150.495 19.6151 150.046 18.5588 149.586 17.4799H141.649C141.204 18.5162 140.743 19.5898 140.311 20.5955H136.36C137.242 18.4842 138.064 16.5169 138.923 14.4616H137.563C138.039 13.3294 138.47 12.2984 138.923 11.2208H141.665C142.56 9.11094 143.442 7.03302 144.322 4.95776C146.094 4.95776 147.789 4.95776 149.578 4.95776ZM145.663 11.2501H142.877C142.464 12.2478 142.059 13.2242 141.649 14.2152H146.725C146.357 13.1949 146.005 12.2185 145.653 11.2408H148.319C147.869 10.1805 147.453 9.20418 146.985 8.10395C146.506 9.24681 146.084 10.2485 145.663 11.2501Z" fill="#FF1A77"/>
<path d="M106.568 11.2102H104.65C105.123 12.3317 105.556 13.3627 106.001 14.4177C106.28 14.4443 106.546 14.4683 106.859 14.4976C107.708 16.4942 108.559 18.4976 109.463 20.6261H105.539C105.114 19.6404 104.65 18.5682 104.183 17.4839H96.2669C95.8153 18.5415 95.3623 19.5991 94.9174 20.6408H90.9819C91.8599 18.5482 92.6887 16.5688 93.5387 14.5429C93.2771 14.5042 93.0765 14.4736 92.775 14.4296C93.2253 13.3587 93.6649 12.3118 94.1138 11.2448H96.0318C96.6613 9.75432 97.267 8.25981 97.9191 6.78662C98.9233 4.51955 98.202 5.00174 100.688 4.95112C101.752 4.92981 102.818 4.94712 103.933 4.94712C104.815 7.04503 105.673 9.08299 106.568 11.2102ZM102.617 11.2222C102.173 10.1766 101.764 9.21086 101.298 8.11063C100.813 9.24549 100.39 10.2352 99.9553 11.2528H98.0334C97.6216 12.2545 97.2285 13.2135 96.8154 14.2205H101.969C101.544 13.2109 101.144 12.2611 100.708 11.2222C101.402 11.2222 101.96 11.2222 102.617 11.2222Z" fill="#FF1A77"/>
<path d="M134.568 14.4989V20.6701H131.039V14.5429C130.622 14.5189 130.298 14.5002 129.938 14.4803V11.2475H132.4V5.03638H135.927V11.2102H133.577V14.419C133.903 14.447 134.208 14.4709 134.568 14.4989Z" fill="#FF1A77"/>
<path d="M29.3506 0.822869C29.2165 0.628397 28.992 0.440585 28.7702 0.369989C27.26 -0.106868 25.7419 -0.282692 24.4283 0.834857C23.476 1.64605 22.6352 2.58511 21.7015 3.41894C21.3097 3.76926 20.8408 4.08894 20.3507 4.26742C17.345 5.36499 14.3167 6.40129 11.3123 7.50152C10.8049 7.688 10.3122 8.02234 9.92301 8.40063C8.93748 9.35967 8.01571 10.3813 7.078 11.3657H4.86919C4.488 11.8039 4.1161 12.2315 3.74421 12.6604C3.78671 12.7802 3.82921 12.9001 3.87304 13.0213C8.01704 12.7802 12.1199 12.0623 16.2771 11.7479C13.97 12.6351 11.663 13.5208 9.19648 14.4692C9.51923 14.5185 9.66799 14.5412 9.74104 14.5531C9.18453 14.8968 8.4912 15.1659 8.01305 15.6454C5.44962 18.2215 2.93799 20.8495 0.411743 23.4616C0.282907 23.5948 0.179307 23.7519 0 23.977C2.00824 24.0903 3.74553 23.7919 5.34203 22.7276C8.11931 20.8762 10.9404 19.0886 13.7429 17.2744C13.387 18.2881 13.8518 18.8662 14.751 19.3204C15.6635 19.7812 16.5162 20.3593 17.4008 20.8762C17.5761 20.9787 17.7807 21.0919 17.9732 21.0946C19.1979 21.1146 20.4238 21.1053 21.8556 21.1053C19.9058 19.9144 18.1313 18.8302 16.305 17.7153C16.5707 17.337 16.8018 17.0093 17.0448 16.663C19.4303 18.0829 21.7467 19.4629 24.067 20.8389C24.2437 20.9441 24.4403 21.0866 24.6289 21.0906C25.8349 21.1132 27.0409 21.1026 28.5192 21.1026C25.6888 19.3497 23.0815 17.734 20.5075 16.1382C21.3323 15.6294 22.3218 15.2032 22.9115 14.9141H25.7034L26.7115 14.1562H23.4813C24.342 13.2997 25.2438 12.4006 26.2931 11.3577H28.0915C28.6772 9.96706 28.7742 8.55114 28.5006 7.15254C28.3558 6.41061 28.4448 5.85117 28.9469 5.34235C29.2032 5.08261 29.4835 4.82287 29.8009 4.64971C30.3401 4.35534 30.9179 4.1289 31.4027 3.91045C30.7027 2.84618 30.0413 1.82453 29.3506 0.822869Z" fill="#FF1A77"/>
</svg>
