<svg width="184" height="60" viewBox="0 0 184 60" fill="none" xmlns="http://www.w3.org/2000/svg">
<g clip-path="url(#clip0_177_515)">
<path d="M164.106 38.1736H166.604L159.155 29.2528H156.611L155.43 27.8491L160.881 22.7321L169.965 14.3547H156.793L148.117 22.7321L144.393 26.4V22.7321V14.3547H134.945V22.7321V29.2528H137.489V38.1736H134.945V45.6H144.393V38.2189V38.1736H146.936L151.251 34.1434L154.567 38.1736H152.069L158.155 45.6H170.283L164.106 38.1736Z" fill="#fff"/>
<path d="M129.177 38.1735H126.77L126.634 37.8565C125.725 36.0905 124.09 34.7773 122.137 34.3244C124.862 33.5999 127.133 31.7433 128.36 29.2074H130.767C131.221 28.1659 131.494 27.0791 131.494 25.9471C131.494 24.815 131.403 23.7735 131.176 22.732C130.04 17.6603 125.998 14.3093 117.776 14.3093H99.1085V29.2527H96.7012V38.2188H99.1085V45.6452H108.102V38.2188H114.915C118.185 38.2188 118.957 40.3471 121.319 45.5999H132.629C131.403 42.7018 129.677 39.2603 129.177 38.1735ZM108.056 22.732H117.141C119.003 22.732 120.729 24.1357 120.729 25.9923C120.729 27.8489 119.003 29.2527 117.141 29.2527H108.056V22.732Z" fill="#fff"/>
<path d="M48.2826 38.1735H45.8753L45.739 37.8565C44.8306 36.0905 43.1954 34.7773 41.2423 34.3244C43.9676 33.5999 46.2386 31.7433 47.465 29.2074H49.8723C50.3265 28.1659 50.599 27.0791 50.599 25.9471C50.599 24.815 50.5082 23.7735 50.2811 22.732C49.1456 17.6603 45.1031 14.3093 36.8819 14.3093H18.2139V29.2527H15.8066V38.2188H18.2139V45.6452H27.2073V38.2188H34.0204C37.2907 38.2188 38.0629 40.3471 40.4248 45.5999H51.7346C50.4628 42.7018 48.7822 39.2603 48.2826 38.1735ZM27.1619 22.732H36.246C38.1083 22.732 39.8343 24.1357 39.8343 25.9923C39.8343 27.8489 38.1083 29.2527 36.246 29.2527H27.1619V22.732Z" fill="#fff"/>
<path d="M81.3486 14.3547L77.4879 23.0491L74.5809 29.5245H74.3538L71.4469 23.0491L67.5861 14.3547H54.8228V29.2528H52.4155V38.2189H54.8228V45.6453H63.907V38.2189H61.4997V29.2528H62.5898L66.7685 38.2189H69.0396L72.4916 45.6453H76.2615L79.5772 38.5359H77.1699L81.4849 29.2981H82.4842V38.2642H84.8915V45.6906H93.9756V38.2642H91.5683V29.2528H93.9756V14.3547H81.3486ZM63.9524 29.2528V26.8981L65.0425 29.2528H63.9524ZM83.8922 29.2528L84.9823 26.8981V29.2528H83.8922Z" fill="#fff"/>
<path d="M184 29.2528V3.57736C184 1.58491 182.41 0 180.412 0H5.95014C3.95162 0 2.36189 1.58491 2.36189 3.57736V29.2528H0V38.2189H2.36189V56.4226C2.36189 58.4151 3.95162 60 5.95014 60H180.412C182.41 60 184 58.4151 184 56.4226V38.2189H181.638V29.2528H184ZM177.187 38.1736V53.1623H9.17502V38.1736H6.81313V29.2528H9.17502V6.79245H177.187V29.2528H174.825V38.2189L177.187 38.1736Z" fill="#fff"/>
</g>
<defs>
<clipPath id="clip0_177_515">
<rect width="184" height="60" fill="white"/>
</clipPath>
</defs>
</svg>
