<svg xmlns="http://www.w3.org/2000/svg" viewBox="0 0 461.25 344.28"><defs><style>.cls-1,.cls-13,.cls-3,.cls-8{fill:none;}.cls-1,.cls-2,.cls-3,.cls-6,.cls-7,.cls-8{stroke:#b2b2b2;}.cls-1,.cls-14,.cls-2,.cls-8{stroke-linecap:round;stroke-linejoin:round;}.cls-1{stroke-dasharray:3 3;}.cls-14,.cls-2,.cls-4,.cls-7{fill:#fff;}.cls-3,.cls-6,.cls-7{stroke-miterlimit:10;}.cls-5{fill:#b2b2b2;}.cls-9{fill:#b2c1f3;}.cls-10{fill:#eaae87;}.cls-11{fill:#bc9173;}.cls-12{fill:#966b53;}.cls-14{stroke:#000;}.cls-15{font-size:23.8px;font-family:SelinaExtended-Black, SelinaExtended Black;font-weight:800;}.cls-16{letter-spacing:-0.02em;}.cls-17{letter-spacing:0.01em;}.cls-18{letter-spacing:-0.01em;}.cls-19{letter-spacing:-0.01em;}.cls-20{letter-spacing:0em;}</style></defs><g id="Layer_2" data-name="Layer 2"><g id="pic"><polyline class="cls-1" points="219.5 74.62 199.5 93.12 223.5 104.81"/><line class="cls-1" x1="193.5" y1="72.96" x2="206.5" y2="119.12"/><line class="cls-1" x1="344.5" y1="203.5" x2="332.99" y2="180.62"/><line class="cls-2" x1="329" y1="196.62" x2="332.5" y2="181.48"/><polyline class="cls-1" points="309.5 162.5 332.66 179.81 365.5 167.7"/><polyline class="cls-1" points="342.5 152.5 332.5 180.12 299.5 205.12"/><polyline class="cls-1" points="453.5 214.12 431.5 231.12 423.5 208.59"/><line class="cls-1" x1="416.5" y1="251.12" x2="431.66" y2="231.12"/><line class="cls-1" x1="427.5" y1="110.12" x2="448.5" y2="122.43"/><polyline class="cls-1" points="451.5 95.12 427.5 110.12 401.5 120.12"/><line class="cls-1" x1="416.5" y1="13.12" x2="457.5" y2="32.48"/><line class="cls-1" x1="431.5" y1="44.96" x2="440.5" y2="7.5"/><line class="cls-1" x1="294.5" y1="82.96" x2="316.5" y2="39.5"/><line class="cls-1" x1="293.5" y1="43.43" x2="321.5" y2="84.36"/><polyline class="cls-1" points="188.5 242.12 206.55 214.96 245.5 217.48"/><line class="cls-1" x1="226.5" y1="234.12" x2="207.55" y2="215.96"/><line class="cls-1" x1="96.5" y1="256.59" x2="80.55" y2="229.43"/><polyline class="cls-1" points="50.5 242.12 80.5 229.12 118.5 229.12"/><polyline class="cls-3" points="80.5 229.12 162.5 174.12 206.5 215.12"/><path class="cls-4" d="M82.59,232.24a3.76,3.76,0,1,1,1-5.22A3.74,3.74,0,0,1,82.59,232.24Z"/><path class="cls-5" d="M82.87,232.66A4.26,4.26,0,1,0,77,231.49a4.26,4.26,0,0,0,5.91,1.17Zm-4.19-6.25a3.26,3.26,0,1,1-.89,4.52,3.27,3.27,0,0,1,.89-4.52Z"/><path class="cls-4" d="M203.94,217.87a3.76,3.76,0,1,0-.19-5.31A3.76,3.76,0,0,0,203.94,217.87Z"/><path class="cls-5" d="M203.6,218.24a4.26,4.26,0,1,1,6-.22,4.28,4.28,0,0,1-6,.22Zm5.12-5.51a3.26,3.26,0,1,0,.17,4.61,3.26,3.26,0,0,0-.17-4.61Z"/><line class="cls-1" x1="209.5" y1="6.12" x2="246.5" y2="43.12"/><line class="cls-1" x1="192.5" y1="35.12" x2="249.5" y2="11.12"/><polyline class="cls-3" points="438 21.62 201.55 92.62 180 92.62 46 70.62 162.5 174.12 332.5 180.12 428 109.62 305.4 61.44"/><line class="cls-3" x1="224.5" y1="21.12" x2="199.5" y2="93.12"/><path class="cls-4" d="M221,19.89a3.76,3.76,0,1,1,2.32,4.78A3.75,3.75,0,0,1,221,19.89Z"/><path class="cls-5" d="M220.48,19.72a4.26,4.26,0,1,0,5.42-2.63,4.26,4.26,0,0,0-5.42,2.63Zm7.1,2.47a3.26,3.26,0,1,1-2-4.15,3.26,3.26,0,0,1,2,4.15Z"/><path class="cls-4" d="M196,91.89a3.76,3.76,0,1,0,4.78-2.32A3.76,3.76,0,0,0,196,91.89Z"/><path class="cls-5" d="M195.48,91.72a4.26,4.26,0,1,1,2.62,5.42,4.26,4.26,0,0,1-2.62-5.42Zm7.1,2.47a3.26,3.26,0,1,0-4.15,2,3.26,3.26,0,0,0,4.15-2Z"/><line class="cls-1" x1="332.5" y1="180.12" x2="431.5" y2="231.12"/><path class="cls-4" d="M330.78,183.46a3.76,3.76,0,1,1,5.06-1.62A3.75,3.75,0,0,1,330.78,183.46Z"/><path class="cls-5" d="M330.55,183.91a4.26,4.26,0,1,0-1.84-5.74,4.27,4.27,0,0,0,1.84,5.74Zm3.44-6.69a3.26,3.26,0,1,1-4.39,1.41,3.26,3.26,0,0,1,4.39-1.41Z"/><path class="cls-4" d="M429.78,234.46a3.76,3.76,0,1,0-1.62-5.06A3.75,3.75,0,0,0,429.78,234.46Z"/><path class="cls-5" d="M429.55,234.91a4.26,4.26,0,1,1,5.74-1.84,4.27,4.27,0,0,1-5.74,1.84Zm3.44-6.69a3.26,3.26,0,1,0,1.41,4.39,3.27,3.27,0,0,0-1.41-4.39Z"/><circle class="cls-6" cx="178.5" cy="92.12" r="3"/><circle class="cls-7" cx="305.5" cy="61.12" r="4"/><circle class="cls-7" cx="436.5" cy="22.12" r="4"/><circle class="cls-7" cx="427.5" cy="110.12" r="4"/><polyline class="cls-1" points="16.5 58.12 45.5 71.12 31 97.25"/><polyline class="cls-1" points="3.5 81.12 45.5 71.12 74.32 57.12"/><line class="cls-1" x1="74.32" y1="69.12" x2="45.5" y2="71.12"/><polygon class="cls-2" points="15.5 52.5 11.5 59.43 19.5 59.43 15.5 52.5"/><polygon class="cls-2" points="74.5 52.5 70.5 59.43 78.5 59.43 74.5 52.5"/><polygon class="cls-2" points="193.5 30.5 189.5 37.43 197.5 37.43 193.5 30.5"/><polygon class="cls-2" points="208.5 1.5 204.5 8.43 212.5 8.43 208.5 1.5"/><polygon class="cls-2" points="249.5 41.5 245.5 48.43 253.5 48.43 249.5 41.5"/><polygon class="cls-2" points="254.5 7.5 250.5 14.43 258.5 14.43 254.5 7.5"/><polygon class="cls-2" points="219.5 70.5 215.5 77.43 223.5 77.43 219.5 70.5"/><polygon class="cls-2" points="192.5 66.5 188.5 73.43 196.5 73.43 192.5 66.5"/><polygon class="cls-2" points="223.5 100.5 219.5 107.43 227.5 107.43 223.5 100.5"/><polygon class="cls-2" points="308.5 157.5 304.5 164.43 312.5 164.43 308.5 157.5"/><polygon class="cls-2" points="342.5 147.5 338.5 154.43 346.5 154.43 342.5 147.5"/><polygon class="cls-2" points="292.5 40.5 288.5 47.43 296.5 47.43 292.5 40.5"/><polygon class="cls-2" points="315.5 35.5 311.5 42.43 319.5 42.43 315.5 35.5"/><polygon class="cls-2" points="440.5 0.5 436.5 7.43 444.5 7.43 440.5 0.5"/><polygon class="cls-2" points="451.5 90.5 447.5 97.43 455.5 97.43 451.5 90.5"/><polygon class="cls-2" points="430.5 38.5 426.5 45.43 434.5 45.43 430.5 38.5"/><polygon class="cls-2" points="460.75 33.93 455.94 27.53 452.81 34.9 460.75 33.93"/><polygon class="cls-2" points="453.64 125.17 449.21 118.51 445.65 125.67 453.64 125.17"/><polygon class="cls-2" points="229.09 236.03 226.22 228.56 221.19 234.77 229.09 236.03"/><polygon class="cls-2" points="419.75 14.93 414.94 8.53 411.81 15.9 419.75 14.93"/><polygon class="cls-2" points="321.5 79.5 317.5 86.43 325.5 86.43 321.5 79.5"/><polygon class="cls-2" points="294.5 77.5 290.5 84.43 298.5 84.43 294.5 77.5"/><polygon class="cls-2" points="423.5 203.5 419.5 210.43 427.5 210.43 423.5 203.5"/><polygon class="cls-2" points="365.5 162.5 361.5 169.43 369.5 169.43 365.5 162.5"/><polygon class="cls-2" points="344.5 198.5 340.5 205.43 348.5 205.43 344.5 198.5"/><polygon class="cls-2" points="296.23 208.38 303.96 206.31 298.31 200.66 296.23 208.38"/><polygon class="cls-2" points="398.23 123.39 405.96 121.31 400.31 115.66 398.23 123.39"/><polygon class="cls-2" points="414.23 252.38 421.96 250.31 416.31 244.66 414.23 252.38"/><polygon class="cls-2" points="451.01 216.14 458.86 214.63 453.63 208.58 451.01 216.14"/><polygon class="cls-2" points="206.5 115.5 202.5 122.43 210.5 122.43 206.5 115.5"/><polygon class="cls-2" points="245.5 213.5 241.5 220.43 249.5 220.43 245.5 213.5"/><polygon class="cls-2" points="188.5 235.5 184.5 242.43 192.5 242.43 188.5 235.5"/><polygon class="cls-2" points="118.5 224.5 114.5 231.43 122.5 231.43 118.5 224.5"/><polygon class="cls-2" points="96.5 251.5 92.5 258.43 100.5 258.43 96.5 251.5"/><polygon class="cls-2" points="45.19 243.77 53.09 245.03 50.22 237.56 45.19 243.77"/><polygon class="cls-2" points="79.5 64.5 75.5 71.43 83.5 71.43 79.5 64.5"/><polygon class="cls-2" points="30.5 92.5 26.5 99.43 34.5 99.43 30.5 92.5"/><polygon class="cls-2" points="4.5 76.5 0.5 83.43 8.5 83.43 4.5 76.5"/><circle class="cls-7" cx="46.5" cy="71.12" r="4"/><polyline class="cls-8" points="162 106.62 178.5 92.12 177 74.62"/><line class="cls-8" x1="185" y1="109.62" x2="178.5" y2="92.12"/><rect class="cls-2" x="181.5" y="106.12" width="7" height="7"/><rect class="cls-2" x="351.5" y="177.12" width="7" height="7"/><rect class="cls-2" x="325.5" y="193.12" width="7" height="7"/><rect class="cls-2" x="158.5" y="103.12" width="7" height="7" transform="translate(122.84 -83.32) rotate(45)"/><rect class="cls-2" x="173.5" y="71.12" width="7" height="7"/><polyline class="cls-1" points="119.5 157.5 162.5 174.12 185 149.48"/><polyline class="cls-1" points="157.5 141.03 162.5 174.12 194.5 167.25"/><line class="cls-1" x1="118.5" y1="194.14" x2="162.5" y2="174.12"/><polyline class="cls-3" points="143 174.62 162.5 175.12 162 192.62"/><circle class="cls-7" cx="162.5" cy="174.12" r="4"/><rect class="cls-2" x="139.5" y="171.12" width="7" height="7"/><rect class="cls-2" x="158.5" y="189.12" width="7" height="7"/><polygon class="cls-2" points="119.5 189.5 115.5 196.43 123.5 196.43 119.5 189.5"/><polygon class="cls-2" points="119.5 152.5 115.5 159.43 123.5 159.43 119.5 152.5"/><polygon class="cls-2" points="157.5 137.5 153.5 144.43 161.5 144.43 157.5 137.5"/><polygon class="cls-2" points="184.5 143.5 180.5 150.43 188.5 150.43 184.5 143.5"/><polygon class="cls-2" points="196.5 162.5 192.5 169.43 200.5 169.43 196.5 162.5"/><path class="cls-9" d="M208.86,283.58c-.09-9.6-.24-19.21-.37-28.82,0-.2,0-.41,0-.67l-2.71-1.76c0,.71,0,1.21,0,1.7-.07.74-.12,1.49-.26,2.22-.76,3.85-1.55,7.7-2.32,11.54,0,.17-.07.34-.12.57l-1,.24a7.51,7.51,0,0,1-.31-.79c-.79-2.86-1.57-5.73-2.34-8.59a28.45,28.45,0,0,1-1.2-6.85c0-1-.24-2.08-.38-3.25-1.19.11-2.3.2-3.41.34-.2,0-.41.24-.56.41L190.19,254a5.15,5.15,0,0,0-.88,2.48c-1,4.42-2,8.86-3,13.29q-2.58,11.71-5.14,23.43c-.44,2-.9,4-1.36,6h29C208.88,294,208.91,288.81,208.86,283.58Z"/><path d="M265,32.9c-.2-.32-.37-.62-.54-.9s-.17-.27-.24-.4-.17-.26-.25-.39l-.18-.24c-.13-.18-.27-.36-.41-.53L263,30a.47.47,0,0,1-.1-.1l-.35-.35a7.84,7.84,0,0,0-1.48-1.15.76.76,0,0,0-.19-.12,4.75,4.75,0,0,0-.59-.31l-.52-.23-.56-.2h0c-.19-.06-.39-.12-.58-.16a16.19,16.19,0,0,0-1.78-.31,19.62,19.62,0,0,0-5.24.21,10.76,10.76,0,0,1-2.34,0,1.24,1.24,0,0,1-1.09-.94,10.51,10.51,0,0,0-.51-1.13,5.58,5.58,0,0,0-.32-.52l-.28-.41-.12-.15c-.11-.14-.22-.26-.33-.39l-.38-.39-.17-.15-.35-.3-.5-.38a12.28,12.28,0,0,1-2.63-2.09.34.34,0,0,0-.12-.12,2.2,2.2,0,0,0-.41-.33l-.3-.2-.15-.1-.14-.1-.15.15h0a.86.86,0,0,0,.1.16,1,1,0,0,0,.1.17,26.43,26.43,0,0,1,3.92,7c.47,1.28.94,2.57,1.37,3.86a3.11,3.11,0,0,0,.12.3.62.62,0,0,0,.08.12l.09.1.11.08a.66.66,0,0,0,.27.12l.16,0c.52.09,1.05.19,1.57.31l.52.13c1.28.34,2.56.73,3.84,1.08a4.49,4.49,0,0,0,.95.16,5.55,5.55,0,0,0,2.27-.36l.4-.17a7.86,7.86,0,0,1,1.21-.49,6.85,6.85,0,0,1,2.3-.38c.33,0,.66.06,1,.11a10.44,10.44,0,0,1,1.46.28,6.62,6.62,0,0,1,.94.34,3.88,3.88,0,0,1,.46.22c.13.07.29.12.68.27h0ZM240.48,21c.27.44.48.77.7,1.11.36.58.69,1.18,1,1.78.12.2.21.4.31.6l.29.62c.19.4.37.82.54,1.23.28.71.54,1.42.79,2.14.11.31.21.63.32.95l.15.5.27.9c.13.43.25.86.37,1.3.26.94.55,1.88.83,2.82l.21,0C246.48,31.09,243,22.67,240.48,21Zm12,3a3.28,3.28,0,0,1-.31-.2l-.26-.23a4.51,4.51,0,0,1-.45-.53,5.3,5.3,0,0,1-.36-.62l-.16-.32q-.18-.39-.39-.75l-.18-.3a2.9,2.9,0,0,0-.19-.29q-.14-.2-.27-.36a2.62,2.62,0,0,0-.22-.25c-.1-.11-.21-.22-.32-.32L249,19.5q-.27-.2-.54-.42l-.52-.44-.49-.46q-.24-.22-.48-.48c-.14-.14-.27-.28-.4-.43s-.34-.37-.5-.57l-.44-.52-.41-.54L244.7,15c-.19-.22-.38-.44-.55-.67a2.09,2.09,0,0,0-.65-.58l-.13-.07a2.83,2.83,0,0,0-.65-.25c-1.79-.54-3.58-1.13-5.35-1.76-1.43-.51-1.76-.65-2.31.11l-.17.24c-.11.19-.25.41-.41.67a.74.74,0,0,0,0,.25,5.21,5.21,0,0,0,.57.1,6.89,6.89,0,0,1,3.48,1.38h0c.52.39,1,.78,1.55,1.19a15.49,15.49,0,0,0,5.44,3.16,5.19,5.19,0,0,1,1.13.5,5.87,5.87,0,0,1,2.66,3c.14.35.29.69.44,1a2.06,2.06,0,0,0,.75.92l.08,0,.1,0,.08,0h0l.17,0a1,1,0,0,0,.25,0,1.76,1.76,0,0,0,.38,0,2,2,0,0,1,.43,0l.67,0,.09-.23A2.15,2.15,0,0,1,252.46,23.93Zm-7.92,10.39c-.37-1.56-.74-3.12-1.17-4.67a21.56,21.56,0,0,0-1-2.8,36.78,36.78,0,0,0-7.54-10.78,4.63,4.63,0,0,0-.37-.33l-.34-.29a5.44,5.44,0,0,0,0,.72,38.64,38.64,0,0,1,.4,7c0,1.36,0,2.73,0,4.09a1.39,1.39,0,0,0,.21.65c1.27,2.18,2.59,4.34,3.81,6.54l.11.19.12.15a.27.27,0,0,0,.08.1.68.68,0,0,0,.12.12,2,2,0,0,0,.34.23l.17.07.18.06.67.16.34.07.42.07.43.05a8.39,8.39,0,0,0,2,0C244.79,35.54,244.82,35.51,244.54,34.32ZM232.7,27.79c.18.41.26.64.38.86.33.59.68,1.17,1,1.78.52.95,1,1.92,1.54,2.87a2.86,2.86,0,0,0,.92,1l.2.13,0,0a3.28,3.28,0,0,0,.37.22h0C236.63,32.88,234,28.73,232.7,27.79Zm3.3,7.84-.44-.7-2.95-4.72c-.36-.57-.7-1.15-1.07-1.69,0,0,0,0,0,0a6.55,6.55,0,0,0-.39-.53l-.23-.31a16.68,16.68,0,0,0-1.69-1.87l-.26-.24-.43-.37c-.22-.17-.46-.34-.69-.5l-.41-.25a3.62,3.62,0,0,0-.43-.24l-.43-.21-1-.42-1.58-.71-1.28-.53c-.43-.17-.85-.34-1.29-.5l-.46-.16c-.32-.11-.64-.2-1-.28s-.65-.17-1-.24l-1-.22-.48-.11a4.08,4.08,0,0,0-1.15.08,2,2,0,0,0,.59,1.48c.64,1,1.3,2,1.93,3a1.88,1.88,0,0,1-.35,2.44l-.15.14a.8.8,0,0,1-.17.15.83.83,0,0,1-.16.12l-.36.25-.35.24h0l-.17.13-.08,0c-.18.12-.4.22-.74.4l.75.11h.18c.71,0,1.42.09,2.13.18.24,0,.48.05.71.09s.47.06.7.1.47.07.7.12l.84.15,1.24.27.69.17,1.37.37c.91.26,1.81.55,2.71.86a14.77,14.77,0,0,1,2.33,1.06,4.63,4.63,0,0,1,.85.81q-1.38-.29-2.76-.48l-.76-.1c-.3,0-.61-.08-.92-.1s-.51-.06-.77-.07a1.63,1.63,0,0,0-.31,0l-.76-.05-.58,0-.58,0c-1,0-2,0-3,0l-.63,0a8.9,8.9,0,0,1-1,0l-.38,0h0l-.37,0a12.68,12.68,0,0,1-2.93-.72c-1.34-.49-2.64-1.08-4-1.62-.32-.13-.67-.21-1.07-.33,0,.07,0,.13,0,.2s0,.11,0,.16a1.35,1.35,0,0,0,.3.72l.13.15c.13.12.27.23.4.33l.08.06.37.27c.15.11.3.23.46.33a16.38,16.38,0,0,0,2.17,1.27,12.95,12.95,0,0,0,4.95,1.3h1.74c.5,0,1,0,1.5-.05l.77,0a21.07,21.07,0,0,1,2.75,0l.85,0,.57,0,.49,0,.7.07,1.05.12,1,.13c.79.11,1.59.19,2.4.26l1.22.12,1.25.13Zm35.33,90a53.7,53.7,0,0,0-1-6.47c-.13-.61-.27-1.23-.43-1.84-.33-1.41-.73-2.81-1.16-4.21a11.55,11.55,0,0,1-.19-6.86c.22-.74.39-1.52.67-2.25,1-2.54,1.21-5.25,1.79-7.88,0-.08,0-.19-.08-.36-.69-.22-1.4-.47-2.11-.69-1.21-.35-2.4-.71-3.62-1a21.75,21.75,0,0,0-3.78-.61c-3-.19-5.93-.36-8.9-.57a1.36,1.36,0,0,0-1.41.76c-1.28,2.18-2.57,4.36-3.91,6.5a2.43,2.43,0,0,0-.2,2.51c.34.72.69,1.43,1.06,2.13l.5,1c1.07,2,2.2,4,3.22,6.06a28.6,28.6,0,0,1,1.82,4.79c.27,1,.5,1.9.71,2.87a11.19,11.19,0,0,1-1.19-1.11,2.93,2.93,0,0,1-.34-.43,1.89,1.89,0,0,1-.28-.5c-.35-1-.68-2.09-1-3.16h0a54.71,54.71,0,0,0-3.41-6.75c-.67-1.17-1.38-2.32-2-3.5l-.28-.5a4.52,4.52,0,0,1-.26-3.76,24,24,0,0,1,3.23-6.82,1.22,1.22,0,0,0,.14-.28.7.7,0,0,0,.05-.52,1.6,1.6,0,0,1,.15-1.48c.78-1.4,1.57-2.79,2.43-4.15a2.63,2.63,0,0,1,1.58-1,3.19,3.19,0,0,0-1,2.15c.73-.79,1.35-1.55,2.06-2.23A3.31,3.31,0,0,1,257,84.23L255.67,86c1.23-.3,2.18-1.13,3.41-1.3.28.71-.26.87-.53,1.17l-.84.91a.69.69,0,0,0,.57,0c1-.52,2-1.07,3-1.54a3.83,3.83,0,0,1,1.47-.39,13.43,13.43,0,0,1,2.53.21c1.79.31,3.67.31,5.43,1.42-.13-1.86-.25-3.52-.37-5.19-.22-3-.44-6-.64-9-.12-1.74-.11-3.49-.33-5.21a27.68,27.68,0,0,0-2-7.3,56.06,56.06,0,0,0-5.8-10.12,24.48,24.48,0,0,0-2.43-2.76c-.71-.75-1.48-1.42-2.21-2.14s-1.3-1.39-2-2.07a11.59,11.59,0,0,0-4.95-3,5.7,5.7,0,0,0-2.59-.16,65.5,65.5,0,0,1-9.57,1.08c-2.25,0-4.5.05-6.76.05-1.87,0-3.76,0-5.63-.05A42.5,42.5,0,0,1,214,38.38c-2.55-.86-5-1.92-7.57-2.86a41.41,41.41,0,0,0-8.06-1.89,22.85,22.85,0,0,0-13,1.69,4.9,4.9,0,0,0-1.7,1.26c-1.89,2.24-3.77,4.51-5.55,6.85a170.43,170.43,0,0,0-10.5,15.8,1.57,1.57,0,0,0,0,2c2.31,3.35,4.55,6.74,6.86,10.09a3.39,3.39,0,0,0,1.15,1c1,.61,2.12,1.13,3.15,1.72.67.37.72.53.46,1.24a15.94,15.94,0,0,1-1,2.15,66,66,0,0,1-4.66,7.23c-1.95,2.69-3.83,5.42-5.7,8.16a3.14,3.14,0,0,0-.57,1.39c-.15,1.16-.29,2.32-.44,3.49q-.42,3.33-.78,6.68l-.21,2.05c-.36,3.77-.58,7.56-.88,11.34-.07.94-.22,1.88-.33,2.88a7.1,7.1,0,0,1-.71-.18c-2.73-1-2.35-.39-3.8-3.41-1-2.09-2.09-4.15-3.16-6.21-.45-.88-.94-1.74-1.44-2.6a3.27,3.27,0,0,0-.72-1c-.41-.33-.82-.65-1.26-.94a8.23,8.23,0,0,0-.86-.49c-2.21-1.06-4.45-2-6.67-3.06l-.6-.27a3.52,3.52,0,0,0-3.75.41c-.14.09-.18.3-.32.54l1.12.14.14,0c.7.07,1.41.13,2.09.25a22.68,22.68,0,0,1,7.14,2.73c.45.24.89.5,1.34.76a4.63,4.63,0,0,1,1.84,2.08c-1,.39-1.34.39-1.94-.11a16.54,16.54,0,0,0-7.45-3.47,39.52,39.52,0,0,0-7.13-.7,2.06,2.06,0,0,0-1.8,1c-.14.19-.25.4-.37.6a44.17,44.17,0,0,0-3.08,6.71,9.53,9.53,0,0,0-.34,6.61c.76,2.2,1.61,4.36,2.31,6.57,1.32,4.15,3.34,8,5,12,0,.12.12.24.17.37a8.92,8.92,0,0,0,3.47,3.93,75.18,75.18,0,0,1,8.88,6.94c.79.75,1.65,1.43,2.49,2.12a3.16,3.16,0,0,0,3.58.22,2.79,2.79,0,0,0,1.48-2.62c.16-2,.37-4,.54-5.92a3.1,3.1,0,0,0-.06-.91,74.9,74.9,0,0,0-2.8-11.86,3.85,3.85,0,0,1-.2-1c0-.32.18-.49.51-.5a1.15,1.15,0,0,1,1.21.75c.32.8.57,1.62.93,2.39a54.58,54.58,0,0,1,3.12,9.21c2.13,7.68,4.22,15.36,6.36,23a7.14,7.14,0,0,0,2.85,4,46.86,46.86,0,0,0,11.16,5.76c3.88,1.39,7.83,2.61,11.75,3.9,1.64.54,3.29,1.1,5,1.59,4.58,1.34,9.16,2.69,13.75,4,2.67.73,5.36,1.35,8.06,1.94a41.94,41.94,0,0,0,10.86,1.31c2.52-.13,5-.34,7.56-.57,3.43-.32,6.87-.66,10.29-1.08a9.3,9.3,0,0,0,3.24-.85,8.73,8.73,0,0,0,3.93-4.18,91.2,91.2,0,0,0,4.37-10.93c1.6-5.29,3.32-10.56,4.7-15.91s2.39-10.66,3.28-16.06A47.09,47.09,0,0,0,271.33,125.6Zm-23.54,65.27c-.41.06-.79.1-1.15.17-1.27.24-2.54.51-3.82.73a79.16,79.16,0,0,0-11.67,2.66,132,132,0,0,0-17.1,6.57,54.67,54.67,0,0,1-6.51,3,1.5,1.5,0,0,1-1.42-.12,170.67,170.67,0,0,0-20.29-10.7,76.54,76.54,0,0,1-12.28-6.55c-.52-.35-1.11-.61-1.78-1,0,.34.07.54.11.73q.75,4.23,1.52,8.48,1.88,10.42,3.74,20.88a1.65,1.65,0,0,0,.8,1.21c3.23,2.12,6.4,4.32,9.67,6.37a28.6,28.6,0,0,1,7.84,7.43c.61.85.86.85,1.73.2A12.16,12.16,0,0,1,199,229.7c5.91-2.76,11.76-5.66,17.48-8.8a119.91,119.91,0,0,0,14.31-8.8c1.8-1.35,3.58-2.75,5.43-4a85.34,85.34,0,0,0,10.36-9,3.35,3.35,0,0,0,1.17-2.31c0-1.75.08-3.48.11-5.23A3,3,0,0,0,247.79,190.87Zm-60,35.37a65.88,65.88,0,0,0-5.8-3.27c-.38-.18-.75-.38-1.12-.58l-.36-.19-.87-.48c-.44-.24-.87-.5-1.3-.76s-.66-.4-1-.61l-1.12-.71c-.49-.32-1-.64-1.46-1l-.37-.25-1.47-1L171,216.07l-1.88-1.33c-.27-.2-.54-.4-.8-.61l-.24-.23-1.42-1.32-1.43-1.33L164,210.07l-.23-.22c-.44-.43-.88-.86-1.32-1.31-2.77-2.83-5.45-5.75-8.17-8.63-.15-.16-.32-.3-.52-.5-.31.64-.61,1.17-.82,1.74-2.13,5.91-4.24,11.83-6.38,17.74a1.21,1.21,0,0,0,.11,1.14c.64,1.1,1.22,2.21,1.87,3.3,1,1.77,2.1,3.52,3.17,5.27,1.61,2.62,3.28,5.21,4.85,7.84,1.86,3.11,3.52,6.34,5.65,9.28.19.26.37.53.55.8s.22.34.33.51c.24.37.48.76.72,1.14s.33.55.51.82l.07.1.06.1.47.66c.47.65,1,1.28,1.58,2,.58-.78,1.06-1.44,1.55-2.09a30.56,30.56,0,0,1,3.7-4.49c1.07-1,2.08-2,3.14-2.95l13.75-12.46a14.9,14.9,0,0,0,1.22-1.46A12.66,12.66,0,0,0,187.74,226.24Zm23.8,19.61a101,101,0,0,1-8.12-8.94,1.71,1.71,0,0,0-.82-.55c-1.9-.55-3.81-1.06-5.72-1.56l-.33-.07-.12,0H196l-4.46.6-4.45.62c-.46.07-.9.21-1.34.32.22,1.57,4,8.42,5.8,10.66.12,0,.25,0,.38,0l.72-.05a66.86,66.86,0,0,1,12.17-.13,3.45,3.45,0,0,1,.75.13l.29.1.11,0h0l.23.12.28.19.14.12.13.13a2.66,2.66,0,0,1,.35.46,1,1,0,0,1,.1.17c.08.13.15.26.23.38.53.89,1.13,1.76,1.8,2.78.22-.46.45-.91.67-1.36h0c.21-.45.42-.88.64-1.31l1.24-2.54A3.81,3.81,0,0,0,211.54,245.85Zm29.3-2.56-.09,0h0c-.26.31-.49.63-.74.94s-.5.63-.77.93c-2.84,3.14-5.66,6.29-8.56,9.38l-.65.65c-.26.26-.52.5-.79.75s-.65.59-1,.89l-.49.44-.44.39-.55.51-.18.15-.18.11a.82.82,0,0,1-.49.09l-.13,0-.28-.09h0l-.58-.25-.46-.23-.28-.15-.26-.15a1.75,1.75,0,0,1-.25-.16,4.53,4.53,0,0,1-.46-.3c-.28-.2-.56-.42-.83-.65l-.38-.35c-1.93-1.85-3.83-3.71-5.75-5.56l-.71-.66a1,1,0,0,0-.22.18c-1.17,2.17-2.36,4.32-3.49,6.5l-.09.21-.07.18a5.06,5.06,0,0,0-.24,1.38c0,1.3.09,2.59.13,3.89.29,10.35.55,20.7.85,31.06,0,1.42.23,2.83.35,4.25l.15,0h0l.14,0h0c.15-.21.32-.42.46-.64,2.21-3.37,4.47-6.71,6.59-10.13,2.29-3.65,4.54-7.33,6.63-11.08a200.2,200.2,0,0,0,13.62-30.69c.21-.56.38-1.14.57-1.72Zm9.33-45.51-.23.31-.44.61c-.14.21-.29.41-.44.61a6.3,6.3,0,0,1-.73.82c-2,1.86-3.94,3.68-6,5.43-1.85,1.57-3.77,3.05-5.69,4.53-1.21.93-2.41,1.85-3.63,2.77s-2.43,1.82-3.67,2.7c-.45.31-.91.63-1.37.92s-.91.62-1.38.91l-1.4.87h0c-.95.57-1.9,1.13-2.85,1.67l-.48.27-1.69.94L218,222.33c-4.89,2.64-9.76,5.34-14.87,7.57-.41.19-.81.43-1.31.69.92.79,1.73,1.46,2.51,2.17l3.76,3.48c.63.59,1.25,1.17,1.89,1.74l.47.44,1.42,1.29,1,.93.17.17c.33.31.67.64,1,1s.58.59.87.89.57.6.84.91l.73.81c.31.36.61.72.91,1.09,1.73,2.11,3.46,4.23,5.24,6.3a17.75,17.75,0,0,0,1.28,1.32c.23.22.45.43.68.63l.67.63a2.24,2.24,0,0,0,1.51.73c.73-.94,1.48-1.82,2.15-2.76q7.53-10.58,15-21.15a7.86,7.86,0,0,0,1.28-2.75c.29-1.2.59-2.4.88-3.59s.6-2.38.89-3.58q.67-2.69,1.3-5.38c.14-.6.28-1.19.4-1.79,1-4.57,1.75-9.2,2.71-13.78A1.9,1.9,0,0,0,250.17,197.78ZM290.92,270c-.31-1.68-.54-3.37-.84-5.06q-1.5-8.42-3-16.83c-1-5.66-2-11.31-3.07-17-1-5.1-2-10.18-3-15.29a6.3,6.3,0,0,0-2.43-3.9c-3.56-2.83-7.36-5.32-11.17-7.82-2.85-1.88-5.74-3.71-8.42-5.84a28.57,28.57,0,0,0-7.9-4.47c-.74-.27-1.45-.58-2.14-.85,0-.23,0-.37,0-.5,0-.31,0-.62,0-.93,0-1,0-1,.91-1.31a13.34,13.34,0,0,0,3.39-1.66,17.76,17.76,0,0,0,4.81-5.79,54.63,54.63,0,0,0,4.2-9.44,209.66,209.66,0,0,0,6.44-21.49A172.52,172.52,0,0,0,272.16,133,36.73,36.73,0,0,0,271.9,122c-.21-1.19-.45-2.38-.71-3.56l-.45-1.94c-.33-1.37-.67-2.72-1-4.08a11.5,11.5,0,0,1,0-6c.67-2.41,1.27-4.83,1.9-7.24a28.27,28.27,0,0,0,.9-4.54,11.19,11.19,0,0,0,0-1.92c-.06-.7-.13-1.38-.19-2.08v-.06c-.32-3.64-.54-7.29-1-10.93a35,35,0,0,1,.51-10.9c.36-1.8.69-3.62,1-5.44a45.15,45.15,0,0,0,.05-12.77,5.2,5.2,0,0,0-2.09-3.84c-.41-.3-.78-.66-1.21-1,.18-1,.36-1.93.55-2.91a22.58,22.58,0,0,0-1.08-13.18c-.16-.41-.28-.84-.48-1.24a3.71,3.71,0,0,0-2-1.54,22.9,22.9,0,0,1-3-1.58c-1.37-.9-2.59-2-4-2.87a71.08,71.08,0,0,1-12.82-10.51c-.63-.62-1.14-1.36-1.76-2a16.26,16.26,0,0,0-2.23-2.09,4.6,4.6,0,0,0-4.11-.66,21.77,21.77,0,0,1-3.49.79c-2.2.27-4.41.43-6.63.63-.27,0-.54,0-.81.09a31.05,31.05,0,0,1-8.28.25c-4.33-.25-8.66-.66-13-.84-5.9-.25-11.82-.31-17.74-.09a26.24,26.24,0,0,0-8.1,1.53A44.86,44.86,0,0,0,168,16.26a4.69,4.69,0,0,1-2,.94c-2,.42-3.92.94-5.89,1.35a67.84,67.84,0,0,0-7.62,2.37,9.13,9.13,0,0,0-4.95,3.94l-.29.42c-4.26,6.49-8.34,13.08-12,19.91-1.53,2.82-3.28,5.51-5,8.22-2,3.07-4.06,6.07-6,9.12a5.83,5.83,0,0,0-.8,5.35c.83,2.48,1.35,5.07,2,7.61,1.32,5,2.45,10,3.28,15.12A87.68,87.68,0,0,0,133.09,107a2.79,2.79,0,0,1,0,2.07l-.59,1.53a29,29,0,0,0-1.65,6A5.19,5.19,0,0,0,131,119q.94,3,2,6a103.11,103.11,0,0,0,6.15,14.63,13.73,13.73,0,0,0,4.16,4.86,98.33,98.33,0,0,1,9.59,7.71,3.53,3.53,0,0,1,1.14,2.18c.45,3.14,1,6.28,1.26,9.44.44,5,.74,10,1,14.93a127.62,127.62,0,0,1-.11,13.83c-.13,2.62-.06,2.22-2,3.39a4.16,4.16,0,0,0-2,2.49c-.07.26-.18.51-.27.77a4.42,4.42,0,0,1-2.49,2.79c-3.42,1.55-6.83,3.14-10.18,4.83s-7,3.33-10.49,4.91c-2.46,1.09-4.83,2.38-7.21,3.67a4.81,4.81,0,0,0-1.53,1.45c-.88,1.22-1.68,2.5-2.45,3.79-5,8.37-9.69,16.9-14.18,25.55a149.82,149.82,0,0,0-10.06,24.09q-.45,1.47-.78,3c-.26,1.25.1,1.79,1.3,2.11.79.22,1.58.45,2.37.64a167.42,167.42,0,0,0,19.88,3.51l3.76.43c-.33.45-.55.77-.8,1.09-2.43,3.18-4.89,6.34-7.31,9.52-2.18,2.85-4.33,5.73-6.49,8.59v0H149c-.71-3.51-1.46-7-2.17-10.53a56,56,0,0,1-1.08-5.84c-.26-2.44-.34-4.91-.38-7.37q-.18-12.4-.28-24.82c0-4.28,0-8.55,0-12.82,0-2.67.11-5.33.18-8,0-.32.05-.63.08-.95a2.44,2.44,0,0,1,.26-.06c.56.71,1.18,1.38,1.69,2.14a67.32,67.32,0,0,0,7.35,8.81,14.9,14.9,0,0,1,1.26,1.48c2.62,3.47,5.2,6.95,7.85,10.39.82,1.09,1.78,2.06,2.62,3a2.8,2.8,0,0,0,2-1.05c1.38-1.47,2.77-2.93,4.18-4.36,2.33-2.34,4.68-4.65,7-7,.62-.62,1.26-1.23,2-1.94,1.65,4.46,3.61,8.6,6.78,11.89-.25.71-.5,1.25-.63,1.8-1,4.4-2,8.8-3,13.18-1.59,6.64-3.23,13.27-4.87,19.91-1,4-2,8.08-3,12.12h3.07c.46-2,.92-4,1.36-6q2.58-11.72,5.14-23.43c1-4.43,2-8.87,3-13.29a5.15,5.15,0,0,1,.88-2.48l3.64-4.17c.15-.17.36-.39.56-.41,1.11-.14,2.22-.23,3.41-.34.14,1.17.36,2.21.38,3.25a28.45,28.45,0,0,0,1.2,6.85c.77,2.86,1.55,5.73,2.34,8.59a7.51,7.51,0,0,0,.31.79l1-.24c0-.23.08-.4.12-.57.77-3.84,1.56-7.69,2.32-11.54.14-.73.19-1.48.26-2.22,0-.49,0-1,0-1.7l2.71,1.76c0,.26,0,.47,0,.67.13,9.61.28,19.22.37,28.82,0,5.23,0,10.46,0,15.68h76.34l.27-.18a7.88,7.88,0,0,0,.74-.55,1.59,1.59,0,0,0,.46-2,27.36,27.36,0,0,0-1.78-3.34c-1-1.44-2.05-2.81-3.16-4.16-1.92-2.32-3.89-4.58-5.85-6.88-.19-.22-.35-.46-.56-.73l.77-.47c2.75-1.6,5.52-3.14,8.23-4.8,1.6-1,3.11-2.1,4.63-3.22a12.71,12.71,0,0,0,1.55-1.48A1.57,1.57,0,0,0,290.92,270ZM252.8,117.92a1.89,1.89,0,0,1-.28-.5c-.35-1-.68-2.09-1-3.16.3.73.57,1.47.82,2.22C252.54,117,252.67,117.43,252.8,117.92Z"/><path class="cls-4" d="M250.17,197.78a1.9,1.9,0,0,1,1.23,2.53c-1,4.58-1.71,9.21-2.71,13.77-1.05,4.81-2.32,9.56-3.47,14.34a7.65,7.65,0,0,1-1.28,2.76q-7.51,10.56-15,21.15c-.67.94-1.42,1.82-2.15,2.76a2.24,2.24,0,0,1-1.51-.73,32,32,0,0,1-2.63-2.58c-1.78-2.07-3.51-4.19-5.24-6.3a51.87,51.87,0,0,0-5.52-5.77c-2.54-2.28-5-4.64-7.54-7-.77-.71-1.59-1.38-2.51-2.17.5-.26.89-.5,1.31-.69,5.11-2.23,10-4.93,14.87-7.57a111.12,111.12,0,0,0,11.35-6.78c2.48-1.75,4.89-3.61,7.3-5.46,1.92-1.48,3.84-3,5.69-4.53,2-1.75,4-3.57,6-5.43A18.92,18.92,0,0,0,250.17,197.78Z"/><path class="cls-4" d="M189.83,228.35a14.9,14.9,0,0,1-1.22,1.46l-13.75,12.46c-1.07,1-2.07,2-3.14,2.95a29.94,29.94,0,0,0-3.7,4.49c-.49.65-1,1.31-1.55,2.09a27.31,27.31,0,0,1-2.18-2.81c-.7-1.09-1.35-2.22-2.11-3.27-2.13-2.94-3.79-6.17-5.65-9.28-1.58-2.64-3.24-5.22-4.85-7.84q-1.6-2.62-3.17-5.27c-.64-1.09-1.23-2.21-1.87-3.29a1.24,1.24,0,0,1-.11-1.15c2.14-5.91,4.25-11.83,6.38-17.74.21-.57.52-1.1.82-1.74.2.2.37.34.52.5,2.72,2.88,5.4,5.8,8.17,8.63,1.82,1.86,3.75,3.59,5.64,5.37a10.51,10.51,0,0,0,1,.83l3.77,2.66a70.23,70.23,0,0,0,9.07,5.57c2,1,3.93,2.09,5.81,3.27A13.44,13.44,0,0,1,189.83,228.35Z"/><path class="cls-4" d="M212.76,297.55c-.12-1.41-.31-2.83-.35-4.25q-.45-15.53-.85-31.06c0-1.3-.14-2.59-.12-3.89a4,4,0,0,1,.4-1.76c1.12-2.19,2.31-4.35,3.48-6.51,0-.05.1-.08.22-.18.23.21.48.43.71.66l5.75,5.56a10.58,10.58,0,0,0,3.51,2.24,1,1,0,0,0,1.26-.23c1.3-1.21,2.69-2.34,3.9-3.63,2.91-3.08,5.73-6.24,8.57-9.39.54-.59,1-1.24,1.51-1.87l.18.1c-.19.58-.36,1.15-.57,1.72a200.2,200.2,0,0,1-13.62,30.69c-2.09,3.76-4.35,7.43-6.62,11.08-2.13,3.42-4.39,6.76-6.6,10.13-.14.22-.31.43-.46.64Z"/><path class="cls-9" d="M211.78,246.19l-2.55,5.22c-.76-1.18-1.45-2.14-2-3.17a2.79,2.79,0,0,0-2.41-1.48,66.86,66.86,0,0,0-12.17.13c-.24,0-.48,0-.72,0a2.36,2.36,0,0,1-.38,0c-1.83-2.24-5.58-9.09-5.8-10.66a11.86,11.86,0,0,1,1.34-.31q4.45-.63,8.91-1.22a2.3,2.3,0,0,1,.9.08c1.91.5,3.82,1,5.72,1.55a1.85,1.85,0,0,1,.82.57,102.34,102.34,0,0,0,8.12,8.93A2.7,2.7,0,0,1,211.78,246.19Z"/><path class="cls-4" d="M236,35.63c-1.7-.17-3.29-.29-4.88-.5a35.14,35.14,0,0,0-7.46-.38c-1.15.1-2.32.11-3.48.1a13.92,13.92,0,0,1-8.48-3.18,1.68,1.68,0,0,1-.91-1.62c.4.12.75.2,1.07.33,1.33.54,2.63,1.14,4,1.63a11.76,11.76,0,0,0,4.73.76,41.47,41.47,0,0,1,11.08.82,4.1,4.1,0,0,0-.86-.81,15.76,15.76,0,0,0-2.32-1.07,40,40,0,0,0-11.09-2.29l-.93-.12c.39-.22.62-.32.81-.45a8.85,8.85,0,0,0,1.38-1,1.88,1.88,0,0,0,.36-2.43c-.63-1-1.29-2-1.94-3-.28-.42-.69-.77-.59-1.48a4.11,4.11,0,0,1,1.15-.08,29.85,29.85,0,0,1,3.85,1c1.73.63,3.41,1.4,5.09,2.16a12.08,12.08,0,0,1,4.59,4c.54.71,1,1.49,1.45,2.24Z"/><path class="cls-4" d="M234.15,15.45c.36.31.55.45.71.62a37,37,0,0,1,7.54,10.78,21.56,21.56,0,0,1,1,2.8c.43,1.55.79,3.11,1.17,4.67.28,1.19.24,1.22-1,1.41a9.27,9.27,0,0,1-3.85-.31,1.67,1.67,0,0,1-1.13-.92c-1.22-2.2-2.54-4.36-3.81-6.54a1.39,1.39,0,0,1-.21-.65c0-1.36,0-2.72,0-4.09a38.64,38.64,0,0,0-.4-7A5.44,5.44,0,0,1,234.15,15.45Z"/><path class="cls-4" d="M241.47,19.59a6,6,0,0,1,1.12.85,12,12,0,0,0,2.63,2.09,7.67,7.67,0,0,1,2.95,3.83,1.25,1.25,0,0,0,1.1.93,10.17,10.17,0,0,0,2.34,0,17.84,17.84,0,0,1,7,.1A8.83,8.83,0,0,1,263.81,31c.47.64.85,1.36,1.41,2.26a5.35,5.35,0,0,1-.68-.27,9.79,9.79,0,0,0-3.85-1,6.89,6.89,0,0,0-2.3.38c-.55.15-1.06.45-1.61.65a5.22,5.22,0,0,1-3.22.21c-1.28-.35-2.55-.74-3.84-1.08a18.94,18.94,0,0,0-2.09-.44,1,1,0,0,1-.84-.76c-.42-1.29-.89-2.58-1.36-3.86a26.28,26.28,0,0,0-3.92-7,3.62,3.62,0,0,1-.2-.33Z"/><path class="cls-4" d="M252.71,24.33a5.77,5.77,0,0,0-1.1,0,1.55,1.55,0,0,1-1.84-1.07c-.16-.34-.31-.69-.45-1a5.8,5.8,0,0,0-2.67-3,5.25,5.25,0,0,0-1.11-.5,15.17,15.17,0,0,1-5.45-3.17c-.51-.4-1-.8-1.55-1.18A7,7,0,0,0,235.06,13a4.82,4.82,0,0,1-.57-.1c0-.12,0-.2,0-.24,1-1.73,1-1.69,2.89-1s3.55,1.21,5.35,1.76a2.53,2.53,0,0,1,1.43.9c.35.47.75.89,1.1,1.35A19.21,19.21,0,0,0,249,19.5,6.56,6.56,0,0,1,250.92,22a3.71,3.71,0,0,0,1.88,2.07Z"/><path class="cls-4" d="M246.05,34.9c-.28-.94-.57-1.88-.83-2.82a36.79,36.79,0,0,0-4.05-10L240.48,21c2.55,1.72,6,10.14,5.77,13.91Z"/><path class="cls-4" d="M237.15,34.68a3.47,3.47,0,0,1-1.53-1.38c-.52-.95-1-1.92-1.54-2.88-.32-.59-.67-1.18-1-1.78-.12-.21-.2-.44-.38-.85C234,28.73,236.63,32.88,237.15,34.68Z"/><path d="M193.7,90a2.85,2.85,0,0,1,.31-.38,61.93,61.93,0,0,1,9.21-7.16,8.64,8.64,0,0,1,3.18-1,26.67,26.67,0,0,1,8.78.08c2,.29,4,.64,6.06,1a6.15,6.15,0,0,1,3.94,2.37c.46.57.95,1.12,1.42,1.69l.22-.14c-.28-.56-.56-1.13-.83-1.69a12.8,12.8,0,0,1-.63-1.29.72.72,0,0,1,.09-.65.8.8,0,0,1,.73-.08,8,8,0,0,1,1.61,1.22c.61.64,1.11,1.37,1.77,2.2a2.65,2.65,0,0,0-.67-1.55c-.22-.34-.51-.64-.72-1a.6.6,0,0,1,0-.55.81.81,0,0,1,.62-.19,1.16,1.16,0,0,1,.59.37c.78.76,1.58,1.51,2.3,2.33a11.41,11.41,0,0,1,1,1.64,1.94,1.94,0,0,0,.59.72l-.09-1.61a7.38,7.38,0,0,1,1.35,4c0,.44,0,.88.1,1.31s.12.84-.4,1a1.11,1.11,0,0,1-1.35-.41l-1.61-2.5c-.07-.1-.16-.2-.41-.49.19.76.33,1.28.45,1.8.22.89,0,1.11-.91,1a54,54,0,0,1-8.18-1.3c-2.89-.69-5.82-1.24-8.73-1.82a14,14,0,0,0-4.39-.06c-2.1.24-4.21.41-6.31.64-1.5.17-3,.42-4.47.6-1.15.13-2.31.24-3.46.33C194.44,90.44,194,90.48,193.7,90Z"/><path d="M148.54,118.22l-.8-1.28c-.31.43-.56.73-.76,1.06a4.14,4.14,0,0,1-1.91,1.65,3,3,0,0,1-1.18.26c-.88,0-1.17-.39-1-1.24a4.79,4.79,0,0,1,.27-.89,5.41,5.41,0,0,0,0-3.42.87.87,0,0,0-.38-.56c-.58-.28-1.18-.48-1.74-.7-1.15,1.87-2.2,3.62-3.29,5.35a3.58,3.58,0,0,1-.85,1c-.66.46-1.21.16-1.25-.64-.1-2-.2-4.1-.27-6.14a5.16,5.16,0,0,1,3.06-4.27,7.19,7.19,0,0,1,4.82-.24c.81.25,1.6.59,2.39.92a4.65,4.65,0,0,1,2.08,1.77c1,1.47,2,2.93,3,4.42,1.49,2.28,2.3,4.88,3.4,7.33a5.42,5.42,0,0,1,.29,3.68,8.2,8.2,0,0,0,2,7.41,9.38,9.38,0,0,1,2.05,3.28,2.12,2.12,0,0,1-.08,1.68,8.81,8.81,0,0,1-3.41,3.9,10.89,10.89,0,0,1-.21-1.18q-.26-2.9-.47-5.81a3.27,3.27,0,0,0-1.09-2.54,4.21,4.21,0,0,1-1.33-3,13,13,0,0,1,.31-4.07c.08-.32.14-.65.23-1.08-.77.42-1.43.82-2.13,1.15a21,21,0,0,1-2.09.81,1.44,1.44,0,0,0-1,.81,9.23,9.23,0,0,0-.87,4.07,3,3,0,0,0,1.63,2.87,3.93,3.93,0,0,1,.76.52c.45.38.56.78.31,1.16a.92.92,0,0,1-1.15.43,4.43,4.43,0,0,1-1.31-.77c-4.7-4.3-3.86-9.86-1.05-13.46C146.58,121.1,147.51,119.67,148.54,118.22Z"/><path d="M226.56,95.79A4.48,4.48,0,0,0,223,93.86c-1.4-.07-2.8-.15-4.19-.24a51,51,0,0,0-9,.1,10.66,10.66,0,0,0-3.09.67c-.94.41-1.85.87-2.76,1.36l-2.15,1.16a3.08,3.08,0,0,0-1.36,1.74c-.12.35-.25.71-.39,1.06-.39,1-.25,1.36.72,1.88a14.89,14.89,0,0,0,3.08,1.26c.9.27,1.81.48,2.72.68a31.38,31.38,0,0,0,12.91.39c1.06-.22,2.11-.57,3.15-.89.29-.08.69-.16.56-.76-.75.23-1.46.5-2.2.65a14.34,14.34,0,0,1-2.43.33c-.73,0-1.53.34-2.17-.08.46-2,.89-3.89,1.31-5.79a3.57,3.57,0,0,1,3.62,1.36c.77,1,1.74,1.93,2.64,2.92,1.13-.7,1.19-.89.57-1.81l-.24-.33c-1-1.31-1.92-2.62-2.9-4a2.78,2.78,0,0,1,2.79.84c.45.56,1,1,1.45,1.58a1.61,1.61,0,0,0,2.35.27A6.19,6.19,0,0,0,226.56,95.79Zm-21.28,6.28-1.54-.46-1.71-.52c.4-1.36.8-2,1.68-2.39a4.53,4.53,0,0,1,1.33-.29c0,1.16-.25,2.37.41,3.47Z"/><path d="M257.68,151.85l-.09-1.1c1.24-.21,2.06.61,2.27,2.28a2.16,2.16,0,0,1-.52.2,23.09,23.09,0,0,1-7,.18c-1-.19-1.93-.45-2.9-.63a12.69,12.69,0,0,0-5.48.27,9,9,0,0,1-5.35-.18,10.75,10.75,0,0,0-2.4-.48,91.55,91.55,0,0,0-14.34-.22c-2.22.11-4.44.27-6.65.35a14.3,14.3,0,0,1-2.35-.17,1.7,1.7,0,0,1-.77-.43.45.45,0,0,1,0-.72,6,6,0,0,1,4-2c.06,0,.12,0,.3.13-.26.57-.53,1.13-.83,1.78a8.1,8.1,0,0,0,2.7-.05c3.26-.74,6.51-1.55,9.78-2.22a49.78,49.78,0,0,1,7.86-1.4,11.58,11.58,0,0,1,6,1.14,5.45,5.45,0,0,0,3.67.43c1.31-.25,2.62-.49,3.93-.7a4.26,4.26,0,0,1,3.71,1.35c.57.54,1.14,1.08,1.72,1.61A2.8,2.8,0,0,0,257.68,151.85Z"/><path d="M267.6,102.89c-.12-.92-.15-1.85-.34-2.74s-.21-1.69-.94-2.21a7.53,7.53,0,0,0-2.3-1.3,35.08,35.08,0,0,0-9.63-1.2,3.38,3.38,0,0,0-2.33.89c-.84.79-1.65,1.61-2.46,2.43l-.08.09a.37.37,0,0,0-.08.2c0,.11-.05.25-.1.43a8.32,8.32,0,0,0,1-.39c.45-.24.88-.53,1.31-.79a2.8,2.8,0,0,1,1.78-.4c-.5.45-1.07.75-1.57,1.15a31.41,31.41,0,0,0-2.41,2,2.5,2.5,0,0,0-.65,2.27l2-.76a2.73,2.73,0,0,0,2.39,2c.17,0,.33.08.49.11a45.68,45.68,0,0,0,7.66.54,14.87,14.87,0,0,0,5.73-1.37A.86.86,0,0,0,267.6,102.89Zm-7.54,1.48a8.76,8.76,0,0,0,.16-6.69,7.22,7.22,0,0,1,3.46,1.15,2,2,0,0,1,.56,1.06c.22,1.17.37,2.35.55,3.56C263.29,104.5,261.76,104.37,260.06,104.37Z"/><path d="M252.38,131c-.31,0-.62,0-.92,0a2.22,2.22,0,0,0-1.52.47c-.88.57-1.82,1.06-2.74,1.57a2.12,2.12,0,0,1-2,.11c-1.35-.59-2.7-1.15-4-1.79a4.94,4.94,0,0,0-2.17-.51c-1.36,0-2.73,0-4.09-.09a20,20,0,0,0-4.89.37,2.11,2.11,0,0,1-.61.06.61.61,0,0,1-.44-1,1.6,1.6,0,0,1,.43-.43,15.06,15.06,0,0,1,6.79-2.67c2.68-.35,5,.68,7.22,2.08.66.42,1.3.89,2,1.24a2.39,2.39,0,0,0,2.45,0c1.26-.76,2.53-1.49,3.76-2.28a2.58,2.58,0,0,1,3.45.27,9.88,9.88,0,0,1,.74.71c.71.77.61,1.2-.43,1.5a16.7,16.7,0,0,1-2.11.4,7,7,0,0,1-.92,0Z"/><path d="M228.64,121.76c-.09.28-.16.57-.27.84s-.33.75-.51,1.12a4.49,4.49,0,0,0-.13,3.87,11.09,11.09,0,0,1,.39,1.22c-1-.14-1.11-.91-1.61-1.54-.78.08-1.66.16-2.52.3a1.51,1.51,0,0,0-.67.44q-5.67,5.13-11.31,10.28c-1.16,1-2.3,2.1-3.55,3.06.18-.23.35-.47.55-.68,4.4-4.82,8.76-9.7,13.26-14.43a50.83,50.83,0,0,1,5.28-4.37,3,3,0,0,1,.88-.35Z"/><path d="M138.27,125.18c0-1,0-2.05,0-3.08a4.45,4.45,0,0,1,.08-.81.63.63,0,0,1,.62-.58.6.6,0,0,1,.67.51,11.29,11.29,0,0,1,.22,1.92c0,1.51,0,3,0,4.51a13.1,13.1,0,0,0,.74,4.22,6.2,6.2,0,0,0,.74,1.45,23.84,23.84,0,0,0,4.33,4.91,15.88,15.88,0,0,1,1.24,1.22.83.83,0,0,1,.1,1.2c-.29.31-.73.32-1.19-.08a28.66,28.66,0,0,1-6.68-7.71,6.16,6.16,0,0,1-.56-2.26c-.18-1.8-.27-3.61-.39-5.41Z"/><path class="cls-10" d="M271.33,125.6a60.39,60.39,0,0,0-2.57-12.52,11.52,11.52,0,0,1-.19-6.85c.22-.76.38-1.53.67-2.26,0-.1.08-.2.11-.3A59.28,59.28,0,0,0,271,96.09a1.66,1.66,0,0,0-.09-.36c-.69-.22-1.4-.47-2.11-.69a34.07,34.07,0,0,0-7.4-1.61c-3-.19-5.93-.36-8.9-.57a1.35,1.35,0,0,0-1.41.76c-1.28,2.18-2.57,4.36-3.91,6.5a2.4,2.4,0,0,0-.2,2.51c.13.27.25.53.38.79.38.78.78,1.55,1.18,2.32,1.07,2,2.2,4,3.22,6.06a28,28,0,0,1,1.87,5c.2.7.38,1.42.54,2.14s.26,1.17.37,1.75c.08.37.17.81-.34.94s-.61-.31-.71-.68c0-.13-.05-.27-.09-.4-.35-1.35-.63-2.73-1.06-4a47.24,47.24,0,0,0-4.24-9c-.77-1.33-1.57-2.64-2.3-4a4.5,4.5,0,0,1-.37-3.41l.11-.35a30.45,30.45,0,0,1,2.12-5.1,15.22,15.22,0,0,1,1.11-1.72,1.06,1.06,0,0,0,.2-.8,1.43,1.43,0,0,1-.12-.65,1.78,1.78,0,0,1,.25-.83c.6-1.06,1.2-2.11,1.83-3.16.2-.33.4-.66.61-1a2.64,2.64,0,0,1,1.58-1,3.25,3.25,0,0,0-1,2.1v.05l.05-.05c.71-.78,1.32-1.52,2-2.18A3.31,3.31,0,0,1,257,84.23L255.67,86c1.23-.3,2.18-1.13,3.41-1.29a.68.68,0,0,1-.2.88,3,3,0,0,0-.33.28c-.28.31-.55.61-.84.91a.65.65,0,0,0,.57-.06c.6-.3,1.2-.63,1.81-.94.39-.2.79-.4,1.2-.59a3.83,3.83,0,0,1,1.47-.39,13.43,13.43,0,0,1,2.53.21c1.79.31,3.66.31,5.43,1.42-.13-1.86-.25-3.52-.37-5.19-.22-3-.44-6-.64-9-.12-1.74-.11-3.49-.33-5.21a27.68,27.68,0,0,0-2-7.3,56.06,56.06,0,0,0-5.8-10.12,24.48,24.48,0,0,0-2.43-2.76c-.7-.75-1.49-1.41-2.21-2.14s-1.3-1.39-2-2.07a11.65,11.65,0,0,0-4.95-3,5.84,5.84,0,0,0-2.59-.17,71.91,71.91,0,0,1-8.77,1.07l-.8,0c-2.25,0-4.5.05-6.76.05-1.88,0-3.76,0-5.63-.05A42.87,42.87,0,0,1,214,38.39c-2.55-.87-5-1.93-7.57-2.87a42,42,0,0,0-8.06-1.89,22.92,22.92,0,0,0-13,1.68,4.87,4.87,0,0,0-1.7,1.27c-1.89,2.25-3.77,4.51-5.55,6.85a171.62,171.62,0,0,0-10.5,15.79,1.6,1.6,0,0,0,0,2c2.31,3.35,4.55,6.74,6.86,10.09a3.64,3.64,0,0,0,1.15,1c1,.6,2.11,1.12,3.15,1.71.66.37.72.53.46,1.24a15.94,15.94,0,0,1-1,2.15,67.05,67.05,0,0,1-4.66,7.24c-1.95,2.68-3.82,5.41-5.7,8.14a3.35,3.35,0,0,0-.57,1.4l-.57,4.54c-.31,2.56-.61,5.12-.86,7.68-.36,3.78-.58,7.57-.88,11.35-.07.94-.22,1.87-.34,2.86a5.14,5.14,0,0,1-.7-.17c-2.73-1-2.35-.39-3.8-3.41-1-2.09-2.09-4.14-3.16-6.21-.45-.88-.94-1.74-1.44-2.6a3.27,3.27,0,0,0-.72-1,12,12,0,0,0-2.12-1.43c-2.4-1.15-4.85-2.21-7.26-3.33a3.56,3.56,0,0,0-3.77.41c-.13.09-.18.3-.31.55l1.12.13c.74.08,1.49.14,2.23.27a25.32,25.32,0,0,1,8.48,3.49,4.81,4.81,0,0,1,1.84,2.08c-1,.39-1.34.39-1.94-.11a16.48,16.48,0,0,0-7.45-3.47,37.79,37.79,0,0,0-7.13-.69,2,2,0,0,0-1.8,1,6.18,6.18,0,0,0-.37.61,44.59,44.59,0,0,0-3.08,6.7q-.24.64-.42,1.29a9,9,0,0,0-.08,4.81,5,5,0,0,0,.16.51c.76,2.2,1.61,4.36,2.31,6.57,1.32,4.15,3.34,8,5,12,.06.13.13.24.18.37a9,9,0,0,0,3.47,3.94,73.28,73.28,0,0,1,8.88,6.93c.79.75,1.66,1.43,2.5,2.12a3.1,3.1,0,0,0,3.56.21,2.75,2.75,0,0,0,1.49-2.61c.16-2,.37-4,.54-5.92a3.1,3.1,0,0,0-.06-.91,75.43,75.43,0,0,0-2.8-11.86,3.85,3.85,0,0,1-.2-1c0-.32.18-.49.5-.5a1.14,1.14,0,0,1,1.22.75c.32.79.57,1.62.93,2.39a54.58,54.58,0,0,1,3.12,9.21c2.12,7.68,4.22,15.36,6.36,23a7.17,7.17,0,0,0,2.84,4,46.75,46.75,0,0,0,11.17,5.76c3.88,1.39,7.83,2.61,11.75,3.9,1.64.54,3.29,1.1,5,1.59,4.57,1.34,9.15,2.69,13.75,4,2.66.73,5.36,1.36,8.06,1.94a41.93,41.93,0,0,0,10.86,1.3c1.79-.09,3.58-.22,5.37-.37l2.19-.19c3.43-.32,6.87-.66,10.29-1.08a9.35,9.35,0,0,0,3.24-.85,8.8,8.8,0,0,0,2.88-2.43,8.46,8.46,0,0,0,1.05-1.75,90.21,90.21,0,0,0,4.37-10.93c1.6-5.29,3.31-10.56,4.7-15.91s2.39-10.66,3.29-16.06A47.54,47.54,0,0,0,271.33,125.6ZM147,140.65c-.29.31-.73.31-1.19-.08a28.45,28.45,0,0,1-6.67-7.71,5.81,5.81,0,0,1-.57-2.27c-.18-1.79-.27-3.6-.39-5.4h.08c0-1,0-2.05,0-3.07a4.47,4.47,0,0,1,.08-.82.61.61,0,0,1,.62-.57.59.59,0,0,1,.67.5,12.41,12.41,0,0,1,.22,1.92c0,1.5,0,3,0,4.51a13.14,13.14,0,0,0,.74,4.22,6.27,6.27,0,0,0,.74,1.46,24,24,0,0,0,4.33,4.9,14.28,14.28,0,0,1,1.24,1.22A.83.83,0,0,1,147,140.65ZM158.47,137a2.15,2.15,0,0,1-.08,1.69,8.81,8.81,0,0,1-3.41,3.9,11.34,11.34,0,0,1-.21-1.18q-.26-2.9-.48-5.81a3.2,3.2,0,0,0-1.07-2.54,4.23,4.23,0,0,1-1.35-3,13,13,0,0,1,.32-4.07c.08-.32.14-.65.23-1.08-.77.42-1.43.82-2.13,1.15a21,21,0,0,1-2.09.81,1.44,1.44,0,0,0-1,.81,9.24,9.24,0,0,0-.88,4.07,3.08,3.08,0,0,0,1.64,2.87,3.61,3.61,0,0,1,.76.51c.45.38.56.79.31,1.17a.91.91,0,0,1-1.15.43,4.31,4.31,0,0,1-1.31-.77c-4.7-4.3-3.86-9.86-1.05-13.46,1.05-1.34,2-2.77,3-4.22l-.79-1.28c-.32.43-.57.73-.77,1.06a4.09,4.09,0,0,1-1.91,1.65,3,3,0,0,1-1.18.26c-.89,0-1.18-.39-1-1.24a4.79,4.79,0,0,1,.27-.89,5.55,5.55,0,0,0,0-3.42,1,1,0,0,0-.39-.56c-.58-.28-1.18-.48-1.74-.7-1.14,1.87-2.2,3.62-3.29,5.35a3.43,3.43,0,0,1-.85,1c-.66.46-1.21.16-1.25-.64-.1-2-.2-4.1-.27-6.14a5.19,5.19,0,0,1,3.05-4.27,7.29,7.29,0,0,1,4.83-.25c.81.26,1.6.6,2.38.93a4.62,4.62,0,0,1,2.09,1.77c1,1.47,2,2.93,3,4.42,1.49,2.28,2.3,4.88,3.4,7.34a5.39,5.39,0,0,1,.29,3.67,8.2,8.2,0,0,0,2,7.41A9.43,9.43,0,0,1,158.47,137Zm95.14-32.21c-.16,0-.33-.09-.5-.11a2.69,2.69,0,0,1-2.33-1.91.73.73,0,0,1-.05-.12l-.9.35-1.06.41,0-.11a2.47,2.47,0,0,1,.67-2.16,31.41,31.41,0,0,1,2.41-2c.5-.39,1.07-.7,1.57-1.15a2.74,2.74,0,0,0-1.77.4c-.44.26-.87.54-1.32.79a10.16,10.16,0,0,1-1,.4c.1-.36.09-.54.18-.64.83-.85,1.67-1.7,2.54-2.52a3.3,3.3,0,0,1,2.33-.88A34.69,34.69,0,0,1,264,96.64a7.32,7.32,0,0,1,2.3,1.3,3.21,3.21,0,0,1,.94,2.21c.17.82.21,1.66.31,2.51l0,.23a.94.94,0,0,1,0,.51.88.88,0,0,1-.56.52,20.42,20.42,0,0,1-3.45,1.12,10.76,10.76,0,0,1-2.28.25A43.67,43.67,0,0,1,253.61,104.75Zm-26.45-6.18a1.53,1.53,0,0,1-1.52-.62c-.48-.53-1-1-1.46-1.58a2.73,2.73,0,0,0-2.78-.83l1,1.43c.63.86,1.24,1.71,1.86,2.55l.24.34c.61.91.56,1.1-.56,1.8a37.48,37.48,0,0,1-2.65-2.91,3.56,3.56,0,0,0-3.62-1.37c-.19.88-.39,1.75-.6,2.64l-.7,3.15c.63.42,1.43.1,2.16.08a13.28,13.28,0,0,0,2.43-.33,9.85,9.85,0,0,0,1.18-.33l1-.32c.13.6-.27.68-.56.76-1,.32-2.09.67-3.15.88-.79.16-1.57.28-2.35.36l-1,.09a33.5,33.5,0,0,1-9.55-.83,21.17,21.17,0,0,1-5.8-1.93c-1-.53-1.11-.89-.72-1.89,0,0,0,0,0,0,.14-.33.25-.67.37-1a3,3,0,0,1,1.36-1.74c1.62-.87,3.23-1.79,4.91-2.52a10.66,10.66,0,0,1,3.09-.67,51,51,0,0,1,9-.1c1.4.09,2.79.18,4.19.24a4.5,4.5,0,0,1,3.56,1.93A6.33,6.33,0,0,1,228,98.22,2.84,2.84,0,0,1,227.16,98.57ZM209,140.66c4.4-4.81,8.75-9.69,13.26-14.42a51.9,51.9,0,0,1,5.28-4.37,3,3,0,0,1,.88-.35l.21.23c-.09.29-.16.58-.27.85s-.33.75-.51,1.12a4.45,4.45,0,0,0-.12,3.87c.15.35.23.74.38,1.22-1-.13-1.11-.91-1.61-1.55-.78.09-1.66.17-2.52.31a1.51,1.51,0,0,0-.67.44q-5.67,5.13-11.31,10.27c-1.16,1.06-2.3,2.11-3.55,3.07C208.64,141.12,208.81,140.88,209,140.66Zm46.09-12.25c.25.24.51.47.74.71.71.78.61,1.21-.44,1.51l-.1,0a16.77,16.77,0,0,1-2,.37,7.06,7.06,0,0,1-.92,0c-.3,0-.62,0-.92,0a2.19,2.19,0,0,0-1.52.47c-.88.57-1.82,1.06-2.74,1.57a2.09,2.09,0,0,1-2,.11l-.08,0c-1.31-.58-2.65-1.13-3.94-1.76a4.93,4.93,0,0,0-2.16-.51c-1.37,0-2.74,0-4.1-.08a19.54,19.54,0,0,0-4.89.36,2.11,2.11,0,0,1-.61.06.61.61,0,0,1-.44-1,1.6,1.6,0,0,1,.43-.43,15.06,15.06,0,0,1,6.79-2.67c2.68-.35,5,.68,7.22,2.08.66.42,1.3.89,2,1.24a2.42,2.42,0,0,0,2.45,0c1.26-.76,2.53-1.49,3.77-2.28A2.58,2.58,0,0,1,255.1,128.41ZM194,89.57a61.93,61.93,0,0,1,9.21-7.16,8.64,8.64,0,0,1,3.18-1,26.67,26.67,0,0,1,8.78.08c2,.29,4,.64,6.06,1a6.14,6.14,0,0,1,3.94,2.36c.46.58.95,1.13,1.42,1.7a1.64,1.64,0,0,1,.22-.14L226,84.69c-.21-.43-.45-.84-.62-1.29-.06-.19,0-.56.09-.64a.77.77,0,0,1,.73-.09,11,11,0,0,1,1.26.89l.35.33c.24.25.46.52.69.8l.69.9.39.5a2,2,0,0,0-.22-.87,2.35,2.35,0,0,0-.24-.37l-.21-.31c-.22-.34-.51-.64-.72-1a.62.62,0,0,1,0-.56.86.86,0,0,1,.63-.18,1.23,1.23,0,0,1,.58.37l1.2,1.17c.24.24.48.48.7.73s.27.28.4.43a11.88,11.88,0,0,1,1,1.63,1.89,1.89,0,0,0,.59.73c0-.49,0-1-.09-1.61a7.46,7.46,0,0,1,1.35,4c0,.44.06.88.1,1.31s.12.84-.4,1a1.11,1.11,0,0,1-1.35-.41c-.54-.83-1.07-1.67-1.61-2.49a4.09,4.09,0,0,0-.41-.5c.19.76.33,1.28.45,1.79.22.9,0,1.12-.9,1a52.72,52.72,0,0,1-8.19-1.31c-2.89-.68-5.81-1.23-8.73-1.81a13.43,13.43,0,0,0-4.15-.08h0l-.23,0c-2.11.24-4.22.4-6.32.64-1.49.17-3,.41-4.47.59-1.15.14-2.31.25-3.47.34-.43,0-.89.07-1.17-.46A2.85,2.85,0,0,1,194,89.57Zm59.48,79.3a.7.7,0,0,1-.16.5c-.13.1-.44,0-.64-.07-1.47-.63-2.93-1.3-4.39-2a10.38,10.38,0,0,0-2.23-.73,14.83,14.83,0,0,0-5.71,0c-3.62.65-7.22,1.47-10.83,2.2a2.62,2.62,0,0,1-1.18,0c-.3-.07-.44-.24-.44-.47a.84.84,0,0,1,.14-.41c.2-.31.46-.6.69-.89a46.91,46.91,0,0,1,5.63-6.08,7.07,7.07,0,0,1,4-1.85h0a5,5,0,0,1,.78,0h.23c1.05.06,2.11,0,3.58,0s3.07.11,4.81.19a8.28,8.28,0,0,1,1.41.22,2.49,2.49,0,0,1,2,1.77c.35,1.06.73,2.12,1.1,3.17.23.65.45,1.3.66,2a15.94,15.94,0,0,1,.49,2.28.49.49,0,0,1,0,.12Zm5.15-15.55a20.74,20.74,0,0,1-6.34.09c-1-.19-1.93-.45-2.9-.63l-.24,0a12.71,12.71,0,0,0-5.24.31,9,9,0,0,1-5.35-.18,10.75,10.75,0,0,0-2.4-.48,91.55,91.55,0,0,0-14.34-.22c-1,0-1.91.1-2.87.16-1.26.07-2.52.14-3.79.19-.27,0-.55,0-.83,0-.5,0-1-.09-1.5-.16a1.42,1.42,0,0,1-.66-.33l-.12-.1a.45.45,0,0,1,0-.72,6,6,0,0,1,3.93-2h.07c.06,0,.12.06.3.13-.25.55-.51,1.09-.8,1.72l0,.06a8.1,8.1,0,0,0,2.7-.05c3.27-.74,6.51-1.55,9.78-2.22a51,51,0,0,1,7.86-1.41,11.69,11.69,0,0,1,6,1.15,5.45,5.45,0,0,0,3.67.43c1.31-.25,2.62-.49,3.93-.7a4.26,4.26,0,0,1,3.71,1.35l1.34,1.26.38.35a2.79,2.79,0,0,0,2.68.66l.13,0c0-.38-.06-.74-.09-1.1a1.78,1.78,0,0,1,1.09.13,2.56,2.56,0,0,1,1.18,2.16,3.52,3.52,0,0,1-.52.19l-.7.09Z"/><path class="cls-10" d="M247.9,191.51c0,1.74-.07,3.48-.11,5.23a3.35,3.35,0,0,1-1.17,2.31,85.34,85.34,0,0,1-10.36,9c-1.85,1.29-3.63,2.68-5.43,4a118.7,118.7,0,0,1-14.31,8.81q-6.69,3.66-13.57,6.95L199,229.7a11.12,11.12,0,0,0-1.73,1.16l-.13.1c-.87.65-1.12.65-1.73-.2-.37-.52-.76-1-1.16-1.5a27.63,27.63,0,0,0-6.68-5.92c-3.27-2.06-6.44-4.27-9.67-6.38a1.66,1.66,0,0,1-.8-1.21q-1.86-10.45-3.74-20.89l-1.53-8.47c0-.19-.05-.39-.1-.73.67.36,1.25.62,1.78,1a76.12,76.12,0,0,0,12.28,6.55q5.52,2.43,10.83,5.27,4.56,2.45,9,5.14l.48.29a1.31,1.31,0,0,0,1,.21,1.43,1.43,0,0,0,.38-.1,53.07,53.07,0,0,0,6.51-3,132,132,0,0,1,17.1-6.57,79.16,79.16,0,0,1,11.67-2.66c1.28-.22,2.55-.49,3.82-.73.37-.07.74-.11,1.15-.17A2.86,2.86,0,0,1,247.9,191.51Z"/><path class="cls-10" d="M205.45,101.87l-.17.21-3.25-1c.56-1.9,1.12-2.47,3-2.68C205.07,99.57,204.79,100.78,205.45,101.87Z"/><path class="cls-10" d="M264.79,103.46c-1.5,1-3,.91-4.73.91a8.89,8.89,0,0,0,.17-6.69,7.33,7.33,0,0,1,3.45,1.15,2,2,0,0,1,.56,1.07c.08.44.16.89.23,1.34C264.58,102,264.68,102.7,264.79,103.46Z"/><path class="cls-11" d="M205,98.41c-1.89.21-2.45.78-3,2.68l3.25,1,.17-.21C204.79,100.78,205.07,99.57,205,98.41Zm9.56-.78a2.18,2.18,0,0,0-.49-.07c-.63,0-1,.21-1.07.56-.11.53.3.69.66.88a2.68,2.68,0,0,0,.47.18c.59.16,1,0,1.12-.37A1,1,0,0,0,214.6,97.63Zm0,0a2.18,2.18,0,0,0-.49-.07c-.63,0-1,.21-1.07.56-.11.53.3.69.66.88a2.68,2.68,0,0,0,.47.18c.59.16,1,0,1.12-.37A1,1,0,0,0,214.6,97.63Zm-9.56.78c-1.89.21-2.45.78-3,2.68l3.25,1,.17-.21C204.79,100.78,205.07,99.57,205,98.41Zm0,0c-1.89.21-2.45.78-3,2.68l3.25,1,.17-.21C204.79,100.78,205.07,99.57,205,98.41Zm9.56-.78a2.18,2.18,0,0,0-.49-.07c-.63,0-1,.21-1.07.56-.11.53.3.69.66.88a2.68,2.68,0,0,0,.47.18c.59.16,1,0,1.12-.37A1,1,0,0,0,214.6,97.63Zm0,0a2.18,2.18,0,0,0-.49-.07c-.63,0-1,.21-1.07.56-.11.53.3.69.66.88a2.68,2.68,0,0,0,.47.18c.59.16,1,0,1.12-.37A1,1,0,0,0,214.6,97.63Zm-9.56.78c-1.89.21-2.45.78-3,2.68l3.25,1,.17-.21C204.79,100.78,205.07,99.57,205,98.41Zm0,0c-1.89.21-2.45.78-3,2.68l3.25,1,.17-.21C204.79,100.78,205.07,99.57,205,98.41Zm9.56-.78a2.18,2.18,0,0,0-.49-.07c-.63,0-1,.21-1.07.56-.11.53.3.69.66.88a2.68,2.68,0,0,0,.47.18c.59.16,1,0,1.12-.37A1,1,0,0,0,214.6,97.63Zm0,0a2.18,2.18,0,0,0-.49-.07c-.63,0-1,.21-1.07.56-.11.53.3.69.66.88a2.68,2.68,0,0,0,.47.18c.59.16,1,0,1.12-.37A1,1,0,0,0,214.6,97.63Zm-9.56.78c-1.89.21-2.45.78-3,2.68l3.25,1,.17-.21C204.79,100.78,205.07,99.57,205,98.41Zm0,0c-1.89.21-2.45.78-3,2.68l3.25,1,.17-.21C204.79,100.78,205.07,99.57,205,98.41Zm9.56-.78a2.18,2.18,0,0,0-.49-.07c-.63,0-1,.21-1.07.56-.11.53.3.69.66.88a2.68,2.68,0,0,0,.47.18c.59.16,1,0,1.12-.37A1,1,0,0,0,214.6,97.63Zm38.7,69a5.73,5.73,0,0,1-.7-1.74.8.8,0,0,0-.27-.43c.23.65.45,1.3.66,2a15.94,15.94,0,0,1,.49,2.28.49.49,0,0,1,0,.12v0l0,0,.08,0A5.44,5.44,0,0,0,253.3,166.66Zm-38.7-69a2.18,2.18,0,0,0-.49-.07c-.63,0-1,.21-1.07.56-.11.53.3.69.66.88a2.68,2.68,0,0,0,.47.18c.59.16,1,0,1.12-.37A1,1,0,0,0,214.6,97.63Zm-9.56.78c-1.89.21-2.45.78-3,2.68l3.25,1,.17-.21C204.79,100.78,205.07,99.57,205,98.41Zm0,0c-1.89.21-2.45.78-3,2.68l3.25,1,.17-.21C204.79,100.78,205.07,99.57,205,98.41Zm9.56-.78a2.18,2.18,0,0,0-.49-.07c-.63,0-1,.21-1.07.56-.11.53.3.69.66.88a2.68,2.68,0,0,0,.47.18c.59.16,1,0,1.12-.37A1,1,0,0,0,214.6,97.63Zm0,0a2.18,2.18,0,0,0-.49-.07c-.63,0-1,.21-1.07.56-.11.53.3.69.66.88a2.68,2.68,0,0,0,.47.18c.59.16,1,0,1.12-.37A1,1,0,0,0,214.6,97.63Zm-9.56.78c-1.89.21-2.45.78-3,2.68l3.25,1,.17-.21C204.79,100.78,205.07,99.57,205,98.41Zm0,0c-1.89.21-2.45.78-3,2.68l3.25,1,.17-.21C204.79,100.78,205.07,99.57,205,98.41Zm9.56-.78a2.18,2.18,0,0,0-.49-.07c-.63,0-1,.21-1.07.56-.11.53.3.69.66.88a2.68,2.68,0,0,0,.47.18c.59.16,1,0,1.12-.37A1,1,0,0,0,214.6,97.63Zm0,0a2.18,2.18,0,0,0-.49-.07c-.63,0-1,.21-1.07.56-.11.53.3.69.66.88a2.68,2.68,0,0,0,.47.18c.59.16,1,0,1.12-.37A1,1,0,0,0,214.6,97.63Zm-9.56.78c-1.89.21-2.45.78-3,2.68l3.25,1,.17-.21C204.79,100.78,205.07,99.57,205,98.41Zm0,0c-1.89.21-2.45.78-3,2.68l3.25,1,.17-.21C204.79,100.78,205.07,99.57,205,98.41Zm9.56-.78a2.18,2.18,0,0,0-.49-.07c-.63,0-1,.21-1.07.56-.11.53.3.69.66.88a2.68,2.68,0,0,0,.47.18c.59.16,1,0,1.12-.37A1,1,0,0,0,214.6,97.63Zm0,0a2.18,2.18,0,0,0-.49-.07c-.63,0-1,.21-1.07.56-.11.53.3.69.66.88a2.68,2.68,0,0,0,.47.18c.59.16,1,0,1.12-.37A1,1,0,0,0,214.6,97.63Zm-9.56.78c-1.89.21-2.45.78-3,2.68l3.25,1,.17-.21C204.79,100.78,205.07,99.57,205,98.41Zm54.41,39.34c-.65-2.58-1.27-5.17-2-7.74-.34-1.24-.83-2.43-1.26-3.64a3.92,3.92,0,0,0-.34-.64,1.57,1.57,0,0,0-1.59-.87,7,7,0,0,1-2-.22,3.49,3.49,0,0,1-2.75-2.74,8.72,8.72,0,0,0-.38-1.16l-2.43-6.53c-.8-2.15-1.52-4.32-2.42-6.42A68.77,68.77,0,0,1,240.81,99a8.3,8.3,0,0,0-.58-1.42c-.55-1.15-1.09-2.31-1.68-3.43a32,32,0,0,0-2.27-3.86,7.1,7.1,0,0,1-.88-1.94c-.2-.65-.14-.68-.82-.57l-.43-1.26-.34-.4-.39-.43a1.3,1.3,0,0,0-.39-.27c-.74-.34-1.49-.64-2.22-1l-.25-.11c.24.24.48.48.7.73s.27.28.4.43a11.88,11.88,0,0,1,1,1.63,1.89,1.89,0,0,0,.59.73c0-.49,0-1-.09-1.61a7.46,7.46,0,0,1,1.35,4c0,.44.06.88.1,1.31s.12.84-.4,1a1.11,1.11,0,0,1-1.35-.41c-.54-.83-1.07-1.67-1.61-2.49a4.09,4.09,0,0,0-.41-.5c.19.76.33,1.28.45,1.79.22.9,0,1.12-.9,1a52.72,52.72,0,0,1-8.19-1.31c-2.89-.68-5.81-1.23-8.73-1.81a11.23,11.23,0,0,0-2.65-.19c-.34,0-.67,0-1,.06l-.47,0h0l-.23,0c-2.11.24-4.22.4-6.32.64-1.49.17-3,.41-4.47.59-1.15.14-2.31.25-3.47.34-.43,0-.89.07-1.17-.46a2.85,2.85,0,0,1,.31-.38,61.93,61.93,0,0,1,9.21-7.16,8.64,8.64,0,0,1,3.18-1,26.67,26.67,0,0,1,8.78.08c2,.29,4,.64,6.06,1a6.14,6.14,0,0,1,3.94,2.36c.46.58.95,1.13,1.42,1.7a1.64,1.64,0,0,1,.22-.14L226,84.69c-.21-.43-.45-.84-.62-1.29-.06-.19,0-.56.09-.64a.77.77,0,0,1,.73-.09,11,11,0,0,1,1.26.89s0-.09-.05-.14C224.46,72.63,221,62,217.23,51.49a3.22,3.22,0,0,1,.44-3.55c.92-1.09,1.68-2.32,2.6-3.42a3.74,3.74,0,0,1,2.59-1.3,70,70,0,0,0,8-1.24c2.59-.56,5.21-1,7.83-1.45l-.8,0c-2.25,0-4.5.05-6.76.05-1.88,0-3.76,0-5.63-.05A42.87,42.87,0,0,1,214,38.39c-2.55-.87-5-1.93-7.57-2.87a42,42,0,0,0-8.06-1.89,22.92,22.92,0,0,0-13,1.68,4.87,4.87,0,0,0-1.7,1.27c-1.89,2.25-3.77,4.51-5.55,6.85a171.62,171.62,0,0,0-10.5,15.79,1.6,1.6,0,0,0,0,2c2.31,3.35,4.55,6.74,6.86,10.09a3.64,3.64,0,0,0,1.15,1c1,.6,2.11,1.12,3.15,1.71.66.37.72.53.46,1.24a15.94,15.94,0,0,1-1,2.15,67.05,67.05,0,0,1-4.66,7.24c-1.95,2.68-3.82,5.41-5.7,8.14a3.35,3.35,0,0,0-.57,1.4l-.57,4.54h0c-.23,1.92-.46,3.85-.66,5.77-.07.64-.14,1.27-.2,1.91-.36,3.78-.58,7.57-.88,11.35-.07.94-.22,1.87-.34,2.86a5.14,5.14,0,0,1-.7-.17c-2.73-1-2.35-.39-3.8-3.41-1-2.09-2.09-4.14-3.16-6.21-.45-.88-.94-1.74-1.44-2.6a3.27,3.27,0,0,0-.72-1,12,12,0,0,0-2.12-1.43c-2.4-1.15-4.85-2.21-7.26-3.33a3.56,3.56,0,0,0-3.77.41c-.13.09-.18.3-.31.55l1.12.13c.74.08,1.49.14,2.23.27a25.32,25.32,0,0,1,8.48,3.49,4.81,4.81,0,0,1,1.84,2.08c-1,.39-1.34.39-1.94-.11a16.48,16.48,0,0,0-7.45-3.47,37.79,37.79,0,0,0-7.13-.69,2,2,0,0,0-1.8,1,6.18,6.18,0,0,0-.37.61,44.59,44.59,0,0,0-3.08,6.7q-.24.64-.42,1.29a27.24,27.24,0,0,0-.13,2.86c0,.65,0,1.3.05,2a5,5,0,0,0,.16.51c.76,2.2,1.61,4.36,2.31,6.57,1.32,4.15,3.34,8,5,12,.06.13.13.24.18.37a9,9,0,0,0,3.47,3.94,73.28,73.28,0,0,1,8.88,6.93c.79.75,1.66,1.43,2.5,2.12a3.1,3.1,0,0,0,3.56.21,2.75,2.75,0,0,0,1.49-2.61c.16-2,.37-4,.54-5.92a3.1,3.1,0,0,0-.06-.91,75.43,75.43,0,0,0-2.8-11.86,3.85,3.85,0,0,1-.2-1c0-.32.18-.49.5-.5a1.14,1.14,0,0,1,1.22.75c.32.79.57,1.62.93,2.39a54.58,54.58,0,0,1,3.12,9.21c2.12,7.68,4.22,15.36,6.36,23a7.17,7.17,0,0,0,2.84,4,46.75,46.75,0,0,0,11.17,5.76c3.88,1.39,7.83,2.61,11.75,3.9,1.64.54,3.29,1.1,5,1.59,4.57,1.34,9.15,2.69,13.75,4,2.66.73,5.36,1.36,8.06,1.94a41.93,41.93,0,0,0,10.86,1.3l1.34-.07,1.11-.07.73-.06.85-.06,1.34-.11,2.19-.19c3.43-.32,6.87-.66,10.29-1.08a9.35,9.35,0,0,0,3.24-.85,8.8,8.8,0,0,0,2.88-2.43,10.3,10.3,0,0,1-3,1.09,30.63,30.63,0,0,1-13.93-.05,1.24,1.24,0,0,1-.87-.79c-.79-1.7-1.58-3.41-2.36-5.11a4.14,4.14,0,0,1-.15-3.2c.69-1.93,1.41-3.85,2.08-5.78a1.48,1.48,0,0,1,1.34-1.08c1.9-.24,3.81-.51,5.73-.74a14.83,14.83,0,0,0-5.71,0c-3.62.65-7.22,1.47-10.83,2.2a2.62,2.62,0,0,1-1.18,0c-.3-.07-.44-.24-.44-.47a.84.84,0,0,1,.14-.41c.2-.31.46-.6.69-.89a46.91,46.91,0,0,1,5.63-6.08,8.94,8.94,0,0,1,.79-.62l.27-.18.22-.13a5.87,5.87,0,0,1,.86-.45l.16-.06.35-.13.23-.07a4.05,4.05,0,0,1,.5-.12,6.17,6.17,0,0,1,.62-.09,6.56,6.56,0,0,1,.89,0c-1.24-1.4-2.47-2.82-3.71-4.23-.22-.25-.4-.53-.72-.94,1.87-.09,3.54-.55,5.22.08a5.66,5.66,0,0,0,3.52.21c1.87-.49,3.73-1,5.59-1.51a12.71,12.71,0,0,0-5.24.31,9,9,0,0,1-5.35-.18,10.75,10.75,0,0,0-2.4-.48,91.55,91.55,0,0,0-14.34-.22c-1,0-1.91.1-2.87.16l-.46,0-1.43.08-.48,0-1.42.06c-.27,0-.55,0-.83,0-.5,0-1-.09-1.5-.16a1.42,1.42,0,0,1-.66-.33l-.12-.1a.45.45,0,0,1,0-.72,7.66,7.66,0,0,1,2.62-1.79l.21-.07a4.21,4.21,0,0,1,.51-.12,1.35,1.35,0,0,1,.29,0l.3,0h.07c.06,0,.12.06.3.13-.25.55-.51,1.09-.8,1.72l0,.06a8.1,8.1,0,0,0,2.7-.05c3.27-.74,6.51-1.55,9.78-2.22a51,51,0,0,1,7.86-1.41,11.69,11.69,0,0,1,6,1.15,5.45,5.45,0,0,0,3.67.43c1.31-.25,2.62-.49,3.93-.7a4.26,4.26,0,0,1,3.71,1.35l1.34,1.26c0-.35-.32-.64-.59-.86-1.18-1-2.39-1.92-3.61-2.85a1.21,1.21,0,0,0-.78-.17,15.3,15.3,0,0,0-5,1c-.61-.29-1.28-.56-1.9-.91a1.42,1.42,0,0,1-.44-.41h0a1.07,1.07,0,0,1-.16-.32,28.31,28.31,0,0,1-.81-12,.91.91,0,0,1,.41-.63c.53-.27,1.11-.46,1.79-.74v1.13c0,1.16,0,2.33,0,3.48.15,1.91.37,3.81.6,5.71,0,.22.26.55.44.58a5.56,5.56,0,0,0,3.93-.53c-.82-2.32-1.65-4.56-2.4-6.83a26.6,26.6,0,0,1-.75-3.08c0-.11,0-.2-.06-.29-1.31-.58-2.65-1.13-3.94-1.76a4.93,4.93,0,0,0-2.16-.51c-1.37,0-2.74,0-4.1-.08a19.54,19.54,0,0,0-4.89.36,2.11,2.11,0,0,1-.61.06.61.61,0,0,1-.44-1,1.6,1.6,0,0,1,.43-.43,15.06,15.06,0,0,1,6.79-2.67c2.68-.35,5,.68,7.22,2.08.66.42,1.3.89,2,1.24a2.42,2.42,0,0,0,2.45,0c1.26-.76,2.53-1.49,3.77-2.28a2.58,2.58,0,0,1,3.44.26c.25.24.51.47.74.71.71.78.61,1.21-.44,1.51l-.1,0c.16.41.3.8.48,1.18.58,1.27,1.19,2.54,1.8,3.8l1.3,2.67c.14.27.25.57.75.42C259.57,138.4,259.53,138.07,259.45,137.75ZM147,140.65c-.29.31-.73.31-1.19-.08a28.45,28.45,0,0,1-6.67-7.71,5.81,5.81,0,0,1-.57-2.27c-.18-1.79-.27-3.6-.39-5.4h.08c0-1,0-2.05,0-3.07a4.47,4.47,0,0,1,.08-.82.61.61,0,0,1,.62-.57.59.59,0,0,1,.67.5,12.41,12.41,0,0,1,.22,1.92c0,1.5,0,3,0,4.51a13.14,13.14,0,0,0,.74,4.22,6.27,6.27,0,0,0,.74,1.46,24,24,0,0,0,4.33,4.9,14.28,14.28,0,0,1,1.24,1.22A.83.83,0,0,1,147,140.65ZM158.47,137a2.15,2.15,0,0,1-.08,1.69,8.81,8.81,0,0,1-3.41,3.9,11.34,11.34,0,0,1-.21-1.18q-.26-2.9-.48-5.81a3.2,3.2,0,0,0-1.07-2.54,4.23,4.23,0,0,1-1.35-3,13,13,0,0,1,.32-4.07c.08-.32.14-.65.23-1.08-.77.42-1.43.82-2.13,1.15a21,21,0,0,1-2.09.81,1.44,1.44,0,0,0-1,.81,9.24,9.24,0,0,0-.88,4.07,3.08,3.08,0,0,0,1.64,2.87,3.61,3.61,0,0,1,.76.51c.45.38.56.79.31,1.17a.91.91,0,0,1-1.15.43,4.31,4.31,0,0,1-1.31-.77c-4.7-4.3-3.86-9.86-1.05-13.46,1.05-1.34,2-2.77,3-4.22l-.79-1.28c-.32.43-.57.73-.77,1.06a4.09,4.09,0,0,1-1.91,1.65,3,3,0,0,1-1.18.26c-.89,0-1.18-.39-1-1.24a4.79,4.79,0,0,1,.27-.89,5.55,5.55,0,0,0,0-3.42,1,1,0,0,0-.39-.56c-.58-.28-1.18-.48-1.74-.7-1.14,1.87-2.2,3.62-3.29,5.35a3.43,3.43,0,0,1-.85,1c-.66.46-1.21.16-1.25-.64-.1-2-.2-4.1-.27-6.14a5.19,5.19,0,0,1,3.05-4.27,7.29,7.29,0,0,1,4.83-.25c.81.26,1.6.6,2.38.93a4.62,4.62,0,0,1,2.09,1.77c1,1.47,2,2.93,3,4.42,1.49,2.28,2.3,4.88,3.4,7.34a5.39,5.39,0,0,1,.29,3.67,8.2,8.2,0,0,0,2,7.41A9.43,9.43,0,0,1,158.47,137Zm51.34-43.24a51,51,0,0,1,9-.1c1.4.09,2.79.18,4.19.24a4.5,4.5,0,0,1,3.56,1.93A6.33,6.33,0,0,1,228,98.22a3,3,0,0,1-.61.29l-.1,0-.13,0a1.53,1.53,0,0,1-1.52-.62c-.48-.53-1-1-1.46-1.58a2.73,2.73,0,0,0-2.78-.83l1,1.43c.63.86,1.24,1.71,1.86,2.55l.24.34c.61.91.56,1.1-.56,1.8a37.48,37.48,0,0,1-2.65-2.91,3.56,3.56,0,0,0-3.62-1.37c-.19.88-.39,1.75-.6,2.64a14.56,14.56,0,0,1,1.85-.15,2.16,2.16,0,0,1,1.09.44c.62.47,1.18,1,1.77,1.55.31.28.44.52.36.73l1-.32c.13.6-.27.68-.56.76-1,.32-2.09.67-3.15.88-.79.16-1.57.28-2.35.36l-.3,0-.66,0h-.05a33.5,33.5,0,0,1-9.55-.83,21.17,21.17,0,0,1-5.8-1.93c-1-.53-1.11-.89-.72-1.89,0,0,0,0,0,0,.14-.33.25-.67.37-1a3,3,0,0,1,1.36-1.74c1.62-.87,3.23-1.79,4.91-2.52A10.66,10.66,0,0,1,209.81,93.72Zm18.56,28.88c-.15.38-.33.75-.51,1.12a4.45,4.45,0,0,0-.12,3.87c.15.35.23.74.38,1.22-1-.13-1.11-.91-1.61-1.55-.78.09-1.66.17-2.52.31a1.51,1.51,0,0,0-.67.44q-5.67,5.13-11.31,10.27c-1.16,1.06-2.3,2.11-3.55,3.07.18-.23.35-.47.55-.69,4.4-4.81,8.75-9.69,13.26-14.42a51.9,51.9,0,0,1,5.28-4.37,3,3,0,0,1,.88-.35l.21.23C228.55,122,228.48,122.33,228.37,122.6ZM190.49,106c.53-.52,1.1-1,1.62-1.56a1.06,1.06,0,0,1,1.13-.22c2.3.38,4.6.77,6.91,1.12.45.08.91.15,1.36.21l.22,0c6.39.93,12.69,2.29,19,3.6a1.74,1.74,0,0,1,1.5,1.2c.15.51.18,1.07.36,1.57a3.28,3.28,0,0,1-1.09,3.77c-1.41,1.3-2.8,2.61-4.23,3.87-.72.64-1.44,1.26-2.16,1.89l-1.59,1.39-5.45,4.73c-.49.42-1,.85-1.62.68a6,6,0,0,1-4.13-1.46,43.34,43.34,0,0,1-4.55-5.14,56.8,56.8,0,0,1-7.11-11.58,6,6,0,0,1-.75-2.63A1.87,1.87,0,0,1,190.49,106Zm23.21-7a2.68,2.68,0,0,0,.47.18c.59.16,1,0,1.12-.37a1,1,0,0,0-.69-1.18,2.18,2.18,0,0,0-.49-.07c-.63,0-1,.21-1.07.56C212.93,98.65,213.34,98.81,213.7,99ZM205,98.41c-1.89.21-2.45.78-3,2.68l3.25,1,.17-.21C204.79,100.78,205.07,99.57,205,98.41Zm0,0c-1.89.21-2.45.78-3,2.68l3.25,1,.17-.21C204.79,100.78,205.07,99.57,205,98.41Zm9.56-.78a2.18,2.18,0,0,0-.49-.07c-.63,0-1,.21-1.07.56-.11.53.3.69.66.88a2.68,2.68,0,0,0,.47.18c.59.16,1,0,1.12-.37A1,1,0,0,0,214.6,97.63Zm0,0a2.18,2.18,0,0,0-.49-.07c-.63,0-1,.21-1.07.56-.11.53.3.69.66.88a2.68,2.68,0,0,0,.47.18c.59.16,1,0,1.12-.37A1,1,0,0,0,214.6,97.63Zm-9.56.78c-1.89.21-2.45.78-3,2.68l3.25,1,.17-.21C204.79,100.78,205.07,99.57,205,98.41Zm0,0c-1.89.21-2.45.78-3,2.68l3.25,1,.17-.21C204.79,100.78,205.07,99.57,205,98.41Zm9.56-.78a2.18,2.18,0,0,0-.49-.07c-.63,0-1,.21-1.07.56-.11.53.3.69.66.88a2.68,2.68,0,0,0,.47.18c.59.16,1,0,1.12-.37A1,1,0,0,0,214.6,97.63Zm0,0a2.18,2.18,0,0,0-.49-.07c-.63,0-1,.21-1.07.56-.11.53.3.69.66.88a2.68,2.68,0,0,0,.47.18c.59.16,1,0,1.12-.37A1,1,0,0,0,214.6,97.63Zm-9.56.78c-1.89.21-2.45.78-3,2.68l3.25,1,.17-.21C204.79,100.78,205.07,99.57,205,98.41Zm0,0c-1.89.21-2.45.78-3,2.68l3.25,1,.17-.21C204.79,100.78,205.07,99.57,205,98.41Zm9.56-.78a2.18,2.18,0,0,0-.49-.07c-.63,0-1,.21-1.07.56-.11.53.3.69.66.88a2.68,2.68,0,0,0,.47.18c.59.16,1,0,1.12-.37A1,1,0,0,0,214.6,97.63Zm0,0a2.18,2.18,0,0,0-.49-.07c-.63,0-1,.21-1.07.56-.11.53.3.69.66.88a2.68,2.68,0,0,0,.47.18c.59.16,1,0,1.12-.37A1,1,0,0,0,214.6,97.63Zm-9.56.78c-1.89.21-2.45.78-3,2.68l3.25,1,.17-.21C204.79,100.78,205.07,99.57,205,98.41Zm0,0c-1.89.21-2.45.78-3,2.68l3.25,1,.17-.21C204.79,100.78,205.07,99.57,205,98.41Zm9.56-.78a2.18,2.18,0,0,0-.49-.07c-.63,0-1,.21-1.07.56-.11.53.3.69.66.88a2.68,2.68,0,0,0,.47.18c.59.16,1,0,1.12-.37A1,1,0,0,0,214.6,97.63Zm0,0a2.18,2.18,0,0,0-.49-.07c-.63,0-1,.21-1.07.56-.11.53.3.69.66.88a2.68,2.68,0,0,0,.47.18c.59.16,1,0,1.12-.37A1,1,0,0,0,214.6,97.63Zm-9.56.78c-1.89.21-2.45.78-3,2.68l3.25,1,.17-.21C204.79,100.78,205.07,99.57,205,98.41Zm0,0c-1.89.21-2.45.78-3,2.68l3.25,1,.17-.21C204.79,100.78,205.07,99.57,205,98.41Zm9.56-.78a2.18,2.18,0,0,0-.49-.07c-.63,0-1,.21-1.07.56-.11.53.3.69.66.88a2.68,2.68,0,0,0,.47.18c.59.16,1,0,1.12-.37A1,1,0,0,0,214.6,97.63Zm0,0a2.18,2.18,0,0,0-.49-.07c-.63,0-1,.21-1.07.56-.11.53.3.69.66.88a2.68,2.68,0,0,0,.47.18c.59.16,1,0,1.12-.37A1,1,0,0,0,214.6,97.63Zm-9.56.78c-1.89.21-2.45.78-3,2.68l3.25,1,.17-.21C204.79,100.78,205.07,99.57,205,98.41Zm0,0c-1.89.21-2.45.78-3,2.68l3.25,1,.17-.21C204.79,100.78,205.07,99.57,205,98.41Zm9.56-.78a2.18,2.18,0,0,0-.49-.07c-.63,0-1,.21-1.07.56-.11.53.3.69.66.88a2.68,2.68,0,0,0,.47.18c.59.16,1,0,1.12-.37A1,1,0,0,0,214.6,97.63Zm14.94-11.74a.51.51,0,0,0,0-.13.8.8,0,0,0,0-.15,1.18,1.18,0,0,0-.07-.2,1.42,1.42,0,0,0-.08-.18h0a2.35,2.35,0,0,0-.24-.37,2.45,2.45,0,0,1-.62-.16l.69.9.39.5A1.23,1.23,0,0,0,229.54,85.89ZM214.6,97.63a2.18,2.18,0,0,0-.49-.07c-.63,0-1,.21-1.07.56-.11.53.3.69.66.88a2.68,2.68,0,0,0,.47.18c.59.16,1,0,1.12-.37A1,1,0,0,0,214.6,97.63Zm-9.56.78c-1.89.21-2.45.78-3,2.68l3.25,1,.17-.21C204.79,100.78,205.07,99.57,205,98.41Z"/><path class="cls-11" d="M250.73,102.61l-.9.35.95-.23A.73.73,0,0,1,250.73,102.61Zm7.85-3.86a.87.87,0,0,0-.92.71l.54-.56a2.43,2.43,0,0,0,.62,1.33.68.68,0,0,0,.52-.68A.81.81,0,0,0,258.58,98.75Zm5.66,1.15a2,2,0,0,0-.56-1.07,7.33,7.33,0,0,0-3.45-1.15,9.22,9.22,0,0,1,.57,3.28,14,14,0,0,1,3.59.26l.08,0C264.4,100.79,264.32,100.34,264.24,99.9ZM271,95.73c-.69-.22-1.4-.47-2.11-.69a34.07,34.07,0,0,0-7.4-1.61c-3-.19-5.93-.36-8.9-.57a1.35,1.35,0,0,0-1.41.76c-1.28,2.18-2.57,4.36-3.91,6.5a2.4,2.4,0,0,0-.2,2.51c.13.27.25.53.38.79a1.53,1.53,0,0,0,.85,0l.5-.15a2.47,2.47,0,0,1,.67-2.16,31.41,31.41,0,0,1,2.41-2c.5-.39,1.07-.7,1.57-1.15a2.74,2.74,0,0,0-1.77.4c-.44.26-.87.54-1.32.79a10.16,10.16,0,0,1-1,.4c.1-.36.09-.54.18-.64.83-.85,1.67-1.7,2.54-2.52a3.3,3.3,0,0,1,2.33-.88A34.69,34.69,0,0,1,264,96.64a7.32,7.32,0,0,1,2.3,1.3,3.21,3.21,0,0,1,.94,2.21c.17.82.21,1.66.31,2.51a2.23,2.23,0,0,1,1.55.8l.23.21A59.28,59.28,0,0,0,271,96.09,1.66,1.66,0,0,0,271,95.73ZM258.88,85.55a3,3,0,0,0-.33.28c-.28.31-.55.61-.84.91a.65.65,0,0,0,.57-.06c.6-.3,1.2-.63,1.81-.94Zm-6.69,2v.05l.05-.05ZM251,87.48c-1.07-.19-2.13-.45-3.19-.71a2.63,2.63,0,0,1-2-2c-.42-1.35-1-2.65-1.53-4l-.14,0c-.2,1.38-.49,2.76-.57,4.15v.14c-.09,1.65,0,3.32,0,5a1.77,1.77,0,0,0,.65,1.55,1,1,0,0,1,.26.62,8.81,8.81,0,0,1,.1,1.53,10.66,10.66,0,0,0,.15,2.33c.13.92.32,1.83.4,2.75a4.06,4.06,0,0,0,.27.88c0,.09.07.18.1.27l.11-.35a30.45,30.45,0,0,1,2.12-5.1,15.22,15.22,0,0,1,1.11-1.72,1.06,1.06,0,0,0,.2-.8,1.43,1.43,0,0,1-.12-.65,1.78,1.78,0,0,1,.25-.83C249.74,89.58,250.34,88.53,251,87.48Z"/><path class="cls-11" d="M205.63,207.24a3.06,3.06,0,0,1-.15.79c-2.28,6.52-4.55,13-6.86,19.53-.39,1.12-.85,2.21-1.31,3.3l-.13.1c-.87.65-1.12.65-1.73-.2-.37-.52-.76-1-1.16-1.5a26.94,26.94,0,0,0,1-7.21c.25-6.69.57-13.38.89-20.07a20.86,20.86,0,0,1,.41-3.35,1.21,1.21,0,0,1,0-.18q4.56,2.45,9,5.14C205.66,204.81,205.64,206,205.63,207.24Z"/><path class="cls-11" d="M248.16,62.82a49.82,49.82,0,0,1-3.89,12.35,27.08,27.08,0,0,1-.65-5.85,4,4,0,0,1,1.11-2.94c.88-1,1.68-2.06,2.52-3.09.18-.22.4-.41.6-.62Z"/><path class="cls-11" d="M259.29,106.64h3.23c.35-.54.7-1.08,1-1.62a1.3,1.3,0,0,1,1.25-.72c.22,0,.55,0,.66-.15a1.86,1.86,0,0,1,1.7-.68,3.22,3.22,0,0,0,.71-.15.87.87,0,0,1,.1,1.27c-.28.47-.61.9-.93,1.34-.45.6-.94,1.17-1.35,1.8a1.85,1.85,0,0,1-1.61.92c-1.22,0-2.44-.12-3.67-.19a.77.77,0,0,1-.74-.59C259.56,107.5,259.45,107.12,259.29,106.64Z"/><path class="cls-12" d="M238.18,186.64a1.41,1.41,0,0,0-.21,0c-2.33-.31-4.68-.55-7-.93a71.74,71.74,0,0,1-14-3.71c-2.71-1-5.49-1.89-8.21-2.91-2.08-.77-4.09-1.72-6.16-2.53A56.09,56.09,0,0,1,190,169.62a2.79,2.79,0,0,1-1-1.34c-4.15-11.18-8.23-22.38-11.39-33.89a5.83,5.83,0,0,1-.09-.78c.55.22,1,.44,1.44.57a46,46,0,0,0,4.74,1.26c2.08.35,3.05-.81,2.48-2.82-.34-1.22-.81-2.39-1.22-3.59a19.26,19.26,0,0,0-3.17-6c-1.67-2.11-3.28-4.29-4.8-6.51-2.26-3.31-4.45-6.65-7-9.75a8,8,0,0,1-1.6-3c-.24-.88-.65-1.72-.93-2.6s-.51-1.63-.76-2.45c-.23,1.92-.46,3.85-.66,5.77-.07.64-.14,1.27-.2,1.91-.36,3.78-.58,7.57-.88,11.35-.07.94-.22,1.87-.34,2.86a5.14,5.14,0,0,1-.7-.17c-2.73-1-2.35-.39-3.8-3.41-1-2.09-2.09-4.14-3.16-6.21-.45-.88-.94-1.74-1.44-2.6a3.27,3.27,0,0,0-.72-1,12,12,0,0,0-2.12-1.43c-2.4-1.15-4.85-2.21-7.26-3.33a3.56,3.56,0,0,0-3.77.41c-.13.09-.18.3-.31.55l1.12.13c.74.08,1.49.14,2.23.27a25.32,25.32,0,0,1,8.48,3.49,4.81,4.81,0,0,1,1.84,2.08c-1,.39-1.34.39-1.94-.11a16.48,16.48,0,0,0-7.45-3.47,37.79,37.79,0,0,0-7.13-.69,2,2,0,0,0-1.8,1,6.18,6.18,0,0,0-.37.61,44.59,44.59,0,0,0-3.08,6.7q-.24.64-.42,1.29a9,9,0,0,0-.08,4.81,5,5,0,0,0,.16.51c.76,2.2,1.61,4.36,2.31,6.57,1.32,4.15,3.34,8,5,12,.06.13.13.24.18.37a9,9,0,0,0,3.47,3.94,73.28,73.28,0,0,1,8.88,6.93c.79.75,1.66,1.43,2.5,2.12a3.1,3.1,0,0,0,3.56.21,2.75,2.75,0,0,0,1.49-2.61c.16-2,.37-4,.54-5.92a3.1,3.1,0,0,0-.06-.91,75.43,75.43,0,0,0-2.8-11.86,3.85,3.85,0,0,1-.2-1c0-.32.18-.49.5-.5a1.14,1.14,0,0,1,1.22.75c.32.79.57,1.62.93,2.39a54.58,54.58,0,0,1,3.12,9.21c2.12,7.68,4.22,15.36,6.36,23a7.17,7.17,0,0,0,2.84,4,46.75,46.75,0,0,0,11.17,5.76c3.88,1.39,7.83,2.61,11.75,3.9,1.64.54,3.29,1.1,5,1.59,4.57,1.34,9.15,2.69,13.75,4,2.66.73,5.36,1.36,8.06,1.94a41.93,41.93,0,0,0,10.86,1.3l1.34-.07,1.11-.07.73-.06.85-.06,1.34-.11C238.52,186.76,238.33,186.71,238.18,186.64Zm-91.17-46c-.29.31-.73.31-1.19-.08a28.45,28.45,0,0,1-6.67-7.71,5.81,5.81,0,0,1-.57-2.27c-.18-1.79-.27-3.6-.39-5.4h.08c0-1,0-2.05,0-3.07a4.47,4.47,0,0,1,.08-.82.61.61,0,0,1,.62-.57.59.59,0,0,1,.67.5,12.41,12.41,0,0,1,.22,1.92c0,1.5,0,3,0,4.51a13.14,13.14,0,0,0,.74,4.22,6.27,6.27,0,0,0,.74,1.46,24,24,0,0,0,4.33,4.9,14.28,14.28,0,0,1,1.24,1.22A.83.83,0,0,1,147,140.65ZM158.47,137a2.15,2.15,0,0,1-.08,1.69,8.81,8.81,0,0,1-3.41,3.9,11.34,11.34,0,0,1-.21-1.18q-.26-2.9-.48-5.81a3.2,3.2,0,0,0-1.07-2.54,4.23,4.23,0,0,1-1.35-3,13,13,0,0,1,.32-4.07c.08-.32.14-.65.23-1.08-.77.42-1.43.82-2.13,1.15a21,21,0,0,1-2.09.81,1.44,1.44,0,0,0-1,.81,9.24,9.24,0,0,0-.88,4.07,3.08,3.08,0,0,0,1.64,2.87,3.61,3.61,0,0,1,.76.51c.45.38.56.79.31,1.17a.91.91,0,0,1-1.15.43,4.31,4.31,0,0,1-1.31-.77c-4.7-4.3-3.86-9.86-1.05-13.46,1.05-1.34,2-2.77,3-4.22l-.79-1.28c-.32.43-.57.73-.77,1.06a4.09,4.09,0,0,1-1.91,1.65,3,3,0,0,1-1.18.26c-.89,0-1.18-.39-1-1.24a4.79,4.79,0,0,1,.27-.89,5.55,5.55,0,0,0,0-3.42,1,1,0,0,0-.39-.56c-.58-.28-1.18-.48-1.74-.7-1.14,1.87-2.2,3.62-3.29,5.35a3.43,3.43,0,0,1-.85,1c-.66.46-1.21.16-1.25-.64-.1-2-.2-4.1-.27-6.14a5.19,5.19,0,0,1,3.05-4.27,7.29,7.29,0,0,1,4.83-.25c.81.26,1.6.6,2.38.93a4.62,4.62,0,0,1,2.09,1.77c1,1.47,2,2.93,3,4.42,1.49,2.28,2.3,4.88,3.4,7.34a5.39,5.39,0,0,1,.29,3.67,8.2,8.2,0,0,0,2,7.41A9.43,9.43,0,0,1,158.47,137Z"/><path class="cls-12" d="M207.16,204.09a145.49,145.49,0,0,0-3.83,20.17c-.15,1.2-.28,2.39-.38,3.59L199,229.7a11.12,11.12,0,0,0-1.73,1.16l-.13.1c-.87.65-1.12.65-1.73-.2-.37-.52-.76-1-1.16-1.5a27.63,27.63,0,0,0-6.68-5.92c-3.27-2.06-6.44-4.27-9.67-6.38a1.66,1.66,0,0,1-.8-1.21q-1.86-10.45-3.74-20.89l-1.53-8.47c0-.19-.05-.39-.1-.73.67.36,1.25.62,1.78,1a76.12,76.12,0,0,0,12.28,6.55q5.52,2.43,10.83,5.27,4.56,2.45,9,5.14l.48.29A1.31,1.31,0,0,0,207.16,204.09Z"/><path class="cls-12" d="M224.18,96.37c.46.55,1,1,1.46,1.58a14.76,14.76,0,0,0-3.2-1l-1-1.43A2.73,2.73,0,0,1,224.18,96.37Z"/><path class="cls-12" d="M229.56,86.09l-.39-.5a.74.74,0,0,1,.17-.37A2,2,0,0,1,229.56,86.09Z"/><path class="cls-12" d="M246.35,122.39a6.79,6.79,0,0,1-1.63.19,62,62,0,0,0-7.46.41,6.52,6.52,0,0,1-4.69-1.09c-.4-.26-.82-.49-1.23-.73a1.37,1.37,0,0,1-.83-1.77c.32-1.47.66-2.94,1.1-4.37.91-3,1.87-6,2.85-9a1.83,1.83,0,0,0-.33-2c-1-1.25-2-2.54-2.92-3.84a1.86,1.86,0,0,0-1.07-.67c-1-.32-2-.64-3-1a2.84,2.84,0,0,0,.84-.35,6.33,6.33,0,0,0-1.44-2.43A4.5,4.5,0,0,0,223,93.86c-1.4-.06-2.79-.15-4.19-.24a51,51,0,0,0-9,.1,10.66,10.66,0,0,0-3.09.67c-1.68.73-3.29,1.65-4.91,2.52a3,3,0,0,0-1.36,1.74c-.12.34-.23.68-.37,1-.3-.13-.47,0-.59.31a1.21,1.21,0,0,1-.67-1.18,17,17,0,0,1,.28-2c.06-.3.22-.53.05-.86s0-.8.44-1a7.34,7.34,0,0,1,1.32-.55c1.17-.38,2.34-.76,3.53-1a3.07,3.07,0,0,0,1.83-1.2,19.35,19.35,0,0,1,3.09-3.3h0a13.43,13.43,0,0,1,4.15.08c2.92.58,5.84,1.13,8.73,1.81A52.72,52.72,0,0,0,230.43,92c.92.07,1.12-.15.9-1-.12-.51-.26-1-.45-1.79a4.09,4.09,0,0,1,.41.5c.54.82,1.07,1.66,1.61,2.49a1.11,1.11,0,0,0,1.35.41c.52-.18.45-.6.4-1s-.08-.87-.1-1.31a7.46,7.46,0,0,0-1.35-4c0,.64.06,1.12.09,1.61a1.89,1.89,0,0,1-.59-.73,11.88,11.88,0,0,0-1-1.63c-.13-.15-.26-.29-.4-.43a10.55,10.55,0,0,1,4,2.08,5.94,5.94,0,0,1,1.49,2.16c.9,2.21,1.68,4.48,2.5,6.72l.2.59L247.62,118c.13.33.25.64.39.95A2.3,2.3,0,0,1,246.35,122.39Z"/><path class="cls-12" d="M256.74,160.3a9.16,9.16,0,0,1-.24,1.63,19.52,19.52,0,0,1-2.3,6.19,13.33,13.33,0,0,1-.88,1.25c-.12.1-.43,0-.62-.06-1.48-.65-2.94-1.31-4.4-2a13.34,13.34,0,0,0-7.94-.7c-3.62.65-7.05,1.52-10.66,2.25a3.6,3.6,0,0,1-1.35,0,8.21,8.21,0,0,1-1.43-.86c-2-1.35-3.89-2.76-5.92-4.09a6.12,6.12,0,0,1-2-2.25,3.92,3.92,0,0,1-.42-1.14c-.21-1.19.27-1.81,1.46-1.78,2.59,0,5.19.17,7.77.29,3,.14,6,.34,9,.19.53,0,1.05-.05,1.58-.06a6.92,6.92,0,0,1,1,0h-.11a90.75,90.75,0,0,1,10.81.37,14.68,14.68,0,0,0,5.28-.31C256.37,158.89,256.8,159.27,256.74,160.3Z"/><path class="cls-12" d="M218.5,152.35l-1.43.08-.48,0-1.42.06c-.27,0-.55,0-.83,0a.93.93,0,0,0,.38.16,2.76,2.76,0,0,0,.81.09c.58,0,1.16-.09,1.73-.17l1.7-.26Zm39-.52c-.87-.76-1.75-1.51-2.64-2.26l-2.43-2a3.79,3.79,0,0,0-3.13-1c-1.55.25-3.09.56-4.61.93a1.46,1.46,0,0,1-1.24-.14c-.44-.24-.88-.48-1.33-.71h0l-1.4-.67a6.13,6.13,0,0,0-4.47-.47c-.55.18-1.13.26-1.69.4-4.89,1.28-9.78,2.55-14.67,3.86-1.44.38-2.88.82-4.32,1.24l0,.06a8.1,8.1,0,0,0,2.7-.05c3.27-.74,6.51-1.55,9.78-2.22a51,51,0,0,1,7.86-1.41,11.69,11.69,0,0,1,6,1.15,5.45,5.45,0,0,0,3.67.43c1.31-.25,2.62-.49,3.93-.7a4.26,4.26,0,0,1,3.71,1.35l1.34,1.26.38.35a2.79,2.79,0,0,0,2.68.66Zm.57.83h0v0h0Z"/><path class="cls-12" d="M223.53,121.44c-1,.3-2,.62-3,.89a17.8,17.8,0,0,1-7.61.5,11.51,11.51,0,0,1-6-2.82,8.27,8.27,0,0,1-1.61-2A44.76,44.76,0,0,1,199.84,104c0-.2-.11-.39-.18-.63-2.64-.53-5.34-.69-7.92-1.65l1.24-.08a30.44,30.44,0,0,1,6.32.47,4.4,4.4,0,0,1,1.07.32c.64.28.69.46.61,1.24a1.53,1.53,0,0,0,.1.59,61.33,61.33,0,0,0,5.42,13,8.23,8.23,0,0,0,4.13,3.37,14.19,14.19,0,0,0,6.64.88c2.08-.13,4.15-.19,6.23-.28Z"/><path class="cls-12" d="M250.14,92.32a3.49,3.49,0,0,1-.54.6c-.39.27-.77.51-.85,1.06a.71.71,0,0,1-.46.48,2,2,0,0,0-1.28.74,1,1,0,0,1-.64.28,1.13,1.13,0,0,0-1.09.52c-.3.41-.88.22-1-.3a4.16,4.16,0,0,1-.22-1.51,2,2,0,0,0-.37-1.43l-.06-.08a5,5,0,0,1-.81-4.36,15.39,15.39,0,0,0,.2-1.93,5.14,5.14,0,0,1,.41-1.71c.05.24.12.48.16.72a5.91,5.91,0,0,0,1.24,2.76C246.23,90,248.23,91,250.14,92.32Z"/><path class="cls-12" d="M218,108.52l-1.6-3.36c.42-.07.75-.15,1.08-.18,1.42-.16,2.84-.3,4.27-.44a2.27,2.27,0,0,0,1.44-.7c.35-.37.7-.75,1.06-1.1s.69-.49,1.12,0c.58.61,1.08,1.3,1.61,2a6.41,6.41,0,0,1-2.24,2.32c-.24.19-.55.3-.77.5a4.36,4.36,0,0,1-3.32,1C219.74,108.48,218.86,108.52,218,108.52Z"/><path class="cls-12" d="M269.46,117.94a8.11,8.11,0,0,1-3.31,1.58c-1.75.44-3.52.84-5.29,1.17a8.13,8.13,0,0,1-6.71-1.82,3.57,3.57,0,0,1-.91-1.19.89.89,0,0,1,.21-.79c.26-.25.57-.08.8.18a7.35,7.35,0,0,0,6.86,2.33c2.7-.4,5.37-1,8.05-1.44A1.51,1.51,0,0,1,269.46,117.94Z"/><path class="cls-12" d="M217.55,147.18l-1.56,2h0a6,6,0,0,0-3.93,2,.45.45,0,0,0,0,.72l.12.1-.1.11a4,4,0,0,1-.46.54.86.86,0,0,1-1.35-.95,2.88,2.88,0,0,1,.4-.7,7,7,0,0,1,2.67-2.16L217,147.2l.45-.17Z"/><path class="cls-12" d="M219.88,76.11c-.91-.54-1.7-1-2.45-1.47a1.12,1.12,0,0,1-.53-1.24c.3-1.25.62-2.5.95-3.74a2.87,2.87,0,0,1,.22-.47c.33.83.58,1.41.79,2,.32.86.59,1.73.91,2.59A4.05,4.05,0,0,1,219.88,76.11Z"/><path class="cls-12" d="M258.08,152.66h0l0,0h0Z"/><path class="cls-12" d="M260.05,154.08c-.49.16-.85,0-1.27-.59l-.14-.17.7-.09a3.52,3.52,0,0,0,.52-.19,2.56,2.56,0,0,0-1.18-2.16c-.09-.37-.18-.73-.26-1.09-.12-.52-.21-1-.31-1.55l.19-.08a4,4,0,0,1,.41.51c.6,1,1.21,2,1.77,3a2.85,2.85,0,0,1,.31,1.15A1.08,1.08,0,0,1,260.05,154.08Z"/><path class="cls-13" d="M217.14,104.27l-1,.09"/><polygon class="cls-12" points="217.16 103.96 217.16 103.96 217.16 103.96 217.16 103.96"/><polygon class="cls-12" points="217.16 103.96 217.17 103.96 217.16 103.96 217.16 103.96"/><path d="M280.05,91.9a2.18,2.18,0,0,0-1.69-1c-2-.18-4-.26-6.06-.3-2.32-.05-4.63,0-7,0-3,0-6,0-9,.23a17.64,17.64,0,0,0-7.38,1.8,10.53,10.53,0,0,0-1.66,1.09,1.75,1.75,0,0,1-.84.31,70.19,70.19,0,0,1-9.94.26,2.05,2.05,0,0,1-1.26-.56c-.46-.37-.92-.75-1.41-1.08h0a8.42,8.42,0,0,0-1-.6h0c-.47-.22-.94-.43-1.42-.62a21.77,21.77,0,0,0-2.31-.8A86.92,86.92,0,0,0,213,87.55a24.86,24.86,0,0,0-9.91,1c-1.65.54-3.31,1-5,1.5h0q-2.92.83-5.86,1.54c-7.66,1.88-15.36,3.61-23,5.45l-2.38.58c-7,1.68-13.89,3.4-20.82,5.1l-3.41.84h-.07a5.8,5.8,0,0,0-.69.27c0,.07,0,.14,0,.22l1.2-.1c0,.73.47.9,1.06.93s1.08,0,1.63,0,1-.1,1.63-.16a1.63,1.63,0,0,0,1.71,1.33c.55,0,1.17-.06,1.51.58,0,.06.26.06.39,0l.82-.1.19,0,1.52-.24,11.24-1.77,1.27-.2,11.49-1.76q6.54-1,13.09-1.88a5.6,5.6,0,0,1,1.73.06c2.56.43,5.11.91,7.67,1.35.62.1.79.4.92,1,.67,3,1.39,6,2.14,9a9.85,9.85,0,0,0,2.13,4c.53.63,1.07,1.25,1.56,1.91a9.56,9.56,0,0,0,6,3.68,32.13,32.13,0,0,0,7.95.65A14.89,14.89,0,0,0,230.93,118a21.76,21.76,0,0,0,4.48-6.82c1.08-2.51,2.19-5,3.28-7.52a2.79,2.79,0,0,1,1.19-1.35,4.22,4.22,0,0,1,4.39,0,5.46,5.46,0,0,1,1.85,1.72c.15.19.28.39.42.59.31.45.66.87,1,1.3s.68.84,1,1.25a2.94,2.94,0,0,0-.25-1,3.9,3.9,0,0,1-.25-1.19s0-.1,0-.16a12.41,12.41,0,0,1,1.36-5.71l.08-.15a1,1,0,0,0,.08-.14c1.81-3,2.29-3.79,6.71-4.25,1.19-.12,2.39-.21,3.58-.3,1.78-.13,3.56-.2,5.33-.17a58.1,58.1,0,0,1,6.84.49,1.57,1.57,0,0,1,.43.09,2.32,2.32,0,0,1,1.43,1,7.31,7.31,0,0,1,.84,1.52c.44,1.33.81,2.68,1.16,4a9.5,9.5,0,0,1-.19,5.36,31.28,31.28,0,0,1-2.67,6.86,18.08,18.08,0,0,1-2.32,3.09,9.84,9.84,0,0,1-.82.76,10.14,10.14,0,0,1-3.79,2c-4.16,1.19-8.1,1-11.52-2a.87.87,0,0,0-.15-.13,4.67,4.67,0,0,1-.84-.59,8.19,8.19,0,0,1-2-2.92,3.82,3.82,0,0,0-.29-.48c.08.35.16.71.26,1.06h0c.3.73.57,1.47.82,2.22.16.48.29,1,.42,1.44a2.93,2.93,0,0,0,.34.43,9.89,9.89,0,0,0,6.16,3.17,14.51,14.51,0,0,0,11.05-2.39c.28-.21.57-.43.84-.66a13.89,13.89,0,0,0,3.07-3.69,54.8,54.8,0,0,0,3.83-8A75.24,75.24,0,0,0,281,97.45,6.42,6.42,0,0,0,280.05,91.9Zm-48.54,22.33a10.83,10.83,0,0,1-4.44,4.43,11.6,11.6,0,0,1-5.14,1.56,50.1,50.1,0,0,1-8.57-.76,7.51,7.51,0,0,1-3.66-2.17,15.43,15.43,0,0,1-3.16-4.14,3.66,3.66,0,0,1-.33-.85c-.65-2.41-1.3-4.82-1.92-7.23a17.38,17.38,0,0,1-.43-2.22c-.05-.41-.09-.83-.12-1.24a25.69,25.69,0,0,1,0-2.91c0-.93.12-1.86.23-2.8a.77.77,0,0,1,0-.15,10.09,10.09,0,0,1,.68-2.19,1.87,1.87,0,0,1,1.56-1.17,79.7,79.7,0,0,1,8.47-.89c1.66.18,3.33.31,5,.54s3.16.54,4.75.81a17.71,17.71,0,0,1,4.89,1.47,10,10,0,0,1,4.92,4.61,6.5,6.5,0,0,1,.64,2.66A25,25,0,0,1,231.51,114.23Z"/><path class="cls-4" d="M215.29,98.81c-.15.4-.53.53-1.12.37a2.68,2.68,0,0,1-.47-.18c-.36-.19-.77-.35-.66-.88.07-.35.44-.55,1.07-.56a2.18,2.18,0,0,1,.49.07A1,1,0,0,1,215.29,98.81Z"/><path class="cls-4" d="M259.34,99.55a.68.68,0,0,1-.52.68.86.86,0,0,1-.28,0,.8.8,0,0,1-.88-.77v0a.87.87,0,0,1,.92-.71A.81.81,0,0,1,259.34,99.55Z"/><polygon class="cls-14" points="19.82 343.77 59.08 343.77 59.08 306.49 19.82 306.49 26.36 325.13 19.82 343.77"/><polygon class="cls-14" points="386.29 306.49 347.03 306.49 347.03 343.77 386.29 343.77 379.75 325.13 386.29 306.49"/><rect class="cls-14" x="51.15" y="293.65" width="303.81" height="42.04"/><text class="cls-15" transform="translate(125.4 321.49)"><tspan class="cls-16">V</tspan><tspan x="12.9" y="0">i</tspan><tspan class="cls-17" x="18.47" y="0">c</tspan><tspan class="cls-18" x="29.44" y="0">t</tspan><tspan x="37.17" y="0">or Glushk</tspan><tspan class="cls-19" x="130.95" y="0">o</tspan><tspan class="cls-20" x="143.85" y="0">v</tspan></text></g></g></svg>