<svg xmlns="http://www.w3.org/2000/svg" xmlns:xlink="http://www.w3.org/1999/xlink" width="283" height="35.196" viewBox="0 0 283 35.196">
  <defs>
    <clipPath id="clip-path">
      <rect id="Rectangle_8" data-name="Rectangle 8" width="40" height="35.196" transform="translate(0 0.001)" fill="none"/>
    </clipPath>
  </defs>
  <g id="Group_5" data-name="Group 5" transform="translate(-21 -7.402)">
    <text id="Robonomics_network" data-name="Robonomics network" transform="translate(66 34)" font-size="20" font-family="Roboto-Regular, Roboto" letter-spacing="0.03em"><tspan x="0" y="0">ROBONOMICS NETWORK</tspan></text>
    <g id="Group_25" data-name="Group 25" transform="translate(21 7.401)">
      <path id="Path_31" data-name="Path 31" d="M20.272,1.211,1.3,34.071H39.247Z" fill="none" stroke="#201600" stroke-miterlimit="10" stroke-width="0.4"/>
      <g id="Group_24" data-name="Group 24">
        <g id="Group_23" data-name="Group 23" clip-path="url(#clip-path)">
          <path id="Path_32" data-name="Path 32" d="M38.087,32.636a1.337,1.337,0,1,1-.631,1.783,1.337,1.337,0,0,1,.631-1.783" fill="#201600"/>
          <path id="Path_33" data-name="Path 33" d="M20.3,0a1.337,1.337,0,1,1-1.337,1.337A1.338,1.338,0,0,1,20.3,0" fill="#201600"/>
          <path id="Path_34" data-name="Path 34" d="M1.337,32.523A1.337,1.337,0,1,1,0,33.86a1.338,1.338,0,0,1,1.337-1.337" fill="#201600"/>
          <path id="Path_35" data-name="Path 35" d="M12.182,28.232H28.706l-8.262-4.36Z"/>
          <path id="Path_36" data-name="Path 36" d="M20.118,13.176l-8.4,14.564,8.422-4.434Z"/>
          <path id="Path_37" data-name="Path 37" d="M29.169,27.723l-8.388-14.53.069,10.056Z"/>
        </g>
      </g>
    </g>
  </g>
</svg>
