<?xml version="1.0" encoding="utf-8"?>
<!-- Generator: Adobe Illustrator 24.0.1, SVG Export Plug-In . SVG Version: 6.00 Build 0)  -->
<svg version="1.1" id="Layer_1" xmlns="http://www.w3.org/2000/svg" xmlns:xlink="http://www.w3.org/1999/xlink" x="0px" y="0px"
	 width="24.9px" height="23.1px" viewBox="0 0 24.9 23.1" style="enable-background:new 0 0 24.9 23.1;" xml:space="preserve">
<style type="text/css">
	.st0{fill:#FFFFFF;stroke:#1D1D1B;stroke-linecap:round;stroke-linejoin:round;stroke-miterlimit:10;}
	.st1{fill:none;stroke:#1D1D1B;stroke-linecap:round;stroke-linejoin:round;stroke-miterlimit:10;}
</style>
<g id="Group_2234" transform="translate(0.503 0.503)">
	<path id="Path_1821" class="st0" d="M22.3,2.2L22.3,2.2c-2.1-2.5-5.8-2.8-8.2-0.7c0,0,0,0,0,0l-11.8,10c-2.5,2.1-2.8,5.8-0.7,8.2
		c0,0,0,0,0,0l0,0c2.1,2.5,5.8,2.8,8.2,0.7c0,0,0,0,0,0l11.8-10C24.1,8.4,24.4,4.7,22.3,2.2C22.3,2.2,22.3,2.2,22.3,2.2z"/>
	<line id="Line_414" class="st1" x1="7.1" y1="15" x2="16.8" y2="6.9"/>
</g>
</svg>
