<?xml version="1.0" encoding="utf-8"?>
<!-- Generator: Adobe Illustrator 24.0.1, SVG Export Plug-In . SVG Version: 6.00 Build 0)  -->
<svg version="1.1" id="Layer_1" xmlns="http://www.w3.org/2000/svg" xmlns:xlink="http://www.w3.org/1999/xlink" x="0px" y="0px"
	 width="59.6px" height="37.5px" viewBox="0 0 59.6 37.5" style="enable-background:new 0 0 59.6 37.5;" xml:space="preserve">
<style type="text/css">
	.st0{fill:#FFFFFF;stroke:#1D1D1B;stroke-linecap:round;stroke-linejoin:round;stroke-miterlimit:10;}
</style>
<path id="Path_1819" class="st0" d="M58.4,13.3l-2.7-7.9c-1.2-3.5-5-5.4-8.6-4.2c0,0,0,0-0.1,0L5.4,15.6c-3.5,1.2-5.4,5-4.2,8.6
	c0,0,0,0,0,0.1l2.7,7.9c1.2,3.5,5,5.4,8.6,4.2c0,0,0,0,0.1,0l41.7-14.3c3.5-1.2,5.4-5,4.2-8.5C58.4,13.4,58.4,13.3,58.4,13.3z"/>
</svg>
