<?xml version="1.0" encoding="utf-8"?>
<!-- Generator: Adobe Illustrator 24.0.1, SVG Export Plug-In . SVG Version: 6.00 Build 0)  -->
<svg version="1.1" id="Layer_1" xmlns="http://www.w3.org/2000/svg" xmlns:xlink="http://www.w3.org/1999/xlink" x="0px" y="0px"
	 width="25.5px" height="76.3px" viewBox="0 0 25.5 76.3" style="enable-background:new 0 0 25.5 76.3;" xml:space="preserve">
<style type="text/css">
	.st0{fill:#FFFFFF;stroke:#1D1D1B;stroke-linecap:round;stroke-linejoin:round;stroke-miterlimit:10;}
</style>
<path id="Path_1816" class="st0" d="M18.9,1L9.3,0.6C5.9,0.5,3,3.2,2.9,6.5c0,0,0,0,0,0.1L0.6,69c-0.1,3.4,2.5,6.2,5.9,6.3
	c0,0,0,0,0.1,0l9.7,0.4c3.4,0.1,6.2-2.5,6.3-5.9c0,0,0,0,0-0.1l2.3-62.3C25,4,22.4,1.1,18.9,1C19,1,18.9,1,18.9,1z"/>
</svg>
