<?xml version="1.0" encoding="utf-8"?>
<!-- Generator: Adobe Illustrator 24.0.1, SVG Export Plug-In . SVG Version: 6.00 Build 0)  -->
<svg version="1.1" id="Layer_1" xmlns="http://www.w3.org/2000/svg" xmlns:xlink="http://www.w3.org/1999/xlink" x="0px" y="0px"
	 width="208.1px" height="153.9px" viewBox="0 0 208.1 153.9" style="enable-background:new 0 0 208.1 153.9;" xml:space="preserve"
	>
<style type="text/css">
	.st0{fill:#FFFFFF;stroke:#1D1D1B;stroke-miterlimit:10;}
</style>
<path class="st0" d="M188.9,28.1c-0.6,4.3-4.5,7.3-8.6,6.8s-7.1-4.5-6.5-8.8s4.5-7.3,8.6-6.8C186.6,19.8,189.5,23.8,188.9,28.1z
	 M195.5,48.9L38.8,149.4c-0.4,0.2-0.7,0.5-1.1,0.7c-11.7,6.7-26.7,2.7-33.4-9c-7.2-12.3-3.5-28.2,8.4-36.1L169.4,4.5
	c0.3-0.2,0.7-0.4,1.1-0.6c11.7-6.8,26.7-2.7,33.5,9C211.1,25.1,207.3,41.3,195.5,48.9z M183.5,11.9c-8.1-1.1-15.5,4.7-16.7,13.1
	s4.4,16,12.5,17.1s15.5-4.7,16.7-13.1S191.5,13.1,183.5,11.9z"/>
</svg>
