<?xml version="1.0" encoding="utf-8"?>
<!-- Generator: Adobe Illustrator 24.0.1, SVG Export Plug-In . SVG Version: 6.00 Build 0)  -->
<svg version="1.1" id="Layer_1" xmlns="http://www.w3.org/2000/svg" xmlns:xlink="http://www.w3.org/1999/xlink" x="0px" y="0px"
	 width="59.4px" height="38.1px" viewBox="0 0 59.4 38.1" style="enable-background:new 0 0 59.4 38.1;" xml:space="preserve">
<style type="text/css">
	.st0{fill:#FFFFFF;stroke:#1D1D1B;stroke-linecap:round;stroke-linejoin:round;stroke-miterlimit:10;}
</style>
<path id="Path_1815" class="st0" d="M58.2,13.2l-2.8-7.9c-1.3-3.5-5.2-5.4-8.8-4.1c0,0,0,0,0,0l-41.4,15c-3.5,1.3-5.4,5.2-4.1,8.8
	c0,0,0,0,0,0L4,32.8c1.3,3.5,5.2,5.4,8.8,4.1c0,0,0,0,0,0l41.4-15C57.7,20.6,59.5,16.7,58.2,13.2C58.2,13.2,58.2,13.2,58.2,13.2z"/>
</svg>
