<svg id="Group_4823" data-name="Group 4823" xmlns="http://www.w3.org/2000/svg" xmlns:xlink="http://www.w3.org/1999/xlink" width="128.87" height="67.273" viewBox="0 0 128.87 67.273">
  <defs>
    <clipPath id="clip-path">
      <rect id="Rectangle_1707" data-name="Rectangle 1707" width="128.87" height="67.273" fill="none"/>
    </clipPath>
  </defs>
  <g id="Group_4822" data-name="Group 4822" transform="translate(0 0)" clip-path="url(#clip-path)">
    <path id="Path_8336" data-name="Path 8336" d="M117.378,78.627c-.842-5.908-3.055-10.166-8.543-13.032a23.343,23.343,0,0,0-18.158-1.183c-6.9,2.19-13,6.249-19.377,9.57-4.244,2.209-10.1,5.655-15.044,3.706-5.429-2.143-4.085-9.291-4.59-13.887-.784-7.148-3.51-14.73-10.216-18.295-6.125-3.257-12.016-1.643-16.5,3.311-3.05,3.366-5.515,7.714-9.54,10.05A9.084,9.084,0,0,1,3.815,56.944C.31,52.791-.112,46.534.02,41.349a1.219,1.219,0,0,1,2.436,0c-.127,4.95.1,12.664,4.971,15.542,5.315,3.137,9.785-2.463,12.752-6.122,2.926-3.61,6.015-7.618,10.694-8.945,5-1.419,10.478.253,14.472,3.4,4.383,3.45,6.833,8.742,7.971,14.1a52.5,52.5,0,0,1,.973,9.212c.058,1.749-.086,3.806.876,5.354,1.553,2.5,4.686,2.214,7.108,1.552C74.667,72.052,84.44,61.122,97.919,60.974a23.852,23.852,0,0,1,14.768,4.953c3.684,2.906,6.975,7.9,5.286,12.7-.089.254-.548.33-.595,0" transform="translate(10.442 -13.749)"/>
    <path id="Path_8337" data-name="Path 8337" d="M114.1,78.009c-5.84-9.5-17.7-14.065-28.49-11.463-6.085,1.467-9.85,5.435-14.392,9.407-3.589,3.139-7.955,5.635-12.865,4.3C45.607,76.784,46.524,60.771,42.567,51.035c-2.52-6.2-10.15-12.946-16.663-7.548-4.3,3.567-5.462,9.6-9.62,13.306-3.1,2.759-8.357,5.053-12.157,2.289-2.036-1.48-2.7-3.857-3.024-6.233C.578,48.994-.112,44.7.2,40.822a1.077,1.077,0,0,1,2.1-.285c1.29,4.709-.819,18.3,6.926,17.1,6.183-.953,8.441-7.289,11.44-11.844,2.536-3.85,6.136-7.078,11.043-6.773,4.957.308,9.256,4.041,11.707,8.139,3.332,5.569,3.61,12.354,5.371,18.464,1.691,5.867,6.166,13.266,13.252,12.6,6.105-.572,9.91-6.8,14.6-10.058a24.98,24.98,0,0,1,12.7-4.266c10.172-.622,20.865,4.356,25.563,13.631a.471.471,0,0,1-.812.475" transform="translate(13.82 -13.349)"/>
    <path id="Path_8338" data-name="Path 8338" d="M172.616,50.41c-.979-4.859-2.043-10.8-1.125-15.71a.776.776,0,0,1,1.486,0,57.043,57.043,0,0,1,.351,7.3c.132,2.75.364,5.492.56,8.238a.651.651,0,0,1-1.272.172" transform="translate(-157.588 -11.687)"/>
    <path id="Path_8339" data-name="Path 8339" d="M175.872,46.1c-.226-7.71-.7-15.533-.332-23.24a.879.879,0,0,1,1.758,0c.372,7.708-.105,15.53-.331,23.24a.548.548,0,0,1-1.094,0" transform="translate(-163.937 -7.533)"/>
    <path id="Path_8340" data-name="Path 8340" d="M174.279,41.46c.063-7.3.006-14.622.236-21.923a.856.856,0,0,1,1.711,0c-.123,7.308-.533,14.619-.822,21.923a.563.563,0,0,1-1.125,0" transform="translate(-161.988 -6.404)"/>
    <path id="Path_8341" data-name="Path 8341" d="M171.447,47.577a160.482,160.482,0,0,1-2.528-33.514,1.142,1.142,0,0,1,2.282,0,234.993,234.993,0,0,0,1.5,33.343c.087.71-1.132.879-1.256.17" transform="translate(-154.886 -4.436)"/>
    <path id="Path_8342" data-name="Path 8342" d="M180.811,22.139a90.563,90.563,0,0,0-6.778-15.058h2.156A87.154,87.154,0,0,1,163.62,26.828c-1.123,1.291-2.809-.353-2.2-1.7,2.2-4.891,4.559-9.71,7.105-14.434,1.128-2.093,2.134-4.631,3.632-6.478.574-.708,1.062-1.346,2.086-1.279,2.681.174,4.829,5.91,5.781,7.9a47.415,47.415,0,0,1,4.026,13.037,1.4,1.4,0,0,1-2.69.741c-2.625-7.6-5.266-15.192-8.483-22.561l2.5-.327c-2.332,5.9-4.275,12-6.841,17.8-.529,1.194-2.363.33-2.057-.867,1.54-6.017,4.014-11.876,6.261-17.658.372-.956,1.971-1.519,2.5-.326,3.358,7.574,6.108,15.374,8.812,23.2l-2.69.741a46.4,46.4,0,0,0-2.56-9.645A42.206,42.206,0,0,0,176.057,9.3,19.506,19.506,0,0,1,174.9,7.4l-.615-.926q.607-1.529-.026-.313c-2.256,2.664-3.745,6.679-5.335,9.779-1.79,3.489-3.476,7.027-5.085,10.6l-2.2-1.7c5.057-5.815,8.432-12.489,12.4-19.024a1.259,1.259,0,0,1,2.156,0,65.434,65.434,0,0,1,5.96,15.949.694.694,0,0,1-1.338.369" transform="translate(-161.289 0)"/>
  </g>
</svg>
