<svg xmlns="http://www.w3.org/2000/svg" viewBox="0 0 219.93 88.89"><defs><style>.cls-1{fill:#e30078;}.cls-1,.cls-10,.cls-15,.cls-16,.cls-17,.cls-18,.cls-19,.cls-2,.cls-20,.cls-21,.cls-4,.cls-5,.cls-6,.cls-7,.cls-8,.cls-9{stroke:#1d1d1b;}.cls-1,.cls-10,.cls-15,.cls-16,.cls-17,.cls-18,.cls-19,.cls-2,.cls-20,.cls-21,.cls-23,.cls-24,.cls-4,.cls-5,.cls-6,.cls-7,.cls-8,.cls-9{stroke-linecap:round;stroke-linejoin:round;}.cls-1,.cls-10,.cls-15,.cls-16,.cls-17,.cls-18,.cls-19,.cls-2,.cls-20,.cls-21,.cls-22,.cls-4,.cls-5,.cls-6,.cls-7,.cls-8,.cls-9{stroke-width:0.5px;}.cls-2{fill:#9d9d9c;}.cls-11,.cls-3{fill:#1d1d1b;}.cls-16,.cls-17,.cls-18,.cls-19,.cls-20,.cls-21,.cls-23,.cls-24,.cls-4{fill:none;}.cls-5{fill:#841851;}.cls-6{fill:#172026;}.cls-7{fill:#706f6f;}.cls-8{fill:#575756;}.cls-9{fill:#fff;}.cls-10{fill:#b41788;}.cls-11{font-size:8.18px;font-family:Roboto-Bold, Roboto;font-weight:700;letter-spacing:0.01em;}.cls-12{letter-spacing:0em;}.cls-13{letter-spacing:-0.03em;}.cls-14{letter-spacing:0.01em;}.cls-15{fill:#cfc5fb;}.cls-16{stroke-dasharray:2.9 2.9;}.cls-17{stroke-dasharray:2.91 2.91;}.cls-18{stroke-dasharray:3 3;}.cls-19{stroke-dasharray:3.29 3.29;}.cls-20{stroke-dasharray:3.24 3.24;}.cls-21{stroke-dasharray:2.53 2.53;}.cls-22{fill:#5dbf1d;stroke:#2b6334;stroke-miterlimit:10;}.cls-23,.cls-24{stroke:#fff;}.cls-23{stroke-width:0.75px;}.cls-24{stroke-width:1.5px;}</style></defs><g id="Layer_2" data-name="Layer 2"><g id="pic"><path class="cls-1" d="M29.7,31.69c-.18-1.87-.61-4.36-1.7-5.09-1.82-1.2-6.05-1.66-7.11-3.32a11.69,11.69,0,0,1-1.42-3.71l-8.1-1.19-.85,1.07a10.91,10.91,0,0,1-1.35,3.83C8.11,24.94,3.88,25.4,2.06,26.6S.26,31.24.25,31.69Z"/><path class="cls-1" d="M.25,33.43c0-.46.12-5.7,1.81-6.83s6-1.66,7.11-3.32c0,0,1.66,1.24,5.85,1.24s5.87-1.24,5.87-1.24C22,24.94,26.18,25.4,28,26.6c1.09.73,1.52,4.95,1.7,6.83"/><path class="cls-1" d="M22.81,11.29c-.39-.68-1.64-.16-1.64-.16V7.84c-.68-1.31-4.69-1.74-6.1-1.56C13.66,6.1,9.65,6.53,9,7.84v3.29s-1.26-.52-1.64.16c-.18.32-.27,3.19.49,3.92S9,15.53,9,15.53s.38,3.66,2.67,4.76,2.67,1.1,3.42,1.1h0c.75,0,1.15,0,3.41-1.1a3.54,3.54,0,0,0,.78-.52,7.55,7.55,0,0,0,1.9-4.24s.38.42,1.15-.32S23,11.61,22.81,11.29Z"/><path class="cls-2" d="M9,9.74s.14-2.11,1.48-2.26S14.33,9,16.4,8.84s4.46-.61,4.75,0,.47-2-.09-3.8c-.36-1.11-.93-1.52-2.27-2.43S17.42,1,17.42,1s-1.09.87-1.54.72-.4-1.13-.4-1.13a41,41,0,0,1-4,2.35,3.12,3.12,0,0,0-2.67,2C8.24,6.57,9,9.74,9,9.74Z"/><ellipse class="cls-3" cx="12.57" cy="12.73" rx="0.38" ry="0.86"/><ellipse class="cls-3" cx="17.11" cy="12.73" rx="0.38" ry="0.86"/><path class="cls-4" d="M16.58,16.51c-.14.49-.78.91-1.74.91s-1.6-.42-1.74-.91"/><path class="cls-1" d="M142,26.6c-1.82-1.2-6.05-1.66-7.11-3.32a11.69,11.69,0,0,1-1.42-3.71l-8.1-1.19-.85,1.07a10.91,10.91,0,0,1-1.35,3.83c-1.06,1.66-5.29,2.12-7.11,3.32"/><path class="cls-1" d="M114.24,33.43c0-.46.12-5.7,1.81-6.83s6-1.66,7.11-3.32c0,0,1.66,1.24,5.85,1.24s5.87-1.24,5.87-1.24c1.06,1.66,5.29,2.12,7.11,3.32,1.09.73,1.52,4.95,1.7,6.83"/><path class="cls-1" d="M136.8,11.29c-.39-.68-1.64-.16-1.64-.16V7.84c-.68-1.31-4.69-1.74-6.1-1.56-1.41-.18-5.42.25-6.1,1.56v3.29s-1.26-.52-1.64.16c-.18.32.16,3.19.93,3.92s.71.32.71.32-.33,3.68,2,4.78a8.43,8.43,0,0,0,4.12,1.08h0c.75,0,3.49-.42,4.6-1.64a6,6,0,0,0,1.49-4.22s0,.42.71-.32S137,11.61,136.8,11.29Z"/><path class="cls-5" d="M123,11.13s.16-3.5,1.5-3.65,3.86,1.51,5.93,1.36a6.5,6.5,0,0,1,4.77,2.1c.3.61.45-4.12-.11-5.9-.36-1.11-.93-1.52-2.27-2.43S131.41,1,131.41,1a2.12,2.12,0,0,0-.84-.72c-.44-.15-1.1.31-1.1.31S125.63,1.78,125,1.93s-1.61,1.31-2.2,3S123,11.13,123,11.13Z"/><ellipse class="cls-3" cx="126.56" cy="12.73" rx="0.38" ry="0.86"/><ellipse class="cls-3" cx="131.1" cy="12.73" rx="0.38" ry="0.86"/><path class="cls-4" d="M130.57,16.51c-.14.49-.78.91-1.74.91s-1.6-.42-1.74-.91"/><path class="cls-1" d="M153.93,26.6c1.82-1.2,6-1.66,7.11-3.32a11.85,11.85,0,0,0,1.43-3.71l8.1-1.19.84,1.07a10.91,10.91,0,0,0,1.35,3.83c1.06,1.66,5.29,2.12,7.11,3.32"/><path class="cls-1" d="M181.68,33.43c0-.46-.12-5.7-1.81-6.83s-6.05-1.66-7.11-3.32c0,0-1.66,1.24-5.84,1.24S161,23.28,161,23.28c-1.06,1.66-5.29,2.12-7.11,3.32-1.08.73-1.52,4.95-1.69,6.83"/><path class="cls-1" d="M159.13,11.29c.38-.68,1.63-.16,1.63-.16V7.84c.68-1.31,4.69-1.74,6.1-1.56,1.42-.18,5.42.25,6.1,1.56v3.29s1.26-.52,1.64.16c.18.32-.16,3.19-.92,3.92s-.72.32-.72.32.33,3.68-2,4.78a8.48,8.48,0,0,1-4.12,1.08h0c-.75,0-3.48-.42-4.6-1.64a6.05,6.05,0,0,1-1.49-4.22s.05.42-.71-.32S159,11.61,159.13,11.29Z"/><path class="cls-6" d="M173,11.13s-.16-3.5-1.5-3.65-3.69,3-5.76,2.82-4.64,0-4.94.64-.45-4.12.12-5.9c.35-1.11.93-1.52,2.26-2.43s7.16-.83,7.75-.68,1.61,1.31,2.21,3S173,11.13,173,11.13Z"/><ellipse class="cls-3" cx="169.36" cy="12.73" rx="0.38" ry="0.86"/><ellipse class="cls-3" cx="164.82" cy="12.73" rx="0.38" ry="0.86"/><path class="cls-4" d="M165.35,16.51c.14.49.78.91,1.74.91s1.6-.42,1.74-.91"/><path class="cls-1" d="M191.93,26.6c1.82-1.2,6-1.66,7.11-3.32a11.69,11.69,0,0,0,1.42-3.71l8.1-1.19.85,1.07a10.91,10.91,0,0,0,1.35,3.83c1.06,1.66,5.29,2.12,7.11,3.32"/><path class="cls-1" d="M219.68,33.43c0-.46-.12-5.7-1.81-6.83s-6.05-1.66-7.11-3.32c0,0-1.66,1.24-5.85,1.24S199,23.28,199,23.28c-1.06,1.66-5.29,2.12-7.11,3.32-1.09.73-1.52,4.95-1.7,6.83"/><path class="cls-1" d="M197.12,11.29c.39-.68,1.64-.16,1.64-.16V7.84c.68-1.31,4.69-1.74,6.1-1.56,1.41-.18,5.42.25,6.1,1.56v3.29s1.26-.52,1.64.16c.18.32.27,3.19-.49,3.92s-1.15.32-1.15.32-.38,3.66-2.67,4.76-2.67,1.1-3.42,1.1h0c-.75,0-1.15,0-3.41-1.1a3.54,3.54,0,0,1-.78-.52,7.55,7.55,0,0,1-1.9-4.24s-.38.42-1.15-.32S196.94,11.61,197.12,11.29Z"/><path class="cls-7" d="M210.94,9.74s-.14-2.11-1.48-2.26S205.6,9,203.53,8.84s-4.46-.61-4.75,0-.47-2,.09-3.8c.36-1.11.93-1.52,2.27-2.43S202.51,1,202.51,1s1.09.87,1.54.72.4-1.13.4-1.13a41,41,0,0,0,4,2.35,3.12,3.12,0,0,1,2.67,2C211.69,6.57,210.94,9.74,210.94,9.74Z"/><ellipse class="cls-3" cx="207.36" cy="12.73" rx="0.38" ry="0.86"/><ellipse class="cls-3" cx="202.82" cy="12.73" rx="0.38" ry="0.86"/><path class="cls-4" d="M203.35,16.51c.14.49.78.91,1.74.91s1.6-.42,1.74-.91"/><path class="cls-1" d="M104,26.6c-1.81-1.2-6-1.66-7.11-3.32a12,12,0,0,1-1.42-3.71l-8.1-1.19-.84,1.07a11,11,0,0,1-1.36,3.83c-1,1.66-5.29,2.12-7.1,3.32"/><path class="cls-1" d="M76.24,33.43c0-.46.12-5.7,1.82-6.83s6-1.66,7.1-3.32c0,0,1.66,1.24,5.85,1.24s5.87-1.24,5.87-1.24c1.06,1.66,5.3,2.12,7.11,3.32,1.09.73,1.53,4.95,1.7,6.83"/><path class="cls-1" d="M98.8,11.29c-.38-.68-1.64-.16-1.64-.16V7.84c-.68-1.31-4.69-1.74-6.1-1.56-1.41-.18-5.42.25-6.1,1.56v3.29s-1.25-.52-1.64.16c-.18.32-.27,3.19.5,3.92s1.14.32,1.14.32.38,3.66,2.68,4.76,2.66,1.1,3.41,1.1h0c.74,0,1.14,0,3.41-1.1a3.72,3.72,0,0,0,.77-.52,7.55,7.55,0,0,0,1.9-4.24s.38.42,1.15-.32S99,11.61,98.8,11.29Z"/><path class="cls-8" d="M85,9.74s.15-2.11,1.48-2.26S90.32,9,92.4,8.84s4.45-.61,4.75,0,.47-2-.1-3.8c-.35-1.11-.93-1.52-2.26-2.43S93.41,1,93.41,1s-1.09.87-1.54.72-.4-1.13-.4-1.13a39.84,39.84,0,0,1-4,2.35,3.13,3.13,0,0,0-2.67,2C84.24,6.57,85,9.74,85,9.74Z"/><ellipse class="cls-3" cx="88.57" cy="12.73" rx="0.38" ry="0.86"/><ellipse class="cls-3" cx="93.1" cy="12.73" rx="0.38" ry="0.86"/><path class="cls-4" d="M92.57,16.51c-.13.49-.77.91-1.73.91s-1.6-.42-1.74-.91"/><path class="cls-6" d="M45.55,8,42.68,27.49s7.15.73,7,.57,0-13,0-13Z"/><path class="cls-6" d="M60.71,8l2.87,19.45s-7.15.73-7,.57,0-13,0-13Z"/><path class="cls-1" d="M66,26.6c-1.81-1.2-6-1.66-7.1-3.32a11.85,11.85,0,0,1-1.43-3.71l-8.1-1.19-.84,1.07a10.91,10.91,0,0,1-1.35,3.83c-1.06,1.66-5.29,2.12-7.11,3.32"/><path class="cls-1" d="M38.25,33.43c0-.46.12-5.7,1.81-6.83s6-1.66,7.11-3.32c0,0,1.66,1.24,5.84,1.24s5.88-1.24,5.88-1.24C60,24.94,64.18,25.4,66,26.6c1.09.73,1.53,4.95,1.7,6.83"/><path class="cls-1" d="M60.8,11.29c-.38-.68-1.63-.16-1.63-.16V7.84c-.68-1.31-4.69-1.74-6.1-1.56-1.42-.18-5.42.25-6.1,1.56v3.29s-1.26-.52-1.64.16c-.18.32-.27,3.19.49,3.92s1.15.32,1.15.32.38,3.66,2.67,4.76,2.67,1.1,3.41,1.1h0c.75,0,1.15,0,3.41-1.1a3.47,3.47,0,0,0,.77-.52,7.59,7.59,0,0,0,1.91-4.24s.38.42,1.14-.32S61,11.61,60.8,11.29Z"/><ellipse class="cls-3" cx="50.57" cy="12.73" rx="0.38" ry="0.86"/><ellipse class="cls-3" cx="55.11" cy="12.73" rx="0.38" ry="0.86"/><path class="cls-4" d="M54.58,16.51c-.14.49-.78.91-1.74.91s-1.6-.42-1.74-.91"/><path class="cls-6" d="M53.5,6.21s-4.75,5.5-6.38,5.67c0,0-.69-1.17-1.39-.91,0,0-2.22-6.85,5.22-7.84h2.39Z"/><path class="cls-6" d="M53.18,6.21s4.31,5.5,6,5.67c0,0,.68-1.17,1.39-.91,0,0,2.22-6.85-5.22-7.84H52.91Z"/><rect class="cls-9" x="83.18" y="69.67" width="53.74" height="18.97"/><rect class="cls-6" x="81.85" y="68.8" width="56.39" height="2.19"/><polygon class="cls-10" points="138.25 68.8 81.85 68.8 90.56 63.48 129.54 63.48 138.25 68.8"/><text class="cls-11" transform="translate(91.04 81.73)"> <tspan class="cls-12" x="2.12" y="0">V</tspan><tspan class="cls-13" x="7.5" y="0">O</tspan><tspan class="cls-14" x="12.89" y="0">TE ON</tspan></text><polygon class="cls-15" points="126.47 66.8 95.01 66.8 97.01 65.47 123.47 65.47 126.47 66.8"/><line class="cls-4" x1="14.84" y1="34.3" x2="16.23" y2="34.87"/><line class="cls-16" x1="18.91" y1="35.98" x2="76.5" y2="59.85"/><line class="cls-4" x1="77.84" y1="60.4" x2="79.22" y2="60.98"/><polygon class="cls-3" points="77.59 63 82.54 62.35 79.5 58.39 77.59 63"/><line class="cls-4" x1="206.83" y1="34.3" x2="205.44" y2="34.87"/><line class="cls-17" x1="202.75" y1="35.98" x2="144.83" y2="59.85"/><line class="cls-4" x1="143.48" y1="60.41" x2="142.09" y2="60.98"/><polygon class="cls-3" points="141.82 58.4 138.78 62.35 143.72 63.01 141.82 58.4"/><line class="cls-4" x1="168.83" y1="34.15" x2="167.52" y2="34.89"/><line class="cls-18" x1="164.9" y1="36.35" x2="134.81" y2="53.23"/><line class="cls-4" x1="133.5" y1="53.96" x2="132.19" y2="54.69"/><polygon class="cls-3" points="131.61 52.16 129.06 56.45 134.04 56.51 131.61 52.16"/><line class="cls-4" x1="128.96" y1="35.66" x2="128.17" y2="36.93"/><line class="cls-19" x1="126.44" y1="39.73" x2="123.84" y2="43.93"/><line class="cls-4" x1="122.98" y1="45.33" x2="122.19" y2="46.61"/><polygon class="cls-3" points="120.45 44.67 120.3 49.66 124.69 47.3 120.45 44.67"/><line class="cls-4" x1="53.03" y1="34.3" x2="54.29" y2="35.11"/><line class="cls-20" x1="57.02" y1="36.85" x2="82.92" y2="53.46"/><line class="cls-4" x1="84.28" y1="54.34" x2="85.55" y2="55.15"/><polygon class="cls-3" points="83.59 56.85 88.57 57.09 86.28 52.66 83.59 56.85"/><line class="cls-4" x1="89.74" y1="33.66" x2="90.57" y2="34.9"/><line class="cls-21" x1="91.98" y1="37.01" x2="96.88" y2="44.37"/><line class="cls-4" x1="97.59" y1="45.42" x2="98.42" y2="46.67"/><polygon class="cls-3" points="95.94 47.45 100.41 49.66 100.09 44.68 95.94 47.45"/><rect class="cls-22" x="171.09" y="41.73" width="13.19" height="13.19" rx="3.03"/><polyline class="cls-23" points="174.07 47.88 177.12 51.18 181.69 44.53"/><rect class="cls-22" x="36.75" y="43.62" width="13.19" height="13.19" rx="3.03"/><polyline class="cls-23" points="39.73 49.78 42.78 53.08 47.35 46.42"/><rect class="cls-22" x="59.25" y="36.71" width="13.19" height="13.19" rx="3.03"/><polyline class="cls-23" points="62.22 42.86 65.27 46.16 69.84 39.51"/><rect class="cls-22" x="147.13" y="37.71" width="13.19" height="13.19" rx="3.03"/><polyline class="cls-23" points="150.11 43.86 153.16 47.16 157.73 40.51"/><rect class="cls-22" x="123.98" y="29.97" width="13.19" height="13.19" rx="3.03"/><polyline class="cls-23" points="126.96 36.12 130 39.42 134.58 32.77"/><path class="cls-22" d="M112.88,66.51l7.56-5.36a3.28,3.28,0,0,0,.78-4.57l-6.48-9.13a3.28,3.28,0,0,0-4.58-.78L101,53.15a3.28,3.28,0,0,0-.77,4.57l6.23,8.79"/><polyline class="cls-24" points="105.22 59.34 111.13 61.27 112.15 50.15"/></g></g></svg>