<svg xmlns="http://www.w3.org/2000/svg" xmlns:xlink="http://www.w3.org/1999/xlink" viewBox="0 0 145.88 209.29"><defs><style>.cls-1,.cls-13,.cls-3{fill:none;}.cls-1{stroke:#1d1d1b;stroke-linecap:round;stroke-linejoin:round;}.cls-2{fill:#333;}.cls-3{stroke:#333;}.cls-13,.cls-3{stroke-miterlimit:10;}.cls-4{fill:#5b534f;}.cls-5{fill:#191816;}.cls-6{fill:#eda400;}.cls-7{fill:#0b0904;}.cls-8{fill:#2a2118;}.cls-9{fill:#ffb600;}.cls-10{fill:#fad109;}.cls-11{fill:#fff;opacity:0.72;}.cls-12{fill:#c80;}.cls-13{stroke:#a07022;}.cls-14{fill:#100f0d;}.cls-15{fill:#3a3a3a;}.cls-16{fill:#3a3634;}.cls-17{fill:#22314e;}.cls-18{isolation:isolate;}.cls-19{fill:url(#Безымянный_градиент_6);}.cls-20{fill:url(#Безымянный_градиент_4);}</style><linearGradient id="Безымянный_градиент_6" x1="139.02" y1="-590.6" x2="161.08" y2="-612.74" gradientTransform="matrix(1, 0, 0, -1, -44.94, -541.45)" gradientUnits="userSpaceOnUse"><stop offset="0" stop-color="#387eb8"/><stop offset="1" stop-color="#366994"/></linearGradient><linearGradient id="Безымянный_градиент_4" x1="152.59" y1="-604.69" x2="176.28" y2="-627.4" gradientTransform="matrix(1, 0, 0, -1, -44.94, -541.45)" gradientUnits="userSpaceOnUse"><stop offset="0" stop-color="#ffe052"/><stop offset="1" stop-color="#ffc331"/></linearGradient></defs><g id="Layer_2" data-name="Layer 2"><g id="pic"><ellipse class="cls-1" cx="84.08" cy="115.24" rx="1.27" ry="1.19"/><path class="cls-1" d="M91,111.63A7.55,7.55,0,0,0,89.67,110a8.28,8.28,0,0,0-11.19,0,7.55,7.55,0,0,0-1.32,1.64"/><path class="cls-1" d="M89.65,112.9a5.86,5.86,0,0,0-1.26-1.71,6.4,6.4,0,0,0-8.63,0,5.65,5.65,0,0,0-1.25,1.71"/><path class="cls-1" d="M88.23,114.22a3.93,3.93,0,0,0-1.12-1.83,4.5,4.5,0,0,0-6.07,0,3.93,3.93,0,0,0-1.12,1.83"/><line class="cls-1" x1="84" y1="118.21" x2="84" y2="143"/><path class="cls-2" d="M61.05,201.74l7.33-3.62s2.17,3.46-1.43,5.26A4.28,4.28,0,0,1,61.05,201.74Z"/><path class="cls-2" d="M43.17,179c-8.85-2.42-9.52-6-9.52-6L29.09,170s-4.36-.26-3.29,4,15.89,8.22,20.25,9.9,12.67,6.57,13.48,11,1.52,6.9,1.52,6.9l7.33-3.62C68.17,197.38,52,181.36,43.17,179ZM61.8,199.8l-.87-4a1.06,1.06,0,0,1,1.73-1l3.46,3Z"/><circle class="cls-3" cx="65.04" cy="200.4" r="0.6"/><path class="cls-2" d="M57.55,143.38,34.39,171l-.22,3.29a3.08,3.08,0,0,1-3.08,2.88h0A3.09,3.09,0,0,1,28,174l.22-6.11,16.72-24.42Z"/><path class="cls-4" d="M47.8,151.36s-11,13-10.2,13.91,1.29.36,1.29.36l17.61-21-8.24,5.73Z"/><path class="cls-4" d="M29.09,166.61s.14,1,2.28-.82S49.84,143.5,49.84,143.5l-5.13.09Z"/><circle class="cls-3" cx="31.05" cy="173.94" r="1.97"/><circle class="cls-3" cx="31.05" cy="173.94" r="0.6"/><path class="cls-2" d="M101.93,198.78l8.1,1.07s-.12,4.08-4.11,3.58A4.29,4.29,0,0,1,101.93,198.78Z"/><path class="cls-2" d="M99.76,169.89c-6-6.93-4.55-10.31-4.55-10.31l-2.15-5s-3.47-2.64-4.94,1.48,8.62,15.68,11.31,19.49,6.87,12.51,5.08,16.64-2.58,6.58-2.58,6.58l8.1,1.07C110.28,199.13,105.77,176.82,99.76,169.89Zm3.88,27.7,1.47-3.77a1.06,1.06,0,0,1,2,.1l1.22,4.4Z"/><circle class="cls-3" cx="105.99" cy="199.89" r="0.6"/><path class="cls-2" d="M123.56,149.84,97.6,157l-2,2.57a3.1,3.1,0,0,1-4.19.61h0a3.09,3.09,0,0,1-.7-4.39l3.67-4.9,19.77-7.51Z"/><polygon class="cls-5" points="34.42 132.31 38.33 130.27 45.76 129.84 109.92 131.08 117.45 129.39 134.53 129.84 137.86 132.31 139.09 142.33 133.63 151.28 124.07 151.85 108.23 149.72 54.1 149.42 46.65 149.86 31.08 148.15 34.42 132.31"/><path class="cls-6" d="M53,136.13H78.51a2.74,2.74,0,0,1,1.17.26l6.62,3.12a4.69,4.69,0,0,0,2,.44h27.79l-.81,5.56,3.76.88L116,150.07a3.4,3.4,0,0,1-2.61,1.21h-9.47a3.36,3.36,0,0,1-2.36.86L75,151.43a6.84,6.84,0,0,1-.91-.09l-8.92-1.52a3.78,3.78,0,0,0-.75,0l-14.75.57v-.58l1.41-.15A2.11,2.11,0,0,0,53,147.52Z"/><rect class="cls-7" x="59.52" y="133.59" width="16.74" height="4.41" rx="0.88"/><path class="cls-8" d="M48.94,127.07h4.57a1.11,1.11,0,0,1,1.11,1.11v1.66a0,0,0,0,1,0,0H47.83a0,0,0,0,1,0,0v-1.66A1.11,1.11,0,0,1,48.94,127.07Z"/><path class="cls-8" d="M82.07,127.07h4.57a1.11,1.11,0,0,1,1.11,1.11v1.66a0,0,0,0,1,0,0H81a0,0,0,0,1,0,0v-1.66a1.11,1.11,0,0,1,1.11-1.11Z"/><path class="cls-9" d="M29.32,144.72,27.85,138a3.07,3.07,0,0,1-.08-.85l.19-3.62a1.57,1.57,0,0,1,1.22-1.45L41,129.39h96.83v.45h-20l-.47,6.14a1.17,1.17,0,0,1-1.16,1.08H83.69L75.49,133a1.57,1.57,0,0,0-.67-.16H60.66a1.5,1.5,0,0,0-.83.25l-2.15,1.81a2.12,2.12,0,0,1-1.19.37H53.12L52,131.15a1.29,1.29,0,0,0-1.25-1H40.64a1.86,1.86,0,0,0-1,.28l-2.25,1.42a1.83,1.83,0,0,0-.86,1.67l.54,9Z"/><path class="cls-10" d="M103.26,129.39H41l-11.85,2.73A1.57,1.57,0,0,0,28,133.57l-.05.93,8.64-.93a1.83,1.83,0,0,1,.86-1.67l2.25-1.42a1.86,1.86,0,0,1,1-.28H50.72a1.29,1.29,0,0,1,1.25,1l1.15,4.09h3.37a2.12,2.12,0,0,0,1.19-.37l2.15-1.81a1.5,1.5,0,0,1,.83-.25H74.82s.15-1.47,2.57-2C80.77,130.05,88.3,129.56,103.26,129.39Z"/><path class="cls-11" d="M56.74,133.89s.4-2,1.54-2.69,2.55,0,2.28.43-3,2.32-3.22,2.59S56.59,134.42,56.74,133.89Z"/><path class="cls-12" d="M116.07,140l-.81,5.56,3.76.88L116,150.07a3.4,3.4,0,0,1-2.61,1.21h-9.47a3.36,3.36,0,0,1-2.36.86L75,151.43a6.84,6.84,0,0,1-.91-.09l-8.92-1.52a3.78,3.78,0,0,0-.75,0l-18,.57v-.58l4.63-.15A2.11,2.11,0,0,0,53,147.52v-7.16l7.61,5.69h49.78S115.6,143.51,116.07,140Z"/><path class="cls-13" d="M65.46,149.76l39.35-.34a1.86,1.86,0,0,1,1.87,1.86h0"/><rect class="cls-9" x="59.98" y="133.46" width="15.82" height="4.16" rx="0.83"/><rect class="cls-14" x="68.4" y="134.5" width="6.17" height="2.29" rx="0.46"/><rect class="cls-14" x="64.83" y="134.5" width="2.64" height="2.29" rx="0.46"/><rect class="cls-14" x="61.07" y="134.5" width="2.64" height="2.29" rx="0.46"/><path class="cls-9" d="M134.45,130.27l10,1.61a1.59,1.59,0,0,1,1.33,1.46l.1,1.63a1.73,1.73,0,0,1-.14.75l-7.41,16.13h-9.05s3.48,0,4.69-2.43c.86-1.71,2.17-4.42,2.84-5.83a4.51,4.51,0,0,0,.44-1.94v-8.36a2.31,2.31,0,0,0-1.25-2l-1.6-.82A.08.08,0,0,1,134.45,130.27Z"/><path class="cls-12" d="M143.79,140l-5.46,11.9h-9.05s3.48,0,4.69-2.43c.86-1.71,2.17-4.42,2.84-5.83a4.51,4.51,0,0,0,.44-1.94v-4.59Z"/><path class="cls-10" d="M135.71,151.85h2.62l7.41-16.13a1.73,1.73,0,0,0,.14-.75l-.1-1.63a1.59,1.59,0,0,0-1.33-1.46,12.56,12.56,0,0,1-1.23,4.91c-1.2,2.38-7.51,15.06-7.51,15.06"/><path class="cls-15" d="M7.65,165.13l9.55,11.53s10.64,22.8,11.45,24.14,1.61,3.93,1.16,4H28s-1.7-6-3.22-5.45-2.41,5.45-2.41,5.45H20.6a60.42,60.42,0,0,1,2.81-6.44c.95-1.52-3.26-10.45-10-18.14s-15.29-18-12.25-20.56S7.65,165.13,7.65,165.13Z"/><path class="cls-4" d="M1.2,159.68c3-2.59,6.45,5.45,6.45,5.45l9.55,11.53s10.64,22.8,11.45,24.14,1.61,3.93,1.16,4H28.49A88.22,88.22,0,0,0,14.7,177.38C4.78,164.42,1.2,159.68,1.2,159.68Z"/><path class="cls-15" d="M20.6,204.82h9.21s.53,4.29-4.61,4.47S20.6,204.82,20.6,204.82Z"/><circle class="cls-3" cx="25.01" cy="206.71" r="0.65"/><path class="cls-16" d="M47.28,135.54s-2.79-4.52-7.38-3.33c-5.16,1.34-6.16,12.41-6.16,12.41s.07,1.27.94.6S35.79,133.3,40.11,133s6,3.73,6.63,3.65S47.28,135.54,47.28,135.54Z"/><path class="cls-16" d="M38.8,141.08s-1.24-3.5,2-4.39a6.49,6.49,0,0,1,5.45.82l.51-.82s-4.36-3-7.37-.26a4.31,4.31,0,0,0-.8,5.79Z"/><path class="cls-5" d="M30.07,144.3s-.07-3.74,1.67-4.73,2.69-1.94,3-1.4,1.34,3.55,1.34,3.55Z"/><polygon points="39.39 150.85 40.22 152.62 50.81 147.9 49.88 145.89 39.39 150.85"/><path class="cls-9" d="M.22,166.41l9.14-12.86a1.16,1.16,0,0,1,.4-.36l15.11-8.39a1.21,1.21,0,0,1,1.37.13h0a1.2,1.2,0,0,0,1.34.15l19.24-9.9a3.64,3.64,0,0,1,4.93,1.61l2,4a3.65,3.65,0,0,1-1.77,5L9.94,164.62a1.2,1.2,0,0,0-.53.47l-3,4.81a1.2,1.2,0,0,1-1.58.44L.66,168.18A1.2,1.2,0,0,1,.22,166.41Z"/><path class="cls-10" d="M46.82,135.18l-19.24,9.9a1.2,1.2,0,0,1-1.34-.15h0a1.21,1.21,0,0,0-1.37-.13L9.76,153.19a1.16,1.16,0,0,0-.4.36L.22,166.41a1.2,1.2,0,0,0,.44,1.77s4.28-7.43,5.72-8.59c1.2-1,27.75-13.32,36.38-17.32a6.06,6.06,0,0,0,3.36-4.13Z"/><path class="cls-11" d="M7.41,157.71s30-17.43,30.26-17S6.28,159.23,6.38,159A9.79,9.79,0,0,1,7.41,157.71Z"/><path class="cls-15" d="M135.92,206.64l7.85-4s2.4,3.7-1.45,5.71A4.63,4.63,0,0,1,135.92,206.64Z"/><path class="cls-15" d="M116.46,181.74C107,178.69,105.84,176,105.84,176l-5-3.1s-4.71-.22-3.47,4.35,17.29,8.6,22,10.33,13.79,6.87,14.74,11.63,1.76,7.43,1.76,7.43l7.85-4C143.54,201.81,127.49,185.3,116.46,181.74Zm20.24,22.79-1-4.25a1.15,1.15,0,0,1,1.85-1.15l3.78,3.15Z"/><circle class="cls-3" cx="140.66" cy="205.81" r="0.65"/><path class="cls-9" d="M127.26,132.28,115,150a1.93,1.93,0,0,1-2.48.61h0a.78.78,0,0,0-1,.27l-9,14.16a4.41,4.41,0,0,0-.63,1.72l-1.72,12.3a3.19,3.19,0,0,0,3,3.63h0a3.2,3.2,0,0,0,3.4-2.88l.29-3a5.7,5.7,0,0,1,1.31-3.13l28.82-34.33a2.62,2.62,0,0,0-.49-3.82l-5.45-3.9A2.61,2.61,0,0,0,127.26,132.28Z"/><path class="cls-10" d="M101.18,181.93a3.18,3.18,0,0,1-1.07-2.86l1.72-12.3a4.41,4.41,0,0,1,.63-1.72l9-14.16a.78.78,0,0,1,1-.27h0A1.93,1.93,0,0,0,115,150l12.26-17.73s2.59,2.54-.43,7S103.5,168.61,102.9,171,101.18,181.93,101.18,181.93Z"/><path class="cls-11" d="M102.63,168.81S125.49,135,126,134.8s.07.76-.6,1.66S102,170.92,102.09,170.2A3.37,3.37,0,0,1,102.63,168.81Z"/><g id="g39878"><path id="path39880" class="cls-17" d="M34.48,3.32a2.88,2.88,0,1,1-5.75,0,2.88,2.88,0,1,1,5.75,0Z"/><path id="path39882" class="cls-17" d="M34.48,13.45a2.88,2.88,0,1,1-2.87-3A2.92,2.92,0,0,1,34.48,13.45Z"/><path id="path39884" class="cls-17" d="M34.48,23.58a2.88,2.88,0,1,1-2.87-3A2.92,2.92,0,0,1,34.48,23.58Z"/><path id="path39886" class="cls-17" d="M44.52,13.45a2.88,2.88,0,1,1-2.88-3A2.93,2.93,0,0,1,44.52,13.45Z"/><path id="path39888" class="cls-17" d="M44.52,3.32a2.88,2.88,0,1,1-5.75,0,2.88,2.88,0,1,1,5.75,0Z"/><path id="path39890" class="cls-17" d="M54.56,13.45a2.88,2.88,0,1,1-2.88-3A2.93,2.93,0,0,1,54.56,13.45Z"/><path id="path39892" class="cls-17" d="M54.56,3.32a2.88,2.88,0,1,1-5.76,0,2.88,2.88,0,1,1,5.76,0Z"/><path id="path39894" class="cls-17" d="M54.56,23.58a2.88,2.88,0,1,1-2.88-3A2.93,2.93,0,0,1,54.56,23.58Z"/><path id="path39896" class="cls-17" d="M44.52,23.58a2.88,2.88,0,1,1-2.88-3A2.93,2.93,0,0,1,44.52,23.58Z"/><g id="text39898" class="cls-18"><g class="cls-18"><path class="cls-17" d="M76.49,15.83l5.15,10.65H77.28l-5-10.31H66.58V26.48H62.87V.41H73.93C78.33.41,82,2.83,82,8.19,82,12.37,79.91,14.94,76.49,15.83ZM73.93,4.1H66.58v8.38h7.35c2.52,0,4.29-1.34,4.29-4.17A3.92,3.92,0,0,0,73.93,4.1Z"/></g><g class="cls-18"><path class="cls-17" d="M97.36,26.89c-6.53,0-10.67-5.55-10.67-13.44S90.83,0,97.36,0s10.7,5.55,10.7,13.45S103.92,26.89,97.36,26.89Zm0-23c-4.4,0-6.81,3.69-6.81,9.54S93,23,97.36,23s6.85-3.69,6.85-9.53S101.79,3.91,97.36,3.91Z"/></g><g class="cls-18"><path class="cls-17" d="M121.07,26.89a11.53,11.53,0,0,1-9-4.21L114.8,20a9.11,9.11,0,0,0,6.56,3.1c3.53,0,5.23-1.27,5.23-3.8,0-2-1.48-3-5.7-4.32-5.33-1.64-7.89-3-7.89-7.68,0-4.5,3.68-7.26,8.33-7.26a11.12,11.12,0,0,1,8.25,3.54l-2.67,2.79A7.53,7.53,0,0,0,121,3.84c-3,0-4.22,1.49-4.22,3.24s1.15,2.72,5.52,4.06c5,1.56,8.07,3.2,8.07,7.86S127.53,26.89,121.07,26.89Z"/></g></g></g><g id="layer1"><g id="g1894"><path id="path8615" class="cls-19" d="M112.05,45.16c-11.33,0-10.62,4.91-10.62,4.91v5.09h10.81v1.53H97.15S89.9,55.87,89.9,67.3s6.32,11,6.32,11H100V73s-.2-6.33,6.23-6.33H117s6,.1,6-5.82V51.08S123.89,45.16,112.05,45.16Zm-6,3.42a1.95,1.95,0,1,1-2,2A1.94,1.94,0,0,1,106.09,48.58Z"/><path id="path8620" class="cls-20" d="M112.37,89.55c11.33,0,10.62-4.91,10.62-4.91V79.55H112.17V78h15.1s7.25.82,7.25-10.61-6.33-11-6.33-11h-3.77v5.3s.2,6.33-6.23,6.33H107.47s-6-.1-6,5.82v9.79S100.53,89.55,112.37,89.55Zm6-3.42a1.95,1.95,0,1,1,1.94-1.95A1.94,1.94,0,0,1,118.33,86.13Z"/></g></g></g></g></svg>