<svg xmlns="http://www.w3.org/2000/svg" viewBox="0 0 89.57 71.36"><defs><style>.cls-1{fill:#172026;}.cls-1,.cls-2,.cls-3,.cls-4{stroke:#282b38;stroke-miterlimit:10;stroke-width:0.5px;}.cls-2{fill:#f1f0ee;}.cls-3{fill:#b41788;}.cls-4{fill:none;}</style></defs><g id="Layer_2" data-name="Layer 2"><g id="pic"><path class="cls-1" d="M48.54,60.16h24a3,3,0,0,1,3,3v4.17a.33.33,0,0,1-.33.33H45.82a.33.33,0,0,1-.33-.33V63.21a3,3,0,0,1,3-3Z"/><path class="cls-2" d="M43.73,64.3h33.5a3,3,0,0,1,3,3v3.76a0,0,0,0,1,0,0H40.68a0,0,0,0,1,0,0V67.35A3,3,0,0,1,43.73,64.3Z"/><path class="cls-1" d="M38,32.24,5.24,54.37a2.48,2.48,0,0,1-3.48-.72L.64,51.9a2.49,2.49,0,0,1,.81-3.46L35.3,28.06a2.49,2.49,0,0,1,3.37.79h0A2.49,2.49,0,0,1,38,32.24Z"/><path class="cls-3" d="M35,35.41c-1.15.74-2.95,0-4-1.7s-1-3.64.14-4.38L35,26.9,38.85,33Z"/><rect class="cls-2" x="33.27" y="11.52" width="23.38" height="27.75" transform="matrix(0.84, -0.54, 0.54, 0.84, -6.6, 28.23)"/><path class="cls-1" d="M47.3,7.67,27.89,20.08s.18-2.88-.34-3.63-2.81-1.29-2.81-1.29L44.15,2.74s-.37,2.47,0,3.14S47.3,7.67,47.3,7.67Z"/><path class="cls-1" d="M43.35,44.26,62.76,31.84s-.18,2.89.34,3.63,2.81,1.3,2.81,1.3L46.51,49.18s.36-2.46,0-3.14S43.35,44.26,43.35,44.26Z"/><rect class="cls-3" x="23.84" y="12.08" width="27.51" height="3.6" rx="1.08" transform="matrix(0.84, -0.54, 0.54, 0.84, -1.55, 22.44)"/><rect class="cls-3" x="21.34" y="6.34" width="25.18" height="3.6" rx="1.08" transform="translate(0.96 19.56) rotate(-32.6)"/><rect class="cls-3" x="44.07" y="41.87" width="25.18" height="3.6" rx="1.08" transform="translate(-14.6 37.41) rotate(-32.6)"/><rect class="cls-3" x="39.23" y="36.13" width="27.51" height="3.6" rx="1.08" transform="translate(-12.09 34.53) rotate(-32.6)"/><line class="cls-4" x1="76.06" y1="46.31" x2="83.08" y2="37.84"/><line class="cls-4" x1="79.25" y1="48.34" x2="89.47" y2="44.28"/><line class="cls-4" x1="77.91" y1="51.81" x2="88.82" y2="53.17"/></g></g></svg>