<svg xmlns="http://www.w3.org/2000/svg" viewBox="0 0 197.3 176.59"><defs><style>.cls-1{writing-mode:tb;text-orientation:upright;glyph-orientation-vertical:0deg;font-size:8px;fill:#00b1ff;letter-spacing:0.58em;}.cls-2{letter-spacing:0.5em;}.cls-3{fill:#fff;stroke:#00bdff;}.cls-10,.cls-12,.cls-13,.cls-3,.cls-5,.cls-6,.cls-7,.cls-8,.cls-9{stroke-miterlimit:10;}.cls-10,.cls-12,.cls-13,.cls-3,.cls-4,.cls-5,.cls-6,.cls-7,.cls-8,.cls-9{stroke-width:0.5px;}.cls-4{fill:none;stroke:#7a779f;stroke-linecap:round;stroke-linejoin:round;}.cls-5{fill:#ff6b20;}.cls-10,.cls-12,.cls-13,.cls-5,.cls-6,.cls-7,.cls-8,.cls-9{stroke:#000;}.cls-6{fill:#ff6b25;}.cls-7{fill:#999;}.cls-8{fill:#666;}.cls-9{fill:#f4d706;}.cls-10,.cls-11{fill:#f98d62;}.cls-12{fill:#0a0e0d;}.cls-13{fill:#333;}.cls-14{fill:#545a60;}.cls-15{fill:#211f20;}</style></defs><g id="Layer_2" data-name="Layer 2"><g id="pic"><text class="cls-1" transform="translate(193.3)">010001010<tspan class="cls-2" x="0" y="113.72">1</tspan><tspan x="-18" y="0">001010101</tspan><tspan class="cls-2" x="-18" y="113.72">0</tspan><tspan x="-36" y="0">100101010</tspan><tspan class="cls-2" x="-36" y="113.72">1</tspan><tspan x="-54" y="0">000100101</tspan><tspan class="cls-2" x="-54" y="113.72">0</tspan><tspan x="-72" y="0">010001010</tspan><tspan class="cls-2" x="-72" y="113.72">1</tspan><tspan x="-90" y="0">001010101</tspan><tspan class="cls-2" x="-90" y="113.72">0</tspan><tspan x="-108" y="0">100101010</tspan><tspan class="cls-2" x="-108" y="113.72">1</tspan><tspan x="-126" y="0">000100101</tspan><tspan class="cls-2" x="-126" y="113.72">0</tspan></text><path class="cls-3" d="M147.29,44.86c-6.21-7.18-37.23-18.23-37.23-18.23l-1.34,3.06,0,0-4,8.56S134,55.19,144,53.93c2.74-.35,4.22-3.82,4.43-6.39A2.78,2.78,0,0,0,147.29,44.86Z"/><rect class="cls-3" x="138.51" y="39.65" width="12.18" height="7.07" transform="translate(244.33 -70.07) rotate(114.74)"/><rect class="cls-3" x="146.5" y="34.03" width="1.37" height="7.07" transform="translate(242.9 -80.39) rotate(114.74)"/><rect class="cls-3" x="146.88" y="35.14" width="1.77" height="2.36" transform="translate(242.58 -82.68) rotate(114.74)"/><rect class="cls-3" x="147.06" y="26.35" width="4.24" height="13.78" transform="translate(241.79 -88.35) rotate(114.74)"/><rect class="cls-3" x="147.17" y="32.07" width="2.75" height="5.11" transform="translate(242.15 -85.8) rotate(114.74)"/><rect class="cls-3" x="103.83" y="23.6" width="3.93" height="2.55" transform="translate(172.65 -60.8) rotate(114.74)"/><rect class="cls-3" x="96.82" y="25.68" width="12.76" height="9.62" transform="translate(174.08 -50.48) rotate(114.74)"/><rect class="cls-3" x="105.96" y="21.53" width="1.37" height="2.95" transform="translate(172.17 -64.24) rotate(114.74)"/><rect class="cls-3" x="133.48" y="44.29" width="8.64" height="12.18" transform="translate(34.38 154.46) rotate(-65.26)"/><path class="cls-3" d="M105.72,27.42a12.44,12.44,0,0,0-22.56,10.5,2.14,2.14,0,0,0,.1.22h0c.07.16.15.32.23.48,5.39,10.88,11,16.74,17.63,30.39l.76,1.64.29.62c6.2,13.85,7,21.93,11.9,33.06l.21.48c0,.08.07.15.11.22A12.44,12.44,0,0,0,137,94.53l-.1-.22c-.08-.16-.15-.32-.23-.47C131.23,83,125.59,77.1,119,63.44l-.29-.61-.76-1.64c-6.2-13.85-7-21.94-11.9-33.06-.07-.17-.14-.33-.22-.49h0C105.79,27.56,105.75,27.49,105.72,27.42Z"/><circle class="cls-3" cx="94.64" cy="33.1" r="10.41"/><path class="cls-3" d="M108.33,112.9c2.71-1.81.64-10.06,1.48-16.45a12,12,0,0,1,.27-1.59,2.93,2.93,0,0,1,0-.29,7.23,7.23,0,0,1,.66-1.84c2.18-5,7.56-8.45,13.86-8.45,8.23,0,14.9,6,14.9,13.35a12.59,12.59,0,0,1-.14,1.85c-.6,5.76-10.27,19.53-10.27,19.53H109.68l-1.13-6.11"/><path class="cls-3" d="M112,111.09c.72-1.55-.7-6.33,0-12.71a13.69,13.69,0,0,1,.24-1.6,2.74,2.74,0,0,1,.05-.28,8,8,0,0,1,.59-1.85,13.35,13.35,0,0,1,25.77,4.9,14.13,14.13,0,0,1-.13,1.85c-.54,5.76-4.39,9.87-3.57,12.19.51,1.43,3.58,1.6,3.58,1.6l-.68,5.74H108.67l-.23-8C110.59,112.9,111.15,112.79,112,111.09Z"/><polygon class="cls-3" points="109.34 142.66 136.5 142.66 137.85 120.93 108.67 120.93 109.34 142.66"/><circle class="cls-3" cx="125.3" cy="99.55" r="10.41"/><rect class="cls-3" x="149.14" y="33.83" width="15.39" height="4.1" transform="translate(52.67 158.49) rotate(-62.54)"/><path class="cls-3" d="M171.13,38.13l3,1.57,1.1-2.12-7.66-6.76-4.84-2.51L159,35.48l2.06,1.07,5-3.65,1.26.67Z"/><path class="cls-3" d="M158.84,48.38l9.93,2.38,1.1-2.12-3-1.56-6-.52-1.18-.62.12-6.17-2.06-1.07L154,45.87Z"/><circle class="cls-3" cx="159.62" cy="37.42" r="4.08" transform="translate(2.12 82.93) rotate(-29.31)"/><path class="cls-3" d="M158.69,39.22a2,2,0,1,0-.86-2.73A2,2,0,0,0,158.69,39.22Z"/><circle class="cls-4" cx="12.24" cy="48.25" r="1.53"/><path class="cls-4" d="M3.88,43.6a9.72,9.72,0,0,1,1.59-2.12,9.59,9.59,0,0,1,13.54,0,10.1,10.1,0,0,1,1.6,2.12"/><path class="cls-4" d="M5.5,45.23a7.39,7.39,0,0,1,13.48,0"/><path class="cls-4" d="M7.21,46.94a5.2,5.2,0,0,1,10.06,0"/><line class="cls-4" x1="12.33" y1="52.08" x2="12.33" y2="62.31"/><path class="cls-5" d="M63.33,81.72c-6-7-36-17.64-36-17.64L26,67,26,67,22.14,75.3s28.37,16.41,38,15.19c2.64-.33,4.08-3.69,4.28-6.18A2.69,2.69,0,0,0,63.33,81.72Z"/><rect class="cls-6" x="54.83" y="76.68" width="11.78" height="6.84" transform="translate(158.88 58.47) rotate(114.74)"/><rect class="cls-7" x="62.56" y="71.24" width="1.33" height="6.84" transform="translate(157.5 48.48) rotate(114.74)"/><rect class="cls-8" x="62.93" y="72.32" width="1.71" height="2.28" transform="translate(157.19 46.26) rotate(114.74)"/><rect class="cls-9" x="63.11" y="63.81" width="4.1" height="13.33" transform="translate(156.43 40.78) rotate(114.74)"/><rect class="cls-9" x="63.21" y="69.35" width="2.66" height="4.94" transform="translate(156.77 43.25) rotate(114.74)"/><rect class="cls-6" x="21.28" y="61.15" width="3.8" height="2.47" transform="translate(89.53 67.44) rotate(114.74)"/><rect class="cls-5" x="14.5" y="63.16" width="12.35" height="9.31" transform="translate(90.92 77.42) rotate(114.74)"/><rect class="cls-10" x="23.35" y="59.15" width="1.33" height="2.85" transform="translate(89.07 64.11) rotate(114.74)"/><rect class="cls-9" x="49.97" y="81.17" width="8.36" height="11.78" transform="translate(-47.58 99.81) rotate(-65.26)"/><path class="cls-6" d="M23.11,64.84A12,12,0,0,0,1.28,75a2.14,2.14,0,0,0,.1.22h0c.07.16.14.31.22.46,5.21,10.53,10.67,16.2,17.06,29.41l.74,1.59.27.59c6,13.4,6.82,21.22,11.52,32,.06.16.13.31.2.47l.11.21a12,12,0,0,0,21.82-10.16l-.09-.21c-.07-.16-.15-.31-.23-.46-5.21-10.53-10.67-16.2-17-29.41l-.28-.6-.74-1.58c-6-13.4-6.82-21.23-11.51-32l-.21-.47h0Z"/><path class="cls-11" d="M21.43,86.6a4.32,4.32,0,0,0-7.84,3.65.25.25,0,0,0,0,.07h0a1.3,1.3,0,0,0,.08.17c1.87,3.78,3.83,5.81,6.12,10.56l.27.57.1.21c2.15,4.81,2.44,7.62,4.13,11.49a1.19,1.19,0,0,0,.08.16l0,.08a4.32,4.32,0,0,0,7.84-3.65.25.25,0,0,0,0-.07,1.3,1.3,0,0,0-.08-.17c-1.87-3.78-3.83-5.81-6.12-10.56l-.1-.21-.26-.57c-2.16-4.81-2.45-7.62-4.14-11.49l-.07-.16h0A.59.59,0,0,1,21.43,86.6Z"/><circle class="cls-12" cx="12.39" cy="70.34" r="10.07"/><path class="cls-10" d="M25.63,147.55c2.63-1.75.62-9.74,1.44-15.91a11.38,11.38,0,0,1,.25-1.55l.06-.27A6.65,6.65,0,0,1,28,128c2.11-4.79,7.31-8.18,13.41-8.18,8,0,14.41,5.78,14.41,12.92a11.66,11.66,0,0,1-.14,1.78c-.58,5.58-9.93,18.9-9.93,18.9H26.94l-1.09-5.91"/><path class="cls-6" d="M29.13,145.8c.7-1.5-.67-6.13.06-12.3a13.14,13.14,0,0,1,.22-1.55c0-.09,0-.18.05-.27A7.86,7.86,0,0,1,30,129.9,12.92,12.92,0,0,1,55,134.64a13.08,13.08,0,0,1-.13,1.78c-.52,5.58-4.25,9.55-3.45,11.79.49,1.39,3.47,1.56,3.47,1.56l-.66,5.55H26l-.22-7.77C27.82,147.55,28.37,147.44,29.13,145.8Z"/><polygon class="cls-13" points="26.62 176.34 52.89 176.34 54.2 155.32 25.96 155.32 26.62 176.34"/><circle class="cls-12" cx="42.05" cy="134.64" r="10.07"/><ellipse class="cls-11" cx="39.86" cy="149.74" rx="4.82" ry="1.97"/><rect class="cls-14" x="65.12" y="71.05" width="14.89" height="3.97" transform="translate(-25.7 103.74) rotate(-62.54)"/><path class="cls-15" d="M71,80.88l-4-2,7.09-13.64,4,2Zm-3.3-2.26,3.09,1.61,6.65-12.79-3.1-1.61Z"/><polygon class="cls-14" points="76.69 73.94 74.37 72.74 78.18 65.4 83.09 67.95 90.65 74.63 89.4 77.03 86.25 75.39 82.53 70.94 81.5 70.41 76.69 73.94"/><path class="cls-15" d="M89.5,77.34l-3.43-1.8-3.69-4.42-.86-.44-4.81,3.53-2.65-1.37,4-7.75,5.16,2.69,7.7,6.79Zm-3.11-2.13,2.92,1.52,1.06-2L83,68.14l-4.68-2.43-3.6,6.93,2,1,4.81-3.54,1.22.66Z"/><polygon class="cls-14" points="73.33 75.46 75.65 76.66 75.52 82.63 76.55 83.16 82.33 83.64 85.48 85.28 84.24 87.69 74.42 85.34 69.52 82.79 73.33 75.46"/><path class="cls-15" d="M84.36,88l-10-2.41-5.11-2.65,4-7.74,2.65,1.38-.13,6,.86.45,5.82.5,3.36,1.75ZM74.5,85.13l9.62,2.3,1.06-2.05-2.92-1.51-5.82-.51-1.15-.59.13-6-2-1-3.6,6.94Z"/><circle class="cls-14" cx="75.26" cy="74.52" r="3.94" transform="translate(-26.85 46.38) rotate(-29.31)"/><path class="cls-15" d="M77.28,78.17A4.17,4.17,0,1,1,79,76.45,4.1,4.1,0,0,1,77.28,78.17Zm-3.82-6.9A3.77,3.77,0,0,0,72,72.81a3.72,3.72,0,0,0,5.1,5,3.77,3.77,0,0,0,1.5-1.54,3.72,3.72,0,0,0-5.1-5Z"/><path class="cls-14" d="M74.36,76.26a2,2,0,1,0-.84-2.64A1.95,1.95,0,0,0,74.36,76.26Z"/><path class="cls-15" d="M76.32,76.43a2.18,2.18,0,0,1-3-2.91,2.18,2.18,0,0,1,3.88,2A2.18,2.18,0,0,1,76.32,76.43ZM74.42,73a1.65,1.65,0,0,0-.69.72,1.73,1.73,0,0,0,.73,2.33,1.76,1.76,0,0,0,1.64,0,1.84,1.84,0,0,0,.69-.72A1.73,1.73,0,0,0,74.42,73Z"/></g></g></svg>