<svg xmlns="http://www.w3.org/2000/svg" viewBox="0 0 139.7 88.39"><defs><style>.cls-1,.cls-11,.cls-25{fill:none;}.cls-1,.cls-17,.cls-18,.cls-22{stroke:#1d1d1b;}.cls-1,.cls-17,.cls-18,.cls-26,.cls-27,.cls-9{stroke-linecap:round;stroke-linejoin:round;}.cls-1,.cls-10,.cls-11,.cls-14,.cls-17,.cls-18,.cls-2,.cls-22,.cls-25,.cls-26,.cls-27,.cls-3,.cls-4,.cls-5,.cls-6,.cls-8,.cls-9{stroke-width:0.5px;}.cls-2{fill:#72acaf;}.cls-10,.cls-2,.cls-26,.cls-27,.cls-3,.cls-4,.cls-5,.cls-6,.cls-8,.cls-9{stroke:#000;}.cls-10,.cls-11,.cls-14,.cls-2,.cls-22,.cls-25,.cls-3,.cls-4,.cls-5,.cls-6,.cls-8{stroke-miterlimit:10;}.cls-3{fill:#577c7c;}.cls-4{fill:#03a5ed;}.cls-5{fill:#f2f2f2;}.cls-6{fill:#ccc;}.cls-7{fill:#2d313a;}.cls-8{fill:#f0d283;}.cls-9{fill:#25bfe8;}.cls-10{fill:#f15a24;}.cls-11{stroke:#9d9d9c;}.cls-12{fill:#9d9d9c;}.cls-13{fill:#c6c6c6;}.cls-14,.cls-16{fill:#fff;}.cls-14{stroke:#b2b2b2;}.cls-15{fill:#535974;}.cls-17{fill:#ff6f0d;}.cls-18,.cls-23{fill:#7a779f;}.cls-19{fill:#be1622;}.cls-20{fill:#f9b233;}.cls-21{fill:#36a8a8;}.cls-22,.cls-24{fill:#474a75;}.cls-25{stroke:#7a84aa;stroke-dasharray:3 2;}.cls-26{fill:#ffd86c;}.cls-27{fill:#937428;}</style></defs><g id="Layer_2" data-name="Layer 2"><g id="pic"><circle class="cls-1" cx="65.26" cy="23.93" r="1.99"/><path class="cls-1" d="M54.39,17.88a12.46,12.46,0,0,1,21.74,0"/><path class="cls-1" d="M56.51,20a9.45,9.45,0,0,1,2-2.86,9.6,9.6,0,0,1,13.56,0A9.45,9.45,0,0,1,74,20"/><path class="cls-1" d="M58.73,22.22a6.75,6.75,0,0,1,13.06,0"/><line class="cls-1" x1="65.37" y1="28.9" x2="65.37" y2="49.31"/><circle class="cls-2" cx="36.31" cy="79.73" r="7.27"/><path class="cls-3" d="M36.31,88.1a8.5,8.5,0,0,1-8.49-8.55,8.53,8.53,0,1,1,17,.11A8.44,8.44,0,0,1,36.31,88.1Zm0-14.61a6,6,0,0,0-6.14,6.23,6.23,6.23,0,0,0,6.16,6.11,6.34,6.34,0,0,0,6.19-6.31A6.16,6.16,0,0,0,36.35,73.49Z"/><path class="cls-4" d="M48.3,40.45,39.39,42.2s-.94.42-.67,3.6.39,14,1.19,14.5a37.72,37.72,0,0,0,5.35,1.57Z"/><path class="cls-5" d="M48,69.07,35.93,75.19a4.72,4.72,0,0,0-1.33,5.59c1.47,3.46,6,2.37,6,2.37l13.69-4.26Z"/><path class="cls-4" d="M44,72s-3-.49-4.23-1.57-1.61-1.57-3.22-1.85-4.22-.18-5.69-1.37-2.31-2.13-2-2.65.8-1.33,1.75-1.05S49.23,68,49.23,68l.8,3.46Z"/><path class="cls-5" d="M116.78,69.6s.28-2.94-.38-3.6-9.71-4-9.71-4a4.88,4.88,0,0,0-.67-4c-1.33-2-7.41-13.31-27.11-20.09s-27.15-2.24-29.14-.53-6.78,6-7.59,8.25.28,14.64.81,15.69,8.24,9.57,8.24,9.57L61,79.69,93.37,81.3l18.1-12.89Z"/><path class="cls-6" d="M45.36,57.89s-1.67,3.28-.77,5.17,7.69,18.76,9,19.57,4.51.56,5.59.28,2.27-1.43,3.46-1.33,15.69,2.52,26.21,1.71S98,80.88,101,81.82c0,0,3.31-10.41,8.24-11.18s5.16,3.1,5.82,4.56,6.31.37,6.31.37,1.29-1.68.9-2.24-.76-2-1.57-2.55-4.12-2.37-4.12-2.37-15.44-4.93-16.63-4.13S91,79.69,89,80.5s-22.05.38-23.28-.67S49.24,60.3,48.44,59,48,54.36,47,55.13A7.25,7.25,0,0,0,45.36,57.89Z"/><path class="cls-7" d="M64.41,40.07s-8.39,2.45-11,6.53-4.93,7.94-.67,14.47a218.89,218.89,0,0,0,14.08,18.1C67.87,80.36,87.54,82,89,80.5S99.59,65.19,99.49,62.68s-7-13.56-13.94-17S67.62,40.07,64.41,40.07Z"/><path class="cls-4" d="M100.55,57.49c-6.14-8.77-14.08-16.49-25.5-19s-16.11-.94-22.51,4.93S47,55.11,47,55.11c.14,4.93,16.07,25,18.2,26.17s22.75,1.33,24.46.81S101.5,64,101.5,64,103.24,61.33,100.55,57.49Zm-4,7.13s-7.36,14.12-8.77,14.55-18.29.59-20-.39S51.93,60,51.81,55.94c0,0-.69-4.81,4.58-9.65s8.83-5.64,18.25-3.56S90.71,52,95.78,59.23C98,62.4,96.55,64.62,96.55,64.62Z"/><path class="cls-8" d="M103.89,57.37s-.17,3.07-.94,4.26,1.08,1.15,1.88,1.43A1.48,1.48,0,0,0,106.69,62c.28-.8.94-1.71-.67-4S103.89,57.37,103.89,57.37Z"/><path class="cls-9" d="M82,39.07s13.66,4.15,22.19,16.15c0,0-1,.78-3-.27s-6.87-7.27-9.8-9.27S81,39.75,82,39.07Z"/><path class="cls-9" d="M64.46,34.53a59.18,59.18,0,0,1,14.45,3.41,6.79,6.79,0,0,1-2.81-.13c-1.7-.4-9-1-10.37-1.58A1.87,1.87,0,0,1,64.46,34.53Z"/><path class="cls-10" d="M46.2,67.64a1.53,1.53,0,0,0,1.6-1.77c-.17-1.8-1.07-3.19-.9-5.5s-.94-2-1.54-2.48S42.29,62.16,46.2,67.64Z"/><circle class="cls-2" cx="112.83" cy="79.77" r="7.27"/><path class="cls-3" d="M112.83,88.14a8.5,8.5,0,0,1-8.49-8.55,8.53,8.53,0,1,1,17,.11A8.44,8.44,0,0,1,112.83,88.14Zm0-14.61a6,6,0,0,0-6.14,6.22,6.22,6.22,0,0,0,6.16,6.11,6.34,6.34,0,0,0,6.19-6.31A6.15,6.15,0,0,0,112.87,73.53Z"/><path class="cls-4" d="M101.1,83.29c.41.28,1.32.95,2.93-.66s1.71-2.31,1.85-3.08-.1-4,2.41-6.5,6.47-1.71,7-1.85,3-1.6,1.46-1.6-6.6-2.8-12.47,2S101.1,83.29,101.1,83.29Z"/><polyline class="cls-11" points="67.65 53.44 67.65 49.97 64.84 47.16 64.84 39.91"/><line class="cls-11" x1="84.08" y1="61.81" x2="88.17" y2="61.81"/><polyline class="cls-11" points="69.44 52.54 69.44 46.87 68.78 46.2 68.78 42.89"/><line class="cls-11" x1="71.23" y1="52.83" x2="71.23" y2="45.16"/><polyline class="cls-11" points="73.02 52.84 73.02 49.35 72.34 48.67 72.34 46.81"/><line class="cls-11" x1="74.81" y1="52.83" x2="74.81" y2="49.35"/><line class="cls-11" x1="76.6" y1="52.83" x2="76.6" y2="49.35"/><line class="cls-11" x1="78.39" y1="52.83" x2="78.39" y2="49.35"/><line class="cls-11" x1="84.08" y1="60.02" x2="87.05" y2="60.02"/><line class="cls-11" x1="84.08" y1="63.61" x2="87.05" y2="63.61"/><line class="cls-11" x1="84.08" y1="67.2" x2="90.22" y2="67.2"/><line class="cls-11" x1="84.08" y1="68.97" x2="87.05" y2="68.97"/><polyline class="cls-11" points="84.08 65.38 88.67 65.38 92.31 61.74 94.95 61.74"/><polyline class="cls-11" points="84.08 58.22 89 58.22 93.81 53.42"/><polyline class="cls-11" points="65.54 58.22 60.45 58.22 59.24 57.02 53.42 57.02"/><polyline class="cls-11" points="65.54 56.42 60.45 56.42 59.24 55.22 57.58 55.22"/><polyline class="cls-11" points="65.7 54.62 63.65 54.62 62.45 53.42 60.79 53.42"/><line class="cls-11" x1="76.6" y1="71.08" x2="76.6" y2="76.93"/><line class="cls-11" x1="80.19" y1="71.08" x2="80.19" y2="76.93"/><circle class="cls-12" cx="63.29" cy="62.49" r="0.35"/><circle class="cls-12" cx="94.02" cy="55.74" r="0.35"/><circle class="cls-12" cx="94.98" cy="56.71" r="0.35"/><circle class="cls-12" cx="93.02" cy="56.73" r="0.35"/><circle class="cls-12" cx="93.99" cy="57.7" r="0.35"/><circle class="cls-12" cx="91.17" cy="58.59" r="0.35"/><circle class="cls-12" cx="92.14" cy="59.55" r="0.35"/><circle class="cls-12" cx="90.18" cy="59.58" r="0.35"/><circle class="cls-12" cx="91.14" cy="60.54" r="0.35"/><circle class="cls-12" cx="63.29" cy="59.8" r="0.35"/><circle class="cls-12" cx="62.13" cy="62.49" r="0.35"/><circle class="cls-12" cx="62.13" cy="60.82" r="0.35"/><circle class="cls-11" cx="88.92" cy="61.83" r="0.71"/><circle class="cls-11" cx="80.19" cy="77.64" r="0.71"/><circle class="cls-11" cx="87.62" cy="63.6" r="0.71"/><circle class="cls-11" cx="68.78" cy="42.18" r="0.71"/><circle class="cls-12" cx="76.6" cy="76.93" r="0.43"/><circle class="cls-12" cx="60.79" cy="53.42" r="0.43"/><circle class="cls-12" cx="57.58" cy="55.22" r="0.43"/><circle class="cls-12" cx="53.42" cy="57.02" r="0.43"/><circle class="cls-12" cx="86.91" cy="60.02" r="0.43"/><circle class="cls-12" cx="90.22" cy="67.2" r="0.43"/><circle class="cls-12" cx="87.05" cy="68.97" r="0.43"/><circle class="cls-12" cx="72.34" cy="46.81" r="0.43"/><circle class="cls-12" cx="71.23" cy="45.16" r="0.43"/><circle class="cls-12" cx="64.84" cy="39.79" r="0.43"/><circle class="cls-12" cx="76.6" cy="49.35" r="0.43"/><circle class="cls-12" cx="78.39" cy="49.35" r="0.43"/><circle class="cls-12" cx="74.81" cy="49.35" r="0.43"/><rect class="cls-13" x="81.55" y="70.18" width="0.86" height="1.8" transform="translate(163.96 142.15) rotate(180)"/><rect class="cls-13" x="79.76" y="70.18" width="0.86" height="1.8" transform="translate(160.37 142.15) rotate(180)"/><rect class="cls-13" x="77.97" y="70.18" width="0.86" height="1.8" transform="translate(156.79 142.15) rotate(180)"/><rect class="cls-13" x="76.18" y="70.18" width="0.86" height="1.8" transform="translate(153.21 142.15) rotate(180)"/><rect class="cls-13" x="74.38" y="70.18" width="0.86" height="1.8" transform="translate(149.62 142.15) rotate(180)"/><rect class="cls-13" x="72.59" y="70.18" width="0.86" height="1.8" transform="translate(146.04 142.15) rotate(180)"/><rect class="cls-13" x="70.8" y="70.18" width="0.86" height="1.8" transform="translate(142.46 142.15) rotate(180)"/><rect class="cls-13" x="69.01" y="70.18" width="0.86" height="1.8" transform="translate(138.87 142.15) rotate(180)"/><rect class="cls-13" x="67.22" y="70.18" width="0.86" height="1.8" transform="translate(135.29 142.15) rotate(180)"/><rect class="cls-13" x="77.97" y="51.64" width="0.86" height="1.8" transform="translate(156.79 105.08) rotate(180)"/><rect class="cls-13" x="76.18" y="51.64" width="0.86" height="1.8" transform="translate(153.21 105.08) rotate(180)"/><rect class="cls-13" x="74.38" y="51.64" width="0.86" height="1.8" transform="translate(149.62 105.08) rotate(180)"/><rect class="cls-13" x="72.59" y="51.64" width="0.86" height="1.8" transform="translate(146.04 105.08) rotate(180)"/><rect class="cls-13" x="70.8" y="51.64" width="0.86" height="1.8" transform="translate(142.46 105.08) rotate(180)"/><rect class="cls-13" x="69.01" y="51.64" width="0.86" height="1.8" transform="translate(138.87 105.08) rotate(180)"/><rect class="cls-13" x="67.22" y="51.64" width="0.86" height="1.8" transform="translate(135.29 105.08) rotate(180)"/><rect class="cls-13" x="65.12" y="68.07" width="0.86" height="1.8" transform="translate(-3.43 134.52) rotate(-90)"/><rect class="cls-13" x="65.12" y="66.28" width="0.86" height="1.8" transform="translate(-1.64 132.72) rotate(-90)"/><rect class="cls-13" x="65.12" y="64.49" width="0.86" height="1.8" transform="translate(0.15 130.93) rotate(-90)"/><rect class="cls-13" x="65.12" y="62.7" width="0.86" height="1.8" transform="translate(1.94 129.14) rotate(-90)"/><rect class="cls-13" x="65.12" y="60.91" width="0.86" height="1.8" transform="translate(3.74 127.35) rotate(-90)"/><rect class="cls-13" x="65.12" y="59.12" width="0.86" height="1.8" transform="translate(5.53 125.56) rotate(-90)"/><rect class="cls-13" x="65.12" y="57.33" width="0.86" height="1.8" transform="translate(7.32 123.77) rotate(-90)"/><rect class="cls-13" x="65.12" y="55.53" width="0.86" height="1.8" transform="translate(9.11 121.98) rotate(-90)"/><rect class="cls-13" x="65.12" y="53.74" width="0.86" height="1.8" transform="translate(10.9 120.18) rotate(-90)"/><rect class="cls-13" x="83.65" y="68.07" width="0.86" height="1.8" transform="translate(15.11 153.05) rotate(-90)"/><rect class="cls-13" x="83.65" y="66.28" width="0.86" height="1.8" transform="translate(16.9 151.26) rotate(-90)"/><rect class="cls-13" x="83.65" y="64.49" width="0.86" height="1.8" transform="translate(18.69 149.47) rotate(-90)"/><rect class="cls-13" x="83.65" y="62.7" width="0.86" height="1.8" transform="translate(20.48 147.68) rotate(-90)"/><rect class="cls-13" x="83.65" y="60.91" width="0.86" height="1.8" transform="translate(22.27 145.89) rotate(-90)"/><rect class="cls-13" x="83.65" y="59.12" width="0.86" height="1.8" transform="translate(24.07 144.1) rotate(-90)"/><rect class="cls-13" x="83.65" y="57.33" width="0.86" height="1.8" transform="translate(25.86 142.3) rotate(-90)"/><rect class="cls-14" x="66.44" y="53.44" width="16.74" height="16.74" rx="0.72" transform="translate(149.62 123.61) rotate(180)"/><path class="cls-15" d="M78.35,61.94l1.33-.14v-.46l-1.33-.14,0-.24c0-.08,0-.16,0-.24l1.19-.59a3.52,3.52,0,0,0-.15-.42L78,60c-.08-.15-.16-.29-.25-.43l.92-1c-.09-.12-.19-.23-.29-.35L77.3,59a3.79,3.79,0,0,0-.38-.32l.54-1.21a4,4,0,0,0-.39-.23l-.79,1.07-.46-.17.09-1.32a3,3,0,0,0-.45-.08l-.36,1.28a4.17,4.17,0,0,0-.5,0l-.36-1.28-.23,0-.22,0,.09,1.33a3.57,3.57,0,0,0-.46.16l-.79-1.07-.39.22.54,1.22a3.79,3.79,0,0,0-.38.32l-1.1-.74c-.1.11-.2.22-.29.34l.92,1c-.09.14-.17.28-.25.43l-1.29-.32a3.12,3.12,0,0,0-.15.43l1.19.58a2.67,2.67,0,0,0-.08.48L70,61.34v.46l1.33.14,0,.24c0,.08,0,.16.05.24L70.24,63a3.66,3.66,0,0,0,.15.43l1.29-.32c.08.14.16.29.25.42l-.92,1c.09.12.19.24.29.35l1.1-.74c.12.11.25.21.38.31l-.54,1.22c.13.08.26.16.4.23l.78-1.08a3.61,3.61,0,0,0,.46.17l-.09,1.33.45.08.37-1.28h.49l.36,1.27.23,0,.22,0L75.82,65a3.12,3.12,0,0,0,.46-.17l.79,1.08.39-.23-.54-1.22c.13-.1.26-.2.38-.31l1.1.74c.1-.11.2-.23.29-.35l-.92-1c.09-.14.17-.28.25-.42l1.29.32a3.66,3.66,0,0,0,.15-.43l-1.19-.59A2.53,2.53,0,0,0,78.35,61.94Zm-6,.71a2.75,2.75,0,0,1-.22-1,2.71,2.71,0,0,1,2.26-2.73l0,1.52a1.23,1.23,0,0,0-.8,1.18,1,1,0,0,0,0,.24Zm2.55,1.65a2.7,2.7,0,0,1-2.14-1l1.3-.79a1.21,1.21,0,0,0,.81.28,1.22,1.22,0,0,0,.79-.32l1.34.74A2.72,2.72,0,0,1,74.91,64.3Zm2.48-1.76-1.34-.73a1.06,1.06,0,0,0,0-.25,1.23,1.23,0,0,0-.85-1.14l0-1.52a2.71,2.71,0,0,1,2.38,2.63A2.62,2.62,0,0,1,77.39,62.54Z"/><path class="cls-16" d="M75.43,61.58a.57.57,0,0,1-.57.59.58.58,0,0,1-.59-.57.57.57,0,0,1,.57-.59A.57.57,0,0,1,75.43,61.58Z"/><path class="cls-17" d="M107.47,7.23c0,3.85-5.9,13.23-7,13.23-1.57,0-7-9.38-7-13.23a7,7,0,1,1,14,0Z"/><circle class="cls-16" cx="100.5" cy="7" r="3.35"/><rect class="cls-18" x="127.31" y="18.66" width="12.15" height="31.35" rx="2.29"/><circle class="cls-19" cx="133.38" cy="24.41" r="3.95"/><circle class="cls-20" cx="133.38" cy="34.64" r="3.95"/><circle class="cls-21" cx="133.38" cy="44.26" r="3.95"/><rect class="cls-22" x="0.25" y="33.19" width="11.51" height="19.41" rx="0.58"/><rect class="cls-23" x="0.88" y="34.16" width="10.25" height="15.7" rx="0.46"/><rect class="cls-24" x="4.09" y="33.96" width="3.82" height="0.81"/><rect class="cls-23" x="4.8" y="50.58" width="2.4" height="0.87"/><line class="cls-25" x1="89.43" y1="33.8" x2="99.64" y2="23.58"/><line class="cls-25" x1="105.16" y1="48.1" x2="124.95" y2="42.67"/><line class="cls-25" x1="49.08" y1="33.8" x2="38.86" y2="23.58"/><line class="cls-25" x1="33.35" y1="48.1" x2="13.55" y2="42.67"/><polygon class="cls-26" points="14.59 2.47 14.59 4.99 11.41 4.99 11.41 15.72 14.59 15.72 14.59 18.24 39.86 18.24 39.86 2.47 14.59 2.47"/><rect class="cls-27" x="17.79" y="4.33" width="3.62" height="12.06"/><rect class="cls-27" x="23.23" y="4.33" width="3.62" height="12.06"/><rect class="cls-27" x="28.67" y="4.33" width="3.62" height="12.06"/><rect class="cls-27" x="34.1" y="4.33" width="3.62" height="12.06"/></g></g></svg>