<svg xmlns="http://www.w3.org/2000/svg" xmlns:xlink="http://www.w3.org/1999/xlink" viewBox="0 0 181.44 107.07"><defs><style>.cls-1,.cls-11,.cls-16{fill:none;}.cls-2{fill:#7a779f;}.cls-3{fill:#1717b0;}.cls-3,.cls-6{stroke:#000;}.cls-11,.cls-15,.cls-16,.cls-3,.cls-5,.cls-6{stroke-miterlimit:10;stroke-width:0.5px;}.cls-4{fill:#3a3a38;}.cls-5{fill:#221363;stroke:#008fd1;}.cls-6{fill:#2849d3;}.cls-7{fill:#008fd1;}.cls-8{fill:#535974;}.cls-9{fill:#b2c1f3;}.cls-10{clip-path:url(#clip-path);}.cls-11{stroke:#b2c1f3;}.cls-12{clip-path:url(#clip-path-2);}.cls-13{clip-path:url(#clip-path-3);}.cls-14{clip-path:url(#clip-path-4);}.cls-15{fill:#fff;stroke:#00bdff;}.cls-16{stroke:#03a5ed;stroke-dasharray:3 2;}</style><clipPath id="clip-path" transform="translate(14.38)"><polygon class="cls-1" points="148.21 30.63 120.15 3.8 120.15 57.46 148.21 30.63"/></clipPath><clipPath id="clip-path-2" transform="translate(14.38)"><polygon class="cls-1" points="148.21 81.3 120.15 54.46 120.15 108.13 148.21 81.3"/></clipPath><clipPath id="clip-path-3" transform="translate(14.38)"><polygon class="cls-1" points="4.47 30.63 32.53 3.8 32.53 57.46 4.47 30.63"/></clipPath><clipPath id="clip-path-4" transform="translate(14.38)"><polygon class="cls-1" points="4.47 81.3 32.53 54.46 32.53 108.13 4.47 81.3"/></clipPath></defs><g id="Layer_2" data-name="Layer 2"><g id="pic"><path class="cls-2" d="M86.29,80.85l.34-16H85.44v3H84.2v-3H83l.33,16h.86v3.9a1.33,1.33,0,0,0-.72,1.18,1.34,1.34,0,0,0,.72,1.19v.31a1.34,1.34,0,0,0,0,2.37v.32a1.33,1.33,0,0,0,0,2.36v.32a1.34,1.34,0,0,0,0,2.37v.32a1.33,1.33,0,0,0,0,2.36v.32a1.33,1.33,0,0,0-.72,1.18,1.34,1.34,0,0,0,.72,1.19v.31a1.34,1.34,0,0,0-.72,1.19,1.33,1.33,0,0,0,.72,1.18v.63a5.61,5.61,0,0,0-.72,2.51c0,.94,2.68.94,2.68,0a5.61,5.61,0,0,0-.72-2.51v-.63a1.33,1.33,0,0,0,.72-1.18,1.34,1.34,0,0,0-.72-1.19v-.31a1.34,1.34,0,0,0,.72-1.19,1.33,1.33,0,0,0-.72-1.18v-.32a1.33,1.33,0,0,0,0-2.36v-.32a1.34,1.34,0,0,0,0-2.37v-.32a1.33,1.33,0,0,0,0-2.36V89.8a1.34,1.34,0,0,0,0-2.37v-.31a1.34,1.34,0,0,0,.72-1.19,1.33,1.33,0,0,0-.72-1.18v-3.9Z" transform="translate(14.38)"/><path class="cls-2" d="M70.27,80.85l.33-16H69.41v3H68.17v-3H67l.34,16h.85v3.9a1.33,1.33,0,0,0-.72,1.18,1.34,1.34,0,0,0,.72,1.19v.31a1.34,1.34,0,0,0,0,2.37v.32a1.33,1.33,0,0,0,0,2.36v.32a1.34,1.34,0,0,0,0,2.37v.32a1.33,1.33,0,0,0,0,2.36v.32a1.33,1.33,0,0,0-.72,1.18,1.34,1.34,0,0,0,.72,1.19v.31a1.34,1.34,0,0,0-.72,1.19,1.33,1.33,0,0,0,.72,1.18v.63a5.61,5.61,0,0,0-.72,2.51c0,.94,2.68.94,2.68,0a5.61,5.61,0,0,0-.72-2.51v-.63a1.33,1.33,0,0,0,.72-1.18,1.34,1.34,0,0,0-.72-1.19v-.31a1.34,1.34,0,0,0,.72-1.19,1.33,1.33,0,0,0-.72-1.18v-.32a1.33,1.33,0,0,0,0-2.36v-.32a1.34,1.34,0,0,0,0-2.37v-.32a1.33,1.33,0,0,0,0-2.36V89.8a1.34,1.34,0,0,0,0-2.37v-.31a1.34,1.34,0,0,0,.72-1.19,1.33,1.33,0,0,0-.72-1.18v-3.9Z" transform="translate(14.38)"/><path class="cls-2" d="M78.3,80.85l.34-16H77.45v3H76.2v-3H75l.34,16h.85v3.9a1.35,1.35,0,0,0-.72,1.18,1.36,1.36,0,0,0,.72,1.19v.31a1.34,1.34,0,0,0,0,2.37v.32a1.33,1.33,0,0,0,0,2.36v.32a1.34,1.34,0,0,0,0,2.37v.32a1.33,1.33,0,0,0,0,2.36v.32a1.35,1.35,0,0,0-.72,1.18,1.36,1.36,0,0,0,.72,1.19v.31a1.36,1.36,0,0,0-.72,1.19,1.35,1.35,0,0,0,.72,1.18v.63a5.74,5.74,0,0,0-.72,2.51c0,.94,2.69.94,2.69,0a5.74,5.74,0,0,0-.72-2.51v-.63a1.35,1.35,0,0,0,.72-1.18,1.36,1.36,0,0,0-.72-1.19v-.31a1.36,1.36,0,0,0,.72-1.19,1.35,1.35,0,0,0-.72-1.18v-.32a1.33,1.33,0,0,0,0-2.36v-.32a1.34,1.34,0,0,0,0-2.37v-.32a1.33,1.33,0,0,0,0-2.36V89.8a1.34,1.34,0,0,0,0-2.37v-.31a1.36,1.36,0,0,0,.72-1.19,1.35,1.35,0,0,0-.72-1.18v-3.9Z" transform="translate(14.38)"/><rect class="cls-2" x="89.17" y="84.6" width="4.02" height="18.39"/><rect class="cls-3" x="71.49" y="67.51" width="39.39" height="8.14"/><rect class="cls-4" x="91.76" y="43.3" width="5.6" height="2.58"/><path class="cls-5" d="M78.81,24.29A66.1,66.1,0,0,0,78,16.56L77.65,1.15a.94.94,0,0,0-.94-.9h0a.94.94,0,0,0-.93.91l-.23,15.93a68,68,0,0,0-.69,7.2V47.08h4Z" transform="translate(14.38)"/><rect class="cls-6" x="73.1" y="21.12" width="6.73" height="9.53" transform="translate(65.1 102.39) rotate(-90.11)"/><rect class="cls-7" x="98.29" y="36.78" width="6.73" height="2.8" transform="translate(14.31 0.19) rotate(-0.11)"/><rect class="cls-6" x="96.05" y="33.42" width="6.73" height="9.53" transform="translate(14.31 0.18) rotate(-0.11)"/><rect class="cls-7" x="48.11" y="36.78" width="6.73" height="2.8" transform="translate(117.4 76.27) rotate(179.89)"/><rect class="cls-6" x="50.36" y="33.42" width="6.73" height="9.53" transform="translate(121.89 76.26) rotate(179.89)"/><rect class="cls-3" x="53.48" y="24.89" width="46.65" height="44.4" rx="4.71" transform="translate(167.99 94.18) rotate(-180)"/><rect class="cls-8" x="142.06" y="27.63" width="15.24" height="6" rx="0.78" transform="translate(133.42 180.31) rotate(-90)"/><ellipse class="cls-9" cx="164.05" cy="35.06" rx="1.79" ry="1.36"/><ellipse class="cls-9" cx="164.05" cy="26.52" rx="1.79" ry="1.36"/><g class="cls-10"><circle class="cls-11" cx="163.17" cy="30.63" r="5.34"/><circle class="cls-11" cx="163.17" cy="30.63" r="8.68"/><circle class="cls-11" cx="163.17" cy="30.63" r="11.9"/><circle class="cls-11" cx="163.17" cy="30.63" r="14.94"/><circle class="cls-11" cx="163.17" cy="30.63" r="18.02"/></g><rect class="cls-8" x="142.06" y="78.29" width="15.24" height="6" rx="0.78" transform="translate(82.76 230.97) rotate(-90)"/><ellipse class="cls-9" cx="164.05" cy="85.72" rx="1.79" ry="1.36"/><ellipse class="cls-9" cx="164.05" cy="77.18" rx="1.79" ry="1.36"/><g class="cls-12"><circle class="cls-11" cx="163.17" cy="81.3" r="5.34"/><circle class="cls-11" cx="163.17" cy="81.3" r="8.68"/><circle class="cls-11" cx="163.17" cy="81.3" r="11.9"/><circle class="cls-11" cx="163.17" cy="81.3" r="14.94"/><circle class="cls-11" cx="163.17" cy="81.3" r="18.02"/></g><rect class="cls-8" x="-4.62" y="27.63" width="15.24" height="6" rx="0.78" transform="translate(-13.25 33.63) rotate(-90)"/><ellipse class="cls-9" cx="17.38" cy="35.06" rx="1.79" ry="1.36"/><ellipse class="cls-9" cx="17.38" cy="26.52" rx="1.79" ry="1.36"/><g class="cls-13"><circle class="cls-11" cx="18.27" cy="30.63" r="5.34"/><circle class="cls-11" cx="18.27" cy="30.63" r="8.68"/><circle class="cls-11" cx="18.27" cy="30.63" r="11.9"/><circle class="cls-11" cx="18.27" cy="30.63" r="14.94"/><circle class="cls-11" cx="18.27" cy="30.63" r="18.02"/></g><rect class="cls-8" x="-4.62" y="78.29" width="15.24" height="6" rx="0.78" transform="translate(-63.91 84.3) rotate(-90)"/><ellipse class="cls-9" cx="17.38" cy="85.72" rx="1.79" ry="1.36"/><ellipse class="cls-9" cx="17.38" cy="77.18" rx="1.79" ry="1.36"/><g class="cls-14"><circle class="cls-11" cx="18.27" cy="81.3" r="5.34"/><circle class="cls-11" cx="18.27" cy="81.3" r="8.68"/><circle class="cls-11" cx="18.27" cy="81.3" r="11.9"/><circle class="cls-11" cx="18.27" cy="81.3" r="14.94"/><circle class="cls-11" cx="18.27" cy="81.3" r="18.02"/></g><path class="cls-15" d="M82.26,67.09l.2-9.39h-.7v1.75H81V57.7h-.69l.19,9.39H81v2.28a.79.79,0,0,0,0,1.39v.18a.79.79,0,0,0,0,1.39v.18a.8.8,0,0,0-.42.7.78.78,0,0,0,.42.69v.19a.78.78,0,0,0,0,1.38v.19A.78.78,0,0,0,81,77v.19a.78.78,0,0,0,0,1.38v.19a.78.78,0,0,0-.42.69.79.79,0,0,0,.42.7v.37A3.25,3.25,0,0,0,80.61,82c0,.55,1.57.55,1.57,0a3.25,3.25,0,0,0-.42-1.47v-.37a.79.79,0,0,0,.42-.7.78.78,0,0,0-.42-.69v-.19a.78.78,0,0,0,0-1.38V77a.78.78,0,0,0,0-1.38v-.19a.78.78,0,0,0,0-1.38V73.9a.78.78,0,0,0,.42-.69.8.8,0,0,0-.42-.7v-.18a.79.79,0,0,0,0-1.39v-.18a.79.79,0,0,0,0-1.39V67.09Z" transform="translate(14.38)"/><path class="cls-15" d="M72.88,67.09l.19-9.39h-.69v1.75h-.73V57.7H71l.2,9.39h.5v2.28a.79.79,0,0,0,0,1.39v.18a.79.79,0,0,0,0,1.39v.18a.8.8,0,0,0-.42.7.78.78,0,0,0,.42.69v.19a.78.78,0,0,0,0,1.38v.19a.78.78,0,0,0,0,1.38v.19a.78.78,0,0,0,0,1.38v.19a.78.78,0,0,0-.42.69.79.79,0,0,0,.42.7v.37A3.25,3.25,0,0,0,71.23,82c0,.55,1.57.55,1.57,0a3.25,3.25,0,0,0-.42-1.47v-.37a.79.79,0,0,0,.42-.7.78.78,0,0,0-.42-.69v-.19a.78.78,0,0,0,0-1.38V77a.78.78,0,0,0,0-1.38v-.19a.78.78,0,0,0,0-1.38V73.9a.78.78,0,0,0,.42-.69.8.8,0,0,0-.42-.7v-.18a.79.79,0,0,0,0-1.39v-.18a.79.79,0,0,0,0-1.39V67.09Z" transform="translate(14.38)"/><path class="cls-15" d="M77.58,67.09l.2-9.39h-.7v1.75h-.73V57.7h-.69l.19,9.39h.5v2.28a.79.79,0,0,0,0,1.39v.18a.79.79,0,0,0,0,1.39v.18a.8.8,0,0,0-.42.7.78.78,0,0,0,.42.69v.19a.78.78,0,0,0,0,1.38v.19a.78.78,0,0,0,0,1.38v.19a.78.78,0,0,0,0,1.38v.19a.78.78,0,0,0-.42.69.79.79,0,0,0,.42.7v.37A3.25,3.25,0,0,0,75.93,82c0,.55,1.57.55,1.57,0a3.25,3.25,0,0,0-.42-1.47v-.37a.79.79,0,0,0,.42-.7.78.78,0,0,0-.42-.69v-.19a.78.78,0,0,0,0-1.38V77a.78.78,0,0,0,0-1.38v-.19a.78.78,0,0,0,0-1.38V73.9a.78.78,0,0,0,.42-.69.8.8,0,0,0-.42-.7v-.18a.79.79,0,0,0,0-1.39v-.18a.79.79,0,0,0,0-1.39V67.09Z" transform="translate(14.38)"/><rect class="cls-15" x="89.91" y="69.29" width="2.35" height="10.77"/><rect class="cls-15" x="79.55" y="59.28" width="23.06" height="4.77"/><rect class="cls-15" x="91.42" y="47.3" width="3.28" height="1.51"/><path class="cls-15" d="M77.88,36.17a39.14,39.14,0,0,0-.46-4.52l-.22-9a.54.54,0,0,0-.55-.52h0a.54.54,0,0,0-.54.53L76,32a39.26,39.26,0,0,0-.41,4.22V49.51h2.37Z" transform="translate(14.38)"/><rect class="cls-15" x="74.54" y="32.12" width="3.94" height="5.58" transform="translate(56.12 111.48) rotate(-90.11)"/><rect class="cls-15" x="89.29" y="41.29" width="3.94" height="1.64" transform="translate(14.3 0.17) rotate(-0.11)"/><rect class="cls-15" x="87.97" y="39.32" width="3.94" height="5.58" transform="translate(14.3 0.17) rotate(-0.11)"/><rect class="cls-15" x="59.91" y="41.29" width="3.94" height="1.64" transform="translate(138.21 84.1) rotate(179.89)"/><rect class="cls-15" x="61.22" y="39.32" width="3.94" height="5.58" transform="translate(140.84 84.09) rotate(179.89)"/><rect class="cls-15" x="63.05" y="34.33" width="27.31" height="26" rx="4.71" transform="translate(167.79 94.65) rotate(-180)"/><rect class="cls-15" x="65.9" y="36.62" width="21.61" height="21.41" rx="4.82" transform="translate(167.79 94.65) rotate(-180)"/><rect class="cls-15" x="82.64" y="38.96" width="16.88" height="16.73" rx="4.48"/><rect class="cls-15" x="88.21" y="44.48" width="5.83" height="5.83"/><rect class="cls-15" x="75.41" y="46.06" width="2.67" height="2.67" transform="translate(111.87 135.18) rotate(-135)"/><circle class="cls-15" cx="96.77" cy="41.75" r="0.73"/><line class="cls-15" x1="94.04" y1="44.48" x2="96.26" y2="42.26"/><circle class="cls-15" cx="85.53" cy="41.75" r="0.73"/><line class="cls-15" x1="88.27" y1="44.48" x2="86.05" y2="42.26"/><circle class="cls-15" cx="96.77" cy="53.04" r="0.73"/><line class="cls-15" x1="94.04" y1="50.31" x2="96.26" y2="52.53"/><circle class="cls-15" cx="85.53" cy="53.04" r="0.73"/><line class="cls-15" x1="88.27" y1="50.31" x2="86.05" y2="52.53"/><path class="cls-15" d="M75.52,42.86a1.76,1.76,0,0,1,2.7-.06" transform="translate(14.38)"/><path class="cls-15" d="M74.91,42.31a2.52,2.52,0,0,1,3.92-.09" transform="translate(14.38)"/><path class="cls-15" d="M72.29,48.78a1.73,1.73,0,0,1-.66-1.37,1.75,1.75,0,0,1,.6-1.32" transform="translate(14.38)"/><path class="cls-15" d="M71.74,49.4a2.55,2.55,0,0,1-1-2,2.51,2.51,0,0,1,.88-1.92" transform="translate(14.38)"/><path class="cls-15" d="M78.22,52a1.75,1.75,0,0,1-2.7.07" transform="translate(14.38)"/><path class="cls-15" d="M78.83,52.57a2.54,2.54,0,0,1-3.92.09" transform="translate(14.38)"/><path class="cls-15" d="M81.45,46.09a1.76,1.76,0,0,1,.66,1.37,1.72,1.72,0,0,1-.6,1.32" transform="translate(14.38)"/><path class="cls-15" d="M82,45.48a2.54,2.54,0,0,1,.09,3.92" transform="translate(14.38)"/><polyline class="cls-16" points="115.32 48.47 139.33 54.88 90.54 75.06 41.75 54.88 67.32 48.06"/><polyline class="cls-16" points="94 18.02 139.33 30.12 90.54 50.3 41.75 30.12 88.48 17.65"/><polyline class="cls-16" points="111.61 72.46 139.33 79.86 90.54 100.04 41.75 79.86 71.41 71.94"/></g></g></svg>