<svg xmlns="http://www.w3.org/2000/svg" viewBox="0 0 132.86 116.76"><defs><style>.cls-1,.cls-2{fill:none;stroke-miterlimit:10;}.cls-1{stroke:#fff;stroke-width:0.15px;}.cls-2{stroke:#172026;stroke-width:0.25px;}.cls-3{fill:#ff7bc7;}.cls-4{fill:#172026;}.cls-5{fill:#f2117c;}.cls-6{fill:#b41788;}.cls-7{fill:#fff;}.cls-8{fill:#6d7278;}</style></defs><g id="Layer_2" data-name="Layer 2"><g id="pic"><g id="inside"><path class="cls-1" d="M66.45,28.12s3.16,30.3,25.17,49.4"/><path class="cls-1" d="M66.45,28.12a350.92,350.92,0,0,1,0,62.22"/><path class="cls-1" d="M66.45,28.12s3.17,30.3-3.25,62.05"/><path class="cls-1" d="M66.45,28.12S69.61,58.47,60,89.66"/><path class="cls-1" d="M66.45,28.12s3.16,30.3-31.11,31.11"/><path class="cls-1" d="M66.45,28.12S69.61,58.42,35.51,56"/><path class="cls-1" d="M66.45,28.12S69.63,58.47,36,52.76"/><path class="cls-1" d="M66.45,28.12s3.17,30.3-29.08,19.94"/><path class="cls-1" d="M66.45,28.12S69,59.91,37.38,48.06"/><path class="cls-1" d="M66.45,28.12s3.23,30.3-25.17,12.82"/><path class="cls-1" d="M66.45,28.12s3.23,30.3-23.12,10.29"/><path class="cls-1" d="M66.45,28.12s3.17,30.3-20.82,8"/><path class="cls-1" d="M66.45,28.12s3.18,30.35-18.29,5.94"/><path class="cls-1" d="M66.45,28.12s3.14,30.3-15.56,4.17"/><path class="cls-1" d="M66.45,28.12s3.17,30.3-30.94,34.36"/><path class="cls-1" d="M66.45,28.12s3.16,30.3,26.94,46.67"/><path class="cls-1" d="M66.45,28.12s3.16,30.3,28.42,43.77"/><path class="cls-1" d="M66.45,28.12S69.61,58.42,96,68.85"/><path class="cls-1" d="M66.45,28.12s3.16,30.3,30.94,34.36"/><path class="cls-1" d="M66.45,28.12s3.16,30.3,31.11,31.11"/><path class="cls-1" d="M41.28,77.52s22.65-20.37,25.17-49.4"/><path class="cls-1" d="M41.28,77.52S63.93,57.15,84.74,34.07"/><path class="cls-1" d="M41.28,77.52s22.65-20.37,46-41.4"/><path class="cls-1" d="M41.28,77.52s22.59-20.29,48.29-39.1"/><path class="cls-1" d="M41.28,77.52A350.25,350.25,0,0,1,91.62,41"/><path class="cls-1" d="M41.28,77.52S63.93,57.14,93.39,43.68"/><path class="cls-1" d="M41.28,77.52s22.65-20.37,43.46,6.89"/><path class="cls-1" d="M41.28,77.52S63.93,57.15,82,86.18"/><path class="cls-1" d="M41.28,77.52S64,57.11,79.1,87.66"/><path class="cls-1" d="M41.28,77.52S63.89,57.1,66.45,90.35"/><path class="cls-1" d="M41.28,77.52S63.89,57.1,63.2,90.18"/><path class="cls-1" d="M41.28,77.52S63.93,57.14,60,89.67"/><path class="cls-1" d="M41.28,77.52S64,57.11,56.83,88.83"/><path class="cls-1" d="M41.28,77.52S63.94,57.17,53.79,87.66"/><path class="cls-1" d="M41.28,77.52s22.65-20.38,46,4.84"/><path class="cls-1" d="M41.28,77.52S63.93,57.15,63.2,28.3"/><path class="cls-1" d="M41.28,77.52S63.93,57.15,60,28.8"/><path class="cls-1" d="M41.28,77.52S63.93,57.15,56.83,29.65"/><path class="cls-1" d="M41.28,77.52S63.93,57.15,53.79,30.81"/><path class="cls-1" d="M41.28,77.52s22.65-20.37,9.61-45.23"/><path class="cls-1" d="M41.28,77.52s22.65-20.37,6.88-43.45"/><path class="cls-1" d="M41.28,77.52s22.65-20.37,4.35-41.4"/><path class="cls-1" d="M87.27,82.35S70.12,56.86,37.37,48.06"/><path class="cls-1" d="M84.74,84.4S70.12,56.86,37.37,48.06"/><path class="cls-1" d="M82,86.18S70.12,56.86,37.37,48.06"/><path class="cls-1" d="M63.2,90.18s6.92-33.32-25.83-42.12"/><path class="cls-1" d="M60,89.66s10.14-32.8-22.61-41.6"/><path class="cls-1" d="M56.84,88.82S70.12,56.87,37.37,48.06"/><path class="cls-1" d="M43.33,80.05s26.79-23.19-6-32"/><path class="cls-1" d="M41.28,77.52s28.85-20.65-3.91-29.46"/><path class="cls-1" d="M39.51,74.79s30.61-17.93-2.14-26.73"/><path class="cls-1" d="M38,71.89s32.09-15-.66-23.83"/><path class="cls-1" d="M36.86,68.85s33.26-12,.51-20.79"/><path class="cls-1" d="M36,65.7s34.11-8.83,1.35-17.64"/><path class="cls-1" d="M37.39,48.07S69.61,58.42,91.63,41"/><path class="cls-1" d="M45.64,36.11s19.61,26.16,46,4.84"/><path class="cls-1" d="M48.17,34.07S65.25,62.27,91.63,41"/><path class="cls-1" d="M63.2,28.29s2,34,28.43,12.66"/><path class="cls-1" d="M77.52,30.2S65.25,62.27,91.62,41"/><path class="cls-1" d="M84.75,34.05s-15,25.31-45.23,40.73"/><path class="cls-1" d="M77.58,30.19S69.72,59.36,39.52,74.78"/><path class="cls-1" d="M77.53,30.19s-7.81,29.17-38,44.59"/><path class="cls-1" d="M66.46,28.11s3.27,31.25-26.94,46.67"/><path class="cls-1" d="M53.81,30.8s15.91,28.56-14.29,44"/><path class="cls-1" d="M50.91,32.28s18.81,27.08-11.39,42.5"/><path class="cls-1" d="M39.52,43.67s30.2,15.69,0,31.11"/><path class="cls-1" d="M37.39,48.05s32.24,10.4,2.13,26.73"/><path class="cls-1" d="M36,52.76s33.69,6.6,3.49,22"/><path class="cls-1" d="M35.52,56s34.21,3.39,4,18.81"/><path class="cls-1" d="M35.52,62.48s34.21-3.12,4,12.3"/><path class="cls-1" d="M41.28,77.52s22.65-20.37,25.17-49.4"/><path class="cls-1" d="M41.28,77.52S63.93,57.15,84.73,34.07"/><path class="cls-1" d="M41.28,77.52S63.93,57.14,93.39,43.68"/><path class="cls-1" d="M41.28,77.52s22.65-20.37,43.46,6.89"/><path class="cls-1" d="M41.28,77.52S64,57.11,79.1,87.66"/><path class="cls-1" d="M41.28,77.52S63.89,57.1,66.45,90.35"/><path class="cls-1" d="M41.28,77.52S63.89,57.1,63.2,90.18"/><path class="cls-1" d="M41.28,77.52S63.93,57.14,60,89.67"/><path class="cls-1" d="M41.28,77.52S64,57.11,56.83,88.83"/><path class="cls-1" d="M41.28,77.52S63.94,57.17,53.79,87.66"/><path class="cls-1" d="M41.28,77.52s22.65-20.38,46,4.84"/><path class="cls-1" d="M41.28,77.52S63.93,57.15,63.2,28.29"/><path class="cls-1" d="M41.28,77.52S63.93,57.15,60,28.8"/><path class="cls-1" d="M41.28,77.52S63.93,57.15,56.83,29.64"/><path class="cls-1" d="M41.28,77.52S63.93,57.15,53.79,30.81"/><path class="cls-1" d="M41.28,77.52s22.65-20.37,9.61-45.23"/><path class="cls-1" d="M41.28,77.52s22.65-20.37,4.35-41.4"/><path class="cls-1" d="M96,68.85s-29.8-6.36-54.76,8.67"/><path class="cls-1" d="M96,68.85s-29.8-6.36-60.7-9.62"/><path class="cls-1" d="M96,68.85S69.63,58.45,37.37,48.06"/><path class="cls-1" d="M96,68.85S69.68,58.47,39.51,43.68"/><path class="cls-1" d="M96,68.85S66.19,62.49,82,32.29"/><path class="cls-1" d="M96,68.85s-29.8-6.35-11.3-34.78"/><path class="cls-1" d="M96,68.85s-29.8-6.36-8.77-32.74"/><path class="cls-1" d="M96,68.85S66.22,62.56,91.62,41"/><path class="cls-1" d="M96,68.85s-29.8-6.36-50.41,13.5"/><path class="cls-1" d="M96,68.85S66.24,62.49,50.9,86.18"/><path class="cls-1" d="M96,68.85s-29.8-6.36-39.2,20"/><path class="cls-1" d="M96,68.85S66.24,62.49,60,89.67"/><path class="cls-1" d="M48.17,84.4s21.44-26,2.72-52.11"/><path class="cls-1" d="M38,71.89s31.58-13.47,12.86-39.6"/><path class="cls-1" d="M36.86,68.85s32.75-10.43,14-36.56"/><path class="cls-1" d="M36,65.7s33.59-7.28,14.87-33.41"/><path class="cls-1" d="M35.51,62.49s34.1-4.07,15.38-30.2"/><path class="cls-1" d="M35.34,59.23s34.27-.81,15.55-26.94"/><path class="cls-1" d="M93.4,74.79a195.09,195.09,0,0,1-42.51-42.5"/><path class="cls-1" d="M89.57,80.05A562.16,562.16,0,0,1,50.89,32.29"/><path class="cls-1" d="M82,86.18A350.34,350.34,0,0,0,50.89,32.29"/><path class="cls-1" d="M96.88,65.7s-27.27-7.28-46-33.41"/><path class="cls-1" d="M97.56,59.24s-27.95-.82-46.67-26.95"/><path class="cls-1" d="M93.39,43.68S69.61,58.42,50.89,32.29"/><path class="cls-1" d="M84.74,34.06S69.61,58.42,50.89,32.29"/><path class="cls-1" d="M82,32.29s-12.39,26.13-31.11,0"/><path class="cls-1" d="M69.71,28.29s-.1,30.13-18.82,4"/><path class="cls-1" d="M66.45,28.12s3.16,30.3,30,22.93"/><path class="cls-1" d="M41.28,77.52s28.33-19.1,55.15-26.47"/><path class="cls-1" d="M56.84,88.82s12.77-30.5,39.59-37.77"/><path class="cls-1" d="M36,52.76s33.62,5.8,60.41-1.71"/><path class="cls-1" d="M96,68.85s-26.43-10.43.39-17.8"/><path class="cls-1" d="M96.43,51.05S69.61,58.42,50.89,32.29"/><path class="cls-1" d="M96.43,51.05S69.61,58.42,41.28,40.94"/><path class="cls-1" d="M66.45,28.12s3.16,30.3,6.47,61.54"/><path class="cls-1" d="M35.51,56s33.88,2.44,37.41,33.68"/><path class="cls-1" d="M41.28,77.52s28.31-19.1,31.64,12.14"/><path class="cls-1" d="M41.28,77.52S63.93,57.15,72.92,89.67"/><path class="cls-1" d="M41.28,77.52s25.87-21,31.64,12.14"/><path class="cls-1" d="M72.92,89.66S69.71,59.37,87.27,36.11"/><path class="cls-1" d="M72.92,89.66S69.71,59.37,69.7,28.29"/><path class="cls-1" d="M72.92,89.66s-3.3-31.24-9.72-61.37"/><path class="cls-1" d="M72.92,89.66A350.92,350.92,0,0,0,60,28.8"/><path class="cls-1" d="M72.92,89.66S69.7,59.32,53.79,30.81"/><path class="cls-1" d="M72.92,89.66S69.71,59.37,36,65.7"/><path class="cls-1" d="M72.92,89.66S69.71,59.37,36.86,68.85"/><path class="cls-1" d="M72.92,89.66S69.72,59.32,38,71.89"/><path class="cls-1" d="M72.92,89.66s-3.2-30.3-33.41-14.87"/><path class="cls-1" d="M72.92,89.66S69.71,59.37,41.28,77.52"/><path class="cls-1" d="M72.92,89.66S69.77,59.3,43.33,80.05"/><path class="cls-1" d="M72.92,89.66s-3.14-30.31-27.29-7.31"/><path class="cls-1" d="M72.92,89.66S69.78,59.35,48.16,84.4"/><path class="cls-1" d="M72.92,89.66s-3.2-30.3-22-3.48"/><path class="cls-1" d="M72.92,89.66s-3.23-30.29-16.08-.84"/><path class="cls-1" d="M72.92,89.66s-3.2-30.3-37.41-27.18"/><path class="cls-1" d="M72.92,89.66s-3.21-30.29,18.7-48.72"/><path class="cls-1" d="M72.92,89.66s-3.3-31.24,20.47-46"/><path class="cls-1" d="M72.92,89.66s-3.24-31.19-35.55-41.6"/><path class="cls-1" d="M72.92,89.66S69.61,58.42,36,52.76"/><path class="cls-1" d="M77.57,30.2s-7.81,28.22-4.65,59.46"/><path class="cls-1" d="M50.89,32.29s18.7,26.13,22,57.38"/><path class="cls-1" d="M45.63,36.11s24,22.17,27.29,53.55"/><path class="cls-1" d="M89.57,38.42A66.8,66.8,0,0,0,72.92,89.66"/><path class="cls-1" d="M97.56,59.23s-27.95-.81-24.64,30.43"/><path class="cls-1" d="M96.88,65.71s-27.27-7.29-24,24"/><path class="cls-1" d="M96,68.85S69.61,58.42,72.92,89.66"/><path class="cls-1" d="M94.87,71.89s-25.25-13.47-22,17.77"/><path class="cls-1" d="M93.4,74.79S69.68,58.47,72.92,89.67"/><path class="cls-1" d="M91.62,77.52s-22-19.1-18.7,12.14"/><path class="cls-1" d="M87.27,82.36s-17.66-23.94-14.35,7.3"/><path class="cls-1" d="M89.57,80.06s-20-21.64-16.65,9.6"/><path class="cls-1" d="M41.28,77.52s28.34-19.1,31.64,12.14"/><path class="cls-1" d="M41.28,77.52S63.93,57.15,72.92,89.67"/><path class="cls-1" d="M41.28,77.52S69.61,58.32,82,86.18"/><path class="cls-1" d="M79.1,87.65s-9.49-29.23,17.33-36.6"/><path class="cls-1" d="M96.43,51.05s-30,8.21-23.51,38.61"/><path class="cls-1" d="M84.74,84.4s-15.06-26-45.23-40.72"/></g><g id="connect"><polygon class="cls-2" points="85.7 19.87 83.22 21.51 82.91 18.55 83.84 18.07 84.85 18.06 85.48 18.84 85.7 19.87"/><polyline class="cls-2" points="83.84 18.07 83.22 21.51 85.48 18.84"/><polygon class="cls-2" points="82.01 18.19 79.71 20.08 79.09 17.17 79.97 16.59 80.97 16.48 81.68 17.18 82.01 18.19"/><polyline class="cls-2" points="79.97 16.59 79.71 20.08 81.68 17.18"/><polygon class="cls-2" points="110.26 55.25 107.56 54 109.92 52.18 110.82 52.72 111.35 53.57 111.02 54.52 110.26 55.25"/><polyline class="cls-2" points="110.82 52.72 107.56 54 111.02 54.52"/><line class="cls-2" x1="107.56" y1="54" x2="111.35" y2="53.57"/><polygon class="cls-2" points="109.76 51.22 106.94 50.26 109.1 48.21 110.05 48.65 110.67 49.44 110.44 50.42 109.76 51.22"/><polyline class="cls-2" points="110.05 48.65 106.94 50.26 110.44 50.42"/><line class="cls-2" x1="130.85" y1="44.96" x2="106.94" y2="50.26"/><polygon class="cls-2" points="108.84 47.27 105.94 46.61 107.87 44.34 108.86 44.68 109.56 45.4 109.44 46.4 108.84 47.27"/><polyline class="cls-2" points="108.86 44.68 105.94 46.61 109.44 46.4"/><polyline class="cls-2" points="109.56 45.4 105.94 46.61 98.97 50.36"/><polygon class="cls-2" points="107.51 43.43 104.56 43.08 106.24 40.62 107.27 40.85 108.03 41.5 108.02 42.51 107.51 43.43"/><polyline class="cls-2" points="107.27 40.85 104.56 43.08 108.02 42.51"/><line class="cls-2" x1="108.03" y1="41.5" x2="104.56" y2="43.08"/><polygon class="cls-2" points="67.99 20.49 66.45 23.03 64.91 20.49 65.54 19.65 66.45 19.22 67.36 19.65 67.99 20.49"/><polyline class="cls-2" points="65.54 19.65 66.45 23.03 67.36 19.65"/><polyline class="cls-2" points="67.99 20.49 67.4 25.57 65.5 25.57 64.91 20.49"/><line class="cls-2" x1="66.45" y1="28.12" x2="66.45" y2="19.22"/><polygon class="cls-2" points="64.91 97.97 66.45 95.43 67.99 97.97 67.36 98.81 66.45 99.25 65.54 98.81 64.91 97.97"/><polyline class="cls-2" points="67.36 98.81 66.45 95.43 65.54 98.81"/><polyline class="cls-2" points="64.91 97.97 65.5 92.89 67.4 92.89 67.99 97.97"/><line class="cls-2" x1="66.45" y1="90.34" x2="66.45" y2="99.25"/><polygon class="cls-2" points="63.94 20.54 62.66 23.23 60.86 20.86 61.41 19.96 62.27 19.43 63.22 19.77 63.94 20.54"/><polyline class="cls-2" points="61.41 19.96 62.66 23.23 63.22 19.77"/><polyline class="cls-2" points="63.94 20.54 63.88 25.66 61.98 25.86 60.86 20.86"/><line class="cls-2" x1="63.2" y1="28.29" x2="62.27" y2="19.44"/><polygon class="cls-2" points="59.9 21.02 58.92 23.82 56.88 21.66 57.33 20.7 58.13 20.09 59.11 20.32 59.9 21.02"/><polyline class="cls-2" points="57.33 20.7 58.92 23.82 59.11 20.32"/><polyline class="cls-2" points="59.9 21.02 60.38 26.11 58.52 26.51 56.88 21.66"/><line class="cls-2" x1="59.98" y1="28.8" x2="58.13" y2="20.09"/><polygon class="cls-2" points="55.95 21.91 55.26 24.8 53.01 22.86 53.35 21.87 54.08 21.18 55.08 21.3 55.95 21.91"/><polyline class="cls-2" points="53.35 21.87 55.26 24.8 55.08 21.3"/><polyline class="cls-2" points="55.95 21.91 56.96 26.93 55.14 27.52 53.01 22.86"/><line class="cls-2" x1="56.84" y1="29.64" x2="54.08" y2="21.17"/><polygon class="cls-2" points="52.1 23.21 51.73 26.16 49.28 24.47 49.52 23.44 50.17 22.68 51.18 22.7 52.1 23.21"/><polyline class="cls-2" points="49.52 23.44 51.73 26.16 51.18 22.7"/><polyline class="cls-2" points="52.1 23.21 53.63 28.1 51.89 28.87 49.28 24.47"/><line class="cls-2" x1="53.79" y1="30.81" x2="50.17" y2="22.68"/><polygon class="cls-2" points="80.8 95.25 81.17 92.3 83.62 94 83.38 95.02 82.72 95.79 81.72 95.76 80.8 95.25"/><polyline class="cls-2" points="83.38 95.02 81.17 92.3 81.72 95.76"/><polyline class="cls-2" points="80.8 95.25 79.27 90.37 81.01 89.59 83.62 94"/><line class="cls-2" x1="79.1" y1="87.65" x2="82.73" y2="95.79"/><polygon class="cls-2" points="48.41 24.91 48.35 27.88 45.74 26.45 45.87 25.41 46.44 24.58 47.44 24.5 48.41 24.91"/><polyline class="cls-2" points="45.87 25.41 48.35 27.88 47.44 24.5"/><polyline class="cls-2" points="48.41 24.91 50.45 29.61 48.8 30.56 45.74 26.45"/><line class="cls-2" x1="50.89" y1="32.29" x2="46.44" y2="24.58"/><polygon class="cls-2" points="84.48 93.56 84.55 90.58 87.16 92.01 87.03 93.06 86.46 93.89 85.45 93.97 84.48 93.56"/><polyline class="cls-2" points="87.03 93.06 84.55 90.58 85.45 93.97"/><polyline class="cls-2" points="84.48 93.56 82.45 88.86 84.1 87.9 87.16 92.01"/><line class="cls-2" x1="82.01" y1="86.18" x2="86.46" y2="93.89"/><polygon class="cls-2" points="87.97 91.48 87.73 88.52 90.47 89.67 90.45 90.72 89.97 91.6 88.98 91.79 87.97 91.48"/><polyline class="cls-2" points="90.45 90.72 87.73 88.52 88.98 91.79"/><polyline class="cls-2" points="87.97 91.48 85.46 87.02 87 85.9 90.47 89.67"/><line class="cls-2" x1="84.74" y1="84.4" x2="108.19" y2="116.69"/><polygon class="cls-2" points="91.22 89.06 90.67 86.13 93.52 86.99 93.61 88.04 93.22 88.97 92.26 89.25 91.22 89.06"/><polyline class="cls-2" points="93.61 88.04 90.67 86.13 92.26 89.25"/><polyline class="cls-2" points="91.22 89.06 88.26 84.88 89.68 83.6 93.52 86.99"/><line class="cls-2" x1="87.27" y1="82.35" x2="93.22" y2="88.97"/><line class="cls-2" x1="43.33" y1="38.41" x2="0.84" y2="0.16"/><polygon class="cls-2" points="94.21 86.3 93.35 83.45 96.27 84.01 96.47 85.04 96.19 86.01 95.26 86.39 94.21 86.3"/><polyline class="cls-2" points="96.47 85.04 93.35 83.45 95.26 86.39"/><polyline class="cls-2" points="94.21 86.3 90.82 82.46 92.1 81.04 96.27 84.01"/><line class="cls-2" x1="89.57" y1="80.05" x2="96.19" y2="86.01"/><polygon class="cls-2" points="96.89 83.25 95.73 80.51 98.7 80.75 99.01 81.76 98.82 82.75 97.94 83.23 96.89 83.25"/><polyline class="cls-2" points="99.01 81.76 95.73 80.51 97.94 83.23"/><polyline class="cls-2" points="96.89 83.25 93.12 79.78 94.24 78.24 98.7 80.75"/><line class="cls-2" x1="91.62" y1="77.52" x2="98.82" y2="82.75"/><polygon class="cls-2" points="99.23 79.94 97.8 77.33 100.77 77.27 101.18 78.24 101.1 79.24 100.28 79.81 99.23 79.94"/><polyline class="cls-2" points="101.18 78.24 97.8 77.33 100.28 79.81"/><polyline class="cls-2" points="99.23 79.94 95.12 76.89 96.07 75.23 100.77 77.27"/><line class="cls-2" x1="93.39" y1="74.79" x2="101.1" y2="79.24"/><polygon class="cls-2" points="101.21 76.4 99.52 73.95 102.47 73.58 102.98 74.5 103 75.51 102.24 76.16 101.21 76.4"/><polyline class="cls-2" points="102.98 74.5 99.52 73.95 102.24 76.16"/><polyline class="cls-2" points="101.21 76.4 96.81 73.79 97.58 72.05 102.47 73.58"/><line class="cls-2" x1="94.87" y1="71.89" x2="103" y2="75.51"/><polygon class="cls-2" points="102.82 72.67 100.88 70.42 103.77 69.74 104.38 70.6 104.51 71.6 103.81 72.33 102.82 72.67"/><polyline class="cls-2" points="104.38 70.6 100.88 70.42 103.81 72.33"/><polyline class="cls-2" points="102.82 72.67 98.16 70.54 98.75 68.72 103.77 69.74"/><line class="cls-2" x1="96.04" y1="68.85" x2="104.51" y2="71.6"/><polygon class="cls-2" points="104.02 68.8 101.86 66.76 104.67 65.78 105.36 66.57 105.59 67.55 104.98 68.35 104.02 68.8"/><polyline class="cls-2" points="105.36 66.57 101.86 66.76 104.98 68.35"/><polyline class="cls-2" points="104.02 68.8 99.17 67.16 99.57 65.3 104.67 65.78"/><line class="cls-2" x1="96.88" y1="65.7" x2="105.59" y2="67.55"/><polygon class="cls-2" points="104.82 64.82 102.45 63.02 105.14 61.75 105.91 62.47 106.25 63.41 105.72 64.27 104.82 64.82"/><polyline class="cls-2" points="105.91 62.47 102.45 63.02 105.72 64.27"/><polyline class="cls-2" points="104.82 64.82 99.82 63.7 100.02 61.8 105.14 61.75"/><line class="cls-2" x1="97.39" y1="62.48" x2="106.25" y2="63.41"/><line class="cls-2" x1="35.34" y1="59.23" y2="59.23"/><polygon class="cls-2" points="105.19 60.77 102.65 59.23 105.19 57.69 106.03 58.32 106.46 59.23 106.03 60.14 105.19 60.77"/><polyline class="cls-2" points="106.03 58.32 102.65 59.23 106.03 60.14"/><polyline class="cls-2" points="105.19 60.77 100.11 60.19 100.11 58.28 105.19 57.69"/><line class="cls-2" x1="97.56" y1="59.23" x2="106.46" y2="59.23"/><line class="cls-2" x1="36.86" y1="68.85" x2="0.19" y2="80.82"/><polygon class="cls-2" points="100.77 41.2 97.8 41.13 99.23 38.52 100.28 38.65 101.1 39.22 101.18 40.23 100.77 41.2"/><polyline class="cls-2" points="100.28 38.65 97.8 41.13 101.18 40.23"/><polyline class="cls-2" points="100.77 41.2 96.07 43.23 95.12 41.58 99.23 38.52"/><line class="cls-2" x1="93.39" y1="43.68" x2="101.1" y2="39.22"/><polygon class="cls-2" points="98.7 37.71 95.73 37.95 96.89 35.21 97.94 35.23 98.82 35.71 99.01 36.7 98.7 37.71"/><polyline class="cls-2" points="97.94 35.23 95.73 37.95 99.01 36.7"/><polyline class="cls-2" points="98.7 37.71 94.24 40.22 93.12 38.68 96.89 35.21"/><line class="cls-2" x1="91.62" y1="40.94" x2="129.5" y2="13.55"/><line class="cls-2" x1="43.33" y1="80.05" x2="24.62" y2="97.92"/><polygon class="cls-2" points="96.27 34.45 93.35 35.01 94.21 32.16 95.26 32.07 96.19 32.46 96.47 33.42 96.27 34.45"/><polyline class="cls-2" points="95.26 32.07 93.35 35.01 96.47 33.42"/><polyline class="cls-2" points="96.27 34.45 92.1 37.42 90.82 36 94.21 32.16"/><line class="cls-2" x1="89.57" y1="38.41" x2="96.19" y2="32.46"/><polygon class="cls-2" points="93.52 31.47 90.67 32.33 91.23 29.41 92.26 29.21 93.22 29.49 93.61 30.42 93.52 31.47"/><polyline class="cls-2" points="92.26 29.21 90.67 32.33 93.61 30.42"/><polyline class="cls-2" points="93.52 31.47 89.68 34.86 88.26 33.58 91.23 29.41"/><line class="cls-2" x1="87.27" y1="36.11" x2="93.22" y2="29.49"/><polygon class="cls-2" points="90.47 28.8 87.73 29.95 87.97 26.98 88.98 26.67 89.97 26.86 90.45 27.74 90.47 28.8"/><polyline class="cls-2" points="88.98 26.67 87.73 29.95 90.45 27.74"/><polyline class="cls-2" points="90.47 28.8 87 32.56 85.46 31.44 87.97 26.98"/><line class="cls-2" x1="84.74" y1="34.06" x2="89.97" y2="26.86"/><polygon class="cls-2" points="87.16 26.45 84.55 27.88 84.48 24.91 85.45 24.5 86.46 24.58 87.03 25.41 87.16 26.45"/><polyline class="cls-2" points="85.45 24.5 84.55 27.88 87.03 25.41"/><polyline class="cls-2" points="87.16 26.45 84.1 30.56 82.45 29.61 84.48 24.91"/><line class="cls-2" x1="82" y1="32.29" x2="86.46" y2="24.58"/><polygon class="cls-2" points="49.28 94 51.73 92.3 52.1 95.25 51.18 95.76 50.17 95.79 49.52 95.02 49.28 94"/><polyline class="cls-2" points="51.18 95.76 51.73 92.3 49.52 95.02"/><polyline class="cls-2" points="49.28 94 51.89 89.59 53.63 90.37 52.1 95.25"/><line class="cls-2" x1="53.79" y1="87.65" x2="50.17" y2="95.79"/><polygon class="cls-2" points="53.01 95.6 55.26 93.66 55.95 96.56 55.08 97.16 54.08 97.29 53.35 96.6 53.01 95.6"/><polyline class="cls-2" points="55.08 97.16 55.26 93.66 53.35 96.6"/><polyline class="cls-2" points="53.01 95.6 55.14 90.94 56.96 91.53 55.95 96.56"/><line class="cls-2" x1="56.84" y1="88.82" x2="54.08" y2="97.29"/><polygon class="cls-2" points="56.88 96.81 58.92 94.64 59.9 97.45 59.11 98.14 58.13 98.37 57.33 97.76 56.88 96.81"/><polyline class="cls-2" points="59.11 98.14 58.92 94.64 57.33 97.76"/><polyline class="cls-2" points="56.88 96.81 58.52 91.95 60.38 92.35 59.9 97.45"/><line class="cls-2" x1="59.98" y1="89.66" x2="58.13" y2="98.37"/><polygon class="cls-2" points="76.01 21.66 73.97 23.82 72.99 21.01 73.79 20.32 74.77 20.09 75.57 20.7 76.01 21.66"/><polyline class="cls-2" points="73.79 20.32 73.97 23.82 75.57 20.7"/><polyline class="cls-2" points="76.01 21.66 74.38 26.51 72.51 26.11 72.99 21.01"/><line class="cls-2" x1="72.92" y1="28.8" x2="79.03" y2="0.03"/><polygon class="cls-2" points="60.86 97.6 62.66 95.23 63.94 97.92 63.22 98.69 62.27 99.03 61.41 98.5 60.86 97.6"/><polyline class="cls-2" points="63.22 98.69 62.66 95.23 61.41 98.5"/><polyline class="cls-2" points="60.86 97.6 61.98 92.6 63.88 92.8 63.94 97.92"/><line class="cls-2" x1="63.2" y1="90.17" x2="62.27" y2="99.03"/><polygon class="cls-2" points="72.03 20.86 70.23 23.23 68.96 20.54 69.68 19.77 70.63 19.43 71.49 19.96 72.03 20.86"/><polyline class="cls-2" points="69.68 19.77 70.23 23.23 71.49 19.96"/><polyline class="cls-2" points="72.03 20.86 70.92 25.86 69.02 25.66 68.96 20.54"/><line class="cls-2" x1="69.7" y1="28.29" x2="70.63" y2="19.44"/><line class="cls-2" x1="79.39" y1="28.15" x2="77.6" y2="27.46"/><line class="cls-2" x1="77.58" y1="30.18" x2="78.5" y2="27.81"/><line class="cls-2" x1="99.71" y1="53.12" x2="98.23" y2="47.59"/><line class="cls-2" x1="99.01" y1="50.35" x2="96.43" y2="51.05"/><polygon class="cls-2" points="26.9 40.22 28.6 42.65 25.65 43.04 25.14 42.12 25.11 41.12 25.87 40.46 26.9 40.22"/><polyline class="cls-2" points="25.14 42.12 28.6 42.65 25.87 40.46"/><polyline class="cls-2" points="25.11 41.12 28.6 42.65 35 47.17"/><polygon class="cls-2" points="25.3 43.95 27.25 46.2 24.36 46.89 23.75 46.03 23.62 45.03 24.31 44.3 25.3 43.95"/><polyline class="cls-2" points="23.75 46.03 27.25 46.2 24.31 44.3"/><line class="cls-2" x1="27.25" y1="46.2" x2="23.62" y2="45.03"/><line class="cls-2" x1="37.38" y1="48.06" x2="35" y2="47.17"/><polygon class="cls-2" points="44.93 26.98 45.17 29.95 42.43 28.8 42.45 27.74 42.93 26.86 43.92 26.67 44.93 26.98"/><polyline class="cls-2" points="42.45 27.74 45.17 29.95 43.92 26.67"/><polyline class="cls-2" points="44.93 26.98 47.44 31.44 45.9 32.56 42.43 28.8"/><line class="cls-2" x1="48.16" y1="34.06" x2="42.93" y2="26.86"/><polygon class="cls-2" points="41.67 29.41 42.23 32.33 39.38 31.47 39.29 30.42 39.67 29.49 40.64 29.21 41.67 29.41"/><polyline class="cls-2" points="39.29 30.42 42.23 32.33 40.64 29.21"/><polyline class="cls-2" points="41.67 29.41 44.64 33.58 43.22 34.86 39.38 31.47"/><line class="cls-2" x1="45.63" y1="36.11" x2="39.67" y2="29.49"/><polygon class="cls-2" points="38.69 32.16 39.55 35.01 36.62 34.45 36.43 33.42 36.71 32.46 37.64 32.07 38.69 32.16"/><polyline class="cls-2" points="36.43 33.42 39.55 35.01 37.64 32.07"/><polyline class="cls-2" points="38.69 32.16 42.08 36 40.8 37.42 36.62 34.45"/><polygon class="cls-2" points="36.01 35.21 37.16 37.95 34.2 37.71 33.89 36.7 34.08 35.71 34.96 35.23 36.01 35.21"/><polyline class="cls-2" points="33.89 36.7 37.16 37.95 34.96 35.23"/><polyline class="cls-2" points="36.01 35.21 39.78 38.68 38.66 40.22 34.2 37.71"/><line class="cls-2" x1="41.28" y1="40.94" x2="34.08" y2="35.71"/><polygon class="cls-2" points="33.67 38.52 35.1 41.13 32.12 41.2 31.71 40.23 31.8 39.22 32.62 38.65 33.67 38.52"/><polyline class="cls-2" points="31.71 40.23 35.1 41.13 32.62 38.65"/><polyline class="cls-2" points="33.67 38.52 37.78 41.58 36.83 43.23 32.12 41.2"/><line class="cls-2" x1="39.51" y1="43.68" x2="31.79" y2="39.22"/><polygon class="cls-2" points="28.87 49.67 31.04 51.7 28.23 52.69 27.54 51.89 27.31 50.91 27.92 50.11 28.87 49.67"/><polyline class="cls-2" points="27.54 51.89 31.04 51.7 27.92 50.11"/><polyline class="cls-2" points="28.87 49.67 33.73 51.3 33.33 53.17 28.23 52.69"/><line class="cls-2" x1="36.02" y1="52.76" x2="27.31" y2="50.91"/><polygon class="cls-2" points="28.08 53.65 30.45 55.45 27.76 56.72 26.99 56 26.65 55.05 27.18 54.19 28.08 53.65"/><polyline class="cls-2" points="26.99 56 30.45 55.45 27.18 54.19"/><polyline class="cls-2" points="28.08 53.65 33.08 54.77 32.88 56.66 27.76 56.72"/><line class="cls-2" x1="35.51" y1="55.98" x2="26.65" y2="55.05"/><polygon class="cls-2" points="27.71 57.69 30.25 59.23 27.71 60.77 26.87 60.14 26.43 59.23 26.87 58.32 27.71 57.69"/><polyline class="cls-2" points="26.87 60.14 30.25 59.23 26.87 58.32"/><polyline class="cls-2" points="27.71 57.69 32.79 58.28 32.79 60.19 27.71 60.77"/><polygon class="cls-2" points="27.76 61.74 30.45 63.02 28.08 64.82 27.18 64.27 26.65 63.41 26.99 62.47 27.76 61.74"/><polyline class="cls-2" points="27.18 64.27 30.45 63.02 26.99 62.47"/><polyline class="cls-2" points="27.76 61.74 32.88 61.8 33.08 63.7 28.08 64.82"/><line class="cls-2" x1="35.51" y1="62.48" x2="26.65" y2="63.41"/><polygon class="cls-2" points="28.23 65.78 31.04 66.76 28.87 68.8 27.92 68.35 27.31 67.55 27.54 66.57 28.23 65.78"/><polyline class="cls-2" points="27.92 68.35 31.04 66.76 27.54 66.57"/><polyline class="cls-2" points="28.23 65.78 33.33 65.3 33.73 67.16 28.87 68.8"/><line class="cls-2" x1="36.02" y1="65.7" x2="27.31" y2="67.55"/><polygon class="cls-2" points="29.13 69.73 32.02 70.42 30.08 72.67 29.08 72.33 28.39 71.6 28.52 70.6 29.13 69.73"/><polyline class="cls-2" points="29.08 72.33 32.02 70.42 28.52 70.6"/><polyline class="cls-2" points="29.13 69.73 34.15 68.72 34.74 70.54 30.08 72.67"/><polygon class="cls-2" points="30.43 73.58 33.38 73.95 31.68 76.4 30.66 76.16 29.89 75.51 29.92 74.5 30.43 73.58"/><polyline class="cls-2" points="30.66 76.16 33.38 73.95 29.92 74.5"/><polyline class="cls-2" points="30.43 73.58 35.31 72.05 36.09 73.79 31.68 76.4"/><line class="cls-2" x1="38.03" y1="71.89" x2="29.89" y2="75.51"/><polygon class="cls-2" points="32.13 77.27 35.1 77.33 33.67 79.94 32.62 79.81 31.8 79.24 31.71 78.24 32.13 77.27"/><polyline class="cls-2" points="32.62 79.81 35.1 77.33 31.71 78.24"/><polyline class="cls-2" points="32.13 77.27 36.83 75.23 37.78 76.89 33.67 79.94"/><line class="cls-2" x1="39.51" y1="74.79" x2="31.79" y2="79.24"/><line class="cls-2" x1="41.28" y1="77.52" x2="34.08" y2="82.75"/><polygon class="cls-2" points="34.2 80.75 37.16 80.51 36.01 83.25 34.96 83.23 34.08 82.75 33.89 81.76 34.2 80.75"/><polyline class="cls-2" points="34.96 83.23 37.16 80.51 33.89 81.76"/><polyline class="cls-2" points="34.2 80.75 38.66 78.24 39.78 79.79 36.01 83.25"/><polygon class="cls-2" points="36.63 84.01 39.55 83.45 38.69 86.3 37.64 86.39 36.71 86.01 36.42 85.04 36.63 84.01"/><polyline class="cls-2" points="37.64 86.39 39.55 83.45 36.42 85.04"/><polyline class="cls-2" points="36.63 84.01 40.8 81.04 42.08 82.46 38.69 86.3"/><polygon class="cls-2" points="39.38 86.99 42.23 86.13 41.67 89.06 40.64 89.25 39.67 88.97 39.29 88.04 39.38 86.99"/><polyline class="cls-2" points="40.64 89.25 42.23 86.13 39.29 88.04"/><polyline class="cls-2" points="39.38 86.99 43.22 83.61 44.64 84.88 41.67 89.06"/><line class="cls-2" x1="45.63" y1="82.35" x2="39.67" y2="88.97"/><line class="cls-2" x1="35.34" y1="46.28" x2="34.66" y2="48.06"/><polygon class="cls-2" points="70.08 102.91 71.35 100.22 73.15 102.59 72.61 103.49 71.75 104.02 70.8 103.68 70.08 102.91"/><polyline class="cls-2" points="72.61 103.49 71.35 100.22 70.8 103.68"/><polygon class="cls-2" points="74.11 102.44 75.09 99.63 77.13 101.8 76.68 102.75 75.89 103.36 74.91 103.13 74.11 102.44"/><polyline class="cls-2" points="76.68 102.75 75.09 99.63 74.91 103.13"/><polygon class="cls-2" points="78.07 101.54 78.75 98.65 81.01 100.59 80.66 101.59 79.93 102.28 78.93 102.15 78.07 101.54"/><polyline class="cls-2" points="80.66 101.59 78.75 98.65 78.93 102.15"/><line class="cls-2" x1="78.75" y1="98.65" x2="79.93" y2="102.28"/><line class="cls-2" x1="70.65" y1="92.75" x2="76.25" y2="91.56"/><polygon class="cls-2" points="42.43 89.67 45.17 88.52 44.92 91.48 43.92 91.79 42.93 91.6 42.45 90.72 42.43 89.67"/><polyline class="cls-2" points="43.92 91.79 45.17 88.52 42.45 90.72"/><polyline class="cls-2" points="42.43 89.67 45.9 85.9 47.44 87.02 44.92 91.48"/><line class="cls-2" x1="48.16" y1="84.4" x2="42.93" y2="91.6"/><polygon class="cls-2" points="45.74 92.01 48.35 90.58 48.41 93.56 47.44 93.97 46.44 93.89 45.87 93.06 45.74 92.01"/><polyline class="cls-2" points="47.44 93.97 48.35 90.58 45.87 93.06"/><polyline class="cls-2" points="45.74 92.01 48.8 87.9 50.45 88.86 48.41 93.56"/><line class="cls-2" x1="50.89" y1="86.18" x2="46.44" y2="93.89"/><line class="cls-2" x1="71.75" y1="104.02" x2="71.35" y2="100.22"/><line class="cls-2" x1="75.89" y1="103.36" x2="75.09" y2="99.63"/><line class="cls-2" x1="72.92" y1="89.66" x2="73.45" y2="92.15"/><line class="cls-2" x1="73.45" y1="92.15" x2="75.09" y2="99.63"/><line class="cls-2" x1="78.5" y1="27.81" x2="83.22" y2="21.51"/></g><g id="Layer_4" data-name="Layer 4"><path class="cls-3" d="M32.33,69.33l-.6.19-.6.2a.3.3,0,0,0-.2.38l.2.61.19.6a.31.31,0,0,0,.39.2l.6-.2.61-.19a.31.31,0,0,0,.19-.39l-.19-.6-.2-.61a.29.29,0,0,0-.38-.19Z"/><path class="cls-4" d="M82.64,20.54l-.54,1.15a.31.31,0,0,0,.14.41l1.15.54a.32.32,0,0,0,.41-.15l.54-1.15a.31.31,0,0,0-.14-.41l-1.15-.54a.3.3,0,0,0-.41.15Z"/><path class="cls-4" d="M79,19.17l-.42,1.2a.31.31,0,0,0,.19.39h0l1.2.42a.31.31,0,0,0,.39-.19l.42-1.2a.3.3,0,0,0-.19-.39L79.42,19a.3.3,0,0,0-.39.19Z"/><path class="cls-4" d="M108.09,53l-1.27.14a.32.32,0,0,0-.27.34l.14,1.26A.3.3,0,0,0,107,55l1.27-.14a.32.32,0,0,0,.27-.33l-.14-1.27A.3.3,0,0,0,108.09,53Z"/><path class="cls-4" d="M106.25,45.51l-1.21.4a.3.3,0,0,0-.19.39l.4,1.21a.31.31,0,0,0,.39.19l1.2-.4a.3.3,0,0,0,.19-.39l-.4-1.21a.3.3,0,0,0-.38-.19Z"/><path class="cls-4" d="M104.75,42l-1.16.52a.31.31,0,0,0-.15.41l.52,1.16a.31.31,0,0,0,.41.15h0l1.16-.53a.3.3,0,0,0,.15-.4l-.53-1.16A.3.3,0,0,0,104.75,42Z"/><path class="cls-4" d="M27.64,43.26l1.16.51a.3.3,0,0,0,.4-.15l.52-1.17a.3.3,0,0,0-.16-.4l-1.16-.51a.3.3,0,0,0-.4.15h0l-.52,1.17a.3.3,0,0,0,.16.4Z"/><path class="cls-4" d="M26.36,46.9l1.21.39a.32.32,0,0,0,.39-.2l.39-1.21a.32.32,0,0,0-.2-.39l-1.21-.38a.3.3,0,0,0-.39.19l-.39,1.21A.31.31,0,0,0,26.36,46.9Z"/><path class="cls-4" d="M72.35,100.76l-.13-1.27a.3.3,0,0,0-.34-.27h0l-1.26.13a.3.3,0,0,0-.27.34l.13,1.26a.32.32,0,0,0,.34.28l1.26-.14A.3.3,0,0,0,72.35,100.76Z"/><path class="cls-4" d="M76.15,100.06l-.27-1.25a.3.3,0,0,0-.36-.23h0l-1.25.26a.3.3,0,0,0-.23.36l.26,1.25a.31.31,0,0,0,.37.23h0l1.24-.26A.31.31,0,0,0,76.15,100.06Z"/><path class="cls-4" d="M79.84,99l-.39-1.21a.3.3,0,0,0-.38-.19L77.86,98a.3.3,0,0,0-.2.38l.39,1.21a.32.32,0,0,0,.39.2l1.21-.39A.3.3,0,0,0,79.84,99Z"/><path class="cls-4" d="M65.51,22.4v1.27a.3.3,0,0,0,.3.3h1.28a.29.29,0,0,0,.3-.3h0V22.4a.3.3,0,0,0-.3-.31H65.81A.31.31,0,0,0,65.51,22.4Z"/><path class="cls-4" d="M67.39,96.07V94.8a.31.31,0,0,0-.3-.31H65.81a.3.3,0,0,0-.3.31v1.27a.29.29,0,0,0,.3.3h1.28A.3.3,0,0,0,67.39,96.07Z"/><path class="cls-4" d="M61.66,22.7,61.79,24a.3.3,0,0,0,.34.27l1.27-.13a.31.31,0,0,0,.27-.34h0l-.13-1.26a.3.3,0,0,0-.34-.27l-1.27.13A.31.31,0,0,0,61.66,22.7Z"/><path class="cls-4" d="M57.87,23.4l.26,1.24a.32.32,0,0,0,.37.24l1.24-.27a.31.31,0,0,0,.24-.36h0L59.71,23a.3.3,0,0,0-.36-.23L58.1,23a.31.31,0,0,0-.23.37Z"/><path class="cls-4" d="M54.17,24.49l.39,1.21a.32.32,0,0,0,.39.2l1.21-.4a.3.3,0,0,0,.19-.38L56,23.91a.3.3,0,0,0-.38-.2l-1.21.4A.3.3,0,0,0,54.17,24.49Z"/><path class="cls-4" d="M50.61,26l.51,1.17a.31.31,0,0,0,.41.15h0l1.16-.52a.3.3,0,0,0,.15-.4l-.51-1.16a.31.31,0,0,0-.41-.16l-1.16.52A.3.3,0,0,0,50.61,26Z"/><path class="cls-4" d="M82.29,92.5l-.52-1.16a.29.29,0,0,0-.4-.16l-1.16.52a.31.31,0,0,0-.16.4l.52,1.17a.3.3,0,0,0,.4.15l1.17-.52a.3.3,0,0,0,.15-.4Z"/><path class="cls-4" d="M47.22,27.8l.63,1.11a.32.32,0,0,0,.42.11h0l1.1-.64a.3.3,0,0,0,.11-.42l-.63-1.1a.3.3,0,0,0-.42-.11l-1.1.63A.3.3,0,0,0,47.22,27.8Z"/><path class="cls-4" d="M85.68,90.66l-.63-1.1a.3.3,0,0,0-.42-.11l-1.1.63a.31.31,0,0,0-.12.42l.64,1.1a.3.3,0,0,0,.42.11h0l1.1-.63A.3.3,0,0,0,85.68,90.66Z"/><path class="cls-4" d="M44,30l.74,1a.31.31,0,0,0,.43.07h0l1-.75a.3.3,0,0,0,.07-.42l-.75-1a.31.31,0,0,0-.43-.07l-1,.75A.3.3,0,0,0,44,30Z"/><path class="cls-4" d="M91.8,86,91,85a.29.29,0,0,0-.43,0l-1,.85a.31.31,0,0,0,0,.43l.85.95a.31.31,0,0,0,.43,0h0l1-.85A.31.31,0,0,0,91.8,86Z"/><path class="cls-4" d="M16.61,15.62l.95.86a.3.3,0,0,0,.43,0l.85-.94a.31.31,0,0,0,0-.43l-.95-.86a.3.3,0,0,0-.43,0l-.85.94a.29.29,0,0,0,0,.43Z"/><path class="cls-4" d="M94.45,83.18l-.94-.85a.31.31,0,0,0-.43,0l-.85,1a.29.29,0,0,0,0,.43h0l.94.85a.32.32,0,0,0,.44,0l.85-1A.3.3,0,0,0,94.45,83.18Z"/><path class="cls-4" d="M36.09,38.34l1,.75a.31.31,0,0,0,.43-.07l.75-1a.3.3,0,0,0-.07-.42h0l-1-.75a.3.3,0,0,0-.42.07l-.75,1a.31.31,0,0,0,.06.43Z"/><path class="cls-4" d="M96.8,80.12l-1-.75a.3.3,0,0,0-.42.07l-.75,1a.31.31,0,0,0,.07.43l1,.74a.3.3,0,0,0,.42-.06l.75-1A.31.31,0,0,0,96.8,80.12Z"/><path class="cls-4" d="M34.08,41.63l1.1.64a.31.31,0,0,0,.42-.12l.63-1.1a.3.3,0,0,0-.11-.42h0L35,40a.3.3,0,0,0-.42.11L34,41.21A.3.3,0,0,0,34.08,41.63Z"/><path class="cls-4" d="M98.82,76.83l-1.1-.63a.3.3,0,0,0-.42.11l-.64,1.1a.31.31,0,0,0,.12.42l1.1.64a.31.31,0,0,0,.42-.12l.63-1.1A.3.3,0,0,0,98.82,76.83Z"/><path class="cls-4" d="M100.48,73.35l-1.16-.51a.3.3,0,0,0-.4.15l-.52,1.16a.31.31,0,0,0,.15.41l1.17.51a.3.3,0,0,0,.4-.15l.52-1.16A.31.31,0,0,0,100.48,73.35Z"/><path class="cls-4" d="M101.77,69.72l-1.21-.39a.29.29,0,0,0-.38.19l-.39,1.21a.31.31,0,0,0,.19.39l1.21.39a.32.32,0,0,0,.39-.2L102,70.1a.3.3,0,0,0-.2-.38Z"/><path class="cls-4" d="M30.22,52.49l1.25.27a.31.31,0,0,0,.36-.24h0l.26-1.24a.3.3,0,0,0-.23-.36l-1.25-.27a.31.31,0,0,0-.36.24h0L30,52.13A.3.3,0,0,0,30.22,52.49Z"/><path class="cls-4" d="M102.68,66l-1.25-.27a.31.31,0,0,0-.36.24h0l-.27,1.24a.32.32,0,0,0,.24.37h0l1.24.26a.31.31,0,0,0,.37-.23l.26-1.25A.3.3,0,0,0,102.68,66Z"/><path class="cls-4" d="M29.72,56.32l1.26.13a.3.3,0,0,0,.34-.27l.13-1.27a.3.3,0,0,0-.27-.33h0l-1.27-.14a.32.32,0,0,0-.33.28L29.44,56A.32.32,0,0,0,29.72,56.32Z"/><path class="cls-4" d="M103.18,62.15,101.92,62a.31.31,0,0,0-.34.27l-.13,1.27a.3.3,0,0,0,.27.34L103,64a.31.31,0,0,0,.34-.27h0l.13-1.27A.29.29,0,0,0,103.18,62.15Z"/><path class="cls-4" d="M29.61,60.17h1.28a.3.3,0,0,0,.3-.3V58.6a.31.31,0,0,0-.3-.31H29.61a.3.3,0,0,0-.3.31h0v1.27A.29.29,0,0,0,29.61,60.17Z"/><path class="cls-4" d="M16.42,60.17H17.7a.29.29,0,0,0,.3-.3V58.6a.3.3,0,0,0-.3-.31H16.42a.31.31,0,0,0-.3.31v1.27A.3.3,0,0,0,16.42,60.17Z"/><path class="cls-4" d="M103.28,58.29H102a.3.3,0,0,0-.3.31v1.27a.29.29,0,0,0,.3.3h1.27a.3.3,0,0,0,.31-.3V58.6A.31.31,0,0,0,103.28,58.29Z"/><path class="cls-4" d="M29.91,64l1.27-.13a.31.31,0,0,0,.27-.34l-.13-1.26A.32.32,0,0,0,31,62l-1.26.14a.3.3,0,0,0-.28.33l.14,1.27a.3.3,0,0,0,.33.27Z"/><path class="cls-4" d="M30.61,67.81l1.25-.26a.31.31,0,0,0,.23-.37h0l-.26-1.24a.31.31,0,0,0-.36-.24L30.22,66a.3.3,0,0,0-.23.36h0l.26,1.25a.3.3,0,0,0,.36.23Z"/><path class="cls-4" d="M9.33,78.78l1.21-.39a.3.3,0,0,0,.19-.38l-.39-1.21a.31.31,0,0,0-.39-.2L8.75,77a.31.31,0,0,0-.2.39l.39,1.21A.31.31,0,0,0,9.33,78.78Z"/><path class="cls-4" d="M33.18,75.07l1.16-.51a.31.31,0,0,0,.16-.41L34,73a.3.3,0,0,0-.4-.15h0l-1.17.51a.31.31,0,0,0-.15.41l.52,1.16a.3.3,0,0,0,.4.15Z"/><path class="cls-4" d="M35,78.47l1.1-.64a.31.31,0,0,0,.12-.42l-.64-1.1a.3.3,0,0,0-.42-.11h0l-1.1.63a.3.3,0,0,0-.11.42l.63,1.1A.31.31,0,0,0,35,78.47Z"/><path class="cls-4" d="M97.88,40l-1.1.63a.31.31,0,0,0-.12.42l.64,1.1a.31.31,0,0,0,.42.12h0l1.1-.64a.3.3,0,0,0,.11-.42l-.63-1.1A.3.3,0,0,0,97.88,40Z"/><path class="cls-4" d="M37.2,81.64l1-.74a.31.31,0,0,0,.07-.43l-.75-1a.3.3,0,0,0-.42-.07l-1,.75a.31.31,0,0,0-.07.43l.75,1A.3.3,0,0,0,37.2,81.64Z"/><path class="cls-4" d="M118.79,20l-1,.75a.3.3,0,0,0-.07.42h0l.75,1a.31.31,0,0,0,.43.07l1-.75a.3.3,0,0,0,.07-.42l-.75-1A.31.31,0,0,0,118.79,20Z"/><path class="cls-4" d="M93.19,33.88l-.94.86a.29.29,0,0,0,0,.43l.85.94a.29.29,0,0,0,.43,0l.94-.85a.3.3,0,0,0,0-.43l-.86-.94a.3.3,0,0,0-.43,0Z"/><path class="cls-4" d="M42.5,87.24l.85-.95a.3.3,0,0,0,0-.43L42.38,85A.31.31,0,0,0,42,85l-.85,1a.31.31,0,0,0,0,.43l1,.85a.31.31,0,0,0,.43,0Z"/><path class="cls-4" d="M90.4,31.23l-.86.94a.3.3,0,0,0,0,.43l.94.85a.29.29,0,0,0,.43,0l.86-.94a.3.3,0,0,0,0-.43l-.94-.86A.3.3,0,0,0,90.4,31.23Z"/><path class="cls-4" d="M45.56,89.59l.75-1a.31.31,0,0,0-.07-.43h0l-1-.75a.31.31,0,0,0-.43.07l-.74,1a.31.31,0,0,0,.06.43l1,.74a.31.31,0,0,0,.43-.06Z"/><path class="cls-4" d="M87.34,28.88l-.75,1a.3.3,0,0,0,.07.42l1,.75a.3.3,0,0,0,.42-.07l.75-1a.3.3,0,0,0-.07-.42l-1-.75A.3.3,0,0,0,87.34,28.88Z"/><path class="cls-4" d="M48.85,91.6l.63-1.1a.3.3,0,0,0-.11-.42l-1.1-.63a.3.3,0,0,0-.42.11l-.64,1.1a.31.31,0,0,0,.12.42h0l1.1.64A.31.31,0,0,0,48.85,91.6Z"/><path class="cls-4" d="M84.05,26.86,83.42,28a.3.3,0,0,0,.11.42h0l1.1.64a.32.32,0,0,0,.42-.11l.63-1.11a.3.3,0,0,0-.11-.42l-1.1-.63A.3.3,0,0,0,84.05,26.86Z"/><path class="cls-4" d="M52.33,93.27l.51-1.17a.3.3,0,0,0-.15-.4h0l-1.16-.52a.31.31,0,0,0-.41.16l-.51,1.16a.3.3,0,0,0,.15.4h0l1.16.52A.31.31,0,0,0,52.33,93.27Z"/><path class="cls-4" d="M56,94.56l.39-1.21a.3.3,0,0,0-.19-.39L55,92.57a.32.32,0,0,0-.39.19L54.17,94a.31.31,0,0,0,.2.39l1.21.39A.31.31,0,0,0,56,94.56Z"/><path class="cls-4" d="M59.71,95.46,60,94.21a.31.31,0,0,0-.24-.36l-1.24-.26a.31.31,0,0,0-.37.23h0l-.26,1.25a.3.3,0,0,0,.23.36l1.25.26a.3.3,0,0,0,.36-.23Z"/><path class="cls-4" d="M76.72,6.4l-.27,1.24a.32.32,0,0,0,.24.37h0l1.24.26A.3.3,0,0,0,78.29,8h0l.27-1.25a.31.31,0,0,0-.24-.36l-1.24-.27A.31.31,0,0,0,76.72,6.4Z"/><path class="cls-4" d="M63.54,96l.13-1.26a.31.31,0,0,0-.27-.34l-1.27-.13a.29.29,0,0,0-.33.27h0l-.14,1.27a.32.32,0,0,0,.27.33l1.27.14A.32.32,0,0,0,63.54,96Z"/><path class="cls-4" d="M69.36,22.5l-.13,1.26a.3.3,0,0,0,.27.34l1.27.13A.3.3,0,0,0,71.1,24l.14-1.26a.32.32,0,0,0-.28-.34l-1.26-.13a.3.3,0,0,0-.34.27Z"/><path class="cls-4" d="M41.1,32.49l.85.94a.3.3,0,0,0,.43,0l.95-.86a.3.3,0,0,0,0-.43h0l-.85-.94a.3.3,0,0,0-.43,0l-1,.86A.31.31,0,0,0,41.1,32.49Z"/><path class="cls-4" d="M38.44,35.28l.48.43.47.42a.29.29,0,0,0,.43,0h0l.43-.47.42-.47a.29.29,0,0,0,0-.43l-.47-.43-.47-.43a.31.31,0,0,0-.44,0l-.42.47-.43.47a.31.31,0,0,0,0,.43Z"/><path class="cls-4" d="M74.9,24l.13-.63a.29.29,0,0,0,0-.22.35.35,0,0,0-.2-.14l-.62-.13-.62-.13a.31.31,0,0,0-.37.23l-.13.63Z"/><path class="cls-4" d="M95.7,36.82l-.52.37-.51.38a.3.3,0,0,0-.07.42l.37.52.38.51a.3.3,0,0,0,.42.07h0l.52-.37.51-.38a.31.31,0,0,0,.07-.43l-.37-.51-.38-.51A.3.3,0,0,0,95.7,36.82Z"/><path class="cls-4" d="M107.36,49.2l-.62.14-.62.14a.3.3,0,0,0-.24.36l.14.62.14.62a.31.31,0,0,0,.36.24l.63-.14.62-.13a.31.31,0,0,0,.23-.37l-.14-.62-.13-.62a.32.32,0,0,0-.37-.24Z"/><path class="cls-4" d="M132.21,43.75l-.62.14L131,44a.32.32,0,0,0-.24.37l.14.62.14.62a.31.31,0,0,0,.36.24l.63-.14.62-.14a.3.3,0,0,0,.23-.36h0l-.14-.62-.13-.62a.32.32,0,0,0-.37-.24Z"/><path class="cls-4" d="M88.86,88.48,88.49,88l-.37-.52a.31.31,0,0,0-.43-.07l-.52.38-.51.37a.31.31,0,0,0-.07.43l.37.51.38.52a.31.31,0,0,0,.43.06h0l.51-.37.51-.37A.31.31,0,0,0,88.86,88.48Z"/><path class="cls-4" d="M38.92,82.75l-.48.43a.32.32,0,0,0-.1.21.35.35,0,0,0,.08.22l.43.47.42.48a.31.31,0,0,0,.43,0h0l.48-.43Z"/><path class="cls-4" d="M31.73,69.52l-.6.2a.3.3,0,0,0-.2.38l.2.61.19.6a.31.31,0,0,0,.39.2l.6-.2Z"/><circle class="cls-5" cx="76.68" cy="102.75" r="0.31"/><circle class="cls-5" cx="77.13" cy="101.8" r="0.31"/><circle class="cls-5" cx="75.89" cy="103.36" r="0.31"/><path class="cls-6" d="M66.45,27.15A32.07,32.07,0,1,0,98.52,59.22,32.07,32.07,0,0,0,66.45,27.15Zm0,62.17a30.11,30.11,0,1,1,30.11-30.1,30.11,30.11,0,0,1-30.11,30.1Z"/><rect class="cls-7" x="65.98" y="22.57" width="0.93" height="0.93" rx="0.31"/><rect class="cls-4" x="65.98" y="27.67" width="0.93" height="0.93" rx="0.31"/><rect class="cls-7" x="65.98" y="94.97" width="0.93" height="0.93" rx="0.31"/><rect class="cls-4" x="65.98" y="89.87" width="0.93" height="0.93" rx="0.31"/><rect class="cls-7" x="62.2" y="22.76" width="0.93" height="0.93" rx="0.31" transform="translate(-2.08 6.68) rotate(-6)"/><rect class="cls-4" x="62.73" y="27.84" width="0.93" height="0.93" rx="0.31" transform="translate(-2.61 6.76) rotate(-6)"/><rect class="cls-7" x="58.46" y="23.36" width="0.93" height="0.93" rx="0.31" transform="translate(-3.67 12.77) rotate(-12)"/><rect class="cls-4" x="59.52" y="28.35" width="0.93" height="0.93" rx="0.31" transform="translate(-4.68 13.1) rotate(-12)"/><rect class="cls-4" x="72.45" y="89.19" width="0.93" height="0.93" rx="0.31" transform="matrix(0.98, -0.21, 0.21, 0.98, -17.05, 17.12)"/><rect class="cls-7" x="54.8" y="24.34" width="0.93" height="0.93" rx="0.31" transform="translate(-4.96 18.29) rotate(-18)"/><rect class="cls-4" x="56.37" y="29.19" width="0.93" height="0.93" rx="0.31" transform="translate(-6.38 19.02) rotate(-18)"/><rect class="cls-7" x="51.26" y="25.7" width="0.93" height="0.93" rx="0.31" transform="translate(-6.17 23.3) rotate(-24)"/><rect class="cls-4" x="53.33" y="30.36" width="0.93" height="0.93" rx="0.31" transform="translate(-7.89 24.55) rotate(-24)"/><rect class="cls-7" x="80.71" y="91.84" width="0.93" height="0.93" rx="0.31" transform="translate(-30.52 41) rotate(-24)"/><rect class="cls-4" x="78.63" y="87.18" width="0.93" height="0.93" rx="0.31" transform="translate(-28.81 39.75) rotate(-24)"/><rect class="cls-7" x="47.88" y="27.42" width="0.93" height="0.93" rx="0.31" transform="translate(-7.46 27.91) rotate(-30)"/><rect class="cls-4" x="50.43" y="31.83" width="0.93" height="0.93" rx="0.31" transform="translate(-9.33 29.78) rotate(-30)"/><rect class="cls-7" x="84.08" y="90.12" width="0.93" height="0.93" rx="0.31" transform="translate(-33.96 54.41) rotate(-30)"/><rect class="cls-4" x="81.53" y="85.7" width="0.93" height="0.93" rx="0.31" transform="translate(-32.1 52.54) rotate(-30)"/><rect class="cls-7" x="44.71" y="29.48" width="0.93" height="0.93" rx="0.31" transform="translate(-8.97 32.27) rotate(-36)"/><rect class="cls-4" x="47.87" y="33.43" width="0.93" height="0.93" rx="0.31" transform="translate(-10.69 34.96) rotate(-36.07)"/><path class="cls-8" d="M105.75,111.73l-.74-1a.31.31,0,0,0-.43-.07l-1,.75a.3.3,0,0,0-.07.42h0l.75,1a.31.31,0,0,0,.43.07l1-.75A.3.3,0,0,0,105.75,111.73Z"/><rect class="cls-4" x="84.26" y="83.93" width="0.93" height="0.93" rx="0.31" transform="translate(-33.42 65.92) rotate(-36)"/><rect class="cls-4" x="45.17" y="35.66" width="0.93" height="0.93" rx="0.31" transform="translate(-12.45 39.82) rotate(-42)"/><rect class="cls-7" x="90.21" y="85.67" width="0.93" height="0.93" rx="0.31" transform="translate(-34.34 82.79) rotate(-42)"/><rect class="cls-4" x="86.79" y="81.88" width="0.93" height="0.93" rx="0.31" transform="translate(-32.68 79.54) rotate(-42)"/><rect class="cls-4" x="42.83" y="38.28" width="0.93" height="0.93" rx="0.31" transform="translate(-14.48 44.84) rotate(-47.84)"/><rect class="cls-7" x="92.89" y="82.99" width="0.93" height="0.93" rx="0.31" transform="translate(-31.13 96.99) rotate(-48)"/><rect class="cls-4" x="89.1" y="79.58" width="0.93" height="0.93" rx="0.31" transform="translate(-29.85 93.04) rotate(-48)"/><rect class="cls-7" x="36.7" y="37.49" width="0.93" height="0.93" rx="0.31" transform="translate(-15.39 45.71) rotate(-54)"/><rect class="cls-4" x="40.82" y="40.49" width="0.93" height="0.93" rx="0.31" transform="translate(-16.11 50.29) rotate(-54)"/><rect class="cls-7" x="95.27" y="80.04" width="0.93" height="0.93" rx="0.31" transform="translate(-25.67 110.64) rotate(-54)"/><rect class="cls-4" x="91.14" y="77.05" width="0.93" height="0.93" rx="0.31" transform="translate(-24.95 106.06) rotate(-54)"/><rect class="cls-7" x="34.63" y="40.67" width="0.93" height="0.93" rx="0.31" transform="translate(-18.07 50.96) rotate(-60)"/><rect class="cls-4" x="39.22" y="42.87" width="0.93" height="0.93" rx="0.31" transform="translate(-17.66 56.15) rotate(-60.11)"/><rect class="cls-7" x="97.33" y="76.87" width="0.93" height="0.93" rx="0.31" transform="translate(-18.07 123.36) rotate(-60)"/><rect class="cls-4" x="92.92" y="74.32" width="0.93" height="0.93" rx="0.31" transform="translate(-18.07 118.26) rotate(-60)"/><rect class="cls-7" x="99.05" y="73.49" width="0.93" height="0.93" rx="0.31" transform="translate(-8.52 134.79) rotate(-66)"/><rect class="cls-4" x="94.39" y="71.42" width="0.93" height="0.93" rx="0.31" transform="translate(-9.39 129.3) rotate(-66)"/><rect class="cls-4" x="36.91" y="47.58" width="0.93" height="0.93" rx="0.31" transform="translate(-20.87 65.72) rotate(-69)"/><rect class="cls-7" x="100.41" y="69.95" width="0.93" height="0.93" rx="0.31" transform="translate(2.73 144.6) rotate(-72)"/><rect class="cls-4" x="95.56" y="68.38" width="0.93" height="0.93" rx="0.31" transform="translate(0.88 138.89) rotate(-72)"/><rect class="cls-7" x="30.58" y="51.24" width="0.93" height="0.93" rx="0.31" transform="translate(-25.99 71.32) rotate(-78)"/><rect class="cls-4" x="35.56" y="52.3" width="0.93" height="0.93" rx="0.31" transform="translate(-23.07 77.04) rotate(-78)"/><rect class="cls-7" x="101.39" y="66.29" width="0.93" height="0.93" rx="0.31" transform="translate(15.38 152.51) rotate(-78)"/><rect class="cls-4" x="96.4" y="65.23" width="0.93" height="0.93" rx="0.31" transform="translate(12.47 146.79) rotate(-78)"/><rect class="cls-7" x="29.98" y="54.98" width="0.93" height="0.93" rx="0.31" transform="translate(-27.88 79.93) rotate(-84)"/><rect class="cls-4" x="35.06" y="55.52" width="0.93" height="0.93" rx="0.31" transform="translate(-23.87 85.46) rotate(-84)"/><rect class="cls-7" x="101.99" y="62.55" width="0.93" height="0.93" rx="0.31" transform="translate(29.07 158.32) rotate(-84)"/><rect class="cls-4" x="96.91" y="62.02" width="0.93" height="0.93" rx="0.31" transform="translate(25.06 152.79) rotate(-84)"/><rect class="cls-4" x="34.89" y="58.77" width="0.93" height="0.93" rx="0.31"/><rect class="cls-7" x="102.18" y="58.77" width="0.93" height="0.93" rx="0.31"/><rect class="cls-4" x="97.08" y="58.77" width="0.93" height="0.93" rx="0.31"/><rect class="cls-7" x="29.98" y="62.55" width="0.93" height="0.93" rx="0.31" transform="translate(-6.42 3.53) rotate(-6)"/><rect class="cls-4" x="34.4" y="62.12" width="0.93" height="0.93" rx="0.3" transform="translate(-6.11 3.82) rotate(-5.77)"/><rect class="cls-7" x="30.58" y="66.29" width="0.93" height="0.93" rx="0.31" transform="translate(-13.2 7.91) rotate(-12)"/><rect class="cls-4" x="35.57" y="65.23" width="0.93" height="0.93" rx="0.31" transform="translate(-12.87 8.93) rotate(-12)"/><rect class="cls-4" x="36.41" y="68.38" width="0.93" height="0.93" rx="0.31" transform="translate(-19.47 14.76) rotate(-18)"/><rect class="cls-7" x="32.91" y="73.49" width="0.93" height="0.93" rx="0.31" transform="translate(-27.19 19.97) rotate(-24)"/><rect class="cls-4" x="37.57" y="71.42" width="0.93" height="0.93" rx="0.31" transform="translate(-25.95 21.69) rotate(-24)"/><rect class="cls-7" x="34.63" y="76.87" width="0.93" height="0.93" rx="0.31" transform="translate(-33.96 27.91) rotate(-30)"/><rect class="cls-4" x="39.05" y="74.32" width="0.93" height="0.93" rx="0.31" transform="translate(-32.1 29.78) rotate(-30)"/><rect class="cls-7" x="97.33" y="40.67" width="0.93" height="0.93" rx="0.31" transform="translate(-7.46 54.41) rotate(-30)"/><rect class="cls-4" x="92.92" y="43.22" width="0.93" height="0.93" rx="0.31" transform="translate(-9.33 52.54) rotate(-30)"/><rect class="cls-7" x="36.7" y="80.04" width="0.93" height="0.93" rx="0.31" transform="translate(-40.22 37.22) rotate(-36)"/><rect class="cls-4" x="40.82" y="77.05" width="0.93" height="0.93" rx="0.31" transform="translate(-37.67 39.07) rotate(-36)"/><rect class="cls-4" x="91.14" y="40.49" width="0.93" height="0.93" rx="0.31" transform="translate(-6.58 61.67) rotate(-36)"/><rect class="cls-4" x="42.87" y="79.58" width="0.93" height="0.93" rx="0.31" transform="translate(-42.43 49.56) rotate(-42)"/><rect class="cls-7" x="92.89" y="34.54" width="0.93" height="0.93" rx="0.31" transform="translate(0.55 71.46) rotate(-42)"/><rect class="cls-4" x="89.1" y="37.96" width="0.93" height="0.93" rx="0.31" transform="translate(-2.71 69.8) rotate(-42)"/><rect class="cls-7" x="41.76" y="85.67" width="0.93" height="0.93" rx="0.31" transform="translate(-50.04 59.88) rotate(-48)"/><rect class="cls-4" x="45.18" y="81.88" width="0.93" height="0.93" rx="0.31" transform="translate(-46.09 61.16) rotate(-48)"/><rect class="cls-7" x="90.21" y="31.87" width="0.93" height="0.93" rx="0.31" transform="translate(5.97 78.08) rotate(-48)"/><rect class="cls-4" x="86.79" y="35.66" width="0.93" height="0.93" rx="0.31" transform="translate(2.03 76.8) rotate(-48)"/><rect class="cls-7" x="44.71" y="88.05" width="0.93" height="0.93" rx="0.31" transform="translate(-52.99 73.03) rotate(-54)"/><rect class="cls-4" x="47.7" y="83.93" width="0.93" height="0.93" rx="0.31" transform="translate(-48.42 73.76) rotate(-54)"/><rect class="cls-7" x="87.26" y="29.48" width="0.93" height="0.93" rx="0.31" transform="translate(11.94 83.32) rotate(-54)"/><rect class="cls-4" x="84.26" y="33.61" width="0.93" height="0.93" rx="0.31" transform="translate(7.36 82.59) rotate(-54)"/><rect class="cls-7" x="47.88" y="90.12" width="0.93" height="0.93" rx="0.31" transform="translate(-54.27 87.16) rotate(-60)"/><rect class="cls-4" x="50.77" y="85.3" width="0.93" height="0.93" rx="0.31" transform="translate(-48.65 87.46) rotate(-60.11)"/><rect class="cls-7" x="84.19" y="26.89" width="0.93" height="0.93" rx="0.31" transform="translate(18.76 87.12) rotate(-60.11)"/><rect class="cls-4" x="81.66" y="31.31" width="0.93" height="0.93" rx="0.31" transform="translate(13.65 87.15) rotate(-60.11)"/><rect class="cls-7" x="51.26" y="91.84" width="0.93" height="0.93" rx="0.31" transform="translate(-53.64 102.01) rotate(-66)"/><rect class="cls-4" x="53.34" y="87.18" width="0.93" height="0.93" rx="0.31" transform="translate(-48.15 101.14) rotate(-66)"/><rect class="cls-7" x="54.8" y="93.19" width="0.93" height="0.93" rx="0.31" transform="matrix(0.31, -0.95, 0.95, 0.31, -50.89, 117.28)"/><rect class="cls-4" x="56.37" y="88.34" width="0.93" height="0.93" rx="0.31" transform="translate(-45.19 115.42) rotate(-72)"/><rect class="cls-7" x="58.46" y="94.17" width="0.93" height="0.93" rx="0.31" transform="translate(-45.9 132.6) rotate(-78)"/><rect class="cls-4" x="59.52" y="89.19" width="0.93" height="0.93" rx="0.31" transform="translate(-40.18 129.68) rotate(-78)"/><rect class="cls-4" x="72.45" y="28.35" width="0.93" height="0.93" rx="0.31" transform="translate(29.57 94.14) rotate(-78)"/><rect class="cls-7" x="62.2" y="94.77" width="0.93" height="0.93" rx="0.31" transform="translate(-38.6 147.6) rotate(-84)"/><rect class="cls-4" x="62.73" y="89.7" width="0.93" height="0.93" rx="0.31" transform="translate(-33.07 143.59) rotate(-84)"/><rect class="cls-7" x="69.77" y="22.77" width="0.93" height="0.93" rx="0.31" transform="translate(39.79 90.65) rotate(-84)"/><rect class="cls-4" x="69.23" y="27.84" width="0.93" height="0.93" rx="0.31" transform="translate(34.27 94.66) rotate(-84)"/><rect class="cls-4" x="77.21" y="30.23" width="0.93" height="0.93" rx="0.31" transform="translate(21.01 92.05) rotate(-68.84)"/><rect class="cls-4" x="95.97" y="50.59" width="0.93" height="0.93" rx="0.31" transform="translate(-9.95 26.79) rotate(-15.05)"/><rect class="cls-7" x="41.76" y="31.86" width="0.93" height="0.93" rx="0.31" transform="translate(-10.79 36.56) rotate(-42)"/><path class="cls-5" d="M38.92,35.71l.47.42a.29.29,0,0,0,.43,0h0l.43-.47.42-.47a.31.31,0,0,0,0-.44l-.47-.42Z"/><rect class="cls-7" x="73.51" y="23.36" width="0.93" height="0.93" rx="0.31" transform="translate(35.29 91.23) rotate(-78)"/><rect class="cls-7" x="95.49" y="37.21" width="0.93" height="0.93" rx="0.31" transform="translate(-3.78 63.72) rotate(-36.07)"/><rect class="cls-7" x="87.26" y="88.05" width="0.93" height="0.93" rx="0.31" transform="translate(-35.27 68.47) rotate(-36)"/><rect class="cls-7" x="39.08" y="82.99" width="0.93" height="0.93" rx="0.31" transform="translate(-45.68 47.9) rotate(-42)"/><rect class="cls-7" x="31.56" y="69.95" width="0.93" height="0.93" rx="0.31" transform="translate(-20.19 13.34) rotate(-18)"/><circle class="cls-3" cx="32.62" cy="79.81" r="0.31"/><circle class="cls-3" cx="85.48" cy="18.84" r="0.31"/><circle class="cls-3" cx="83.84" cy="18.06" r="0.31"/><circle class="cls-3" cx="82.9" cy="18.55" r="0.31"/><circle class="cls-3" cx="84.84" cy="18.06" r="0.31"/><circle class="cls-3" cx="85.7" cy="19.87" r="0.31"/><circle class="cls-3" cx="81.68" cy="17.18" r="0.31"/><circle class="cls-3" cx="79.97" cy="16.58" r="0.31"/><circle class="cls-3" cx="79.09" cy="17.17" r="0.31"/><circle class="cls-3" cx="80.97" cy="16.48" r="0.31"/><circle class="cls-3" cx="82.01" cy="18.19" r="0.31"/><circle class="cls-3" cx="111.02" cy="54.53" r="0.31"/><circle class="cls-3" cx="110.16" cy="52.68" r="0.3"/><circle class="cls-3" cx="109.91" cy="52.19" r="0.31"/><circle class="cls-3" cx="111.35" cy="53.58" r="0.31"/><circle class="cls-3" cx="109.6" cy="55.19" r="0.3"/><circle class="cls-3" cx="110.44" cy="50.43" r="0.31"/><circle class="cls-3" cx="110.05" cy="48.65" r="0.31"/><circle class="cls-3" cx="109.1" cy="48.21" r="0.31"/><circle class="cls-3" cx="110.67" cy="49.45" r="0.31"/><circle class="cls-3" cx="109.76" cy="51.23" r="0.31"/><circle class="cls-3" cx="109.44" cy="46.41" r="0.31"/><circle class="cls-3" cx="108.86" cy="44.68" r="0.31"/><circle class="cls-3" cx="107.87" cy="44.34" r="0.31"/><circle class="cls-3" cx="109.56" cy="45.41" r="0.31"/><circle class="cls-3" cx="108.84" cy="47.27" r="0.31"/><circle class="cls-3" cx="108.02" cy="42.51" r="0.31"/><circle class="cls-3" cx="107.27" cy="40.86" r="0.31"/><circle class="cls-3" cx="106.24" cy="40.63" r="0.31"/><circle class="cls-3" cx="108.03" cy="41.51" r="0.31"/><circle class="cls-3" cx="107.51" cy="43.44" r="0.31"/><circle class="cls-3" cx="25.87" cy="40.45" r="0.31"/><circle class="cls-3" cx="25.13" cy="42.11" r="0.31"/><circle class="cls-3" cx="25.65" cy="43.04" r="0.31"/><circle class="cls-3" cx="25.1" cy="41.11" r="0.31"/><circle class="cls-3" cx="26.89" cy="40.21" r="0.31"/><circle class="cls-3" cx="24.31" cy="44.29" r="0.31"/><circle class="cls-3" cx="23.75" cy="46.02" r="0.31"/><circle class="cls-3" cx="24.36" cy="46.88" r="0.31"/><circle class="cls-3" cx="23.62" cy="45.03" r="0.31"/><circle class="cls-3" cx="25.3" cy="43.94" r="0.31"/><circle class="cls-3" cx="70.8" cy="103.68" r="0.31"/><circle class="cls-3" cx="72.61" cy="103.49" r="0.31"/><circle class="cls-3" cx="73.15" cy="102.59" r="0.31"/><circle class="cls-3" cx="71.75" cy="104.02" r="0.31"/><circle class="cls-3" cx="69.08" cy="102.98" r="0.3"/><circle class="cls-3" cx="74.91" cy="103.13" r="0.31"/><circle class="cls-3" cx="74.11" cy="102.44" r="0.31"/><circle class="cls-3" cx="78.93" cy="102.15" r="0.31"/><circle class="cls-3" cx="80.66" cy="101.59" r="0.31"/><circle class="cls-3" cx="81.01" cy="100.59" r="0.31"/><circle class="cls-3" cx="79.93" cy="102.28" r="0.31"/><circle class="cls-3" cx="78.07" cy="101.54" r="0.31"/><circle class="cls-3" cx="67.36" cy="19.65" r="0.31"/><circle class="cls-3" cx="65.54" cy="19.65" r="0.31"/><circle class="cls-3" cx="64.91" cy="20.49" r="0.31"/><circle class="cls-3" cx="66.45" cy="19.22" r="0.31"/><circle class="cls-3" cx="67.99" cy="20.49" r="0.31"/><path class="cls-3" d="M65.19,24.94a.31.31,0,1,1,.61,0h0v1.27a.31.31,0,1,1-.61,0Z"/><path class="cls-3" d="M66.14,24.94a.32.32,0,0,1,.3-.32.3.3,0,0,1,.31.3s0,0,0,0v1.27a.3.3,0,0,1-.29.32.31.31,0,0,1-.32-.29v-1.3Z"/><path class="cls-3" d="M67.1,24.94a.3.3,0,0,1,.3-.31.31.31,0,0,1,.31.31h0v1.27a.31.31,0,0,1-.31.31.3.3,0,0,1-.3-.31Z"/><circle class="cls-3" cx="65.54" cy="98.81" r="0.31"/><circle class="cls-3" cx="67.36" cy="98.81" r="0.31"/><circle class="cls-3" cx="67.99" cy="97.97" r="0.31"/><circle class="cls-3" cx="66.45" cy="99.25" r="0.31"/><circle class="cls-3" cx="64.91" cy="97.97" r="0.31"/><circle class="cls-3" cx="63.21" cy="19.77" r="0.31"/><circle class="cls-3" cx="61.41" cy="19.96" r="0.31"/><circle class="cls-3" cx="60.86" cy="20.86" r="0.31"/><circle class="cls-3" cx="62.27" cy="19.44" r="0.31"/><circle class="cls-3" cx="63.93" cy="20.54" r="0.31"/><circle class="cls-3" cx="59.11" cy="20.32" r="0.31"/><circle class="cls-3" cx="57.33" cy="20.7" r="0.31"/><circle class="cls-3" cx="56.88" cy="21.66" r="0.31"/><circle class="cls-3" cx="58.13" cy="20.09" r="0.31"/><circle class="cls-3" cx="59.9" cy="21.01" r="0.31"/><circle class="cls-3" cx="55.08" cy="21.31" r="0.31"/><circle class="cls-3" cx="53.35" cy="21.87" r="0.31"/><circle class="cls-3" cx="53.01" cy="22.86" r="0.31"/><circle class="cls-3" cx="54.08" cy="21.17" r="0.31"/><circle class="cls-3" cx="55.95" cy="21.91" r="0.31"/><circle class="cls-3" cx="51.18" cy="22.7" r="0.31"/><path class="cls-3" d="M49.4,23.16a.3.3,0,1,1-.16.4A.3.3,0,0,1,49.4,23.16Z"/><circle class="cls-3" cx="49.28" cy="24.47" r="0.31"/><circle class="cls-3" cx="49.9" cy="22.27" r="0.31"/><circle class="cls-3" cx="52.1" cy="23.21" r="0.31"/><circle class="cls-3" cx="81.57" cy="95" r="0.31"/><circle class="cls-3" cx="83.38" cy="95.02" r="0.31"/><circle class="cls-3" cx="83.62" cy="94" r="0.31"/><circle class="cls-3" cx="82.72" cy="95.79" r="0.31"/><circle class="cls-3" cx="80.8" cy="95.25" r="0.31"/><circle class="cls-3" cx="47.44" cy="24.5" r="0.31"/><circle class="cls-3" cx="45.87" cy="25.41" r="0.31"/><circle class="cls-3" cx="45.74" cy="26.45" r="0.31"/><circle class="cls-3" cx="46.44" cy="24.58" r="0.31"/><circle class="cls-3" cx="48.42" cy="24.91" r="0.31"/><circle class="cls-3" cx="85.45" cy="93.97" r="0.31"/><circle class="cls-3" cx="87.03" cy="93.06" r="0.31"/><circle class="cls-3" cx="87.7" cy="92.38" r="0.31"/><circle class="cls-3" cx="86.46" cy="93.89" r="0.31"/><circle class="cls-3" cx="84.48" cy="93.56" r="0.31"/><circle class="cls-3" cx="43.92" cy="26.67" r="0.31"/><circle class="cls-3" cx="42.45" cy="27.74" r="0.31"/><circle class="cls-3" cx="42.43" cy="28.8" r="0.31"/><circle class="cls-3" cx="42.93" cy="26.86" r="0.31"/><circle class="cls-3" cx="44.93" cy="26.98" r="0.31"/><circle class="cls-3" cx="88.98" cy="91.79" r="0.31"/><circle class="cls-3" cx="90.45" cy="90.72" r="0.31"/><circle class="cls-3" cx="90.47" cy="89.67" r="0.31"/><circle class="cls-3" cx="89.97" cy="91.6" r="0.31"/><circle class="cls-3" cx="87.97" cy="91.48" r="0.31"/><circle class="cls-3" cx="40.64" cy="29.21" r="0.31"/><circle class="cls-3" cx="39.29" cy="30.42" r="0.31"/><circle class="cls-3" cx="39.38" cy="31.47" r="0.31"/><circle class="cls-3" cx="39.67" cy="29.49" r="0.31"/><circle class="cls-3" cx="41.67" cy="29.41" r="0.31"/><circle class="cls-3" cx="92.26" cy="89.25" r="0.31"/><circle class="cls-3" cx="93.61" cy="88.04" r="0.31"/><circle class="cls-3" cx="93.52" cy="86.99" r="0.31"/><circle class="cls-3" cx="93.22" cy="88.97" r="0.31"/><circle class="cls-3" cx="91.23" cy="89.06" r="0.31"/><circle class="cls-3" cx="37.64" cy="32.07" r="0.31"/><circle class="cls-3" cx="36.43" cy="33.42" r="0.31"/><circle class="cls-3" cx="36.62" cy="34.46" r="0.31"/><circle class="cls-3" cx="36.71" cy="32.46" r="0.31"/><circle class="cls-3" cx="38.69" cy="32.16" r="0.31"/><circle class="cls-3" cx="95.26" cy="86.39" r="0.31"/><circle class="cls-3" cx="96.47" cy="85.04" r="0.31"/><circle class="cls-3" cx="96.27" cy="84.01" r="0.31"/><circle class="cls-3" cx="96.19" cy="86.01" r="0.31"/><circle class="cls-3" cx="94.21" cy="86.3" r="0.31"/><circle class="cls-3" cx="34.96" cy="35.23" r="0.31"/><circle class="cls-3" cx="33.89" cy="36.7" r="0.31"/><circle class="cls-3" cx="34.2" cy="37.71" r="0.31"/><circle class="cls-3" cx="34.08" cy="35.71" r="0.31"/><circle class="cls-3" cx="36.01" cy="35.21" r="0.31"/><circle class="cls-3" cx="97.94" cy="83.23" r="0.31"/><circle class="cls-3" cx="99.01" cy="81.76" r="0.31"/><circle class="cls-3" cx="98.7" cy="80.75" r="0.31"/><circle class="cls-3" cx="98.82" cy="82.75" r="0.31"/><circle class="cls-3" cx="96.88" cy="83.25" r="0.31"/><circle class="cls-3" cx="32.62" cy="38.65" r="0.31"/><circle class="cls-3" cx="31.72" cy="40.23" r="0.31"/><circle class="cls-3" cx="32.13" cy="41.2" r="0.31"/><circle class="cls-3" cx="31.79" cy="39.22" r="0.31"/><circle class="cls-3" cx="33.67" cy="38.52" r="0.31"/><circle class="cls-3" cx="100.27" cy="79.81" r="0.31"/><circle class="cls-3" cx="101.18" cy="78.24" r="0.31"/><circle class="cls-3" cx="100.77" cy="77.27" r="0.31"/><circle class="cls-3" cx="101.1" cy="79.24" r="0.31"/><circle class="cls-3" cx="99.23" cy="79.94" r="0.31"/><circle class="cls-3" cx="102.24" cy="76.16" r="0.31"/><circle class="cls-3" cx="102.98" cy="74.5" r="0.31"/><circle class="cls-3" cx="102.47" cy="73.58" r="0.31"/><circle class="cls-3" cx="103" cy="75.51" r="0.31"/><circle class="cls-3" cx="101.21" cy="76.4" r="0.31"/><circle class="cls-3" cx="103.81" cy="72.33" r="0.31"/><circle class="cls-3" cx="104.37" cy="70.6" r="0.31"/><circle class="cls-3" cx="103.77" cy="69.73" r="0.31"/><circle class="cls-3" cx="104.51" cy="71.6" r="0.31"/><circle class="cls-3" cx="102.82" cy="72.67" r="0.31"/><circle class="cls-3" cx="27.92" cy="50.11" r="0.31"/><circle class="cls-3" cx="27.54" cy="51.89" r="0.31"/><circle class="cls-3" cx="28.23" cy="52.69" r="0.31"/><circle class="cls-3" cx="27.56" cy="50.88" r="0.31"/><circle class="cls-3" cx="28.87" cy="49.67" r="0.31"/><circle class="cls-3" cx="104.98" cy="68.35" r="0.31"/><circle class="cls-3" cx="105.36" cy="66.57" r="0.31"/><circle class="cls-3" cx="104.67" cy="65.78" r="0.31"/><circle class="cls-3" cx="105.59" cy="67.55" r="0.31"/><circle class="cls-3" cx="104.02" cy="68.8" r="0.31"/><circle class="cls-3" cx="27.18" cy="54.19" r="0.31"/><circle class="cls-3" cx="26.99" cy="56" r="0.31"/><circle class="cls-3" cx="27.76" cy="56.72" r="0.31"/><circle class="cls-3" cx="26.65" cy="55.05" r="0.31"/><circle class="cls-3" cx="28.08" cy="53.65" r="0.31"/><circle class="cls-3" cx="105.72" cy="64.27" r="0.31"/><circle class="cls-3" cx="105.91" cy="62.47" r="0.31"/><circle class="cls-3" cx="104.17" cy="62.16" r="0.3"/><circle class="cls-3" cx="106.25" cy="63.41" r="0.31"/><circle class="cls-3" cx="104.82" cy="64.82" r="0.31"/><circle class="cls-3" cx="26.87" cy="58.32" r="0.31"/><circle class="cls-3" cx="26.87" cy="60.14" r="0.31"/><circle class="cls-3" cx="27.71" cy="60.78" r="0.31"/><circle class="cls-3" cx="26.43" cy="59.23" r="0.31"/><circle class="cls-3" cx="27.71" cy="57.69" r="0.31"/><circle class="cls-3" cx="106.03" cy="60.14" r="0.31"/><circle class="cls-3" cx="106.03" cy="58.32" r="0.31"/><circle class="cls-3" cx="105.19" cy="57.69" r="0.31"/><circle class="cls-3" cx="106.46" cy="59.23" r="0.31"/><circle class="cls-3" cx="105.19" cy="60.78" r="0.31"/><circle class="cls-3" cx="26.99" cy="62.47" r="0.31"/><circle class="cls-3" cx="27.18" cy="64.27" r="0.31"/><circle class="cls-3" cx="28.08" cy="64.82" r="0.31"/><circle class="cls-3" cx="26.65" cy="63.41" r="0.31"/><circle class="cls-3" cx="27.76" cy="61.75" r="0.31"/><circle class="cls-3" cx="27.54" cy="66.57" r="0.31"/><circle class="cls-3" cx="27.92" cy="68.35" r="0.31"/><circle class="cls-3" cx="28.87" cy="68.8" r="0.31"/><circle class="cls-3" cx="27.31" cy="67.55" r="0.31"/><circle class="cls-3" cx="28.23" cy="65.78" r="0.31"/><circle class="cls-3" cx="28.52" cy="70.6" r="0.31"/><circle class="cls-3" cx="29.08" cy="72.33" r="0.31"/><circle class="cls-3" cx="30.08" cy="72.67" r="0.31"/><circle class="cls-3" cx="28.39" cy="71.6" r="0.31"/><circle class="cls-3" cx="29.13" cy="69.74" r="0.31"/><circle class="cls-3" cx="29.92" cy="74.5" r="0.31"/><circle class="cls-3" cx="30.66" cy="76.16" r="0.31"/><circle class="cls-3" cx="31.68" cy="76.4" r="0.31"/><circle class="cls-3" cx="29.89" cy="75.51" r="0.31"/><circle class="cls-3" cx="30.43" cy="73.58" r="0.31"/><circle class="cls-3" cx="31.72" cy="78.24" r="0.31"/><circle class="cls-3" cx="33.67" cy="79.94" r="0.31"/><circle class="cls-3" cx="31.79" cy="79.24" r="0.31"/><circle class="cls-3" cx="32.13" cy="77.27" r="0.31"/><circle class="cls-3" cx="101.18" cy="40.23" r="0.31"/><circle class="cls-3" cx="100.27" cy="38.65" r="0.31"/><circle class="cls-3" cx="99.23" cy="38.52" r="0.31"/><circle class="cls-3" cx="101.1" cy="39.22" r="0.31"/><circle class="cls-3" cx="100.77" cy="41.2" r="0.31"/><circle class="cls-3" cx="33.89" cy="81.76" r="0.31"/><circle class="cls-3" cx="34.96" cy="83.23" r="0.31"/><circle class="cls-3" cx="36.01" cy="83.25" r="0.31"/><circle class="cls-3" cx="34.08" cy="82.75" r="0.31"/><circle class="cls-3" cx="34.2" cy="80.75" r="0.31"/><circle class="cls-3" cx="99.01" cy="36.7" r="0.31"/><circle class="cls-3" cx="97.94" cy="35.23" r="0.31"/><circle class="cls-3" cx="96.88" cy="35.21" r="0.31"/><circle class="cls-3" cx="98.82" cy="35.71" r="0.31"/><circle class="cls-3" cx="98.7" cy="37.71" r="0.31"/><circle class="cls-3" cx="36.43" cy="85.04" r="0.31"/><circle class="cls-3" cx="37.64" cy="86.39" r="0.31"/><circle class="cls-3" cx="38.69" cy="86.3" r="0.31"/><circle class="cls-3" cx="36.71" cy="86.01" r="0.31"/><circle class="cls-3" cx="36.62" cy="84.01" r="0.31"/><circle class="cls-3" cx="96.47" cy="33.42" r="0.31"/><circle class="cls-3" cx="95.26" cy="32.07" r="0.31"/><circle class="cls-3" cx="94.21" cy="32.16" r="0.31"/><circle class="cls-3" cx="96.19" cy="32.46" r="0.31"/><circle class="cls-3" cx="96.27" cy="34.45" r="0.31"/><circle class="cls-3" cx="39.29" cy="88.04" r="0.31"/><circle class="cls-3" cx="40.64" cy="89.25" r="0.31"/><circle class="cls-3" cx="41.67" cy="89.06" r="0.31"/><circle class="cls-3" cx="39.67" cy="88.97" r="0.31"/><circle class="cls-3" cx="39.38" cy="86.99" r="0.31"/><circle class="cls-3" cx="93.61" cy="30.42" r="0.31"/><circle class="cls-3" cx="92.26" cy="29.21" r="0.31"/><circle class="cls-3" cx="91.23" cy="29.41" r="0.31"/><circle class="cls-3" cx="93.22" cy="29.49" r="0.31"/><circle class="cls-3" cx="93.52" cy="31.47" r="0.31"/><path class="cls-3" d="M88.46,32.9a.3.3,0,0,1,.45.41l-.85.95a.3.3,0,1,1-.45-.41Z"/><path class="cls-3" d="M89.17,33.54a.3.3,0,0,1,.43,0,.31.31,0,0,1,0,.43h0l-.85.95a.31.31,0,0,1-.47-.4h0Z"/><path class="cls-3" d="M89.88,34.18a.3.3,0,0,1,.45.41l-.85.95a.31.31,0,0,1-.43,0,.3.3,0,0,1,0-.43h0Z"/><circle class="cls-3" cx="42.45" cy="90.72" r="0.31"/><circle class="cls-3" cx="43.92" cy="91.79" r="0.31"/><circle class="cls-3" cx="44.93" cy="91.48" r="0.31"/><circle class="cls-3" cx="42.93" cy="91.6" r="0.31"/><circle class="cls-3" cx="42.43" cy="89.67" r="0.31"/><circle class="cls-3" cx="90.45" cy="27.74" r="0.31"/><circle class="cls-3" cx="88.98" cy="26.67" r="0.31"/><circle class="cls-3" cx="87.97" cy="26.98" r="0.31"/><circle class="cls-3" cx="90.3" cy="26.78" r="0.31"/><circle class="cls-3" cx="90.81" cy="28.72" r="0.31"/><path class="cls-3" d="M85.59,30.75a.3.3,0,0,1,.42-.08.32.32,0,0,1,.08.43h0l-.75,1a.31.31,0,0,1-.5-.35h0Z"/><path class="cls-3" d="M86.36,31.31a.3.3,0,0,1,.43-.06.3.3,0,0,1,.06.42l-.74,1a.31.31,0,0,1-.5-.36Z"/><path class="cls-3" d="M87.13,31.87a.3.3,0,0,1,.43-.06.3.3,0,0,1,.06.42l-.74,1a.3.3,0,0,1-.43.05.3.3,0,0,1-.07-.41Z"/><circle class="cls-3" cx="45.87" cy="93.06" r="0.31"/><circle class="cls-3" cx="47.44" cy="93.97" r="0.31"/><circle class="cls-3" cx="48.42" cy="93.56" r="0.31"/><circle class="cls-3" cx="46.44" cy="93.89" r="0.31"/><circle class="cls-3" cx="45.74" cy="92.01" r="0.31"/><circle class="cls-3" cx="87.03" cy="25.41" r="0.31"/><circle class="cls-3" cx="85.45" cy="24.5" r="0.31"/><circle class="cls-3" cx="84.48" cy="24.91" r="0.31"/><circle class="cls-3" cx="86.46" cy="24.58" r="0.31"/><circle class="cls-3" cx="87.16" cy="26.45" r="0.31"/><path class="cls-3" d="M82.5,28.9a.31.31,0,0,1,.56.27l0,0-.63,1.1a.3.3,0,0,1-.42.11.29.29,0,0,1-.11-.41Z"/><path class="cls-3" d="M83.33,29.38a.32.32,0,0,1,.43-.08.32.32,0,0,1,.1.39l-.64,1.1a.31.31,0,0,1-.42.11.32.32,0,0,1-.11-.42Z"/><path class="cls-3" d="M84.16,29.86a.29.29,0,0,1,.42-.08.3.3,0,0,1,.1.38l-.63,1.11a.31.31,0,0,1-.42.11.29.29,0,0,1-.11-.41h0Z"/><path class="cls-3" d="M49.24,94.9a.3.3,0,0,1,.4-.16.31.31,0,0,1,.16.41.3.3,0,0,1-.4.15A.3.3,0,0,1,49.24,94.9Z"/><circle class="cls-3" cx="51.18" cy="95.76" r="0.31"/><circle class="cls-3" cx="52.1" cy="95.25" r="0.31"/><circle class="cls-3" cx="50.17" cy="95.79" r="0.31"/><circle class="cls-3" cx="49.28" cy="94" r="0.31"/><circle class="cls-3" cx="53.35" cy="96.6" r="0.31"/><circle class="cls-3" cx="55.08" cy="97.16" r="0.31"/><circle class="cls-3" cx="55.95" cy="96.55" r="0.31"/><circle class="cls-3" cx="54.08" cy="97.49" r="0.31"/><circle class="cls-3" cx="53.01" cy="95.6" r="0.31"/><circle class="cls-3" cx="57.33" cy="97.76" r="0.31"/><circle class="cls-3" cx="59.11" cy="98.14" r="0.31"/><circle class="cls-3" cx="59.9" cy="97.45" r="0.31"/><path class="cls-3" d="M57.83,98.31a.31.31,0,0,1,.36-.24.32.32,0,0,1,.24.37.31.31,0,0,1-.6-.13Z"/><circle class="cls-3" cx="56.88" cy="96.81" r="0.31"/><circle class="cls-3" cx="75.57" cy="20.7" r="0.31"/><circle class="cls-3" cx="73.79" cy="20.33" r="0.31"/><circle class="cls-3" cx="72.99" cy="21.01" r="0.31"/><circle class="cls-3" cx="74.77" cy="20.09" r="0.31"/><circle class="cls-3" cx="76.01" cy="21.66" r="0.31"/><path class="cls-3" d="M72.35,25.43a.29.29,0,0,1,.36-.24.3.3,0,0,1,.24.35h0l-.26,1.25a.31.31,0,0,1-.6-.13Z"/><path class="cls-3" d="M73.28,25.63a.3.3,0,0,1,.37-.23.3.3,0,0,1,.23.35L73.62,27a.31.31,0,0,1-.37.23.3.3,0,0,1-.23-.36Z"/><path class="cls-3" d="M74.21,25.82a.31.31,0,0,1,.36-.24.3.3,0,0,1,.24.36h0l-.26,1.25a.31.31,0,0,1-.37.23.3.3,0,0,1-.23-.36Z"/><path class="cls-3" d="M61.1,98.47a.3.3,0,0,1,.34-.27.3.3,0,0,1,.27.33.3.3,0,0,1-.33.28A.32.32,0,0,1,61.1,98.47Z"/><path class="cls-3" d="M62.91,98.66a.3.3,0,0,1,.34-.27.31.31,0,0,1,.27.33.32.32,0,0,1-.34.28A.3.3,0,0,1,62.91,98.66Z"/><circle class="cls-3" cx="62.98" cy="97.99" r="0.3"/><circle class="cls-3" cx="62.27" cy="99.03" r="0.31"/><circle class="cls-3" cx="60.86" cy="97.6" r="0.31"/><circle class="cls-3" cx="71.49" cy="19.96" r="0.31"/><circle class="cls-3" cx="69.68" cy="19.77" r="0.31"/><circle class="cls-3" cx="68.96" cy="20.54" r="0.31"/><circle class="cls-3" cx="70.63" cy="19.43" r="0.31"/><circle class="cls-3" cx="72.03" cy="20.86" r="0.31"/><path class="cls-3" d="M68.78,25a.3.3,0,0,1,.34-.27.31.31,0,0,1,.27.33l-.13,1.26a.3.3,0,0,1-.34.27.29.29,0,0,1-.27-.33Z"/><path class="cls-3" d="M69.73,25.1a.32.32,0,0,1,.34-.28.31.31,0,0,1,.27.34h0l-.13,1.26a.31.31,0,0,1-.35.26.3.3,0,0,1-.26-.32Z"/><path class="cls-3" d="M70.68,25.2a.3.3,0,0,1,.33-.28.32.32,0,0,1,.28.33h0l-.14,1.26a.3.3,0,0,1-.33.28.32.32,0,0,1-.28-.34Z"/><path class="cls-3" d="M77.55,26.76a.31.31,0,0,1,.4-.17.32.32,0,0,1,.17.39l-.46,1.19a.3.3,0,1,1-.57-.21h0Z"/><path class="cls-3" d="M78.44,27.1a.3.3,0,0,1,.4-.16.3.3,0,0,1,.17.38l-.46,1.19A.3.3,0,1,1,78,28.3h0Z"/><path class="cls-3" d="M79.33,27.44a.31.31,0,0,1,.39-.19.31.31,0,0,1,.19.39v0l-.46,1.19a.31.31,0,0,1-.39.19.3.3,0,0,1-.18-.39v0Z"/><path class="cls-3" d="M73.18,23l-.13.63-.13.62a.32.32,0,0,0,.24.37l.62.13.62.13a.32.32,0,0,0,.37-.24L74.9,24,75,23.4a.3.3,0,0,0,0-.23A.33.33,0,0,0,74.8,23l-.63-.13-.62-.13a.29.29,0,0,0-.36.24Z"/><path class="cls-3" d="M34.23,71a.32.32,0,0,1-.4-.19.31.31,0,0,1,.19-.39h0l1.21-.39a.3.3,0,0,1,.38.2.29.29,0,0,1-.19.38Z"/><path class="cls-3" d="M33.93,70.12a.31.31,0,0,1-.39-.2.3.3,0,0,1,.2-.38L35,69.15a.29.29,0,0,1,.38.19.3.3,0,0,1-.19.39h0Z"/><path class="cls-3" d="M33.64,69.21a.31.31,0,0,1-.19-.58l1.21-.39a.29.29,0,0,1,.38.19.31.31,0,0,1-.19.39h0Z"/><path class="cls-3" d="M30.25,60.17h.63a.3.3,0,0,0,.31-.3V58.6a.31.31,0,0,0-.31-.31h-.63Z"/><path class="cls-3" d="M67.71,93.52a.32.32,0,0,1-.32.3.31.31,0,0,1-.29-.3V92.25a.3.3,0,0,1,.32-.29.3.3,0,0,1,.29.29Z"/><path class="cls-3" d="M66.76,93.52a.32.32,0,0,1-.32.3.32.32,0,0,1-.3-.3V92.25a.31.31,0,0,1,.62,0Z"/><path class="cls-3" d="M65.8,93.52a.31.31,0,1,1-.61,0V92.25a.31.31,0,1,1,.61,0h0Z"/><path class="cls-3" d="M61.61,25.26a.3.3,0,0,1,.28-.33.3.3,0,0,1,.33.27l.13,1.26a.3.3,0,0,1-.27.34.32.32,0,0,1-.34-.28Z"/><path class="cls-3" d="M62.56,25.16a.3.3,0,0,1,.27-.34.32.32,0,0,1,.34.28h0l.13,1.26a.3.3,0,1,1-.6.09v0Z"/><path class="cls-3" d="M63.51,25.06a.3.3,0,0,1,.27-.33.3.3,0,0,1,.34.27l.13,1.26a.31.31,0,0,1-.61.07h0Z"/><path class="cls-3" d="M58.09,26a.3.3,0,1,1,.59-.14h0L59,27.07a.31.31,0,0,1-.6.13Z"/><path class="cls-3" d="M59,25.75a.3.3,0,0,1,.24-.36.3.3,0,0,1,.36.24l.26,1.24a.3.3,0,0,1-.23.36.31.31,0,0,1-.37-.23Z"/><path class="cls-3" d="M60,25.55a.3.3,0,0,1,.24-.35.3.3,0,0,1,.36.23l.27,1.24a.31.31,0,0,1-.6.13Z"/><path class="cls-3" d="M54.65,27a.31.31,0,0,1,.19-.39.3.3,0,0,1,.39.18v0L55.63,28a.3.3,0,0,1-.19.39.31.31,0,0,1-.39-.18v0Z"/><path class="cls-3" d="M55.56,26.71a.31.31,0,0,1,.21-.38.3.3,0,0,1,.37.19l.4,1.21a.31.31,0,0,1-.59.19Z"/><path class="cls-3" d="M56.47,26.42a.3.3,0,1,1,.57-.21v0l.39,1.21a.3.3,0,0,1-.18.39.3.3,0,0,1-.39-.18v0Z"/><path class="cls-3" d="M51.35,28.42a.31.31,0,0,1,.16-.41.3.3,0,0,1,.4.16h0l.52,1.16a.31.31,0,0,1-.15.41.3.3,0,0,1-.4-.15h0Z"/><path class="cls-3" d="M52.22,28a.31.31,0,0,1,.56-.25l.52,1.16a.31.31,0,0,1-.14.41.3.3,0,0,1-.41-.14v0Z"/><path class="cls-3" d="M53.09,27.64a.3.3,0,0,1,.16-.4.3.3,0,0,1,.4.15l.52,1.16A.31.31,0,0,1,54,29a.3.3,0,0,1-.41-.14v0Z"/><path class="cls-3" d="M81.55,90.05a.3.3,0,0,1-.16.4.3.3,0,0,1-.4-.15l-.52-1.17a.31.31,0,0,1,.14-.41.3.3,0,0,1,.41.15h0Z"/><path class="cls-3" d="M80.68,90.43a.3.3,0,0,1-.15.41.29.29,0,0,1-.4-.14v0l-.52-1.16a.3.3,0,0,1,.16-.4.3.3,0,0,1,.4.15h0Z"/><path class="cls-3" d="M79.81,90.82a.33.33,0,0,1-.16.41.3.3,0,0,1-.4-.16l-.52-1.16a.31.31,0,1,1,.55-.27v0Z"/><path class="cls-3" d="M48.21,30.16a.31.31,0,0,1,.5-.35l0,.05.64,1.1a.32.32,0,0,1-.08.43.31.31,0,0,1-.43-.08s0,0,0,0Z"/><path class="cls-3" d="M49,29.69a.31.31,0,0,1,.14-.41.32.32,0,0,1,.39.1l.63,1.1a.31.31,0,0,1-.07.43.31.31,0,0,1-.43-.08l0,0Z"/><path class="cls-3" d="M49.86,29.21a.31.31,0,0,1,.51-.35s0,0,0,0L51,30a.3.3,0,0,1-.08.42.29.29,0,0,1-.42-.07l0-.05Z"/><path class="cls-3" d="M84.69,88.3a.32.32,0,0,1-.15.41.3.3,0,0,1-.38-.11l-.64-1.1a.32.32,0,0,1,.15-.41.3.3,0,0,1,.38.11Z"/><path class="cls-3" d="M83.86,88.78a.3.3,0,0,1-.12.41.29.29,0,0,1-.41-.11L82.69,88a.31.31,0,1,1,.51-.35s0,0,0,0Z"/><path class="cls-3" d="M83,89.25a.3.3,0,0,1-.1.42.3.3,0,0,1-.42-.11h0l-.63-1.1a.31.31,0,0,1,.07-.43.31.31,0,0,1,.43.08l0,0Z"/><path class="cls-3" d="M45.27,32.23a.31.31,0,0,1,.06-.43.3.3,0,0,1,.43.06h0l.75,1a.31.31,0,0,1-.5.36Z"/><path class="cls-3" d="M46.05,31.67a.31.31,0,0,1,.07-.43.31.31,0,0,1,.42.07l.75,1a.31.31,0,0,1-.5.36Z"/><path class="cls-3" d="M46.82,31.11a.31.31,0,0,1,.08-.43.3.3,0,0,1,.41.07l.75,1a.3.3,0,0,1-.08.42.32.32,0,0,1-.42-.06Z"/><path class="cls-3" d="M87.63,86.23a.32.32,0,0,1-.09.43.3.3,0,0,1-.41-.07l-.75-1a.31.31,0,0,1,.09-.42.31.31,0,0,1,.41.06Z"/><path class="cls-3" d="M86.85,86.79a.31.31,0,0,1-.06.43.31.31,0,0,1-.43-.07h0l-.75-1a.29.29,0,0,1,.06-.42.3.3,0,0,1,.43.06h0Z"/><path class="cls-3" d="M86.08,87.35a.31.31,0,0,1-.07.43.3.3,0,0,1-.42-.07l-.75-1a.31.31,0,0,1,.07-.43.3.3,0,0,1,.42.07Z"/><path class="cls-3" d="M42.57,34.59a.3.3,0,0,1,.44-.42h0l.85,1a.3.3,0,0,1,0,.43.31.31,0,0,1-.41,0Z"/><path class="cls-3" d="M43.28,34a.3.3,0,0,1,0-.43.31.31,0,0,1,.44,0h0l.85,1a.3.3,0,0,1,0,.43.3.3,0,0,1-.42,0Z"/><path class="cls-3" d="M44,33.31a.3.3,0,0,1,0-.43.31.31,0,0,1,.44,0h0l.85,1a.3.3,0,0,1,0,.43.29.29,0,0,1-.43,0h0Z"/><path class="cls-3" d="M90.33,83.87a.31.31,0,0,1,0,.44.29.29,0,0,1-.42,0L89,83.34a.3.3,0,0,1,0-.43.31.31,0,0,1,.44,0h0Z"/><path class="cls-3" d="M89.62,84.51a.3.3,0,1,1-.44.42h0l-.85-1a.3.3,0,0,1,0-.43.31.31,0,0,1,.42,0Z"/><path class="cls-3" d="M88.91,85.15a.3.3,0,0,1,0,.43.31.31,0,0,1-.43,0l-.85-1a.3.3,0,0,1,.45-.41Z"/><path class="cls-3" d="M40.12,37.22a.31.31,0,0,1,.41-.46h0l.95.85a.3.3,0,0,1-.41.45Z"/><path class="cls-3" d="M40.76,36.51a.31.31,0,0,1,0-.43.3.3,0,0,1,.42,0l.94.85a.31.31,0,1,1-.39.47v0Z"/><path class="cls-3" d="M41.4,35.8a.3.3,0,1,1,.4-.46h0l.94.85a.29.29,0,0,1,0,.43.31.31,0,0,1-.43,0Z"/><path class="cls-3" d="M92.78,81.24a.3.3,0,0,1,0,.43.29.29,0,0,1-.42,0l-1-.86a.31.31,0,0,1,0-.43.32.32,0,0,1,.42,0Z"/><path class="cls-3" d="M92.14,82a.31.31,0,0,1,0,.43.3.3,0,0,1-.42,0l-1-.85a.31.31,0,0,1,.41-.46h0Z"/><path class="cls-3" d="M91.5,82.66a.3.3,0,1,1-.41.45l-1-.85a.3.3,0,0,1,0-.43.29.29,0,0,1,.41,0Z"/><path class="cls-3" d="M38,40.09a.29.29,0,0,1-.06-.42.3.3,0,0,1,.42-.07l1,.75a.3.3,0,0,1,.06.43.3.3,0,0,1-.42.06Z"/><path class="cls-3" d="M38.53,39.32a.3.3,0,0,1-.06-.43.3.3,0,0,1,.42-.06l1,.75A.3.3,0,0,1,40,40a.31.31,0,0,1-.43.07Z"/><path class="cls-3" d="M39.09,38.55a.31.31,0,0,1-.08-.43.31.31,0,0,1,.43-.07h0l1,.74a.31.31,0,0,1-.36.5Z"/><path class="cls-3" d="M94.93,78.37a.31.31,0,0,1,.09.42.32.32,0,0,1-.43.09l0,0-1-.74a.31.31,0,0,1,.36-.5Z"/><path class="cls-3" d="M94.37,79.14a.31.31,0,1,1-.35.5h0l-1-.75a.31.31,0,0,1,.36-.5Z"/><path class="cls-3" d="M93.81,79.91a.32.32,0,0,1,.08.43.31.31,0,0,1-.43.07h0l-1-.75a.31.31,0,0,1,.36-.5Z"/><path class="cls-3" d="M36.12,43.18a.32.32,0,0,1-.11-.42.3.3,0,0,1,.42-.11l1.1.63a.3.3,0,0,1,.11.42.3.3,0,0,1-.42.11Z"/><path class="cls-3" d="M36.6,42.35a.3.3,0,0,1-.11-.42.31.31,0,0,1,.41-.11l1.11.64a.29.29,0,0,1,.14.4.3.3,0,0,1-.4.15l0,0Z"/><path class="cls-3" d="M37.08,41.52A.29.29,0,0,1,37,41.1a.3.3,0,0,1,.38-.1l1.1.63a.31.31,0,1,1-.26.56l0,0Z"/><path class="cls-3" d="M96.78,75.29a.3.3,0,0,1,.14.4.3.3,0,0,1-.41.15l0,0-1.1-.63a.31.31,0,0,1-.08-.43.31.31,0,0,1,.38-.1Z"/><path class="cls-3" d="M96.3,76.11a.32.32,0,0,1,.15.41.32.32,0,0,1-.41.15l-.05,0L94.89,76a.29.29,0,0,1-.14-.4.3.3,0,0,1,.4-.15l0,0Z"/><path class="cls-3" d="M95.82,76.94a.3.3,0,0,1,.14.41.31.31,0,0,1-.41.14l0,0-1.11-.64a.3.3,0,0,1-.14-.41.29.29,0,0,1,.4-.14l0,0Z"/><path class="cls-3" d="M98.29,72a.3.3,0,0,1,.15.4.32.32,0,0,1-.4.16l-1.16-.52a.31.31,0,0,1-.17-.4.3.3,0,0,1,.4-.16h0Z"/><path class="cls-3" d="M97.9,72.9a.3.3,0,0,1,.14.41.31.31,0,0,1-.39.15l-1.16-.52a.31.31,0,0,1-.17-.4.32.32,0,0,1,.4-.17h0Z"/><path class="cls-3" d="M97.51,73.77a.3.3,0,0,1,.16.4.31.31,0,0,1-.41.16l-1.16-.52a.31.31,0,0,1-.17-.4.31.31,0,0,1,.4-.16h0Z"/><path class="cls-3" d="M99.45,68.63a.31.31,0,0,1,.21.38.32.32,0,0,1-.38.21h0l-1.21-.39a.3.3,0,0,1-.2-.38.31.31,0,0,1,.38-.21h0Z"/><path class="cls-3" d="M99.16,69.54a.29.29,0,0,1,.19.38.3.3,0,0,1-.38.2l-1.21-.39a.32.32,0,0,1-.19-.4.32.32,0,0,1,.38-.19Z"/><path class="cls-3" d="M98.86,70.44a.31.31,0,0,1,.21.38.3.3,0,0,1-.38.21h0l-1.21-.4a.3.3,0,0,1-.2-.38.29.29,0,0,1,.37-.2h0Z"/><path class="cls-3" d="M32.65,53.33a.3.3,0,0,1,.12-.59L34,53a.31.31,0,0,1,.24.36.3.3,0,0,1-.36.24h0Z"/><path class="cls-3" d="M32.84,52.4a.3.3,0,0,1-.23-.36A.31.31,0,0,1,33,51.8l1.24.27a.31.31,0,0,1-.12.6Z"/><path class="cls-3" d="M33,51.47a.31.31,0,0,1-.24-.36.3.3,0,0,1,.36-.24h0l1.24.26a.31.31,0,0,1,.23.37.3.3,0,0,1-.35.23Z"/><path class="cls-3" d="M100.25,65.13a.3.3,0,0,1,.23.37.3.3,0,0,1-.35.23l-1.25-.27a.31.31,0,0,1,.13-.6Z"/><path class="cls-3" d="M100.06,66.06a.3.3,0,0,1,.23.36.3.3,0,0,1-.36.24h0l-1.25-.26a.31.31,0,0,1-.23-.37.3.3,0,0,1,.36-.23h0Z"/><path class="cls-3" d="M99.86,67a.32.32,0,0,1,.23.37.3.3,0,0,1-.36.23l-1.24-.26a.31.31,0,1,1,.12-.6h0Z"/><path class="cls-3" d="M32.21,56.9a.31.31,0,0,1,.07-.61l1.26.13a.32.32,0,0,1,.28.34.3.3,0,0,1-.34.27Z"/><path class="cls-3" d="M32.31,56a.3.3,0,0,1-.27-.33.3.3,0,0,1,.33-.28h0l1.26.14a.3.3,0,0,1,.27.34.32.32,0,0,1-.33.27Z"/><path class="cls-3" d="M32.41,55a.31.31,0,0,1-.27-.33.32.32,0,0,1,.34-.28l1.26.14a.3.3,0,0,1,.26.34.31.31,0,0,1-.32.27Z"/><path class="cls-3" d="M100.68,61.56a.3.3,0,0,1,.27.34.29.29,0,0,1-.33.27L99.36,62a.31.31,0,0,1-.28-.34.31.31,0,0,1,.33-.27h0Z"/><path class="cls-3" d="M100.59,62.51a.32.32,0,0,1,.27.34.3.3,0,0,1-.34.27L99.26,63a.32.32,0,0,1-.28-.34.3.3,0,0,1,.34-.27h0Z"/><path class="cls-3" d="M100.49,63.46a.31.31,0,0,1-.07.61l-1.26-.13a.3.3,0,0,1-.27-.34.3.3,0,0,1,.33-.27Z"/><path class="cls-3" d="M32.16,60.49a.31.31,0,1,1,0-.61h1.3a.3.3,0,0,1,.32.29.32.32,0,0,1-.3.32H32.16Z"/><path class="cls-3" d="M32.16,59.54a.31.31,0,0,1-.31-.31.3.3,0,0,1,.31-.3h1.27a.3.3,0,0,1,.31.3.31.31,0,0,1-.31.31Z"/><path class="cls-3" d="M32.16,58.58a.3.3,0,0,1-.31-.3.31.31,0,0,1,.31-.31h1.27a.31.31,0,0,1,.31.31.3.3,0,0,1-.31.3Z"/><path class="cls-3" d="M100.74,58a.31.31,0,0,1,.31.31.3.3,0,0,1-.31.3H99.47a.3.3,0,0,1-.31-.3.31.31,0,0,1,.31-.31h1.27Z"/><path class="cls-3" d="M100.74,58.93a.3.3,0,0,1,.32.29.31.31,0,0,1-.29.32h-1.3a.31.31,0,0,1-.32-.3.3.3,0,0,1,.29-.31h1.3Z"/><path class="cls-3" d="M100.74,59.88a.31.31,0,1,1,0,.61H99.47a.31.31,0,1,1,0-.61h1.27Z"/><path class="cls-3" d="M32.48,64.07a.31.31,0,1,1-.07-.61h0l1.27-.13a.3.3,0,0,1,.09.6h0Z"/><path class="cls-3" d="M32.38,63.12a.31.31,0,1,1-.07-.61h0l1.27-.13a.3.3,0,0,1,.33.27.3.3,0,0,1-.27.34Z"/><path class="cls-3" d="M32.28,62.17a.31.31,0,0,1-.12-.6h.05l1.27-.14a.31.31,0,0,1,.34.27.32.32,0,0,1-.28.34Z"/><path class="cls-3" d="M33.17,67.59A.3.3,0,0,1,33,67l1.25-.27a.31.31,0,0,1,.13.6h0Z"/><path class="cls-3" d="M33,66.66a.3.3,0,0,1-.15-.59h0l1.25-.26a.3.3,0,0,1,.36.24.31.31,0,0,1-.24.36Z"/><path class="cls-3" d="M32.77,65.73a.31.31,0,0,1-.36-.24.3.3,0,0,1,.23-.36l1.25-.27a.31.31,0,0,1,.36.24.3.3,0,0,1-.23.36Z"/><path class="cls-3" d="M35.63,74.33a.3.3,0,0,1-.39-.17.29.29,0,0,1,.15-.39l1.16-.52a.31.31,0,0,1,.26.56h0Z"/><path class="cls-3" d="M35.25,73.46a.31.31,0,0,1-.4-.17A.3.3,0,0,1,35,72.9l1.16-.52a.3.3,0,0,1,.4.16.3.3,0,0,1-.15.4h0Z"/><path class="cls-3" d="M34.86,72.59a.31.31,0,0,1-.41-.16.32.32,0,0,1,.16-.4l1.16-.52a.31.31,0,0,1,.41.16.32.32,0,0,1-.16.4h0Z"/><path class="cls-3" d="M37.38,77.47A.31.31,0,0,1,37,77l0,0,1.1-.63a.3.3,0,0,1,.31.52Z"/><path class="cls-3" d="M36.9,76.64a.3.3,0,0,1-.42-.07.31.31,0,0,1,.07-.43l.05,0,1.1-.63a.31.31,0,0,1,.43.08A.32.32,0,0,1,38,76l0,0Z"/><path class="cls-3" d="M36.43,75.82a.31.31,0,0,1-.31-.53l1.1-.64a.32.32,0,0,1,.43.08.31.31,0,0,1-.08.43l0,0Z"/><path class="cls-3" d="M95.52,41a.3.3,0,0,1,.4.15.29.29,0,0,1-.1.38l-1.1.64a.31.31,0,0,1-.41-.15.31.31,0,0,1,.1-.38Z"/><path class="cls-3" d="M96,41.82a.31.31,0,0,1,.43.08.29.29,0,0,1-.08.42l0,0L95.2,43a.3.3,0,0,1-.42-.11.32.32,0,0,1,.11-.42Z"/><path class="cls-3" d="M96.47,42.65a.3.3,0,1,1,.34.5l0,0-1.11.64a.31.31,0,0,1-.32-.52h0Z"/><path class="cls-3" d="M39.45,80.41a.31.31,0,0,1-.43-.06.3.3,0,0,1,.06-.43h0l1-.75a.31.31,0,1,1,.37.49h0Z"/><path class="cls-3" d="M38.89,79.64a.31.31,0,0,1-.38-.49h0l1-.75a.31.31,0,0,1,.36.5Z"/><path class="cls-3" d="M38.33,78.86a.31.31,0,0,1-.43-.07.31.31,0,0,1,.07-.42l1-.75a.3.3,0,0,1,.42,0,.29.29,0,0,1-.05.43l0,0Z"/><path class="cls-3" d="M93.45,38.06a.3.3,0,1,1,.36.49l-1,.75a.31.31,0,0,1-.43-.06.31.31,0,0,1,.06-.43h0Z"/><path class="cls-3" d="M94,38.83a.31.31,0,0,1,.43.08.3.3,0,0,1-.07.41l-1,.75a.29.29,0,0,1-.42-.08.31.31,0,0,1,.06-.41Z"/><path class="cls-3" d="M94.57,39.6a.31.31,0,0,1,.43.08.3.3,0,0,1-.07.41l-1,.75a.31.31,0,0,1-.43-.06.31.31,0,0,1,.06-.43h0Z"/><path class="cls-3" d="M41.81,83.11a.3.3,0,0,1-.43,0,.31.31,0,0,1,0-.44h0l1-.85a.29.29,0,0,1,.43,0,.3.3,0,0,1,0,.43h0Z"/><path class="cls-3" d="M41.17,82.4a.3.3,0,0,1-.43,0,.31.31,0,0,1,0-.44h0l1-.85a.3.3,0,0,1,.43,0,.3.3,0,0,1,0,.42Z"/><path class="cls-3" d="M40.53,81.7a.31.31,0,0,1-.43,0,.32.32,0,0,1,0-.42l1-.85a.3.3,0,1,1,.42.44h0Z"/><path class="cls-3" d="M91.09,35.35a.3.3,0,0,1,.43,0,.3.3,0,0,1,0,.41l-1,.86a.31.31,0,0,1-.43,0,.32.32,0,0,1,0-.44h0Z"/><path class="cls-3" d="M91.73,36.06a.29.29,0,0,1,.43,0,.3.3,0,0,1,0,.43h0l-1,.85a.3.3,0,0,1-.43,0,.32.32,0,0,1,0-.42Z"/><path class="cls-3" d="M92.37,36.77a.3.3,0,0,1,.43,0,.32.32,0,0,1,0,.42l-1,.85a.3.3,0,1,1-.41-.45Z"/><path class="cls-3" d="M44.44,85.56a.31.31,0,1,1-.47-.4h0l.85-1a.3.3,0,0,1,.46.4h0Z"/><path class="cls-3" d="M43.73,84.92a.3.3,0,1,1-.45-.41l.85-.94a.29.29,0,0,1,.43,0,.3.3,0,0,1,0,.42Z"/><path class="cls-3" d="M43,84.28a.31.31,0,0,1-.47-.39l0,0,.85-.94a.3.3,0,0,1,.43,0,.3.3,0,0,1,0,.42Z"/><path class="cls-3" d="M47.31,87.71a.3.3,0,0,1-.43.06.31.31,0,0,1-.06-.41l.74-1a.31.31,0,0,1,.43-.06.31.31,0,0,1,.07.42Z"/><path class="cls-3" d="M46.54,87.15a.31.31,0,0,1-.43.08A.31.31,0,0,1,46,86.8h0l.74-1a.3.3,0,0,1,.43-.06.31.31,0,0,1,.07.42Z"/><path class="cls-3" d="M45.77,86.59a.31.31,0,1,1-.5-.35h0l.75-1a.3.3,0,0,1,.43,0,.3.3,0,0,1,.07.41Z"/><path class="cls-3" d="M50.4,89.56a.32.32,0,0,1-.43.08.32.32,0,0,1-.1-.39l.64-1.1a.3.3,0,0,1,.41-.12.31.31,0,0,1,.12.42h0Z"/><path class="cls-3" d="M49.57,89.08a.32.32,0,0,1-.41.15.31.31,0,0,1-.15-.41l0,0,.64-1.11a.29.29,0,0,1,.42-.07.3.3,0,0,1,.1.38Z"/><path class="cls-3" d="M48.74,88.6a.3.3,0,0,1-.41.15.31.31,0,0,1-.14-.41s0,0,0,0l.64-1.1a.31.31,0,0,1,.53.3Z"/><path class="cls-3" d="M53.65,91.07a.3.3,0,1,1-.56-.23v0l.52-1.16a.3.3,0,0,1,.4-.16.29.29,0,0,1,.16.4h0Z"/><path class="cls-3" d="M52.78,90.68a.31.31,0,0,1-.41.15.32.32,0,0,1-.15-.4l.52-1.16a.31.31,0,0,1,.57.23v0Z"/><path class="cls-3" d="M51.91,90.3a.31.31,0,0,1-.56-.25l.52-1.17a.3.3,0,0,1,.4-.15.3.3,0,0,1,.16.4h0Z"/><path class="cls-3" d="M57.05,92.23a.3.3,0,0,1-.58-.18l.39-1.21a.3.3,0,0,1,.39-.19.3.3,0,0,1,.19.37Z"/><path class="cls-3" d="M56.14,91.94a.3.3,0,0,1-.38.2.32.32,0,0,1-.2-.39h0L56,90.54a.32.32,0,0,1,.38-.21.3.3,0,0,1,.21.38v0Z"/><path class="cls-3" d="M55.24,91.65a.31.31,0,0,1-.39.19.3.3,0,0,1-.2-.38h0l.4-1.21a.31.31,0,1,1,.58.19h0Z"/><path class="cls-3" d="M60.55,93a.31.31,0,0,1-.6-.13l.27-1.24a.3.3,0,0,1,.36-.24.31.31,0,0,1,.24.36Z"/><path class="cls-3" d="M59.62,92.84a.31.31,0,0,1-.36.24.3.3,0,0,1-.24-.36h0l.26-1.24a.31.31,0,0,1,.37-.23.3.3,0,0,1,.23.35Z"/><path class="cls-3" d="M58.69,92.64a.31.31,0,0,1-.6-.13l.26-1.24a.29.29,0,0,1,.36-.24.3.3,0,0,1,.24.36h0Z"/><path class="cls-3" d="M64.12,93.47a.31.31,0,0,1-.61-.07l.13-1.26a.32.32,0,0,1,.34-.28.31.31,0,0,1,.27.34h0Z"/><path class="cls-3" d="M63.17,93.37a.31.31,0,0,1-.61-.07L62.69,92a.3.3,0,0,1,.34-.27.29.29,0,0,1,.27.33Z"/><path class="cls-3" d="M62.22,93.27a.3.3,0,0,1-.34.27.32.32,0,0,1-.27-.34l.13-1.26a.32.32,0,0,1,.34-.28.3.3,0,0,1,.27.34h0Z"/><path class="cls-3" d="M34,48.12a.31.31,0,0,1-.18-.4.3.3,0,0,1,.39-.18h0l1.19.46a.3.3,0,0,1,.16.4.3.3,0,0,1-.38.17Z"/><path class="cls-3" d="M34.3,47.23a.3.3,0,0,1-.17-.4.3.3,0,0,1,.38-.18l1.19.46a.31.31,0,0,1,.19.39.32.32,0,0,1-.39.19h0Z"/><path class="cls-3" d="M34.64,46.33a.3.3,0,0,1-.18-.39.31.31,0,0,1,.4-.18h0l1.18.46a.31.31,0,0,1-.22.57Z"/><path class="cls-3" d="M99.51,49.9a.3.3,0,0,1,.38.21.31.31,0,0,1-.21.38h0l-1.23.33a.31.31,0,0,1-.18-.59h0Z"/><path class="cls-3" d="M73.88,92.71a.31.31,0,0,1-.6.13L73,91.59a.3.3,0,0,1,.23-.36.3.3,0,0,1,.36.24h0Z"/><rect class="cls-3" x="39.08" y="34.54" width="0.93" height="0.93" rx="0.31" transform="translate(-12.93 40.97) rotate(-48)"/><path class="cls-3" d="M95.18,37.19l-.51.38a.3.3,0,0,0-.07.42l.37.52.38.51a.3.3,0,0,0,.42.07h0l.52-.37"/><path class="cls-3" d="M106.74,49.34l-.62.14a.3.3,0,0,0-.23.36l.13.62.14.62a.31.31,0,0,0,.36.24l.63-.14Z"/><path class="cls-3" d="M88.49,88l-.37-.51a.31.31,0,0,0-.43-.07l-.52.38-.51.37a.31.31,0,0,0-.07.43l.37.51Z"/><path class="cls-3" d="M39.39,82.33l-.47.42-.48.43a.32.32,0,0,0-.1.21.35.35,0,0,0,.08.22l.43.47.42.48a.31.31,0,0,0,.43,0h0l.48-.43.47-.42a.29.29,0,0,0,0-.43h0l-.42-.48-.43-.47a.31.31,0,0,0-.43,0Z"/><path class="cls-3" d="M99.76,50.82a.3.3,0,0,1,.36.23.3.3,0,0,1-.21.36l-1.22.33a.31.31,0,0,1-.39-.21.32.32,0,0,1,.21-.38h0Z"/><path class="cls-3" d="M100,51.74a.3.3,0,0,1,.37.23.29.29,0,0,1-.21.36l-1.23.33a.3.3,0,0,1-.38-.2.29.29,0,0,1,.21-.38h0Z"/><path class="cls-3" d="M100.25,52.66a.32.32,0,0,1,.38.21.31.31,0,0,1-.21.38h0l-1.23.33a.31.31,0,0,1-.38-.21A.32.32,0,0,1,99,53h0Z"/><path class="cls-3" d="M98.77,47.13a.31.31,0,0,1,.16.6h0l-1.23.32a.3.3,0,1,1-.18-.58h0Z"/><path class="cls-3" d="M99,48.06a.3.3,0,0,1,.37.22.31.31,0,0,1-.21.37L98,49a.31.31,0,0,1-.38-.21.3.3,0,0,1,.2-.38h0Z"/><path class="cls-3" d="M99.26,49a.31.31,0,0,1,.16.59l-1.23.33a.31.31,0,0,1-.38-.21.3.3,0,0,1,.21-.38h0Z"/><path class="cls-3" d="M72.94,92.91a.3.3,0,0,1-.23.36.3.3,0,0,1-.36-.23h0l-.27-1.25a.3.3,0,0,1,.24-.36.3.3,0,0,1,.36.23Z"/><path class="cls-3" d="M71.08,93.31a.31.31,0,0,1-.6.13h0l-.26-1.24a.3.3,0,0,1,.59-.13h0Z"/><path class="cls-3" d="M72,93.11a.31.31,0,0,1-.24.36.32.32,0,0,1-.36-.24L71.15,92a.3.3,0,0,1,.23-.36.31.31,0,0,1,.37.23h0Z"/><path class="cls-3" d="M76.68,92.12a.31.31,0,0,1-.24.36.31.31,0,0,1-.36-.24L75.81,91a.32.32,0,0,1,.23-.37.31.31,0,0,1,.37.23h0Z"/><path class="cls-3" d="M74.81,92.51a.3.3,0,0,1-.23.36.31.31,0,0,1-.37-.23L74,91.4a.31.31,0,0,1,.23-.37.32.32,0,0,1,.37.24Z"/><path class="cls-3" d="M75.74,92.31a.31.31,0,0,1-.23.37.3.3,0,0,1-.36-.24h0l-.27-1.24a.31.31,0,0,1,.6-.13Z"/><rect class="cls-7" x="29.78" y="58.77" width="0.93" height="0.93" rx="0.31"/></g></g></g></svg>