<svg xmlns="http://www.w3.org/2000/svg" viewBox="0 0 256.22 123.64"><defs><style>.cls-1{fill:#5dbf1d;stroke:#2b6334;}.cls-1,.cls-15,.cls-18{stroke-miterlimit:10;}.cls-1,.cls-15,.cls-18,.cls-3,.cls-5,.cls-6{stroke-width:0.5px;}.cls-15,.cls-2{fill:none;}.cls-2{stroke:#fff;stroke-width:1.5px;}.cls-11,.cls-12,.cls-2,.cls-3,.cls-5,.cls-6{stroke-linecap:round;stroke-linejoin:round;}.cls-3{fill:#81a8f8;}.cls-3,.cls-6{stroke:#1d1d1b;}.cls-4,.cls-8{fill:#1d1d1b;}.cls-11,.cls-5{fill:#a6fcf6;}.cls-11,.cls-12,.cls-15,.cls-18,.cls-5{stroke:#1717b0;}.cls-6{fill:#172026;}.cls-16,.cls-7{fill:#1717b0;}.cls-8{font-size:8px;font-family:Roboto-Bold, Roboto;font-weight:700;letter-spacing:0.01em;}.cls-9{letter-spacing:0em;}.cls-10{letter-spacing:-0.07em;}.cls-11,.cls-12{stroke-width:0.25px;}.cls-12{fill:#ceb0fa;}.cls-13{letter-spacing:0em;}.cls-14{letter-spacing:0.01em;}.cls-16{font-size:3.43px;font-family:MyriadPro-Regular, Myriad Pro;}.cls-17{letter-spacing:-0.01em;}.cls-18{fill:#cfc5fb;}</style></defs><g id="Layer_2" data-name="Layer 2"><g id="pic"><path class="cls-1" d="M134.13,20.7l7.55-5.36a3.28,3.28,0,0,0,.78-4.58L136,1.63a3.27,3.27,0,0,0-4.57-.77l-9.13,6.47a3.28,3.28,0,0,0-.78,4.58l6.24,8.79"/><polyline class="cls-2" points="126.47 13.53 132.37 15.45 133.39 4.33"/><path class="cls-3" d="M254.49,34.92c-.17-1.83-.6-4.26-1.66-5-1.77-1.18-5.91-1.63-7-3.25a11.61,11.61,0,0,1-1.39-3.63l-7.91-1.16L235.75,23a10.79,10.79,0,0,1-1.32,3.74c-1,1.62-5.17,2.07-7,3.25s-1.76,4.52-1.77,5Z"/><path class="cls-3" d="M225.71,36.61c0-.44.12-5.56,1.77-6.66s5.92-1.63,7-3.25c0,0,1.62,1.21,5.71,1.21s5.74-1.21,5.74-1.21c1,1.62,5.18,2.07,7,3.25,1.06.71,1.49,4.83,1.66,6.66"/><path class="cls-3" d="M247.76,15c-.38-.66-1.61-.15-1.61-.15V11.61c-.66-1.28-4.58-1.7-6-1.53-1.38-.17-5.29.25-6,1.53v3.22s-1.22-.51-1.6.15c-.18.32-.26,3.12.48,3.84s1.12.3,1.12.3.38,3.58,2.62,4.66,2.6,1.07,3.33,1.07h0c.73,0,1.12,0,3.33-1.07a3.61,3.61,0,0,0,.76-.51,7.39,7.39,0,0,0,1.85-4.15s.38.41,1.13-.3S247.93,15.3,247.76,15Z"/><path class="cls-3" d="M234.25,13.47s.14-2.07,1.45-2.22,3.77,1.48,5.8,1.33,4.35-.59,4.64,0,.46-2-.09-3.71c-.35-1.09-.91-1.48-2.22-2.37s-1.34-1.58-1.34-1.58-1.07.86-1.5.71-.4-1.1-.4-1.1a40.51,40.51,0,0,1-3.88,2.29,3.07,3.07,0,0,0-2.61,1.92C233.52,10.37,234.25,13.47,234.25,13.47Z"/><ellipse class="cls-4" cx="237.76" cy="16.39" rx="0.37" ry="0.84"/><ellipse class="cls-4" cx="242.19" cy="16.39" rx="0.37" ry="0.84"/><path class="cls-3" d="M241.67,20.08c-.13.48-.76.89-1.7.89s-1.56-.41-1.7-.89"/><path class="cls-3" d="M27.5,30.11c-1.78-1.18-5.92-1.62-6.95-3.25a11.51,11.51,0,0,1-1.39-3.62l-7.92-1.16-.82,1A10.72,10.72,0,0,1,9.1,26.86c-1,1.63-5.18,2.07-6.95,3.25"/><path class="cls-3" d="M.38,36.78c0-.45.11-5.56,1.77-6.67s5.91-1.62,7-3.25c0,0,1.62,1.21,5.71,1.21s5.74-1.21,5.74-1.21c1,1.63,5.17,2.07,7,3.25,1.06.71,1.48,4.84,1.65,6.67"/><path class="cls-3" d="M22.42,15.15c-.37-.67-1.6-.16-1.6-.16V11.77c-.66-1.27-4.58-1.69-6-1.52-1.38-.17-5.3.25-6,1.52V15s-1.23-.51-1.6.16c-.18.31.15,3.12.9,3.83s.7.31.7.31-.32,3.6,1.92,4.67a8.23,8.23,0,0,0,4,1.06h0c.73,0,3.41-.41,4.5-1.6a5.92,5.92,0,0,0,1.45-4.13s-.05.41.7-.31S22.6,15.46,22.42,15.15Z"/><path class="cls-3" d="M8.9,15s.16-3.42,1.47-3.57,3.76,1.48,5.79,1.33a6.32,6.32,0,0,1,4.66,2.06c.29.59.44-4-.11-5.77C20.37,8,19.8,7.55,18.5,6.67s-1.34-1.58-1.34-1.58a2.18,2.18,0,0,0-.82-.7c-.44-.15-1.08.3-1.08.3S11.5,5.85,10.92,6,9.35,7.28,8.77,8.91,8.9,15,8.9,15Z"/><ellipse class="cls-4" cx="12.42" cy="16.56" rx="0.37" ry="0.84"/><ellipse class="cls-4" cx="16.85" cy="16.56" rx="0.37" ry="0.84"/><path class="cls-3" d="M16.34,20.25c-.14.48-.76.89-1.7.89s-1.57-.41-1.7-.89"/><path class="cls-3" d="M1.91,112.39c1.77-1.18,5.91-1.62,7-3.25a11.52,11.52,0,0,0,1.39-3.63l7.91-1.15.83,1a10.49,10.49,0,0,0,1.32,3.74c1,1.63,5.17,2.07,6.94,3.25"/><path class="cls-3" d="M29,119.06c0-.45-.12-5.56-1.78-6.67s-5.91-1.62-6.94-3.25c0,0-1.62,1.21-5.72,1.21s-5.73-1.21-5.73-1.21c-1,1.63-5.18,2.07-6.95,3.25-1.06.71-1.49,4.83-1.66,6.67"/><path class="cls-3" d="M7,97.43c.38-.67,1.6-.16,1.6-.16V94.05c.67-1.27,4.58-1.7,6-1.52,1.38-.18,5.3.25,6,1.52v3.22s1.22-.51,1.6.16c.17.31-.16,3.11-.91,3.83s-.69.31-.69.31.31,3.6-1.93,4.67a8.15,8.15,0,0,1-4,1.05h0c-.73,0-3.4-.4-4.5-1.6a5.89,5.89,0,0,1-1.45-4.12s.05.41-.69-.31S6.81,97.74,7,97.43Z"/><path class="cls-3" d="M20.51,97.27S20.34,93.85,19,93.7s-3.61,2.9-5.64,2.76-4.53,0-4.82.63-.44-4,.11-5.77C9,90.23,9.6,89.83,10.91,89s7-.82,7.57-.67,1.57,1.28,2.15,2.91S20.51,97.27,20.51,97.27Z"/><ellipse class="cls-4" cx="16.98" cy="98.84" rx="0.37" ry="0.84"/><ellipse class="cls-4" cx="12.55" cy="98.84" rx="0.37" ry="0.84"/><path class="cls-3" d="M13.07,102.53c.13.48.76.88,1.7.88s1.56-.4,1.7-.88"/><path class="cls-3" d="M2.13,70.93c1.77-1.18,5.91-1.63,7-3.25a11.61,11.61,0,0,0,1.39-3.63l7.91-1.16.83,1a10.79,10.79,0,0,0,1.32,3.74c1,1.62,5.17,2.07,7,3.25"/><path class="cls-3" d="M29.25,77.59c0-.44-.12-5.56-1.77-6.66s-5.92-1.63-6.95-3.25c0,0-1.62,1.21-5.71,1.21s-5.74-1.21-5.74-1.21C8,69.3,3.9,69.75,2.13,70.93,1.07,71.64.64,75.76.47,77.59"/><path class="cls-3" d="M7.2,56c.38-.66,1.6-.15,1.6-.15V52.59c.67-1.28,4.59-1.7,6-1.53,1.38-.17,5.29.25,6,1.53v3.22s1.22-.51,1.6.15c.18.32.26,3.12-.48,3.84s-1.12.3-1.12.3-.38,3.58-2.62,4.66-2.6,1.07-3.33,1.07h0c-.73,0-1.12,0-3.33-1.07a3.61,3.61,0,0,1-.76-.51A7.43,7.43,0,0,1,8.8,60.1s-.37.41-1.12-.3S7,56.28,7.2,56Z"/><path class="cls-3" d="M20.71,54.45s-.14-2.07-1.45-2.22-3.77,1.48-5.8,1.33-4.35-.59-4.64,0-.46-2,.09-3.71c.35-1.08.91-1.48,2.22-2.37s1.34-1.58,1.34-1.58,1.07.86,1.5.71.4-1.1.4-1.1a40.51,40.51,0,0,0,3.88,2.29,3.07,3.07,0,0,1,2.61,1.92C21.44,51.35,20.71,54.45,20.71,54.45Z"/><ellipse class="cls-4" cx="17.2" cy="57.37" rx="0.37" ry="0.84"/><ellipse class="cls-4" cx="12.77" cy="57.37" rx="0.37" ry="0.84"/><path class="cls-3" d="M13.29,61.07c.13.47.76.88,1.7.88s1.56-.41,1.7-.88"/><path class="cls-3" d="M254.31,113c-1.78-1.18-5.91-1.63-6.95-3.25a11.61,11.61,0,0,1-1.39-3.63L238.05,105l-.82,1a10.79,10.79,0,0,1-1.32,3.74c-1,1.62-5.17,2.07-6.95,3.25"/><path class="cls-3" d="M227.19,119.67c0-.45.12-5.57,1.77-6.67s5.91-1.63,6.95-3.25c0,0,1.62,1.21,5.71,1.21s5.74-1.21,5.74-1.21c1,1.62,5.17,2.07,6.95,3.25,1.06.71,1.49,4.83,1.66,6.67"/><path class="cls-3" d="M249.23,98c-.37-.66-1.6-.15-1.6-.15V94.66c-.66-1.28-4.58-1.7-6-1.52-1.38-.18-5.3.24-6,1.52v3.22s-1.23-.51-1.6.15c-.18.32-.27,3.12.48,3.84s1.12.31,1.12.31.37,3.57,2.61,4.65,2.61,1.07,3.34,1.07h0c.73,0,1.13,0,3.34-1.07a3.3,3.3,0,0,0,.75-.51,7.31,7.31,0,0,0,1.86-4.14s.38.4,1.12-.31S249.41,98.35,249.23,98Z"/><path class="cls-3" d="M235.73,96.52s.14-2.07,1.45-2.21,3.77,1.47,5.8,1.33,4.35-.59,4.64,0,.46-2-.1-3.72c-.34-1.08-.9-1.48-2.21-2.37S244,88,244,88s-1.07.86-1.5.71-.4-1.1-.4-1.1a40.51,40.51,0,0,1-3.88,2.29,3.07,3.07,0,0,0-2.61,1.92C235,93.42,235.73,96.52,235.73,96.52Z"/><ellipse class="cls-4" cx="239.23" cy="99.45" rx="0.37" ry="0.84"/><ellipse class="cls-4" cx="243.67" cy="99.45" rx="0.37" ry="0.84"/><path class="cls-3" d="M243.15,103.14c-.14.47-.76.88-1.7.88s-1.56-.41-1.7-.88"/><path class="cls-3" d="M232.76,51.55l-2.81,19s7,.72,6.89.56,0-12.67,0-12.67Z"/><path class="cls-3" d="M247.57,51.55l2.81,19s-7,.72-6.89.56,0-12.67,0-12.67Z"/><path class="cls-3" d="M252.74,69.69c-1.78-1.18-5.92-1.63-7-3.25a11.61,11.61,0,0,1-1.39-3.63l-7.92-1.16-.82,1.05a10.79,10.79,0,0,1-1.32,3.74c-1,1.62-5.18,2.07-7,3.25"/><path class="cls-3" d="M225.62,76.35c0-.44.11-5.56,1.77-6.66s5.91-1.63,7-3.25c0,0,1.62,1.21,5.71,1.21s5.74-1.21,5.74-1.21c1,1.62,5.17,2.07,7,3.25,1.06.71,1.48,4.83,1.65,6.66"/><path class="cls-3" d="M247.66,54.72c-.37-.66-1.6-.15-1.6-.15V51.35c-.66-1.28-4.58-1.7-6-1.53-1.38-.17-5.3.25-6,1.53v3.22s-1.23-.51-1.6.15c-.18.32-.27,3.12.48,3.84s1.12.3,1.12.3.37,3.58,2.61,4.66,2.61,1.07,3.34,1.07h0c.73,0,1.12,0,3.34-1.07a3.3,3.3,0,0,0,.75-.51,7.36,7.36,0,0,0,1.86-4.15s.37.41,1.12-.3S247.84,55,247.66,54.72Z"/><ellipse class="cls-4" cx="237.66" cy="56.13" rx="0.37" ry="0.84"/><ellipse class="cls-4" cx="242.1" cy="56.13" rx="0.37" ry="0.84"/><path class="cls-3" d="M241.58,59.83c-.14.47-.76.88-1.7.88s-1.57-.41-1.7-.88"/><path class="cls-3" d="M240.52,49.75s-4.63,5.38-6.23,5.55c0,0-.67-1.15-1.36-.89,0,0-2.17-6.69,5.1-7.66h2.33Z"/><path class="cls-3" d="M240.21,49.75s4.21,5.38,5.82,5.55c0,0,.66-1.15,1.35-.89,0,0,2.17-6.69-5.1-7.66H240Z"/><rect class="cls-5" x="93.29" y="32.82" width="71.74" height="34.97"/><rect class="cls-6" x="91.51" y="31.96" width="75.29" height="2.19"/><polygon class="cls-7" points="166.81 31.96 91.52 31.96 103.13 26.64 155.19 26.64 166.81 31.96"/><text class="cls-8" transform="translate(113.74 46.88)">Core D<tspan class="cls-9" x="24.67" y="0">e</tspan><tspan class="cls-10" x="29.02" y="0">v</tspan><tspan x="32.5" y="0">.</tspan></text><polygon class="cls-11" points="151.08 29.96 109.08 29.96 111.75 28.63 147.07 28.63 151.08 29.96"/><path class="cls-12" d="M126.09,29.73l7.56-5.36a3.29,3.29,0,0,0,.77-4.58L128,10.66a3.29,3.29,0,0,0-4.58-.77l-9.13,6.47a3.29,3.29,0,0,0-.78,4.58l6.24,8.79"/><line class="cls-2" x1="123.44" y1="25.82" x2="124.45" y2="14.7"/><line class="cls-2" x1="129.5" y1="20.77" x2="118.38" y2="19.75"/><rect class="cls-5" x="61.18" y="77.82" width="49.8" height="45.57"/><path class="cls-1" d="M138.2,29.73l7.56-5.36a3.28,3.28,0,0,0,.77-4.58l-6.47-9.13a3.29,3.29,0,0,0-4.58-.77l-9.13,6.47a3.29,3.29,0,0,0-.77,4.58l6.23,8.79"/><polyline class="cls-2" points="130.54 22.56 136.45 24.48 137.47 13.36"/><text class="cls-8" transform="translate(76.42 88.29)">Node<tspan x="-8.49" y="9.6">Ope</tspan><tspan class="cls-13" x="6.1" y="9.6">r</tspan><tspan x="8.98" y="9.6">a</tspan><tspan class="cls-13" x="13.35" y="9.6">t</tspan><tspan class="cls-14" x="16.02" y="9.6">ors</tspan></text><rect class="cls-5" x="146.91" y="77.82" width="49.8" height="45.57"/><text class="cls-8" transform="translate(159.09 92.29)">Miners</text><g id="like_icon" data-name="like icon"><rect class="cls-4" x="30.24" y="12.62" width="1.81" height="5.91"/><path class="cls-4" d="M41,16.73l-1.55-3.51a1,1,0,0,0-.92-.6H34.24a1,1,0,0,0-1,1v4.94a1,1,0,0,0,.3.7l3.13,3.13a.1.1,0,0,0,.14,0l.53-.53a.38.38,0,0,0,.11-.35L37,19h2.6A1.6,1.6,0,0,0,41,16.73Z"/></g><g id="like_icon-2" data-name="like icon"><rect class="cls-4" x="30.24" y="56.37" width="1.81" height="5.91"/><path class="cls-4" d="M41,58.17l-1.55,3.51a1,1,0,0,1-.92.59H34.24a1,1,0,0,1-1-1V56.34a1,1,0,0,1,.3-.71l3.13-3.13a.1.1,0,0,1,.14,0l.53.53a.41.41,0,0,1,.11.36L37,55.93h2.6A1.6,1.6,0,0,1,41,58.17Z"/></g><g id="like_icon-3" data-name="like icon"><rect class="cls-7" x="116.87" y="55.88" width="1.81" height="5.91"/><path class="cls-7" d="M127.67,57.68l-1.55,3.51a1,1,0,0,1-.92.6h-4.33a1,1,0,0,1-1-1V55.85a1,1,0,0,1,.3-.7L123.3,52a.1.1,0,0,1,.14,0l.53.53a.38.38,0,0,1,.11.36l-.47,2.54h2.59A1.6,1.6,0,0,1,127.67,57.68Z"/></g><g id="like_icon-4" data-name="like icon"><rect class="cls-4" x="30.24" y="94.99" width="1.81" height="5.91"/><path class="cls-4" d="M41,99.09l-1.55-3.5a1,1,0,0,0-.92-.6H34.24a1,1,0,0,0-1,1v4.93a1,1,0,0,0,.3.71l3.13,3.13a.1.1,0,0,0,.14,0l.53-.53a.38.38,0,0,0,.11-.35L37,101.34h2.6A1.61,1.61,0,0,0,41,99.09Z"/></g><g id="like_icon-5" data-name="like icon"><rect class="cls-4" x="225.58" y="16.52" width="1.81" height="5.91" transform="translate(452.97 38.94) rotate(180)"/><path class="cls-4" d="M216.59,18.32l1.55,3.51a1,1,0,0,0,.92.59h4.33a1,1,0,0,0,1-1V16.49a1,1,0,0,0-.3-.71L221,12.65a.1.1,0,0,0-.14,0l-.53.53a.41.41,0,0,0-.11.36l.48,2.54h-2.6A1.6,1.6,0,0,0,216.59,18.32Z"/></g><g id="like_icon-6" data-name="like icon"><rect class="cls-4" x="225.58" y="52.47" width="1.81" height="5.91" transform="translate(452.97 110.85) rotate(180)"/><path class="cls-4" d="M216.59,56.58l1.55-3.51a1,1,0,0,1,.92-.6h4.33a1,1,0,0,1,1,1v4.94a1,1,0,0,1-.3.7L221,62.25a.12.12,0,0,1-.14,0l-.53-.54a.38.38,0,0,1-.11-.35l.48-2.54h-2.6A1.6,1.6,0,0,1,216.59,56.58Z"/></g><g id="like_icon-7" data-name="like icon"><rect class="cls-7" x="141.53" y="54.67" width="1.81" height="5.91" transform="translate(284.88 115.25) rotate(180)"/><path class="cls-7" d="M132.55,58.77l1.55-3.5a1,1,0,0,1,.91-.6h4.33a1,1,0,0,1,1,1V60.6a1,1,0,0,1-.29.71l-3.13,3.13a.1.1,0,0,1-.14,0l-.53-.53a.38.38,0,0,1-.12-.35l.48-2.54H134A1.6,1.6,0,0,1,132.55,58.77Z"/></g><g id="like_icon-8" data-name="like icon"><rect class="cls-4" x="225.58" y="98.89" width="1.81" height="5.91" transform="translate(452.97 203.68) rotate(180)"/><path class="cls-4" d="M216.59,100.69l1.55,3.51a1,1,0,0,0,.92.59h4.33a1,1,0,0,0,1-1V98.86a1,1,0,0,0-.3-.71L221,95a.1.1,0,0,0-.14,0l-.53.53a.4.4,0,0,0-.11.36l.48,2.53h-2.6A1.61,1.61,0,0,0,216.59,100.69Z"/></g><path class="cls-15" d="M100.68,123.15v-5a14.6,14.6,0,0,0-29.2,0v5"/><path class="cls-15" d="M94.24,123.15v-5.39a8.16,8.16,0,0,0-16.32,0v5.39"/><line class="cls-15" x1="71.48" y1="118.13" x2="100.68" y2="118.13"/><text class="cls-16" transform="translate(77.05 112.06) rotate(-45)"><tspan class="cls-17">y</tspan><tspan x="1.58" y="0">es</tspan></text><text class="cls-16" transform="translate(92.19 109.13) rotate(45)">no</text><line class="cls-15" x1="86.08" y1="118.13" x2="81.47" y2="113.34"/><circle class="cls-18" cx="86.08" cy="118.13" r="1.44"/><path class="cls-15" d="M186.41,123.15v-5a14.6,14.6,0,0,0-29.2,0v5"/><path class="cls-15" d="M180,123.15v-5.39a8.16,8.16,0,1,0-16.32,0v5.39"/><line class="cls-15" x1="157.21" y1="118.13" x2="186.41" y2="118.13"/><text class="cls-16" transform="translate(162.77 112.06) rotate(-45)"><tspan class="cls-17">y</tspan><tspan x="1.58" y="0">es</tspan></text><text class="cls-16" transform="translate(177.92 109.13) rotate(45)">no</text><line class="cls-15" x1="171.81" y1="118.13" x2="171.81" y2="111.45"/><circle class="cls-18" cx="171.81" cy="118.13" r="1.44"/><polyline class="cls-15" points="123.15 68.13 123.15 104.05 114.57 104.05"/><polygon class="cls-7" points="115.3 101.56 110.98 104.05 115.3 106.54 115.3 101.56"/><polyline class="cls-15" points="134.44 68.13 134.44 104.05 143.02 104.05"/><polygon class="cls-7" points="142.29 106.54 146.61 104.05 142.29 101.56 142.29 106.54"/></g></g></svg>