<svg width="128" height="121" viewBox="0 0 128 121" fill="none" xmlns="http://www.w3.org/2000/svg">
<g clip-path="url(#clip0_188_46173)">
<path d="M2.96934 39.579C8.77462 49.983 17.3011 59.6961 29.1066 63.1393C38.7381 65.9494 49.7408 64.0137 56.855 56.6796C56.0412 56.4138 55.2273 56.1479 54.4124 55.868C56.8482 69.5989 67.0094 81.1833 80.4559 85.0508C86.6573 86.8318 93.292 86.9002 99.5567 85.422C107.313 83.5922 113.463 78.7544 120.058 74.5503C121.669 73.5233 120.019 71.0576 118.407 72.0846C112.578 75.7995 107.129 80.1598 100.391 82.1411C94.5685 83.8418 88.3217 83.9361 82.4305 82.515C69.5579 79.4061 59.7537 68.5257 57.1833 55.6555C56.9544 54.4813 55.6295 53.9201 54.7407 54.8439C48.1277 61.765 37.5376 63.1455 28.6719 60.3353C17.9683 56.931 9.99293 47.957 4.2919 38.6727C3.7434 37.7774 2.45557 38.6741 2.95419 39.566L2.96934 39.579Z" fill="#A6FCF6"/>
<path d="M117.374 71.8138C111.668 69.4572 105.216 68.3046 99.2359 66.8334C97.5602 66.4187 96.7916 68.9644 98.319 69.6737C104.54 72.5806 111.141 74.3887 117.96 75.1313C117.562 74.5509 117.165 73.9706 116.768 73.4044C116.018 76.4806 115.267 79.5567 114.517 82.6329C113.849 85.3839 112.635 88.4305 112.767 91.264C112.831 92.5994 114.571 92.7399 115.154 91.7111C116.553 89.2463 116.846 85.9346 117.5 83.1846C118.229 80.103 118.965 77.0279 119.694 73.9462C119.867 73.2102 119.274 72.2899 118.503 72.2194C111.922 71.5372 105.608 69.7645 99.6075 66.9689C99.3023 67.9204 98.9894 68.8653 98.6907 69.8092C104.61 71.136 110.808 72.9669 116.874 73.3895C117.736 73.4462 118.318 72.2189 117.375 71.8279L117.374 71.8138Z" fill="#A6FCF6"/>
<path d="M98.1067 68.3422C100.552 72.7343 102.998 77.1264 105.409 81.5282C106.573 83.6541 107.745 85.7866 108.903 87.9201C110.003 89.9514 110.87 92.3618 112.529 93.9902C113.187 94.6363 114.544 94.011 114.375 93.0593C113.99 90.9323 112.7 89.1205 111.647 87.2487C110.387 84.988 109.108 82.7501 107.767 80.538C105.085 76.1138 102.241 71.8008 99.2281 67.5926C98.7214 66.8785 97.6966 67.5926 98.1067 68.3422Z" fill="#A6FCF6"/>
</g>
<defs>
<clipPath id="clip0_188_46173">
<rect width="120.18" height="55.69" fill="white" transform="translate(36.3604) rotate(40.7615)"/>
</clipPath>
</defs>
</svg>
