<svg xmlns="http://www.w3.org/2000/svg" width="17.151" height="17.151" viewBox="0 0 17.151 17.151">
  <g id="XMLID_200_" transform="translate(1.005 1.005)">
    <g id="XMLID_202_" transform="translate(-1.005 -1.005)">
      <g id="Group_4819" data-name="Group 4819">
        <path id="Path_8306" data-name="Path 8306" d="M7.532-1.005a8.576,8.576,0,1,0,8.614,8.537A8.576,8.576,0,0,0,7.532-1.005ZM6.446,7.15A1.532,1.532,0,1,1,7.979,5.617,1.534,1.534,0,0,1,6.446,7.15ZM7.669,8.807l.008-.01.008-.01a2.758,2.758,0,0,0,1.436.4,6.747,6.747,0,0,0,1.51-.125A8.125,8.125,0,0,0,12.1,8.606a7.22,7.22,0,0,0,.785-.372l0,0c.157-.1.311-.194.462-.3.033-.024.065-.048.1-.073l0,0,.013.016a5.6,5.6,0,0,1-1.312.842,8.408,8.408,0,0,1-1.472.537,4.623,4.623,0,0,1-1.571.181A2.177,2.177,0,0,1,7.669,8.807ZM11.6,7.15a.332.332,0,1,1,.333.33A.333.333,0,0,1,11.6,7.15ZM8.977,15.376c-.332-2.322,1.694-4.594,2.838-5.757.259-.264.661-.627,1.034-1.013,1.483-1.386,1.779-3.044-1.258-3.873-.575-.167-1.172-.4-1.775-.642a1.414,1.414,0,0,0-.065-.157,1.7,1.7,0,0,0-.375-.413A2.141,2.141,0,0,0,7.6,3.338a4.478,4.478,0,0,0-2.077-.065C2.587,4.081,2.115,5.514,2,7.24a13.768,13.768,0,0,1-.953,4.842,7.931,7.931,0,1,1,7.929,3.294Z" transform="translate(1.005 1.005)" fill="#2949d3"/>
      </g>
    </g>
    <path id="XMLID_201_" d="M402.457,350.078A1.078,1.078,0,1,1,401.378,349,1.078,1.078,0,0,1,402.457,350.078Z" transform="translate(-394.932 -344.447)" fill="#2949d3"/>
  </g>
</svg>
