<svg width="24" height="30" viewBox="0 0 24 30" fill="none" xmlns="http://www.w3.org/2000/svg">
<path d="M17.6645 0C17.733 0 17.8015 0 17.8739 0C18.042 2.07605 17.2496 3.62728 16.2865 4.75062C15.3416 5.86621 14.0476 6.94818 11.9547 6.78401C11.8151 4.73769 12.6088 3.30152 13.5706 2.18076C14.4625 1.13627 16.0978 0.20683 17.6645 0Z" fill="black"/>
<path d="M24 21.6086C24 21.6293 24 21.6474 24 21.6668C23.4118 23.4481 22.5729 24.9748 21.5491 26.3916C20.6145 27.6778 19.4691 29.4087 17.4241 29.4087C15.657 29.4087 14.4832 28.2724 12.6722 28.2414C10.7564 28.2104 9.7029 29.1915 7.95131 29.4384C7.75094 29.4384 7.55058 29.4384 7.35409 29.4384C6.06787 29.2523 5.02984 28.2336 4.27362 27.3158C2.04374 24.6038 0.320586 21.1006 0 16.6176C0 16.1781 0 15.7398 0 15.3003C0.135732 12.0919 1.69471 9.48324 3.76689 8.21899C4.8605 7.5468 6.36389 6.97414 8.03792 7.23009C8.75536 7.34126 9.48831 7.58687 10.1308 7.82989C10.7396 8.06387 11.501 8.47882 12.2223 8.45685C12.711 8.44263 13.197 8.18797 13.6895 8.00828C15.1322 7.48733 16.5464 6.89011 18.4104 7.17062C20.6507 7.50931 22.2407 8.50468 23.2231 10.0404C21.328 11.2465 19.8298 13.064 20.0857 16.1677C20.3133 18.9871 21.9524 20.6365 24 21.6086Z" fill="black"/>
</svg>
