<svg width="31" height="23" viewBox="0 0 31 23" fill="none" xmlns="http://www.w3.org/2000/svg">
<path d="M29.9465 0H1.05346C0.47166 0 0 0.47166 0 1.05345V16.7576C0 17.3394 0.47166 17.811 1.05346 17.811H29.9465C30.5283 17.811 31 17.3394 31 16.7576V1.05345C31 0.47166 30.5283 0 29.9465 0Z" fill="black"/>
<path d="M21.5198 21.0512H17.9434V19.6386H13.0567V21.0512H9.48024C8.97558 21.0512 8.56641 21.4603 8.56641 21.9651C8.56641 22.4697 8.97552 22.8789 9.48024 22.8789H21.5198C22.0245 22.8789 22.4336 22.4698 22.4336 21.9651C22.4336 21.4604 22.0245 21.0512 21.5198 21.0512Z" fill="black"/>
</svg>
