<svg width="131" height="58" viewBox="0 0 131 58" fill="none" xmlns="http://www.w3.org/2000/svg">
<g clip-path="url(#clip0_884_2090)">
<path d="M70.9977 24.3471L83.8269 8.6055C84.6116 7.55747 84.9856 7.00975 84.6116 6.11971C84.2114 5.15594 83.295 4.50816 82.2522 4.4555C81.6677 4.4239 81.0936 4.63456 80.667 5.04008L66.9004 19.9232L70.9977 24.3523V24.3471Z" fill="#B31B1B"/>
<path d="M88.5349 53.7553L71.4925 33.5951L70.9816 34.1376L66.879 29.2871L62.8027 24.3577L60.3275 27.0331C59.4216 28.0021 59.4269 29.5083 60.338 30.4721L85.5066 57.3681C85.9332 57.8158 86.5441 58.0475 87.1603 57.9948C88.103 57.979 88.9404 57.3892 89.2827 56.5097C89.6619 55.5986 89.2406 54.698 88.5454 53.7553H88.5349Z" fill="#B31B1B"/>
<path d="M63.7508 34.1374L66.937 37.5501L52.9545 52.3647C52.6701 52.7439 52.2277 52.9756 51.759 52.9914C51.0111 53.002 50.337 52.5543 50.0526 51.8644C49.784 51.2166 50.1421 50.2055 50.6425 49.6683L50.653 49.6577L50.6635 49.6419L63.7508 34.1321M63.7245 33.142L50.1579 49.2154C49.4786 49.9369 49.0625 51.2061 49.4417 52.1119C49.8262 53.0494 50.7478 53.655 51.759 53.6445C52.4067 53.6287 53.0177 53.3285 53.4232 52.8229L67.8429 37.5448L63.7297 33.1367L63.7245 33.142Z" fill="#B31B1B"/>
<path d="M36.5553 16.7896C37.5348 16.7896 38.1879 17.4426 38.6513 18.6065C39.2096 17.4426 40.0048 16.7896 41.1213 16.7896H48.9579C50.1376 16.7896 51.1013 17.7428 51.1013 18.9225V18.933V23.0567C51.1013 24.4576 50.4009 25.2002 48.9579 25.2002C47.5149 25.2002 46.8144 24.4523 46.8144 23.0567V21.0765H41.2635C40.5683 20.9975 39.9364 21.4978 39.8574 22.1983C39.8468 22.3088 39.8468 22.4142 39.8626 22.5248V36.8444H45.1344C46.5353 36.8444 47.2779 37.5448 47.2779 38.9879C47.2779 40.4309 46.53 41.1313 45.1344 41.1313H31.2361C29.8352 41.1313 29.1348 40.4309 29.1348 38.9879C29.1348 37.5448 29.8352 36.8444 31.2361 36.8444H35.5757V21.0818H31.7522C30.3513 21.0818 29.6562 20.3813 29.6562 18.9383C29.6562 17.4953 30.3566 16.7948 31.7522 16.7948H36.5553V16.7896Z" fill="#B31B1B"/>
<path d="M95.3606 16.7895C96.7615 16.7895 97.5041 17.5374 97.5041 18.933V36.8444H102.823C104.272 36.8444 104.967 37.5448 104.967 38.9878C104.967 40.4308 104.266 41.1313 102.823 41.1313H87.7558C86.3549 41.1313 85.6123 40.4308 85.6123 38.9878C85.6123 37.5448 86.3602 36.8444 87.7558 36.8444H93.2119V21.0817H88.7195C87.2765 21.0817 86.5761 20.3813 86.5761 18.9382C86.5761 17.4952 87.2765 16.7948 88.7195 16.7948H95.3553L95.3606 16.7895ZM97.5831 7.50993C97.5936 9.21628 96.2243 10.6066 94.518 10.6172C92.8116 10.6277 91.4213 9.25841 91.4107 7.55206C91.4002 5.84571 92.7695 4.45536 94.4758 4.44482C94.4916 4.44482 94.5022 4.44482 94.518 4.44482C96.2032 4.46589 97.562 5.82465 97.5831 7.50993Z" fill="#B31B1B"/>
<path d="M130.072 18.9385C130.072 19.2229 130.03 19.5072 129.93 19.7758L122.093 39.8307C121.803 40.6523 121.003 41.1842 120.134 41.1368H117.011C116.121 41.2158 115.294 40.6733 115.004 39.8307L107.078 19.7758C106.947 19.5178 106.878 19.2281 106.894 18.9385C106.894 17.7482 107.863 16.7897 109.048 16.795C109.058 16.795 109.074 16.795 109.085 16.795C109.975 16.7739 110.775 17.3427 111.044 18.1959L118.601 37.2238L125.922 18.1959C126.19 17.3427 126.991 16.7739 127.881 16.795C129.071 16.7739 130.051 17.7166 130.072 18.9016C130.072 18.9121 130.072 18.9279 130.072 18.9385Z" fill="#B31B1B"/>
<path d="M17.0898 16.7896C19.7336 16.7896 21.4136 18.5328 21.4136 21.2134V41.1366H2.70698C1.31136 41.2314 0.100064 40.1781 0.0052665 38.7825C0 38.7035 0 38.6192 0.0052665 38.5402V31.678C0.0052665 29.5345 1.57468 27.7123 3.69182 27.3858L17.1267 25.5056V21.0818H2.18033C1.01117 21.1186 0.0368655 20.2022 0 19.0383C0 19.0068 0 18.9699 0 18.9383C0 17.4268 1.12703 16.7948 2.2962 16.7948H17.0898V16.7896ZM17.1214 36.8444V29.8452L4.29747 31.6358V36.8497H17.1214V36.8444Z" fill="#B31B1B"/>
<path d="M47.5938 0.658313H47.6359C48.1626 0.668846 48.8156 1.31136 48.9999 1.53782L49.0105 1.55362L49.021 1.56942L73.5945 28.1284C74.1896 28.7762 74.1844 29.7768 73.5787 30.4141L71.0034 33.1526L67.38 28.871L46.6037 3.75502C45.8084 2.61219 45.7505 2.25933 45.977 1.72215C46.2561 1.07437 46.8933 0.658313 47.599 0.658313M47.599 0C46.63 0 45.7558 0.579315 45.3713 1.46935C45.0027 2.35939 45.266 2.98611 46.0823 4.15527L66.8797 29.287L70.9823 34.1375L74.0632 30.8617C74.9059 29.9717 74.9164 28.5813 74.0843 27.6807L49.5108 1.12177C49.5108 1.12177 48.6049 0.0263325 47.6517 0H47.5938H47.599Z" fill="#B31B1B"/>
</g>
<defs>
<clipPath id="clip0_884_2090">
<rect width="130.072" height="58" fill="white"/>
</clipPath>
</defs>
</svg>
