<svg width="187" height="40" viewBox="0 0 187 40" fill="none" xmlns="http://www.w3.org/2000/svg">
<g clip-path="url(#clip0_882_1671)">
<path d="M43.6828 16.0675H40.7422V12.1221H43.6828C43.6828 10.759 43.8261 9.68324 44.0411 8.75082C44.3278 7.8184 44.6869 7.101 45.2609 6.5993C45.835 6.02524 46.5517 5.66688 47.4848 5.45186C48.4179 5.23685 49.493 5.09351 50.7845 5.09351H52.291C52.7933 5.09351 53.295 5.16518 53.7974 5.16518V9.46891C53.2234 9.39724 52.65 9.32557 52.1476 9.32557C51.4302 9.32557 50.9285 9.39724 50.4978 9.61226C50.0678 9.82727 49.8521 10.3297 49.8521 11.1904V12.1228H53.5101V16.0682H49.8521V30.7726H43.6835V16.0682L43.6828 16.0675ZM54.7292 12.1221H60.6827V15.4218H60.7544C61.1844 14.2027 61.9018 13.3419 62.9059 12.6962C63.91 12.0505 65.0574 11.7638 66.3489 11.7638H67.0663C67.2813 11.7638 67.5687 11.8355 67.7837 11.9071V17.5016C67.3537 17.3583 66.9946 17.2866 66.6363 17.215C66.2779 17.1433 65.8472 17.1433 65.4889 17.1433C64.6998 17.1433 64.054 17.2866 63.4807 17.5016C62.9066 17.7167 62.4049 18.0757 62.0459 18.5057C61.6875 18.9358 61.3285 19.3665 61.1851 19.9405C60.9701 20.5146 60.8984 21.0163 60.8984 21.5904V30.7719H54.8015V12.1221H54.7299H54.7292ZM68.2144 21.447C68.2144 20.0839 68.4295 18.7214 68.9318 17.574C69.4335 16.3542 70.0793 15.3501 70.94 14.4177C71.8008 13.4853 72.8049 12.8395 74.0247 12.3378C75.2438 11.8355 76.5352 11.5488 77.9693 11.5488C79.4035 11.5488 80.6956 11.8355 81.9147 12.3378C83.1338 12.8402 84.1386 13.5576 85.071 14.4177C85.9318 15.2784 86.6492 16.3542 87.0792 17.574C87.5816 18.7931 87.7966 20.0846 87.7966 21.4477C87.7966 22.8825 87.5816 24.1733 87.0792 25.3931C86.5768 26.6129 85.9318 27.617 85.071 28.4777C84.2103 29.3385 83.1338 30.0559 81.9147 30.5576C80.6956 31.06 79.4042 31.3467 77.9693 31.3467C76.5345 31.3467 75.1721 31.06 74.0247 30.5576C72.8049 30.0552 71.8008 29.3378 70.94 28.4777C70.0793 27.6177 69.4335 26.5412 68.9318 25.3931C68.4295 24.174 68.2144 22.8825 68.2144 21.4477V21.447ZM74.3113 21.447C74.3113 22.0211 74.383 22.6661 74.5264 23.2402C74.6704 23.8859 74.8854 24.3876 75.1721 24.89C75.4588 25.3924 75.8178 25.8224 76.3195 26.1098C76.8219 26.3965 77.396 26.6122 78.1134 26.6122C78.8308 26.6122 79.4042 26.4689 79.9065 26.1098C80.4082 25.8231 80.7673 25.3924 81.054 24.89C81.3407 24.3876 81.5564 23.8143 81.6997 23.2402C81.8431 22.5945 81.9147 22.0211 81.9147 21.447C81.9147 20.873 81.8431 20.2279 81.6997 19.6539C81.5564 19.0081 81.3407 18.5064 81.054 18.004C80.7673 17.5016 80.4082 17.0716 79.9065 16.7842C79.4042 16.4259 78.8301 16.2818 78.1134 16.2818C77.3967 16.2818 76.8219 16.4252 76.3195 16.7842C75.8178 17.1433 75.4588 17.5016 75.1721 18.004C74.8854 18.5064 74.6704 19.0798 74.5264 19.6539C74.383 20.2996 74.3113 20.873 74.3113 21.447ZM90.0198 12.1221H95.9734V14.7044H96.0451C96.3324 14.202 96.6908 13.772 97.1215 13.4129C97.5515 13.0546 98.0539 12.6955 98.5556 12.4088C99.058 12.1221 99.6321 11.9064 100.205 11.7631C100.78 11.6198 101.354 11.5481 101.927 11.5481C103.505 11.5481 104.725 11.8348 105.586 12.3372C106.518 12.8395 107.163 13.4846 107.594 14.202C108.024 14.9194 108.311 15.7085 108.455 16.5692C108.598 17.43 108.598 18.1474 108.598 18.8648V30.7719H102.501V19.8689C102.501 19.2231 102.429 18.7214 102.214 18.219C101.999 17.7167 101.712 17.3583 101.282 17.0716C100.851 16.7849 100.205 16.6416 99.4164 16.6416C98.843 16.6416 98.3406 16.7849 97.9106 16.9999C97.4799 17.215 97.1215 17.5023 96.9058 17.9324C96.6191 18.2907 96.4758 18.7214 96.3324 19.2231C96.1891 19.7248 96.1174 20.2272 96.1174 20.7296V30.7719H90.0198V12.1221ZM122.729 16.0668H118.927V24.531C118.927 25.2484 119.142 25.7501 119.501 25.9658C119.931 26.1808 120.433 26.3241 121.079 26.3241C121.366 26.3241 121.581 26.3241 121.868 26.2525H122.657V30.7712C122.083 30.7712 121.581 30.8429 121.007 30.9146C120.433 30.9862 119.859 30.9862 119.358 30.9862C118.066 30.9862 116.99 30.8429 116.13 30.6279C115.269 30.4129 114.623 30.0538 114.121 29.5521C113.619 29.0497 113.261 28.4047 113.117 27.5439C112.902 26.6832 112.83 25.6791 112.83 24.3876V16.0668H109.745V12.1215H112.83V6.45458H118.927V12.1215H122.729V16.0668ZM131.121 9.82658H125.024V5.1638H131.121V9.82658ZM124.952 12.1221H131.05V30.7719H124.952V12.1221ZM139.513 22.9528C139.585 24.2443 139.944 25.2484 140.661 26.0374C141.378 26.8265 142.383 27.1849 143.674 27.1849C144.391 27.1849 145.108 27.0415 145.754 26.6825C146.399 26.3241 146.902 25.8217 147.188 25.1043H152.927C152.64 26.1801 152.209 27.1125 151.564 27.9016C150.919 28.6907 150.201 29.3364 149.412 29.8381C148.551 30.3405 147.691 30.6989 146.687 30.9855C145.682 31.2006 144.678 31.3439 143.674 31.3439C142.167 31.3439 140.805 31.1289 139.513 30.6982C138.222 30.2674 137.147 29.6224 136.286 28.7617C135.425 27.9009 134.708 26.8968 134.205 25.6053C133.704 24.3862 133.488 22.9514 133.488 21.445C133.488 19.9385 133.775 18.7194 134.277 17.4996C134.779 16.2805 135.497 15.2757 136.429 14.4149C137.362 13.5542 138.437 12.9085 139.656 12.4068C140.876 11.9044 142.167 11.6894 143.53 11.6894C145.18 11.6894 146.687 11.976 147.906 12.5501C149.125 13.1242 150.201 13.9132 150.99 14.989C151.779 16.0648 152.424 17.2129 152.783 18.5753C153.142 19.9385 153.357 21.4443 153.285 23.0224H139.513V22.9507V22.9528ZM147.117 19.5098C147.045 18.4341 146.687 17.5733 146.041 16.7842C145.395 16.0668 144.534 15.6368 143.459 15.6368C142.383 15.6368 141.522 15.9952 140.805 16.7126C140.087 17.43 139.656 18.3624 139.513 19.5098H147.117ZM155.366 12.1221H161.319V15.4218H161.391C161.822 14.2027 162.538 13.3419 163.543 12.6962C164.547 12.0505 165.695 11.7638 166.986 11.7638H167.703C167.919 11.7638 168.205 11.8355 168.42 11.9071V17.5016C167.99 17.3583 167.631 17.2866 167.273 17.215C166.914 17.1433 166.484 17.1433 166.125 17.1433C165.336 17.1433 164.691 17.2866 164.116 17.5016C163.543 17.7167 163.041 18.0757 162.682 18.5057C162.252 18.9358 161.965 19.3665 161.822 19.9405C161.606 20.5146 161.534 21.0163 161.534 21.5904V30.7719H155.437V12.1221H155.366ZM174.661 24.675C174.661 25.1774 174.733 25.5357 174.948 25.8941C175.163 26.2525 175.378 26.5398 175.665 26.7549C175.952 26.9699 176.31 27.1132 176.669 27.2572C177.099 27.4006 177.458 27.4006 177.888 27.4006C178.176 27.4006 178.463 27.4006 178.821 27.2572C179.18 27.1856 179.467 27.0422 179.753 26.8989C180.041 26.7555 180.256 26.5405 180.471 26.2532C180.686 25.9665 180.758 25.6791 180.758 25.3207C180.758 24.9624 180.614 24.675 180.399 24.46C180.184 24.245 179.897 24.03 179.61 23.8859C179.323 23.7426 178.965 23.5992 178.606 23.5276C178.247 23.4559 177.96 23.3842 177.673 23.3125C176.741 23.0975 175.737 22.8825 174.733 22.6668C173.728 22.4518 172.796 22.1644 171.935 21.8061C171.074 21.376 170.357 20.8736 169.855 20.1562C169.281 19.4388 169.066 18.5064 169.066 17.215C169.066 16.0675 169.353 15.1351 169.855 14.4177C170.429 13.7003 171.074 13.1262 171.935 12.6962C172.796 12.2662 173.728 11.9788 174.733 11.7638C175.737 11.5488 176.669 11.4771 177.602 11.4771C178.606 11.4771 179.61 11.5488 180.614 11.7638C181.619 11.9071 182.48 12.2662 183.34 12.6962C184.201 13.1262 184.846 13.772 185.348 14.561C185.851 15.3501 186.138 16.3542 186.209 17.574H180.542C180.542 16.8566 180.256 16.2825 179.753 15.9242C179.252 15.6375 178.606 15.4218 177.817 15.4218C177.53 15.4218 177.243 15.4218 176.956 15.4935C176.669 15.5651 176.383 15.5651 176.095 15.6368C175.809 15.7085 175.594 15.8518 175.45 16.0668C175.306 16.2818 175.163 16.4969 175.163 16.8559C175.163 17.2859 175.378 17.645 175.88 17.9317C176.31 18.2184 176.884 18.4341 177.602 18.6491C178.319 18.7924 179.037 19.0074 179.826 19.1515C180.614 19.2948 181.403 19.4382 182.12 19.5815C183.053 19.7965 183.842 20.0839 184.416 20.5139C185.062 20.9439 185.492 21.3747 185.851 21.8771C186.209 22.3794 186.496 22.8811 186.64 23.3835C186.783 23.8859 186.855 24.316 186.855 24.7467C186.855 25.9658 186.568 27.0422 186.066 27.903C185.492 28.7637 184.846 29.4095 183.985 29.9828C183.125 30.4852 182.192 30.8436 181.116 31.1303C180.041 31.3453 178.965 31.4886 177.96 31.4886C176.884 31.4886 175.737 31.4169 174.661 31.2019C173.585 30.9869 172.652 30.6279 171.792 30.1262C170.93 29.6238 170.214 28.9071 169.712 28.0463C169.138 27.1856 168.851 26.1098 168.851 24.8183H174.661V24.675Z" fill="#6B6B6B"/>
<path d="M0 33.1391V19.2955L12.9112 15.2784V29.1221L0 33.1391Z" fill="#8BC53F"/>
<path d="M12.9111 29.1221V15.2784L21.662 21.3037V35.1473L12.9111 29.1221Z" fill="#EBD417"/>
<path d="M8.75082 39.1644L0 33.1391L12.9112 29.1221L21.662 35.1473L8.75082 39.1644Z" fill="#034EA1"/>
<path d="M12.625 14.561L16.1397 6.52759L20.6584 17.2156L17.1438 25.249L12.625 14.561Z" fill="#712E74"/>
<path d="M17.1436 25.2484L20.6582 17.215L32.4937 15.2784L29.0507 23.2402L17.1436 25.2484Z" fill="#009FD1"/>
<path d="M20.6584 17.2149L16.1396 6.52757L27.9751 4.59106L32.4939 15.2791L20.6584 17.2156V17.2149Z" fill="#F6921E"/>
<path d="M12.9115 15.2784L4.08905 13.6286L3.08496 4.87781L11.9075 6.52763L12.9115 15.2784Z" fill="#DA2128"/>
<path d="M11.9075 6.52762L3.08496 4.8778L7.96207 0L16.7846 1.64982L11.9068 6.52762H11.9075Z" fill="#25BCBD"/>
<path d="M17.7891 10.4723L12.9113 15.2784L11.9072 6.52758L16.785 1.64978L17.7891 10.4723Z" fill="#00844A"/>
</g>
<defs>
<clipPath id="clip0_882_1671">
<rect width="186.855" height="39.1644" fill="white"/>
</clipPath>
</defs>
</svg>
