<svg width="145" height="26" viewBox="0 0 145 26" fill="none" xmlns="http://www.w3.org/2000/svg">
<g clip-path="url(#clip0_882_1950)">
<g opacity="0.54">
<path d="M83.7598 19.31V2.14001H89.9598C91.3098 2.14001 92.4598 2.59001 93.4398 3.47001C94.4098 4.35001 94.9198 5.48001 94.9198 6.83001C94.9198 7.66001 94.7098 8.37001 94.2798 8.99001C93.8498 9.61001 93.2898 10.08 92.5998 10.42V10.51C93.4398 10.79 94.1298 11.3 94.6698 11.99C95.2098 12.7 95.4898 13.51 95.4898 14.45C95.4898 15.86 94.9698 17.02 93.9398 17.96C92.9098 18.88 91.6998 19.35 90.2998 19.35H83.7598V19.33V19.31ZM85.9698 9.49001H89.9698C90.7898 9.49001 91.4598 9.21001 91.9698 8.66001C92.4698 8.12001 92.7198 7.50001 92.7198 6.84001C92.7198 6.18001 92.4798 5.58001 91.9898 5.04001C91.4998 4.50001 90.8698 4.21001 90.0698 4.21001H85.9798V9.48001L85.9698 9.49001ZM85.9698 17.2H90.3998C91.2398 17.2 91.9298 16.9 92.4598 16.32C92.9798 15.72 93.2398 15.08 93.2398 14.37C93.2398 13.66 92.9598 13.02 92.4198 12.44C91.8798 11.86 91.1698 11.56 90.2898 11.56H85.9698V17.2Z" fill="black"/>
<path d="M98.4998 8.96005C99.6398 7.76005 101.08 7.18005 102.84 7.18005C104.6 7.18005 106.04 7.78005 107.18 8.96005C108.32 10.1601 108.88 11.6401 108.88 13.4401C108.88 15.2401 108.32 16.7201 107.18 17.9201C106.04 19.1201 104.6 19.7001 102.84 19.7001C101.08 19.7001 99.6398 19.1001 98.4998 17.9201C97.3598 16.7201 96.7998 15.2401 96.7998 13.4401C96.7998 11.6401 97.3598 10.1401 98.4998 8.96005ZM100.13 16.5201C100.9 17.2901 101.79 17.6801 102.82 17.6801C103.85 17.6801 104.74 17.2901 105.51 16.5201C106.28 15.7501 106.65 14.7201 106.65 13.4501C106.65 12.1801 106.28 11.1401 105.51 10.3701C104.74 9.60005 103.85 9.21005 102.82 9.21005C101.79 9.21005 100.9 9.60005 100.13 10.3701C99.3598 11.1401 98.9898 12.1701 98.9898 13.4501C99.0098 14.7201 99.3798 15.7601 100.13 16.5201Z" fill="black"/>
<path d="M111.769 8.96005C112.909 7.76005 114.349 7.18005 116.109 7.18005C117.869 7.18005 119.309 7.78005 120.449 8.96005C121.589 10.1601 122.149 11.6401 122.149 13.4401C122.149 15.2401 121.589 16.7201 120.449 17.9201C119.309 19.1201 117.869 19.7001 116.109 19.7001C114.349 19.7001 112.909 19.1001 111.769 17.9201C110.629 16.7201 110.069 15.2401 110.069 13.4401C110.069 11.6401 110.629 10.1401 111.769 8.96005ZM113.409 16.5201C114.179 17.2901 115.069 17.6801 116.099 17.6801C117.129 17.6801 118.019 17.2901 118.789 16.5201C119.559 15.7501 119.929 14.7201 119.929 13.4501C119.929 12.1801 119.559 11.1401 118.789 10.3701C118.019 9.60005 117.129 9.21005 116.099 9.21005C115.069 9.21005 114.179 9.60005 113.409 10.3701C112.639 11.1401 112.269 12.1701 112.269 13.4501C112.269 14.7301 112.639 15.7601 113.409 16.5201Z" fill="black"/>
<path d="M126.099 2.14001V12.71L131.169 7.56001H133.989V7.65001L129.429 12.23L134.209 19.2V19.29H131.559L127.879 13.74L126.099 15.52V19.31H123.899V2.14001H126.099Z" fill="black"/>
<path d="M139.45 19.69C138.14 19.69 137.06 19.37 136.22 18.73C135.36 18.09 134.74 17.29 134.35 16.33L136.31 15.51C136.93 16.99 137.99 17.72 139.49 17.72C140.18 17.72 140.74 17.57 141.17 17.27C141.6 16.97 141.82 16.56 141.82 16.07C141.82 15.3 141.28 14.78 140.21 14.51L137.84 13.93C137.09 13.74 136.38 13.37 135.71 12.84C135.04 12.3 134.7 11.58 134.7 10.66C134.7 9.63003 135.17 8.78003 136.08 8.13003C136.99 7.48003 138.08 7.16003 139.35 7.16003C140.38 7.16003 141.31 7.40003 142.12 7.87003C142.94 8.34003 143.52 9.01003 143.86 9.90003L141.95 10.69C141.52 9.66003 140.62 9.13003 139.28 9.13003C138.63 9.13003 138.08 9.26003 137.64 9.54003C137.19 9.82003 136.97 10.18 136.97 10.65C136.97 11.33 137.49 11.77 138.52 12.02L140.84 12.56C141.94 12.82 142.75 13.25 143.29 13.87C143.81 14.49 144.07 15.2 144.07 15.99C144.07 17.04 143.64 17.92 142.78 18.63C141.92 19.34 140.8 19.68 139.45 19.68V19.69Z" fill="black"/>
</g>
<path d="M0.129883 9.86002C0.129883 4.44002 4.66988 0.0200195 10.0899 0.0200195C13.0799 0.0200195 15.2099 1.20002 16.8199 2.74002L14.9299 4.63002C13.7899 3.54002 12.2199 2.72002 10.0899 2.72002C6.14988 2.72002 3.05988 5.91002 3.05988 9.86002C3.05988 13.81 6.13988 17 10.0899 17C12.6499 17 14.1099 15.97 15.0399 15.03C15.8099 14.26 16.3099 13.15 16.4999 11.65H10.0899V8.97002H19.1199C19.2099 9.46002 19.2699 10.02 19.2699 10.66C19.2699 12.69 18.7299 15.18 16.9499 16.94C15.2299 18.74 13.0299 19.7 10.1099 19.7C4.66988 19.69 0.129883 15.28 0.129883 9.86002Z" fill="#4285F4"/>
<path d="M26.5402 7.03003C23.0502 7.03003 20.2002 9.69003 20.2002 13.37C20.2002 17.05 23.0402 19.71 26.5402 19.71C30.0402 19.71 32.8802 17.03 32.8802 13.37C32.8802 9.71003 30.0402 7.03003 26.5402 7.03003ZM26.5402 17.19C24.6302 17.19 22.9702 15.61 22.9702 13.35C22.9702 11.09 24.6102 9.51003 26.5402 9.51003C28.4702 9.51003 30.1102 11.07 30.1102 13.35C30.1102 15.63 28.4502 17.19 26.5402 17.19Z" fill="#EA4335"/>
<path d="M40.3595 7.03003C36.8695 7.03003 34.0195 9.69003 34.0195 13.37C34.0195 17.05 36.8595 19.71 40.3595 19.71C43.8595 19.71 46.6995 17.03 46.6995 13.37C46.6995 9.71003 43.8595 7.03003 40.3595 7.03003ZM40.3595 17.19C38.4495 17.19 36.7895 15.61 36.7895 13.35C36.7895 11.09 38.4295 9.51003 40.3595 9.51003C42.2895 9.51003 43.9295 11.07 43.9295 13.35C43.9295 15.63 42.2695 17.19 40.3595 17.19Z" fill="#FBBC05"/>
<path d="M57.3304 7.41001V8.44001H57.2404C56.6204 7.69001 55.4304 7.01001 53.9104 7.01001C50.7504 7.01001 47.8604 9.79001 47.8604 13.37C47.8604 16.95 50.7604 19.69 53.9104 19.69C55.4204 19.69 56.6204 19.02 57.2404 18.25H57.3304V19.17C57.3304 21.59 56.0404 22.88 53.9704 22.88C52.2704 22.88 51.2204 21.66 50.7904 20.63L48.3804 21.64C49.0704 23.33 50.9204 25.39 53.9904 25.39C57.2404 25.39 59.9904 23.48 59.9904 18.79V7.41001H57.3404H57.3304ZM54.1504 17.2C52.2404 17.2 50.6404 15.59 50.6404 13.37C50.6404 11.15 52.2504 9.51001 54.1504 9.51001C56.0504 9.51001 57.5103 11.14 57.5103 13.37C57.5303 15.6 56.0304 17.2 54.1504 17.2Z" fill="#4285F4"/>
<path d="M61.8896 0.689941H64.6597V19.3099H61.8896V0.689941Z" fill="#34A853"/>
<path d="M72.2598 17.19C70.8398 17.19 69.8498 16.53 69.1998 15.28L77.6498 11.77L77.3698 11.06C76.8498 9.63003 75.2398 7.03003 71.9698 7.03003C68.6998 7.03003 66.0098 9.60003 66.0098 13.37C66.0098 16.91 68.6798 19.71 72.2698 19.71C75.1698 19.71 76.8298 17.93 77.5398 16.9L75.3898 15.46C74.6598 16.51 73.6898 17.2 72.2698 17.2L72.2598 17.19ZM72.0498 9.46003C73.1498 9.46003 74.0898 10 74.3898 10.81L68.7498 13.15C68.6798 10.71 70.6398 9.46003 72.0598 9.46003H72.0498Z" fill="#EA4335"/>
</g>
<defs>
<clipPath id="clip0_882_1950">
<rect width="144.06" height="25.5" fill="white"/>
</clipPath>
</defs>
</svg>
