<svg width="30" height="40" viewBox="0 0 30 40" fill="none" xmlns="http://www.w3.org/2000/svg">
<g clip-path="url(#clip0_870_3947)">
<path d="M2.50553 2.5C2.50553 1.11719 3.62231 0 5.00462 0H24.9973C26.3796 0 27.4964 1.11719 27.4964 2.5C27.4964 3.88281 26.3796 5 24.9973 5H22.6935L23.5838 16.5781C26.4499 18.1328 28.7147 20.7344 29.7925 23.9766L29.8706 24.2109C30.1283 24.9766 29.9955 25.8125 29.5269 26.4609C29.0583 27.1094 28.3008 27.5 27.4964 27.5H2.50553C1.70113 27.5 0.951406 27.1172 0.475017 26.4609C-0.00137186 25.8047 -0.126326 24.9688 0.131392 24.2109L0.209489 23.9766C1.28722 20.7344 3.55202 18.1328 6.41816 16.5781L7.30846 5H5.00462C3.62231 5 2.50553 3.88281 2.50553 2.5ZM12.5019 30H17.5001V37.5C17.5001 38.8828 16.3833 40 15.001 40C13.6187 40 12.5019 38.8828 12.5019 37.5V30Z" fill="black"/>
</g>
<defs>
<clipPath id="clip0_870_3947">
<rect width="30" height="40" fill="white"/>
</clipPath>
</defs>
</svg>
