<svg width="43" height="41" viewBox="0 0 43 41" fill="none" xmlns="http://www.w3.org/2000/svg">
<path fill-rule="evenodd" clip-rule="evenodd" d="M21.2931 0C9.52915 0 0 9.40544 0 21.0167C0 30.3155 6.09801 38.1712 14.5637 40.9592C15.6272 41.1396 16.0259 40.5164 16.0259 39.9588C16.0259 39.4586 16.001 37.8022 16.001 36.0474C10.6507 37.0232 9.26331 34.76 8.8396 33.5792C8.59867 32.9724 7.56019 31.1109 6.65463 30.6107C5.90692 30.2171 4.84348 29.2413 6.62968 29.2167C8.30787 29.1921 9.50421 30.7419 9.90299 31.3733C11.8221 34.555 14.8794 33.6612 16.109 33.1036C16.2918 31.7341 16.8567 30.8157 17.4632 30.2909C12.7277 29.7661 7.77617 27.9539 7.77617 19.9097C7.77617 17.6219 8.59865 15.7359 9.96115 14.2599C9.74514 13.7351 9.00575 11.5785 10.1772 8.69204C10.1772 8.69204 11.9633 8.14264 16.0342 10.8486C17.7373 10.373 19.5485 10.1352 21.3596 10.1352C23.1707 10.1352 24.9818 10.373 26.6849 10.8486C30.7558 8.11804 32.542 8.69204 32.542 8.69204C33.7134 11.5785 32.9657 13.7351 32.758 14.2599C34.1122 15.7277 34.943 17.5973 34.943 19.9097C34.943 27.9785 29.9665 29.7661 25.231 30.2909C26.0037 30.9469 26.6683 32.2097 26.6683 34.1778C26.6683 36.9904 26.6434 39.2454 26.6434 39.9588C26.6434 40.5082 27.0422 41.1642 28.1056 40.9592C36.5132 38.1712 42.6111 30.2909 42.6111 21.0167C42.6111 9.40544 33.082 0 21.318 0H21.2931Z" fill="white"/>
</svg>
