<svg width="51" height="51" viewBox="0 0 51 51" fill="none" xmlns="http://www.w3.org/2000/svg">
<path d="M25.13 0L0 24.65L2.63 27.34L25.13 5.27002L47.63 27.34L50.2599 24.65L25.13 0Z" fill="#00BDFF"/>
<path d="M25.1301 17.8101C16.6901 17.8101 9.83008 24.6801 9.83008 33.1101C9.83008 39.5801 13.8701 45.1301 19.5601 47.3601V43.2101C16.0101 41.2401 13.5901 37.4501 13.5901 33.1101C13.5901 27.3901 17.7801 22.6301 23.2501 21.7301V50.2101H27.0201V21.7301C32.4901 22.6301 36.6801 27.3901 36.6801 33.1101C36.6801 37.4501 34.2701 41.2401 30.7101 43.2101V47.3601C36.4001 45.1301 40.4401 39.5801 40.4401 33.1101C40.4401 24.6701 33.5701 17.8101 25.1401 17.8101H25.1301Z" fill="#00BDFF"/>
</svg>
