<svg width="42" height="37" viewBox="0 0 42 37" fill="none" xmlns="http://www.w3.org/2000/svg">
<g clip-path="url(#clip0_1280_4786)">
<path d="M11.6738 0.619723C11.1029 0.955943 9.912 1.65771 9.03531 2.15681C5.69667 4.09453 3.83018 5.83324 1.79452 8.8985C1.07861 9.99201 0.217635 11.505 0.0490008 11.9884C-0.0876871 12.3984 0.0647121 12.7446 0.507769 13.018C0.692638 13.1306 2.59108 14.1125 4.73148 15.1903C8.0057 16.8479 8.65929 17.1532 8.84992 17.105C8.99499 17.0647 9.16415 16.8955 9.36525 16.6059C9.52603 16.3566 9.66272 16.1718 9.67948 16.1796C9.77584 16.2844 8.88291 25.8258 8.05598 33.5489C7.89468 35.0776 7.78208 36.4209 7.81455 36.5419C7.935 37.0243 7.17877 37.0007 20.5663 37.0007H32.7949L33.0201 36.8074L33.238 36.6142L33.0201 33.694C32.4388 26.0416 31.8355 17.3622 31.8355 16.6541V16.3247L32.222 16.7269C32.4472 16.9599 32.6807 17.1291 32.7771 17.1291C32.9379 17.1291 34.6436 16.2199 38.9396 13.8381C40.5631 12.929 41.015 12.6477 41.0554 12.4948C41.1114 12.2691 40.6285 11.3285 39.6712 9.79143C38.143 7.33785 37.0003 5.85733 35.7853 4.73921C34.5624 3.60486 33.9188 3.18642 31.8355 2.12434C30.7493 1.57706 29.5427 0.941803 29.1483 0.716609C28.0543 0.0813504 28.1748 0.0881586 27.1452 0.596156C25.9679 1.14622 24.7355 1.56966 23.4687 1.85934C22.7282 2.02012 22.3988 2.04421 20.7737 2.04421C19.1486 2.04421 18.8109 2.02012 18.0143 1.85934C16.4772 1.55349 14.7401 0.916665 13.6377 0.26622C13.3721 0.113297 13.0668 -0.00715642 12.9458 0.000699208C12.8249 0.00855483 12.2551 0.282454 11.6738 0.619723ZM12.8783 2.06044C13.5141 3.36971 14.8097 4.97279 15.9032 5.80129C16.6034 6.33233 17.8661 6.93565 18.7595 7.16294C19.6844 7.39651 21.3582 7.42008 22.2029 7.21112C24.4313 6.65599 26.445 5.01468 27.9312 2.52864C28.1486 2.17461 28.3256 1.87715 28.3334 1.86877C28.3575 1.82844 32.1146 3.85886 32.1387 3.92851C32.1549 3.96884 32.0502 4.19403 31.9057 4.42761C31.3023 5.44936 30.8195 6.81676 30.5294 8.33709C30.3607 9.18969 30.3445 9.52015 30.3529 11.6197C30.3529 12.8986 30.401 14.62 30.4492 15.4428C30.4974 16.2655 30.6425 18.3069 30.7545 19.9886C31.0866 25.0926 31.8669 35.2065 31.9465 35.5678C31.9785 35.704 31.3914 35.7124 20.5627 35.7124C14.2871 35.7124 9.14582 35.6967 9.14582 35.6804C9.14582 35.6642 9.32283 33.9826 9.54802 31.9553C10.8756 19.7183 11.3585 13.2589 11.1569 10.588C10.9641 7.96526 10.3608 5.79291 9.41919 4.28882C9.21809 3.95941 9.07302 3.66037 9.10497 3.62895C9.16938 3.55668 12.5483 1.60953 12.6044 1.60953C12.6311 1.60168 12.7521 1.81064 12.8804 2.06044H12.8783ZM15.1957 2.40609C16.9978 3.10629 18.9931 3.41161 21.4467 3.34877C23.2797 3.30897 24.005 3.18799 25.584 2.68104C26.0668 2.52026 26.4743 2.40766 26.4931 2.4239C26.5497 2.48831 25.4955 3.74312 25.0053 4.20451C23.6374 5.46141 22.1652 6.10347 20.6365 6.11133C18.8826 6.11133 17.2654 5.40327 15.9137 4.02802C15.3345 3.43989 14.3771 2.16885 14.5138 2.16885C14.5458 2.16466 14.86 2.27726 15.1978 2.40609H15.1957ZM8.32726 4.73921C8.92272 5.64837 9.4857 7.36194 9.75122 9.08337C9.83187 9.59032 9.90415 10.7006 9.92876 11.8669L9.97694 13.8046L9.26993 14.7635C8.88344 15.2872 8.5535 15.7371 8.53674 15.7449C8.51265 15.7769 1.74634 12.1633 1.63427 12.0523C1.59394 12.0198 1.77933 11.6176 2.06894 11.119C3.27347 9.04357 4.53037 7.33785 5.71343 6.17155C6.38116 5.51168 7.83707 4.33858 7.98214 4.33858C8.02927 4.337 8.18219 4.51402 8.32726 4.73921ZM33.9366 4.97279C35.2401 5.95422 36.519 7.3698 37.7822 9.24415C38.3834 10.1371 39.5927 12.1408 39.5403 12.1811C39.5 12.2052 33.3375 15.5758 33.1442 15.6727C32.9835 15.7528 32.9269 15.6968 32.3398 14.9002L31.7114 14.0392L31.615 12.6252C31.4218 9.85794 31.7836 7.51696 32.6928 5.66618C32.9824 5.07124 33.2882 4.58053 33.3689 4.58053C33.3956 4.57843 33.6528 4.75492 33.9366 4.97279Z" fill="black"/>
</g>
<defs>
<clipPath id="clip0_1280_4786">
<rect width="41.0593" height="37" fill="white"/>
</clipPath>
</defs>
</svg>
