<svg width="90" height="137" viewBox="0 0 90 137" fill="none" xmlns="http://www.w3.org/2000/svg">
<path d="M64.2618 14.2476C66.8086 15.0875 72.7318 18.4297 72.7235 31.2993C72.721 35.1123 71.6068 38.8329 70.4165 41.7207C70.2866 36.1729 69.891 31.3823 67.4021 27.8398C65.438 25.044 63.5497 24.0664 61.8837 23.2066C60.4099 22.4446 59.1369 21.7864 57.6464 19.8674C56.1737 18.193 56.0858 16.9214 57.3214 15.3498C58.3305 14.0425 61.2452 13.2536 64.2618 14.2476ZM23.5685 12.2291C28.2643 8.73924 34.47 6.65576 40.1687 6.65576C47.3045 6.67193 55.5907 9.73839 54.5813 13.6161C54.4331 13.8245 54.2959 14.0301 54.1743 14.232C53.363 15.1711 51.5798 15.8379 49.6923 16.5419C46.4773 17.741 42.4581 19.2399 40.0234 23.102C40.1312 22.3878 40.2846 21.6021 40.4972 20.7409C40.5702 20.4452 40.5582 20.1349 40.4626 19.8458C40.3671 19.5566 40.1917 19.3003 39.9569 19.1063C39.722 18.9124 39.4372 18.7887 39.1352 18.7496C38.8331 18.7104 38.5262 18.7573 38.2496 18.8849C34.7705 20.4905 31.2569 24.0923 28.7845 28.0552C28.9651 27.348 29.181 26.6503 29.4314 25.9647C29.5506 25.6375 29.5611 25.2806 29.4613 24.9469C29.3614 24.6133 29.1565 24.3208 28.877 24.113C28.5975 23.9052 28.2585 23.7932 27.9102 23.7936C27.5619 23.794 27.2231 23.9068 26.9441 24.1152C21.5821 28.1204 18.5949 33.8102 17.9057 41.3921C16.3135 36.7147 15.5089 31.8054 15.5249 26.8644C15.5195 21.2848 18.3763 16.0877 23.5685 12.2291Z" fill="#C7FE6C"/>
<path d="M75.6731 81.6806C70.2555 80.7068 66.1106 79.8748 61.7744 78.5355C58.7961 77.5269 58.0692 77.1676 57.2358 76.4132C56.3151 75.3289 55.7113 73.5443 55.4687 71.2155C61.3658 68.4491 67.0416 63.456 69.3259 56.0579C69.8683 56.2241 70.4324 56.3085 70.9997 56.3083C71.9445 56.2975 72.8767 56.0903 73.737 55.6997C75.7016 54.8402 77.4765 50.7247 77.9956 47.4049C78.5193 44.0468 77.8738 41.4601 76.1289 39.9238C75.5822 39.4344 74.9363 39.0688 74.2354 38.8519C75.4394 35.7679 76.4995 31.9114 76.5013 27.88C76.511 12.8976 69.0334 8.81475 65.8179 7.75468C63.1803 6.88518 60.4211 6.96199 58.249 7.82395C58.1713 7.59722 58.0796 7.37551 57.9746 7.1601C55.9493 3.01147 48.6892 0 40.7122 0C34.3434 0 27.4165 2.32228 22.1827 6.21162C16.1482 10.6966 12.8278 16.8166 12.8335 23.4446C12.8149 28.6759 13.6538 33.8749 15.3167 38.8349C14.5911 39.0486 13.9221 39.4208 13.358 39.9246C11.6133 41.4609 10.9678 44.0484 11.4915 47.4054C12.0093 50.7252 13.7841 54.8407 15.7501 55.7011C16.6097 56.0914 17.5412 56.2984 18.4853 56.3091C19.0526 56.3091 19.6168 56.2246 20.1593 56.0585C22.4436 63.4566 28.1194 68.4496 34.0165 71.2161C33.7739 73.5448 33.1702 75.3294 32.2494 76.4132C31.5319 77.1221 30.3484 77.6749 27.5291 78.5934C23.2891 79.8872 19.1537 80.7227 13.8121 81.6812C9.93974 82.3569 6.43041 84.3785 3.90334 87.3895C1.37626 90.4005 -0.00614418 94.2073 2.05293e-05 98.1382V134.754C2.05293e-05 135.183 0.170403 135.594 0.473685 135.898C0.776966 136.201 1.1883 136.371 1.61721 136.371C2.04611 136.371 2.45745 136.201 2.76073 135.898C3.06401 135.594 3.2344 135.183 3.2344 134.754V98.1382C3.22909 94.9684 4.34352 91.8986 6.38106 89.4704C8.4186 87.0422 11.2483 85.4117 14.3709 84.8665C16.9293 84.4169 19.1599 83.983 21.1092 83.5647L20.2623 102.878C20.2493 103.177 20.3191 103.473 20.4642 103.734C20.6092 103.995 20.8237 104.211 21.084 104.358C21.3442 104.505 21.64 104.576 21.9385 104.565C22.237 104.554 22.5266 104.46 22.7751 104.295L31.715 98.3315L43.125 107.498V134.754C43.125 135.183 43.2954 135.594 43.5987 135.898C43.902 136.201 44.3133 136.371 44.7422 136.371C45.1711 136.371 45.5825 136.201 45.8857 135.898C46.189 135.594 46.3594 135.183 46.3594 134.754V107.498L57.7684 98.3315L66.709 104.295C66.9575 104.46 67.2471 104.554 67.5456 104.565C67.8442 104.576 68.1399 104.505 68.4002 104.358C68.6604 104.211 68.8749 103.995 69.02 103.734C69.165 103.473 69.2349 103.177 69.2218 102.878L68.375 83.5647C70.3253 83.9827 72.5559 84.4169 75.1133 84.8665C78.2359 85.4116 81.0657 87.0421 83.1032 89.4703C85.1408 91.8985 86.2553 94.9684 86.25 98.1382V134.754C86.25 135.183 86.4204 135.594 86.7237 135.898C87.027 136.201 87.4383 136.371 87.8672 136.371C88.2961 136.371 88.7075 136.201 89.0107 135.898C89.314 135.594 89.4844 135.183 89.4844 134.754V98.1382C89.4907 94.2073 88.1085 90.4005 85.5816 87.3894C83.0546 84.3783 79.5454 82.3565 75.6731 81.6806ZM44.7422 103.671L37.1414 91.511L42.3943 85.5934L43.88 86.529C44.138 86.6914 44.4367 86.7777 44.7417 86.7777C45.0466 86.7777 45.3453 86.6914 45.6034 86.529L47.089 85.5934L52.343 91.511L44.7422 103.671ZM33.1405 79.767L39.6211 83.8466L35.3558 88.6518L30.5546 80.9702C31.4487 80.6421 32.3137 80.2396 33.1405 79.767ZM54.1294 88.6518L49.8633 83.8466L56.3428 79.767C57.1703 80.2396 58.0358 80.6421 58.9303 80.9704L54.1294 88.6518ZM50.6719 41.4962H64.6875V46.3478C64.686 47.634 64.1744 48.8672 63.2649 49.7767C62.3554 50.6862 61.1222 51.1978 59.836 51.1993C57.4063 51.1966 55.077 50.2303 53.359 48.5123C51.641 46.7943 50.6746 44.4649 50.6719 42.0353V41.4962ZM23.1797 38.2618C22.7836 38.262 22.4014 38.4076 22.1055 38.6709C21.8096 38.9342 21.6206 39.297 21.5744 39.6904C21.8299 34.5811 23.1568 30.4185 25.5815 27.1272C25.0327 31.7947 25.9661 35.1054 26.0208 35.294C26.1325 35.6781 26.3826 36.0072 26.7227 36.2176C27.0628 36.4281 27.4689 36.5051 27.8624 36.4336C28.256 36.3622 28.6091 36.1475 28.8536 35.831C29.0981 35.5144 29.2166 35.1185 29.1862 34.7197C28.8986 30.9414 32.6152 24.0441 37.2333 20.2685C36.6573 25.8955 38.6384 28.0364 38.9082 28.3005C39.1304 28.517 39.4101 28.6651 39.7141 28.727C40.018 28.789 40.3334 28.7622 40.6226 28.6498C40.9117 28.5375 41.1625 28.3444 41.3449 28.0935C41.5273 27.8426 41.6338 27.5445 41.6515 27.2348C42.0887 19.6119 46.8044 17.8532 51.3646 16.1525C52.2292 15.829 53.0758 15.5134 53.8685 15.1603C54.192 16.5716 55.0405 17.667 55.6342 18.4308C57.5614 20.9124 59.3565 21.8404 60.9405 22.6592C62.4695 23.4498 63.79 24.1325 65.2977 26.2788C67.365 29.221 67.6362 33.7963 67.7408 39.1389C67.6049 38.875 67.3991 38.6536 67.1458 38.4989C66.8925 38.3442 66.6015 38.2622 66.3047 38.2618H23.1797ZM29.6485 51.1993C28.3622 51.1978 27.1291 50.6862 26.2195 49.7767C25.31 48.8672 24.7984 47.634 24.7969 46.3478V41.4962H38.8125V42.0353C38.8098 44.4649 37.8434 46.7943 36.1254 48.5123C34.4074 50.2303 32.0781 51.1966 29.6485 51.1993ZM73.9904 42.3514C74.9284 43.1773 74.9734 44.885 74.9165 45.8308C74.723 49.0568 73.0505 52.2659 72.3977 52.7548C71.5328 53.1227 70.763 53.1653 70.0649 52.8896C70.4865 50.2792 70.8121 47.7232 71.0398 45.2775C71.7211 44.1784 72.3442 43.0442 72.9066 41.8798C73.3114 41.9075 73.6942 42.0741 73.9904 42.3514ZM64.804 10.8263C67.3508 11.6661 73.274 15.0083 73.2656 27.8779C73.2632 31.6909 72.1489 35.4116 70.9587 38.2993C70.8288 32.7516 70.4331 27.9609 67.9443 24.4185C65.9802 21.6226 64.0919 20.645 62.4259 19.7852C60.9521 19.0232 59.6791 18.365 58.1886 16.446C56.7159 14.7717 56.628 13.5 57.8635 11.9284C58.8727 10.6211 61.7874 9.83223 64.804 10.8263ZM24.1107 8.80774C28.8064 5.31785 35.0121 3.23437 40.7108 3.23437C47.8467 3.25055 56.1329 6.317 55.1235 10.1948C54.9752 10.4031 54.838 10.6088 54.7165 10.8106C53.9052 11.7497 52.122 12.4165 50.2345 13.1205C47.0195 14.3197 43.0002 15.8185 40.5656 19.6806C40.6734 18.9664 40.8267 18.1807 41.0394 17.3195C41.1124 17.0238 41.1004 16.7136 41.0048 16.4244C40.9092 16.1352 40.7339 15.8789 40.4991 15.685C40.2642 15.491 39.9794 15.3674 39.6773 15.3282C39.3753 15.289 39.0683 15.3359 38.7918 15.4635C35.3127 17.0691 31.799 20.6709 29.3266 24.6338C29.5072 23.9266 29.7231 23.2289 29.9735 22.5433C30.0928 22.2161 30.1033 21.8592 30.0034 21.5256C29.9035 21.1919 29.6986 20.8995 29.4192 20.6916C29.1397 20.4838 28.8006 20.3718 28.4524 20.3722C28.1041 20.3726 27.7653 20.4854 27.4863 20.6938C22.1242 24.699 19.137 30.3888 18.4478 37.9708C16.8556 33.2933 16.0511 28.384 16.067 23.443C16.0617 17.8635 18.9184 12.6664 24.1107 8.80774ZM17.0867 52.7548C16.4339 52.2659 14.7614 49.0568 14.5679 45.8308C14.511 44.8858 14.5561 43.1773 15.4924 42.3539C15.7668 42.0984 16.1147 41.9358 16.4867 41.8892C17.0606 43.248 17.7328 44.5632 18.498 45.8244C18.7195 48.0784 19.027 50.4519 19.4195 52.8928C18.7211 53.1669 17.9508 53.123 17.0867 52.7548ZM22.7943 53.3578C22.5266 52.037 22.3665 50.7433 22.1811 49.4466C22.7948 50.9219 23.8314 52.1827 25.1601 53.0701C26.4889 53.9575 28.0506 54.432 29.6485 54.4337C31.2822 54.4348 32.9 54.1119 34.4082 53.4837C35.9164 52.8556 37.2851 51.9347 38.4352 50.7743C38.5058 52.5966 38.9473 54.1079 39.7594 55.2647C40.5281 56.3611 42.0175 57.6681 44.7422 57.6681C45.1711 57.6681 45.5825 57.4977 45.8857 57.1944C46.189 56.8912 46.3594 56.4798 46.3594 56.0509C46.3594 55.622 46.189 55.2107 45.8857 54.9074C45.5825 54.6041 45.1711 54.4337 44.7422 54.4337C43.0843 54.4337 42.1817 53.6645 41.8143 51.9389C40.9725 47.9833 43.5153 42.1665 44.7252 41.4962H47.4375V42.0353C47.4413 45.3224 48.7488 48.4738 51.0731 50.7981C53.3975 53.1225 56.5488 54.4299 59.836 54.4337C61.4341 54.4319 62.9961 53.9573 64.325 53.0696C65.654 52.1818 66.6905 50.9207 67.3041 49.445C67.0152 62.1822 53.8661 70.8099 44.7422 70.6056C37.0703 70.6056 25.1742 64.6118 22.7943 53.3578ZM44.7422 73.84C47.3411 73.7925 49.9156 73.3284 52.3675 72.4654C52.66 74.4499 53.2031 76.1092 53.996 77.4223L44.7422 83.2493L35.4881 77.4229C36.2805 76.1097 36.8245 74.4507 37.1169 72.4659C39.5688 73.3287 42.1433 73.7926 44.7422 73.84ZM32.8176 95.0674C32.5495 94.8521 32.2198 94.7277 31.8762 94.7125C31.5327 94.6973 31.1932 94.792 30.9072 94.9828L23.6344 99.8344L24.3805 82.8164C25.5017 82.541 26.5014 82.2736 27.3925 82.0146L33.7289 92.153C33.7432 92.1775 33.7585 92.2015 33.7742 92.2252L38.3071 99.4781L32.8176 95.0674ZM65.85 99.8344L58.5772 94.9828C58.2912 94.792 57.9517 94.6973 57.6082 94.7125C57.2646 94.7277 56.9349 94.8521 56.6668 95.0674L51.1773 99.4781L55.7102 92.2252C55.7259 92.2015 55.7412 92.1775 55.7555 92.153L62.0919 82.0146C62.983 82.2736 63.9827 82.541 65.104 82.8162L65.85 99.8344Z" fill="black"/>
<path d="M66.3047 113.731H53.3672C52.9383 113.731 52.5269 113.901 52.2237 114.204C51.9204 114.508 51.75 114.919 51.75 115.348C51.75 115.777 51.9204 116.188 52.2237 116.491C52.5269 116.795 52.9383 116.965 53.3672 116.965H66.3047C66.7336 116.965 67.1449 116.795 67.4482 116.491C67.7515 116.188 67.9219 115.777 67.9219 115.348C67.9219 114.919 67.7515 114.508 67.4482 114.204C67.1449 113.901 66.7336 113.731 66.3047 113.731Z" fill="black"/>
<path d="M72.7734 102.949C72.3445 102.949 71.9332 103.12 71.6299 103.423C71.3266 103.726 71.1562 104.138 71.1562 104.567V134.754C71.1562 135.183 71.3266 135.594 71.6299 135.898C71.9332 136.201 72.3445 136.371 72.7734 136.371C73.2023 136.371 73.6137 136.201 73.917 135.898C74.2202 135.594 74.3906 135.183 74.3906 134.754V104.567C74.3906 104.138 74.2202 103.726 73.917 103.423C73.6137 103.12 73.2023 102.949 72.7734 102.949Z" fill="black"/>
<path d="M16.7109 102.949C16.282 102.949 15.8707 103.12 15.5674 103.423C15.2641 103.726 15.0938 104.138 15.0938 104.567V134.754C15.0938 135.183 15.2641 135.594 15.5674 135.898C15.8707 136.201 16.282 136.371 16.7109 136.371C17.1398 136.371 17.5512 136.201 17.8545 135.898C18.1577 135.594 18.3281 135.183 18.3281 134.754V104.567C18.3281 104.138 18.1577 103.726 17.8545 103.423C17.5512 103.12 17.1398 102.949 16.7109 102.949Z" fill="black"/>
<path d="M57.6797 46.8868C58.1086 46.8868 58.5199 46.7165 58.8232 46.4132C59.1265 46.1099 59.2969 45.6986 59.2969 45.2697V44.1915C59.2969 43.7626 59.1265 43.3513 58.8232 43.048C58.5199 42.7447 58.1086 42.5743 57.6797 42.5743C57.2508 42.5743 56.8394 42.7447 56.5362 43.048C56.2329 43.3513 56.0625 43.7626 56.0625 44.1915V45.2697C56.0625 45.6986 56.2329 46.1099 56.5362 46.4132C56.8394 46.7165 57.2508 46.8868 57.6797 46.8868Z" fill="black"/>
<path d="M31.8047 42.5743C31.3758 42.5743 30.9644 42.7447 30.6612 43.048C30.3579 43.3513 30.1875 43.7626 30.1875 44.1915V45.2697C30.1875 45.6986 30.3579 46.1099 30.6612 46.4132C30.9644 46.7165 31.3758 46.8868 31.8047 46.8868C32.2336 46.8868 32.6449 46.7165 32.9482 46.4132C33.2515 46.1099 33.4219 45.6986 33.4219 45.2697V44.1915C33.4219 43.7626 33.2515 43.3513 32.9482 43.048C32.6449 42.7447 32.2336 42.5743 31.8047 42.5743Z" fill="black"/>
<path d="M49.7793 63.56C50.105 63.2809 50.3064 62.8838 50.3393 62.4562C50.3721 62.0285 50.2338 61.6053 49.9547 61.2797C49.6755 60.954 49.2784 60.7526 48.8508 60.7197C48.4231 60.6869 47.9999 60.8252 47.6743 61.1043C46.8569 61.6826 45.8783 61.9892 44.8771 61.9806C43.7288 61.9533 42.6091 61.6165 41.6362 61.0057C41.2852 60.7593 40.8506 60.6625 40.4281 60.7366C40.0056 60.8106 39.6299 61.0495 39.3835 61.4006C39.1371 61.7517 39.0403 62.1862 39.1144 62.6087C39.1884 63.0312 39.4273 63.4069 39.7784 63.6533C41.2926 64.6528 43.0628 65.195 44.8771 65.215C46.6513 65.2334 48.3793 64.6501 49.7793 63.56Z" fill="black"/>
</svg>
