<svg width="157" height="137" viewBox="0 0 157 137" fill="none" xmlns="http://www.w3.org/2000/svg">
<circle cx="108.411" cy="85.7576" r="33.0612" fill="#C7FE6C"/>
<path d="M28.6125 75.3803H39.1887C40.127 75.3803 40.888 74.6285 40.888 73.7007V57.6593C40.888 56.7314 40.127 55.9796 39.1887 55.9796H28.6125C27.6742 55.9796 26.9132 56.7314 26.9132 57.6593V73.7007C26.9132 74.6285 27.6742 75.3803 28.6125 75.3803ZM30.3117 59.339H37.4895V72.021H30.3117V59.339ZM57.054 47.255H46.4777C45.5394 47.255 44.7785 48.0068 44.7785 48.9347V73.7007C44.7785 74.6285 45.5394 75.3803 46.4777 75.3803H57.054C57.9923 75.3803 58.7532 74.6285 58.7532 73.7007V48.9347C58.7532 48.0071 57.9923 47.255 57.054 47.255ZM55.3548 72.021H48.1769V50.6144H55.3548V72.021ZM33.9008 47.73C36.75 47.73 39.0681 45.4389 39.0681 42.6224C39.0681 42.1145 38.9903 41.6247 38.8499 41.1614L48.809 34.0523C49.6478 34.6335 50.6663 34.9775 51.766 34.9775C53.5162 34.9775 55.0632 34.1108 55.9984 32.7909L64.4803 35.1481C64.6454 37.8185 66.8891 39.943 69.6316 39.943C72.4809 39.943 74.7989 37.6515 74.7989 34.835C74.7989 33.9905 74.5872 33.1953 74.2185 32.4925L85.3773 20.8533C86.025 21.1429 86.7414 21.3082 87.4972 21.3082C90.3464 21.3082 92.6645 19.0167 92.6645 16.2002C92.6645 13.3837 90.3464 11.0927 87.4972 11.0927C84.6479 11.0927 82.3299 13.3837 82.3299 16.2002C82.3299 17.0448 82.5419 17.8403 82.9103 18.5427L71.7519 30.1816C71.1041 29.8921 70.3878 29.7268 69.6319 29.7268C67.8817 29.7268 66.3344 30.5935 65.3992 31.9134L56.9177 29.5561C56.7525 26.8857 54.5089 24.7613 51.7667 24.7613C48.9174 24.7613 46.5994 27.0527 46.5994 29.8692C46.5994 30.3768 46.6772 30.8666 46.8176 31.3299L36.8584 38.4393C36.0197 37.8581 35.0012 37.5141 33.9018 37.5141C31.0525 37.5141 28.7345 39.8056 28.7345 42.6221C28.7345 45.4386 31.0512 47.73 33.9008 47.73ZM87.4965 14.452C88.4719 14.452 89.2654 15.2364 89.2654 16.2002C89.2654 17.1644 88.4719 17.9488 87.4965 17.9488C86.5212 17.9488 85.7276 17.1644 85.7276 16.2002C85.7276 15.2364 86.5212 14.452 87.4965 14.452ZM69.6313 33.0865C70.6066 33.0865 71.4002 33.8709 71.4002 34.835C71.4002 35.7992 70.607 36.5836 69.6313 36.5836C68.6556 36.5836 67.8624 35.7992 67.8624 34.835C67.8624 33.8709 68.6559 33.0865 69.6313 33.0865ZM51.766 28.121C52.7414 28.121 53.5349 28.9054 53.5349 29.8695C53.5349 30.8333 52.7414 31.6178 51.766 31.6178C50.7907 31.6178 49.9971 30.8333 49.9971 29.8695C49.9971 28.9054 50.7903 28.121 51.766 28.121ZM33.9008 40.8738C34.8761 40.8738 35.6697 41.6583 35.6697 42.6224C35.6697 43.5862 34.8761 44.3706 33.9008 44.3706C32.9254 44.3706 32.1319 43.5862 32.1319 42.6224C32.1319 41.6583 32.9254 40.8738 33.9008 40.8738ZM156.325 123.493C156.257 120.95 155.201 118.642 153.35 116.997L137.935 103.287C145.885 90.0175 144.097 72.5843 132.569 61.189C129.266 57.9237 125.46 55.4512 121.397 53.7668V1.67969C121.397 0.751828 120.636 0 119.697 0H1.69922C0.76091 0 0 0.751828 0 1.67969V134.789C0 135.716 0.76091 136.468 1.69922 136.468H119.697C120.636 136.468 121.397 135.716 121.397 134.789V117.535C122.856 116.93 124.282 116.226 125.663 115.417L139.532 130.655C141.197 132.484 143.531 133.529 146.104 133.596C146.19 133.598 146.277 133.599 146.364 133.599C148.997 133.599 151.554 132.558 153.414 130.719C155.336 128.821 156.396 126.186 156.325 123.493ZM130.166 107.738C117.846 119.917 97.7985 119.917 85.4782 107.738C73.1578 95.5591 73.1578 75.7431 85.4782 63.5641C97.7989 51.386 117.846 51.3857 130.166 63.5641C142.486 75.7431 142.486 95.5591 130.166 107.738ZM91.0853 55.2674C88.5323 56.6401 86.1174 58.349 83.9074 60.3955V40.7008H91.0853V55.2674ZM117.999 133.109H3.39844V3.35937H117.998V52.5578C110.306 50.2603 101.967 50.6305 94.4837 53.6687V39.0211C94.4837 38.0933 93.7228 37.3415 92.7845 37.3415H82.2082C81.2699 37.3415 80.509 38.0933 80.509 39.0211V64.0213C78.9844 65.8992 77.688 67.899 76.6181 69.9845V52.9656C76.6181 52.0377 75.8572 51.2859 74.9189 51.2859H64.3426C63.4043 51.2859 62.6434 52.0377 62.6434 52.9656V73.7007C62.6434 74.6285 63.4043 75.3803 64.3426 75.3803H74.4098C72.7922 80.5528 72.4261 86.0285 73.3138 91.338L23.823 91.3713C22.8847 91.372 22.1242 92.1245 22.1248 93.0523C22.1255 93.9795 22.8861 94.7307 23.8241 94.7307H23.8251L74.0486 94.6967C74.8489 97.6365 76.0479 100.491 77.6438 103.177L23.8227 103.213C22.8844 103.214 22.1238 103.967 22.1245 104.894C22.1252 105.822 22.8858 106.573 23.8237 106.573H23.8247L79.9197 106.535C80.8753 107.78 81.9251 108.977 83.0738 110.113C84.9966 112.014 87.0894 113.647 89.3041 115.012L23.822 115.056C22.8837 115.056 22.1231 115.809 22.1238 116.736C22.1245 117.664 22.8851 118.415 23.823 118.415H23.8241L96.4565 118.366C100.132 119.607 103.976 120.23 107.821 120.23C111.253 120.23 114.685 119.733 117.997 118.744V133.109H117.999ZM73.22 54.6453V72.021H66.0422V54.6453H73.22ZM151.012 128.344C149.747 129.595 147.99 130.286 146.194 130.238C144.562 130.196 143.094 129.546 142.059 128.409L128.53 113.545C129.942 112.519 131.293 111.375 132.569 110.114C133.846 108.852 135.003 107.516 136.04 106.12L151.077 119.494C152.228 120.517 152.885 121.969 152.928 123.581C152.975 125.358 152.277 127.094 151.012 128.344ZM101.775 95.2299L124.76 72.5091C125.424 71.853 126.5 71.853 127.163 72.5091C127.827 73.1648 127.827 74.2284 127.163 74.8842L102.977 98.7928C102.645 99.121 102.21 99.285 101.775 99.285C101.34 99.285 100.905 99.121 100.573 98.7928L88.48 86.8385C87.8163 86.1827 87.8163 85.1192 88.48 84.4634C89.1437 83.8073 90.2193 83.8073 90.8831 84.4634L101.775 95.2299Z" fill="black"/>
</svg>
