<?xml version="1.0" encoding="utf-8"?>
<!-- Generator: Adobe Illustrator 24.0.1, SVG Export Plug-In . SVG Version: 6.00 Build 0)  -->
<svg version="1.1" id="Layer_1" xmlns:svgjs="http://svgjs.com/svgjs"
	 xmlns="http://www.w3.org/2000/svg" xmlns:xlink="http://www.w3.org/1999/xlink" x="0px" y="0px" viewBox="0 0 512 501.3"
	 style="enable-background:new 0 0 512 501.3;" xml:space="preserve">
<path d="M256,0C114.6,0,0,115.1,0,257c0,113.5,73.3,209.9,175.1,243.9c12.8,2.4,17.5-5.6,17.5-12.4c0-6.1-0.2-22.3-0.4-43.7
	C121,460.3,106,410.3,106,410.3c-11.6-29.7-28.4-37.6-28.4-37.6c-23.3-15.9,1.7-15.6,1.7-15.6c25.7,1.8,39.2,26.5,39.2,26.5
	c22.8,39.3,59.9,27.9,74.5,21.3c2.3-16.6,8.9-27.9,16.3-34.4c-56.8-6.5-116.6-28.5-116.6-127c0-28.1,10-51,26.4-69
	c-2.7-6.5-11.4-32.6,2.5-68c0,0,21.5-6.9,70.4,26.3c20.4-5.7,42.3-8.5,64.1-8.6c21.7,0.1,43.6,2.9,64.1,8.7
	c48.9-33.2,70.3-26.3,70.3-26.3c14,35.4,5.2,61.5,2.6,68c16.4,18,26.3,40.9,26.3,69c0,98.7-59.8,120.4-116.9,126.8
	c9.2,7.9,17.4,23.6,17.4,47.6c0,34.4-0.3,62.1-0.3,70.5c0,6.9,4.6,14.9,17.6,12.4C438.7,466.8,512,370.5,512,257
	C512,115.1,397.4,0,256,0z"/>
</svg>
