<svg width="83" height="30" viewBox="0 0 83 30" fill="none" xmlns="http://www.w3.org/2000/svg">
<path d="M4.15 23.05C3.73333 23.05 3.29167 22.925 2.825 22.675C2.35833 22.425 1.925 22.0167 1.525 21.45C1.14167 20.8833 0.825 20.1333 0.575 19.2C0.325 18.2667 0.2 17.1167 0.2 15.75C0.2 14.6667 0.333334 13.5667 0.6 12.45C0.883334 11.3167 1.31667 10.25 1.9 9.25C2.5 8.23333 3.26667 7.35833 4.2 6.625C5.15 5.875 6.3 5.35833 7.65 5.075C8.23333 4.94167 8.89167 4.81667 9.625 4.7C10.375 4.56667 11.1333 4.45 11.9 4.35C12.6833 4.23333 13.4167 4.14167 14.1 4.075C14.8 4.00833 15.3917 3.975 15.875 3.975C16.6583 3.975 17.2167 4.11667 17.55 4.4C17.9 4.66667 18.075 4.925 18.075 5.175C18.075 5.34167 18.0083 5.5 17.875 5.65C17.7417 5.78333 17.4833 5.86667 17.1 5.9C16.95 5.91667 16.6333 5.95833 16.15 6.025C15.6667 6.075 15.0833 6.15 14.4 6.25C13.7167 6.35 13 6.45833 12.25 6.575C11.5167 6.675 10.8 6.78333 10.1 6.9C9.41667 7 8.825 7.09167 8.325 7.175C6.94167 7.44167 5.85 7.9 5.05 8.55C4.25 9.2 3.66667 9.96667 3.3 10.85C2.93333 11.7333 2.7 12.6417 2.6 13.575C3.26667 13.425 3.99167 13.2667 4.775 13.1C5.575 12.9333 6.34167 12.7833 7.075 12.65C7.80833 12.5 8.44167 12.3833 8.975 12.3C9.525 12.2167 9.89167 12.175 10.075 12.175C10.425 12.175 10.6417 12.25 10.725 12.4C10.825 12.55 10.875 12.7417 10.875 12.975C10.875 13.425 10.1417 13.925 8.675 14.475C7.225 15.025 5.16667 15.4917 2.5 15.875C2.5 16.4417 2.50833 17.025 2.525 17.625C2.55833 18.2083 2.60833 18.75 2.675 19.25C2.74167 19.75 2.825 20.15 2.925 20.45C3.025 20.75 3.15833 20.9 3.325 20.9C3.70833 20.9 4.20833 20.7833 4.825 20.55C5.45833 20.3167 6.11667 20.0333 6.8 19.7C7.48333 19.3667 8.10833 19.0417 8.675 18.725C9.25833 18.4083 9.68333 18.1583 9.95 17.975C10.2667 17.775 10.6083 17.5583 10.975 17.325C11.3417 17.0917 11.6167 16.975 11.8 16.975C12.0333 16.975 12.15 17.1083 12.15 17.375C12.15 17.525 12.0167 17.8167 11.75 18.25C11.5 18.6833 11.1333 19.175 10.65 19.725C10.1667 20.2583 9.59167 20.7833 8.925 21.3C8.275 21.8 7.54167 22.2167 6.725 22.55C5.925 22.8833 5.06667 23.05 4.15 23.05ZM19.4994 22.425C19.0161 22.425 18.5827 22.15 18.1994 21.6C17.8161 21.05 17.6244 20.3417 17.6244 19.475C17.6244 18.525 17.7494 17.5083 17.9994 16.425C18.2661 15.3417 18.5911 14.2417 18.9744 13.125C19.3577 11.9917 19.7327 10.9 20.0994 9.85C20.1827 9.63333 20.2994 9.475 20.4494 9.375C20.6161 9.25833 20.8661 9.2 21.1994 9.2C21.7994 9.2 22.0994 9.49167 22.0994 10.075C22.0994 10.2083 22.0327 10.5083 21.8994 10.975C21.7661 11.4417 21.5911 12.0167 21.3744 12.7C21.1744 13.3833 20.9661 14.125 20.7494 14.925C20.5327 15.7083 20.3411 16.5 20.1744 17.3C20.0077 18.1 19.8911 18.8417 19.8244 19.525C20.0911 19.2417 20.3911 18.8083 20.7244 18.225C21.0744 17.6417 21.4494 16.9833 21.8494 16.25C22.2494 15.5 22.6661 14.75 23.0994 14C23.5327 13.2333 23.9661 12.5333 24.3994 11.9C24.8494 11.25 25.2827 10.7333 25.6994 10.35C26.1327 9.95 26.5327 9.75 26.8994 9.75C27.4327 9.75 27.8827 9.91667 28.2494 10.25C28.6327 10.5667 28.9244 11.1333 29.1244 11.95C29.3411 12.75 29.4494 13.8833 29.4494 15.35C29.4494 16.1333 29.5244 16.8667 29.6744 17.55C29.8411 18.2333 30.0994 18.7833 30.4494 19.2C30.8161 19.6 31.2827 19.8 31.8494 19.8C32.6994 19.8 33.4577 19.65 34.1244 19.35C34.7911 19.0333 35.3661 18.6833 35.8494 18.3C36.3494 17.9 36.7661 17.55 37.0994 17.25C37.4327 16.9333 37.6911 16.775 37.8744 16.775C38.2577 16.775 38.4494 16.975 38.4494 17.375C38.4494 17.5417 38.3244 17.8083 38.0744 18.175C37.8411 18.525 37.5077 18.925 37.0744 19.375C36.6577 19.8083 36.1744 20.2333 35.6244 20.65C35.0911 21.05 34.5161 21.3833 33.8994 21.65C33.2994 21.9167 32.6911 22.05 32.0744 22.05C30.9244 22.05 29.9827 21.825 29.2494 21.375C28.5327 20.925 27.9994 20.1833 27.6494 19.15C27.3161 18.1167 27.1494 16.7333 27.1494 15C27.1494 14.05 27.0911 13.3583 26.9744 12.925C26.8744 12.475 26.6827 12.175 26.3994 12.025C26.1994 12.375 25.9411 12.875 25.6244 13.525C25.3077 14.1583 24.9411 14.8667 24.5244 15.65C24.1244 16.4333 23.6994 17.225 23.2494 18.025C22.8161 18.8083 22.3744 19.5333 21.9244 20.2C21.4744 20.8667 21.0411 21.4083 20.6244 21.825C20.2077 22.225 19.8327 22.425 19.4994 22.425ZM32.765 29.75C31.9484 29.75 31.2734 29.4833 30.74 28.95C30.2067 28.4167 29.94 27.775 29.94 27.025C29.94 26.4417 30.2317 25.9417 30.815 25.525C31.3984 25.125 32.19 24.7333 33.19 24.35C34.1734 23.9833 35.2567 23.5667 36.44 23.1C36.7067 22.1167 36.9734 20.9333 37.24 19.55C37.5067 18.15 37.7984 16.5 38.115 14.6C38.2317 13.6333 38.34 12.8833 38.44 12.35C38.54 11.8 38.64 11.4083 38.74 11.175C38.84 10.9417 38.9484 10.8 39.065 10.75C39.1984 10.7 39.34 10.675 39.49 10.675C39.64 10.675 39.8317 10.75 40.065 10.9C40.315 11.05 40.54 11.2583 40.74 11.525C40.94 11.7917 41.04 12.0917 41.04 12.425C41.04 12.6417 40.9984 12.9583 40.915 13.375C40.8484 13.7917 40.7234 14.25 40.54 14.75C40.3734 15.25 40.1317 15.725 39.815 16.175C39.5817 17.375 39.365 18.475 39.165 19.475C38.965 20.475 38.765 21.3917 38.565 22.225C39.565 21.775 40.5484 21.2833 41.515 20.75C42.4817 20.2167 43.3734 19.625 44.19 18.975C45.0067 18.3083 45.6984 17.5667 46.265 16.75C46.4317 16.5167 46.5984 16.4 46.765 16.4C46.8484 16.4 46.9317 16.45 47.015 16.55C47.115 16.65 47.165 16.8167 47.165 17.05C47.165 17.6833 46.9067 18.325 46.39 18.975C45.8734 19.6083 45.1734 20.2417 44.29 20.875C43.4067 21.4917 42.4234 22.1 41.34 22.7C40.2567 23.2833 39.14 23.8417 37.99 24.375C37.5567 25.825 37.0984 26.9333 36.615 27.7C36.1484 28.4833 35.5984 29.0167 34.965 29.3C34.3484 29.6 33.615 29.75 32.765 29.75ZM39.865 7.85C39.5484 7.85 39.2817 7.75 39.065 7.55C38.8484 7.35 38.74 7.01667 38.74 6.55C38.74 6 38.94 5.51667 39.34 5.1C39.7567 4.66667 40.2067 4.45 40.69 4.45C41.1567 4.45 41.54 4.59167 41.84 4.875C42.1567 5.15833 42.315 5.525 42.315 5.975C42.315 6.35833 42.1984 6.68333 41.965 6.95C41.7317 7.2 41.4317 7.325 41.065 7.325C40.9817 7.325 40.915 7.31667 40.865 7.3C40.6317 7.53333 40.4484 7.68333 40.315 7.75C40.1817 7.81667 40.0317 7.85 39.865 7.85ZM35.765 25.325C35.015 25.625 34.2817 25.8917 33.565 26.125C32.8484 26.375 32.2234 26.5833 31.69 26.75C31.8234 27.1667 32.015 27.45 32.265 27.6C32.4984 27.7667 32.8067 27.85 33.19 27.85C33.7067 27.85 34.1734 27.6833 34.59 27.35C34.99 27.0167 35.3817 26.3417 35.765 25.325ZM48.607 23.25C47.6237 23.25 46.8487 22.875 46.282 22.125C45.7154 21.375 45.432 20.4 45.432 19.2C45.432 18.7667 45.4904 18.3083 45.607 17.825C45.7404 17.325 45.907 16.875 46.107 16.475C45.9904 16.3583 45.8987 16.2 45.832 16C45.7654 15.7833 45.732 15.5167 45.732 15.2C45.732 14.2167 45.8987 13.3167 46.232 12.5C46.5654 11.6833 47.007 10.975 47.557 10.375C48.107 9.75833 48.7154 9.28333 49.382 8.95C50.0654 8.61667 50.757 8.45 51.457 8.45C52.607 8.45 53.5404 8.86667 54.257 9.7C54.9737 10.5167 55.332 11.7667 55.332 13.45C55.332 14.3333 55.1987 15.2333 54.932 16.15C54.682 17.0667 54.332 17.95 53.882 18.8C53.4487 19.65 52.9404 20.4083 52.357 21.075C51.7904 21.7417 51.182 22.275 50.532 22.675C49.8987 23.0583 49.257 23.25 48.607 23.25ZM47.757 15.625C47.857 15.7583 47.907 15.9333 47.907 16.15C47.907 16.4 47.857 16.65 47.757 16.9C47.6737 17.15 47.582 17.4917 47.482 17.925C47.382 18.3583 47.332 18.975 47.332 19.775C47.332 20.575 47.6487 20.975 48.282 20.975C48.982 20.975 49.632 20.7 50.232 20.15C50.832 19.5833 51.3654 18.8583 51.832 17.975C52.2987 17.0917 52.657 16.15 52.907 15.15C53.1737 14.1333 53.307 13.175 53.307 12.275C53.307 11.6917 53.1987 11.2833 52.982 11.05C52.7654 10.8 52.3737 10.675 51.807 10.675C51.2237 10.675 50.6154 10.875 49.982 11.275C49.3654 11.6583 48.8487 12.1833 48.432 12.85C48.0154 13.5167 47.807 14.2667 47.807 15.1C47.807 15.2833 47.7904 15.4583 47.757 15.625ZM61.8988 29.425C61.0655 29.425 60.2988 29.3667 59.5988 29.25C58.9155 29.15 58.2405 28.9833 57.5738 28.75C56.9072 28.5333 56.1822 28.25 55.3988 27.9C55.1655 27.7833 54.9572 27.6417 54.7738 27.475C54.5905 27.325 54.4988 27.15 54.4988 26.95C54.4988 26.7 54.6572 26.4333 54.9738 26.15C55.2738 25.8833 55.5572 25.75 55.8238 25.75C56.1072 25.75 56.4572 25.85 56.8738 26.05C57.3072 26.25 57.8072 26.4833 58.3738 26.75C58.9405 27.0333 59.5655 27.275 60.2488 27.475C60.9488 27.675 61.6988 27.775 62.4988 27.775C63.3655 27.775 64.1822 27.4167 64.9488 26.7C65.7155 25.9833 66.3405 24.95 66.8238 23.6C67.3072 22.2667 67.5488 20.6583 67.5488 18.775C67.5488 18.2083 67.5322 17.5833 67.4988 16.9C67.4822 16.2 67.4488 15.4667 67.3988 14.7C66.9988 15.5667 66.5488 16.425 66.0488 17.275C65.5655 18.125 65.0572 18.8917 64.5238 19.575C64.0072 20.2583 63.4655 20.8083 62.8988 21.225C62.3488 21.625 61.7905 21.825 61.2238 21.825C60.5072 21.825 59.9905 21.6417 59.6738 21.275C59.3572 20.9083 59.1988 20.3417 59.1988 19.575C59.1988 18.775 59.2572 17.9083 59.3738 16.975C59.4905 16.0417 59.6405 15.1 59.8238 14.15C60.0238 13.1833 60.2572 12.2667 60.5238 11.4C60.7905 10.5333 61.0738 9.78333 61.3738 9.15C61.5405 8.81667 61.7905 8.65 62.1238 8.65C62.3572 8.65 62.5822 8.775 62.7988 9.025C63.0322 9.25833 63.1488 9.56667 63.1488 9.95C63.1488 10.25 63.0822 10.675 62.9488 11.225C62.8155 11.775 62.6488 12.4 62.4488 13.1C62.2488 13.8 62.0488 14.5333 61.8488 15.3C61.6488 16.05 61.4822 16.7917 61.3488 17.525C61.2155 18.2417 61.1488 18.9 61.1488 19.5C61.1488 19.75 61.3155 19.875 61.6488 19.875C61.8322 19.875 62.0905 19.7083 62.4238 19.375C62.7738 19.025 63.1572 18.575 63.5738 18.025C64.0072 17.4583 64.4405 16.8417 64.8738 16.175C65.3238 15.4917 65.7572 14.8167 66.1738 14.15C66.5905 13.4667 66.9488 12.8417 67.2488 12.275C67.2322 12.1417 67.2238 12.0167 67.2238 11.9C67.2238 11.7833 67.2238 11.675 67.2238 11.575C67.2238 10.7583 67.3072 10.25 67.4738 10.05C67.6572 9.83333 67.8905 9.725 68.1738 9.725C68.6572 9.725 68.9988 9.83333 69.1988 10.05C69.3988 10.2667 69.4988 10.6417 69.4988 11.175C69.4988 11.375 69.4738 11.5917 69.4238 11.825C69.3738 12.0417 69.2905 12.3583 69.1738 12.775C69.3072 14.0917 69.4155 15.275 69.4988 16.325C69.5988 17.375 69.6488 18.4333 69.6488 19.5C69.6488 21.5167 69.3238 23.2667 68.6738 24.75C68.0405 26.2333 67.1405 27.3833 65.9738 28.2C64.8238 29.0167 63.4655 29.425 61.8988 29.425ZM77.0369 16.825C76.8869 16.825 76.7536 16.75 76.6369 16.6C76.5369 16.4333 76.4869 16.2167 76.4869 15.95C76.4869 15.5833 76.5536 15.0083 76.6869 14.225C76.8369 13.425 77.0286 12.5 77.2619 11.45C77.5119 10.3833 77.7952 9.275 78.1119 8.125C78.4452 6.975 78.7952 5.85 79.1619 4.75C79.5286 3.63333 79.8952 2.64167 80.2619 1.775C80.5119 1.19167 80.8202 0.899998 81.1869 0.899998C81.5702 0.899998 81.9202 1.08333 82.2369 1.45C82.5536 1.81667 82.7119 2.26667 82.7119 2.8C82.7119 3 82.6119 3.375 82.4119 3.925C82.2286 4.475 81.9786 5.14167 81.6619 5.925C81.3619 6.70833 81.0286 7.55 80.6619 8.45C80.2952 9.35 79.9202 10.2667 79.5369 11.2C79.1702 12.1167 78.8286 12.9833 78.5119 13.8C78.1952 14.6167 77.9452 15.325 77.7619 15.925C77.6452 16.2917 77.5369 16.5333 77.4369 16.65C77.3369 16.7667 77.2036 16.825 77.0369 16.825ZM75.5619 24.275C75.3119 24.275 75.0536 24.1333 74.7869 23.85C74.5202 23.5667 74.3869 22.9917 74.3869 22.125C74.3869 21.6417 74.5452 21.2833 74.8619 21.05C75.1786 20.8 75.5869 20.675 76.0869 20.675C76.9369 20.675 77.3619 21.1167 77.3619 22C77.3619 22.4167 77.2619 22.7917 77.0619 23.125C76.8619 23.475 76.6202 23.75 76.3369 23.95C76.0702 24.1667 75.8119 24.275 75.5619 24.275Z" fill="white"/>
</svg>
