<svg width="248" height="89" viewBox="0 0 248 89" fill="none" xmlns="http://www.w3.org/2000/svg">
<g clip-path="url(#clip0_961_3632)">
<path d="M122.849 33.904C126.071 33.904 128.694 31.2818 128.694 28.0597C128.694 24.8375 126.071 22.2153 122.849 22.2153C119.627 22.2153 117.005 24.8375 117.005 28.0597C117.005 31.2818 119.627 33.904 122.849 33.904Z" fill="white"/>
<path d="M151.696 29.1805C151.478 29.1805 151.266 29.2035 151.059 29.2414C150.28 27.3016 148.864 26.0045 147.244 26.0045C147.163 26.0045 147.084 26.0078 147.005 26.0144V19.5339C147.005 16.5985 144.604 14.1971 141.668 14.1971H128.345V14.0389C128.345 13.0912 127.577 12.3232 126.629 12.3232H123.512V6.8942C125.032 6.51183 126.159 5.14057 126.159 3.50231C126.159 1.56904 124.592 0 122.657 0C120.722 0 119.155 1.56739 119.155 3.50231C119.155 5.14057 120.282 6.51183 121.802 6.8942V12.3232H118.685C117.737 12.3232 116.969 13.0912 116.969 14.0389V14.1971H103.646C100.71 14.1971 98.3089 16.5985 98.3089 19.5339V26.0094C96.7514 26.0869 95.3982 27.3609 94.6434 29.2398C94.4374 29.2019 94.2248 29.1788 94.0072 29.1788C92.0739 29.1788 90.5049 30.7462 90.5049 32.6811C90.5049 34.6161 92.0723 36.1834 94.0072 36.1834C94.2248 36.1834 94.4374 36.1604 94.6434 36.1225C95.3982 38.0014 96.753 39.2754 98.3089 39.3528V45.8284C98.3089 48.7638 100.71 51.1651 103.646 51.1651H141.668C144.604 51.1651 147.005 48.7638 147.005 45.8284V39.3479C147.084 39.3545 147.165 39.3578 147.244 39.3578C148.863 39.3578 150.28 38.0607 151.059 36.1208C151.266 36.1587 151.478 36.1818 151.696 36.1818C153.629 36.1818 155.198 34.6144 155.198 32.6795C155.198 30.7446 153.631 29.1772 151.696 29.1772V29.1805ZM122.85 18.2499C128.259 18.2499 132.66 22.6505 132.66 28.0597C132.66 33.4689 128.259 37.8695 122.85 37.8695C117.441 37.8695 113.04 33.4689 113.04 28.0597C113.04 22.6505 117.441 18.2499 122.85 18.2499ZM138.382 39.839C138.146 40.1176 132.488 46.6344 122.24 46.6344C111.992 46.6344 107.351 39.9214 107.164 39.6347C106.568 38.7166 106.828 37.4888 107.746 36.8921C108.659 36.2972 109.882 36.5543 110.482 37.4641C110.642 37.7014 114.088 42.6689 122.238 42.6689C130.388 42.6689 135.175 37.4855 135.366 37.2646C136.081 36.4389 137.33 36.3433 138.159 37.0537C138.988 37.764 139.089 39.0084 138.382 39.839Z" fill="white"/>
<path d="M5.67293 82.8508H2.68319V88.7874H0V73.3508H5.429C7.21065 73.3508 8.5852 73.7513 9.55267 74.5507C10.5218 75.35 11.0047 76.507 11.0047 78.02C11.0047 79.0534 10.7558 79.9171 10.2564 80.6142C9.75704 81.3114 9.06317 81.847 8.17317 82.2212L11.6409 88.6489V88.7857H8.76815L5.67293 82.8491V82.8508ZM2.68319 80.6884H5.44054C6.34537 80.6884 7.05243 80.4609 7.5617 80.0044C8.07098 79.5479 8.3248 78.9249 8.3248 78.1338C8.3248 77.3426 8.08911 76.6669 7.61939 76.2153C7.14967 75.7637 6.44756 75.5297 5.5147 75.5148H2.68319V80.6884Z" fill="white"/>
<path d="M25.869 81.4729C25.869 82.9859 25.6069 84.3126 25.0845 85.4548C24.562 86.597 23.8137 87.4721 22.8413 88.0836C21.8689 88.6951 20.7515 89 19.4857 89C18.2199 89 17.119 88.6951 16.14 88.0836C15.161 87.4721 14.4045 86.6019 13.8705 85.4696C13.3365 84.339 13.0662 83.0353 13.0596 81.5569V80.6867C13.0596 79.1819 13.3266 77.8519 13.8606 76.6998C14.3946 75.5478 15.1461 74.666 16.1185 74.0546C17.0909 73.4431 18.2051 73.1382 19.4643 73.1382C20.7235 73.1382 21.8376 73.4398 22.81 74.0447C23.7824 74.6495 24.5323 75.5181 25.063 76.652C25.5937 77.786 25.8624 79.1061 25.869 80.6125V81.4712V81.4729ZM23.1874 80.6669C23.1874 78.9561 22.8644 77.6459 22.2167 76.7328C21.5706 75.8214 20.6526 75.3648 19.4659 75.3648C18.2793 75.3648 17.4008 75.8197 16.7465 76.7278C16.0922 77.636 15.7592 78.9215 15.7444 80.5812V81.4712C15.7444 83.1672 16.074 84.4791 16.7349 85.4053C17.3958 86.3316 18.3122 86.7947 19.4857 86.7947C20.6592 86.7947 21.5871 86.3431 22.2266 85.4383C22.8661 84.5335 23.1858 83.2117 23.1858 81.4729V80.6669H23.1874Z" fill="white"/>
<path d="M28.541 88.7891V73.3525H33.8316C35.577 73.3525 36.907 73.7019 37.8184 74.4024C38.7299 75.1029 39.1864 76.1445 39.1864 77.5306C39.1864 78.2377 38.9952 78.8738 38.6145 79.4391C38.2321 80.0045 37.6751 80.4429 36.94 80.7544C37.7739 80.9802 38.4184 81.407 38.8749 82.0317C39.3314 82.6563 39.5589 83.4079 39.5589 84.2847C39.5589 85.7334 39.0941 86.8476 38.1646 87.6239C37.235 88.4018 35.9049 88.7907 34.1727 88.7907H28.5427L28.541 88.7891ZM31.2242 79.8512H33.853C34.687 79.8512 35.3396 79.6616 35.8094 79.2842C36.2791 78.9068 36.5148 78.3711 36.5148 77.6773C36.5148 76.9142 36.2972 76.3621 35.8621 76.0225C35.427 75.683 34.7512 75.5133 33.8316 75.5133H31.2226V79.8495L31.2242 79.8512ZM31.2242 81.8224V86.6465H34.2041C35.0446 86.6465 35.7022 86.4388 36.1769 86.0202C36.6499 85.6032 36.8872 85.0231 36.8872 84.2814C36.8872 82.6778 36.0665 81.857 34.4282 81.8224H31.2259H31.2242Z" fill="white"/>
<path d="M54.5604 81.4729C54.5604 82.9859 54.2983 84.3126 53.7759 85.4548C53.2534 86.597 52.5051 87.4721 51.5327 88.0836C50.5603 88.6951 49.4429 89 48.1771 89C46.9113 89 45.8104 88.6951 44.8314 88.0836C43.8524 87.4721 43.0959 86.6019 42.5619 85.4696C42.0279 84.339 41.7576 83.0353 41.751 81.5569V80.6867C41.751 79.1819 42.018 77.8519 42.552 76.6998C43.086 75.5478 43.8375 74.666 44.8099 74.0546C45.7823 73.4431 46.8965 73.1382 48.1557 73.1382C49.4149 73.1382 50.529 73.4398 51.5014 74.0447C52.4738 74.6495 53.2237 75.5181 53.7544 76.652C54.2851 77.786 54.5538 79.1061 54.5604 80.6125V81.4712V81.4729ZM51.8788 80.6669C51.8788 78.9561 51.5558 77.6459 50.9081 76.7328C50.262 75.8214 49.344 75.3648 48.1573 75.3648C46.9707 75.3648 46.0922 75.8197 45.4379 76.7278C44.7836 77.636 44.4506 78.9215 44.4358 80.5812V81.4712C44.4358 83.1672 44.7654 84.4791 45.4263 85.4053C46.0873 86.3316 47.0036 86.7947 48.1771 86.7947C49.3506 86.7947 50.2785 86.3431 50.918 85.4383C51.5575 84.5335 51.8772 83.2117 51.8772 81.4729V80.6669H51.8788Z" fill="white"/>
<path d="M69.4779 88.7891H66.7947L59.9137 77.8371V88.7891H57.2305V73.3525H59.9137L66.8161 84.3473V73.3525H69.4779V88.7891Z" fill="white"/>
<path d="M84.9666 81.4729C84.9666 82.9859 84.7046 84.3126 84.1821 85.4548C83.6596 86.597 82.9114 87.4721 81.939 88.0836C80.9666 88.6951 79.8491 89 78.5834 89C77.3176 89 76.2166 88.6951 75.2376 88.0836C74.2586 87.4721 73.5021 86.6019 72.9681 85.4696C72.4341 84.339 72.1638 83.0353 72.1572 81.5569V80.6867C72.1572 79.1819 72.4242 77.8519 72.9582 76.6998C73.4922 75.5478 74.2438 74.666 75.2162 74.0546C76.1886 73.4431 77.3027 73.1382 78.5619 73.1382C79.8211 73.1382 80.9353 73.4398 81.9077 74.0447C82.8801 74.6495 83.63 75.5181 84.1607 76.652C84.6914 77.786 84.96 79.1061 84.9666 80.6125V81.4712V81.4729ZM82.2851 80.6669C82.2851 78.9561 81.9621 77.6459 81.3143 76.7328C80.6683 75.8214 79.7502 75.3648 78.5636 75.3648C77.3769 75.3648 76.4984 75.8197 75.8441 76.7278C75.1898 77.636 74.8569 78.9215 74.8421 80.5812V81.4712C74.8421 83.1672 75.1717 84.4791 75.8326 85.4053C76.4935 86.3316 77.4099 86.7947 78.5834 86.7947C79.7568 86.7947 80.6847 86.3431 81.3242 85.4383C81.9637 84.5335 82.2834 83.2117 82.2834 81.4729V80.6669H82.2851Z" fill="white"/>
<path d="M91.1166 73.3508L95.5699 85.1829L100.012 73.3508H103.479V88.7874H100.808V83.6979L101.073 76.8911L96.5143 88.7874H94.5958L90.0469 76.9026L90.3123 83.6996V88.789H87.6406V73.3525H91.1182L91.1166 73.3508Z" fill="white"/>
<path d="M109.48 88.7891H106.809V73.3525H109.48V88.7891Z" fill="white"/>
<path d="M124.557 83.7638C124.402 85.4103 123.794 86.6958 122.734 87.6172C121.675 88.5385 120.264 89 118.504 89C117.274 89 116.191 88.7082 115.253 88.1248C114.317 87.5413 113.594 86.7123 113.084 85.6394C112.575 84.5648 112.31 83.3171 112.29 81.8964V80.4543C112.29 78.999 112.547 77.7151 113.065 76.6059C113.581 75.4967 114.321 74.6413 115.286 74.0397C116.251 73.4398 117.366 73.1382 118.632 73.1382C120.335 73.1382 121.708 73.5997 122.746 74.5226C123.784 75.4456 124.389 76.7509 124.559 78.4403H121.887C121.76 77.3311 121.437 76.5301 120.916 76.0389C120.397 75.5478 119.636 75.3022 118.632 75.3022C117.465 75.3022 116.57 75.7291 115.944 76.5812C115.318 77.4333 114.998 78.6842 114.985 80.3323V81.702C114.985 83.3715 115.283 84.6456 115.881 85.5224C116.478 86.3992 117.353 86.8376 118.505 86.8376C119.558 86.8376 120.349 86.6003 120.88 86.1272C121.411 85.6542 121.745 84.8648 121.887 83.7621H124.559L124.557 83.7638Z" fill="white"/>
<path d="M135.021 84.8121C135.021 84.133 134.782 83.6106 134.306 83.243C133.83 82.8755 132.968 82.5047 131.725 82.1305C130.481 81.7564 129.492 81.3394 128.757 80.8796C127.349 79.9962 126.647 78.8441 126.647 77.4234C126.647 76.1791 127.155 75.1539 128.168 74.348C129.182 73.542 130.499 73.1399 132.117 73.1399C133.192 73.1399 134.15 73.3377 134.99 73.7332C135.831 74.1288 136.492 74.6925 136.973 75.4242C137.454 76.156 137.695 76.9669 137.695 77.8569H135.023C135.023 77.051 134.771 76.4197 134.265 75.9648C133.759 75.5083 133.037 75.2808 132.098 75.2808C131.221 75.2808 130.54 75.4687 130.057 75.8429C129.573 76.217 129.33 76.7411 129.33 77.4119C129.33 77.9772 129.592 78.4486 130.115 78.8277C130.637 79.2051 131.501 79.5743 132.703 79.9303C133.904 80.2879 134.868 80.6934 135.597 81.1499C136.325 81.6064 136.857 82.1289 137.197 82.7189C137.537 83.309 137.706 83.9995 137.706 84.7923C137.706 86.0795 137.213 87.1014 136.228 87.8612C135.242 88.621 133.904 89.0017 132.215 89.0017C131.097 89.0017 130.07 88.7957 129.134 88.382C128.198 87.9683 127.47 87.398 126.95 86.6695C126.431 85.9411 126.171 85.0939 126.171 84.1248H128.854C128.854 85.0016 129.144 85.6807 129.724 86.1603C130.304 86.6415 131.133 86.8822 132.216 86.8822C133.149 86.8822 133.851 86.6926 134.321 86.3152C134.791 85.9378 135.026 85.4367 135.026 84.8154L135.021 84.8121Z" fill="white"/>
<path d="M141.415 86.0746C141.896 86.0746 142.267 86.2114 142.529 86.4833C142.791 86.7553 142.921 87.0964 142.921 87.5068C142.921 87.9172 142.791 88.2436 142.529 88.5089C142.267 88.7743 141.896 88.9061 141.415 88.9061C140.934 88.9061 140.591 88.7759 140.324 88.5138C140.055 88.2518 139.92 87.9172 139.92 87.5068C139.92 87.0964 140.05 86.7553 140.312 86.4833C140.574 86.2114 140.942 86.0746 141.415 86.0746Z" fill="white"/>
<path d="M158.368 88.7891H155.685L148.804 77.8371V88.7891H146.121V73.3525H148.804L155.707 84.3473V73.3525H158.368V88.7891Z" fill="white"/>
<path d="M170.56 81.8965H164.22V86.6464H171.631V88.7874H161.538V73.3508H171.557V75.5132H164.22V79.7753H170.56V81.8965Z" fill="white"/>
<path d="M185.181 75.5149H180.367V88.7891H177.705V75.5149H172.934V73.3525H185.179V75.5149H185.181Z" fill="white"/>
<path d="M199.473 84.972L201.848 73.3525H204.51L200.948 88.7891H198.382L195.445 77.5191L192.444 88.7891H189.868L186.305 73.3525H188.966L191.363 84.9522L194.31 73.3525H196.558L199.473 84.972Z" fill="white"/>
<path d="M218.792 81.4729C218.792 82.9859 218.53 84.3126 218.007 85.4548C217.485 86.597 216.737 87.4721 215.764 88.0836C214.792 88.6951 213.674 89 212.409 89C211.143 89 210.042 88.6951 209.063 88.0836C208.084 87.4721 207.327 86.6019 206.793 85.4696C206.259 84.339 205.989 83.0353 205.982 81.5569V80.6867C205.982 79.1819 206.249 77.8519 206.783 76.6998C207.317 75.5478 208.069 74.666 209.041 74.0546C210.014 73.4431 211.128 73.1382 212.387 73.1382C213.646 73.1382 214.76 73.4398 215.731 74.0447C216.704 74.6495 217.455 75.5181 217.984 76.652C218.515 77.786 218.784 79.1061 218.79 80.6125V81.4712L218.792 81.4729ZM216.109 80.6669C216.109 78.9561 215.786 77.6459 215.138 76.7328C214.49 75.8197 213.574 75.3648 212.387 75.3648C211.2 75.3648 210.32 75.8197 209.668 76.7278C209.013 77.636 208.68 78.9215 208.666 80.5812V81.4712C208.666 83.1672 208.995 84.4791 209.658 85.4053C210.319 86.3316 211.235 86.7947 212.409 86.7947C213.582 86.7947 214.51 86.3431 215.149 85.4383C215.789 84.5335 216.109 83.2117 216.109 81.4729V80.6669Z" fill="white"/>
<path d="M227.135 82.8508H224.145V88.7874H221.462V73.3508H226.891C228.673 73.3508 230.047 73.7513 231.016 74.5507C231.985 75.35 232.468 76.507 232.468 78.02C232.468 79.0534 232.219 79.9171 231.72 80.6142C231.221 81.3114 230.527 81.847 229.637 82.2212L233.104 88.6489V88.7857H230.232L227.136 82.8491L227.135 82.8508ZM224.145 80.6884H226.901C227.806 80.6884 228.513 80.4609 229.022 80.0044C229.531 79.5479 229.785 78.9249 229.785 78.1338C229.785 77.3426 229.549 76.6669 229.08 76.2153C228.61 75.7637 227.908 75.5297 226.975 75.5148H224.143V80.6884H224.145Z" fill="white"/>
<path d="M239.444 82.119L237.694 83.9749V88.7891H235.011V73.3525H237.694V80.5945L239.179 78.7601L243.695 73.3525H246.94L241.204 80.1907L247.27 88.7891H244.089L239.444 82.1207V82.119Z" fill="white"/>
</g>
<defs>
<clipPath id="clip0_961_3632">
<rect width="247.268" height="89" fill="white"/>
</clipPath>
</defs>
</svg>
