<svg width="236" height="45" viewBox="0 0 236 45" fill="none" xmlns="http://www.w3.org/2000/svg">
<g clip-path="url(#clip0_961_3416)">
<path d="M75.2827 31.514H71.6567V38.7115H68.4033V20H74.9857C77.1448 20 78.8121 20.4846 79.9862 21.4538C81.1603 22.423 81.7474 23.8249 81.7474 25.6597C81.7474 26.9118 81.4447 27.9594 80.8409 28.8039C80.237 29.6485 79.3949 30.2983 78.3147 30.7521L82.518 38.5434V38.7101H79.0349L75.2799 31.5126L75.2827 31.514ZM71.6567 28.8922H74.9997C76.0968 28.8922 76.9542 28.6162 77.5707 28.063C78.1872 27.5098 78.4968 26.7549 78.4968 25.7941C78.4968 24.8333 78.211 24.0168 77.6422 23.4678C77.0719 22.9202 76.2215 22.6373 75.0894 22.619H71.6567V28.8908V28.8922Z" fill="white"/>
<path d="M99.7738 29.8432C99.7738 31.6765 99.4571 33.2857 98.8224 34.6695C98.1878 36.0532 97.2812 37.1163 96.1029 37.8572C94.9232 38.5981 93.5669 38.9692 92.0327 38.9692C90.4985 38.9692 89.1633 38.5995 87.9765 37.8572C86.7898 37.1163 85.8721 36.0602 85.2248 34.6891C84.5775 33.3179 84.2496 31.7381 84.2412 29.9468V28.8936C84.2412 27.0686 84.5649 25.458 85.2122 24.0616C85.8595 22.6653 86.7716 21.5967 87.9513 20.8558C89.1296 20.1149 90.4817 19.7437 92.0075 19.7437C93.5333 19.7437 94.8854 20.1093 96.0637 20.8432C97.242 21.5756 98.1527 22.6289 98.7958 24.0042C99.4389 25.3796 99.764 26.979 99.7738 28.8039V29.8446V29.8432ZM96.5204 28.867C96.5204 26.7927 96.1281 25.2045 95.3449 24.0981C94.5603 22.993 93.4492 22.4398 92.0089 22.4398C90.5686 22.4398 89.5037 22.9902 88.7107 24.0911C87.9177 25.1919 87.5128 26.7493 87.496 28.7633V29.8432C87.496 31.8992 87.8967 33.4888 88.6981 34.6121C89.4995 35.7339 90.612 36.2955 92.0341 36.2955C93.4562 36.2955 94.5813 35.7479 95.3575 34.6513C96.1337 33.5546 96.5204 31.9524 96.5204 29.8446V28.8684V28.867Z" fill="white"/>
<path d="M103.015 38.7101V19.9986H109.43C111.547 19.9986 113.159 20.423 114.264 21.2703C115.37 22.119 115.923 23.3824 115.923 25.0616C115.923 25.9188 115.692 26.6891 115.228 27.3753C114.766 28.0602 114.088 28.5924 113.196 28.9692C114.208 29.2437 114.99 29.7591 115.543 30.5168C116.097 31.2759 116.373 32.1863 116.373 33.2479C116.373 35.0042 115.809 36.3529 114.683 37.2955C113.555 38.2381 111.942 38.7087 109.842 38.7087H103.016L103.015 38.7101ZM106.268 27.8767H109.457C110.468 27.8767 111.259 27.6471 111.829 27.1891C112.399 26.7311 112.684 26.0812 112.684 25.2423C112.684 24.3165 112.42 23.6485 111.893 23.2367C111.367 22.8249 110.546 22.6204 109.432 22.6204H106.269V27.8767H106.268ZM106.268 30.2675V36.1148H109.881C110.901 36.1148 111.699 35.8627 112.273 35.3557C112.848 34.8501 113.135 34.1485 113.135 33.2479C113.135 31.3025 112.14 30.3095 110.152 30.2661H106.269L106.268 30.2675Z" fill="white"/>
<path d="M134.563 29.8432C134.563 31.6765 134.247 33.2857 133.612 34.6695C132.977 36.0532 132.071 37.1163 130.893 37.8572C129.714 38.5981 128.358 38.9692 126.824 38.9692C125.29 38.9692 123.954 38.5995 122.768 37.8572C121.581 37.1163 120.663 36.0602 120.016 34.6891C119.368 33.3179 119.041 31.7381 119.032 29.9468V28.8936C119.032 27.0686 119.356 25.458 120.003 24.0616C120.65 22.6653 121.563 21.5967 122.742 20.8558C123.921 20.1149 125.273 19.7437 126.799 19.7437C128.324 19.7437 129.676 20.1093 130.855 20.8432C132.033 21.5756 132.944 22.6289 133.587 24.0042C134.23 25.3796 134.555 26.979 134.563 28.8039V29.8446V29.8432ZM131.311 28.867C131.311 26.7927 130.919 25.2045 130.135 24.0981C129.35 22.993 128.239 22.4398 126.799 22.4398C125.358 22.4398 124.293 22.9902 123.5 24.0911C122.707 25.1919 122.302 26.7493 122.286 28.7633V29.8432C122.286 31.8992 122.686 33.4888 123.488 34.6121C124.289 35.7339 125.402 36.2955 126.824 36.2955C128.246 36.2955 129.371 35.7479 130.147 34.6513C130.923 33.5546 131.311 31.9524 131.311 29.8446V28.8684V28.867Z" fill="white"/>
<path d="M152.653 38.7101H149.4L141.056 25.4342V38.7101H137.803V19.9986H141.056L149.426 33.3249V19.9986H152.653V38.7101Z" fill="white"/>
<path d="M171.437 29.8432C171.437 31.6765 171.121 33.2857 170.486 34.6695C169.851 36.0532 168.945 37.1163 167.767 37.8572C166.587 38.5981 165.231 38.9692 163.696 38.9692C162.162 38.9692 160.827 38.5995 159.64 37.8572C158.453 37.1163 157.536 36.0602 156.89 34.6891C156.243 33.3179 155.915 31.7381 155.906 29.9468V28.8936C155.906 27.0686 156.23 25.458 156.877 24.0616C157.525 22.6653 158.437 21.5967 159.616 20.8558C160.795 20.1149 162.147 19.7437 163.673 19.7437C165.198 19.7437 166.55 20.1093 167.729 20.8432C168.907 21.5756 169.818 22.6289 170.461 24.0042C171.104 25.3796 171.429 26.979 171.439 28.8039V29.8446L171.437 29.8432ZM168.184 28.867C168.184 26.7927 167.792 25.2045 167.009 24.0981C166.224 22.993 165.113 22.4398 163.673 22.4398C162.232 22.4398 161.167 22.9902 160.374 24.0911C159.581 25.1919 159.176 26.7493 159.16 28.7633V29.8432C159.16 31.8992 159.56 33.4888 160.362 34.6121C161.163 35.7339 162.276 36.2955 163.698 36.2955C165.12 36.2955 166.245 35.7479 167.021 34.6513C167.797 33.5546 168.184 31.9524 168.184 29.8446V28.8684V28.867Z" fill="white"/>
<path d="M178.894 19.9986L184.293 34.3403L189.681 19.9986H193.885V38.7101H190.646V32.542L190.967 24.2913L185.438 38.7115H183.111L177.596 24.3053L177.917 32.5434V38.7115H174.678V20H178.895L178.894 19.9986Z" fill="white"/>
<path d="M201.16 38.7101H197.921V19.9986H201.16V38.7101Z" fill="white"/>
<path d="M219.443 32.6191C219.256 34.6163 218.517 36.1723 217.232 37.2913C215.946 38.409 214.237 38.9678 212.103 38.9678C210.612 38.9678 209.298 38.6149 208.162 37.9076C207.025 37.2003 206.15 36.1961 205.533 34.8936C204.917 33.591 204.595 32.0798 204.569 30.3572V28.6093C204.569 26.8445 204.882 25.2899 205.508 23.944C206.133 22.5995 207.031 21.5616 208.201 20.8333C209.371 20.1051 210.723 19.7409 212.257 19.7409C214.322 19.7409 215.985 20.2997 217.245 21.4174C218.506 22.535 219.237 24.1177 219.443 26.1667H216.204C216.05 24.8221 215.658 23.8516 215.029 23.2563C214.399 22.6611 213.475 22.3628 212.259 22.3628C210.843 22.3628 209.758 22.8796 209 23.9132C208.242 24.9468 207.854 26.4622 207.837 28.4608V30.1205C207.837 32.1443 208.198 33.6877 208.923 34.7521C209.647 35.8151 210.708 36.3473 212.104 36.3473C213.382 36.3473 214.342 36.0602 214.984 35.486C215.627 34.9118 216.033 33.9566 216.205 32.6205H219.445L219.443 32.6191Z" fill="white"/>
<path d="M232.131 33.8908C232.131 33.0686 231.842 32.4342 231.264 31.9888C230.685 31.5434 229.641 31.0938 228.134 30.6387C226.625 30.1849 225.425 29.6793 224.533 29.1219C222.828 28.0504 221.974 26.6541 221.974 24.9328C221.974 23.4244 222.589 22.1821 223.82 21.2059C225.05 20.2297 226.646 19.7409 228.608 19.7409C229.912 19.7409 231.073 19.9804 232.093 20.4608C233.113 20.9412 233.914 21.6247 234.497 22.5112C235.08 23.3978 235.372 24.381 235.372 25.4608H232.132C232.132 24.4846 231.825 23.7199 231.213 23.1667C230.601 22.6135 229.724 22.3375 228.585 22.3375C227.523 22.3375 226.697 22.5644 226.11 23.0182C225.523 23.472 225.229 24.1065 225.229 24.9202C225.229 25.6051 225.546 26.1779 226.18 26.6359C226.815 27.0938 227.86 27.5406 229.317 27.972C230.775 28.4048 231.945 28.8978 232.827 29.4496C233.71 30.0028 234.357 30.6373 234.769 31.3516C235.18 32.0672 235.386 32.9048 235.386 33.8642C235.386 35.4244 234.787 36.6639 233.592 37.5854C232.397 38.507 230.775 38.9664 228.726 38.9664C227.373 38.9664 226.127 38.7157 224.992 38.2143C223.856 37.7129 222.973 37.021 222.344 36.1387C221.714 35.2563 221.398 34.2283 221.398 33.0546H224.652C224.652 34.1177 225.003 34.9398 225.707 35.5224C226.409 36.1051 227.416 36.3964 228.728 36.3964C229.86 36.3964 230.71 36.1667 231.28 35.7087C231.851 35.2507 232.135 34.6443 232.135 33.8894L232.131 33.8908Z" fill="white"/>
<path d="M28.4594 29.8166C31.2938 29.8166 33.6015 27.5112 33.6015 24.6765C33.6015 21.8418 31.2952 19.5364 28.4594 19.5364C25.6236 19.5364 23.3174 21.8418 23.3174 24.6765C23.3174 27.5112 25.6236 29.8166 28.4594 29.8166Z" fill="white"/>
<path d="M53.8371 25.6624C53.6451 25.6624 53.4588 25.682 53.2767 25.7156C52.5915 24.0097 51.3445 22.8697 49.9196 22.8697C49.8482 22.8697 49.7781 22.8725 49.7095 22.8781V17.1792C49.7095 14.598 47.5966 12.4845 45.013 12.4845H33.29V12.3459C33.29 11.5125 32.6147 10.8375 31.781 10.8375H29.039V6.06156C30.3757 5.72543 31.3677 4.51954 31.3677 3.07837C31.3677 1.37809 29.989 -0.00146484 28.2867 -0.00146484C26.5843 -0.00146484 25.2056 1.37669 25.2056 3.07837C25.2056 4.51954 26.1976 5.72543 27.5343 6.06156V10.8375H24.7923C23.9587 10.8375 23.2833 11.5125 23.2833 12.3459V12.4845H11.5603C8.97811 12.4845 6.86386 14.5966 6.86386 17.1792V22.8739C5.49358 22.9411 4.30265 24.063 3.63853 25.7156C3.45638 25.682 3.27004 25.6624 3.07809 25.6624C1.37715 25.6624 -0.00292969 27.0406 -0.00292969 28.7422C-0.00292969 30.4439 1.37575 31.8221 3.07809 31.8221C3.27004 31.8221 3.45638 31.8025 3.63853 31.7688C4.30265 33.4215 5.49498 34.542 6.86386 34.6106V40.3067C6.86386 42.8879 8.97671 45.0013 11.5603 45.0013H45.013C47.5952 45.0013 49.7095 42.8893 49.7095 40.3067V34.6078C49.7795 34.6134 49.8496 34.6162 49.9196 34.6162C51.3445 34.6162 52.5915 33.4747 53.2767 31.7702C53.4588 31.8039 53.6451 31.8235 53.8371 31.8235C55.538 31.8235 56.9181 30.4453 56.9181 28.7436C56.9181 27.042 55.5394 25.6638 53.8371 25.6638V25.6624ZM28.459 16.049C33.2171 16.049 37.0898 19.9187 37.0898 24.6764C37.0898 29.4341 33.2185 33.3039 28.459 33.3039C23.6995 33.3039 19.8282 29.4341 19.8282 24.6764C19.8282 19.9187 23.6995 16.049 28.459 16.049ZM42.1253 35.035C41.9179 35.2786 36.9398 41.0111 27.9224 41.0111C18.9049 41.0111 14.8235 35.1064 14.6596 34.8557C14.1342 34.049 14.3639 32.9677 15.171 32.4439C15.9752 31.9215 17.0512 32.147 17.5781 32.9467C17.7182 33.1554 20.7501 37.5238 27.9224 37.5238C35.0946 37.5238 39.3035 32.9649 39.4716 32.7702C40.1007 32.0448 41.1992 31.9607 41.9292 32.584C42.6577 33.2086 42.7474 34.3025 42.1253 35.0336V35.035Z" fill="white"/>
</g>
<defs>
<clipPath id="clip0_961_3416">
<rect width="235.385" height="45" fill="white"/>
</clipPath>
</defs>
</svg>
