<svg width="56" height="51" viewBox="0 0 56 51" fill="none" xmlns="http://www.w3.org/2000/svg">
<path d="M55.51 24L48.66 22.73C48.49 22.7 48.31 22.54 48.25 22.38L46.15 17.48C46.07 17.33 46.09 17.09 46.18 16.95L50.17 11.13C50.27 10.99 50.25 10.78 50.13 10.66L45.14 5.67001C45.02 5.55001 44.81 5.53 44.67 5.63L38.75 9.69C38.61 9.79 38.37 9.80001 38.22 9.73001L33.47 7.79001C33.31 7.74001 33.15 7.56001 33.12 7.39001L31.8 0.300018C31.77 0.130018 31.6 0 31.43 0H24.38C24.21 0 24.05 0.140018 24.01 0.300018L22.69 7.39001C22.66 7.56001 22.5 7.74001 22.34 7.79001L17.59 9.73001C17.44 9.81001 17.2 9.79 17.06 9.69L11.14 5.63C11 5.53 10.79 5.55001 10.67 5.67001L5.67999 10.66C5.55999 10.78 5.54001 10.99 5.64001 11.13L9.63 16.95C9.73001 17.09 9.74 17.33 9.66 17.48L7.56 22.38C7.5 22.54 7.31999 22.7 7.14999 22.73L0.299988 24C0.129988 24.03 0 24.2 0 24.37V31.42C0 31.59 0.139988 31.76 0.299988 31.79L6.98001 33.03C7.15001 33.06 7.33 33.22 7.38 33.38L9.47 38.59C9.54 38.74 9.52999 38.98 9.42999 39.12L5.63 44.65C5.53 44.79 5.55001 45 5.67001 45.12L10.66 50.11C10.78 50.23 10.99 50.25 11.13 50.15L16.56 46.42C16.7 46.32 16.93 46.32 17.08 46.4L19.48 47.68C19.63 47.76 19.81 47.69 19.87 47.53L24.81 35.59C24.88 35.43 24.81 35.23 24.66 35.14L24.06 34.77C23.95 34.7 23.8 34.59 23.68 34.48C21.52 33.09 20.08 30.67 20.08 27.91C20.08 23.6 23.57 20.11 27.88 20.11C32.19 20.11 35.68 23.6 35.68 27.91C35.68 30.67 34.25 33.09 32.08 34.48C31.96 34.59 31.81 34.7 31.7 34.77L31.1 35.14C30.96 35.23 30.89 35.43 30.95 35.59L35.89 47.53C35.96 47.69 36.13 47.75 36.28 47.68L38.68 46.4C38.83 46.31 39.06 46.32 39.2 46.42L44.63 50.15C44.77 50.25 44.98 50.23 45.1 50.11L50.09 45.12C50.21 45 50.23 44.79 50.13 44.65L46.33 39.12C46.23 38.98 46.22 38.74 46.29 38.59L48.38 33.38C48.43 33.22 48.61 33.06 48.78 33.03L55.46 31.79C55.63 31.76 55.76 31.59 55.76 31.42V24.37C55.76 24.2 55.62 24.04 55.46 24" fill="#03CFE5"/>
</svg>
