<svg width="52" height="51" viewBox="0 0 52 51" fill="none" xmlns="http://www.w3.org/2000/svg">
<path fill-rule="evenodd" clip-rule="evenodd" d="M25.75 0.019989C11.52 0.019989 0 11.54 0 25.77C0 37.16 7.37001 46.79 17.6 50.2C18.89 50.43 19.37 49.65 19.37 48.98C19.37 48.37 19.34 46.34 19.34 44.18C12.87 45.37 11.2 42.6 10.68 41.15C10.39 40.41 9.14001 38.12 8.04001 37.51C7.14001 37.03 5.85001 35.84 8.01001 35.8C10.04 35.77 11.49 37.67 11.97 38.44C14.29 42.33 17.99 41.24 19.47 40.56C19.7 38.89 20.37 37.76 21.11 37.12C15.38 36.48 9.40002 34.26 9.40002 24.41C9.40002 21.61 10.4 19.29 12.04 17.49C11.78 16.85 10.88 14.21 12.3 10.67C12.3 10.67 14.46 9.99 19.38 13.31C21.44 12.73 23.63 12.44 25.82 12.44C28.01 12.44 30.2 12.73 32.26 13.31C37.18 9.96 39.34 10.67 39.34 10.67C40.76 14.21 39.85 16.85 39.6 17.49C41.24 19.29 42.24 21.58 42.24 24.41C42.24 34.29 36.22 36.48 30.49 37.12C31.42 37.92 32.23 39.47 32.23 41.88C32.23 45.32 32.2 48.09 32.2 48.96C32.2 49.64 32.68 50.44 33.97 50.18C44.14 46.77 51.51 37.11 51.51 25.75C51.51 11.52 39.99 0 25.76 0L25.75 0.019989Z" fill="black"/>
</svg>
