<svg width="83" height="83" viewBox="0 0 83 83" fill="none" xmlns="http://www.w3.org/2000/svg">
<path d="M54.2901 36.8C54.2901 36.8 54.2401 36.8 54.2201 36.8C54.2201 36.67 54.2201 36.54 54.2201 36.41C54.2201 31.37 50.1201 27.26 45.0701 27.26C43.0401 27.26 41.1201 27.91 39.5201 29.14C38.4001 30 37.4901 31.11 36.8701 32.36C35.8201 31.79 34.6401 31.48 33.4201 31.48C29.4401 31.48 26.2101 34.71 26.2101 38.69C26.2101 38.78 26.2101 38.86 26.2101 38.95C23.0501 39.2 20.5601 41.85 20.5601 45.07C20.5601 48.46 23.3201 51.21 26.7001 51.21H54.2801C58.2601 51.21 61.4901 47.98 61.4901 44C61.4901 40.02 58.2601 36.79 54.2801 36.79L54.2901 36.8Z" fill="black" stroke="black" stroke-linecap="round" stroke-linejoin="round"/>
<path d="M41.0302 74.36C59.6919 74.36 74.8202 59.2317 74.8202 40.57C74.8202 21.9083 59.6919 6.78003 41.0302 6.78003C22.3685 6.78003 7.24023 21.9083 7.24023 40.57C7.24023 59.2317 22.3685 74.36 41.0302 74.36Z" stroke="black" stroke-linecap="round" stroke-linejoin="round"/>
<path d="M0.5 81.56L81.56 0.5" stroke="black" stroke-linecap="round" stroke-linejoin="round"/>
</svg>
