<svg width="83" height="83" viewBox="0 0 83 83" fill="none" xmlns="http://www.w3.org/2000/svg">
<path d="M66.9498 41.5701C66.9498 41.5701 55.6698 52.58 41.7598 52.58C27.8498 52.58 16.5698 41.5701 16.5698 41.5701C16.5698 41.5701 27.8498 30.5601 41.7598 30.5601C55.6698 30.5601 66.9498 41.5701 66.9498 41.5701Z" fill="white" stroke="black" stroke-miterlimit="10"/>
<path d="M41.8399 50.69C46.8933 50.69 50.9899 46.5934 50.9899 41.54C50.9899 36.4866 46.8933 32.39 41.8399 32.39C36.7865 32.39 32.6899 36.4866 32.6899 41.54C32.6899 46.5934 36.7865 50.69 41.8399 50.69Z" fill="black"/>
<path d="M41.8398 30.81V24.47" stroke="black" stroke-miterlimit="10"/>
<path d="M59.6401 36.4101L63.0501 31.0701" stroke="black" stroke-miterlimit="10"/>
<path d="M51.5 32.33L53.63 26.36" stroke="black" stroke-miterlimit="10"/>
<path d="M23.7 36.4101L20.29 31.0701" stroke="black" stroke-miterlimit="10"/>
<path d="M31.8402 32.33L29.7002 26.36" stroke="black" stroke-miterlimit="10"/>
<path d="M41.0302 74.36C59.6919 74.36 74.8202 59.2317 74.8202 40.57C74.8202 21.9083 59.6919 6.78003 41.0302 6.78003C22.3685 6.78003 7.24023 21.9083 7.24023 40.57C7.24023 59.2317 22.3685 74.36 41.0302 74.36Z" stroke="black" stroke-linecap="round" stroke-linejoin="round"/>
<path d="M0.5 81.55L81.56 0.5" stroke="black" stroke-linecap="round" stroke-linejoin="round"/>
</svg>
