<svg width="58" height="55" viewBox="0 0 58 55" fill="none" xmlns="http://www.w3.org/2000/svg">
<path d="M28.7823 11.54C34.261 11.54 38.7023 8.95667 38.7023 5.76999C38.7023 2.58331 34.261 0 28.7823 0C23.3036 0 18.8623 2.58331 18.8623 5.76999C18.8623 8.95667 23.3036 11.54 28.7823 11.54Z" fill="#FF0B91"/>
<path d="M28.7823 55C34.261 55 38.7023 52.4166 38.7023 49.2299C38.7023 46.0433 34.261 43.46 28.7823 43.46C23.3036 43.46 18.8623 46.0433 18.8623 49.2299C18.8623 52.4166 23.3036 55 28.7823 55Z" fill="#FF0B91"/>
<path d="M14.9539 19.5147C17.6933 14.7701 17.6767 9.63209 14.917 8.03875C12.1572 6.44541 7.69933 9.00006 4.96 13.7447C2.22067 18.4894 2.23721 23.6273 4.99696 25.2207C7.75671 26.814 12.2146 24.2594 14.9539 19.5147Z" fill="#FF0B91"/>
<path d="M52.5926 41.2425C55.3319 36.4978 55.3154 31.3599 52.5556 29.7665C49.7959 28.1732 45.338 30.7278 42.5987 35.4725C39.8593 40.2172 39.8759 45.3551 42.6356 46.9485C45.3954 48.5418 49.8533 45.9872 52.5926 41.2425Z" fill="#FF0B91"/>
<path d="M15.1726 47.1652C17.945 45.5717 17.9724 40.4176 15.234 35.6534C12.4955 30.8891 8.02806 28.3187 5.25568 29.9122C2.4833 31.5058 2.45582 36.6598 5.19429 41.4241C7.93277 46.1884 12.4002 48.7588 15.1726 47.1652Z" fill="#FF0B91"/>
<path d="M52.5595 25.2158C55.3193 23.6224 55.3358 18.4844 52.5965 13.7398C49.8572 8.99512 45.3993 6.44049 42.6395 8.03383C39.8798 9.62717 39.8632 14.7651 42.6026 19.5098C45.3419 24.2544 49.7998 26.8091 52.5595 25.2158Z" fill="#FF0B91"/>
</svg>
