<svg width="41" height="40" viewBox="0 0 41 40" fill="none" xmlns="http://www.w3.org/2000/svg">
<path fill-rule="evenodd" clip-rule="evenodd" d="M20.4191 0C9.138 0 0 9.01937 0 20.154C0 29.0712 5.8477 36.6043 13.9659 39.2779C14.9857 39.4509 15.3681 38.8533 15.3681 38.3186C15.3681 37.8389 15.3442 36.2505 15.3442 34.5677C10.2135 35.5035 8.88307 33.3331 8.47676 32.2008C8.24572 31.6189 7.24986 29.8339 6.38147 29.3542C5.66445 28.9768 4.64467 28.041 6.35754 28.0175C7.96685 27.9939 9.11408 29.4801 9.49649 30.0855C11.3368 33.1366 14.2687 32.2794 15.4478 31.7447C15.623 30.4315 16.1648 29.5508 16.7464 29.0476C12.2053 28.5443 7.45698 26.8065 7.45698 19.0924C7.45698 16.8985 8.2457 15.09 9.55227 13.6745C9.34513 13.1713 8.63608 11.1032 9.75941 8.33525C9.75941 8.33525 11.4723 7.8084 15.376 10.4033C17.0093 9.94726 18.7461 9.71922 20.4828 9.71922C22.2196 9.71922 23.9564 9.94726 25.5896 10.4033C29.4933 7.78481 31.2062 8.33525 31.2062 8.33525C32.3295 11.1032 31.6125 13.1713 31.4133 13.6745C32.7119 15.0821 33.5086 16.875 33.5086 19.0924C33.5086 26.8301 28.7365 28.5443 24.1954 29.0476C24.9363 29.6766 25.5736 30.8876 25.5736 32.7748C25.5736 35.472 25.5497 37.6344 25.5497 38.3186C25.5497 38.8454 25.9322 39.4745 26.9519 39.2779C35.0144 36.6043 40.862 29.0476 40.862 20.154C40.862 9.01937 31.724 0 20.443 0H20.4191Z" fill="white"/>
</svg>
