<svg width="109" height="16" viewBox="0 0 109 16" fill="none" xmlns="http://www.w3.org/2000/svg">
<g clip-path="url(#clip0_416_25801)">
<path d="M86.2445 8.88642C86.2405 8.78358 86.2359 8.65768 86.23 8.51003C86.2234 8.36172 86.2122 8.22659 86.1957 8.10398L83.0824 10.9087C83.1273 11.1249 83.1919 11.3201 83.2775 11.4954C83.3632 11.6714 83.47 11.8197 83.5986 11.9423C83.7212 12.061 83.8675 12.1539 84.0376 12.2198C84.2083 12.2857 84.4014 12.3187 84.617 12.3187C84.9004 12.3187 85.1423 12.2607 85.344 12.1447C85.5444 12.0293 85.7066 11.8744 85.8285 11.6813C85.9768 11.4723 86.0823 11.2245 86.1456 10.9377C86.2075 10.6517 86.2405 10.3478 86.2445 10.0261V8.88642ZM86.1522 7.53974C86.1107 7.32089 86.0487 7.12182 85.9663 6.94385C85.8839 6.76455 85.7811 6.61097 85.6545 6.48243C85.5299 6.35323 85.3796 6.25502 85.2063 6.18515C85.0323 6.11659 84.8325 6.08166 84.6077 6.08166C84.3177 6.08166 84.0758 6.13637 83.8807 6.24579C83.6862 6.35521 83.5195 6.50814 83.381 6.70391C83.2433 6.90034 83.1404 7.14753 83.0745 7.44481C83.0093 7.74342 82.9756 8.04927 82.9756 8.36501V9.59568C82.9756 9.72158 82.9796 9.84682 82.9882 9.97206C82.9961 10.098 83.0119 10.2252 83.0337 10.3544L86.1522 7.53974ZM86.6907 11.0491C86.6024 11.3972 86.4679 11.7011 86.2873 11.9614C86.1107 12.2225 85.8839 12.4288 85.607 12.5817C85.3302 12.7346 85 12.8111 84.617 12.8111C84.3052 12.8111 84.025 12.7603 83.7772 12.6595C83.5293 12.5573 83.3171 12.409 83.1404 12.2126C82.8794 11.9423 82.6896 11.6081 82.5729 11.2106C82.4556 10.8138 82.3962 10.3873 82.3962 9.93383V8.46653C82.3962 8.07102 82.4411 7.6953 82.5314 7.34133C82.6217 6.98735 82.7588 6.68018 82.942 6.41981C83.1226 6.15878 83.3501 5.95444 83.6269 5.80612C83.9038 5.65847 84.2307 5.58398 84.6077 5.58398C84.9228 5.58398 85.2056 5.63738 85.4554 5.7435C85.7039 5.85029 85.9162 5.99794 86.0902 6.18778C86.3407 6.44881 86.5253 6.78103 86.6426 7.18444C86.7593 7.58851 86.8199 8.01631 86.8239 8.46653V9.93383C86.8239 10.3293 86.779 10.7018 86.6907 11.0491Z" fill="black"/>
<path d="M92.5464 12.7162V6.42577L90.5966 7.25632V6.7013L93.044 5.6875H93.1258V12.7162H92.5464Z" fill="black"/>
<path d="M102.065 8.88642C102.062 8.78358 102.057 8.65768 102.051 8.51003C102.044 8.36172 102.032 8.22659 102.017 8.10398L98.9025 10.9087C98.9474 11.1249 99.0133 11.3201 99.0983 11.4954C99.1833 11.6714 99.2901 11.8197 99.4187 11.9423C99.5413 12.061 99.6883 12.1539 99.8583 12.2198C100.029 12.2857 100.222 12.3187 100.438 12.3187C100.721 12.3187 100.964 12.2607 101.165 12.1447C101.365 12.0293 101.528 11.8744 101.65 11.6813C101.798 11.4723 101.903 11.2245 101.966 10.9377C102.028 10.6517 102.062 10.3478 102.065 10.0261V8.88642ZM101.973 7.53974C101.931 7.32089 101.869 7.12182 101.787 6.94385C101.705 6.76455 101.601 6.61097 101.476 6.48243C101.35 6.35323 101.2 6.25502 101.027 6.18515C100.853 6.11659 100.653 6.08166 100.429 6.08166C100.138 6.08166 99.8966 6.13637 99.7021 6.24579C99.507 6.35521 99.3402 6.50814 99.2024 6.70391C99.0634 6.90034 98.9619 7.14753 98.8953 7.44481C98.8294 7.74342 98.7971 8.04927 98.7971 8.36501V9.59568C98.7971 9.72158 98.801 9.84682 98.8089 9.97206C98.8162 10.098 98.832 10.2252 98.8551 10.3544L101.973 7.53974ZM102.511 11.0491C102.422 11.3972 102.289 11.7011 102.108 11.9614C101.931 12.2225 101.704 12.4288 101.427 12.5817C101.15 12.7346 100.821 12.8111 100.438 12.8111C100.126 12.8111 99.8458 12.7603 99.5979 12.6595C99.3501 12.5573 99.1378 12.409 98.9605 12.2126C98.7002 11.9423 98.511 11.6081 98.3936 11.2106C98.2757 10.8138 98.2177 10.3873 98.2177 9.93383V8.46653C98.2177 8.07102 98.2625 7.6953 98.3528 7.34133C98.4431 6.98735 98.5795 6.68018 98.7628 6.41981C98.9434 6.15878 99.1715 5.95444 99.4483 5.80612C99.7252 5.65847 100.051 5.58398 100.429 5.58398C100.744 5.58398 101.026 5.63738 101.276 5.7435C101.525 5.85029 101.736 5.99794 101.91 6.18778C102.161 6.44881 102.345 6.78103 102.463 7.18444C102.581 7.58851 102.641 8.01631 102.644 8.46653V9.93383C102.644 10.3293 102.6 10.7018 102.511 11.0491Z" fill="black"/>
<path d="M108.367 12.7162V6.42577L106.417 7.25632V6.7013L108.864 5.6875H108.947V12.7162H108.367Z" fill="black"/>
<path d="M3.84822 8.88642C3.84427 8.78358 3.83965 8.65768 3.83372 8.51003C3.82713 8.36172 3.81592 8.22659 3.79944 8.10398L0.686194 10.9087C0.731017 11.1249 0.795615 11.3201 0.881307 11.4954C0.966999 11.6714 1.07378 11.8197 1.20232 11.9423C1.32493 12.061 1.47126 12.1539 1.64133 12.2198C1.81205 12.2857 2.00519 12.3187 2.22074 12.3187C2.50418 12.3187 2.74609 12.2607 2.9478 12.1447C3.14819 12.0293 3.31034 11.8744 3.43229 11.6813C3.5806 11.4723 3.68607 11.2245 3.74935 10.9377C3.81131 10.6517 3.84427 10.3478 3.84822 10.0261V8.88642ZM3.75594 7.53974C3.71441 7.32089 3.65245 7.12182 3.57005 6.94385C3.48766 6.76455 3.38483 6.61097 3.25827 6.48243C3.13368 6.35323 2.98339 6.25502 2.81003 6.18515C2.63601 6.11659 2.43628 6.08166 2.21151 6.08166C1.92147 6.08166 1.67956 6.13637 1.48445 6.24579C1.28999 6.35521 1.12322 6.50814 0.984797 6.70391C0.847031 6.90034 0.7442 7.14753 0.678284 7.44481C0.613026 7.74342 0.579408 8.04927 0.579408 8.36501V9.59568C0.579408 9.72158 0.583363 9.84682 0.591933 9.97206C0.599843 10.098 0.615663 10.2252 0.637415 10.3544L3.75594 7.53974ZM4.29448 11.0491C4.20615 11.3972 4.07168 11.7011 3.89107 11.9614C3.71441 12.2225 3.48766 12.4288 3.21081 12.5817C2.93396 12.7346 2.60371 12.8111 2.22074 12.8111C1.90895 12.8111 1.6288 12.7603 1.38096 12.6595C1.13311 12.5573 0.920857 12.409 0.7442 12.2126C0.48317 11.9423 0.293329 11.6081 0.176657 11.2106C0.0593249 10.8138 0 10.3873 0 9.93383V8.46653C0 8.07102 0.0448234 7.6953 0.135129 7.34133C0.225435 6.98735 0.362542 6.68018 0.545791 6.41981C0.726403 6.15878 0.953816 5.95444 1.23067 5.80612C1.50752 5.65847 1.83446 5.58398 2.21151 5.58398C2.52659 5.58398 2.80937 5.63738 3.0592 5.7435C3.3077 5.85029 3.51996 5.99794 3.69398 6.18778C3.94446 6.44881 4.12903 6.78103 4.24636 7.18444C4.36303 7.58851 4.42368 8.01631 4.42763 8.46653V9.93383C4.42763 10.3293 4.38281 10.7018 4.29448 11.0491Z" fill="black"/>
<path d="M10.1501 12.7162V6.42577L8.20032 7.25632V6.7013L10.6478 5.6875H10.7295V12.7162H10.1501Z" fill="black"/>
<path d="M18.0609 12.7162V6.42577L16.1111 7.25632V6.7013L18.5586 5.6875H18.6403V12.7162H18.0609Z" fill="black"/>
<path d="M27.579 8.88837C27.5757 8.78554 27.5704 8.65964 27.5645 8.51198C27.5579 8.36367 27.5467 8.22854 27.5309 8.10594L24.417 10.9107C24.4618 11.1269 24.5271 11.322 24.6121 11.4974C24.6978 11.6734 24.8046 11.8217 24.9331 11.9443C25.0557 12.0629 25.202 12.1559 25.3728 12.2218C25.5428 12.2877 25.736 12.3207 25.9522 12.3207C26.2356 12.3207 26.4775 12.2626 26.6786 12.1466C26.879 12.0313 27.0418 11.8764 27.1637 11.6832C27.312 11.4743 27.4175 11.2264 27.4801 10.9397C27.5421 10.6536 27.5757 10.3497 27.579 10.0281V8.88837ZM27.4867 7.54169C27.4459 7.32284 27.3832 7.12378 27.3015 6.9458C27.2191 6.76651 27.1156 6.61292 26.9897 6.48438C26.8645 6.35519 26.7142 6.25697 26.5408 6.1871C26.3668 6.11855 26.1671 6.08361 25.9423 6.08361C25.6523 6.08361 25.4103 6.13832 25.2159 6.24774C25.0214 6.35716 24.854 6.51009 24.7162 6.70586C24.5778 6.9023 24.4756 7.14948 24.4097 7.44677C24.3438 7.74537 24.3109 8.05122 24.3109 8.36697V9.59763C24.3109 9.72353 24.3148 9.84878 24.3227 9.97402C24.3306 10.0999 24.3464 10.2271 24.3689 10.3563L27.4867 7.54169ZM28.0253 11.0511C27.9369 11.3991 27.8025 11.703 27.6219 11.9634C27.4459 12.2244 27.2184 12.4307 26.9416 12.5837C26.6647 12.7366 26.3345 12.8131 25.9522 12.8131C25.6397 12.8131 25.3602 12.7623 25.1117 12.6614C24.8646 12.5593 24.6523 12.411 24.475 12.2145C24.2146 11.9443 24.0248 11.6101 23.9081 11.2126C23.7901 10.8158 23.7314 10.3893 23.7314 9.93579V8.46848C23.7314 8.07298 23.7763 7.69725 23.8666 7.34328C23.9569 6.98931 24.0933 6.68213 24.2772 6.42176C24.4578 6.16073 24.6853 5.95639 24.9621 5.80808C25.239 5.66042 25.5659 5.58594 25.9423 5.58594C26.2574 5.58594 26.5402 5.63933 26.79 5.74546C27.0391 5.85224 27.2507 5.99989 27.4248 6.18974C27.6752 6.45077 27.8598 6.78299 27.9771 7.1864C28.0945 7.59047 28.1551 8.01827 28.1584 8.46848V9.93579C28.1584 10.3313 28.1143 10.7037 28.0253 11.0511Z" fill="black"/>
<path d="M45.6131 0.759806C42.7912 0.759806 40.332 3.75139 40.332 7.6815C40.332 11.6116 42.7912 14.6032 45.6131 14.6032C48.435 14.6032 50.8941 11.6116 50.8941 7.6815C50.8941 3.75139 48.435 0.759806 45.6131 0.759806Z" stroke="black" stroke-width="0.86" stroke-miterlimit="10" stroke-linecap="round" stroke-linejoin="round"/>
<path d="M51.3241 7.67969H74.043V14.9899" stroke="black" stroke-width="0.86" stroke-miterlimit="10" stroke-linecap="round" stroke-linejoin="round"/>
<path d="M64.8228 15.0293V7.71912" stroke="black" stroke-width="0.86" stroke-miterlimit="10" stroke-linecap="round" stroke-linejoin="round"/>
</g>
<defs>
<clipPath id="clip0_416_25801">
<rect width="109" height="15.4245" fill="white"/>
</clipPath>
</defs>
</svg>
