<svg width="391" height="165" viewBox="0 0 391 165" fill="none" xmlns="http://www.w3.org/2000/svg">
<g clip-path="url(#clip0_2592_19626)">
<path d="M207.143 56.4054H184.41V64.6443H207.143V56.4054Z" fill="black"/>
<path d="M236.077 78.7848H156.414V42.1057H236.077V78.7848ZM254.809 56.326H244.069V33.6997H199.773V22.9169H191.78V33.6997H148.422V56.326H136.118V64.5649H148.422V87.1756H244.069V64.5649H254.809V56.326Z" fill="black"/>
</g>
<path d="M56.9533 113.197H41.1166C39.8834 113.197 38.7354 113.516 37.6913 114.153C36.6658 114.779 35.8363 115.608 35.211 116.632C34.5736 117.677 34.2544 118.826 34.2544 120.059V141.723H40.9475V120.198C40.9475 120.13 40.9643 120.07 41.047 119.988C41.1291 119.906 41.1868 119.89 41.2559 119.89H56.9533V113.197Z" fill="black"/>
<path fill-rule="evenodd" clip-rule="evenodd" d="M82.9796 113.197C84.2384 113.197 85.4029 113.514 86.4514 114.153C87.3495 114.702 88.0937 115.408 88.6747 116.266L88.9134 116.642C89.5316 117.685 89.8419 118.831 89.8419 120.059V134.861C89.8418 136.09 89.5318 137.235 88.9134 138.278C88.3788 139.179 87.6805 139.929 86.8277 140.521L86.4514 140.767C85.4031 141.406 84.2385 141.723 82.9796 141.723H67.715C66.4818 141.723 65.3334 141.404 64.2896 140.767C63.3926 140.219 62.6449 139.516 62.0531 138.661L61.8094 138.286C61.1719 137.242 60.8511 136.094 60.8511 134.861V120.059C60.8511 118.826 61.1719 117.677 61.8094 116.632C62.4346 115.609 63.2643 114.779 64.2896 114.153C65.3336 113.516 66.482 113.197 67.715 113.197H82.9796ZM67.8542 119.89C67.7857 119.89 67.7263 119.905 67.6437 119.988C67.561 120.07 67.5458 120.13 67.5458 120.198V134.722C67.5458 134.79 67.5611 134.848 67.6437 134.931C67.7264 135.013 67.7856 135.03 67.8542 135.03H82.8404C82.8732 135.03 82.9008 135.027 82.9266 135.015L83.0062 134.952C83.0798 134.873 83.1023 134.808 83.1023 134.722V120.198C83.1023 120.112 83.0799 120.045 83.0062 119.966C82.9467 119.903 82.9055 119.89 82.8404 119.89H67.8542Z" fill="black"/>
<path fill-rule="evenodd" clip-rule="evenodd" d="M82.9796 113.197C84.2384 113.197 85.4029 113.514 86.4514 114.153C87.3495 114.702 88.0937 115.408 88.6747 116.266L88.9134 116.642C89.5316 117.685 89.8419 118.831 89.8419 120.059V134.861C89.8418 136.09 89.5318 137.235 88.9134 138.278C88.3788 139.179 87.6805 139.929 86.8277 140.521L86.4514 140.767C85.4031 141.406 84.2385 141.723 82.9796 141.723H67.715C66.4818 141.723 65.3334 141.404 64.2896 140.767C63.3926 140.219 62.6449 139.516 62.0531 138.661L61.8094 138.286C61.1719 137.242 60.8511 136.094 60.8511 134.861V120.059C60.8511 118.826 61.1719 117.677 61.8094 116.632C62.4346 115.609 63.2643 114.779 64.2896 114.153C65.3336 113.516 66.482 113.197 67.715 113.197H82.9796ZM67.8542 119.89C67.7857 119.89 67.7263 119.905 67.6437 119.988C67.561 120.07 67.5458 120.13 67.5458 120.198V134.722C67.5458 134.79 67.5611 134.848 67.6437 134.931C67.7264 135.013 67.7856 135.03 67.8542 135.03H82.8404C82.8732 135.03 82.9008 135.027 82.9266 135.015L83.0062 134.952C83.0798 134.873 83.1023 134.808 83.1023 134.722V120.198C83.1023 120.112 83.0799 120.045 83.0062 119.966C82.9467 119.903 82.9055 119.89 82.8404 119.89H67.8542Z" fill="black"/>
<path fill-rule="evenodd" clip-rule="evenodd" d="M151.207 113.197C152.466 113.197 153.631 113.514 154.679 114.153C155.577 114.702 156.321 115.408 156.902 116.266L157.141 116.642C157.759 117.685 158.07 118.831 158.07 120.059V134.861C158.07 136.09 157.76 137.235 157.141 138.278C156.607 139.179 155.908 139.929 155.056 140.521L154.679 140.767C153.631 141.406 152.466 141.723 151.207 141.723H135.943C134.71 141.723 133.561 141.404 132.517 140.767C131.62 140.219 130.873 139.516 130.281 138.661L130.037 138.286C129.4 137.242 129.079 136.094 129.079 134.861V120.059C129.079 118.826 129.4 117.677 130.037 116.632C130.662 115.609 131.492 114.779 132.517 114.153C133.561 113.516 134.71 113.197 135.943 113.197H151.207ZM136.082 119.89C136.013 119.89 135.954 119.905 135.871 119.988C135.789 120.07 135.774 120.13 135.774 120.198V134.722C135.774 134.79 135.789 134.848 135.871 134.931C135.954 135.013 136.013 135.03 136.082 135.03H151.068C151.101 135.03 151.129 135.027 151.154 135.015L151.234 134.952C151.308 134.873 151.33 134.808 151.33 134.722V120.198C151.33 120.112 151.308 120.045 151.234 119.966C151.174 119.903 151.133 119.89 151.068 119.89H136.082Z" fill="black"/>
<path fill-rule="evenodd" clip-rule="evenodd" d="M219.156 113.197C220.415 113.197 221.58 113.514 222.628 114.153C223.526 114.702 224.27 115.408 224.851 116.266L225.09 116.642C225.708 117.685 226.019 118.831 226.019 120.059V134.861C226.019 136.09 225.709 137.235 225.09 138.278C224.556 139.179 223.857 139.929 223.004 140.521L222.628 140.767C221.58 141.406 220.415 141.723 219.156 141.723H203.892C202.659 141.723 201.51 141.404 200.466 140.767C199.569 140.219 198.822 139.516 198.23 138.661L197.986 138.286C197.349 137.242 197.028 136.094 197.028 134.861V120.059C197.028 118.826 197.349 117.677 197.986 116.632C198.611 115.609 199.441 114.779 200.466 114.153C201.51 113.516 202.659 113.197 203.892 113.197H219.156ZM204.031 119.89C203.962 119.89 203.903 119.905 203.82 119.988C203.738 120.07 203.723 120.13 203.723 120.198V134.722C203.723 134.79 203.738 134.848 203.82 134.931C203.903 135.013 203.962 135.03 204.031 135.03H219.017C219.05 135.03 219.078 135.027 219.103 135.015L219.183 134.952C219.257 134.873 219.279 134.808 219.279 134.722V120.198C219.279 120.112 219.257 120.045 219.183 119.966C219.123 119.903 219.082 119.89 219.017 119.89H204.031Z" fill="black"/>
<path fill-rule="evenodd" clip-rule="evenodd" d="M102.283 104.408V113.197H117.717C118.976 113.197 120.14 113.514 121.188 114.153C122.087 114.702 122.831 115.408 123.412 116.266L123.651 116.642C124.268 117.685 124.579 118.83 124.579 120.059V134.861C124.579 136.09 124.268 137.234 123.651 138.276C123.116 139.178 122.417 139.928 121.563 140.521L121.188 140.767C120.14 141.406 118.976 141.723 117.717 141.723H95.5898V104.408H102.283ZM102.591 119.041C102.283 119.041 102.012 119.156 101.781 119.387C101.549 119.619 101.434 119.89 101.434 120.198V134.722C101.434 135.03 101.55 135.299 101.781 135.531C102.012 135.762 102.283 135.877 102.591 135.877H117.577C117.885 135.877 118.155 135.762 118.387 135.531C118.618 135.299 118.735 135.03 118.735 134.722V120.198C118.735 119.89 118.618 119.619 118.387 119.387C118.155 119.156 117.885 119.041 117.577 119.041H102.591Z" fill="black"/>
<path d="M188.676 114.153C187.627 113.514 186.464 113.197 185.204 113.197H163.077V141.723H169.771V120.198C169.771 120.13 169.787 120.07 169.87 119.988C169.952 119.906 170.01 119.89 170.079 119.89H185.065C185.133 119.89 185.192 119.906 185.274 119.988C185.357 120.07 185.373 120.13 185.373 120.198V141.723H192.067V120.059C192.067 118.83 191.756 117.685 191.138 116.642L190.899 116.266C190.318 115.408 189.575 114.702 188.676 114.153Z" fill="black"/>
<path d="M270.549 114.153C269.5 113.514 268.337 113.197 267.078 113.197H231.952V141.723H238.692V120.198C238.692 120.111 238.714 120.045 238.786 119.968L238.788 119.966C238.847 119.903 238.887 119.89 238.954 119.89H249.314C249.382 119.89 249.441 119.906 249.523 119.988L249.525 119.989C249.607 120.072 249.623 120.13 249.623 120.198V141.723H256.362V120.198C256.362 120.13 256.378 120.07 256.46 119.988C256.542 119.905 256.6 119.89 256.669 119.89H266.985C267.052 119.89 267.111 119.905 267.194 119.988C267.277 120.071 267.293 120.13 267.293 120.198V141.723H273.94V120.059C273.94 118.83 273.629 117.685 273.011 116.642L272.773 116.266C272.275 115.531 271.658 114.907 270.926 114.399L270.549 114.153Z" fill="black"/>
<path d="M286.568 141.723H279.874V113.197H286.568V141.723ZM286.568 111.101H279.874V104.408H286.568V111.101Z" fill="black"/>
<path d="M292.315 120.059V134.861C292.315 136.094 292.634 137.242 293.272 138.286C293.897 139.311 294.725 140.141 295.75 140.766C296.795 141.404 297.943 141.723 299.177 141.723H321.304V135.03H299.316C299.247 135.03 299.188 135.013 299.106 134.93C299.024 134.848 299.008 134.79 299.008 134.721V120.198C299.008 120.129 299.022 120.069 299.104 119.987L299.106 119.989C299.189 119.906 299.248 119.889 299.316 119.889H321.211V113.196H299.177C297.943 113.196 296.796 113.516 295.752 114.153C294.726 114.779 293.897 115.609 293.272 116.633C292.634 117.678 292.315 118.826 292.315 120.059Z" fill="black"/>
<path d="M349.089 135.03H334.103C334.034 135.03 333.975 135.013 333.893 134.93C333.81 134.848 333.795 134.79 333.795 134.721V133.319H327.102V134.861C327.102 136.094 327.421 137.241 328.058 138.286C328.684 139.311 329.512 140.141 330.537 140.766C331.582 141.404 332.73 141.723 333.964 141.723H349.229C350.488 141.723 351.652 141.406 352.7 140.766L353.075 140.521C353.929 139.928 354.628 139.179 355.162 138.278C355.781 137.235 356.091 136.09 356.091 134.861V130.974C356.091 129.72 355.783 128.56 355.162 127.513C354.55 126.482 353.722 125.653 352.69 125.041C351.644 124.42 350.483 124.112 349.229 124.112H334.103C334.035 124.112 333.976 124.097 333.893 124.014C333.81 123.932 333.795 123.874 333.795 123.805V120.198C333.795 120.129 333.809 120.069 333.891 119.987L333.893 119.989C333.976 119.906 334.035 119.889 334.103 119.889H349.089C349.155 119.889 349.195 119.902 349.255 119.966C349.329 120.045 349.351 120.111 349.351 120.198V121.6H356.091V120.059C356.091 118.83 355.781 117.685 355.162 116.641C354.552 115.612 353.727 114.78 352.7 114.153L352.301 113.929C351.359 113.44 350.331 113.196 349.229 113.196H333.964C332.73 113.196 331.583 113.516 330.539 114.153C329.513 114.779 328.684 115.609 328.058 116.633C327.421 117.678 327.102 118.826 327.102 120.059V123.945C327.102 125.204 327.418 126.368 328.058 127.416C328.685 128.443 329.517 129.268 330.547 129.879C331.59 130.497 332.735 130.807 333.964 130.807H349.089C349.155 130.807 349.195 130.819 349.255 130.883L349.33 130.996C349.345 131.033 349.351 131.071 349.351 131.114V134.721C349.351 134.808 349.328 134.873 349.255 134.952C349.196 135.016 349.156 135.03 349.089 135.03Z" fill="black"/>
<defs>
<clipPath id="clip0_2592_19626">
<rect width="118.841" height="64.5139" fill="white" transform="translate(136.118 22.9169)"/>
</clipPath>
</defs>
</svg>
