<svg width="44" height="40" viewBox="0 0 44 40" fill="none" xmlns="http://www.w3.org/2000/svg">
<path d="M1 35.5H0.5V36H1V35.5ZM43.8536 35.8536C44.0488 35.6583 44.0488 35.3417 43.8536 35.1464L40.6716 31.9645C40.4763 31.7692 40.1597 31.7692 39.9645 31.9645C39.7692 32.1597 39.7692 32.4763 39.9645 32.6716L42.7929 35.5L39.9645 38.3284C39.7692 38.5237 39.7692 38.8403 39.9645 39.0355C40.1597 39.2308 40.4763 39.2308 40.6716 39.0355L43.8536 35.8536ZM0.5 0V35.5H1.5V0H0.5ZM1 36H43.5V35H1V36Z" fill="black"/>
</svg>
