<svg width="231" height="29" viewBox="0 0 231 29" fill="none" xmlns="http://www.w3.org/2000/svg">
<g clip-path="url(#clip0_896_4767)">
<path d="M4.04128 8.30859C4.04128 6.32522 5.17706 4.23465 8.92779 4.23465C10.8032 4.23465 13.0219 4.8109 15.0689 6.0036L15.2406 2.46571C13.3653 1.62144 11.3182 1.1792 8.92779 1.1792C2.82625 1.1792 0.211309 4.44907 0.211309 8.4828C0.211309 16.0008 11.8069 16.7111 11.8069 21.7901C11.8069 23.7735 10.2881 25.864 6.70905 25.864C4.43748 25.864 2.21874 25.1136 0.475445 24.0013L0 27.5392C2.04705 28.5577 4.71482 28.9597 6.8015 28.9597C12.4276 28.9597 15.65 25.6362 15.65 21.5757C15.6368 14.4597 4.04128 13.4814 4.04128 8.30859ZM25.7797 11.1362C26.0834 10.962 26.6909 10.7878 28.0512 10.7878C30.3228 10.7878 31.2341 11.1898 31.2341 12.9052H34.3773C34.3773 12.4227 34.3773 11.8465 34.3377 11.4444C34.0339 8.79103 31.4982 7.86635 27.8927 7.86635C23.9307 7.86635 19.0442 10.962 19.0442 18.2656C19.0442 25.5692 22.7025 28.9731 27.8003 28.9731C30.019 28.9731 32.3831 28.4907 34.3377 27.1103L34.0735 24.0147C32.766 25.1136 30.3228 26.0517 28.7116 26.0517C25.8853 26.0517 22.7025 23.7601 22.7025 18.1316C22.7025 12.731 25.4363 11.364 25.7797 11.1362Z" fill="#EB6500"/>
<path d="M41.2188 8.40234H37.8643V28.437H41.2188V8.40234Z" fill="#EB6500"/>
<path d="M39.5151 0C38.3 0 37.3359 1.2329 37.3359 2.4256C37.3359 3.6183 38.3397 4.90481 39.5151 4.90481C40.6905 4.90481 41.7338 3.6183 41.7338 2.3854C41.7338 1.1525 40.6905 0 39.5151 0ZM62.4817 17.9977C62.4817 11.0559 60.6063 7.86645 54.5444 7.86645C49.4466 7.86645 45.7355 11.5786 45.7355 18.4801C45.7355 25.3817 49.6579 28.9598 54.6236 28.9598C58.3347 28.9598 60.3818 28.1155 62.1251 27.0568L61.861 23.9612C60.6855 25.0199 57.9782 26.0384 55.667 26.0384C51.52 26.0384 49.222 23.4251 49.222 18.6543V17.9977H62.4817ZM51.7181 11.3641C51.9426 11.1363 53.4218 10.7477 54.3331 10.7477C57.6084 10.7477 59.2988 11.4579 59.4309 15.3443H49.5786C49.9352 12.8249 51.454 11.6188 51.7181 11.3641ZM76.6922 7.86645C73.7339 7.86645 71.8981 9.36737 70.2869 11.3641L69.7586 8.4025H66.6682L66.8399 9.99723C66.972 11.0157 67.0116 12.3826 67.0116 13.9774V28.4372H70.3661V14.9824C71.2774 13.6959 73.2056 11.659 73.6414 11.4445C73.9452 11.2703 75.3451 10.9085 76.3884 10.9085C79.3996 10.9085 79.6637 12.4496 79.7429 15.5051C79.7826 17.0998 79.7826 19.7532 79.7826 19.7532C79.8222 23.7736 79.6505 28.4238 79.6505 28.4238H83.005C83.005 28.4238 83.0975 22.4067 83.0975 19.0966C83.0975 17.1132 83.1371 15.1165 82.9654 13.1197C82.622 9.01895 80.2184 7.86645 76.6922 7.86645ZM94.2572 11.1363C94.561 10.9621 95.1685 10.7879 96.5288 10.7879C98.8003 10.7879 99.7116 11.1899 99.7116 12.9053H102.855C102.855 12.4228 102.855 11.8466 102.815 11.4445C102.511 8.79113 99.9758 7.86645 96.3703 7.86645C92.4083 7.86645 87.5217 10.9621 87.5217 18.2657C87.5217 25.5693 91.18 28.9732 96.2779 28.9732C98.4966 28.9732 100.861 28.4908 102.815 27.1104L102.551 24.0148C101.244 25.1137 98.8003 26.0518 97.1891 26.0518C94.3497 26.0518 91.18 23.7602 91.18 18.1317C91.1536 12.7311 93.9006 11.3641 94.2572 11.1363ZM121.49 17.9977C121.49 11.0559 119.614 7.86645 113.552 7.86645C108.455 7.86645 104.743 11.5786 104.743 18.4801C104.743 25.3817 108.666 28.9598 113.632 28.9598C117.343 28.9598 119.39 28.1155 121.133 27.0568L120.869 23.9612C119.693 25.0199 116.986 26.0384 114.675 26.0384C110.528 26.0384 108.23 23.4251 108.23 18.6543V17.9977H121.49ZM110.726 11.3641C110.951 11.1363 112.43 10.7477 113.341 10.7477C116.616 10.7477 118.307 11.4579 118.439 15.3443H108.587C108.943 12.8249 110.462 11.6188 110.726 11.3641ZM136.228 1.71534H126.812V28.4238H135.832C145.42 28.4238 148.735 20.8119 148.735 14.9824C148.735 8.88494 145.513 1.71534 136.228 1.71534ZM135.225 25.5961H130.259V4.55638H135.66C142.766 4.55638 144.852 10.4395 144.852 14.9958C144.852 21.6696 141.894 25.5961 135.225 25.5961ZM155.352 0C154.137 0 153.173 1.2329 153.173 2.4256C153.173 3.6183 154.176 4.90481 155.352 4.90481C156.527 4.90481 157.584 3.6183 157.584 2.3854C157.584 1.1525 156.54 0 155.352 0Z" fill="#EB6500"/>
<path d="M157.055 8.40234H153.7V28.437H157.055V8.40234Z" fill="#EB6500"/>
<path d="M170.962 7.90675C168.823 7.90675 167.172 9.84991 166.472 11.5787L165.904 8.40259H162.813L162.985 9.99732C163.117 11.0158 163.157 12.3425 163.157 13.8836V28.4373H166.511V15.6928C167.211 13.9641 168.783 10.7344 170.698 10.7344C171.966 10.7344 172.098 12.0611 172.098 12.3693L174.845 11.5653V11.3642C174.845 11.3642 174.805 11.1364 174.766 10.8282C174.396 8.92524 173.22 7.90675 170.962 7.90675ZM191.657 17.9978C191.657 11.056 189.782 7.86655 183.72 7.86655C178.622 7.86655 174.911 11.5787 174.911 18.4802C174.911 25.3818 178.833 28.9599 183.799 28.9599C187.51 28.9599 189.557 28.1156 191.301 27.0569L191.036 23.9613C189.861 25.02 187.154 26.0385 184.842 26.0385C180.695 26.0385 178.384 23.4252 178.384 18.6544V17.9978H191.657ZM180.894 11.3642C181.118 11.1364 182.597 10.7478 183.509 10.7478C186.784 10.7478 188.474 11.458 188.606 15.3444H178.754C179.111 12.825 180.629 11.6189 180.894 11.3642ZM201.377 11.1364C201.681 10.9622 202.289 10.788 203.649 10.788C205.92 10.788 206.832 11.19 206.832 12.9054H209.975C209.975 12.4229 209.975 11.8467 209.935 11.4446C209.632 8.79122 207.109 7.86655 203.49 7.86655C199.528 7.86655 194.642 10.9622 194.642 18.2658C194.642 25.5694 198.3 28.9733 203.398 28.9733C205.63 28.9733 207.981 28.4909 209.935 27.1105L209.671 24.0149C208.364 25.1138 205.92 26.0519 204.309 26.0519C201.47 26.0519 198.3 23.7603 198.3 18.1318C198.287 12.7312 201.034 11.3642 201.377 11.1364ZM223.525 25.1138C222.31 25.5962 221.254 26.0385 220.21 26.0385C218.678 26.0385 218.124 25.154 218.124 22.9026V11.056H223.314V8.40259H218.124V3.04215H214.848V8.38919H211.269V11.0426H214.848V24.0015C214.848 27.5394 216.684 29.0001 219.246 29.0001C220.765 29.0001 222.601 28.4775 223.776 27.9414L223.525 25.1138ZM228.385 7.04908C226.946 7.04908 225.744 5.88318 225.744 4.40906C225.744 2.93494 226.946 1.76904 228.385 1.76904C229.825 1.76904 231 2.94834 231 4.42246C231 5.88318 229.825 7.04908 228.385 7.04908ZM228.385 2.35869C227.263 2.35869 226.351 3.25657 226.351 4.39566C226.351 5.53475 227.263 6.45943 228.385 6.45943C229.508 6.45943 230.419 5.53475 230.419 4.39566C230.419 3.25657 229.508 2.35869 228.385 2.35869ZM229.046 5.82958C228.927 5.70897 228.821 5.57496 228.715 5.42755L228.174 4.67708H227.963V5.84298H227.448V2.97514C227.738 2.97514 228.068 2.93494 228.319 2.93494C228.861 2.93494 229.402 3.14936 229.402 3.79261C229.402 4.18124 229.125 4.52967 228.755 4.63688C229.059 5.06572 229.349 5.46775 229.719 5.85638H229.046V5.82958ZM228.24 3.37718H227.949V4.23485H228.24C228.583 4.23485 228.808 4.16784 228.808 3.77921C228.821 3.45758 228.597 3.36378 228.24 3.37718Z" fill="#EB6500"/>
</g>
<defs>
<clipPath id="clip0_896_4767">
<rect width="231" height="29" fill="white"/>
</clipPath>
</defs>
</svg>
