<svg width="215" height="50" viewBox="0 0 215 50" fill="none" xmlns="http://www.w3.org/2000/svg">
<g clip-path="url(#clip0_882_1672)">
<path d="M29.0959 4.96231C25.6581 4.95559 22.3176 6.10308 19.6096 8.22089H19.5683L19.5104 8.27878C17.8486 9.58796 16.4762 11.2274 15.4797 13.0935C14.4833 14.9597 13.8845 17.0122 13.721 19.1214C13.721 19.5267 13.6631 19.9485 13.6631 20.3454C13.6586 22.3782 14.0568 24.3917 14.8347 26.2698C15.6126 28.1478 16.7548 29.8531 18.1954 31.2873L18.4766 31.5602C18.5048 31.5926 18.5352 31.623 18.5675 31.6512L18.766 31.8332L18.8735 31.9241L19.0638 32.0896L19.1796 32.1888L19.3698 32.3459L19.4856 32.4452L19.684 32.5941L19.7998 32.685L20.0066 32.8422L20.1224 32.9166L20.3622 33.0903L20.4449 33.1482L21.1148 33.5782L21.2058 33.6279L21.4622 33.7767L21.578 33.8429L21.8096 33.9752L21.9336 34.0414L22.1652 34.1572L22.2975 34.2233L22.5374 34.3309L22.6614 34.397L22.9178 34.5045L23.0253 34.5542L23.3313 34.6865H23.3975L23.7779 34.8354H23.8607L24.4975 35.0504L24.696 35.1083L25.2253 35.2572L25.4486 35.3068L25.9696 35.4308C26.0587 35.4426 26.147 35.4591 26.2343 35.4805L26.7305 35.5632H26.9952L27.4997 35.6293H27.7561H28.2854H28.5252H29.0545C30.1669 35.6303 31.276 35.5111 32.3627 35.2737H32.4537C32.6605 35.2737 32.859 35.1827 33.0657 35.1248H33.1732C33.38 35.0752 33.5785 35.009 33.777 34.9512H33.8928L34.48 34.7527L34.6206 34.6948L35.1582 34.4797L35.3401 34.397L35.8198 34.1737L36.0514 34.0579L36.4649 33.8346L36.7378 33.6775L37.1017 33.4707L37.3912 33.2805C37.4987 33.2143 37.6145 33.1482 37.7137 33.0737C40.4131 31.2143 42.4496 28.543 43.5275 25.4474C44.6053 22.3519 44.6685 18.9934 43.7078 15.8595C42.7471 12.7257 40.8125 9.97962 38.1849 8.02003C35.5573 6.06045 32.3736 4.98937 29.0959 4.96231ZM16.8225 17.4673C16.5743 17.6741 16.3097 17.8643 16.045 18.0462C16.3097 17.8643 16.5413 17.6741 16.8225 17.4673ZM16.9217 17.3763C17.1615 17.1613 17.4014 16.9463 17.6247 16.7064C17.3683 16.9463 17.1615 17.1613 16.9217 17.3681V17.3763ZM17.666 16.6485C18.9321 15.2596 19.7154 13.4987 19.8991 11.6283C19.9031 11.653 19.9031 11.6781 19.8991 11.7028C19.7027 13.5477 18.9201 15.2811 17.666 16.6485Z" fill="#E82629"/>
<path d="M44.5123 20.3703C44.5118 17.4822 43.7001 14.6524 42.1696 12.2032C40.6391 9.75403 38.4514 7.78403 35.8558 6.51768C33.2601 5.25133 30.361 4.73957 27.4887 5.04071C24.6164 5.34184 21.8864 6.44377 19.6098 8.22092H19.5685L19.5106 8.27881C18.3138 9.22176 17.2631 10.3366 16.3926 11.587H19.8993C19.9033 11.6117 19.9033 11.6368 19.8993 11.6614C19.7384 13.1512 19.1975 14.5747 18.3286 15.7955C17.4597 17.0163 16.2919 17.9935 14.937 18.6335L14.6806 18.7493H14.6393L14.3994 18.8485H14.3415L14.0603 19.0222L13.7543 19.1214C13.7543 19.5267 13.6964 19.9485 13.6964 20.3455C13.6876 22.3759 14.0805 24.3881 14.8527 26.266C15.6249 28.1439 16.761 29.8504 18.1956 31.2874C19.2614 29.8421 20.6521 28.6676 22.2554 27.8587C23.8587 27.0499 25.6297 26.6294 27.4255 26.6311C27.9789 26.6312 28.5316 26.6699 29.0796 26.7468V35.7948C30.1919 35.7957 31.3011 35.6765 32.3878 35.4391V27.7558C34.7324 28.8896 36.6263 30.7806 37.7636 33.1234C39.8439 31.7099 41.5466 29.8087 42.723 27.5856C43.8994 25.3626 44.5137 22.8854 44.5123 20.3703Z" fill="#E82629"/>
<path d="M1.29002 33.6941C0.53846 34.4731 0.0905363 35.4954 0.0272808 36.576C-0.0359747 37.6566 0.289616 38.7242 0.945151 39.5856C1.60069 40.447 2.54287 41.0453 3.60126 41.2723C4.65964 41.4993 5.76433 41.34 6.71547 40.8233V37.2918C5.5924 37.1594 4.51618 36.7649 3.57372 36.1399C2.63126 35.515 1.84897 34.6771 1.29002 33.6941Z" fill="#DFEDF6"/>
<path d="M1.29004 33.694C1.84899 34.677 2.63128 35.5149 3.57374 36.1398C4.5162 36.7648 5.59242 37.1593 6.71549 37.2917V32.8835C5.84586 32.4063 4.84332 32.2288 3.86271 32.3782C2.8821 32.5277 1.97799 32.9959 1.29004 33.7105V33.694Z" fill="#BDDBC5"/>
<path d="M0.364269 30.1542C0.363605 31.3941 0.682638 32.6133 1.29057 33.694C1.97852 32.9794 2.88263 32.5112 3.86323 32.3617C4.84384 32.2122 5.84639 32.3898 6.71602 32.8669V23.025C4.9659 23.2244 3.3506 24.0616 2.17886 25.3768C1.00711 26.6919 0.361091 28.3928 0.364269 30.1542Z" fill="#D7EACB"/>
<path d="M10.04 23.4221V36.8948C11.4144 36.3836 12.5996 35.4643 13.4365 34.2602C14.2734 33.0561 14.7219 31.6248 14.7219 30.1584C14.7219 28.6921 14.2734 27.2608 13.4365 26.0567C12.5996 24.8526 11.4144 23.9332 10.04 23.4221Z" fill="#D7EACB"/>
<path d="M19.6098 8.2209C19.1962 6.86335 18.4587 5.62677 17.4607 4.61778C16.4628 3.60878 15.2344 2.85765 13.8815 2.42916C12.5286 2.00066 11.0918 1.90765 9.6949 2.15815C8.29804 2.40865 6.98307 2.99515 5.86337 3.86706C4.74367 4.73898 3.85284 5.87015 3.26769 7.16305C2.68255 8.45594 2.42065 9.87176 2.50457 11.2884C2.5885 12.7051 3.01573 14.0801 3.74944 15.2948C4.48314 16.5096 5.50129 17.5277 6.71611 18.2613V8.27052H19.5106L19.5685 8.21263L19.6098 8.2209Z" fill="#8DC96F"/>
<path d="M16.3918 11.6283H10.04V19.4357C10.4344 19.4925 10.8325 19.5202 11.231 19.5184C12.0707 19.5176 12.906 19.3978 13.7121 19.1627C13.9232 16.4584 14.8479 13.8585 16.3918 11.6283Z" fill="#8DC96F"/>
<path d="M21.1976 4.42467C21.638 4.43289 22.0709 4.3097 22.441 4.07083C22.811 3.83195 23.1016 3.48823 23.2754 3.08353C23.4493 2.67882 23.4987 2.23149 23.4172 1.79861C23.3357 1.36573 23.1271 0.966942 22.818 0.653136C22.5089 0.339329 22.1133 0.124737 21.6817 0.0367435C21.2501 -0.0512496 20.8021 -0.00865232 20.3948 0.159099C19.9875 0.32685 19.6395 0.612148 19.395 0.978583C19.1506 1.34502 19.0209 1.77597 19.0225 2.21645C19.0224 2.79642 19.2505 3.35313 19.6575 3.76632C20.0645 4.1795 20.6177 4.41598 21.1976 4.42467Z" fill="#B6D7EC"/>
<path d="M32.387 45.7277H18.8564C20.6951 47.7967 23.2199 49.1311 25.9652 49.4848C28.7105 49.8385 31.491 49.1877 33.7941 47.6523C36.0972 46.1169 37.7675 43.8005 38.4968 41.1304C39.2262 38.4603 38.9655 35.6164 37.7628 33.1234C36.1346 34.2305 34.31 35.0165 32.387 35.4392V45.7277Z" fill="#B6D7EC"/>
<path d="M23.3396 34.6865L23.0336 34.5542L22.9261 34.5046L22.6697 34.3971L22.5457 34.3309L22.3306 34.2234L22.1983 34.1572L21.9667 34.0414L21.8427 33.9753L21.6111 33.8429L21.5036 33.7768L21.2472 33.6279L21.1562 33.5783L20.4863 33.1482L20.4036 33.0903L20.1638 32.9166L20.048 32.8422L19.8495 32.6851L19.7337 32.5941L19.5352 32.4452L19.4194 32.346L19.2292 32.1888L19.1134 32.0896L18.9232 31.9242L18.8157 31.8332L18.6172 31.6513C18.5848 31.623 18.5544 31.5926 18.5262 31.5603L18.1954 31.2874C17.0295 32.865 16.288 34.7155 16.0418 36.6616C15.7956 38.6078 16.053 40.5847 16.7894 42.4029H29.0628V35.7865C27.1281 35.7931 25.2092 35.4368 23.4058 34.7362L23.3396 34.6865Z" fill="#B6D7EC"/>
<path d="M32.3877 27.7559V35.4392H32.4787C32.6854 35.4392 32.8839 35.3482 33.0907 35.2903H33.1982C33.405 35.2407 33.6035 35.1745 33.802 35.1166H33.9177L34.5049 34.9181L34.6455 34.8602L35.1831 34.6452L35.3651 34.5625L35.8448 34.3392L36.0763 34.2234L36.4899 34.0001L36.7628 33.8429L37.1267 33.6362L37.4162 33.446C37.5237 33.3798 37.6395 33.3136 37.7387 33.2392C36.629 30.8572 34.7419 28.9235 32.3877 27.7559Z" fill="#A51E2B"/>
<path d="M27.4252 26.631C25.6294 26.6293 23.8584 27.0498 22.2551 27.8587C20.6518 28.6675 19.2611 29.842 18.1953 31.2873L18.4765 31.5602C18.5047 31.5926 18.5351 31.623 18.5675 31.6512L18.766 31.8331L18.8735 31.9241L19.0637 32.0895L19.1795 32.1888L19.3697 32.3459L19.4855 32.4451L19.684 32.594L19.7998 32.685L20.0066 32.8421L20.1223 32.9166L20.3622 33.0902L20.4449 33.1481L21.1148 33.5782L21.2058 33.6278L21.4622 33.7767L21.5779 33.8429L21.8095 33.9752L21.9336 34.0414L22.1652 34.1571L22.2975 34.2233L22.5373 34.3308L22.6614 34.397L22.9178 34.5045L23.0253 34.5541L23.3313 34.6865H23.3975L23.7779 34.8353H23.8606L24.4974 35.0504L24.6959 35.1083L25.2252 35.2571L25.4485 35.3067L25.9696 35.4308C26.0586 35.4425 26.147 35.4591 26.2342 35.4804L26.7305 35.5631H26.9951L27.4996 35.6293H27.756H28.2853H28.5252H29.0545V26.7468C28.5147 26.671 27.9703 26.6323 27.4252 26.631Z" fill="#A51E2B"/>
<path d="M14.0603 19.0222L14.3084 18.9395H14.3663L14.6062 18.8402H14.6475L14.9039 18.7244C16.2678 18.0767 17.4413 17.0876 18.3107 15.8531C19.1801 14.6186 19.7159 13.1804 19.8662 11.678H16.3926C14.858 13.9055 13.9393 16.499 13.7295 19.1959L14.0603 19.0222Z" fill="#7E1F19"/>
<path d="M55.6113 33.082V31.1302H57.0669C57.9684 31.1302 58.4647 30.8655 58.4647 29.2776V19.0221C58.4647 17.8808 58.1504 17.5417 56.8106 17.5417H55.6113V15.5651H73.0456V22.5454H71.1268C70.7298 18.9477 70.4155 17.5252 66.8758 17.5252H62.1864V23.0168H63.5924C65.172 23.0168 65.8916 22.1897 65.8916 20.089V19.7417H67.8186V28.5663H65.8916V27.9295C65.8916 25.7957 65.172 24.9769 63.5924 24.9769H62.1864V31.1302H67.4712C69.9028 31.1302 70.8539 29.6249 71.0937 25.6882H73.0456V33.082H55.6113Z" fill="#59595B"/>
<path d="M85.186 33.0821V30.9979H85.1364C84.7099 31.7976 84.0616 32.4572 83.2693 32.8973C82.4771 33.3374 81.5746 33.5394 80.6703 33.479C78.1891 33.479 76.7831 32.2385 76.7831 29.7821V23.5214C76.7831 22.7522 76.4689 22.4627 75.7328 22.4627H74.3682V20.7177H79.8846V29.4927C79.8728 29.7585 79.9181 30.0239 80.0175 30.2707C80.117 30.5176 80.2682 30.7403 80.4611 30.9237C80.6539 31.1071 80.8839 31.2471 81.1354 31.334C81.3869 31.421 81.6542 31.4531 81.9191 31.428C82.8004 31.3936 83.6338 31.0182 84.2434 30.3808C84.8529 29.7435 85.1909 28.8941 85.186 28.0122V23.5214C85.186 22.777 84.7394 22.4627 83.8958 22.4627H82.4484V20.7177H88.2874V30.2866C88.2874 31.0475 88.6017 31.337 89.7927 31.337H90.8513V33.0821H85.186Z" fill="#59595B"/>
<path d="M97.3936 22.7274H97.4432C98.5018 21.1395 99.3206 20.3207 100.751 20.3207C102.406 20.3207 103.952 21.3049 103.952 23.2319C103.979 23.5121 103.946 23.7948 103.857 24.0619C103.769 24.329 103.625 24.5747 103.436 24.7832C103.247 24.9917 103.016 25.1586 102.759 25.2731C102.502 25.3876 102.224 25.4473 101.942 25.4484C101.708 25.4737 101.472 25.45 101.247 25.3788C101.023 25.3076 100.816 25.1905 100.639 25.0349C100.463 24.8793 100.32 24.6886 100.222 24.475C100.123 24.2615 100.069 24.0296 100.065 23.7943C100.073 23.5748 100.125 23.3592 100.218 23.1601C100.311 22.961 100.442 22.7823 100.605 22.6345C100.767 22.4867 100.957 22.3727 101.164 22.2992C101.371 22.2257 101.591 22.1941 101.81 22.2064C101.662 22.0698 101.487 21.966 101.296 21.9019C101.105 21.8378 100.902 21.8147 100.702 21.8342C98.5349 21.8342 97.3936 24.0011 97.3936 25.9033V30.3197C97.3936 31.0806 97.7079 31.3701 98.4522 31.3701H100.106V33.0821H91.8027V31.337H93.2583C93.9944 31.337 94.317 31.0475 94.317 30.2866V23.5214C94.317 22.7522 93.9944 22.4627 93.2583 22.4627H91.8027V20.7177H97.4101L97.3936 22.7274Z" fill="#59595B"/>
<path d="M111.387 20.3207C115.348 20.3207 118.177 22.7026 118.177 26.9371C118.177 31.1716 115.348 33.5121 111.387 33.5121C107.425 33.5121 104.597 31.1385 104.597 26.9371C104.597 22.7357 107.417 20.3207 111.387 20.3207ZM111.387 31.7422C113.521 31.7422 114.629 30.0881 114.629 26.904C114.629 23.7199 113.521 22.0658 111.387 22.0658C109.253 22.0658 108.136 23.7199 108.136 26.904C108.136 30.0881 109.245 31.7422 111.387 31.7422Z" fill="#59595B"/>
<path d="M123.619 22.8845H123.677C124.052 22.1089 124.64 21.4559 125.372 21.002C126.104 20.548 126.951 20.3117 127.812 20.3207C131.484 20.3207 133.047 23.6289 133.047 26.9371C133.047 30.2453 131.484 33.5121 127.812 33.5121C126.985 33.5224 126.17 33.3183 125.445 32.9198C124.72 32.5212 124.111 31.9417 123.677 31.2377H123.603V35.8113C123.603 36.6384 123.834 36.9775 124.653 36.9775H126.307V38.7143H117.995V36.9775H119.451C120.278 36.9775 120.509 36.6053 120.509 35.8113V23.6289C120.509 22.8018 120.27 22.4627 119.451 22.4627H118.078V20.7177H123.619V22.8845ZM123.702 26.904C123.702 29.9393 125.025 31.4197 126.795 31.4197C128.3 31.4197 129.516 29.8648 129.516 26.904C129.516 23.5214 128.251 22.38 126.795 22.38C125.025 22.38 123.702 23.8687 123.702 26.904Z" fill="#59595B"/>
<path d="M138.117 27.2183C138.034 29.2776 138.671 31.5024 141.127 31.5024C143.03 31.5024 143.981 30.5182 144.328 28.6987H146.52C146.172 31.7092 144.345 33.479 140.838 33.479C136.703 33.479 134.577 31.1798 134.577 26.904C134.577 23.0417 137.058 20.2876 140.706 20.2876C145.039 20.2876 146.859 24.1747 146.569 27.1852L138.117 27.2183ZM143.03 25.4732C143.03 23.8191 142.525 22.165 140.648 22.165C138.77 22.165 138.167 23.8191 138.117 25.4732H143.03Z" fill="#59595B"/>
<path d="M155.775 33.082V31.1302H157.429C158.033 31.1302 158.563 30.9151 158.563 30.2287V18.4184C158.563 17.7319 158.033 17.5252 157.429 17.5252H155.775V15.5651H166.13C170.092 15.5651 172.366 17.3928 172.366 20.3785C172.366 23.6288 169.984 25.1588 166.444 25.1588H162.309V30.2287C162.309 30.9151 162.971 31.1302 163.583 31.1302H165.237V33.082H155.775ZM162.293 23.207H164.699C167.18 23.207 168.504 22.4379 168.504 20.4033C168.504 18.3688 167.445 17.5252 164.699 17.5252H162.293V23.207Z" fill="#59595B"/>
<path d="M179.561 30.2287C179.561 30.8655 180.198 31.1302 180.752 31.1302H182.406V33.082H174.136V31.1302H175.699C176.526 31.1302 176.832 30.8655 176.832 30.2287V18.4184C176.832 17.7898 176.41 17.5252 175.806 17.5252H174.152V15.5651H182.423L185.996 27.0114H186.045L190.065 15.5651H198.037V17.5252H196.259C195.656 17.5252 195.234 17.7898 195.234 18.4184V29.8648C195.234 30.6918 195.631 31.1302 196.367 31.1302H198.021V33.082H188.866V31.1302H190.611C191.322 31.1302 191.744 30.758 191.744 30.2287V18.1951H191.694L186.641 33.082H184.433L179.603 18.1951H179.545L179.561 30.2287Z" fill="#59595B"/>
<path d="M213.039 15.3005H214.917V22.5454H212.965C212.618 19.6673 211.137 17.3102 208.003 17.3102C204.116 17.3102 203.14 20.85 203.14 24.3153C203.14 27.7806 204.198 31.337 208.003 31.337C211.013 31.337 212.469 29.228 212.758 26.4243H215.033C214.71 31.0227 212.072 33.6113 207.449 33.6113C201.899 33.6113 198.996 29.6994 198.996 24.0755C198.996 19.1132 202.304 15.0441 207.763 15.0441C209.537 15.0983 211.234 15.7813 212.551 16.9711L213.039 15.3005Z" fill="#59595B"/>
</g>
<defs>
<clipPath id="clip0_882_1672">
<rect width="215" height="49.5817" fill="white"/>
</clipPath>
</defs>
</svg>
