<svg xmlns="http://www.w3.org/2000/svg" width="271.759" height="48.941" viewBox="0 0 271.759 48.941">
  <g id="Group_2580" data-name="Group 2580" transform="translate(-1613.263 -603.321)">
    <g id="Group_518" data-name="Group 518" opacity="0.8" style="mix-blend-mode: multiply;isolation: isolate">
      <path id="Path_467" data-name="Path 467" d="M1803.153,650.683c14.6.5,29.243,1.1,43.845.495,12.695-.524,25.359-1.592,38.024-2.584v-8.4l-3.483-.187-4.5,2.926h-2.468c-1.272,0,0,0-6.69-2.913-.007,0,0-.013,0-.013h-9.743v2.926l-2.25-6.527-5.4-6.526h0v-3.151h-4.5l-4.951,2.251-5.4-7.877-4.05,4.726h0l-4.951,2.25-4.951-2.25-7.2-10.352h-5.852l-2.25-5.852-5.4-6.3-4.5,3.151v5.4l-7.2.9h0l-4.5-3.151-7.652,7.652V621.1h0l-3.15,7.877-7.652-2.7-3.6,2.7-7.2-1.351-.942,2.356a2.13,2.13,0,0,1-3.407.786.05.05,0,0,0-.041-.011l-5.062.92-9,8.327-7.2,2.926h0l-5.111,5.759C1750.882,649.357,1777.02,649.791,1803.153,650.683Z" fill="#ff5a00"/>
      <path id="Path_468" data-name="Path 468" d="M1801.569,609.249s-.325,1.072,1.62,0,2.107,2.107,2.107,2.107v2.269l2.592,3.241h5.51l.81,4.234.941,3.545,2.3,4.536-2.3,11.162-1.913,4.071-1.459,5.671-.869.865c3.622.122,7.245.236,10.87.322l-3.195-5.886s-.486-1.459.324-1.945a11.429,11.429,0,0,0,1.945-1.782v-3.565l-.162-4.214,6.178-5.913-5.047-2.075-7.227-11.133-5.571.715-3.241-8.291-4.811-3.862-1.709,2.363,2.307,1.3Z" fill="#d12900"/>
      <path id="Path_469" data-name="Path 469" d="M1784.767,609.622l1,2.706-.5,1.053,1.23,1.053,3.565.891-.405,4.051-1.215,1.023.486,2.542,5.429,1.7,4.9,3.484,2.792,5.346,2.188,4.264-1.377-5.236-.972-3.4-3.565-2.824-2.431-2.6-2.674-.819-.486-3.4-2.188-.972,1.458-2.674.972-1.458,3.49-2.481-7.2.9Z" fill="#d12900"/>
      <path id="Path_470" data-name="Path 470" d="M1835.628,650.971l1.974.44c3.133-.032,6.266-.1,9.4-.233,5.544-.229,11.082-.563,16.616-.947l1.152-2.09,8.564-5.536-5.45-3.074-9.747.473v2.926l-2.25-6.527-5.4-6.526v-3.151h-4.5l-4.951,2.251-5.4-7.877v2.329l-.761,3.646,2.109,2.025,3.808,2.915,6.644.65-11.8,1.589-.435,1.814.435,1.671-.761,3.19v6.239l-1.862,2.35h6.482Z" fill="#d12900"/>
      <path id="Path_471" data-name="Path 471" d="M1767.624,638.742l-3.407,10.614.159.259q8.123.188,16.244.4l-2.71-4.14,4.486,4.188,1.708.048-1.819-2.373-1.7-4.456.648-2.512-5.591-9.965-1.676-1.825-7.652-2.7.578,1.213,1.62,1.368-.162,1.125-.324,2.521,3.484,3.322,1.783-.243-2.188,1.368Z" fill="#d12900"/>
    </g>
    <g id="Group_519" data-name="Group 519">
      <path id="Path_472" data-name="Path 472" d="M1807.57,637.762a.736.736,0,0,0-.156-.155c-.029-.03-.058-.064-.088-.091a.372.372,0,0,1-.065-.075.253.253,0,0,0-.154-.1c-.071-.022-.14-.038-.212-.067s-.123-.033-.185-.052a.614.614,0,0,0-.347-.037.212.212,0,0,0-.12.11c-.03.055-.054.135-.1.164a.458.458,0,0,0-.124.121.328.328,0,0,1-.154.113,1.528,1.528,0,0,0-.3.2.6.6,0,0,1-.154.068.5.5,0,0,0-.166.064c-.066.055-.059.2-.068.318a1.113,1.113,0,0,1-.032.184.293.293,0,0,0,0,.144.532.532,0,0,0,.176.272c.037.029.073.076.112.089a.2.2,0,0,1,.026.013v.011c.069,0,.141.028.209.026.1,0,.186-.037.281-.048s.179-.016.267-.027a.836.836,0,0,0,.249-.076c.071-.032.154.012.228,0a.993.993,0,0,0,.235-.1c.077-.037.162-.05.241-.084a.743.743,0,0,0,.115-.067h0a.443.443,0,0,1,.123-.134.383.383,0,0,0,.095-.18.893.893,0,0,1,.086-.187.44.44,0,0,0,.05-.2A.488.488,0,0,0,1807.57,637.762Z" fill="#8c4129"/>
      <path id="Path_473" data-name="Path 473" d="M1807.486,636.773a1.1,1.1,0,0,0,.287,1.263,2.733,2.733,0,0,0,1.946.74,5,5,0,0,0,1.933-.67.984.984,0,0,0,.677-1.844,4.146,4.146,0,0,1-.764-.4.84.84,0,0,0-.293-.193c-.176-.118-.352-.238-.533-.35a1.009,1.009,0,0,0-1.381.2c-.012.017-.023.035-.034.052-.279-.046-.556-.1-.83-.132A.972.972,0,0,0,1807.486,636.773Z" fill="#8c4129" fill-rule="evenodd"/>
      <path id="Path_474" data-name="Path 474" d="M1788.785,636.775a1.422,1.422,0,0,0-.752-.051,4.173,4.173,0,0,1-.989-.062,2.392,2.392,0,0,1-1.806-.841,3.536,3.536,0,0,0-2.945-1.386,2.033,2.033,0,0,0-1.469.868,3.967,3.967,0,0,1-1.016.758,6.279,6.279,0,0,0-.913.773,16.134,16.134,0,0,0-2.131,1.8,1.368,1.368,0,0,0,.352,2.2,6.666,6.666,0,0,0,1.421.693c.458.121.743.512,1.273.427.176-.028.277-.287.275-.5a5.8,5.8,0,0,1,1.056-.364,1.859,1.859,0,0,1,.9.1c.274.074.571.049.848.124a5.781,5.781,0,0,0,3.79-.181,8.943,8.943,0,0,0,1.8-.835,3.418,3.418,0,0,0,1.365-1.35C1790.453,637.571,1789.318,637.022,1788.785,636.775Z" fill="#8c4129"/>
      <path id="Path_475" data-name="Path 475" d="M1813.952,648.509V637.018a55.769,55.769,0,0,1-13.062,2.164c-2.495.079-5.041.747-7.515.641-2.715-.116-5.282-1.355-7.87-.493-2.188.728-4.482,1.778-6.8,1.9a14.8,14.8,0,0,1-5.574-1.054,24.7,24.7,0,0,0-2.982-.885c-1.066-.218-1.226.452-2.308.38-5.719-.377-11.781.581-17.491.108a43.77,43.77,0,0,0-8.534-.011c-1.48.167-3.429-2.39-4.861-1.967-1.309.386-2.529.964-3.812,1.416-5.425,1.908-11.261.9-16.793.119-1.578-.222-3.159-.442-4.747-.58-1.394-.12-2.792-.106-4.184-.217-2.933-.233-5.8-1.005-8.735-1.21a13,13,0,0,0-4.374.379c-1.141.3-2.26.7-3.4.986a16.441,16.441,0,0,1-7.411.029,51.84,51.84,0,0,0-7.962-1.4,9.758,9.758,0,0,0-3.782.514c-1.263.46-2.479,1.078-3.773,1.444a6.362,6.362,0,0,1-3.777.148,17.565,17.565,0,0,1-3.067-1.569,9.324,9.324,0,0,0-4.143-1.5c-1.453-.1-2.928,0-4.373-.2-2.636-.355-5.311-1.562-8-1.385-1.318.086-11.505,5.26-12.769,5.643l8.9,8.092Z" fill="#8c4129"/>
      <path id="Path_476" data-name="Path 476" d="M1706.641,632.714c-.262-.705-.968-1.131-1.413-1.666-.267-.321-.5-.676-.782-.979a2.645,2.645,0,0,1-.558-.784c-.276-.63-1.094-.945-1.622-1.173-.83-.358-1.664-.664-2.476-1.08-.718-.368-1.46-.582-2.191-.895a11.249,11.249,0,0,0-4.343-1.159,3.656,3.656,0,0,0-1.975.622,6.579,6.579,0,0,1-1.9,1.121,7.57,7.57,0,0,0-2.072.7,6.09,6.09,0,0,1-2.431.558,29.713,29.713,0,0,0-4.671.925,13.339,13.339,0,0,1-2.26.192,10.649,10.649,0,0,0-2.4.114c-1.052.3-1.549,1.55-2.111,2.483a8.535,8.535,0,0,1-1.122,1.447,1.989,1.989,0,0,0-.54,1.2,3.563,3.563,0,0,0,1.218,2.7c.377.33.656.8,1.108,1.016a1.745,1.745,0,0,1,.284.174.555.555,0,0,0-.025.091c.875.2,1.714.578,2.608.731,1.263.217,2.542.155,3.81.3,1.188.134,2.373.307,3.561.436a18.157,18.157,0,0,0,3.5-.023c1.043-.09,1.941.479,2.964.548a20.2,20.2,0,0,0,3.425-.272c1.144-.118,2.293-.015,3.44-.1a14.771,14.771,0,0,0,1.742-.275l.013-.01a7.349,7.349,0,0,1,2.105-.8,4.686,4.686,0,0,0,1.919-1.263,10.608,10.608,0,0,1,1.837-1.343,3.919,3.919,0,0,0,1.419-1.542A2.729,2.729,0,0,0,1706.641,632.714Z" fill="#8c4129"/>
      <path id="Path_477" data-name="Path 477" d="M1648.13,644.656c-.262-.706-.968-1.132-1.413-1.667-.267-.321-.5-.675-.782-.979a2.646,2.646,0,0,1-.558-.784c-.276-.629-1.095-.945-1.623-1.173-.83-.358-1.663-.664-2.475-1.08-.718-.367-1.46-.582-2.191-.9a11.268,11.268,0,0,0-4.343-1.159,3.653,3.653,0,0,0-1.975.622,6.584,6.584,0,0,1-1.9,1.121,7.627,7.627,0,0,0-2.072.7,6.083,6.083,0,0,1-2.43.559,29.52,29.52,0,0,0-4.672.925,13.317,13.317,0,0,1-2.259.191,10.657,10.657,0,0,0-2.4.114c-1.052.3-1.548,1.55-2.111,2.483a8.531,8.531,0,0,1-1.121,1.447,1.988,1.988,0,0,0-.54,1.2,3.559,3.559,0,0,0,1.218,2.7c.377.33.656.805,1.108,1.016a1.717,1.717,0,0,1,.284.175.527.527,0,0,0-.025.09c.875.2,1.714.578,2.607.731,1.263.217,2.543.155,3.811.3,1.188.134,2.373.307,3.561.436a18.157,18.157,0,0,0,3.5-.023c1.042-.09,1.941.48,2.964.549a20.3,20.3,0,0,0,3.424-.273c1.144-.118,2.294-.015,3.441-.1a14.771,14.771,0,0,0,1.742-.275l.013-.01a7.337,7.337,0,0,1,2.1-.8,4.683,4.683,0,0,0,1.918-1.263,10.684,10.684,0,0,1,1.837-1.343,3.921,3.921,0,0,0,1.42-1.542A2.727,2.727,0,0,0,1648.13,644.656Z" fill="#8c4129"/>
      <path id="Path_478" data-name="Path 478" d="M1656.217,634.89a1.388,1.388,0,0,0-.19-.348c-.036-.067-.067-.141-.1-.205a.588.588,0,0,1-.075-.164.463.463,0,0,0-.219-.245c-.111-.075-.223-.139-.333-.226s-.2-.122-.294-.187a1.123,1.123,0,0,0-.584-.242.382.382,0,0,0-.266.13c-.081.079-.164.2-.255.234a.8.8,0,0,0-.279.146.586.586,0,0,1-.326.116,2.782,2.782,0,0,0-.629.194,1.2,1.2,0,0,1-.3.04.9.9,0,0,0-.323.024c-.141.062-.208.324-.284.519a1.806,1.806,0,0,1-.15.3.546.546,0,0,0-.073.251.963.963,0,0,0,.164.565c.051.069.088.168.149.212a.258.258,0,0,1,.038.036l0,.02c.117.041.23.12.35.152.17.046.342.033.513.063s.319.064.479.091a1.582,1.582,0,0,0,.471-.005c.14-.019.261.1.4.115a1.806,1.806,0,0,0,.46-.057c.154-.025.309,0,.463-.021a1.332,1.332,0,0,0,.234-.058h0a.8.8,0,0,1,.284-.169.692.692,0,0,0,.258-.265,1.662,1.662,0,0,1,.247-.28.8.8,0,0,0,.191-.323A.879.879,0,0,0,1656.217,634.89Z" fill="#8c4129"/>
      <path id="Path_479" data-name="Path 479" d="M1658.372,636.613a.355.355,0,0,0,0-.1c0-.018,0-.038,0-.056a.115.115,0,0,1,0-.044.113.113,0,0,0-.018-.078c-.015-.029-.031-.056-.044-.087a.743.743,0,0,0-.04-.075.274.274,0,0,0-.1-.121.1.1,0,0,0-.072,0,.209.209,0,0,1-.083.02.194.194,0,0,0-.076,0,.138.138,0,0,1-.084-.014.676.676,0,0,0-.157-.033.279.279,0,0,1-.07-.027.234.234,0,0,0-.071-.034c-.038,0-.084.045-.123.077a.394.394,0,0,1-.068.047.14.14,0,0,0-.046.045.236.236,0,0,0-.032.14.249.249,0,0,0,.006.063l0,.012,0,0c.02.023.035.053.057.074a1.256,1.256,0,0,0,.1.074l.091.076a.38.38,0,0,0,.1.055c.032.012.044.052.071.072a.479.479,0,0,0,.1.042c.036.013.066.036.1.05a.285.285,0,0,0,.057.016h0a.2.2,0,0,1,.08,0,.163.163,0,0,0,.087-.026.381.381,0,0,1,.086-.03.2.2,0,0,0,.079-.046A.211.211,0,0,0,1658.372,636.613Z" fill="#8c4129"/>
      <path id="Path_480" data-name="Path 480" d="M1751.27,640.391a1.055,1.055,0,0,0,0-.306c0-.058.008-.12.006-.177a.519.519,0,0,1,.011-.138.348.348,0,0,0-.054-.247c-.047-.092-.1-.176-.139-.276s-.086-.155-.128-.236a.86.86,0,0,0-.3-.381.3.3,0,0,0-.228-.012.719.719,0,0,1-.26.063.627.627,0,0,0-.242-.007.453.453,0,0,1-.264-.043,2.158,2.158,0,0,0-.495-.1.932.932,0,0,1-.22-.086.687.687,0,0,0-.226-.1c-.118-.011-.262.14-.386.243a1.529,1.529,0,0,1-.215.147.419.419,0,0,0-.144.141.747.747,0,0,0-.1.441.777.777,0,0,0,.02.2.2.2,0,0,1,.012.039l-.009.011c.063.072.109.168.178.234.1.094.218.15.321.234s.191.162.288.24a1.2,1.2,0,0,0,.319.173c.1.039.138.165.225.226a1.391,1.391,0,0,0,.331.133c.113.041.209.114.319.159a1.051,1.051,0,0,0,.179.049h0a.646.646,0,0,1,.254-.007.534.534,0,0,0,.273-.081,1.272,1.272,0,0,1,.272-.1.611.611,0,0,0,.25-.146A.665.665,0,0,0,1751.27,640.391Z" fill="#8c4129"/>
      <path id="Path_481" data-name="Path 481" d="M1752.664,639.29a.341.341,0,0,0-.1,0c-.02,0-.042-.005-.061-.005a.164.164,0,0,1-.048-.005.118.118,0,0,0-.086.016,1.039,1.039,0,0,1-.1.044c-.031.012-.055.028-.083.042a.29.29,0,0,0-.135.1.1.1,0,0,0-.007.077c.007.03.025.066.019.09a.227.227,0,0,0-.005.083.149.149,0,0,1-.018.09.727.727,0,0,0-.041.168.335.335,0,0,1-.033.075c-.012.025-.035.046-.038.076s.045.091.079.135a.51.51,0,0,1,.049.075.14.14,0,0,0,.047.051.259.259,0,0,0,.151.04.256.256,0,0,0,.069-.005l.013,0,0,0c.026-.021.059-.036.083-.059s.054-.072.084-.107.058-.063.086-.1a.416.416,0,0,0,.063-.107c.015-.034.059-.046.081-.075a.485.485,0,0,0,.049-.112c.016-.038.042-.07.059-.107a.527.527,0,0,0,.019-.061h0a.21.21,0,0,1,0-.087.185.185,0,0,0-.025-.094.5.5,0,0,1-.031-.094.205.205,0,0,0-.047-.088A.235.235,0,0,0,1752.664,639.29Z" fill="#8c4129"/>
      <path id="Path_482" data-name="Path 482" d="M1735.488,634.2a1.719,1.719,0,0,0-.647-.556c-.357-.22-.624-.547-.995-.745-.659-.352-1.714-.094-2.453-.174a6.891,6.891,0,0,1-1.432-.237c-.465-.156-.905-.343-1.388-.455a5.49,5.49,0,0,0-4.69,1.765c-.642.663-1.341,1.267-2.043,1.865a20.575,20.575,0,0,0-1.9,1.589,1.875,1.875,0,0,0,0,3.022q.528.609,1.057,1.216a.433.433,0,0,0,.634.582,1.484,1.484,0,0,1,1-.048,2.753,2.753,0,0,0,1.093-.13c1-.182,1.953-.459,2.932-.713.926-.24,1.769-.673,2.7-.886,1-.229,1.971-.443,2.947-.767a3.575,3.575,0,0,0,1.716-1.3c.236-.33.394-.7.639-1.033a9.312,9.312,0,0,0,.707-1.008A1.939,1.939,0,0,0,1735.488,634.2Z" fill="#8c4129"/>
      <path id="Path_483" data-name="Path 483" d="M1661.693,637.759c-.026-.051-.057-.1-.084-.147l0-.009a.3.3,0,0,0-.134-.33,1.5,1.5,0,0,0-.214-.485.541.541,0,0,0-.831-.072c-.433-.24-1.119-.435-1.294.146-.1.332.267.565.619.693a.287.287,0,0,0,.154.189,5.84,5.84,0,0,1,1.075.6.31.31,0,0,0,.285.066l.009.005a.322.322,0,0,0,.425-.125A.51.51,0,0,0,1661.693,637.759Z" fill="#8c4129" fill-rule="evenodd"/>
      <path id="Path_484" data-name="Path 484" d="M1668.958,639.56c.065,0,.127,0,.192,0l.009.008a.354.354,0,0,0,.421.061,1.735,1.735,0,0,0,.621.073c.433-.062.448-.446.265-.856a.911.911,0,0,0,.108-1.495c-.372-.316-.728-.065-.956.236a.259.259,0,0,0-.257.049,4.166,4.166,0,0,1-.949.787.249.249,0,0,0-.14.267l-.009.006c-.14.123-.085.345.057.54A.824.824,0,0,0,1668.958,639.56Z" fill="#8c4129" fill-rule="evenodd"/>
      <path id="Path_485" data-name="Path 485" d="M1755.435,639.79c-.012-.085-.118-.137-.187-.164a1.348,1.348,0,0,0-.271-.07.108.108,0,0,0-.092-.068,1.218,1.218,0,0,0-.306.022,1.654,1.654,0,0,1-.383-.081,1.824,1.824,0,0,0-.477-.174.529.529,0,0,0-.228.044.32.32,0,0,0-.107,0,.225.225,0,0,0-.186.187c-.121.122-.159.271.029.392a1.1,1.1,0,0,0,.342.106.1.1,0,0,0,.066,0h0a6.212,6.212,0,0,1,.732.058c.216.006.428.059.645.047C1755.181,640.073,1755.469,640.007,1755.435,639.79Z" fill="#8c4129" fill-rule="evenodd"/>
      <path id="Path_486" data-name="Path 486" d="M1801.06,637.09a8.114,8.114,0,0,0-1.671.243.635.635,0,0,0-.569-.047,6.942,6.942,0,0,1-1.507.341c-.553.061-1.088-.055-1.644.055a.612.612,0,0,0-.494.4c-.4.112-.785.273-1.168.411a2.952,2.952,0,0,1-1.293.3.738.738,0,0,0-.738.736.72.72,0,0,0,.584.705.66.66,0,0,0,.665.426,17.083,17.083,0,0,0,2.156-.133,3.4,3.4,0,0,0,1.866-.62,33.35,33.35,0,0,0,4.009-1.366C1801.973,638.24,1801.959,637.059,1801.06,637.09Z" fill="#8c4129" fill-rule="evenodd"/>
      <path id="Path_487" data-name="Path 487" d="M1644.758,634.595h-.028a.331.331,0,0,0-.22-.355,4.85,4.85,0,0,0-1.346-.086,3.907,3.907,0,0,0-1.438.019.328.328,0,0,0-.195.477c.251.455.993.442,1.437.5.292.039.552.169.838.233a1.656,1.656,0,0,0,1.117-.184A.327.327,0,0,0,1644.758,634.595Z" fill="#8c4129" fill-rule="evenodd"/>
      <path id="Path_488" data-name="Path 488" d="M1709.326,638.086a1.74,1.74,0,0,0-.724-.616,2.188,2.188,0,0,0-.935-.278,1.088,1.088,0,0,0-.417.056c-.1-.037-.195-.071-.284-.109a.3.3,0,0,0-.378.287c.005.169-.178.348-.243.5l-.008.022c-.086.089-.172.177-.259.257a.3.3,0,0,0-.062.078.3.3,0,0,0,.01.571c.391.062.775.149,1.17.187a7.7,7.7,0,0,0,1.176.007C1708.9,639.022,1709.638,638.735,1709.326,638.086Z" fill="#8c4129" fill-rule="evenodd"/>
    </g>
  </g>
</svg>
