<svg xmlns="http://www.w3.org/2000/svg" width="79.476" height="48.52" viewBox="0 0 79.476 48.52">
  <path id="Path_496" data-name="Path 496" d="M1159.314,433.1l1.624-1.036c-2.216-3.294-6.9-4.31-6.9-8.859l-5.224-.5,1.807-1.1c-.312-.15-.49-.308-.673-.313-6.606-.179-12.745,1.983-18.916,3.885-4.142,1.277-8.156,2.971-12.306,4.213a63.83,63.83,0,0,1-7.466,1.346l-.262-.613,2.561-2.219-1.567-.5,23.3-12.048-.008-.352h-3.852c.09-.414.074-.619.154-.669,9.6-6.032,19.08-12.285,28.889-17.966,4.411-2.555,8.806-4.933,12.743-8.263,5.021-4.246,8.285-3.953,13.385.278,1.22,1.013,2.422,2.047,3.87,3.272a10.655,10.655,0,0,1-1.163.513,11.625,11.625,0,0,0-8.612,8.874c-1.881,7.495-6.79,12.17-13.7,15.115a36.681,36.681,0,0,0-4.839,2.561c-3.526,2.177-4.228,6.034-1.371,9.065,1.67,1.77,3.92,3,5.928,4.444a5.125,5.125,0,0,1,1.535,1.3c-1.476-.128-2.953-.362-4.428-.353-1.429.007-2.856.264-4.284.411Z" transform="translate(-1111 -385.059)" fill="#1d1d1b"/>
</svg>
