<svg xmlns="http://www.w3.org/2000/svg" xmlns:xlink="http://www.w3.org/1999/xlink" width="193.499" height="213.587" viewBox="0 0 193.499 213.587">
  <defs>
    <clipPath id="clip-path">
      <ellipse id="Ellipse_220" data-name="Ellipse 220" cx="11.864" cy="11.412" rx="11.864" ry="11.412" transform="matrix(0.637, -0.771, 0.771, 0.637, 934.223, 2721.057)" fill="none"/>
    </clipPath>
  </defs>
  <g id="Group_2013" data-name="Group 2013" transform="translate(-884.843 -2662.493)">
    <g id="Group_1983" data-name="Group 1983">
      <rect id="Rectangle_269" data-name="Rectangle 269" width="41.213" height="53.383" transform="translate(921.352 2709.214)" fill="none" stroke="#027cb2" stroke-linecap="round" stroke-linejoin="round" stroke-width="1"/>
      <line id="Line_66" data-name="Line 66" x2="29.091" transform="translate(927.413 2718.501)" fill="none" stroke="#027cb2" stroke-linecap="round" stroke-linejoin="round" stroke-width="1"/>
      <line id="Line_67" data-name="Line 67" x2="29.091" transform="translate(927.413 2726.304)" fill="none" stroke="#027cb2" stroke-linecap="round" stroke-linejoin="round" stroke-width="1"/>
      <line id="Line_68" data-name="Line 68" x2="29.091" transform="translate(927.413 2734.107)" fill="none" stroke="#027cb2" stroke-linecap="round" stroke-linejoin="round" stroke-width="1"/>
      <line id="Line_69" data-name="Line 69" x2="29.091" transform="translate(927.413 2741.91)" fill="none" stroke="#027cb2" stroke-linecap="round" stroke-linejoin="round" stroke-width="1"/>
    </g>
    <g id="Group_1985" data-name="Group 1985">
      <path id="Path_1996" data-name="Path 1996" d="M1024.163,2743.87s1.91.491,2.248-.341-.186-1.208-.618-1.558-1.724.237-1.662.575S1023.855,2743.717,1024.163,2743.87Z" fill="#535974" stroke="#000" stroke-linecap="round" stroke-linejoin="round" stroke-width="1"/>
      <path id="Path_1997" data-name="Path 1997" d="M1020.257,2745.412s5.449-.507,4.817-2.242-3.122-.432-3.122-.432-2.824.773-2.773,1.361A1.7,1.7,0,0,0,1020.257,2745.412Z" fill="#b5bee2" stroke="#000" stroke-linecap="round" stroke-linejoin="round" stroke-width="1"/>
      <path id="Path_1998" data-name="Path 1998" d="M1026.334,2743.454s5.152-2.886,3.9-4.235c-.9-.965-2.547.61-2.982.961s-2.183,1.9-1.876,2.4S1025.961,2743.574,1026.334,2743.454Z" fill="#b5bee2" stroke="#000" stroke-linecap="round" stroke-linejoin="round" stroke-width="1"/>
      <g id="Group_1984" data-name="Group 1984">
        <path id="Path_1999" data-name="Path 1999" d="M1020.565,2745.194c.272-.592.494-1.527-1.077-1.788a1.307,1.307,0,0,0-.616,2.528A1.231,1.231,0,0,0,1020.565,2745.194Z" fill="#535974" stroke="#000" stroke-linecap="round" stroke-linejoin="round" stroke-width="1"/>
        <path id="Path_2000" data-name="Path 2000" d="M1019.8,2743.513l-.295,2.565a2.728,2.728,0,0,1-.52-.092,19.627,19.627,0,0,1,.347-2.588S1019.706,2743.357,1019.8,2743.513Z" fill="#42475f" stroke="#000" stroke-linecap="round" stroke-linejoin="round" stroke-width="1"/>
      </g>
    </g>
    <path id="Path_2001" data-name="Path 2001" d="M1017.267,2754.61c1.375-.269,6.463-9.742,6.182-11.5-.156-.976-6.575-2.973-9.492-2.74s-2.4,6.044-3.329,11.719C1010.393,2753.523,1015.893,2754.879,1017.267,2754.61Z" fill="#b5bee2" stroke="#000" stroke-linecap="round" stroke-linejoin="round" stroke-width="1"/>
    <path id="Path_2002" data-name="Path 2002" d="M1006.467,2854.161s-4.492,7.986-2.995,10.482,2.995,2.995,8.486,2.995,20.465,5.491,17.969-1-9.484-12.479-14.475-12.978A29.093,29.093,0,0,0,1006.467,2854.161Z" fill="#faaf3b" stroke="#000" stroke-linecap="round" stroke-linejoin="round" stroke-width="1"/>
    <path id="Path_2003" data-name="Path 2003" d="M1044.591,2796s23.449-3.908,26.38-3.908,4.885,4.885,1.465,5.862-10.529,5.982-12.212,9.77c-1.954,4.4-7.328,7.328-11.725,3.908s-10.747-9.77-10.747-9.77Z" fill="#ea982d" stroke="#000" stroke-linecap="round" stroke-linejoin="round" stroke-width="1"/>
    <path id="Path_2004" data-name="Path 2004" d="M892.176,2673.874s-11.724,8.794-4.4,26.868,16.609,86.955,16.121,109.427c-.523,24.055-3.908,44.454.977,48.85s10.747,4.4,12.7-5.862c2.847-14.945.068-75.688-2.409-89.87s-18.29-72.372-16.734-77.473,68.92-6.331,70.655,9.917.758,140.817.758,140.817,14.656,0,15.633-5.862.488-148.507-15.633-158.277S913.182,2656.777,892.176,2673.874Z" fill="#f2c76d" stroke="#000" stroke-linecap="round" stroke-linejoin="round" stroke-width="1"/>
    <path id="Path_2005" data-name="Path 2005" d="M917.09,2816.519s-7.327-96.236-19.051-117.242c-12.217-21.888,27.356-31.753,40.057-30.288,12.142,1.4,30.288,5.374,35.173,26.868,4.657,20.489,11.236,93.306,3.908,97.7S923.441,2823.847,917.09,2816.519Z" fill="#fd3704" stroke="#000" stroke-linecap="round" stroke-linejoin="round" stroke-width="1"/>
    <path id="Path_2006" data-name="Path 2006" d="M977.222,2760.809s47.173,8.847,48.317,14.187-.391,59.5-5.373,60.087c-12.967,1.525-2.49-49.541-4.4-53.737s-42.742-12.909-43.505-16.341S975.315,2760.428,977.222,2760.809Z" fill="#f2c76d" stroke="#000" stroke-linecap="round" stroke-linejoin="round" stroke-width="1"/>
    <path id="Path_2007" data-name="Path 2007" d="M982.062,2769.622s23.449,4.885,28.822-.977c2.334-2.546,12.159-14.075,9.717-15.54s-9.688-4.792-11.642-3.326-10.288,10.073-10.288,10.073c-2.62-.265-15.632-20.517-17.586-19.54S980.108,2768.645,982.062,2769.622Z" fill="#ff0" stroke="#000" stroke-linecap="round" stroke-linejoin="round" stroke-width="1"/>
    <path id="Path_2008" data-name="Path 2008" d="M977.666,2756.921s-1.151,32.158,3.821,31.467c2.83-.393,30.723-1.4,31.84-2.645.845-.942-16.61-12.7-19.541-17.1-3.533-5.3-7.464-25.185-11.06-27.98S977.666,2756.921,977.666,2756.921Z" fill="#ff0" stroke="#000" stroke-linecap="round" stroke-linejoin="round" stroke-width="1"/>
    <path id="Path_2009" data-name="Path 2009" d="M917.09,2816.519s-2.442,6.839.489,12.213c4.643,8.513,37.615,12.7,52.759,13.678,16.205,1.046,60.575-11.724,55.69-18.563s-25.989-20.042-38.1-22.472S917.7,2814.81,917.09,2816.519Z" fill="#fd3704" stroke="#000" stroke-linecap="round" stroke-linejoin="round" stroke-width="1"/>
    <path id="Path_2010" data-name="Path 2010" d="M917.09,2816.519c0,2.443,43.325,9.673,52.759,12.213,12.7,3.419,58.525-12.971,53.736-19.54s-29.8-12.213-43.965-12.7S917.09,2814.077,917.09,2816.519Z" fill="#fc6732" stroke="#000" stroke-linecap="round" stroke-linejoin="round" stroke-width="1"/>
    <path id="Path_2011" data-name="Path 2011" d="M931.285,2750.891s-9.31,56.835,15.116,64.163,42.744-9.526,38.836-32.486-5.617-35.417-8.708-35.4C949.521,2747.361,931.285,2750.891,931.285,2750.891Z" fill="#fff" stroke="#000" stroke-linecap="round" stroke-linejoin="round" stroke-width="1"/>
    <g id="Group_1992" data-name="Group 1992">
      <path id="Path_2012" data-name="Path 2012" d="M974.386,2698.958c6,7.3-.092,15.485,5.26,40.787,1.5,7.091-45.619,9.524-45.429,2.279.194-7.339-8.479-37.5-.532-42.366S971.644,2695.622,974.386,2698.958Z" fill="#b5bee2" stroke="#000" stroke-linecap="round" stroke-linejoin="round" stroke-width="1"/>
      <path id="Path_2013" data-name="Path 2013" d="M972.292,2726.145s-1.363,6.912-7.328,3.42" fill="none" stroke="#000" stroke-linecap="round" stroke-linejoin="round" stroke-width="1"/>
      <path id="Path_2014" data-name="Path 2014" d="M977.373,2712.165s-.974-2.919-5.677-1.784-5.839-1.946-7.136-.324,2.432,4.217,6.487,3.244S977.859,2714.436,977.373,2712.165Z" fill="#282b38" stroke="#000" stroke-linecap="round" stroke-linejoin="round" stroke-width="1"/>
      <path id="Path_2015" data-name="Path 2015" d="M953.848,2708.411s-7.008-5.533-12.456-2.541-6.226,5.322-6.282,6.957,4.826-2.384,6.212-3.492,9.365,4.217,12.969,3.04S956.787,2706.971,953.848,2708.411Z" fill="#282b38" stroke="#000" stroke-linecap="round" stroke-linejoin="round" stroke-width="1"/>
      <path id="Path_2016" data-name="Path 2016" d="M980.72,2696.908s6.163-11.678.973-14.273-14.759-2.433-24.977.487-27.694,8.449-30.816,5.514c-8.11-7.623-5.515,16.219-1.947,22.22s5.067,14.759,2.634,16.219,6.279,7.224,6.085,1.044c-.025-.826-3.529-23.588,1.013-26.183S976.7,2707.069,980.72,2696.908Z" fill="#545974" stroke="#000" stroke-linecap="round" stroke-linejoin="round" stroke-width="1"/>
      <rect id="Rectangle_270" data-name="Rectangle 270" width="2.977" height="3.406" transform="translate(951.135 2719.429) rotate(180)" stroke="#000" stroke-linecap="round" stroke-linejoin="round" stroke-width="1"/>
      <g id="Group_1989" data-name="Group 1989" opacity="0.22">
        <ellipse id="Ellipse_219" data-name="Ellipse 219" cx="11.864" cy="11.412" rx="11.864" ry="11.412" transform="matrix(0.637, -0.771, 0.771, 0.637, 934.223, 2721.057)" fill="#2ea0da" stroke="#000" stroke-linecap="round" stroke-linejoin="round" stroke-width="1"/>
        <g id="Group_1988" data-name="Group 1988">
          <g id="Group_1987" data-name="Group 1987" clip-path="url(#clip-path)">
            <g id="Group_1986" data-name="Group 1986">
              <path id="Path_2017" data-name="Path 2017" d="M950.772,2706.889l11.42,11.959-1.284,4.968-14.051-15.641Z" fill="#8fd2eb"/>
              <path id="Path_2018" data-name="Path 2018" d="M940.192,2713.9l17.058,15.02-1.463,1.021-16.21-14.45Z" fill="#8fd2eb"/>
              <path id="Path_2019" data-name="Path 2019" d="M939.536,2716.829l13.438,14.682-3.313.142-9.867-13.556Z" fill="#8fd2eb"/>
            </g>
          </g>
        </g>
      </g>
      <path id="Path_2020" data-name="Path 2020" d="M954.283,2749.45s2.316-3.444-.066-5.23c-3.908-2.931-19.463-3.174-20.193-3.741s-7.145,12.939-7.145,12.939,27.833,7.956,28.968,7.145S954.932,2750.909,954.283,2749.45Z" fill="#fff" stroke="#000" stroke-linecap="round" stroke-linejoin="round" stroke-width="1"/>
      <path id="Path_2021" data-name="Path 2021" d="M979.585,2739.17s4.179,9.791,2.719,11.737-11.394,5.214-11.394,5.214.92-13.086,2.7-14.87S979.585,2739.17,979.585,2739.17Z" fill="#fff" stroke="#000" stroke-linecap="round" stroke-linejoin="round" stroke-width="1"/>
      <path id="Path_2022" data-name="Path 2022" d="M968.191,2744.107c.518-.661,3.277-4.953,6.291-2.793s1.382,17.326-1.7,19.515-8.37,9.017-8.365.682S968.191,2744.107,968.191,2744.107Z" fill="#ea5b27" stroke="#000" stroke-linecap="round" stroke-linejoin="round" stroke-width="1"/>
      <path id="Path_2023" data-name="Path 2023" d="M958.533,2744.849s-2.652-3.784-5.372-1.091,2.541,16.215,4.476,18.537c2.442,2.931,7.871,4.434,7.327-.489S958.533,2744.849,958.533,2744.849Z" fill="#ea5b27" stroke="#000" stroke-linecap="round" stroke-linejoin="round" stroke-width="1"/>
      <path id="Path_2024" data-name="Path 2024" d="M956.04,2742.989s5.794-5.407,12.756-2.629c3.9,1.557,5.221,21.148,2.7,24.317s-4.793,5.328-8.2,1.23S958.572,2744.181,956.04,2742.989Z" fill="#ea5b27" stroke="#000" stroke-linecap="round" stroke-linejoin="round" stroke-width="1"/>
      <rect id="Rectangle_271" data-name="Rectangle 271" width="2.977" height="2.276" transform="translate(970.259 2719.329) rotate(180)" stroke="#000" stroke-linecap="round" stroke-linejoin="round" stroke-width="1"/>
      <path id="Path_2025" data-name="Path 2025" d="M943.71,2706.608c3.869-1.36,14.115-1.1,16.94,3.41,0,0,8.485,11.035-.993,19.554s-19.068,1.6-21.115-6.061S939.84,2707.968,943.71,2706.608Zm-1.913,15.665c1.584,5.935,9.011,11.289,16.349,4.693s.769-15.141.769-15.141c-2.187-3.489-10.121-3.693-13.117-2.64S940.212,2716.339,941.8,2722.273Z" fill="#f8af3c" stroke="#000" stroke-linecap="round" stroke-linejoin="round" stroke-width="1"/>
      <path id="Path_2026" data-name="Path 2026" d="M972.294,2701.951s12.714-15.353,6.18-20.985a20.619,20.619,0,0,0-5.826-.934c-2.124.193-1.9.483-1.9.483s3.251,4.345-3.476,22.08C967.273,2702.595,970.4,2703.979,972.294,2701.951Z" fill="#43475f" stroke="#000" stroke-linecap="round" stroke-linejoin="round" stroke-width="1"/>
      <path id="Path_2027" data-name="Path 2027" d="M963.572,2702.627s6.759-19.119.354-21.79c-3.373-1.407-6.5.215-5.923,1.416,1.9,3.959,3.637,9.753.741,20.181C958.361,2703.811,963.185,2703.014,963.572,2702.627Z" fill="#43475f" stroke="#000" stroke-linecap="round" stroke-linejoin="round" stroke-width="1"/>
      <path id="Path_2028" data-name="Path 2028" d="M954.688,2702.82" fill="#43475f" stroke="#000" stroke-linecap="round" stroke-linejoin="round" stroke-width="1"/>
      <path id="Path_2029" data-name="Path 2029" d="M950.44,2702.241s.193-11.394-2.125-13.325-4.055-1.931-7.145-1.545c0,0,8.5-4.442,11.008-4.056s4.412,7.547,3.862,11.394c-.579,4.056-.386,7.532-.966,7.918S950.826,2703.4,950.44,2702.241Z" fill="#43475f" stroke="#000" stroke-linecap="round" stroke-linejoin="round" stroke-width="1"/>
      <path id="Path_2030" data-name="Path 2030" d="M933.252,2733.333s1.931-.386,2.317.966,1.159,3.669.387,4.828-2.9,1.159-3.477.386-1.351-4.442-.772-5.407C932.021,2733.582,933.252,2733.333,933.252,2733.333Z" fill="#ea5b27" stroke="#000" stroke-linecap="round" stroke-linejoin="round" stroke-width="1"/>
      <path id="Path_2031" data-name="Path 2031" d="M933.059,2734.492a.845.845,0,0,0-.773.579c-.193.58,0,3.477.773,3.477s1.352.193,1.352-.387S934.024,2733.913,933.059,2734.492Z" fill="#f29222" stroke="#000" stroke-linecap="round" stroke-linejoin="round" stroke-width="1"/>
      <path id="Path_2032" data-name="Path 2032" d="M932.185,2733.921s-1.424.026-1.4.8.347,3.467,1.058,3.252,2.019-.141,1.685-1.241S932.412,2733.528,932.185,2733.921Z" fill="#f8af3c" stroke="#000" stroke-linecap="round" stroke-linejoin="round" stroke-width="1"/>
      <path id="Path_2033" data-name="Path 2033" d="M931.1,2732.959s-1.419.11-1.349.879.551,3.441,1.249,3.184,2.006-.26,1.608-1.339S931.3,2732.553,931.1,2732.959Z" fill="#f8af3c" stroke="#000" stroke-linecap="round" stroke-linejoin="round" stroke-width="1"/>
      <path id="Path_2034" data-name="Path 2034" d="M930.14,2731.608s-1.42.109-1.35.878.552,3.441,1.249,3.184,2.007-.26,1.609-1.339S930.343,2731.2,930.14,2731.608Z" fill="#f8af3c" stroke="#000" stroke-linecap="round" stroke-linejoin="round" stroke-width="1"/>
      <path id="Path_2035" data-name="Path 2035" d="M930.333,2730.256s-1.42.109-1.35.879.552,3.44,1.249,3.183,2.007-.26,1.609-1.339S930.536,2729.85,930.333,2730.256Z" fill="#f8af3c" stroke="#000" stroke-linecap="round" stroke-linejoin="round" stroke-width="1"/>
      <path id="Path_2036" data-name="Path 2036" d="M930.907,2728.9s-1.419.109-1.349.879.551,3.44,1.249,3.183,2.006-.26,1.608-1.338S931.111,2728.5,930.907,2728.9Z" fill="#f8af3c" stroke="#000" stroke-linecap="round" stroke-linejoin="round" stroke-width="1"/>
      <path id="Path_2037" data-name="Path 2037" d="M931.68,2727.359s-1.42.109-1.35.879.552,3.44,1.249,3.183,2.007-.259,1.609-1.338S931.883,2726.953,931.68,2727.359Z" fill="#f8af3c" stroke="#000" stroke-linecap="round" stroke-linejoin="round" stroke-width="1"/>
      <path id="Path_2038" data-name="Path 2038" d="M932.066,2725.814s-1.419.109-1.35.879.552,3.44,1.249,3.183,2.007-.259,1.609-1.338S932.269,2725.408,932.066,2725.814Z" fill="#f8af3c" stroke="#000" stroke-linecap="round" stroke-linejoin="round" stroke-width="1"/>
      <path id="Path_2039" data-name="Path 2039" d="M932.838,2724.655s-1.419.11-1.349.879.552,3.44,1.249,3.183,2.006-.259,1.608-1.338S933.042,2724.249,932.838,2724.655Z" fill="#f8af3c" stroke="#000" stroke-linecap="round" stroke-linejoin="round" stroke-width="1"/>
      <path id="Path_2040" data-name="Path 2040" d="M933.611,2723.3s-1.419.11-1.35.879.552,3.441,1.249,3.184,2.007-.26,1.609-1.339S933.814,2722.9,933.611,2723.3Z" fill="#f8af3c" stroke="#000" stroke-linecap="round" stroke-linejoin="round" stroke-width="1"/>
      <path id="Path_2041" data-name="Path 2041" d="M934.786,2722.143s-1.423-.039-1.434.733.189,3.48.91,3.3,2.022-.049,1.739-1.164S935.03,2721.76,934.786,2722.143Z" fill="#f8af3c" stroke="#000" stroke-linecap="round" stroke-linejoin="round" stroke-width="1"/>
      <path id="Path_2042" data-name="Path 2042" d="M935.944,2721.178s-1.423-.039-1.434.733.191,3.479.911,3.3,2.023-.049,1.739-1.164S936.188,2720.795,935.944,2721.178Z" fill="#f8af3c" stroke="#000" stroke-linecap="round" stroke-linejoin="round" stroke-width="1"/>
      <path id="Path_2043" data-name="Path 2043" d="M937.053,2720.224s-1.416-.142-1.483.628-.06,3.484.671,3.353,2.021.1,1.819-1.035S937.325,2719.859,937.053,2720.224Z" fill="#f8af3c" stroke="#000" stroke-linecap="round" stroke-linejoin="round" stroke-width="1"/>
      <path id="Path_2044" data-name="Path 2044" d="M938.325,2715.256c.565.125.837-.211.819,2.554s.382,7.206.026,7.918-1,.965-1.487.462-1.01-6.157-.781-8.085S937.759,2715.13,938.325,2715.256Z" fill="#f29222" stroke="#000" stroke-linecap="round" stroke-linejoin="round" stroke-width="1"/>
      <g id="Group_1991" data-name="Group 1991">
        <path id="Path_2045" data-name="Path 2045" d="M947.987,2751.594l1.685,5.092-5.279-1.11Z" fill="none" stroke="#000" stroke-linecap="round" stroke-linejoin="round" stroke-width="1"/>
        <path id="Path_2046" data-name="Path 2046" d="M947.658,2753.155l.816,2.464-2.554-.537Z" fill="none" stroke="#000" stroke-linecap="round" stroke-linejoin="round" stroke-width="1"/>
        <path id="Path_2047" data-name="Path 2047" d="M947.338,2754.679l1.136.939-2.554-.537Z" fill="none" stroke="#000" stroke-linecap="round" stroke-linejoin="round" stroke-width="1"/>
        <g id="Group_1990" data-name="Group 1990">
          <circle id="Ellipse_221" data-name="Ellipse 221" cx="0.193" cy="0.193" r="0.193" transform="translate(949.473 2756.491)"/>
          <circle id="Ellipse_222" data-name="Ellipse 222" cx="0.193" cy="0.193" r="0.193" transform="translate(944.207 2755.385)"/>
          <circle id="Ellipse_223" data-name="Ellipse 223" cx="0.193" cy="0.193" r="0.193" transform="translate(947.8 2751.402)"/>
        </g>
        <line id="Line_70" data-name="Line 70" x1="0.321" y2="1.527" transform="translate(947.335 2753.166)" fill="none" stroke="#000" stroke-linecap="round" stroke-linejoin="round" stroke-width="1"/>
      </g>
    </g>
    <path id="Path_2048" data-name="Path 2048" d="M960.854,2811.615s32.7,3.264,40.26,1.485-2.1,36.4,3.42,40.546c5.862,4.4,15.938,3.959,19.051-.489s11.825-45.38-1.073-52.051-50.7-10.675-54.706-7.117S956.57,2805.224,960.854,2811.615Z" fill="#8bc53f" stroke="#000" stroke-linecap="round" stroke-linejoin="round" stroke-width="1"/>
    <path id="Path_2049" data-name="Path 2049" d="M953.129,2819.341c19.651,2.063,50.06-19.143,55.8-21.385,7.111-2.778,27.357,13.678,33.707,15.632,2.852.878,14.036-16.026,12.7-20.029s-35.158-19.784-49.827-20.517c-19.541-.977-34.714,10.076-44.943,13.19s-25.935,7.225-26.38,16.12S933.477,2817.278,953.129,2819.341Z" fill="#8bc53f" stroke="#000" stroke-linecap="round" stroke-linejoin="round" stroke-width="1"/>
    <path id="Path_2050" data-name="Path 2050" d="M931.746,2800.887s.977,16.121,6.839,18.563,45.677,8.619,46.776,11.393-2.322,15.964-.368,17.918,13.19,9.281,14.167,6.839,7.328-34.684-.489-41.523-30.776-6.84-33.218-13.19-9.235-39.343-15.144-46.409-16.349-13.63-20.029-9.281C919.533,2757.9,928.326,2795.513,931.746,2800.887Z" fill="#ff0" stroke="#000" stroke-linecap="round" stroke-linejoin="round" stroke-width="1"/>
    <path id="Path_2051" data-name="Path 2051" d="M1000.477,2869.635s39.889,1.26,42.428,0-7.946-13.322-13.976-14.476-7.487,3.494-7.487,8.985C1021.442,2866.776,998.481,2863.146,1000.477,2869.635Z" fill="#252b6d" stroke="#000" stroke-linecap="round" stroke-linejoin="round" stroke-width="1"/>
    <path id="Path_2052" data-name="Path 2052" d="M1068.666,2816.926s9.729-34.784,9.153-37.357-12.122,3.737-14.5,8.93.068,7.054,5.029,8.27C1070.726,2797.352,1062.361,2817.293,1068.666,2816.926Z" fill="#252b6d" stroke="#000" stroke-linecap="round" stroke-linejoin="round" stroke-width="1"/>
    <path id="Path_2053" data-name="Path 2053" d="M983.759,2774.03s1.723-30.3-1.208-33.23-4.783-3.544-4.783-3.544-.2,20.711.827,24.585S983.759,2774.03,983.759,2774.03Z" fill="#fbed21" stroke="#000" stroke-linecap="round" stroke-linejoin="round" stroke-width="1"/>
    <path id="Path_2054" data-name="Path 2054" d="M997.712,2715.2s10.572,1.439,13.442,10.7c1.043,3.365,5.56.764,4.7-2.205-1.058-3.665,16.191,4.439,12.776,6.141-3.182,1.587-4.086,11.975-10,14.282-4.506,1.757-11.6-4.013-11.708-11.006-.208-12.9-10.89-16.517-10.89-16.517A6.953,6.953,0,0,0,997.712,2715.2Z" fill="#f2c76d" stroke="#000" stroke-linecap="round" stroke-linejoin="round" stroke-width="1"/>
    <path id="Path_2055" data-name="Path 2055" d="M934.677,2801.375s1.468,8.449,7.329,7.156a56.155,56.155,0,0,0,12.211-4.713l8.793,2.442s-.855,17.229-4.58,18.385-13.383-2.133-14.96,2.133,2.931,26.868,6.839,31.753,3.42,5.862-1.466,7.328-19.051,1.465-21.494-.489-.977-3.908,3.908-2.931,16.121.977,14.167-1.466-3.5-8.358-5.374-21c-1.954-13.19-2.594-17.66,1.466-18.075s15.979-.766,16.294-2.826.315-11.341.315-11.341l-5.893-.435s-4.662,5.574-12.086,4.959a11.381,11.381,0,0,1-10.843-9.9C928.712,2798.464,934.677,2801.375,934.677,2801.375Z" fill="#ff0" stroke="#000" stroke-linecap="round" stroke-linejoin="round" stroke-width="1"/>
    <g id="Group_1993" data-name="Group 1993">
      <path id="Path_2056" data-name="Path 2056" d="M990.93,2793.065s1.285-1.823,2.186-1.354.726,1.177.611,1.794-1.658,1.061-1.853.724S990.778,2793.423,990.93,2793.065Z" fill="#535974" stroke="#000" stroke-linecap="round" stroke-linejoin="round" stroke-width="1"/>
      <path id="Path_2057" data-name="Path 2057" d="M986.436,2794.6s5.064-3.561,5.792-1.6-2.371,2.661-2.371,2.661-3,1.406-3.387.862A1.922,1.922,0,0,1,986.436,2794.6Z" fill="#b5bee2" stroke="#000" stroke-linecap="round" stroke-linejoin="round" stroke-width="1"/>
      <path id="Path_2058" data-name="Path 2058" d="M993.2,2791.5s4.166-3.868,5.079-1.994c.672,1.381-1,2.136-1.558,2.506a7.175,7.175,0,0,1-2.756,1.2C993.3,2793.218,992.212,2792.562,993.2,2791.5Z" fill="#b5bee2" stroke="#000" stroke-linecap="round" stroke-linejoin="round" stroke-width="1"/>
    </g>
    <g id="Group_1995" data-name="Group 1995">
      <path id="Path_2059" data-name="Path 2059" d="M988.714,2790.874s1.422-1.718,2.284-1.181.633,1.229.471,1.836-1.736.93-1.9.579S988.534,2791.22,988.714,2790.874Z" fill="#535974" stroke="#000" stroke-linecap="round" stroke-linejoin="round" stroke-width="1"/>
      <path id="Path_2060" data-name="Path 2060" d="M984.114,2792.061s5.325-3.16,5.9-1.151-2.57,2.471-2.57,2.471-3.1,1.17-3.443.6A1.925,1.925,0,0,1,984.114,2792.061Z" fill="#b5bee2" stroke="#000" stroke-linecap="round" stroke-linejoin="round" stroke-width="1"/>
      <path id="Path_2061" data-name="Path 2061" d="M991.1,2789.49s4.452-3.535,5.217-1.6c.564,1.429-1.158,2.053-1.747,2.379a7.187,7.187,0,0,1-2.839.983C991.065,2791.209,990.031,2790.472,991.1,2789.49Z" fill="#b5bee2" stroke="#000" stroke-linecap="round" stroke-linejoin="round" stroke-width="1"/>
      <g id="Group_1994" data-name="Group 1994">
        <path id="Path_2062" data-name="Path 2062" d="M984.168,2792.06c.732.1,1.759.452,1.058,2.111a1.479,1.479,0,0,1-2.789-.942A1.391,1.391,0,0,1,984.168,2792.06Z" fill="#535974" stroke="#000" stroke-linecap="round" stroke-linejoin="round" stroke-width="1"/>
        <path id="Path_2063" data-name="Path 2063" d="M985.311,2793.811l-2.63-1.271a3.138,3.138,0,0,0-.228.553,22.357,22.357,0,0,0,2.684,1.234S985.405,2793.992,985.311,2793.811Z" fill="#42475f" stroke="#000" stroke-linecap="round" stroke-linejoin="round" stroke-width="1"/>
      </g>
    </g>
    <g id="Group_1997" data-name="Group 1997">
      <path id="Path_2064" data-name="Path 2064" d="M987.344,2788.323s1.62-1.533,2.41-.9.48,1.3.245,1.88-1.835.712-1.96.343S987.124,2788.644,987.344,2788.323Z" fill="#535974" stroke="#000" stroke-linecap="round" stroke-linejoin="round" stroke-width="1"/>
      <path id="Path_2065" data-name="Path 2065" d="M982.635,2788.944s5.667-2.491,5.994-.428-2.85,2.141-2.85,2.141-3.217.787-3.49.176A1.922,1.922,0,0,1,982.635,2788.944Z" fill="#b5bee2" stroke="#000" stroke-linecap="round" stroke-linejoin="round" stroke-width="1"/>
      <path id="Path_2066" data-name="Path 2066" d="M989.877,2787.237s4.848-2.969,5.372-.952c.387,1.487-1.4,1.9-2.022,2.15a7.177,7.177,0,0,1-2.938.632C989.637,2788.94,988.7,2788.083,989.877,2787.237Z" fill="#b5bee2" stroke="#000" stroke-linecap="round" stroke-linejoin="round" stroke-width="1"/>
      <g id="Group_1996" data-name="Group 1996">
        <path id="Path_2067" data-name="Path 2067" d="M982.689,2788.949c.713.186,1.69.662.793,2.224a1.478,1.478,0,0,1-2.653-1.273A1.391,1.391,0,0,1,982.689,2788.949Z" fill="#535974" stroke="#000" stroke-linecap="round" stroke-linejoin="round" stroke-width="1"/>
        <path id="Path_2068" data-name="Path 2068" d="M983.61,2790.826l-2.456-1.58a3.11,3.11,0,0,0-.293.521,22.408,22.408,0,0,0,2.514,1.55S983.682,2791.017,983.61,2790.826Z" fill="#42475f" stroke="#000" stroke-linecap="round" stroke-linejoin="round" stroke-width="1"/>
      </g>
    </g>
    <path id="Path_2069" data-name="Path 2069" d="M911.228,2787.7s65.46,11.236,66.926,18.075,3.445,68.083-2.931,68.88c-4.868.608-9.943,2.909-11.724-2.931-5.368-17.6,1.345-54.586-.489-58.621-2.442-5.374-52.781-11.218-55.69-14.656C901.947,2792.094,908.786,2787.209,911.228,2787.7Z" fill="#f2c76d" stroke="#000" stroke-linecap="round" stroke-linejoin="round" stroke-width="1"/>
    <path id="Path_2070" data-name="Path 2070" d="M980.726,2780.916c-6.539,4.267-8.279,8.152-8.279,8.152,9.479-1.517,32.8-1.327,32.8-1.327s8.911-12.323,15.167-11.059c6.39,1.291,10.174.632,12.576,1.074.2.036-3.5-2.784-17.505-3.539a98.509,98.509,0,0,0-21.739,1.011A49.086,49.086,0,0,0,980.726,2780.916Z" fill="#fff" stroke="#000" stroke-linecap="round" stroke-linejoin="round" stroke-width="1"/>
    <path id="Path_2071" data-name="Path 2071" d="M980.283,2779.589c-6.538,4.267-8.278,8.152-8.278,8.152,9.479-1.517,32.8-1.327,32.8-1.327s8.91-12.323,15.167-11.059c6.39,1.291,10.174.632,12.575,1.074.2.036-3.5-2.784-17.505-3.539A98.534,98.534,0,0,0,993.3,2773.9,49.1,49.1,0,0,0,980.283,2779.589Z" fill="#fff" stroke="#000" stroke-linecap="round" stroke-linejoin="round" stroke-width="1"/>
    <path id="Path_2072" data-name="Path 2072" d="M978.956,2778.515c-6.538,4.267-8.278,8.152-8.278,8.152,9.479-1.517,32.8-1.327,32.8-1.327s8.91-12.323,15.166-11.06c6.391,1.291,12.766-1.832,13.335-4.107.048-.194-4.261,2.4-18.264,1.643a98.535,98.535,0,0,0-21.739,1.011A49.064,49.064,0,0,0,978.956,2778.515Z" fill="#fff" stroke="#000" stroke-linecap="round" stroke-linejoin="round" stroke-width="1"/>
    <g id="Group_1998" data-name="Group 1998">
      <path id="Path_2073" data-name="Path 2073" d="M1000.587,2782.293s4.361-5.972,7.868-7.583,4.171-1.9,4.171-1.9" fill="none" stroke="#666" stroke-linecap="round" stroke-linejoin="round" stroke-width="1.5"/>
      <path id="Path_2074" data-name="Path 2074" d="M995.152,2782.4s4.938-5.877,8.445-7.489,4.258-1.856,4.258-1.856" fill="none" stroke="#666" stroke-linecap="round" stroke-linejoin="round" stroke-width="1.5"/>
      <path id="Path_2075" data-name="Path 2075" d="M989.718,2782.5s5.513-5.782,9.021-7.393a34.385,34.385,0,0,1,4.344-1.817" fill="none" stroke="#666" stroke-linecap="round" stroke-linejoin="round" stroke-width="1.5"/>
      <path id="Path_2076" data-name="Path 2076" d="M984.283,2782.6s6.09-5.687,9.6-7.3a25.418,25.418,0,0,1,4.431-1.777" fill="none" stroke="#666" stroke-linecap="round" stroke-linejoin="round" stroke-width="1.5"/>
      <path id="Path_2077" data-name="Path 2077" d="M978.848,2782.7s6.667-5.593,10.175-7.2a20.589,20.589,0,0,1,4.518-1.738" fill="none" stroke="#666" stroke-linecap="round" stroke-linejoin="round" stroke-width="1.5"/>
    </g>
    <g id="Group_2001" data-name="Group 2001">
      <path id="Path_2078" data-name="Path 2078" d="M971.518,2790.82c.49-1.506,8.121-6.028,10.054-5.472,1.074.309,6.28,7.46,5.619,10.7s-8.364,3.406-14.865,3.673C970.688,2799.792,971.028,2792.327,971.518,2790.82Z" fill="#b5bee2" stroke="#000" stroke-linecap="round" stroke-linejoin="round" stroke-width="1"/>
      <g id="Group_2000" data-name="Group 2000">
        <path id="Path_2079" data-name="Path 2079" d="M984.774,2782.343s5.44-1.648,5.438.436c0,1.537-1.832,1.483-2.5,1.57a7.2,7.2,0,0,1-3-.131C984.111,2783.93,983.421,2782.864,984.774,2782.343Z" fill="#b5bee2" stroke="#000" stroke-linecap="round" stroke-linejoin="round" stroke-width="1"/>
        <path id="Path_2080" data-name="Path 2080" d="M982.156,2783.668s1.307-1.807,2.2-1.328.712,1.187.589,1.8-1.671,1.04-1.862.7S982,2784.024,982.156,2783.668Z" fill="#535974" stroke="#000" stroke-linecap="round" stroke-linejoin="round" stroke-width="1"/>
        <path id="Path_2081" data-name="Path 2081" d="M978.241,2784.8s5.109-3.5,5.812-1.531-2.4,2.632-2.4,2.632-3.016,1.369-3.4.82A1.925,1.925,0,0,1,978.241,2784.8Z" fill="#b5bee2" stroke="#000" stroke-linecap="round" stroke-linejoin="round" stroke-width="1"/>
        <g id="Group_1999" data-name="Group 1999">
          <path id="Path_2082" data-name="Path 2082" d="M978.894,2784.455c.736.051,1.784.338,1.191,2.038a1.478,1.478,0,0,1-2.843-.759A1.391,1.391,0,0,1,978.894,2784.455Z" fill="#535974" stroke="#000" stroke-linecap="round" stroke-linejoin="round" stroke-width="1"/>
          <path id="Path_2083" data-name="Path 2083" d="M980.147,2786.129l-2.706-1.1a3.1,3.1,0,0,0-.192.566,22.33,22.33,0,0,0,2.758,1.058S980.253,2786.3,980.147,2786.129Z" fill="#42475f" stroke="#000" stroke-linecap="round" stroke-linejoin="round" stroke-width="1"/>
        </g>
      </g>
    </g>
    <path id="Path_2084" data-name="Path 2084" d="M927.838,2751.547c-7.328,6.84-6.293,36.972.488,41.524s35.471,10.977,40.546,8.793,10.73-11.32,5.862-16.121-24.425-1.465-26.379-7.328c-1.329-3.986,2.664-20.22-2.443-23.937S935.165,2744.708,927.838,2751.547Z" fill="#ff0" stroke="#000" stroke-linecap="round" stroke-linejoin="round" stroke-width="1"/>
    <path id="Path_2085" data-name="Path 2085" d="M931.257,2740.312c.638-.266,10.021-2.85,14.167.977,12.7,11.724,16.85,41.211,16.85,41.211l-3.254-.155s-5.271-7.694-9.2-14.677c-4.4-7.816-5.862-13.19-9.281-16.609-2.732-2.732-8.3-4.885-12.043-2.957C926.791,2748.981,925.4,2742.754,931.257,2740.312Z" fill="#fbed21" stroke="#000" stroke-linecap="round" stroke-linejoin="round" stroke-width="1"/>
    <g id="Group_2003" data-name="Group 2003">
      <path id="Path_2086" data-name="Path 2086" d="M1015.783,2741.311s1.331-1.454.756-2.144-1.154-.4-1.666-.188-.6,1.633-.274,1.738S1015.5,2741.511,1015.783,2741.311Z" fill="#535974" stroke="#000" stroke-linecap="round" stroke-linejoin="round" stroke-width="1"/>
      <path id="Path_2087" data-name="Path 2087" d="M1015.3,2745.483s2.117-5.047.288-5.3-1.849,2.552-1.849,2.552-.647,2.855-.1,3.087A1.7,1.7,0,0,0,1015.3,2745.483Z" fill="#b5bee2" stroke="#000" stroke-linecap="round" stroke-linejoin="round" stroke-width="1"/>
      <path id="Path_2088" data-name="Path 2088" d="M1016.595,2738.565s-.339-5.014-2.062-4.36c-1.27.482-.652,1.979-.515,2.558a6.352,6.352,0,0,0,1.047,2.441C1015.49,2739.61,1016.588,2739.846,1016.595,2738.565Z" fill="#b5bee2" stroke="#000" stroke-linecap="round" stroke-linejoin="round" stroke-width="1"/>
      <g id="Group_2002" data-name="Group 2002">
        <path id="Path_2089" data-name="Path 2089" d="M1015.3,2745.436c-.176-.628-.611-1.485-1.977-.668a1.307,1.307,0,0,0,1.164,2.326A1.23,1.23,0,0,0,1015.3,2745.436Z" fill="#535974" stroke="#000" stroke-linecap="round" stroke-linejoin="round" stroke-width="1"/>
        <path id="Path_2090" data-name="Path 2090" d="M1013.627,2744.649l1.434,2.148a2.745,2.745,0,0,1-.456.266,19.608,19.608,0,0,1-1.409-2.2S1013.457,2744.589,1013.627,2744.649Z" fill="#42475f" stroke="#000" stroke-linecap="round" stroke-linejoin="round" stroke-width="1"/>
      </g>
    </g>
    <g id="Group_2005" data-name="Group 2005">
      <path id="Path_2091" data-name="Path 2091" d="M1023.447,2741.344s1.578-1.183,1.141-1.967-1.059-.611-1.6-.494-.894,1.493-.591,1.657S1023.135,2741.488,1023.447,2741.344Z" fill="#535974" stroke="#000" stroke-linecap="round" stroke-linejoin="round" stroke-width="1"/>
      <path id="Path_2092" data-name="Path 2092" d="M1022.2,2745.355s3.016-4.567,1.267-5.16-2.291,2.164-2.291,2.164-1.165,2.686-.674,3.015A1.7,1.7,0,0,0,1022.2,2745.355Z" fill="#b5bee2" stroke="#000" stroke-linecap="round" stroke-linejoin="round" stroke-width="1"/>
      <path id="Path_2093" data-name="Path 2093" d="M1024.482,2739.39s.974-5.824-.864-5.689c-1.316.1-1.12,2.368-1.118,2.927s.118,2.893.7,2.967S1024.342,2739.756,1024.482,2739.39Z" fill="#b5bee2" stroke="#000" stroke-linecap="round" stroke-linejoin="round" stroke-width="1"/>
      <g id="Group_2004" data-name="Group 2004">
        <path id="Path_2094" data-name="Path 2094" d="M1022.227,2744.979c-.291-.584-.882-1.341-2.068-.28a1.307,1.307,0,0,0,1.586,2.062A1.229,1.229,0,0,0,1022.227,2744.979Z" fill="#535974" stroke="#000" stroke-linecap="round" stroke-linejoin="round" stroke-width="1"/>
        <path id="Path_2095" data-name="Path 2095" d="M1020.435,2744.525l1.816,1.835a2.759,2.759,0,0,1-.4.349,19.819,19.819,0,0,1-1.8-1.891S1020.257,2744.5,1020.435,2744.525Z" fill="#42475f" stroke="#000" stroke-linecap="round" stroke-linejoin="round" stroke-width="1"/>
      </g>
    </g>
    <g id="Group_2008" data-name="Group 2008">
      <g id="Group_2006" data-name="Group 2006">
        <path id="Path_2096" data-name="Path 2096" d="M1019.624,2741.486s1.44-1.347.92-2.079-1.119-.492-1.646-.316-.727,1.581-.408,1.711S1019.329,2741.664,1019.624,2741.486Z" fill="#535974" stroke="#000" stroke-linecap="round" stroke-linejoin="round" stroke-width="1"/>
        <path id="Path_2097" data-name="Path 2097" d="M1018.825,2745.609s2.5-4.868.7-5.267-2.042,2.4-2.042,2.4-.866,2.8-.342,3.071A1.7,1.7,0,0,0,1018.825,2745.609Z" fill="#b5bee2" stroke="#000" stroke-linecap="round" stroke-linejoin="round" stroke-width="1"/>
        <path id="Path_2098" data-name="Path 2098" d="M1020.655,2738.822s.91-4.986-.921-4.785c-1.351.147-1.294,2.584-1.294,2.584s.117,2.893.7,2.967A1.722,1.722,0,0,0,1020.655,2738.822Z" fill="#b5bee2" stroke="#000" stroke-linecap="round" stroke-linejoin="round" stroke-width="1"/>
      </g>
      <g id="Group_2007" data-name="Group 2007">
        <path id="Path_2099" data-name="Path 2099" d="M1016.4,2746.734c.247.6.78,1.4,2.042.432a1.307,1.307,0,0,0-1.429-2.174A1.23,1.23,0,0,0,1016.4,2746.734Z" fill="#535974" stroke="#000" stroke-linecap="round" stroke-linejoin="round" stroke-width="1"/>
        <path id="Path_2100" data-name="Path 2100" d="M1018.15,2747.319l-1.675-1.965a2.773,2.773,0,0,1,.422-.318,19.738,19.738,0,0,1,1.656,2.019S1018.326,2747.359,1018.15,2747.319Z" fill="#42475f" stroke="#000" stroke-linecap="round" stroke-linejoin="round" stroke-width="1"/>
      </g>
    </g>
    <g id="Group_2009" data-name="Group 2009">
      <path id="Path_2101" data-name="Path 2101" d="M984.525,2788c.737.042,1.789.316,1.217,2.023a1.478,1.478,0,0,1-2.852-.723A1.392,1.392,0,0,1,984.525,2788Z" fill="#535974" stroke="#000" stroke-linecap="round" stroke-linejoin="round" stroke-width="1"/>
      <path id="Path_2102" data-name="Path 2102" d="M985.8,2789.663l-2.719-1.065a3.174,3.174,0,0,0-.185.569,22.355,22.355,0,0,0,2.771,1.023S985.907,2789.836,985.8,2789.663Z" fill="#42475f" stroke="#000" stroke-linecap="round" stroke-linejoin="round" stroke-width="1"/>
    </g>
    <g id="Group_2010" data-name="Group 2010">
      <path id="Path_2103" data-name="Path 2103" d="M985.347,2790.974c.736.042,1.788.316,1.217,2.024a1.479,1.479,0,0,1-2.853-.724A1.392,1.392,0,0,1,985.347,2790.974Z" fill="#535974" stroke="#000" stroke-linecap="round" stroke-linejoin="round" stroke-width="1"/>
      <path id="Path_2104" data-name="Path 2104" d="M986.621,2792.633l-2.72-1.064a3.091,3.091,0,0,0-.184.568,22.3,22.3,0,0,0,2.771,1.024S986.729,2792.806,986.621,2792.633Z" fill="#42475f" stroke="#000" stroke-linecap="round" stroke-linejoin="round" stroke-width="1"/>
    </g>
    <g id="Group_2011" data-name="Group 2011">
      <path id="Path_2105" data-name="Path 2105" d="M986.232,2794.071c.736.042,1.788.315,1.216,2.023a1.478,1.478,0,0,1-2.852-.724A1.391,1.391,0,0,1,986.232,2794.071Z" fill="#535974" stroke="#000" stroke-linecap="round" stroke-linejoin="round" stroke-width="1"/>
      <path id="Path_2106" data-name="Path 2106" d="M987.506,2795.729l-2.72-1.064a3.171,3.171,0,0,0-.185.569,22.476,22.476,0,0,0,2.771,1.023S987.614,2795.9,987.506,2795.729Z" fill="#42475f" stroke="#000" stroke-linecap="round" stroke-linejoin="round" stroke-width="1"/>
    </g>
    <g id="Group_2012" data-name="Group 2012">
      <path id="Path_2107" data-name="Path 2107" d="M993.454,2773.87" fill="none" stroke="#666" stroke-linecap="round" stroke-linejoin="round" stroke-width="1.5"/>
      <path id="Path_2108" data-name="Path 2108" d="M989.781,2776.1" fill="none" stroke="#666" stroke-linecap="round" stroke-linejoin="round" stroke-width="1.5"/>
      <path id="Path_2109" data-name="Path 2109" d="M986.108,2778.341" fill="none" stroke="#666" stroke-linecap="round" stroke-linejoin="round" stroke-width="1.5"/>
      <path id="Path_2110" data-name="Path 2110" d="M982.435,2780.576" fill="none" stroke="#666" stroke-linecap="round" stroke-linejoin="round" stroke-width="1.5"/>
      <path id="Path_2111" data-name="Path 2111" d="M978.761,2782.812" fill="none" stroke="#666" stroke-linecap="round" stroke-linejoin="round" stroke-width="1.5"/>
    </g>
  </g>
</svg>
