<svg xmlns="http://www.w3.org/2000/svg" width="90.958" height="119.241" viewBox="0 0 90.958 119.241">
  <g id="Group_776" data-name="Group 776" transform="translate(-1750.041 -1166.498)">
    <path id="Path_853" data-name="Path 853" d="M1795.581,1166.5a45.58,45.58,0,0,0-45.54,45.54,47.713,47.713,0,0,0,2.41,14.818,6.362,6.362,0,1,0,12.047-4.1,32.091,32.091,0,0,1-1.807-11.686,32.9,32.9,0,1,1,34.817,33.733s-6.385.361-9.517.843c-1.566.241-2.771.482-3.614.6a.483.483,0,0,1-.6-.6l1.084-5.3,5.783-27.107a6.285,6.285,0,1,0-12.288-2.65s-14.216,66.261-14.337,66.984a6.286,6.286,0,0,0,12.289,2.65c.12-.723,2.048-9.517,2.048-9.517a16,16,0,0,1,13.493-12.53c1.446-.241,7.108-.6,7.108-.6a45.609,45.609,0,0,0-3.373-91.079Z" fill="#ff5795"/>
    <path id="Path_854" data-name="Path 854" d="M1809.075,1269.291a8.313,8.313,0,0,0-3.412,16.272,8.2,8.2,0,0,0,9.842-6.43A8.4,8.4,0,0,0,1809.075,1269.291Z" fill="#fff"/>
  </g>
</svg>
