<svg xmlns="http://www.w3.org/2000/svg" width="79.393" height="73.589" viewBox="0 0 79.393 73.589">
  <g id="Group_773" data-name="Group 773" transform="translate(-668.607 -600.381)">
    <g id="Group_753" data-name="Group 753">
      <g id="Group_751" data-name="Group 751">
        <rect id="Rectangle_128" data-name="Rectangle 128" width="3.462" height="15.635" transform="translate(730.058 640.577) rotate(180)" fill="#99e0ff" stroke="#000" stroke-linecap="round" stroke-linejoin="round" stroke-width="0.5"/>
        <path id="Rectangle_129" data-name="Rectangle 129" d="M4.595,0h0A4.595,4.595,0,0,1,9.19,4.595V9.656a0,0,0,0,1,0,0H0a0,0,0,0,1,0,0V4.595A4.595,4.595,0,0,1,4.595,0Z" transform="translate(723.732 636.823)" fill="#899bce" stroke="#000" stroke-linecap="round" stroke-linejoin="round" stroke-width="0.5"/>
        <path id="Rectangle_130" data-name="Rectangle 130" d="M6.014,0h0a6.014,6.014,0,0,1,6.014,6.014V10.64a0,0,0,0,1,0,0H0a0,0,0,0,1,0,0V6.014A6.014,6.014,0,0,1,6.014,0Z" transform="translate(722.313 638.477)" fill="#6f85b5" stroke="#000" stroke-linecap="round" stroke-linejoin="round" stroke-width="0.5"/>
      </g>
      <path id="Path_834" data-name="Path 834" d="M726.3,615.664h5.656v9.481H726.3a4.74,4.74,0,0,1-4.739-4.741h0A4.74,4.74,0,0,1,726.3,615.664Z" fill="#99e0ff" stroke="#000" stroke-linecap="round" stroke-linejoin="round" stroke-width="0.5"/>
      <circle id="Ellipse_91" data-name="Ellipse 91" cx="4.74" cy="4.74" r="4.74" transform="translate(727.214 615.665)" fill="#2d2d69" stroke="#000" stroke-miterlimit="10" stroke-width="0.5"/>
      <g id="Group_752" data-name="Group 752">
        <circle id="Ellipse_92" data-name="Ellipse 92" cx="3.617" cy="3.617" r="3.617" transform="translate(728.287 616.835)" fill="#4d4d4d" stroke="#000" stroke-linecap="round" stroke-linejoin="round" stroke-width="0.5"/>
        <circle id="Ellipse_93" data-name="Ellipse 93" cx="2.128" cy="2.128" r="2.128" transform="translate(729.776 618.325)"/>
        <circle id="Ellipse_94" data-name="Ellipse 94" cx="0.638" cy="0.638" r="0.638" transform="translate(732.938 618.528)" fill="#fff"/>
      </g>
    </g>
    <g id="Group_761" data-name="Group 761">
      <g id="Group_757" data-name="Group 757">
        <g id="Group_756" data-name="Group 756">
          <g id="Group_755" data-name="Group 755">
            <!-- <g id="Group_754" data-name="Group 754">
              <circle id="Ellipse_95" data-name="Ellipse 95" cx="0.988" cy="0.988" r="0.988" transform="translate(693.361 605.817)" fill="none" stroke="#000" stroke-linecap="round" stroke-linejoin="round" stroke-width="0.5"/>
              <path id="Path_835" data-name="Path 835" d="M688.951,603.8a6.179,6.179,0,0,1,10.8,0" fill="none" stroke="#000" stroke-linecap="round" stroke-linejoin="round" stroke-width="0.5"/>
              <path id="Path_836" data-name="Path 836" d="M690,604.854a4.766,4.766,0,0,1,8.7,0" fill="none" stroke="#000" stroke-linecap="round" stroke-linejoin="round" stroke-width="0.5"/>
              <path id="Path_837" data-name="Path 837" d="M691.1,605.957a3.354,3.354,0,0,1,6.489,0" fill="none" stroke="#000" stroke-linecap="round" stroke-linejoin="round" stroke-width="0.5"/>
            </g> -->
          </g>
          <line id="Line_5" data-name="Line 5" y2="38.101" transform="translate(694.406 609.274)" fill="none" stroke="#000" stroke-linecap="round" stroke-linejoin="round" stroke-width="0.5"/>
        </g>
      </g>
      <rect id="Rectangle_131" data-name="Rectangle 131" width="18.183" height="12.011" transform="translate(685.258 633.341)" fill="#99e0ff" stroke="#000" stroke-linecap="round" stroke-linejoin="round" stroke-width="0.5"/>
      <g id="Group_760" data-name="Group 760">
        <g id="Group_758" data-name="Group 758">
          <rect id="Rectangle_132" data-name="Rectangle 132" width="16.632" height="10.762" transform="translate(674.457 610.415)" fill="none" stroke="#000" stroke-linecap="round" stroke-linejoin="round" stroke-width="0.5"/>
          <line id="Line_6" data-name="Line 6" y2="10.762" transform="translate(676.833 610.415)" fill="none" stroke="#000" stroke-linecap="round" stroke-linejoin="round" stroke-width="0.5"/>
          <line id="Line_7" data-name="Line 7" y2="10.762" transform="translate(679.209 610.415)" fill="none" stroke="#000" stroke-linecap="round" stroke-linejoin="round" stroke-width="0.5"/>
          <line id="Line_8" data-name="Line 8" y2="10.762" transform="translate(681.584 610.415)" fill="none" stroke="#000" stroke-linecap="round" stroke-linejoin="round" stroke-width="0.5"/>
          <line id="Line_9" data-name="Line 9" y2="10.762" transform="translate(683.96 610.415)" fill="none" stroke="#000" stroke-linecap="round" stroke-linejoin="round" stroke-width="0.5"/>
          <line id="Line_10" data-name="Line 10" y2="10.762" transform="translate(686.336 610.415)" fill="none" stroke="#000" stroke-linecap="round" stroke-linejoin="round" stroke-width="0.5"/>
          <line id="Line_11" data-name="Line 11" y2="10.762" transform="translate(688.712 610.415)" fill="none" stroke="#000" stroke-linecap="round" stroke-linejoin="round" stroke-width="0.5"/>
          <line id="Line_12" data-name="Line 12" x2="16.632" transform="translate(674.457 612.567)" fill="none" stroke="#000" stroke-linecap="round" stroke-linejoin="round" stroke-width="0.5"/>
          <line id="Line_13" data-name="Line 13" x2="16.632" transform="translate(674.457 614.719)" fill="none" stroke="#000" stroke-linecap="round" stroke-linejoin="round" stroke-width="0.5"/>
          <line id="Line_14" data-name="Line 14" x2="16.632" transform="translate(674.457 616.872)" fill="none" stroke="#000" stroke-linecap="round" stroke-linejoin="round" stroke-width="0.5"/>
          <line id="Line_15" data-name="Line 15" x2="16.632" transform="translate(674.457 619.024)" fill="none" stroke="#000" stroke-linecap="round" stroke-linejoin="round" stroke-width="0.5"/>
        </g>
        <g id="Group_759" data-name="Group 759">
          <rect id="Rectangle_133" data-name="Rectangle 133" width="16.632" height="10.762" transform="translate(697.611 610.415)" fill="none" stroke="#000" stroke-linecap="round" stroke-linejoin="round" stroke-width="0.5"/>
          <line id="Line_16" data-name="Line 16" y2="10.762" transform="translate(699.987 610.415)" fill="none" stroke="#000" stroke-linecap="round" stroke-linejoin="round" stroke-width="0.5"/>
          <line id="Line_17" data-name="Line 17" y2="10.762" transform="translate(702.362 610.415)" fill="none" stroke="#000" stroke-linecap="round" stroke-linejoin="round" stroke-width="0.5"/>
          <line id="Line_18" data-name="Line 18" y2="10.762" transform="translate(704.738 610.415)" fill="none" stroke="#000" stroke-linecap="round" stroke-linejoin="round" stroke-width="0.5"/>
          <line id="Line_19" data-name="Line 19" y2="10.762" transform="translate(707.114 610.415)" fill="none" stroke="#000" stroke-linecap="round" stroke-linejoin="round" stroke-width="0.5"/>
          <line id="Line_20" data-name="Line 20" y2="10.762" transform="translate(709.49 610.415)" fill="none" stroke="#000" stroke-linecap="round" stroke-linejoin="round" stroke-width="0.5"/>
          <line id="Line_21" data-name="Line 21" y2="10.762" transform="translate(711.866 610.415)" fill="none" stroke="#000" stroke-linecap="round" stroke-linejoin="round" stroke-width="0.5"/>
          <line id="Line_22" data-name="Line 22" x2="16.632" transform="translate(697.611 612.567)" fill="none" stroke="#000" stroke-linecap="round" stroke-linejoin="round" stroke-width="0.5"/>
          <line id="Line_23" data-name="Line 23" x2="16.632" transform="translate(697.611 614.719)" fill="none" stroke="#000" stroke-linecap="round" stroke-linejoin="round" stroke-width="0.5"/>
          <line id="Line_24" data-name="Line 24" x2="16.632" transform="translate(697.611 616.872)" fill="none" stroke="#000" stroke-linecap="round" stroke-linejoin="round" stroke-width="0.5"/>
          <line id="Line_25" data-name="Line 25" x2="16.632" transform="translate(697.611 619.024)" fill="none" stroke="#000" stroke-linecap="round" stroke-linejoin="round" stroke-width="0.5"/>
        </g>
      </g>
      <line id="Line_26" data-name="Line 26" x2="6.522" transform="translate(691.088 615.632)" fill="none" stroke="#000" stroke-linecap="round" stroke-linejoin="round" stroke-width="0.5"/>
      <rect id="Rectangle_134" data-name="Rectangle 134" width="21.634" height="12.011" transform="translate(683.533 636.182)" fill="#899bce" stroke="#000" stroke-linecap="round" stroke-linejoin="round" stroke-width="0.5"/>
    </g>
    <g id="Group_762" data-name="Group 762">
      <rect id="Rectangle_135" data-name="Rectangle 135" width="58.29" height="18.505" transform="translate(679.114 646.342)" fill="#2d2d69" stroke="#000" stroke-linecap="round" stroke-linejoin="round" stroke-width="0.5"/>
      <line id="Line_27" data-name="Line 27" x2="58.29" transform="translate(679.203 649.117)" fill="none" stroke="#000" stroke-linecap="round" stroke-linejoin="round" stroke-width="0.5"/>
    </g>
    <g id="Group_763" data-name="Group 763">
      <path id="Path_838" data-name="Path 838" d="M710.116,636.884l3.238,5.757,1.8-6.477" fill="none" stroke="#000" stroke-linecap="round" stroke-linejoin="round" stroke-width="0.5"/>
      <path id="Path_839" data-name="Path 839" d="M709.654,644.029a3.7,3.7,0,0,1,7.4,0" fill="#ef6100" stroke="#000" stroke-linecap="round" stroke-linejoin="round" stroke-width="0.5"/>
      <circle id="Ellipse_96" data-name="Ellipse 96" cx="0.925" cy="0.925" r="0.925" transform="translate(709.191 636.164)" stroke="#000" stroke-linecap="round" stroke-linejoin="round" stroke-width="0.5"/>
      <circle id="Ellipse_97" data-name="Ellipse 97" cx="0.925" cy="0.925" r="0.925" transform="translate(714.28 635.239)" stroke="#000" stroke-linecap="round" stroke-linejoin="round" stroke-width="0.5"/>
    </g>
    <g id="Group_764" data-name="Group 764">
      <line id="Line_28" data-name="Line 28" y2="11.973" transform="translate(678.956 627.996)" fill="#99e0ff" stroke="#000" stroke-linecap="round" stroke-linejoin="round" stroke-width="0.5"/>
      <path id="Path_840" data-name="Path 840" d="M679.551,640.2a.808.808,0,0,0-.636-.306H678.9a.813.813,0,0,0-.81.812v3.478h1.64v-3.478A.814.814,0,0,0,679.551,640.2Z" fill="#6f85b5" stroke="#000" stroke-linecap="round" stroke-linejoin="round" stroke-width="0.5"/>
      <rect id="Rectangle_136" data-name="Rectangle 136" width="2.506" height="3.036" rx="0.867" transform="translate(677.655 625.055)" fill="#99e0ff" stroke="#000" stroke-linecap="round" stroke-linejoin="round" stroke-width="0.5"/>
      <path id="Path_841" data-name="Path 841" d="M680.546,642.723a.718.718,0,0,0-.674-.465h-1.928a.723.723,0,0,0-.723.723v2.22h3.374v-2.22A.7.7,0,0,0,680.546,642.723Z" fill="#2d2d69" stroke="#000" stroke-linecap="round" stroke-linejoin="round" stroke-width="0.5"/>
    </g>
    <rect id="Rectangle_137" data-name="Rectangle 137" width="65.692" height="2.776" transform="translate(675.458 644.029)" fill="#b3d9ff" stroke="#000" stroke-linecap="round" stroke-linejoin="round" stroke-width="0.5"/>
    <g id="Group_765" data-name="Group 765">
      <rect id="Rectangle_138" data-name="Rectangle 138" width="8.32" height="3.905" rx="1.953" transform="translate(718.526 651.003)" fill="#fff" stroke="#000" stroke-linecap="round" stroke-linejoin="round" stroke-width="0.5"/>
      <rect id="Rectangle_139" data-name="Rectangle 139" width="6.088" height="1.868" rx="0.934" transform="translate(719.642 652.022)" fill="#8cc63f" stroke="#000" stroke-linecap="round" stroke-linejoin="round" stroke-width="0.5"/>
    </g>
  </g>
</svg>
