<svg xmlns="http://www.w3.org/2000/svg" width="27.672" height="30.12" viewBox="0 0 27.672 30.12">
  <g id="Group_2547" data-name="Group 2547" transform="translate(-1664.455 -2305.762)">
    <g id="Group_2544" data-name="Group 2544">
      <path id="Path_5744" data-name="Path 5744" d="M1670.268,2309.122h21.859c0-1.8-1.109-3.251-2.478-3.251h-14.273" fill="#213159"/>
      <path id="Path_5745" data-name="Path 5745" d="M1689.852,2305.762a1.712,1.712,0,0,0-1.782,1.633v25.993a2.616,2.616,0,0,1-2.722,2.494h-17.721V2307.4a1.712,1.712,0,0,1,1.782-1.633h20.443Z" fill="#e9efff"/>
    </g>
    <path id="Path_5746" data-name="Path 5746" d="M1681.714,2332.631a3.25,3.25,0,0,0,3.25,3.251H1667.7a3.25,3.25,0,0,1-3.25-3.251Z" fill="#213159"/>
    <g id="Group_2545" data-name="Group 2545">
      <path id="Path_5747" data-name="Path 5747" d="M1673.65,2311.956a.234.234,0,0,0-.091-.2,1.085,1.085,0,0,0-.328-.142,1.588,1.588,0,0,1-.377-.158.5.5,0,0,1-.267-.439.476.476,0,0,1,.193-.39.784.784,0,0,1,.5-.154.836.836,0,0,1,.365.076.588.588,0,0,1,.252.215.546.546,0,0,1,.091.308h-.339a.307.307,0,0,0-.1-.24.4.4,0,0,0-.275-.087.409.409,0,0,0-.259.072.235.235,0,0,0-.093.2.215.215,0,0,0,.1.179,1.165,1.165,0,0,0,.328.141,1.513,1.513,0,0,1,.368.154.588.588,0,0,1,.2.2.522.522,0,0,1,.065.264.466.466,0,0,1-.188.389.811.811,0,0,1-.509.145.97.97,0,0,1-.392-.079.649.649,0,0,1-.277-.218.539.539,0,0,1-.1-.323h.341a.315.315,0,0,0,.11.259.485.485,0,0,0,.317.092.415.415,0,0,0,.267-.073A.232.232,0,0,0,1673.65,2311.956Z"/>
      <path id="Path_5748" data-name="Path 5748" d="M1674.979,2310.5l.565,1.5.564-1.5h.44v1.96h-.339v-.646l.034-.864-.579,1.51h-.243l-.578-1.509.034.863v.646h-.339v-1.96Z"/>
      <path id="Path_5749" data-name="Path 5749" d="M1678.319,2312h-.758l-.159.456h-.354l.74-1.96h.305l.742,1.96h-.355Zm-.663-.275h.568l-.284-.813Z"/>
      <path id="Path_5750" data-name="Path 5750" d="M1680.025,2311.707h-.379v.754h-.341v-1.96h.689a.8.8,0,0,1,.524.153.536.536,0,0,1,.184.44.545.545,0,0,1-.095.329.593.593,0,0,1-.264.2l.44.816v.018h-.365Zm-.379-.274h.35a.39.39,0,0,0,.269-.087.305.305,0,0,0,.1-.238.319.319,0,0,0-.09-.243.374.374,0,0,0-.267-.089h-.359Z"/>
      <path id="Path_5751" data-name="Path 5751" d="M1682.622,2310.776h-.611v1.685h-.338v-1.685h-.6v-.275h1.554Z"/>
      <path id="Path_5752" data-name="Path 5752" d="M1671.253,2315.367a.707.707,0,0,1-.232.489.788.788,0,0,1-.537.176.761.761,0,0,1-.412-.111.726.726,0,0,1-.275-.316,1.122,1.122,0,0,1-.1-.475v-.183a1.143,1.143,0,0,1,.1-.489.729.729,0,0,1,.282-.325.777.777,0,0,1,.424-.115.758.758,0,0,1,.523.176.74.74,0,0,1,.23.5h-.339a.485.485,0,0,0-.124-.3.406.406,0,0,0-.29-.093.4.4,0,0,0-.341.162.806.806,0,0,0-.121.476v.174a.859.859,0,0,0,.113.485.377.377,0,0,0,.333.167.441.441,0,0,0,.3-.09.471.471,0,0,0,.128-.3Z"/>
      <path id="Path_5753" data-name="Path 5753" d="M1673.369,2315.076a1.2,1.2,0,0,1-.1.506.752.752,0,0,1-.284.333.832.832,0,0,1-.851,0,.772.772,0,0,1-.288-.331,1.167,1.167,0,0,1-.1-.5v-.11a1.192,1.192,0,0,1,.1-.507.756.756,0,0,1,.286-.335.781.781,0,0,1,.425-.117.794.794,0,0,1,.425.115.761.761,0,0,1,.286.331,1.2,1.2,0,0,1,.1.5Zm-.341-.1a.862.862,0,0,0-.123-.5.434.434,0,0,0-.694,0,.84.84,0,0,0-.127.489v.113a.851.851,0,0,0,.126.5.438.438,0,0,0,.7,0,.872.872,0,0,0,.121-.5Z"/>
      <path id="Path_5754" data-name="Path 5754" d="M1675.51,2316h-.34l-.874-1.39V2316h-.34v-1.96h.34l.876,1.4v-1.4h.338Z"/>
      <path id="Path_5755" data-name="Path 5755" d="M1677.538,2314.32h-.611V2316h-.338v-1.685h-.606v-.275h1.555Z"/>
      <path id="Path_5756" data-name="Path 5756" d="M1678.763,2315.251h-.38V2316h-.34v-1.96h.689a.8.8,0,0,1,.523.153.537.537,0,0,1,.184.44.552.552,0,0,1-.094.329.6.6,0,0,1-.265.2l.44.816V2316h-.364Zm-.38-.274h.35a.386.386,0,0,0,.269-.087.3.3,0,0,0,.1-.238.323.323,0,0,0-.089-.243.377.377,0,0,0-.268-.089h-.359Z"/>
      <path id="Path_5757" data-name="Path 5757" d="M1681.108,2315.549h-.759l-.159.456h-.354l.74-1.96h.306l.741,1.96h-.355Zm-.663-.275h.567l-.283-.813Z"/>
      <path id="Path_5758" data-name="Path 5758" d="M1683.56,2315.367a.706.706,0,0,1-.231.489.792.792,0,0,1-.537.176.765.765,0,0,1-.413-.111.733.733,0,0,1-.275-.316,1.135,1.135,0,0,1-.1-.475v-.183a1.158,1.158,0,0,1,.1-.489.741.741,0,0,1,.282-.325.78.78,0,0,1,.425-.115.757.757,0,0,1,.522.176.731.731,0,0,1,.23.5h-.339a.485.485,0,0,0-.123-.3.409.409,0,0,0-.29-.093.4.4,0,0,0-.341.162.807.807,0,0,0-.122.476v.174a.86.86,0,0,0,.114.485.377.377,0,0,0,.333.167.438.438,0,0,0,.3-.09.466.466,0,0,0,.128-.3Z"/>
      <path id="Path_5759" data-name="Path 5759" d="M1685.489,2314.32h-.611V2316h-.338v-1.685h-.6v-.275h1.554Z"/>
    </g>
    <g id="Group_2546" data-name="Group 2546">
      <path id="Path_5760" data-name="Path 5760" d="M1671.128,2320.769a.875.875,0,0,1-.113.495.474.474,0,0,1-.71,0,.817.817,0,0,1-.118-.473v-.254a.843.843,0,0,1,.113-.488.481.481,0,0,1,.711-.006.815.815,0,0,1,.117.476Zm-.19-.259a.7.7,0,0,0-.067-.352.235.235,0,0,0-.215-.109.231.231,0,0,0-.212.109.681.681,0,0,0-.068.337v.3a.7.7,0,0,0,.07.356.253.253,0,0,0,.421.007.671.671,0,0,0,.071-.342Z" fill="#ccc"/>
      <path id="Path_5761" data-name="Path 5761" d="M1672.312,2321.405h-.191v-1.263l-.383.14v-.172l.544-.2h.03Z" fill="#ccc"/>
      <path id="Path_5762" data-name="Path 5762" d="M1674.12,2320.769a.874.874,0,0,1-.113.495.474.474,0,0,1-.71,0,.825.825,0,0,1-.118-.473v-.254a.843.843,0,0,1,.113-.488.481.481,0,0,1,.711-.006.815.815,0,0,1,.117.476Zm-.189-.259a.7.7,0,0,0-.068-.352.235.235,0,0,0-.215-.109.228.228,0,0,0-.211.109.679.679,0,0,0-.069.337v.3a.708.708,0,0,0,.07.356.253.253,0,0,0,.421.007.681.681,0,0,0,.072-.342Z" fill="#ccc"/>
      <path id="Path_5763" data-name="Path 5763" d="M1675.305,2321.405h-.191v-1.263l-.383.14v-.172l.544-.2h.03Z" fill="#ccc"/>
      <path id="Path_5764" data-name="Path 5764" d="M1677.113,2320.769a.875.875,0,0,1-.113.495.4.4,0,0,1-.356.162.409.409,0,0,1-.354-.158.824.824,0,0,1-.118-.473v-.254a.843.843,0,0,1,.113-.488.481.481,0,0,1,.711-.006.815.815,0,0,1,.117.476Zm-.189-.259a.7.7,0,0,0-.068-.352.233.233,0,0,0-.214-.109.23.23,0,0,0-.212.109.68.68,0,0,0-.069.337v.3a.7.7,0,0,0,.071.356.253.253,0,0,0,.421.007.693.693,0,0,0,.071-.342Z" fill="#ccc"/>
      <path id="Path_5765" data-name="Path 5765" d="M1678.609,2320.769a.874.874,0,0,1-.113.495.4.4,0,0,1-.356.162.409.409,0,0,1-.354-.158.825.825,0,0,1-.118-.473v-.254a.843.843,0,0,1,.113-.488.481.481,0,0,1,.711-.006.814.814,0,0,1,.117.476Zm-.189-.259a.713.713,0,0,0-.067-.352.236.236,0,0,0-.215-.109.23.23,0,0,0-.212.109.679.679,0,0,0-.069.337v.3a.7.7,0,0,0,.071.356.253.253,0,0,0,.421.007.682.682,0,0,0,.071-.342Z" fill="#ccc"/>
      <path id="Path_5766" data-name="Path 5766" d="M1680.1,2320.769a.874.874,0,0,1-.113.495.4.4,0,0,1-.356.162.41.41,0,0,1-.354-.158.826.826,0,0,1-.118-.473v-.254a.844.844,0,0,1,.113-.488.481.481,0,0,1,.711-.006.808.808,0,0,1,.117.476Zm-.189-.259a.7.7,0,0,0-.067-.352.236.236,0,0,0-.215-.109.23.23,0,0,0-.212.109.67.67,0,0,0-.068.337v.3a.7.7,0,0,0,.07.356.253.253,0,0,0,.421.007.682.682,0,0,0,.071-.342Z" fill="#ccc"/>
      <path id="Path_5767" data-name="Path 5767" d="M1681.289,2321.405h-.19v-1.263l-.383.14v-.172l.544-.2h.029Z" fill="#ccc"/>
      <path id="Path_5768" data-name="Path 5768" d="M1683.1,2320.769a.865.865,0,0,1-.114.495.4.4,0,0,1-.356.162.412.412,0,0,1-.354-.158.825.825,0,0,1-.118-.473v-.254a.835.835,0,0,1,.114-.488.48.48,0,0,1,.71-.006.806.806,0,0,1,.118.476Zm-.19-.259a.7.7,0,0,0-.067-.352.235.235,0,0,0-.215-.109.23.23,0,0,0-.212.109.68.68,0,0,0-.068.337v.3a.7.7,0,0,0,.07.356.253.253,0,0,0,.421.007.682.682,0,0,0,.071-.342Z" fill="#ccc"/>
      <path id="Path_5769" data-name="Path 5769" d="M1684.282,2321.405h-.19v-1.263l-.383.14v-.172l.544-.2h.029Z" fill="#ccc"/>
      <path id="Path_5770" data-name="Path 5770" d="M1671.128,2323.392a.875.875,0,0,1-.113.495.474.474,0,0,1-.71,0,.817.817,0,0,1-.118-.473v-.254a.843.843,0,0,1,.113-.488.481.481,0,0,1,.711-.006.816.816,0,0,1,.117.476Zm-.19-.259a.7.7,0,0,0-.067-.352.235.235,0,0,0-.215-.109.231.231,0,0,0-.212.109.681.681,0,0,0-.068.337v.3a.7.7,0,0,0,.07.356.252.252,0,0,0,.421.007.67.67,0,0,0,.071-.342Z" fill="#ccc"/>
      <path id="Path_5771" data-name="Path 5771" d="M1672.312,2324.028h-.191v-1.263l-.383.14v-.172l.544-.2h.03Z" fill="#ccc"/>
      <path id="Path_5772" data-name="Path 5772" d="M1674.12,2323.392a.874.874,0,0,1-.113.495.474.474,0,0,1-.71,0,.826.826,0,0,1-.118-.473v-.254a.843.843,0,0,1,.113-.488.481.481,0,0,1,.711-.006.816.816,0,0,1,.117.476Zm-.189-.259a.7.7,0,0,0-.068-.352.235.235,0,0,0-.215-.109.228.228,0,0,0-.211.109.678.678,0,0,0-.069.337v.3a.709.709,0,0,0,.07.356.252.252,0,0,0,.421.007.68.68,0,0,0,.072-.342Z" fill="#ccc"/>
      <path id="Path_5773" data-name="Path 5773" d="M1675.305,2324.028h-.191v-1.263l-.383.14v-.172l.544-.2h.03Z" fill="#ccc"/>
      <path id="Path_5774" data-name="Path 5774" d="M1677.113,2323.392a.875.875,0,0,1-.113.495.4.4,0,0,1-.356.162.409.409,0,0,1-.354-.158.825.825,0,0,1-.118-.473v-.254a.843.843,0,0,1,.113-.488.481.481,0,0,1,.711-.006.816.816,0,0,1,.117.476Zm-.189-.259a.7.7,0,0,0-.068-.352.233.233,0,0,0-.214-.109.23.23,0,0,0-.212.109.679.679,0,0,0-.069.337v.3a.7.7,0,0,0,.071.356.252.252,0,0,0,.421.007.692.692,0,0,0,.071-.342Z" fill="#ccc"/>
      <path id="Path_5775" data-name="Path 5775" d="M1678.3,2324.028h-.191v-1.263l-.382.14v-.172l.544-.2h.029Z" fill="#ccc"/>
      <path id="Path_5776" data-name="Path 5776" d="M1680.1,2323.392a.874.874,0,0,1-.113.495.4.4,0,0,1-.356.162.41.41,0,0,1-.354-.158.827.827,0,0,1-.118-.473v-.254a.844.844,0,0,1,.113-.488.481.481,0,0,1,.711-.006.809.809,0,0,1,.117.476Zm-.189-.259a.7.7,0,0,0-.067-.352.236.236,0,0,0-.215-.109.23.23,0,0,0-.212.109.67.67,0,0,0-.068.337v.3a.7.7,0,0,0,.07.356.252.252,0,0,0,.421.007.681.681,0,0,0,.071-.342Z" fill="#ccc"/>
      <path id="Path_5777" data-name="Path 5777" d="M1681.6,2323.392a.874.874,0,0,1-.114.495.4.4,0,0,1-.356.162.41.41,0,0,1-.354-.158.826.826,0,0,1-.118-.473v-.254a.844.844,0,0,1,.113-.488.481.481,0,0,1,.711-.006.808.808,0,0,1,.118.476Zm-.19-.259a.7.7,0,0,0-.067-.352.235.235,0,0,0-.215-.109.23.23,0,0,0-.212.109.681.681,0,0,0-.068.337v.3a.7.7,0,0,0,.07.356.252.252,0,0,0,.421.007.68.68,0,0,0,.071-.342Z" fill="#ccc"/>
      <path id="Path_5778" data-name="Path 5778" d="M1683.1,2323.392a.865.865,0,0,1-.114.495.4.4,0,0,1-.356.162.412.412,0,0,1-.354-.158.826.826,0,0,1-.118-.473v-.254a.835.835,0,0,1,.114-.488.48.48,0,0,1,.71-.006.807.807,0,0,1,.118.476Zm-.19-.259a.7.7,0,0,0-.067-.352.235.235,0,0,0-.215-.109.23.23,0,0,0-.212.109.679.679,0,0,0-.068.337v.3a.7.7,0,0,0,.07.356.252.252,0,0,0,.421.007.681.681,0,0,0,.071-.342Z" fill="#ccc"/>
      <path id="Path_5779" data-name="Path 5779" d="M1684.595,2323.392a.865.865,0,0,1-.114.495.4.4,0,0,1-.356.162.412.412,0,0,1-.354-.158.826.826,0,0,1-.118-.473v-.254a.835.835,0,0,1,.114-.488.481.481,0,0,1,.711-.006.816.816,0,0,1,.117.476Zm-.19-.259a.7.7,0,0,0-.067-.352.235.235,0,0,0-.215-.109.23.23,0,0,0-.212.109.679.679,0,0,0-.068.337v.3a.7.7,0,0,0,.07.356.252.252,0,0,0,.421.007.681.681,0,0,0,.071-.342Z" fill="#ccc"/>
      <path id="Path_5780" data-name="Path 5780" d="M1670.815,2326.651h-.19v-1.263l-.383.14v-.172l.544-.2h.029Z" fill="#ccc"/>
      <path id="Path_5781" data-name="Path 5781" d="M1672.624,2326.015a.874.874,0,0,1-.113.5.473.473,0,0,1-.71,0,.824.824,0,0,1-.118-.473v-.254a.843.843,0,0,1,.113-.488.481.481,0,0,1,.711-.006.819.819,0,0,1,.117.477Zm-.189-.259a.7.7,0,0,0-.068-.352.235.235,0,0,0-.215-.109.231.231,0,0,0-.212.109.685.685,0,0,0-.068.337v.3a.707.707,0,0,0,.07.356.252.252,0,0,0,.421.007.682.682,0,0,0,.072-.342Z" fill="#ccc"/>
      <path id="Path_5782" data-name="Path 5782" d="M1673.808,2326.651h-.191v-1.263l-.383.14v-.172l.544-.2h.03Z" fill="#ccc"/>
      <path id="Path_5783" data-name="Path 5783" d="M1675.617,2326.015a.875.875,0,0,1-.113.5.474.474,0,0,1-.71,0,.824.824,0,0,1-.118-.473v-.254a.844.844,0,0,1,.113-.488.481.481,0,0,1,.711-.006.819.819,0,0,1,.117.477Zm-.189-.259a.7.7,0,0,0-.068-.352.234.234,0,0,0-.214-.109.23.23,0,0,0-.212.109.682.682,0,0,0-.069.337v.3a.7.7,0,0,0,.071.356.251.251,0,0,0,.42.007.68.68,0,0,0,.072-.342Z" fill="#ccc"/>
      <path id="Path_5784" data-name="Path 5784" d="M1677.113,2326.015a.875.875,0,0,1-.113.5.4.4,0,0,1-.356.162.409.409,0,0,1-.354-.158.823.823,0,0,1-.118-.473v-.254a.843.843,0,0,1,.113-.488.481.481,0,0,1,.711-.006.819.819,0,0,1,.117.477Zm-.189-.259a.7.7,0,0,0-.068-.352.233.233,0,0,0-.214-.109.23.23,0,0,0-.212.109.682.682,0,0,0-.069.337v.3a.7.7,0,0,0,.071.356.231.231,0,0,0,.212.117.233.233,0,0,0,.209-.11.693.693,0,0,0,.071-.342Z" fill="#ccc"/>
      <path id="Path_5785" data-name="Path 5785" d="M1678.609,2326.015a.874.874,0,0,1-.113.5.4.4,0,0,1-.356.162.409.409,0,0,1-.354-.158.824.824,0,0,1-.118-.473v-.254a.843.843,0,0,1,.113-.488.481.481,0,0,1,.711-.006.819.819,0,0,1,.117.477Zm-.189-.259a.715.715,0,0,0-.067-.352.236.236,0,0,0-.215-.109.23.23,0,0,0-.212.109.681.681,0,0,0-.069.337v.3a.7.7,0,0,0,.071.356.231.231,0,0,0,.212.117.233.233,0,0,0,.209-.11.682.682,0,0,0,.071-.342Z" fill="#ccc"/>
      <path id="Path_5786" data-name="Path 5786" d="M1680.1,2326.015a.874.874,0,0,1-.113.5.4.4,0,0,1-.356.162.411.411,0,0,1-.354-.158.825.825,0,0,1-.118-.473v-.254a.844.844,0,0,1,.113-.488.481.481,0,0,1,.711-.006.812.812,0,0,1,.117.477Zm-.189-.259a.7.7,0,0,0-.067-.352.236.236,0,0,0-.215-.109.23.23,0,0,0-.212.109.673.673,0,0,0-.068.337v.3a.7.7,0,0,0,.07.356.231.231,0,0,0,.212.117.233.233,0,0,0,.209-.11.682.682,0,0,0,.071-.342Z" fill="#ccc"/>
      <path id="Path_5787" data-name="Path 5787" d="M1681.289,2326.651h-.19v-1.263l-.383.14v-.172l.544-.2h.029Z" fill="#ccc"/>
      <path id="Path_5788" data-name="Path 5788" d="M1683.1,2326.015a.865.865,0,0,1-.114.5.4.4,0,0,1-.356.162.412.412,0,0,1-.354-.158.824.824,0,0,1-.118-.473v-.254a.835.835,0,0,1,.114-.488.48.48,0,0,1,.71-.006.811.811,0,0,1,.118.477Zm-.19-.259a.7.7,0,0,0-.067-.352.235.235,0,0,0-.215-.109.23.23,0,0,0-.212.109.682.682,0,0,0-.068.337v.3a.7.7,0,0,0,.07.356.252.252,0,0,0,.421.007.682.682,0,0,0,.071-.342Z" fill="#ccc"/>
      <path id="Path_5789" data-name="Path 5789" d="M1684.595,2326.015a.865.865,0,0,1-.114.5.4.4,0,0,1-.356.162.412.412,0,0,1-.354-.158.824.824,0,0,1-.118-.473v-.254a.835.835,0,0,1,.114-.488.407.407,0,0,1,.356-.16.411.411,0,0,1,.355.154.82.82,0,0,1,.117.477Zm-.19-.259a.7.7,0,0,0-.067-.352.235.235,0,0,0-.215-.109.23.23,0,0,0-.212.109.682.682,0,0,0-.068.337v.3a.7.7,0,0,0,.07.356.252.252,0,0,0,.421.007.682.682,0,0,0,.071-.342Z" fill="#ccc"/>
    </g>
  </g>
</svg>
