<svg xmlns="http://www.w3.org/2000/svg" width="22.98" height="22.846" viewBox="0 0 22.98 22.846">
  <g id="Group_767" data-name="Group 767" transform="translate(-668.607 -651.124)">
    <g id="Group_766" data-name="Group 766">
      <path id="Path_842" data-name="Path 842" d="M680.09,673.97a11.5,11.5,0,0,1-1.415-.087,1.319,1.319,0,1,1,.322-2.618,8.994,8.994,0,0,0,2.641-.068,1.319,1.319,0,1,1,.458,2.6A11.567,11.567,0,0,1,680.09,673.97Zm-5.078-1.355a1.321,1.321,0,0,1-.658-.176,11.546,11.546,0,0,1-2.679-2.133,1.319,1.319,0,0,1,1.931-1.8,8.868,8.868,0,0,0,2.066,1.645,1.319,1.319,0,0,1-.66,2.462Zm10.608-.276a1.319,1.319,0,0,1-.719-2.426,8.893,8.893,0,0,0,1.979-1.749,1.319,1.319,0,1,1,2.021,1.7,11.548,11.548,0,0,1-2.565,2.267A1.32,1.32,0,0,1,685.62,672.339Zm-15.09-5.047a1.319,1.319,0,0,1-1.238-.866,11.47,11.47,0,0,1-.683-3.357,1.319,1.319,0,1,1,2.634-.135,8.85,8.85,0,0,0,.526,2.585,1.32,1.32,0,0,1-1.239,1.773Zm19.289-.5a1.321,1.321,0,0,1-1.261-1.707,8.842,8.842,0,0,0,.391-2.611v-.032a1.319,1.319,0,0,1,1.309-1.328h.01a1.319,1.319,0,0,1,1.319,1.309v.051a11.523,11.523,0,0,1-.507,3.387A1.322,1.322,0,0,1,689.819,666.791Zm-19.3-6.459a1.32,1.32,0,0,1-1.24-1.768,11.46,11.46,0,0,1,1.634-3.012,1.319,1.319,0,1,1,2.105,1.59,8.8,8.8,0,0,0-1.258,2.319A1.32,1.32,0,0,1,670.516,660.332Zm18.941-.529a1.32,1.32,0,0,1-1.214-.8,8.869,8.869,0,0,0-1.386-2.246,1.319,1.319,0,1,1,2.014-1.7,11.534,11.534,0,0,1,1.8,2.915,1.32,1.32,0,0,1-1.213,1.837Zm-14.478-4.813a1.319,1.319,0,0,1-.665-2.459,11.434,11.434,0,0,1,3.187-1.262,1.319,1.319,0,0,1,.592,2.571,8.81,8.81,0,0,0-2.452.971A1.315,1.315,0,0,1,674.979,654.99Zm9.724-.272a1.306,1.306,0,0,1-.6-.144,8.79,8.79,0,0,0-2.5-.831,1.319,1.319,0,0,1,.447-2.6,11.424,11.424,0,0,1,3.253,1.08,1.319,1.319,0,0,1-.6,2.495Z"/>
    </g>
    <circle id="Ellipse_98" data-name="Ellipse 98" cx="10.178" cy="10.178" r="10.178" transform="translate(669.913 652.296)" fill="#666" stroke="#000" stroke-linecap="round" stroke-linejoin="round" stroke-width="0.5"/>
    <circle id="Ellipse_99" data-name="Ellipse 99" cx="7.402" cy="7.402" r="7.402" transform="translate(672.688 655.071)" fill="#999" stroke="#000" stroke-linecap="round" stroke-linejoin="round" stroke-width="0.5"/>
    <circle id="Ellipse_100" data-name="Ellipse 100" cx="1.388" cy="1.388" r="1.388" transform="translate(678.703 661.085)" stroke="#000" stroke-linecap="round" stroke-linejoin="round" stroke-width="0.5"/>
  </g>
</svg>