<svg xmlns="http://www.w3.org/2000/svg" width="42.894" height="58.934" viewBox="0 0 42.894 58.934">
  <g id="Group_2441" data-name="Group 2441" transform="translate(-1436.865 -2220.455)">
    <g id="Group_2440" data-name="Group 2440">
      <path id="Path_5650" data-name="Path 5650" d="M1458.293,2234.728h0c-.668,0-1.822-.547-1.822-1.215l.607-11.844a1.218,1.218,0,0,1,1.215-1.214h0a1.218,1.218,0,0,1,1.215,1.214l.607,11.844C1460.115,2234.181,1458.961,2234.728,1458.293,2234.728Z" fill="#333744"/>
      <g id="Group_2410" data-name="Group 2410">
        <path id="Path_5651" data-name="Path 5651" d="M1457.948,2260.5h0c.668,0,1.822.723,1.822,1.607l-.608,15.67c0,.884-.546,1.607-1.214,1.607h0c-.668,0-1.215-.723-1.215-1.607l-.607-15.67C1456.126,2261.228,1457.28,2260.5,1457.948,2260.5Z" fill="#fd3704"/>
        <path id="Path_5652" data-name="Path 5652" d="M1463.126,2257.052h0c.669,0,1.822.723,1.822,1.607l-.607,15.671c0,.884-.546,1.607-1.215,1.607h0c-.668,0-1.214-.723-1.214-1.607l-.608-15.671C1461.3,2257.775,1462.458,2257.052,1463.126,2257.052Z" fill="#fd3704"/>
        <path id="Path_5653" data-name="Path 5653" d="M1452.769,2257.052h0c.668,0,1.822.723,1.822,1.607l-.608,15.671c0,.884-.546,1.607-1.214,1.607h0c-.668,0-1.215-.723-1.215-1.607l-.607-15.671C1450.947,2257.775,1452.1,2257.052,1452.769,2257.052Z" fill="#fd3704"/>
      </g>
      <circle id="Ellipse_262" data-name="Ellipse 262" cx="17.897" cy="17.897" r="17.897" transform="translate(1440.395 2232.389)" fill="#fff" stroke="#1d1e1c" stroke-linecap="round" stroke-linejoin="round" stroke-width="0.5"/>
      <g id="Group_2411" data-name="Group 2411">
        <rect id="Rectangle_337" data-name="Rectangle 337" width="3.778" height="3.463" rx="0.632" transform="translate(1440.643 2252.019) rotate(180)" fill="#282b38"/>
        <rect id="Rectangle_338" data-name="Rectangle 338" width="3.778" height="7.871" rx="0.689" transform="translate(1442.532 2254.223) rotate(-180)" fill="#62687c"/>
      </g>
      <g id="Group_2412" data-name="Group 2412">
        <rect id="Rectangle_339" data-name="Rectangle 339" width="3.778" height="3.463" rx="0.632" transform="translate(1475.981 2248.556)" fill="#282b38"/>
        <rect id="Rectangle_340" data-name="Rectangle 340" width="3.778" height="7.871" rx="0.689" transform="translate(1474.092 2246.352)" fill="#62687c"/>
      </g>
      <g id="Group_2439" data-name="Group 2439">
        <g id="Group_2413" data-name="Group 2413">
          <path id="Path_5654" data-name="Path 5654" d="M1461.773,2253.981h-7.033a.178.178,0,0,1-.178-.178v-7.033a.178.178,0,0,1,.178-.178h7.033a.179.179,0,0,1,.178.178v7.033A.179.179,0,0,1,1461.773,2253.981Zm-6.855-.356h6.677v-6.677h-6.677Z"/>
        </g>
        <g id="Group_2414" data-name="Group 2414">
          <path id="Path_5655" data-name="Path 5655" d="M1458.256,2252.744a.178.178,0,0,1-.126-.053l-2.279-2.279a.18.18,0,0,1,0-.252l2.279-2.279a.179.179,0,0,1,.252,0l2.279,2.279a.178.178,0,0,1,0,.252l-2.279,2.279A.176.176,0,0,1,1458.256,2252.744Zm-2.027-2.458,2.027,2.028,2.028-2.028-2.028-2.027Z"/>
        </g>
        <g id="Group_2417" data-name="Group 2417">
          <g id="Group_2415" data-name="Group 2415">
            <path id="Path_5656" data-name="Path 5656" d="M1465.069,2244.53a1.057,1.057,0,1,1,1.057-1.057A1.058,1.058,0,0,1,1465.069,2244.53Zm0-1.758a.7.7,0,1,0,.7.7A.7.7,0,0,0,1465.069,2242.772Z"/>
          </g>
          <g id="Group_2416" data-name="Group 2416">
            <path id="Path_5657" data-name="Path 5657" d="M1461.773,2246.948a.175.175,0,0,1-.126-.052.177.177,0,0,1,0-.252l2.68-2.679a.177.177,0,0,1,.252,0,.179.179,0,0,1,0,.252l-2.681,2.679A.174.174,0,0,1,1461.773,2246.948Z"/>
          </g>
        </g>
        <g id="Group_2420" data-name="Group 2420">
          <g id="Group_2418" data-name="Group 2418">
            <path id="Path_5658" data-name="Path 5658" d="M1451.517,2244.53a1.057,1.057,0,1,1,1.057-1.057A1.059,1.059,0,0,1,1451.517,2244.53Zm0-1.758a.7.7,0,1,0,.7.7A.7.7,0,0,0,1451.517,2242.772Z"/>
          </g>
          <g id="Group_2419" data-name="Group 2419">
            <path id="Path_5659" data-name="Path 5659" d="M1454.813,2246.948a.178.178,0,0,1-.126-.052l-2.68-2.679a.179.179,0,0,1,0-.252.177.177,0,0,1,.252,0l2.68,2.679a.178.178,0,0,1-.126.3Z"/>
          </g>
        </g>
        <g id="Group_2423" data-name="Group 2423">
          <g id="Group_2421" data-name="Group 2421">
            <path id="Path_5660" data-name="Path 5660" d="M1465.069,2258.156a1.057,1.057,0,1,1,1.057-1.057A1.058,1.058,0,0,1,1465.069,2258.156Zm0-1.758a.7.7,0,1,0,.7.7A.7.7,0,0,0,1465.069,2256.4Z"/>
          </g>
          <g id="Group_2422" data-name="Group 2422">
            <path id="Path_5661" data-name="Path 5661" d="M1464.453,2256.66a.18.18,0,0,1-.126-.052l-2.68-2.679a.178.178,0,0,1,.251-.252l2.681,2.679a.179.179,0,0,1,0,.252A.181.181,0,0,1,1464.453,2256.66Z"/>
          </g>
        </g>
        <g id="Group_2426" data-name="Group 2426">
          <g id="Group_2424" data-name="Group 2424">
            <path id="Path_5662" data-name="Path 5662" d="M1451.517,2258.156a1.057,1.057,0,1,1,1.057-1.057A1.059,1.059,0,0,1,1451.517,2258.156Zm0-1.758a.7.7,0,1,0,.7.7A.7.7,0,0,0,1451.517,2256.4Z"/>
          </g>
          <g id="Group_2425" data-name="Group 2425">
            <path id="Path_5663" data-name="Path 5663" d="M1452.133,2256.66a.178.178,0,0,1-.126-.3l2.68-2.679a.178.178,0,0,1,.252.252l-2.68,2.679A.18.18,0,0,1,1452.133,2256.66Z"/>
          </g>
        </g>
        <g id="Group_2429" data-name="Group 2429">
          <g id="Group_2427" data-name="Group 2427">
            <path id="Path_5664" data-name="Path 5664" d="M1456.787,2245a.174.174,0,0,1-.11-.038.178.178,0,0,1-.03-.25,2.278,2.278,0,0,1,3.521-.08.178.178,0,0,1-.27.233,1.923,1.923,0,0,0-2.971.067A.176.176,0,0,1,1456.787,2245Z"/>
          </g>
          <g id="Group_2428" data-name="Group 2428">
            <path id="Path_5665" data-name="Path 5665" d="M1456.046,2244.325a.175.175,0,0,1-.11-.038.178.178,0,0,1-.03-.25,3.238,3.238,0,0,1,5-.113.178.178,0,0,1-.27.232,2.882,2.882,0,0,0-4.453.1A.176.176,0,0,1,1456.046,2244.325Z"/>
          </g>
        </g>
        <g id="Group_2432" data-name="Group 2432">
          <g id="Group_2430" data-name="Group 2430">
            <path id="Path_5666" data-name="Path 5666" d="M1452.891,2252.139a.178.178,0,0,1-.11-.038,2.278,2.278,0,0,1-.08-3.521.178.178,0,0,1,.233.27,1.922,1.922,0,0,0,.067,2.971.178.178,0,0,1,.03.25A.176.176,0,0,1,1452.891,2252.139Z"/>
          </g>
          <g id="Group_2431" data-name="Group 2431">
            <path id="Path_5667" data-name="Path 5667" d="M1452.219,2252.88a.178.178,0,0,1-.11-.038,3.238,3.238,0,0,1-.113-5,.178.178,0,1,1,.232.27,2.882,2.882,0,0,0,.1,4.453.178.178,0,0,1,.03.25A.176.176,0,0,1,1452.219,2252.88Z"/>
          </g>
        </g>
        <g id="Group_2435" data-name="Group 2435">
          <g id="Group_2433" data-name="Group 2433">
            <path id="Path_5668" data-name="Path 5668" d="M1458.38,2256.84a2.278,2.278,0,0,1-1.728-.793.178.178,0,1,1,.27-.232,1.923,1.923,0,0,0,2.971-.068.178.178,0,1,1,.28.22A2.265,2.265,0,0,1,1458.38,2256.84Z"/>
          </g>
          <g id="Group_2434" data-name="Group 2434">
            <path id="Path_5669" data-name="Path 5669" d="M1458.366,2257.879a3.235,3.235,0,0,1-2.455-1.126.178.178,0,0,1,.27-.233,2.882,2.882,0,0,0,4.453-.1.178.178,0,1,1,.28.22A3.219,3.219,0,0,1,1458.366,2257.879Z"/>
          </g>
        </g>
        <g id="Group_2438" data-name="Group 2438">
          <g id="Group_2436" data-name="Group 2436">
            <path id="Path_5670" data-name="Path 5670" d="M1464,2252.139a.178.178,0,0,1-.116-.313,1.922,1.922,0,0,0-.068-2.971.178.178,0,0,1,.22-.28,2.278,2.278,0,0,1,.08,3.521A.178.178,0,0,1,1464,2252.139Z"/>
          </g>
          <g id="Group_2437" data-name="Group 2437">
            <path id="Path_5671" data-name="Path 5671" d="M1464.709,2252.88a.178.178,0,0,1-.117-.313,2.881,2.881,0,0,0-.1-4.453.178.178,0,0,1,.22-.28,3.238,3.238,0,0,1,.114,5A.177.177,0,0,1,1464.709,2252.88Z"/>
          </g>
        </g>
      </g>
    </g>
  </g>
</svg>
