<svg xmlns="http://www.w3.org/2000/svg" width="492.03" height="543.493" viewBox="0 0 492.03 543.493">
  <g id="Group_2577" data-name="Group 2577" transform="translate(-1407.509 -1907.664)">
    <g id="Group_2014" data-name="Group 2014">
      <rect id="Rectangle_272" data-name="Rectangle 272" width="64.188" height="64.188" transform="matrix(0.766, -0.643, 0.643, 0.766, 1728.184, 1949.265)" fill="none" stroke="#03a5ed" stroke-miterlimit="10" stroke-width="0.5"/>
      <rect id="Rectangle_273" data-name="Rectangle 273" width="27.867" height="27.867" transform="matrix(0.766, -0.643, 0.643, 0.766, 1733.714, 1981.801)" fill="none" stroke="#1c9be1" stroke-miterlimit="10" stroke-width="0.5"/>
      <rect id="Rectangle_274" data-name="Rectangle 274" width="8.454" height="8.454" transform="matrix(0.766, -0.643, 0.643, 0.766, 1727.334, 2013.293)" fill="none" stroke="#3591d5" stroke-miterlimit="10" stroke-width="0.5"/>
      <rect id="Rectangle_275" data-name="Rectangle 275" width="44.775" height="44.775" transform="matrix(0.766, -0.643, 0.643, 0.766, 1681.695, 2041.341)" fill="none" stroke="#4f87c9" stroke-miterlimit="10" stroke-width="0.5"/>
      <rect id="Rectangle_276" data-name="Rectangle 276" width="81.095" height="81.095" transform="matrix(0.766, -0.643, 0.643, 0.766, 1636.056, 2069.389)" fill="none" stroke="#687dbd" stroke-miterlimit="10" stroke-width="0.5"/>
      <rect id="Rectangle_277" data-name="Rectangle 277" width="117.416" height="117.416" transform="matrix(0.766, -0.643, 0.643, 0.766, 1590.417, 2097.438)" fill="none" stroke="#8174b0" stroke-miterlimit="10" stroke-width="0.5"/>
      <rect id="Rectangle_278" data-name="Rectangle 278" width="153.737" height="153.737" transform="matrix(0.766, -0.643, 0.643, 0.766, 1544.778, 2125.486)" fill="none" stroke="#9a6aa4" stroke-miterlimit="10" stroke-width="0.5"/>
      <rect id="Rectangle_279" data-name="Rectangle 279" width="190.058" height="190.058" transform="matrix(0.766, -0.643, 0.643, 0.766, 1499.139, 2153.535)" fill="none" stroke="#b46098" stroke-miterlimit="10" stroke-width="0.5"/>
      <rect id="Rectangle_280" data-name="Rectangle 280" width="226.379" height="226.379" transform="matrix(0.766, -0.643, 0.643, 0.766, 1453.5, 2181.583)" fill="none" stroke="#cd568c" stroke-miterlimit="10" stroke-width="0.5"/>
      <rect id="Rectangle_281" data-name="Rectangle 281" width="262.7" height="262.7" transform="matrix(0.766, -0.643, 0.643, 0.766, 1407.861, 2209.632)" fill="none" stroke="#e64c80" stroke-miterlimit="10" stroke-width="0.5"/>
    </g>
    <path id="Rectangle_282" data-name="Rectangle 282" d="M10.893,0h5.679A10.893,10.893,0,0,1,27.465,10.893v21.92a0,0,0,0,1,0,0H0a0,0,0,0,1,0,0V10.893A10.893,10.893,0,0,1,10.893,0Z" transform="translate(1785.593 1926.538)" fill="#fff" stroke="#1717b0" stroke-linecap="round" stroke-linejoin="round" stroke-width="0.5"/>
    <rect id="Rectangle_283" data-name="Rectangle 283" width="153.963" height="2.871" transform="translate(1590.362 2135.317)" fill="#fff" stroke="#1717b0" stroke-linecap="round" stroke-linejoin="round" stroke-width="0.5"/>
    <g id="Group_2017" data-name="Group 2017">
      <rect id="Rectangle_284" data-name="Rectangle 284" width="3.177" height="5.309" transform="translate(1656.362 2129.551)" fill="#fff" stroke="#1717b0" stroke-linecap="round" stroke-linejoin="round" stroke-width="0.5"/>
      <rect id="Rectangle_285" data-name="Rectangle 285" width="7.442" height="5.309" transform="translate(1654.229 2132.917)" fill="#fff" stroke="#1717b0" stroke-linecap="round" stroke-linejoin="round" stroke-width="0.5"/>
      <path id="Path_2353" data-name="Path 2353" d="M1671.751,2089.781v-12.839c0-3.5-6.333-6.342-14.145-6.342h0c-7.813,0-14.146,2.839-14.146,6.342v12.839Z" fill="#fff" stroke="#1717b0" stroke-linecap="round" stroke-linejoin="round" stroke-width="0.5"/>
      <path id="Path_2354" data-name="Path 2354" d="M1645.029,2089.937v125.4h25.153v-125.4Zm18.445,49.345h-11.737v-24.725a5.868,5.868,0,0,1,11.737,0Z" fill="#fff" stroke="#1717b0" stroke-linecap="round" stroke-linejoin="round" stroke-width="0.5"/>
      <rect id="Rectangle_286" data-name="Rectangle 286" width="32.001" height="2.673" transform="translate(1642.166 2094.758)" fill="#fff" stroke="#1717b0" stroke-linecap="round" stroke-linejoin="round" stroke-width="0.5"/>
      <rect id="Rectangle_287" data-name="Rectangle 287" width="32.001" height="2.673" transform="translate(1642.166 2088.444)" fill="#fff" stroke="#1717b0" stroke-linecap="round" stroke-linejoin="round" stroke-width="0.5"/>
      <rect id="Rectangle_288" data-name="Rectangle 288" width="31.568" height="2.452" transform="translate(1642.166 2103.918)" fill="#fff" stroke="#1717b0" stroke-linecap="round" stroke-linejoin="round" stroke-width="0.5"/>
      <rect id="Rectangle_289" data-name="Rectangle 289" width="31.568" height="2.452" transform="translate(1642.166 2137.834)" fill="#fff" stroke="#1717b0" stroke-linecap="round" stroke-linejoin="round" stroke-width="0.5"/>
    </g>
    <g id="Group_2018" data-name="Group 2018">
      <rect id="Rectangle_290" data-name="Rectangle 290" width="3.177" height="5.309" transform="translate(1578.543 2129.551)" fill="#fff" stroke="#1717b0" stroke-linecap="round" stroke-linejoin="round" stroke-width="0.5"/>
      <rect id="Rectangle_291" data-name="Rectangle 291" width="7.442" height="5.309" transform="translate(1576.411 2132.917)" fill="#fff" stroke="#1717b0" stroke-linecap="round" stroke-linejoin="round" stroke-width="0.5"/>
      <path id="Path_2355" data-name="Path 2355" d="M1593.933,2089.781v-12.839c0-3.5-6.333-6.342-14.146-6.342h0c-7.812,0-14.145,2.839-14.145,6.342v12.839Z" fill="#fff" stroke="#1717b0" stroke-linecap="round" stroke-linejoin="round" stroke-width="0.5"/>
      <path id="Path_2356" data-name="Path 2356" d="M1567.211,2089.937V2271.78h25.153V2089.937Zm18.445,49.345h-11.737v-24.725a5.869,5.869,0,0,1,11.737,0Z" fill="#fff" stroke="#1717b0" stroke-linecap="round" stroke-linejoin="round" stroke-width="0.5"/>
      <rect id="Rectangle_292" data-name="Rectangle 292" width="32.001" height="2.673" transform="translate(1564.348 2094.758)" fill="#fff" stroke="#1717b0" stroke-linecap="round" stroke-linejoin="round" stroke-width="0.5"/>
      <rect id="Rectangle_293" data-name="Rectangle 293" width="32.001" height="2.673" transform="translate(1564.348 2088.444)" fill="#fff" stroke="#1717b0" stroke-linecap="round" stroke-linejoin="round" stroke-width="0.5"/>
      <rect id="Rectangle_294" data-name="Rectangle 294" width="31.568" height="2.452" transform="translate(1564.348 2103.918)" fill="#fff" stroke="#1717b0" stroke-linecap="round" stroke-linejoin="round" stroke-width="0.5"/>
      <rect id="Rectangle_295" data-name="Rectangle 295" width="28.137" height="126.435" transform="translate(1566.063 2139.061)" fill="#fff" stroke="#1717b0" stroke-linecap="round" stroke-linejoin="round" stroke-width="0.5"/>
      <rect id="Rectangle_296" data-name="Rectangle 296" width="29.79" height="6.647" transform="translate(1565.237 2139.714)" fill="#fff" stroke="#1717b0" stroke-linecap="round" stroke-linejoin="round" stroke-width="0.5"/>
      <rect id="Rectangle_297" data-name="Rectangle 297" width="31.568" height="2.452" transform="translate(1564.348 2137.834)" fill="#fff" stroke="#1717b0" stroke-linecap="round" stroke-linejoin="round" stroke-width="0.5"/>
    </g>
    <g id="Group_2051" data-name="Group 2051">
      <g id="Group_2050" data-name="Group 2050">
        <path id="Path_2359" data-name="Path 2359" d="M1670.17,2172.658h0c-.4,0-1.1-.33-1.1-.734l.367-7.15a.736.736,0,0,1,.733-.734h0a.736.736,0,0,1,.734.734l.366,7.15C1671.27,2172.328,1670.574,2172.658,1670.17,2172.658Z" fill="#333744"/>
        <g id="Group_2020" data-name="Group 2020">
          <path id="Path_2360" data-name="Path 2360" d="M1669.962,2188.221h0c.4,0,1.1.436,1.1.97l-.367,9.461c0,.534-.33.971-.733.971h0c-.4,0-.734-.437-.734-.971l-.366-9.461C1668.862,2188.657,1669.558,2188.221,1669.962,2188.221Z" fill="#fd3704"/>
          <path id="Path_2361" data-name="Path 2361" d="M1673.089,2186.136h0c.4,0,1.1.437,1.1.97l-.367,9.462c0,.533-.33.97-.733.97h0a.88.88,0,0,1-.734-.97l-.367-9.462C1671.988,2186.573,1672.685,2186.136,1673.089,2186.136Z" fill="#fd3704"/>
          <path id="Path_2362" data-name="Path 2362" d="M1666.835,2186.136h0c.4,0,1.1.437,1.1.97l-.367,9.462c0,.533-.33.97-.733.97h0c-.4,0-.733-.437-.733-.97l-.367-9.462C1665.735,2186.573,1666.432,2186.136,1666.835,2186.136Z" fill="#fd3704"/>
        </g>
        <circle id="Ellipse_224" data-name="Ellipse 224" cx="10.806" cy="10.806" r="10.806" transform="translate(1659.365 2171.246)" fill="#fff" stroke="#1d1e1c" stroke-linecap="round" stroke-linejoin="round" stroke-width="0.5"/>
        <g id="Group_2021" data-name="Group 2021">
          <rect id="Rectangle_306" data-name="Rectangle 306" width="2.281" height="2.091" rx="0.632" transform="translate(1659.514 2183.098) rotate(180)" fill="#282b38"/>
          <rect id="Rectangle_307" data-name="Rectangle 307" width="2.281" height="4.752" rx="0.689" transform="translate(1660.655 2184.428) rotate(-180)" fill="#62687c"/>
        </g>
        <g id="Group_2022" data-name="Group 2022">
          <rect id="Rectangle_308" data-name="Rectangle 308" width="2.281" height="2.091" rx="0.632" transform="translate(1680.849 2181.007)" fill="#282b38"/>
          <rect id="Rectangle_309" data-name="Rectangle 309" width="2.281" height="4.752" rx="0.689" transform="translate(1679.709 2179.676)" fill="#62687c"/>
        </g>
        <g id="Group_2049" data-name="Group 2049">
          <g id="Group_2023" data-name="Group 2023">
            <path id="Path_2363" data-name="Path 2363" d="M1672.271,2184.282h-4.246a.107.107,0,0,1-.107-.108v-4.246a.107.107,0,0,1,.107-.107h4.246a.107.107,0,0,1,.108.107v4.246A.108.108,0,0,1,1672.271,2184.282Zm-4.138-.215h4.031v-4.031h-4.031Z"/>
          </g>
          <g id="Group_2024" data-name="Group 2024">
            <path id="Path_2364" data-name="Path 2364" d="M1670.148,2183.535a.108.108,0,0,1-.076-.032l-1.376-1.376a.107.107,0,0,1,0-.152l1.376-1.376a.107.107,0,0,1,.152,0l1.376,1.376a.107.107,0,0,1,0,.152l-1.376,1.376A.107.107,0,0,1,1670.148,2183.535Zm-1.224-1.484,1.224,1.224,1.224-1.224-1.224-1.224Z"/>
          </g>
          <g id="Group_2027" data-name="Group 2027">
            <g id="Group_2025" data-name="Group 2025">
              <path id="Path_2365" data-name="Path 2365" d="M1674.261,2178.576a.638.638,0,1,1,.639-.638A.639.639,0,0,1,1674.261,2178.576Zm0-1.061a.423.423,0,1,0,.424.423A.424.424,0,0,0,1674.261,2177.515Z"/>
            </g>
            <g id="Group_2026" data-name="Group 2026">
              <path id="Path_2366" data-name="Path 2366" d="M1672.271,2180.036a.109.109,0,0,1-.076-.032.107.107,0,0,1,0-.152l1.618-1.617a.107.107,0,0,1,.152.152l-1.618,1.617A.107.107,0,0,1,1672.271,2180.036Z"/>
            </g>
          </g>
          <g id="Group_2030" data-name="Group 2030">
            <g id="Group_2028" data-name="Group 2028">
              <path id="Path_2367" data-name="Path 2367" d="M1666.079,2178.576a.638.638,0,1,1,.638-.638A.638.638,0,0,1,1666.079,2178.576Zm0-1.061a.423.423,0,1,0,.423.423A.424.424,0,0,0,1666.079,2177.515Z"/>
            </g>
            <g id="Group_2029" data-name="Group 2029">
              <path id="Path_2368" data-name="Path 2368" d="M1668.069,2180.036a.108.108,0,0,1-.076-.032l-1.618-1.617a.107.107,0,0,1,.152-.152l1.618,1.617a.108.108,0,0,1-.076.184Z"/>
            </g>
          </g>
          <g id="Group_2033" data-name="Group 2033">
            <g id="Group_2031" data-name="Group 2031">
              <path id="Path_2369" data-name="Path 2369" d="M1674.261,2186.8a.639.639,0,1,1,.639-.638A.639.639,0,0,1,1674.261,2186.8Zm0-1.062a.423.423,0,1,0,.424.424A.424.424,0,0,0,1674.261,2185.741Z"/>
            </g>
            <g id="Group_2032" data-name="Group 2032">
              <path id="Path_2370" data-name="Path 2370" d="M1673.889,2185.9a.108.108,0,0,1-.076-.031l-1.618-1.618a.108.108,0,1,1,.152-.152l1.618,1.618a.107.107,0,0,1,0,.152A.106.106,0,0,1,1673.889,2185.9Z"/>
            </g>
          </g>
          <g id="Group_2036" data-name="Group 2036">
            <g id="Group_2034" data-name="Group 2034">
              <path id="Path_2371" data-name="Path 2371" d="M1666.079,2186.8a.639.639,0,1,1,.638-.638A.638.638,0,0,1,1666.079,2186.8Zm0-1.062a.423.423,0,1,0,.423.424A.424.424,0,0,0,1666.079,2185.741Z"/>
            </g>
            <g id="Group_2035" data-name="Group 2035">
              <path id="Path_2372" data-name="Path 2372" d="M1666.451,2185.9a.107.107,0,0,1-.076-.183l1.618-1.618a.108.108,0,0,1,.152.152l-1.618,1.618A.106.106,0,0,1,1666.451,2185.9Z"/>
            </g>
          </g>
          <g id="Group_2039" data-name="Group 2039">
            <g id="Group_2037" data-name="Group 2037">
              <path id="Path_2373" data-name="Path 2373" d="M1669.261,2178.858a.1.1,0,0,1-.066-.023.107.107,0,0,1-.018-.151,1.375,1.375,0,0,1,2.125-.048.107.107,0,0,1-.011.151.108.108,0,0,1-.152-.011,1.16,1.16,0,0,0-1.793.041A.109.109,0,0,1,1669.261,2178.858Z"/>
            </g>
            <g id="Group_2038" data-name="Group 2038">
              <path id="Path_2374" data-name="Path 2374" d="M1668.814,2178.452a.1.1,0,0,1-.067-.023.108.108,0,0,1-.018-.151,1.956,1.956,0,0,1,3.021-.068.107.107,0,0,1-.011.151.108.108,0,0,1-.152-.011,1.739,1.739,0,0,0-2.689.061A.107.107,0,0,1,1668.814,2178.452Z"/>
            </g>
          </g>
          <g id="Group_2042" data-name="Group 2042">
            <g id="Group_2040" data-name="Group 2040">
              <path id="Path_2375" data-name="Path 2375" d="M1666.909,2183.17a.1.1,0,0,1-.066-.023,1.377,1.377,0,0,1-.049-2.126.108.108,0,0,1,.152.012.107.107,0,0,1-.011.151,1.162,1.162,0,0,0,.04,1.794.107.107,0,0,1-.066.192Z"/>
            </g>
            <g id="Group_2041" data-name="Group 2041">
              <path id="Path_2376" data-name="Path 2376" d="M1666.5,2183.617a.108.108,0,0,1-.066-.022,1.955,1.955,0,0,1-.069-3.021.107.107,0,1,1,.14.163,1.739,1.739,0,0,0,.062,2.688.109.109,0,0,1,.018.151A.107.107,0,0,1,1666.5,2183.617Z"/>
            </g>
          </g>
          <g id="Group_2045" data-name="Group 2045">
            <g id="Group_2043" data-name="Group 2043">
              <path id="Path_2377" data-name="Path 2377" d="M1670.223,2186.008a1.371,1.371,0,0,1-1.043-.479.106.106,0,0,1,.011-.151.108.108,0,0,1,.152.011,1.16,1.16,0,0,0,1.793-.041.108.108,0,0,1,.17.133A1.37,1.37,0,0,1,1670.223,2186.008Z"/>
            </g>
            <g id="Group_2044" data-name="Group 2044">
              <path id="Path_2378" data-name="Path 2378" d="M1670.214,2186.636a1.952,1.952,0,0,1-1.482-.681.107.107,0,0,1,.163-.14,1.739,1.739,0,0,0,2.689-.061.108.108,0,0,1,.169.133A1.945,1.945,0,0,1,1670.214,2186.636Z"/>
            </g>
          </g>
          <g id="Group_2048" data-name="Group 2048">
            <g id="Group_2046" data-name="Group 2046">
              <path id="Path_2379" data-name="Path 2379" d="M1673.618,2183.17a.107.107,0,0,1-.07-.189,1.161,1.161,0,0,0-.041-1.794.107.107,0,0,1,.132-.169,1.375,1.375,0,0,1,.049,2.126A.111.111,0,0,1,1673.618,2183.17Z"/>
            </g>
            <g id="Group_2047" data-name="Group 2047">
              <path id="Path_2380" data-name="Path 2380" d="M1674.044,2183.617a.107.107,0,0,1-.07-.188,1.74,1.74,0,0,0-.062-2.689.109.109,0,0,1-.018-.151.107.107,0,0,1,.151-.018,1.954,1.954,0,0,1,.069,3.02A.1.1,0,0,1,1674.044,2183.617Z"/>
            </g>
          </g>
        </g>
      </g>
    </g>
    <g id="Group_2052" data-name="Group 2052">
      <path id="Path_2381" data-name="Path 2381" d="M1521.665,2306.182a8.272,8.272,0,0,1-8.272-8.272,36.069,36.069,0,0,1,36.029-36.028h29.664a19.507,19.507,0,0,0,19.485-19.485,36.069,36.069,0,0,1,36.028-36.028h89.181a8.272,8.272,0,0,1,0,16.543H1634.6a19.507,19.507,0,0,0-19.485,19.485,36.069,36.069,0,0,1-36.028,36.028h-29.664a19.509,19.509,0,0,0-19.486,19.485A8.271,8.271,0,0,1,1521.665,2306.182Z" fill="#fff" stroke="#1717b0" stroke-linecap="round" stroke-linejoin="round" stroke-width="0.5"/>
    </g>
    <rect id="Rectangle_310" data-name="Rectangle 310" width="43.261" height="13.355" transform="translate(1769.625 1974.415) rotate(90)" fill="#fff" stroke="#1717b0" stroke-linecap="round" stroke-linejoin="round" stroke-width="0.5"/>
    <rect id="Rectangle_311" data-name="Rectangle 311" width="43.261" height="13.355" transform="translate(1841.302 1974.415) rotate(90)" fill="#fff" stroke="#1717b0" stroke-linecap="round" stroke-linejoin="round" stroke-width="0.5"/>
    <rect id="Rectangle_341" data-name="Rectangle 341" width="116.234" height="325.563" transform="translate(1741.396 2019.409)" fill="#fff" stroke="#1717b0" stroke-linecap="round" stroke-linejoin="round" stroke-width="0.5"/>
    <path id="Rectangle_342" data-name="Rectangle 342" d="M10.462,0h5.454A10.462,10.462,0,0,1,26.378,10.462V45.97a0,0,0,0,1,0,0H0a0,0,0,0,1,0,0V10.462A10.462,10.462,0,0,1,10.462,0Z" transform="translate(1786.737 2074.51)" fill="#fff" stroke="#1717b0" stroke-linecap="round" stroke-linejoin="round" stroke-width="0.5"/>
    <rect id="Rectangle_343" data-name="Rectangle 343" width="70.583" height="6.164" transform="translate(1764.677 2120.576)" fill="#fff" stroke="#1717b0" stroke-linecap="round" stroke-linejoin="round" stroke-width="0.5"/>
    <rect id="Rectangle_344" data-name="Rectangle 344" width="84.877" height="6.164" transform="translate(1757.53 2126.204)" fill="#fff" stroke="#1717b0" stroke-linecap="round" stroke-linejoin="round" stroke-width="0.5"/>
    <rect id="Rectangle_345" data-name="Rectangle 345" width="103.663" height="6.164" transform="translate(1748.137 2132.57)" fill="#fff" stroke="#1717b0" stroke-linecap="round" stroke-linejoin="round" stroke-width="0.5"/>
    <rect id="Rectangle_346" data-name="Rectangle 346" width="117.791" height="6.164" transform="translate(1741.073 2138.936)" fill="#fff" stroke="#1717b0" stroke-linecap="round" stroke-linejoin="round" stroke-width="0.5"/>
    <rect id="Rectangle_347" data-name="Rectangle 347" width="135.024" height="6.164" transform="translate(1732.457 2145.302)" fill="#fff" stroke="#1717b0" stroke-linecap="round" stroke-linejoin="round" stroke-width="0.5"/>
    <rect id="Rectangle_348" data-name="Rectangle 348" width="156.144" height="6.164" transform="translate(1721.897 2151.668)" fill="#fff" stroke="#1717b0" stroke-linecap="round" stroke-linejoin="round" stroke-width="0.5"/>
    <rect id="Rectangle_349" data-name="Rectangle 349" width="187.854" height="292.873" transform="translate(1706.042 2158.034)" fill="#fff" stroke="#1717b0" stroke-linecap="round" stroke-linejoin="round" stroke-width="0.5"/>
    <rect id="Rectangle_350" data-name="Rectangle 350" width="126.642" height="6.006" transform="translate(1736.182 2030.244)" fill="#fff" stroke="#1717b0" stroke-linecap="round" stroke-linejoin="round" stroke-width="0.5"/>
    <rect id="Rectangle_351" data-name="Rectangle 351" width="126.642" height="6.006" transform="translate(1736.182 2016.055)" fill="#fff" stroke="#1717b0" stroke-linecap="round" stroke-linejoin="round" stroke-width="0.5"/>
    <path id="Rectangle_352" data-name="Rectangle 352" d="M10.462,0h5.454A10.462,10.462,0,0,1,26.378,10.462V68.754a0,0,0,0,1,0,0H0a0,0,0,0,1,0,0V10.462A10.462,10.462,0,0,1,10.462,0Z" transform="translate(1747.813 2201.911)" fill="#fff" stroke="#1717b0" stroke-linecap="round" stroke-linejoin="round" stroke-width="0.5"/>
    <path id="Rectangle_353" data-name="Rectangle 353" d="M13.553,0h8A13.553,13.553,0,0,1,35.109,13.553V69.8a0,0,0,0,1,0,0H0a0,0,0,0,1,0,0V13.553A13.553,13.553,0,0,1,13.553,0Z" transform="translate(1577.833 2294.702)" fill="#fff" stroke="#1717b0" stroke-linecap="round" stroke-linejoin="round" stroke-width="0.5"/>
    <path id="Rectangle_354" data-name="Rectangle 354" d="M13.553,0h8A13.553,13.553,0,0,1,35.109,13.553V69.8a0,0,0,0,1,0,0H0a0,0,0,0,1,0,0V13.553A13.553,13.553,0,0,1,13.553,0Z" transform="translate(1737.143 2294.702)" fill="#fff" stroke="#1717b0" stroke-linecap="round" stroke-linejoin="round" stroke-width="0.5"/>
    <path id="Rectangle_355" data-name="Rectangle 355" d="M10.462,0h5.454A10.462,10.462,0,0,1,26.378,10.462V68.754a0,0,0,0,1,0,0H0a0,0,0,0,1,0,0V10.462A10.462,10.462,0,0,1,10.462,0Z" transform="translate(1788.005 2201.911)" fill="#fff" stroke="#1717b0" stroke-linecap="round" stroke-linejoin="round" stroke-width="0.5"/>
    <path id="Rectangle_356" data-name="Rectangle 356" d="M10.462,0h5.454A10.462,10.462,0,0,1,26.378,10.462V68.754a0,0,0,0,1,0,0H0a0,0,0,0,1,0,0V10.462A10.462,10.462,0,0,1,10.462,0Z" transform="translate(1828.197 2201.911)" fill="#fff" stroke="#1717b0" stroke-linecap="round" stroke-linejoin="round" stroke-width="0.5"/>
    <rect id="Rectangle_357" data-name="Rectangle 357" width="124.928" height="5.511" transform="translate(1736.182 2050.831)" fill="#fff" stroke="#1717b0" stroke-linecap="round" stroke-linejoin="round" stroke-width="0.5"/>
    <rect id="Rectangle_358" data-name="Rectangle 358" width="345.266" height="12.188" transform="translate(1554.022 2358.312)" fill="#fff" stroke="#1717b0" stroke-linecap="round" stroke-linejoin="round" stroke-width="0.5"/>
    <rect id="Rectangle_359" data-name="Rectangle 359" width="197.789" height="13.188" transform="translate(1701.5 2164.312)" fill="#fff" stroke="#1717b0" stroke-linecap="round" stroke-linejoin="round" stroke-width="0.5"/>
    <g id="Group_2510" data-name="Group 2510">
      <path id="Path_5690" data-name="Path 5690" d="M1764.593,2073.078h0c-.372,0-1.015-.3-1.015-.676l.338-6.594a.679.679,0,0,1,.677-.677h0a.679.679,0,0,1,.676.677l.338,6.594C1765.607,2072.774,1764.965,2073.078,1764.593,2073.078Z" fill="#333744"/>
      <rect id="Rectangle_370" data-name="Rectangle 370" width="2.029" height="1.86" rx="0.738" transform="translate(1772.032 2076.967)" fill="#282b38"/>
      <rect id="Rectangle_371" data-name="Rectangle 371" width="2.029" height="4.227" rx="0.805" transform="translate(1771.018 2075.784)" fill="#62687c"/>
      <rect id="Rectangle_372" data-name="Rectangle 372" width="2.029" height="1.86" rx="0.738" transform="translate(1757.322 2078.827) rotate(180)" fill="#282b38"/>
      <rect id="Rectangle_373" data-name="Rectangle 373" width="2.029" height="4.227" rx="0.805" transform="translate(1758.337 2080.01) rotate(-180)" fill="#62687c"/>
      <rect id="Rectangle_374" data-name="Rectangle 374" width="13.982" height="29.589" rx="5.545" transform="translate(1757.649 2071.387)" fill="#bdccd4"/>
      <g id="Group_2482" data-name="Group 2482">
        <rect id="Rectangle_375" data-name="Rectangle 375" width="9.267" height="1.788" rx="0.709" transform="translate(1760.007 2087.727)" fill="#8cc63f"/>
        <rect id="Rectangle_376" data-name="Rectangle 376" width="9.267" height="1.788" rx="0.709" transform="translate(1760.007 2090.49)" fill="#8cc63f"/>
        <rect id="Rectangle_377" data-name="Rectangle 377" width="9.267" height="1.788" rx="0.709" transform="translate(1760.007 2093.417)" fill="#8cc63f"/>
        <rect id="Rectangle_378" data-name="Rectangle 378" width="9.267" height="1.788" rx="0.709" transform="translate(1760.007 2096.506)" fill="#8cc63f"/>
      </g>
      <g id="Group_2509" data-name="Group 2509">
        <g id="Group_2483" data-name="Group 2483">
          <path id="Path_5691" data-name="Path 5691" d="M1766.509,2082.515h-3.777a.1.1,0,0,1-.1-.1v-3.776a.1.1,0,0,1,.1-.1h3.777a.1.1,0,0,1,.1.1v3.776A.1.1,0,0,1,1766.509,2082.515Zm-3.681-.191h3.585v-3.586h-3.585Z"/>
        </g>
        <g id="Group_2484" data-name="Group 2484">
          <path id="Path_5692" data-name="Path 5692" d="M1764.621,2081.851a.1.1,0,0,1-.068-.028l-1.224-1.224a.1.1,0,0,1,0-.136l1.224-1.224a.1.1,0,0,1,.135,0l1.224,1.224a.1.1,0,0,1,0,.136l-1.224,1.224A.1.1,0,0,1,1764.621,2081.851Zm-1.089-1.32,1.089,1.089,1.088-1.089-1.088-1.089Z"/>
        </g>
        <g id="Group_2487" data-name="Group 2487">
          <g id="Group_2485" data-name="Group 2485">
            <path id="Path_5693" data-name="Path 5693" d="M1768.279,2077.44a.568.568,0,1,1,.568-.568A.568.568,0,0,1,1768.279,2077.44Zm0-.944a.376.376,0,1,0,.377.376A.377.377,0,0,0,1768.279,2076.5Z"/>
          </g>
          <g id="Group_2486" data-name="Group 2486">
            <path id="Path_5694" data-name="Path 5694" d="M1766.509,2078.738a.1.1,0,0,1-.068-.163l1.44-1.439a.1.1,0,1,1,.135.136l-1.439,1.438A.1.1,0,0,1,1766.509,2078.738Z"/>
          </g>
        </g>
        <g id="Group_2490" data-name="Group 2490">
          <g id="Group_2488" data-name="Group 2488">
            <path id="Path_5695" data-name="Path 5695" d="M1761,2077.44a.568.568,0,1,1,.568-.568A.568.568,0,0,1,1761,2077.44Zm0-.944a.376.376,0,1,0,.377.376A.377.377,0,0,0,1761,2076.5Z"/>
          </g>
          <g id="Group_2489" data-name="Group 2489">
            <path id="Path_5696" data-name="Path 5696" d="M1762.772,2078.738a.094.094,0,0,1-.068-.028l-1.439-1.438a.1.1,0,1,1,.135-.136l1.439,1.439a.094.094,0,0,1,0,.135A.092.092,0,0,1,1762.772,2078.738Z"/>
          </g>
        </g>
        <g id="Group_2493" data-name="Group 2493">
          <g id="Group_2491" data-name="Group 2491">
            <path id="Path_5697" data-name="Path 5697" d="M1768.279,2084.758a.568.568,0,1,1,.568-.568A.568.568,0,0,1,1768.279,2084.758Zm0-.945a.376.376,0,1,0,.377.377A.377.377,0,0,0,1768.279,2083.813Z"/>
          </g>
          <g id="Group_2492" data-name="Group 2492">
            <path id="Path_5698" data-name="Path 5698" d="M1767.948,2083.954a.092.092,0,0,1-.067-.028l-1.44-1.439a.1.1,0,0,1,.136-.135l1.439,1.439a.1.1,0,0,1,0,.135A.094.094,0,0,1,1767.948,2083.954Z"/>
          </g>
        </g>
        <g id="Group_2496" data-name="Group 2496">
          <g id="Group_2494" data-name="Group 2494">
            <path id="Path_5699" data-name="Path 5699" d="M1761,2084.758a.568.568,0,1,1,.568-.568A.568.568,0,0,1,1761,2084.758Zm0-.945a.376.376,0,1,0,.377.377A.377.377,0,0,0,1761,2083.813Z"/>
          </g>
          <g id="Group_2495" data-name="Group 2495">
            <path id="Path_5700" data-name="Path 5700" d="M1761.332,2083.954a.092.092,0,0,1-.067-.028.094.094,0,0,1,0-.135l1.439-1.439a.1.1,0,0,1,.135,0,.094.094,0,0,1,0,.135l-1.439,1.439A.094.094,0,0,1,1761.332,2083.954Z"/>
          </g>
        </g>
        <g id="Group_2499" data-name="Group 2499">
          <g id="Group_2497" data-name="Group 2497">
            <path id="Path_5701" data-name="Path 5701" d="M1763.832,2077.691a.092.092,0,0,1-.059-.021.1.1,0,0,1-.017-.134,1.223,1.223,0,0,1,1.891-.043.1.1,0,1,1-.145.125,1.033,1.033,0,0,0-1.595.036A.1.1,0,0,1,1763.832,2077.691Z"/>
          </g>
          <g id="Group_2498" data-name="Group 2498">
            <path id="Path_5702" data-name="Path 5702" d="M1763.434,2077.33a.093.093,0,0,1-.059-.021.1.1,0,0,1-.017-.134,1.739,1.739,0,0,1,2.687-.061.1.1,0,1,1-.145.125,1.547,1.547,0,0,0-2.391.054A.1.1,0,0,1,1763.434,2077.33Z"/>
          </g>
        </g>
        <g id="Group_2502" data-name="Group 2502">
          <g id="Group_2500" data-name="Group 2500">
            <path id="Path_5703" data-name="Path 5703" d="M1761.739,2081.526a.1.1,0,0,1-.059-.02,1.225,1.225,0,0,1-.043-1.891.1.1,0,0,1,.125.145,1.033,1.033,0,0,0,.036,1.595.1.1,0,0,1,.017.135A.1.1,0,0,1,1761.739,2081.526Z"/>
          </g>
          <g id="Group_2501" data-name="Group 2501">
            <path id="Path_5704" data-name="Path 5704" d="M1761.378,2081.924a.092.092,0,0,1-.058-.02,1.738,1.738,0,0,1-.062-2.687.1.1,0,0,1,.125.145,1.547,1.547,0,0,0,.055,2.391.1.1,0,0,1,.016.135A.1.1,0,0,1,1761.378,2081.924Z"/>
          </g>
        </g>
        <g id="Group_2505" data-name="Group 2505">
          <g id="Group_2503" data-name="Group 2503">
            <path id="Path_5705" data-name="Path 5705" d="M1764.687,2084.051a1.225,1.225,0,0,1-.928-.426.1.1,0,0,1,.145-.125,1.034,1.034,0,0,0,1.6-.036.1.1,0,1,1,.15.118A1.218,1.218,0,0,1,1764.687,2084.051Z"/>
          </g>
          <g id="Group_2504" data-name="Group 2504">
            <path id="Path_5706" data-name="Path 5706" d="M1764.68,2084.609a1.741,1.741,0,0,1-1.319-.6.1.1,0,1,1,.145-.125,1.548,1.548,0,0,0,2.392-.054.1.1,0,0,1,.134-.017.1.1,0,0,1,.016.135A1.73,1.73,0,0,1,1764.68,2084.609Z"/>
          </g>
        </g>
        <g id="Group_2508" data-name="Group 2508">
          <g id="Group_2506" data-name="Group 2506">
            <path id="Path_5707" data-name="Path 5707" d="M1767.707,2081.526a.1.1,0,0,1-.063-.168,1.031,1.031,0,0,0-.036-1.595.1.1,0,0,1,.118-.151,1.223,1.223,0,0,1,.043,1.891A.092.092,0,0,1,1767.707,2081.526Z"/>
          </g>
          <g id="Group_2507" data-name="Group 2507">
            <path id="Path_5708" data-name="Path 5708" d="M1768.086,2081.924a.1.1,0,0,1-.063-.168,1.547,1.547,0,0,0-.054-2.391.1.1,0,1,1,.118-.151,1.739,1.739,0,0,1,.061,2.687A.091.091,0,0,1,1768.086,2081.924Z"/>
          </g>
        </g>
      </g>
    </g>
    <g id="Group_2540" data-name="Group 2540">
      <g id="Group_2539" data-name="Group 2539">
        <path id="Path_5709" data-name="Path 5709" d="M1876.588,2204.794h0c-.346,0-.944-.283-.944-.629l.315-6.136a.631.631,0,0,1,.629-.629h0a.631.631,0,0,1,.629.629l.315,6.136C1877.532,2204.511,1876.934,2204.794,1876.588,2204.794Z" fill="#333744"/>
        <g id="Group_2511" data-name="Group 2511">
          <rect id="Rectangle_379" data-name="Rectangle 379" width="1.957" height="1.794" rx="0.712" transform="translate(1885.646 2208.38)" fill="#282b38"/>
          <rect id="Rectangle_380" data-name="Rectangle 380" width="1.957" height="4.078" rx="0.776" transform="translate(1884.668 2207.239)" fill="#62687c"/>
        </g>
        <rect id="Rectangle_381" data-name="Rectangle 381" width="17.528" height="23.609" rx="4.948" transform="translate(1867.824 2203.964)" fill="#fff" stroke="#1d1e1c" stroke-linecap="round" stroke-linejoin="round" stroke-width="0.5"/>
        <g id="Group_2538" data-name="Group 2538">
          <g id="Group_2512" data-name="Group 2512">
            <path id="Path_5710" data-name="Path 5710" d="M1878.391,2221.922h-3.643a.093.093,0,0,1-.093-.092v-3.643a.093.093,0,0,1,.093-.093h3.643a.093.093,0,0,1,.092.093v3.643A.092.092,0,0,1,1878.391,2221.922Zm-3.551-.184h3.459v-3.459h-3.459Z"/>
          </g>
          <g id="Group_2513" data-name="Group 2513">
            <path id="Path_5711" data-name="Path 5711" d="M1876.569,2221.281a.092.092,0,0,1-.065-.027l-1.181-1.181a.092.092,0,0,1,0-.13l1.181-1.181a.092.092,0,0,1,.13,0l1.181,1.181a.092.092,0,0,1,0,.13l-1.181,1.181A.091.091,0,0,1,1876.569,2221.281Zm-1.05-1.273,1.05,1.051,1.05-1.051-1.05-1.05Z"/>
          </g>
          <g id="Group_2516" data-name="Group 2516">
            <g id="Group_2514" data-name="Group 2514">
              <path id="Path_5712" data-name="Path 5712" d="M1880.1,2217.026a.547.547,0,1,1,.547-.547A.548.548,0,0,1,1880.1,2217.026Zm0-.91a.363.363,0,1,0,.363.363A.364.364,0,0,0,1880.1,2216.116Z"/>
            </g>
            <g id="Group_2515" data-name="Group 2515">
              <path id="Path_5713" data-name="Path 5713" d="M1878.391,2218.279a.09.09,0,0,1-.065-.027.093.093,0,0,1,0-.131l1.388-1.388a.092.092,0,0,1,.13,0,.093.093,0,0,1,0,.131l-1.388,1.388A.093.093,0,0,1,1878.391,2218.279Z"/>
            </g>
          </g>
          <g id="Group_2519" data-name="Group 2519">
            <g id="Group_2517" data-name="Group 2517">
              <path id="Path_5714" data-name="Path 5714" d="M1873.078,2217.026a.547.547,0,1,1,.547-.547A.548.548,0,0,1,1873.078,2217.026Zm0-.91a.363.363,0,1,0,.363.363A.363.363,0,0,0,1873.078,2216.116Z"/>
            </g>
            <g id="Group_2518" data-name="Group 2518">
              <path id="Path_5715" data-name="Path 5715" d="M1874.785,2218.279a.092.092,0,0,1-.065-.027l-1.388-1.388a.093.093,0,0,1,0-.131.092.092,0,0,1,.13,0l1.389,1.388a.093.093,0,0,1-.066.158Z"/>
            </g>
          </g>
          <g id="Group_2522" data-name="Group 2522">
            <g id="Group_2520" data-name="Group 2520">
              <path id="Path_5716" data-name="Path 5716" d="M1880.1,2224.085a.547.547,0,1,1,.547-.547A.548.548,0,0,1,1880.1,2224.085Zm0-.911a.363.363,0,1,0,.363.364A.364.364,0,0,0,1880.1,2223.174Z"/>
            </g>
            <g id="Group_2521" data-name="Group 2521">
              <path id="Path_5717" data-name="Path 5717" d="M1879.779,2223.31a.092.092,0,0,1-.065-.027l-1.388-1.388a.092.092,0,1,1,.13-.13l1.388,1.388a.092.092,0,0,1,0,.13A.091.091,0,0,1,1879.779,2223.31Z"/>
            </g>
          </g>
          <g id="Group_2525" data-name="Group 2525">
            <g id="Group_2523" data-name="Group 2523">
              <path id="Path_5718" data-name="Path 5718" d="M1873.078,2224.085a.547.547,0,1,1,.547-.547A.548.548,0,0,1,1873.078,2224.085Zm0-.911a.363.363,0,1,0,.363.364A.363.363,0,0,0,1873.078,2223.174Z"/>
            </g>
            <g id="Group_2524" data-name="Group 2524">
              <path id="Path_5719" data-name="Path 5719" d="M1873.4,2223.31a.091.091,0,0,1-.065-.027.092.092,0,0,1,0-.13l1.388-1.388a.093.093,0,0,1,.131,0,.092.092,0,0,1,0,.13l-1.389,1.388A.091.091,0,0,1,1873.4,2223.31Z"/>
            </g>
          </g>
          <g id="Group_2528" data-name="Group 2528">
            <g id="Group_2526" data-name="Group 2526">
              <path id="Path_5720" data-name="Path 5720" d="M1875.808,2217.268a.092.092,0,0,1-.073-.149,1.182,1.182,0,0,1,1.825-.041.093.093,0,0,1-.01.13.092.092,0,0,1-.13-.01,1,1,0,0,0-1.539.035A.094.094,0,0,1,1875.808,2217.268Z"/>
            </g>
            <g id="Group_2527" data-name="Group 2527">
              <path id="Path_5721" data-name="Path 5721" d="M1875.424,2216.92a.091.091,0,0,1-.072-.149,1.676,1.676,0,0,1,2.591-.059.092.092,0,1,1-.139.12,1.493,1.493,0,0,0-2.307.053A.1.1,0,0,1,1875.424,2216.92Z"/>
            </g>
          </g>
          <g id="Group_2531" data-name="Group 2531">
            <g id="Group_2529" data-name="Group 2529">
              <path id="Path_5722" data-name="Path 5722" d="M1873.79,2220.968a.089.089,0,0,1-.057-.02,1.181,1.181,0,0,1-.042-1.824.094.094,0,0,1,.131.01.093.093,0,0,1-.01.13,1,1,0,0,0,.035,1.539.093.093,0,0,1,.015.13A.092.092,0,0,1,1873.79,2220.968Z"/>
            </g>
            <g id="Group_2530" data-name="Group 2530">
              <path id="Path_5723" data-name="Path 5723" d="M1873.442,2221.352a.089.089,0,0,1-.057-.02,1.677,1.677,0,0,1-.059-2.592.093.093,0,0,1,.13.01.092.092,0,0,1-.01.13,1.493,1.493,0,0,0,.053,2.307.092.092,0,0,1,.015.13A.091.091,0,0,1,1873.442,2221.352Z"/>
            </g>
          </g>
          <g id="Group_2534" data-name="Group 2534">
            <g id="Group_2532" data-name="Group 2532">
              <path id="Path_5724" data-name="Path 5724" d="M1876.633,2223.4a1.18,1.18,0,0,1-.9-.41.092.092,0,1,1,.14-.121,1,1,0,0,0,1.539-.035.093.093,0,0,1,.13-.015.091.091,0,0,1,.015.129A1.174,1.174,0,0,1,1876.633,2223.4Z"/>
            </g>
            <g id="Group_2533" data-name="Group 2533">
              <path id="Path_5725" data-name="Path 5725" d="M1876.626,2223.942a1.676,1.676,0,0,1-1.272-.584.092.092,0,0,1,.14-.12,1.493,1.493,0,0,0,2.307-.053.092.092,0,1,1,.145.114A1.667,1.667,0,0,1,1876.626,2223.942Z"/>
            </g>
          </g>
          <g id="Group_2537" data-name="Group 2537">
            <g id="Group_2535" data-name="Group 2535">
              <path id="Path_5726" data-name="Path 5726" d="M1879.546,2220.968a.092.092,0,0,1-.06-.162,1,1,0,0,0-.035-1.539.094.094,0,0,1-.016-.13.092.092,0,0,1,.13-.015,1.18,1.18,0,0,1,.041,1.824A.091.091,0,0,1,1879.546,2220.968Z"/>
            </g>
            <g id="Group_2536" data-name="Group 2536">
              <path id="Path_5727" data-name="Path 5727" d="M1879.912,2221.352a.092.092,0,0,1-.06-.162,1.493,1.493,0,0,0-.053-2.307.093.093,0,0,1-.016-.13.092.092,0,0,1,.13-.015,1.677,1.677,0,0,1,.059,2.592A.094.094,0,0,1,1879.912,2221.352Z"/>
            </g>
          </g>
        </g>
        <rect id="Rectangle_382" data-name="Rectangle 382" width="15.024" height="6.439" rx="2.554" transform="translate(1869.076 2207.183)" fill="#9399ad"/>
      </g>
    </g>
    <path id="Rectangle_383" data-name="Rectangle 383" d="M10.307,0H49.944A10.307,10.307,0,0,1,60.251,10.307v2.954a1.027,1.027,0,0,1-1.027,1.027H1.027A1.027,1.027,0,0,1,0,13.261V10.307A10.307,10.307,0,0,1,10.307,0Z" transform="translate(1769.2 1938.456)" fill="#fff" stroke="#1717b0" stroke-linecap="round" stroke-linejoin="round" stroke-width="0.5"/>
    <path id="Rectangle_384" data-name="Rectangle 384" d="M23.821,0H71.366A23.821,23.821,0,0,1,95.187,23.821v6.21a0,0,0,0,1,0,0H0a0,0,0,0,1,0,0v-6.21A23.821,23.821,0,0,1,23.821,0Z" transform="translate(1751.732 1945.31)" fill="#fff" stroke="#1717b0" stroke-linecap="round" stroke-linejoin="round" stroke-width="0.5"/>
    <rect id="Rectangle_385" data-name="Rectangle 385" width="110.002" height="6.006" transform="translate(1744.325 1971.412)" fill="#fff" stroke="#1717b0" stroke-linecap="round" stroke-linejoin="round" stroke-width="0.5"/>
    <g id="Group_2576" data-name="Group 2576">
      <g id="Group_2548" data-name="Group 2548">
        <rect id="Rectangle_386" data-name="Rectangle 386" width="2.315" height="2.122" rx="0.842" transform="translate(1824.617 2320.854) rotate(90)" fill="#282b38"/>
        <rect id="Rectangle_387" data-name="Rectangle 387" width="2.315" height="4.823" rx="0.918" transform="translate(1825.967 2319.697) rotate(90)" fill="#62687c"/>
      </g>
      <path id="Path_5790" data-name="Path 5790" d="M1823.575,2305.794h0c-.409,0-1.116-.335-1.116-.744l.372-7.257a.746.746,0,0,1,.744-.744h0a.746.746,0,0,1,.744.744l.372,7.257C1824.691,2305.459,1823.984,2305.794,1823.575,2305.794Z" fill="#333744"/>
      <rect id="Rectangle_388" data-name="Rectangle 388" width="18.176" height="17.138" rx="5.838" transform="translate(1814.487 2303.571)" fill="#fff" stroke="#1d1e1c" stroke-linecap="round" stroke-linejoin="round" stroke-width="0.5"/>
      <g id="Group_2575" data-name="Group 2575">
        <g id="Group_2549" data-name="Group 2549">
          <path id="Path_5791" data-name="Path 5791" d="M1826.192,2314.918H1820.9a.134.134,0,0,1-.134-.134V2309.5a.134.134,0,0,1,.134-.134h5.289a.134.134,0,0,1,.134.134v5.289A.134.134,0,0,1,1826.192,2314.918Zm-5.155-.267h5.021v-5.022h-5.021Z"/>
        </g>
        <g id="Group_2550" data-name="Group 2550">
          <path id="Path_5792" data-name="Path 5792" d="M1823.547,2313.988a.132.132,0,0,1-.094-.039l-1.714-1.714a.134.134,0,0,1,0-.19l1.714-1.714a.134.134,0,0,1,.189,0l1.714,1.714a.133.133,0,0,1,0,.19l-1.714,1.714A.133.133,0,0,1,1823.547,2313.988Zm-1.524-1.848,1.524,1.525,1.525-1.525-1.525-1.525Z"/>
        </g>
        <g id="Group_2553" data-name="Group 2553">
          <g id="Group_2551" data-name="Group 2551">
            <path id="Path_5793" data-name="Path 5793" d="M1828.671,2307.811a.8.8,0,1,1,.795-.795A.8.8,0,0,1,1828.671,2307.811Zm0-1.322a.527.527,0,1,0,.528.527A.528.528,0,0,0,1828.671,2306.489Z"/>
          </g>
          <g id="Group_2552" data-name="Group 2552">
            <path id="Path_5794" data-name="Path 5794" d="M1826.192,2309.629a.137.137,0,0,1-.095-.039.134.134,0,0,1,0-.189l2.016-2.015a.134.134,0,0,1,.189.189l-2.015,2.015A.135.135,0,0,1,1826.192,2309.629Z"/>
          </g>
        </g>
        <g id="Group_2556" data-name="Group 2556">
          <g id="Group_2554" data-name="Group 2554">
            <path id="Path_5795" data-name="Path 5795" d="M1818.479,2307.811a.8.8,0,1,1,.8-.795A.8.8,0,0,1,1818.479,2307.811Zm0-1.322a.527.527,0,1,0,.527.527A.528.528,0,0,0,1818.479,2306.489Z"/>
          </g>
          <g id="Group_2555" data-name="Group 2555">
            <path id="Path_5796" data-name="Path 5796" d="M1820.958,2309.629a.135.135,0,0,1-.095-.039l-2.015-2.015a.134.134,0,0,1,.189-.189l2.016,2.015a.133.133,0,0,1-.095.228Z"/>
          </g>
        </g>
        <g id="Group_2559" data-name="Group 2559">
          <g id="Group_2557" data-name="Group 2557">
            <path id="Path_5797" data-name="Path 5797" d="M1828.671,2318.059a.8.8,0,1,1,.795-.8A.8.8,0,0,1,1828.671,2318.059Zm0-1.322a.527.527,0,1,0,.528.527A.528.528,0,0,0,1828.671,2316.737Z"/>
          </g>
          <g id="Group_2558" data-name="Group 2558">
            <path id="Path_5798" data-name="Path 5798" d="M1828.208,2316.933a.135.135,0,0,1-.095-.039l-2.016-2.015a.134.134,0,0,1,.19-.189l2.015,2.015a.134.134,0,0,1-.094.228Z"/>
          </g>
        </g>
        <g id="Group_2562" data-name="Group 2562">
          <g id="Group_2560" data-name="Group 2560">
            <path id="Path_5799" data-name="Path 5799" d="M1818.479,2318.059a.8.8,0,1,1,.8-.8A.8.8,0,0,1,1818.479,2318.059Zm0-1.322a.527.527,0,1,0,.527.527A.528.528,0,0,0,1818.479,2316.737Z"/>
          </g>
          <g id="Group_2561" data-name="Group 2561">
            <path id="Path_5800" data-name="Path 5800" d="M1818.942,2316.933a.134.134,0,0,1-.094-.228l2.015-2.015a.134.134,0,0,1,.19.189l-2.016,2.015A.134.134,0,0,1,1818.942,2316.933Z"/>
          </g>
        </g>
        <g id="Group_2565" data-name="Group 2565">
          <g id="Group_2563" data-name="Group 2563">
            <path id="Path_5801" data-name="Path 5801" d="M1822.442,2308.162a.131.131,0,0,1-.082-.028.135.135,0,0,1-.023-.188,1.714,1.714,0,0,1,2.648-.061.134.134,0,0,1-.2.175,1.445,1.445,0,0,0-2.234.051A.134.134,0,0,1,1822.442,2308.162Z"/>
          </g>
          <g id="Group_2564" data-name="Group 2564">
            <path id="Path_5802" data-name="Path 5802" d="M1821.885,2307.657a.137.137,0,0,1-.083-.029.134.134,0,0,1-.022-.188,2.435,2.435,0,0,1,3.763-.085.134.134,0,1,1-.2.174,2.168,2.168,0,0,0-3.35.077A.134.134,0,0,1,1821.885,2307.657Z"/>
          </g>
        </g>
        <g id="Group_2568" data-name="Group 2568">
          <g id="Group_2566" data-name="Group 2566">
            <path id="Path_5803" data-name="Path 5803" d="M1819.512,2313.534a.132.132,0,0,1-.082-.029,1.712,1.712,0,0,1-.06-2.648.134.134,0,1,1,.174.2,1.446,1.446,0,0,0,.051,2.234.134.134,0,0,1-.083.24Z"/>
          </g>
          <g id="Group_2567" data-name="Group 2567">
            <path id="Path_5804" data-name="Path 5804" d="M1819.007,2314.091a.131.131,0,0,1-.083-.029,2.436,2.436,0,0,1-.085-3.763.134.134,0,0,1,.175.2,2.167,2.167,0,0,0,.076,3.35.134.134,0,0,1-.083.239Z"/>
          </g>
        </g>
        <g id="Group_2571" data-name="Group 2571">
          <g id="Group_2569" data-name="Group 2569">
            <path id="Path_5805" data-name="Path 5805" d="M1823.64,2317.069a1.713,1.713,0,0,1-1.3-.6.134.134,0,1,1,.2-.174,1.447,1.447,0,0,0,2.235-.051.134.134,0,1,1,.21.165A1.7,1.7,0,0,1,1823.64,2317.069Z"/>
          </g>
          <g id="Group_2570" data-name="Group 2570">
            <path id="Path_5806" data-name="Path 5806" d="M1823.63,2317.851a2.431,2.431,0,0,1-1.846-.848.133.133,0,0,1,.014-.189.135.135,0,0,1,.189.014,2.166,2.166,0,0,0,3.349-.076.134.134,0,0,1,.211.166A2.423,2.423,0,0,1,1823.63,2317.851Z"/>
          </g>
        </g>
        <g id="Group_2574" data-name="Group 2574">
          <g id="Group_2572" data-name="Group 2572">
            <path id="Path_5807" data-name="Path 5807" d="M1827.869,2313.534a.132.132,0,0,1-.1-.047.134.134,0,0,1,.014-.189,1.446,1.446,0,0,0-.051-2.234.134.134,0,0,1,.166-.211,1.714,1.714,0,0,1,.06,2.648A.136.136,0,0,1,1827.869,2313.534Z"/>
          </g>
          <g id="Group_2573" data-name="Group 2573">
            <path id="Path_5808" data-name="Path 5808" d="M1828.4,2314.091a.131.131,0,0,1-.1-.047.133.133,0,0,1,.014-.189,2.168,2.168,0,0,0-.076-3.349.134.134,0,1,1,.165-.21,2.434,2.434,0,0,1,.085,3.762A.132.132,0,0,1,1828.4,2314.091Z"/>
          </g>
        </g>
      </g>
    </g>
  </g>
</svg>
