<svg xmlns="http://www.w3.org/2000/svg" width="69.548" height="36.978" viewBox="0 0 69.548 36.978">
  <g id="Group_2481" data-name="Group 2481" transform="translate(-1625.677 -2257.268)">
    <g id="Group_2442" data-name="Group 2442">
      <path id="Path_5672" data-name="Path 5672" d="M1676.111,2292.282h-.98c0-6.349-6.373-11.513-14.207-11.513s-14.208,5.164-14.208,11.513h-.98c0-6.889,6.814-12.493,15.188-12.493S1676.111,2285.393,1676.111,2292.282Z" fill="#4d4d4d" stroke="#1d1e1c" stroke-linecap="round" stroke-linejoin="round" stroke-width="0.5"/>
    </g>
    <g id="Group_2446" data-name="Group 2446">
      <g id="Group_2445" data-name="Group 2445">
        <g id="Group_2444" data-name="Group 2444">
          <g id="Group_2443" data-name="Group 2443">
            <circle id="Ellipse_263" data-name="Ellipse 263" cx="0.632" cy="0.632" r="0.632" transform="translate(1660.005 2260.836)" fill="none" stroke="#000" stroke-linecap="round" stroke-linejoin="round" stroke-width="0.5"/>
            <path id="Path_5673" data-name="Path 5673" d="M1664.092,2259.547a3.915,3.915,0,0,0-.66-.873,3.956,3.956,0,0,0-5.589,0,3.915,3.915,0,0,0-.66.873" fill="none" stroke="#000" stroke-linecap="round" stroke-linejoin="round" stroke-width="0.5"/>
            <path id="Path_5674" data-name="Path 5674" d="M1663.419,2260.22a3.015,3.015,0,0,0-.625-.907,3.052,3.052,0,0,0-4.312,0,3.021,3.021,0,0,0-.626.907" fill="none" stroke="#000" stroke-linecap="round" stroke-linejoin="round" stroke-width="0.5"/>
            <path id="Path_5675" data-name="Path 5675" d="M1662.714,2260.926a2.146,2.146,0,0,0-4.152,0" fill="none" stroke="#000" stroke-linecap="round" stroke-linejoin="round" stroke-width="0.5"/>
          </g>
        </g>
        <line id="Line_113" data-name="Line 113" y2="4.224" transform="translate(1660.602 2263.048)" fill="none" stroke="#000" stroke-linecap="round" stroke-linejoin="round" stroke-width="0.5"/>
      </g>
    </g>
    <path id="Path_5676" data-name="Path 5676" d="M1668.009,2282.687a12.092,12.092,0,0,0,1.786-6.411c0-5.967-4.1-10.8-9.157-10.8s-9.158,4.838-9.158,10.8a12.092,12.092,0,0,0,1.786,6.411Z" fill="#fbda15" stroke="#231f20" stroke-miterlimit="10" stroke-width="0.5"/>
    <g id="Group_2457" data-name="Group 2457">
      <g id="Group_2456" data-name="Group 2456">
        <g id="Group_2454" data-name="Group 2454">
          <g id="Group_2447" data-name="Group 2447">
            <rect id="Rectangle_360" data-name="Rectangle 360" width="1.761" height="1.688" transform="translate(1632.962 2264.457)" fill="#ccc" stroke="#1d1e1c" stroke-linecap="round" stroke-linejoin="round" stroke-width="0.5"/>
          </g>
          <g id="Group_2450" data-name="Group 2450">
            <g id="Group_2448" data-name="Group 2448">
              <path id="Path_5677" data-name="Path 5677" d="M1632.745,2265.783c0,.458-2.127,1-2.127,1s-4.933-.831-4.678-1S1632.745,2265.783,1632.745,2265.783Z" fill="#4d4d4d" stroke="#1d1e1c" stroke-linecap="round" stroke-linejoin="round" stroke-width="0.5"/>
            </g>
            <g id="Group_2449" data-name="Group 2449">
              <path id="Path_5678" data-name="Path 5678" d="M1634.94,2265.842c0-.457,2.127-1,2.127-1s4.933.831,4.678,1S1634.94,2265.842,1634.94,2265.842Z" fill="#4d4d4d" stroke="#1d1e1c" stroke-linecap="round" stroke-linejoin="round" stroke-width="0.5"/>
            </g>
          </g>
          <g id="Group_2451" data-name="Group 2451">
            <rect id="Rectangle_361" data-name="Rectangle 361" width="2.343" height="1.394" transform="translate(1632.671 2265.196)" fill="#ccc" stroke="#1d1e1c" stroke-linecap="round" stroke-linejoin="round" stroke-width="0.5"/>
          </g>
          <g id="Group_2452" data-name="Group 2452">
            <rect id="Rectangle_362" data-name="Rectangle 362" width="2.704" height="1.278" transform="translate(1632.491 2268.793)" fill="#898989" stroke="#1d1e1c" stroke-linecap="round" stroke-linejoin="round" stroke-width="0.5"/>
          </g>
          <g id="Group_2453" data-name="Group 2453">
            <rect id="Rectangle_363" data-name="Rectangle 363" width="2.924" height="2.205" transform="translate(1632.38 2266.59)" fill="#a4a4a5" stroke="#1d1e1c" stroke-linecap="round" stroke-linejoin="round" stroke-width="0.5"/>
          </g>
        </g>
        <g id="Group_2455" data-name="Group 2455">
          <path id="Rectangle_364" data-name="Rectangle 364" d="M0,0H2.491a0,0,0,0,1,0,0V.42a.783.783,0,0,1-.783.783H.783A.783.783,0,0,1,0,.42V0A0,0,0,0,1,0,0Z" transform="translate(1632.597 2271.809)" fill="#b2bee2" stroke="#1d1e1c" stroke-linecap="round" stroke-linejoin="round" stroke-width="0.5"/>
        </g>
      </g>
      <path id="Path_5679" data-name="Path 5679" d="M1632.707,2271.187h4.952a4.09,4.09,0,0,1,1.252.2l4.644,1.487a3.269,3.269,0,0,0,.991.154h13.031v5.965h-12.643a2.073,2.073,0,0,1-1.336-.487l-4.146-3.49a4.127,4.127,0,0,0-2.657-.969h-3.786a.938.938,0,0,1-.937-.937v-1.284A.634.634,0,0,1,1632.707,2271.187Z" fill="#fff" stroke="#231f20" stroke-miterlimit="10" stroke-width="0.5"/>
      <ellipse id="Ellipse_264" data-name="Ellipse 264" cx="2.556" cy="3.016" rx="2.556" ry="3.016" transform="translate(1631.287 2269.785)" fill="#fff" stroke="#000" stroke-miterlimit="10" stroke-width="0.5"/>
    </g>
    <g id="Group_2468" data-name="Group 2468">
      <g id="Group_2467" data-name="Group 2467">
        <g id="Group_2465" data-name="Group 2465">
          <g id="Group_2458" data-name="Group 2458">
            <rect id="Rectangle_365" data-name="Rectangle 365" width="1.761" height="1.688" transform="translate(1687.941 2266.145) rotate(180)" fill="#ccc" stroke="#1d1e1c" stroke-linecap="round" stroke-linejoin="round" stroke-width="0.5"/>
          </g>
          <g id="Group_2461" data-name="Group 2461">
            <g id="Group_2459" data-name="Group 2459">
              <path id="Path_5680" data-name="Path 5680" d="M1688.158,2265.783c0,.458,2.127,1,2.127,1s4.933-.831,4.678-1S1688.158,2265.783,1688.158,2265.783Z" fill="#4d4d4d" stroke="#1d1e1c" stroke-linecap="round" stroke-linejoin="round" stroke-width="0.5"/>
            </g>
            <g id="Group_2460" data-name="Group 2460">
              <path id="Path_5681" data-name="Path 5681" d="M1685.963,2265.842c0-.457-2.127-1-2.127-1s-4.933.831-4.678,1S1685.963,2265.842,1685.963,2265.842Z" fill="#4d4d4d" stroke="#1d1e1c" stroke-linecap="round" stroke-linejoin="round" stroke-width="0.5"/>
            </g>
          </g>
          <g id="Group_2462" data-name="Group 2462">
            <rect id="Rectangle_366" data-name="Rectangle 366" width="2.343" height="1.394" transform="translate(1688.232 2266.59) rotate(180)" fill="#ccc" stroke="#1d1e1c" stroke-linecap="round" stroke-linejoin="round" stroke-width="0.5"/>
          </g>
          <g id="Group_2463" data-name="Group 2463">
            <rect id="Rectangle_367" data-name="Rectangle 367" width="2.704" height="1.278" transform="translate(1688.412 2270.071) rotate(180)" fill="#898989" stroke="#1d1e1c" stroke-linecap="round" stroke-linejoin="round" stroke-width="0.5"/>
          </g>
          <g id="Group_2464" data-name="Group 2464">
            <rect id="Rectangle_368" data-name="Rectangle 368" width="2.924" height="2.205" transform="translate(1688.523 2268.794) rotate(180)" fill="#a4a4a5" stroke="#1d1e1c" stroke-linecap="round" stroke-linejoin="round" stroke-width="0.5"/>
          </g>
        </g>
        <g id="Group_2466" data-name="Group 2466">
          <path id="Rectangle_369" data-name="Rectangle 369" d="M.783,0h.926a.783.783,0,0,1,.783.783V1.2a0,0,0,0,1,0,0H0a0,0,0,0,1,0,0V.783A.783.783,0,0,1,.783,0Z" transform="translate(1688.306 2273.011) rotate(-180)" fill="#b2bee2" stroke="#1d1e1c" stroke-linecap="round" stroke-linejoin="round" stroke-width="0.5"/>
        </g>
      </g>
      <path id="Path_5682" data-name="Path 5682" d="M1688.2,2271.187h-4.952a4.09,4.09,0,0,0-1.252.2l-4.645,1.487a3.259,3.259,0,0,1-.99.154h-13.031v5.965h12.643a2.073,2.073,0,0,0,1.336-.487l4.146-3.49a4.127,4.127,0,0,1,2.657-.969h3.786a.938.938,0,0,0,.937-.937v-1.284A.635.635,0,0,0,1688.2,2271.187Z" fill="#fff" stroke="#231f20" stroke-miterlimit="10" stroke-width="0.5"/>
      <ellipse id="Ellipse_265" data-name="Ellipse 265" cx="2.556" cy="3.016" rx="2.556" ry="3.016" transform="translate(1684.505 2269.785)" fill="#fff" stroke="#000" stroke-miterlimit="10" stroke-width="0.5"/>
    </g>
    <path id="Path_5683" data-name="Path 5683" d="M1652.066,2269.606a14.065,14.065,0,0,0-2.076,7.454c0,6.94,4.767,12.565,10.648,12.565s10.648-5.625,10.648-12.565a14.057,14.057,0,0,0-2.077-7.454Z" fill="#fff" stroke="#000" stroke-miterlimit="10" stroke-width="0.5"/>
    <g id="Group_2479" data-name="Group 2479">
      <g id="Group_2470" data-name="Group 2470">
        <g id="Group_2469" data-name="Group 2469">
          <path id="Path_5684" data-name="Path 5684" d="M1657.6,2284.293a.186.186,0,0,1-.179-.193v-4.441a.179.179,0,1,1,.358,0v4.441A.187.187,0,0,1,1657.6,2284.293Z" fill="#231f20"/>
        </g>
      </g>
      <g id="Group_2472" data-name="Group 2472">
        <g id="Group_2471" data-name="Group 2471">
          <path id="Path_5685" data-name="Path 5685" d="M1659.118,2284.293a.185.185,0,0,1-.178-.193v-4.441a.179.179,0,1,1,.357,0v4.441A.186.186,0,0,1,1659.118,2284.293Z" fill="#231f20"/>
        </g>
      </g>
      <g id="Group_2474" data-name="Group 2474">
        <g id="Group_2473" data-name="Group 2473">
          <path id="Path_5686" data-name="Path 5686" d="M1660.637,2284.293a.186.186,0,0,1-.178-.193v-4.441a.18.18,0,1,1,.358,0v4.441A.187.187,0,0,1,1660.637,2284.293Z" fill="#231f20"/>
        </g>
      </g>
      <g id="Group_2476" data-name="Group 2476">
        <g id="Group_2475" data-name="Group 2475">
          <path id="Path_5687" data-name="Path 5687" d="M1662.157,2284.293a.185.185,0,0,1-.178-.193v-4.441a.179.179,0,1,1,.357,0v4.441A.186.186,0,0,1,1662.157,2284.293Z" fill="#231f20"/>
        </g>
      </g>
      <g id="Group_2478" data-name="Group 2478">
        <g id="Group_2477" data-name="Group 2477">
          <path id="Path_5688" data-name="Path 5688" d="M1663.676,2284.293a.186.186,0,0,1-.178-.193v-4.441a.179.179,0,1,1,.357,0v4.441A.186.186,0,0,1,1663.676,2284.293Z" fill="#231f20"/>
        </g>
      </g>
    </g>
    <g id="Group_2480" data-name="Group 2480">
      <path id="Path_5689" data-name="Path 5689" d="M1660.638,2272.664a2.119,2.119,0,1,0,2.118,2.119A2.119,2.119,0,0,0,1660.638,2272.664Zm0,3.348a1.229,1.229,0,1,1,1.229-1.229A1.229,1.229,0,0,1,1660.638,2276.012Z" fill="#231f20"/>
    </g>
    <circle id="Ellipse_266" data-name="Ellipse 266" cx="1.47" cy="1.47" r="1.47" transform="translate(1644.757 2291.057)" fill="gray" stroke="#1d1e1c" stroke-linecap="round" stroke-linejoin="round" stroke-width="0.5"/>
    <circle id="Ellipse_267" data-name="Ellipse 267" cx="1.47" cy="1.47" r="1.47" transform="translate(1674.151 2291.057)" fill="gray" stroke="#1d1e1c" stroke-linecap="round" stroke-linejoin="round" stroke-width="0.5"/>
  </g>
</svg>
