<svg width="87" height="48" viewBox="0 0 87 48" fill="none" xmlns="http://www.w3.org/2000/svg">
<g clip-path="url(#clip0_2456_1094)">
<path d="M20.8503 11.12C25.1581 11.12 28.6503 9.08741 28.6503 6.58004C28.6503 4.07267 25.1581 2.04004 20.8503 2.04004C16.5425 2.04004 13.0503 4.07267 13.0503 6.58004C13.0503 9.08741 16.5425 11.12 20.8503 11.12Z" fill="#C6FE6A" stroke="black" stroke-linecap="round" stroke-linejoin="round"/>
<path d="M20.8503 45.3202C25.1581 45.3202 28.6503 43.2876 28.6503 40.7802C28.6503 38.2729 25.1581 36.2402 20.8503 36.2402C16.5425 36.2402 13.0503 38.2729 13.0503 40.7802C13.0503 43.2876 16.5425 45.3202 20.8503 45.3202Z" fill="#C6FE6A" stroke="black" stroke-linecap="round" stroke-linejoin="round"/>
<path d="M9.97494 17.3944C12.1288 13.6637 12.1146 9.62307 9.94318 8.36938C7.77173 7.11569 4.26534 9.12369 2.11143 12.8544C-0.0424848 16.5851 -0.0282675 20.6257 2.14318 21.8794C4.31463 23.1331 7.82103 21.1251 9.97494 17.3944Z" fill="#C6FE6A" stroke="black" stroke-linecap="round" stroke-linejoin="round"/>
<path d="M39.5941 34.5028C41.748 30.7721 41.7338 26.7315 39.5623 25.4778C37.3909 24.2241 33.8845 26.2321 31.7306 29.9628C29.5767 33.6935 29.5909 37.7341 31.7623 38.9878C33.9338 40.2415 37.4402 38.2335 39.5941 34.5028Z" fill="#C6FE6A" stroke="black" stroke-linecap="round" stroke-linejoin="round"/>
<path d="M10.126 39.1805C12.3095 37.9255 12.3325 33.8688 10.1775 30.1196C8.02252 26.3705 4.50553 24.3485 2.3221 25.6036C0.13867 26.8586 0.115626 30.9153 2.27063 34.6645C4.42563 38.4136 7.94262 40.4355 10.126 39.1805Z" fill="#C6FE6A" stroke="black" stroke-linecap="round" stroke-linejoin="round"/>
<path d="M39.5579 21.8879C41.7294 20.6343 41.7436 16.5936 39.5897 12.8629C37.4358 9.13226 33.9294 7.12426 31.7579 8.37795C29.5865 9.63164 29.5723 13.6723 31.7262 17.4029C33.8801 21.1336 37.3865 23.1416 39.5579 21.8879Z" fill="#C6FE6A" stroke="black" stroke-linecap="round" stroke-linejoin="round"/>
<path d="M57.9702 24.1099L72.2002 32.5199L57.9702 24.1099Z" fill="#C6FE6A" stroke="black" stroke-linecap="round" stroke-linejoin="round"/>
<path d="M86.4302 24.1099L72.2002 32.5199L86.4302 24.1099Z" fill="#C6FE6A" stroke="black" stroke-linecap="round" stroke-linejoin="round"/>
<path d="M61.8702 17.64L57.9702 24.11L72.2002 17.64V0.5L61.8702 17.64Z" fill="#C6FE6A" stroke="black" stroke-linecap="round" stroke-linejoin="round"/>
<path d="M72.2002 17.6401L57.9702 24.1101L72.2002 32.5201V17.6401Z" fill="#C6FE6A" stroke="black" stroke-linecap="round" stroke-linejoin="round"/>
<path d="M82.5302 17.64L72.2002 0.5V17.64L86.4302 24.11L82.5302 17.64Z" fill="#C6FE6A" stroke="black" stroke-linecap="round" stroke-linejoin="round"/>
<path d="M72.2002 17.6401V32.5201L86.4302 24.1101L72.2002 17.6401Z" fill="#C6FE6A" stroke="black" stroke-linecap="round" stroke-linejoin="round"/>
<path d="M57.9702 26.8101L72.2002 46.8601V35.2101L57.9702 26.8101Z" fill="#C6FE6A" stroke="black" stroke-linecap="round" stroke-linejoin="round"/>
<path d="M72.2002 35.2101V46.8601L86.4402 26.8101L72.2002 35.2101Z" fill="#C6FE6A" stroke="black" stroke-linecap="round" stroke-linejoin="round"/>
</g>
<defs>
<clipPath id="clip0_2456_1094">
<rect width="86.94" height="47.36" fill="white"/>
</clipPath>
</defs>
</svg>
