<svg xmlns="http://www.w3.org/2000/svg" width="281.52" height="294.609" viewBox="0 0 281.52 294.609">
  <g id="Group_4810" data-name="Group 4810" transform="translate(0.324 0.333)">
    <path id="Path_8206" data-name="Path 8206" d="M382.635,305.37s-8.111,14.882-1.645,28.332c0,0,9.133-24.747,16.637-31.36C397.627,302.342,387.455,298.942,382.635,305.37Z" transform="translate(-270.987 -208.954)" fill="#ceb0fa" stroke="#000" stroke-linecap="round" stroke-linejoin="round" stroke-width="0.5"/>
    <path id="Path_8207" data-name="Path 8207" d="M316.856,335.914S336.91,306.86,326.883,301.3l-7.808,6.992-6.847,14.591Z" transform="translate(-131.29 -208.966)" fill="#b88ff9" stroke="#000" stroke-linecap="round" stroke-linejoin="round" stroke-width="0.5"/>
    <g id="Group_4795" data-name="Group 4795" transform="translate(0 67.162)">
      <path id="Path_8208" data-name="Path 8208" d="M406.048,316.824s-14.116,14.681-20.681,14.407l3.256,4.919s17.714-8.483,21.327-14.245C409.949,321.905,410.418,317.112,406.048,316.824Z" transform="translate(-290.774 -274.839)" fill="#81a8f8" stroke="#000" stroke-linecap="round" stroke-linejoin="round" stroke-width="0.5"/>
      <path id="Path_8209" data-name="Path 8209" d="M402.873,328.568l2.839-.787a3.359,3.359,0,0,1,3.85,1.635l1.575,2.9a3.358,3.358,0,0,1-1.785,4.749l-2.9,1.074-4.992-9.688Z" transform="translate(-309.784 -273.94)" fill="#ceb0fa" stroke="#000" stroke-linecap="round" stroke-linejoin="round" stroke-width="0.5"/>
      <path id="Path_8210" data-name="Path 8210" d="M473.582,346.538c-1.427,5.755-4.095,9.391-22.685,6.923s-53.76-13.2-46.479-32.829,20.428-21.83,31.71-13.832S477.275,331.653,473.582,346.538Z" transform="translate(-374.281 -276.031)" fill="#81a8f8" stroke="#000" stroke-linecap="round" stroke-linejoin="round" stroke-width="0.5"/>
      <path id="Path_8211" data-name="Path 8211" d="M440.882,336.464s15.847-.526,22.04-13.071,1.047-19.44,1.047-19.44" transform="translate(-406.91 -275.907)" fill="none" stroke="#000" stroke-linecap="round" stroke-linejoin="round" stroke-width="0.5"/>
      <path id="Path_8212" data-name="Path 8212" d="M437.915,337.948s15.847-.526,22.04-13.071S461,305.436,461,305.436" transform="translate(-400.729 -275.784)" fill="none" stroke="#000" stroke-linecap="round" stroke-linejoin="round" stroke-width="0.5" stroke-dasharray="1 3"/>
      <path id="Path_8213" data-name="Path 8213" d="M477.848,320.477s-9.589-6.32-12.638-8.816-13.165-5.684-14.663,1.745c-1.469,7.286,12.252,14.269,25.387,11.157.255-.061.509-.125.509-.125A3.677,3.677,0,0,0,477.848,320.477Z" transform="translate(-429.269 -275.506)" fill="#a6fcf6" stroke="#000" stroke-linecap="round" stroke-linejoin="round" stroke-width="0.5"/>
      <path id="Path_8214" data-name="Path 8214" d="M449.351,319s3.027-1.238,3.484,1.935-3.659,4.237-4.422,2.8S449.351,319,449.351,319Z" transform="translate(-401.747 -274.678)" fill="#ceb0fa" stroke="#000" stroke-linecap="round" stroke-linejoin="round" stroke-width="0.5"/>
      <path id="Path_8215" data-name="Path 8215" d="M497.375,330.6s-1.28-1.961-2.609-1.764-11.671-1.678-14.311-4.283-7.913-3.657-10.075.18,7.008,13.758,13.313,13.874,12.481-1.156,13.336-2.493S497.375,330.6,497.375,330.6Z" transform="translate(-470.057 -274.391)" fill="#a6fcf6" stroke="#000" stroke-linecap="round" stroke-linejoin="round" stroke-width="0.5"/>
      <path id="Path_8216" data-name="Path 8216" d="M472.759,327.68s-6.484,3.906-8.311,3.652,1.326,3.017,1.326,3.017,8.425-2.105,8.876-3.265S472.759,327.68,472.759,327.68Z" transform="translate(-440.548 -273.938)" fill="#ceb0fa" stroke="#000" stroke-linecap="round" stroke-linejoin="round" stroke-width="0.5"/>
      <path id="Path_8217" data-name="Path 8217" d="M448,305.684s2.414-5.21,2.061-7.171-3.258-1.421-3.258-1.421-.882,7.537-1.6,7.789S448,305.684,448,305.684Z" transform="translate(-395.61 -276.483)" fill="#ceb0fa" stroke="#000" stroke-linecap="round" stroke-linejoin="round" stroke-width="0.5"/>
      <path id="Path_8218" data-name="Path 8218" d="M464.708,300.637s2.667.88,2.376-6.077-10.485-19.726-19.36-15.752-.86,9.569,1.813,9.836,8.293,4.632,9.558,8.2S464.708,300.637,464.708,300.637Z" transform="translate(-411.045 -278.057)" fill="#a6fcf6" stroke="#000" stroke-linecap="round" stroke-linejoin="round" stroke-width="0.5"/>
      <ellipse id="Ellipse_95" data-name="Ellipse 95" cx="3.083" cy="3.083" rx="3.083" ry="3.083" transform="translate(49.502 17.468)" fill="#ceb0fa" stroke="#000" stroke-linecap="round" stroke-linejoin="round" stroke-width="0.5"/>
      <ellipse id="Ellipse_96" data-name="Ellipse 96" cx="3.083" cy="3.083" rx="3.083" ry="3.083" transform="translate(47.069 25.934)" fill="#ceb0fa" stroke="#000" stroke-linecap="round" stroke-linejoin="round" stroke-width="0.5"/>
      <ellipse id="Ellipse_97" data-name="Ellipse 97" cx="3.083" cy="3.083" rx="3.083" ry="3.083" transform="translate(31.117 52.096)" fill="#ceb0fa" stroke="#000" stroke-linecap="round" stroke-linejoin="round" stroke-width="0.5"/>
      <ellipse id="Ellipse_98" data-name="Ellipse 98" cx="3.083" cy="3.083" rx="3.083" ry="3.083" transform="translate(20.279 55.896)" fill="#ceb0fa" stroke="#000" stroke-linecap="round" stroke-linejoin="round" stroke-width="0.5"/>
      <path id="Path_8219" data-name="Path 8219" d="M406.516,313.972l11.406,7.528,4.037,9.717,14.653,7.446s10.427,9.6,6.8,12.9" transform="translate(-347.898 -275.076)" fill="none" stroke="#000" stroke-linecap="round" stroke-linejoin="round" stroke-width="0.5"/>
    </g>
    <g id="Group_4803" data-name="Group 4803" transform="translate(6.198 29.728)">
      <g id="Group_4796" data-name="Group 4796" transform="translate(0 126.982)">
        <rect id="Rectangle_1698" data-name="Rectangle 1698" width="24.944" height="2.494" transform="translate(0 101.919)" fill="#1717b0" stroke="#000" stroke-linecap="round" stroke-linejoin="round" stroke-width="0.5"/>
        <path id="Path_8220" data-name="Path 8220" d="M478.525,452.544l-18.708,2.494h24.944l7.417-1.871Z" transform="translate(-459.817 -353.12)" fill="#1717b0" stroke="#000" stroke-linecap="round" stroke-linejoin="round" stroke-width="0.5"/>
        <path id="Path_8221" data-name="Path 8221" d="M459.18,457.5,467.287,455v-2l-8.107,2Z" transform="translate(-434.236 -353.082)" fill="#1717b0" stroke="#000" stroke-linecap="round" stroke-linejoin="round" stroke-width="0.5"/>
        <path id="Path_8222" data-name="Path 8222" d="M448.409,399.57c-.8,0-11.4,19.956-11.4,19.956V423.5l3.118,1.013,3.742-2.494,10.293-20.578Z" transform="translate(-397.097 -357.518)" fill="#1717b0" stroke="#000" stroke-linecap="round" stroke-linejoin="round" stroke-width="0.5"/>
        <path id="Path_8223" data-name="Path 8223" d="M472.021,421.667l-22.054,34.981h3.4l21.768-33.968Z" transform="translate(-432.11 -355.683)" fill="#ceb0fa" stroke="#000" stroke-linecap="round" stroke-linejoin="round" stroke-width="0.5"/>
        <path id="Path_8224" data-name="Path 8224" d="M436.838,392.373l-5.048,9.042,7.747,3.668,5.651-9.535Z" transform="translate(-382.474 -358.115)" fill="#1717b0" stroke="#000" stroke-linecap="round" stroke-linejoin="round" stroke-width="0.5"/>
        <path id="Path_8225" data-name="Path 8225" d="M433.967,360.741,444.094,372.1l-20.545,27.681-8.536-3.669-1.139-6.163Z" transform="translate(-361.975 -360.741)" fill="#81a8f8" stroke="#000" stroke-linecap="round" stroke-linejoin="round" stroke-width="0.5"/>
        <path id="Path_8226" data-name="Path 8226" d="M416.1,360.793c-.622.052-6.888-.052-6.888-.052L419.339,372.1l5.048-1.985Z" transform="translate(-337.221 -360.741)" fill="#81a8f8" stroke="#000" stroke-linecap="round" stroke-linejoin="round" stroke-width="0.5"/>
        <path id="Path_8227" data-name="Path 8227" d="M434.805,369.4l-22.683,28.172-2.909,1.494,20.545-27.681Z" transform="translate(-347.64 -360.022)" fill="#81a8f8" stroke="#000" stroke-linecap="round" stroke-linejoin="round" stroke-width="0.5"/>
        <path id="Path_8228" data-name="Path 8228" d="M421.728,395.533l-16.837-22.45s-2.5.624-7.322,8.5L415.492,399.9l3.441.8Z" transform="translate(-321.951 -359.716)" fill="#1717b0" stroke="#000" stroke-linecap="round" stroke-linejoin="round" stroke-width="0.5"/>
        <path id="Path_8229" data-name="Path 8229" d="M395.751,380.724,366.874,396.77a4.424,4.424,0,0,1,.934,2.171,8.687,8.687,0,0,1-.31,2.193l30.748-16.669Z" transform="translate(-265.226 -359.082)" fill="#1717b0" stroke="#000" stroke-linecap="round" stroke-linejoin="round" stroke-width="0.5"/>
        <ellipse id="Ellipse_99" data-name="Ellipse 99" cx="4.053" cy="4.365" rx="4.053" ry="4.365" transform="translate(96.035 35.193)" fill="#1717b0" stroke="#000" stroke-linecap="round" stroke-linejoin="round" stroke-width="0.5"/>
        <ellipse id="Ellipse_100" data-name="Ellipse 100" cx="3.742" cy="4.677" rx="3.742" ry="4.677" transform="translate(93.852 35.816)" fill="#1717b0" stroke="#000" stroke-linecap="round" stroke-linejoin="round" stroke-width="0.5"/>
      </g>
      <g id="Group_4797" data-name="Group 4797" transform="translate(161.106 126.086)">
        <rect id="Rectangle_1699" data-name="Rectangle 1699" width="22.392" height="2.239" transform="translate(91.249 91.493)" fill="#1717b0" stroke="#000" stroke-linecap="round" stroke-linejoin="round" stroke-width="0.5"/>
        <path id="Path_8230" data-name="Path 8230" d="M248.266,442.326l16.794,2.239H242.668l-6.658-1.679Z" transform="translate(-151.419 -353.073)" fill="#1717b0" stroke="#000" stroke-linecap="round" stroke-linejoin="round" stroke-width="0.5"/>
        <path id="Path_8231" data-name="Path 8231" d="M263.963,446.771l-7.278-2.239v-1.8l7.278,1.8Z" transform="translate(-172.714 -353.039)" fill="#1717b0" stroke="#000" stroke-linecap="round" stroke-linejoin="round" stroke-width="0.5"/>
        <path id="Path_8232" data-name="Path 8232" d="M274.255,394.771c.718,0,10.234,17.914,10.234,17.914v3.57l-2.8.909-3.358-2.239-9.24-18.474Z" transform="translate(-206.676 -357.02)" fill="#1717b0" stroke="#000" stroke-linecap="round" stroke-linejoin="round" stroke-width="0.5"/>
        <path id="Path_8233" data-name="Path 8233" d="M253.61,414.608l19.8,31.4h-3.056l-19.541-30.493Z" transform="translate(-175.797 -355.374)" fill="#ceb0fa" stroke="#000" stroke-linecap="round" stroke-linejoin="round" stroke-width="0.5"/>
        <path id="Path_8234" data-name="Path 8234" d="M284.384,388.31l4.531,8.117-6.955,3.292-5.073-8.56Z" transform="translate(-219.544 -357.557)" fill="#1717b0" stroke="#000" stroke-linecap="round" stroke-linejoin="round" stroke-width="0.5"/>
        <path id="Path_8235" data-name="Path 8235" d="M288.118,359.914l-9.091,10.2,18.443,24.85,7.663-3.294,1.023-5.532Z" transform="translate(-239.104 -359.914)" fill="#81a8f8" stroke="#000" stroke-linecap="round" stroke-linejoin="round" stroke-width="0.5"/>
        <path id="Path_8236" data-name="Path 8236" d="M303.121,359.961c.558.047,6.183-.047,6.183-.047l-9.091,10.2-4.53-1.782Z" transform="translate(-260.29 -359.914)" fill="#81a8f8" stroke="#000" stroke-linecap="round" stroke-linejoin="round" stroke-width="0.5"/>
        <path id="Path_8237" data-name="Path 8237" d="M287.047,367.684l20.362,25.29,2.611,1.341-18.443-24.85Z" transform="translate(-251.655 -359.269)" fill="#81a8f8" stroke="#000" stroke-linecap="round" stroke-linejoin="round" stroke-width="0.5"/>
        <path id="Path_8238" data-name="Path 8238" d="M298.688,390.718l15.178-19.724s2.283.392,6.573,8.32l-16.09,15.752-3.088.717Z" transform="translate(-274.68 -358.994)" fill="#1717b0" stroke="#000" stroke-linecap="round" stroke-linejoin="round" stroke-width="0.5"/>
        <path id="Path_8239" data-name="Path 8239" d="M322.5,381.849l20.154,10.076a3.979,3.979,0,0,0-.838,1.949,7.736,7.736,0,0,0,.278,1.969l-21.832-10.636Z" transform="translate(-320.264 -358.093)" fill="#1717b0" stroke="#000" stroke-linecap="round" stroke-linejoin="round" stroke-width="0.5"/>
        <ellipse id="Ellipse_101" data-name="Ellipse 101" cx="3.639" cy="3.919" rx="3.639" ry="3.919" transform="translate(20.153 31.593)" fill="#1717b0" stroke="#000" stroke-linecap="round" stroke-linejoin="round" stroke-width="0.5"/>
        <ellipse id="Ellipse_102" data-name="Ellipse 102" cx="3.359" cy="4.199" rx="3.359" ry="4.199" transform="translate(22.672 32.153)" fill="#1717b0" stroke="#000" stroke-linecap="round" stroke-linejoin="round" stroke-width="0.5"/>
      </g>
      <g id="Group_4798" data-name="Group 4798" transform="translate(120.055 143.957)">
        <path id="Path_8240" data-name="Path 8240" d="M366.085,396.287c.287.257-1.017,17.339-1.017,17.339l.913,2.554H368l1.617-1.785.689-18.108Z" transform="translate(-355.381 -374.765)" fill="#1717b0" stroke="#000" stroke-linecap="round" stroke-linejoin="round" stroke-width="0.5"/>
        <path id="Path_8241" data-name="Path 8241" d="M369.307,414.655l-2.11,28.9h2.287l1.837-28.9Z" transform="translate(-358.707 -373.241)" fill="#ceb0fa" stroke="#000" stroke-linecap="round" stroke-linejoin="round" stroke-width="0.5"/>
        <path id="Path_8242" data-name="Path 8242" d="M367.793,442.017l-5.125,3.57,17.447.357-3.6-3.927Z" transform="translate(-362.597 -370.969)" fill="#1717b0" stroke="#000" stroke-linecap="round" stroke-linejoin="round" stroke-width="0.5"/>
        <path id="Path_8243" data-name="Path 8243" d="M362.668,447.191l.071-1.877,17.447.357-.065,1.7Z" transform="translate(-362.668 -370.695)" fill="#1717b0" stroke="#000" stroke-linecap="round" stroke-linejoin="round" stroke-width="0.5"/>
        <path id="Path_8244" data-name="Path 8244" d="M367.5,443.073s.46-2.729,2.584-2.372a3.717,3.717,0,0,1,2.756,2.5Z" transform="translate(-360.561 -371.081)" fill="#ceb0fa" stroke="#000" stroke-linecap="round" stroke-linejoin="round" stroke-width="0.5"/>
        <path id="Path_8245" data-name="Path 8245" d="M370.031,400.588h-1.069l.217-5.712h1.069Z" transform="translate(-359.546 -374.882)" fill="#1717b0" stroke="#000" stroke-linecap="round" stroke-linejoin="round" stroke-width="0.5"/>
        <path id="Path_8246" data-name="Path 8246" d="M365.1,400.588h-1.069l.217-5.712h1.069Z" transform="translate(-349.266 -374.882)" fill="#1717b0" stroke="#000" stroke-linecap="round" stroke-linejoin="round" stroke-width="0.5"/>
        <path id="Path_8247" data-name="Path 8247" d="M363.421,376.415l-1.83,19.993,7.892.453,1.873-20.09Z" transform="translate(-352.67 -376.415)" fill="#81a8f8" stroke="#000" stroke-linecap="round" stroke-linejoin="round" stroke-width="0.5"/>
      </g>
      <path id="Path_8248" data-name="Path 8248" d="M333.07,380.463c6.428,4.82,3.214,8.034,4.7,14.295,0,0,11.511,1.389,12.02-.141,5.776-17.368,15.418-15.761,20.238.308,1.032,3.442,5.117.677,5.117.677s-2.371-9.245,2.918-11.925-4.761-19.107-8-17.588S349.576,362.5,344.319,366C334.677,372.428,333.07,380.463,333.07,380.463Z" transform="translate(-209.945 -233.427)" fill="#1717b0" stroke="#000" stroke-linecap="round" stroke-linejoin="round" stroke-width="0.5"/>
      <path id="Path_8249" data-name="Path 8249" d="M370.416,360.237v1.809a5.87,5.87,0,0,1-5.87,5.87h-19.33a5.87,5.87,0,0,1-5.87-5.87V358.4Z" transform="translate(-207.585 -233.954)" fill="#1717b0" stroke="#000" stroke-linecap="round" stroke-linejoin="round" stroke-width="0.5"/>
      <path id="Path_8250" data-name="Path 8250" d="M374.8,353.809v2.283a7.409,7.409,0,0,1-7.409,7.409H343a7.409,7.409,0,0,1-7.409-7.409v-4.6Z" transform="translate(-207.897 -234.527)" fill="#1717b0" stroke="#000" stroke-linecap="round" stroke-linejoin="round" stroke-width="0.5"/>
      <path id="Path_8251" data-name="Path 8251" d="M380.613,348.315v2.91a9.449,9.449,0,0,1-9.449,9.449H340.051a9.449,9.449,0,0,1-9.449-9.449v-5.868Z" transform="translate(-208.311 -235.036)" fill="#1717b0" stroke="#000" stroke-linecap="round" stroke-linejoin="round" stroke-width="0.5"/>
      <path id="Path_8252" data-name="Path 8252" d="M398.653,344.239l.989-10.81s-56.3-2.912-58.927-2.037S324.078,341.9,324.078,341.9l7.881,14.01,5.254,1.752s1.751-9.146,8.319-7.638,11.822,10.265,11.822,10.265,8.141,3.5,19.395,0S398.653,344.239,398.653,344.239Z" transform="translate(-220.274 -236.209)" fill="#81a8f8" stroke="#000" stroke-linecap="round" stroke-linejoin="round" stroke-width="0.5"/>
      <path id="Path_8253" data-name="Path 8253" d="M398.561,336.189s-16.019,10.223-22.149,11.1-14.316.876-17.229,0-6.415-12.259-18.673-8.756-14.886,7-17.513,6.13-3.5-31.524,16.637-42.032,61.586.144,61.586.144S386.3,314.3,398.561,336.189Z" transform="translate(-219.193 -238.968)" fill="#a6fcf6" stroke="#000" stroke-linecap="round" stroke-linejoin="round" stroke-width="0.5"/>
      <path id="Path_8254" data-name="Path 8254" d="M424.9,359.5" transform="translate(-354.73 -233.862)" fill="#81a8f8" stroke="#000" stroke-linecap="round" stroke-linejoin="round" stroke-width="0.5"/>
      <path id="Path_8255" data-name="Path 8255" d="M441.553,367.43l-5.435,2.747-8.142,12.868-.151,4.339Z" transform="translate(-374.545 -233.204)" fill="#a6fcf6" stroke="#000" stroke-linecap="round" stroke-linejoin="round" stroke-width="0.5"/>
      <path id="Path_8256" data-name="Path 8256" d="M281.922,366.351l1.87.9,7.677,10.876.561,2.912Z" transform="translate(-67.006 -233.294)" fill="#a6fcf6" stroke="#000" stroke-linecap="round" stroke-linejoin="round" stroke-width="0.5"/>
      <path id="Rectangle_1700" data-name="Rectangle 1700" d="M0,0H11.225a0,0,0,0,1,0,0V30.4A3.493,3.493,0,0,1,7.732,33.89H3.493A3.493,3.493,0,0,1,0,30.4V0A0,0,0,0,1,0,0Z" transform="translate(137.625 31.002)" fill="#1717b0" stroke="#000" stroke-linecap="round" stroke-linejoin="round" stroke-width="0.5"/>
      <g id="Group_4801" data-name="Group 4801" transform="translate(86.273)">
        <path id="Path_8257" data-name="Path 8257" d="M417.724,259.592a8.418,8.418,0,0,0-7.28-7.585c-15.729-2.169-56.816-7.83-58.476-8.029-1.375-.166-18.62-.368-29.875-.484a10.778,10.778,0,0,0-10.811,9.5l-.627,5.228a10.785,10.785,0,0,0,8.713,11.885l49.747,9.364a10.781,10.781,0,0,0,2.991.14l38.544-3.576S418.766,272.447,417.724,259.592Z" transform="translate(-310.101 -243.492)" fill="#81a8f8" stroke="#000" stroke-linecap="round" stroke-linejoin="round" stroke-width="0.5"/>
        <path id="Path_8258" data-name="Path 8258" d="M413.387,273.473l1.673-13.937a6.343,6.343,0,0,0-5.458-6.892L358.043,244.4a6.374,6.374,0,0,0-7.464,5.341l-1.522,12.671a6.333,6.333,0,0,0,5.295,6.864l51.407,9.508A6.382,6.382,0,0,0,413.387,273.473Z" transform="translate(-349.015 -243.424)" fill="#81a8f8" stroke="#000" stroke-linecap="round" stroke-linejoin="round" stroke-width="0.5"/>
        <path id="Path_8259" data-name="Path 8259" d="M411.237,271.346l1.322-11.017c.313-2.609-1.942-5.054-5.112-5.543l-47.421-7.316c-3.358-.518-6.433,1.354-6.766,4.119l-1.2,10.017c-.308,2.56,1.862,4.973,4.961,5.518l47.3,8.315C407.726,276.037,410.9,274.159,411.237,271.346Z" transform="translate(-349.766 -243.169)" fill="#ceb0fa" stroke="#000" stroke-linecap="round" stroke-linejoin="round" stroke-width="0.5"/>
        <g id="Group_4799" data-name="Group 4799" transform="translate(37.269 12.468)">
          <path id="Path_8260" data-name="Path 8260" d="M363.223,270.128c3.541.424,6.788-2.363,7.253-6.226s-2.032-7.341-5.573-7.766l-3.5-.42-1.68,13.993Z" transform="translate(-353.312 -254.945)" fill="#1717b0" stroke="#000" stroke-linecap="round" stroke-linejoin="round" stroke-width="0.5"/>
          <ellipse id="Ellipse_103" data-name="Ellipse 103" cx="6.459" cy="7.046" rx="6.459" ry="7.046" transform="matrix(-0.993, -0.119, 0.119, -0.993, 12.826, 15.532)" fill="#81a8f8" stroke="#000" stroke-linecap="round" stroke-linejoin="round" stroke-width="0.5"/>
          <ellipse id="Ellipse_104" data-name="Ellipse 104" cx="4.11" cy="4.484" rx="4.11" ry="4.484" transform="matrix(-0.993, -0.119, 0.119, -0.993, 10.799, 12.708)" fill="#a6fcf6" stroke="#000" stroke-linecap="round" stroke-linejoin="round" stroke-width="0.5"/>
        </g>
        <g id="Group_4800" data-name="Group 4800" transform="translate(4.725 7.999)">
          <path id="Path_8261" data-name="Path 8261" d="M394.226,264.839a6.529,6.529,0,0,0,1.551-12.916l-3.23-.388L391,264.451Z" transform="translate(-385.078 -250.824)" fill="#1717b0" stroke="#000" stroke-linecap="round" stroke-linejoin="round" stroke-width="0.5"/>
          <ellipse id="Ellipse_105" data-name="Ellipse 105" cx="5.962" cy="6.504" rx="5.962" ry="6.504" transform="matrix(-0.993, -0.119, 0.119, -0.993, 11.839, 14.337)" fill="#81a8f8" stroke="#000" stroke-linecap="round" stroke-linejoin="round" stroke-width="0.5"/>
          <ellipse id="Ellipse_106" data-name="Ellipse 106" cx="3.794" cy="4.139" rx="3.794" ry="4.139" transform="matrix(-0.993, -0.119, 0.119, -0.993, 9.969, 11.73)" fill="#a6fcf6" stroke="#000" stroke-linecap="round" stroke-linejoin="round" stroke-width="0.5"/>
        </g>
        <line id="Line_213" data-name="Line 213" x1="14.251" y2="0.473" transform="translate(86.784 28.109)" fill="none" stroke="#000" stroke-linecap="round" stroke-linejoin="round" stroke-width="0.5"/>
        <line id="Line_214" data-name="Line 214" x1="14.251" y2="0.473" transform="translate(87.171 24.88)" fill="none" stroke="#000" stroke-linecap="round" stroke-linejoin="round" stroke-width="0.5"/>
        <line id="Line_215" data-name="Line 215" x1="14.251" y2="0.473" transform="translate(87.559 21.651)" fill="none" stroke="#000" stroke-linecap="round" stroke-linejoin="round" stroke-width="0.5"/>
      </g>
      <g id="Group_4802" data-name="Group 4802" transform="translate(138.968 130.371)">
        <path id="Path_8262" data-name="Path 8262" d="M353.886,398.581c-.52.447.624,30.284.624,30.284l-1.767,4.462h-3.525l-2.711-3.118V398.581Z" transform="translate(-338.399 -360.989)" fill="#1717b0" stroke="#000" stroke-linecap="round" stroke-linejoin="round" stroke-width="0.5"/>
        <path id="Path_8263" data-name="Path 8263" d="M350.031,430.664l1.768,50.475h-4l-1.291-50.475Z" transform="translate(-335.688 -358.326)" fill="#ceb0fa" stroke="#000" stroke-linecap="round" stroke-linejoin="round" stroke-width="0.5"/>
        <path id="Path_8264" data-name="Path 8264" d="M354.993,478.455l8.73,6.236-30.557.624,6.566-6.86Z" transform="translate(-333.167 -354.358)" fill="#1717b0" stroke="#000" stroke-linecap="round" stroke-linejoin="round" stroke-width="0.5"/>
        <path id="Path_8265" data-name="Path 8265" d="M363.724,487.492v-3.279l-30.557.624v2.971Z" transform="translate(-333.167 -353.88)" fill="#1717b0" stroke="#000" stroke-linecap="round" stroke-linejoin="round" stroke-width="0.5"/>
        <path id="Path_8266" data-name="Path 8266" d="M353.461,480.3s-.624-4.768-4.366-4.145-4.988,4.366-4.988,4.366Z" transform="translate(-334.752 -354.554)" fill="#ceb0fa" stroke="#000" stroke-linecap="round" stroke-linejoin="round" stroke-width="0.5"/>
        <rect id="Rectangle_1701" data-name="Rectangle 1701" width="1.871" height="9.978" transform="translate(15.59 34.922)" fill="#1717b0" stroke="#000" stroke-linecap="round" stroke-linejoin="round" stroke-width="0.5"/>
        <rect id="Rectangle_1702" data-name="Rectangle 1702" width="1.871" height="9.978" transform="translate(6.236 34.922)" fill="#1717b0" stroke="#000" stroke-linecap="round" stroke-linejoin="round" stroke-width="0.5"/>
        <path id="Path_8267" data-name="Path 8267" d="M358.017,363.87l1.871,34.922-13.841.792-1.94-35.09Z" transform="translate(-341.18 -363.87)" fill="#81a8f8" stroke="#000" stroke-linecap="round" stroke-linejoin="round" stroke-width="0.5"/>
        <path id="Path_8268" data-name="Path 8268" d="M354.829,368.843,356,392.83h-7.747l-1.174-23.6Z" transform="translate(-340.516 -363.457)" fill="#a6fcf6" stroke="#000" stroke-linecap="round" stroke-linejoin="round" stroke-width="0.5"/>
        <line id="Line_216" data-name="Line 216" x1="7.483" y2="0.624" transform="translate(6.86 8.73)" fill="none" stroke="#000" stroke-linecap="round" stroke-linejoin="round" stroke-width="0.5"/>
      </g>
    </g>
    <g id="Group_4804" data-name="Group 4804" transform="translate(116.468)">
      <line id="Line_217" data-name="Line 217" x1="15.969" y1="33.687" transform="translate(0.183)" fill="none" stroke="#000" stroke-linecap="round" stroke-linejoin="round" stroke-width="0.5"/>
      <ellipse id="Ellipse_107" data-name="Ellipse 107" cx="3.214" cy="3.214" rx="3.214" ry="3.214" transform="translate(0 3.214)" fill="#a6fcf6" stroke="#000" stroke-linecap="round" stroke-linejoin="round" stroke-width="0.5"/>
    </g>
    <g id="Group_4805" data-name="Group 4805" transform="translate(162.986 3.214)">
      <line id="Line_218" data-name="Line 218" y1="33.687" x2="15.969" transform="translate(0)" fill="none" stroke="#000" stroke-linecap="round" stroke-linejoin="round" stroke-width="0.5"/>
      <ellipse id="Ellipse_108" data-name="Ellipse 108" cx="3.214" cy="3.214" rx="3.214" ry="3.214" transform="translate(9.724 3.214)" fill="#a6fcf6" stroke="#000" stroke-linecap="round" stroke-linejoin="round" stroke-width="0.5"/>
    </g>
    <g id="Group_4806" data-name="Group 4806" transform="translate(164.921 110.29)">
      <path id="Path_8269" data-name="Path 8269" d="M338.434,328.57s4.4-1.618,4.195-5.4-3.376-4.994-5.784-4.864c0,0-4.474.243-4.381,1.962s1.135,8.221,2.512,8.148A26.606,26.606,0,0,1,338.434,328.57Z" transform="translate(-331.069 -317.845)" fill="#ceb0fa" stroke="#000" stroke-linecap="round" stroke-linejoin="round" stroke-width="0.5"/>
      <path id="Path_8270" data-name="Path 8270" d="M339.66,323.992a6.679,6.679,0,0,0,4.045,4.613s-.523.91-.976,1.088c-1.014.4-4.555.366-5.729-3.832-.856-3.059-1.005-5.813.316-6.918,1.18-.99,1.989-1.488,4.8-.605C342.116,318.337,337.7,319.612,339.66,323.992Z" transform="translate(-336.341 -317.879)" fill="#fff" stroke="#000" stroke-linecap="round" stroke-linejoin="round" stroke-width="0.5"/>
    </g>
    <g id="Group_4807" data-name="Group 4807" transform="translate(108.103 109.073)">
      <path id="Path_8271" data-name="Path 8271" d="M390.526,327.5s-4.421-1.555-4.27-5.344,3.305-5.041,5.715-4.945c0,0,4.476.179,4.408,1.9s-1.018,8.236-2.4,8.181A26.552,26.552,0,0,0,390.526,327.5Z" transform="translate(-386.252 -316.718)" fill="#ceb0fa" stroke="#000" stroke-linecap="round" stroke-linejoin="round" stroke-width="0.5"/>
      <path id="Path_8272" data-name="Path 8272" d="M388.926,322.867a6.681,6.681,0,0,1-3.98,4.669s.536.9.992,1.074c1.019.386,4.559.3,5.674-3.912.812-3.071.922-5.827-.414-6.914-1.2-.974-2.011-1.46-4.807-.537C386.39,317.248,390.825,318.46,388.926,322.867Z" transform="translate(-380.672 -316.755)" fill="#fff" stroke="#000" stroke-linecap="round" stroke-linejoin="round" stroke-width="0.5"/>
    </g>
    <g id="Group_4808" data-name="Group 4808" transform="translate(133.362 106.866)">
      <path id="Path_8273" data-name="Path 8273" d="M373.341,324.873c-.306,1.144-2.13,7.957-9.821,6.285s-7.518-6.663-7.1-9.653,2.82-8.152,10.641-6.453C374.748,316.725,373.729,323.428,373.341,324.873Z" transform="translate(-356.258 -314.717)" fill="#fff" stroke="#000" stroke-linecap="round" stroke-linejoin="round" stroke-width="0.5"/>
      <path id="Path_8274" data-name="Path 8274" d="M371.447,324.348c-.242.9-1.683,6.288-7.761,4.967s-5.941-5.266-5.615-7.629,2.23-6.443,8.411-5.1C372.559,317.908,371.753,323.206,371.447,324.348Z" transform="translate(-356.135 -314.584)" fill="#ceb0fa" stroke="#000" stroke-linecap="round" stroke-linejoin="round" stroke-width="0.5"/>
      <path id="Path_8275" data-name="Path 8275" d="M360.719,319.04s-2.453,5.831-1.835,9.029" transform="translate(-346.102 -314.359)" fill="none" stroke="#000" stroke-linecap="round" stroke-linejoin="round" stroke-width="0.5"/>
      <path id="Path_8276" data-name="Path 8276" d="M363.04,317.326a17.35,17.35,0,0,0-2.069,5.638,20.95,20.95,0,0,0-.026,6.3" transform="translate(-350.518 -314.501)" fill="none" stroke="#000" stroke-linecap="round" stroke-linejoin="round" stroke-width="0.5"/>
      <path id="Path_8277" data-name="Path 8277" d="M365.5,316.527a24.1,24.1,0,0,0-1.893,5.815,42.944,42.944,0,0,0-.33,6.956" transform="translate(-355.726 -314.567)" fill="none" stroke="#000" stroke-linecap="round" stroke-linejoin="round" stroke-width="0.5"/>
      <path id="Path_8278" data-name="Path 8278" d="M368.047,316.521a20.119,20.119,0,0,0-1.656,5.342,20.421,20.421,0,0,0,.181,6.7" transform="translate(-361.443 -314.568)" fill="none" stroke="#000" stroke-linecap="round" stroke-linejoin="round" stroke-width="0.5"/>
      <path id="Path_8279" data-name="Path 8279" d="M370.248,317.335s-2.983,6.41-1.554,9.161" transform="translate(-365.945 -314.5)" fill="none" stroke="#000" stroke-linecap="round" stroke-linejoin="round" stroke-width="0.5"/>
    </g>
    <g id="Group_4809" data-name="Group 4809" transform="translate(184.709 99.326)">
      <path id="Path_8280" data-name="Path 8280" d="M301.583,313.59s19.6,5.538,22.45,11.459l2.8-5.19s-15.825-11.63-22.611-12.1C304.227,307.756,299.778,309.6,301.583,313.59Z" transform="translate(-301.152 -307.756)" fill="#81a8f8" stroke="#000" stroke-linecap="round" stroke-linejoin="round" stroke-width="0.5"/>
      <path id="Path_8281" data-name="Path 8281" d="M301.241,326.525l-2.033-2.134a3.358,3.358,0,0,1-.37-4.165l1.821-2.757a3.358,3.358,0,0,1,5.031-.663L308,318.858l-6.194,8.966Z" transform="translate(-279.208 -307.075)" fill="#ceb0fa" stroke="#000" stroke-linecap="round" stroke-linejoin="round" stroke-width="0.5"/>
      <path id="Path_8282" data-name="Path 8282" d="M290.235,313.788c5.75-1.451,10.213-.81,16.791,16.751S320.7,384.179,299.957,387s-28.879-7.738-27.137-21.458S275.365,317.542,290.235,313.788Z" transform="translate(-257.122 -307.297)" fill="#81a8f8" stroke="#000" stroke-linecap="round" stroke-linejoin="round" stroke-width="0.5"/>
      <path id="Path_8283" data-name="Path 8283" d="M313.541,372.309s-7.928-13.732-21.91-13.287-17.643,8.233-17.643,8.233" transform="translate(-258.435 -303.501)" fill="none" stroke="#000" stroke-linecap="round" stroke-linejoin="round" stroke-width="0.5"/>
      <path id="Path_8284" data-name="Path 8284" d="M313.541,369.341s-7.928-13.731-21.91-13.286-17.643,8.232-17.643,8.232" transform="translate(-258.435 -303.747)" fill="none" stroke="#000" stroke-linecap="round" stroke-linejoin="round" stroke-width="0.5" stroke-dasharray="1 3"/>
      <path id="Path_8285" data-name="Path 8285" d="M294.679,365.381s-5.309,10.185-7.479,13.472-4.309,13.676,3.233,14.407c7.4.718,12.943-13.645,8.507-26.393-.087-.247-.176-.494-.176-.494A3.679,3.679,0,0,0,294.679,365.381Z" transform="translate(-257.52 -302.994)" fill="#a6fcf6" stroke="#000" stroke-linecap="round" stroke-linejoin="round" stroke-width="0.5"/>
      <path id="Path_8286" data-name="Path 8286" d="M286.541,366.606s-1.541-2.885,1.569-3.664,4.589,3.208,3.235,4.113S286.541,366.606,286.541,366.606Z" transform="translate(-249.926 -303.183)" fill="#ceb0fa" stroke="#000" stroke-linecap="round" stroke-linejoin="round" stroke-width="0.5"/>
      <path id="Path_8287" data-name="Path 8287" d="M273.824,381.445s-1.809,1.487-1.467,2.787-.391,11.783-2.692,14.693-2.77,8.264,1.28,10,12.909-8.47,12.336-14.751-2.514-12.28-3.937-12.984S273.824,381.445,273.824,381.445Z" transform="translate(-221.622 -301.682)" fill="#a6fcf6" stroke="#000" stroke-linecap="round" stroke-linejoin="round" stroke-width="0.5"/>
      <path id="Path_8288" data-name="Path 8288" d="M272.6,377.338s4.592,6.017,4.539,7.862,2.855-1.647,2.855-1.647-3.014-8.144-4.217-8.466S272.6,377.338,272.6,377.338Z" transform="translate(-223.381 -302.169)" fill="#ceb0fa" stroke="#000" stroke-linecap="round" stroke-linejoin="round" stroke-width="0.5"/>
      <path id="Path_8289" data-name="Path 8289" d="M313.869,371.544s-5.354,2.075-6.462,3.731,1.359,3.285,1.359,3.285,5.867-4.813,6.557-4.5S313.869,371.544,313.869,371.544Z" transform="translate(-296.237 -302.461)" fill="#ceb0fa" stroke="#000" stroke-linecap="round" stroke-linejoin="round" stroke-width="0.5"/>
      <path id="Path_8290" data-name="Path 8290" d="M319.563,375.174s-1.308-2.485-5.928,2.725-6.149,21.476,3,24.777,7.263-6.29,5.524-8.338-2.753-9.091-1.184-12.539S319.563,375.174,319.563,375.174Z" transform="translate(-307.445 -302.209)" fill="#a6fcf6" stroke="#000" stroke-linecap="round" stroke-linejoin="round" stroke-width="0.5"/>
      <ellipse id="Ellipse_109" data-name="Ellipse 109" cx="3.083" cy="3.083" rx="3.083" ry="3.083" transform="translate(8.403 72.092)" fill="#ceb0fa" stroke="#000" stroke-linecap="round" stroke-linejoin="round" stroke-width="0.5"/>
      <ellipse id="Ellipse_110" data-name="Ellipse 110" cx="3.083" cy="3.083" rx="3.083" ry="3.083" transform="translate(16.031 67.688)" fill="#ceb0fa" stroke="#000" stroke-linecap="round" stroke-linejoin="round" stroke-width="0.5"/>
      <ellipse id="Ellipse_111" data-name="Ellipse 111" cx="3.083" cy="3.083" rx="3.083" ry="3.083" transform="translate(47.344 69.952)" fill="#ceb0fa" stroke="#000" stroke-linecap="round" stroke-linejoin="round" stroke-width="0.5"/>
      <ellipse id="Ellipse_112" data-name="Ellipse 112" cx="3.083" cy="3.083" rx="3.083" ry="3.083" transform="translate(52.307 80.309)" fill="#ceb0fa" stroke="#000" stroke-linecap="round" stroke-linejoin="round" stroke-width="0.5"/>
      <path id="Path_8291" data-name="Path 8291" d="M287.777,365.167l2.131-13.521L298,342.752l-.334-16.434s3.56-13.722,8.176-12.079" transform="translate(-265.667 -307.229)" fill="none" stroke="#000" stroke-linecap="round" stroke-linejoin="round" stroke-width="0.5"/>
    </g>
    <path id="Path_8292" data-name="Path 8292" d="M320.163,336a37.6,37.6,0,0,1-4.821-25.712c1.607-9.641,7.956-9.967,7.354-10.036l7.493,1.134s-7.182,6.117-9.408,17.955S320.163,336,320.163,336Z" transform="translate(-134.597 -209.053)" fill="#ceb0fa" stroke="#000" stroke-linecap="round" stroke-linejoin="round" stroke-width="0.5"/>
    <path id="Path_8293" data-name="Path 8293" d="M384.764,302.467c-4.934-.546-12.563.426-17.348,9.662s2.149-.27,9.93-2.749S392.64,303.339,384.764,302.467Z" transform="translate(-247.771 -208.879)" fill="#fff" opacity="0.82"/>
    <path id="Path_8294" data-name="Path 8294" d="M348.664,253.207c-7.511-1.553-30.666-1.765-30.66,1.135S355.494,254.619,348.664,253.207Z" transform="translate(-157.352 -213.051)" fill="#fff" opacity="0.45"/>
    <path id="Path_8295" data-name="Path 8295" d="M355.924,333.972c-4.784.129-13.1,5.655-18.79,3.648s-2.478,7.634,12.819,2.711C360.837,336.828,358.1,333.914,355.924,333.972Z" transform="translate(-183.639 -206.253)" fill="#fff" opacity="0.71"/>
    <path id="Path_8296" data-name="Path 8296" d="M284.9,316.585c-10.1,4.784-.267,3.605,4.474,6.249,9.769,5.446,8.464,23.932,11.376,21.515C303.3,342.23,297.531,310.6,284.9,316.585Z" transform="translate(-68.578 -207.759)" fill="#fff" opacity="0.45"/>
    <path id="Path_8297" data-name="Path 8297" d="M450.049,331.882S419.6,303.294,414.5,307.707s4.791,3.075,16.717,10.974S452.136,335.577,450.049,331.882Z" transform="translate(-361.223 -208.472)" fill="#fff" opacity="0.45"/>
  </g>
</svg>
