<svg xmlns="http://www.w3.org/2000/svg" width="111.577" height="115.068" viewBox="0 0 111.577 115.068">
  <g id="Group_4789" data-name="Group 4789" transform="translate(111.254 9.691) rotate(109)">
    <g id="Group_4782" data-name="Group 4782" transform="translate(0 0)">
      <g id="Group_4781" data-name="Group 4781">
        <g id="Group_4780" data-name="Group 4780">
          <g id="Group_4779" data-name="Group 4779">
            <ellipse id="Ellipse_82" data-name="Ellipse 82" cx="1.229" cy="1.173" rx="1.229" ry="1.173" transform="matrix(-0.847, -0.532, 0.532, -0.847, 8.003, 9.082)" fill="#a6fcf6" stroke="#000" stroke-linecap="round" stroke-linejoin="round" stroke-width="0.5"/>
            <path id="Path_8180" data-name="Path 8180" d="M1.013,10.87A7.68,7.68,0,0,1,.227,8.93,7.1,7.1,0,0,1,5.747.153,7.616,7.616,0,0,1,7.836.021" fill="none" stroke="#000" stroke-linecap="round" stroke-linejoin="round" stroke-width="0.5"/>
            <path id="Path_8181" data-name="Path 8181" d="M1.051,8.811A5.926,5.926,0,0,1,.176,6.889,5.48,5.48,0,0,1,4.433.118,5.927,5.927,0,0,1,6.545.074" transform="translate(1.735 1.699)" fill="none" stroke="#000" stroke-linecap="round" stroke-linejoin="round" stroke-width="0.5"/>
            <path id="Path_8182" data-name="Path 8182" d="M1.176,6.734A4.2,4.2,0,0,1,.124,4.847a3.851,3.851,0,0,1,3-4.764A4.213,4.213,0,0,1,5.276.214" transform="translate(3.468 3.398)" fill="none" stroke="#000" stroke-linecap="round" stroke-linejoin="round" stroke-width="0.5"/>
          </g>
        </g>
        <line id="Line_212" data-name="Line 212" x2="6.952" y2="4.372" transform="translate(10.222 9.013)" fill="none" stroke="#000" stroke-linecap="round" stroke-linejoin="round" stroke-width="0.5"/>
      </g>
    </g>
    <ellipse id="Ellipse_83" data-name="Ellipse 83" cx="21.572" cy="21.572" rx="21.572" ry="21.572" transform="translate(12.245 2.483)" fill="#81a8f8" stroke="#1d1d1b" stroke-linecap="round" stroke-linejoin="round" stroke-width="0.5"/>
    <rect id="Rectangle_1697" data-name="Rectangle 1697" width="47.127" height="3.319" transform="matrix(0.532, -0.847, 0.847, 0.532, 19.587, 42.942)" fill="#47496e" stroke="#1d1d1b" stroke-linecap="round" stroke-linejoin="round" stroke-width="0.5"/>
    <ellipse id="Ellipse_84" data-name="Ellipse 84" cx="2.323" cy="2.323" rx="2.323" ry="2.323" transform="translate(18.031 13.216)" fill="#e30078" stroke="#1d1d1b" stroke-linecap="round" stroke-linejoin="round" stroke-width="0.5"/>
    <g id="Group_4783" data-name="Group 4783" transform="translate(17.635 5.477)">
      <ellipse id="Ellipse_85" data-name="Ellipse 85" cx="1.223" cy="1.223" rx="1.223" ry="1.223" transform="translate(0 27.429)" fill="#169133" stroke="#1d1d1b" stroke-linecap="round" stroke-linejoin="round" stroke-width="0.5"/>
      <ellipse id="Ellipse_86" data-name="Ellipse 86" cx="1.223" cy="1.223" rx="1.223" ry="1.223" transform="translate(2.875 22.857)" fill="#169133" stroke="#1d1d1b" stroke-linecap="round" stroke-linejoin="round" stroke-width="0.5"/>
      <ellipse id="Ellipse_87" data-name="Ellipse 87" cx="1.223" cy="1.223" rx="1.223" ry="1.223" transform="translate(5.75 18.286)" fill="#169133" stroke="#1d1d1b" stroke-linecap="round" stroke-linejoin="round" stroke-width="0.5"/>
      <ellipse id="Ellipse_88" data-name="Ellipse 88" cx="1.223" cy="1.223" rx="1.223" ry="1.223" transform="translate(8.625 13.714)" fill="#169133" stroke="#1d1d1b" stroke-linecap="round" stroke-linejoin="round" stroke-width="0.5"/>
      <ellipse id="Ellipse_89" data-name="Ellipse 89" cx="1.223" cy="1.223" rx="1.223" ry="1.223" transform="translate(11.5 9.143)" fill="#169133" stroke="#1d1d1b" stroke-linecap="round" stroke-linejoin="round" stroke-width="0.5"/>
      <ellipse id="Ellipse_90" data-name="Ellipse 90" cx="1.223" cy="1.223" rx="1.223" ry="1.223" transform="translate(14.375 4.571)" fill="#169133" stroke="#1d1d1b" stroke-linecap="round" stroke-linejoin="round" stroke-width="0.5"/>
      <ellipse id="Ellipse_91" data-name="Ellipse 91" cx="1.223" cy="1.223" rx="1.223" ry="1.223" transform="translate(17.25 0)" fill="#169133" stroke="#1d1d1b" stroke-linecap="round" stroke-linejoin="round" stroke-width="0.5"/>
    </g>
    <path id="Path_8183" data-name="Path 8183" d="M0,4.63,2.911,0S7.437,2.062,5.421,5.892a71.883,71.883,0,0,1-3.775,6.4A24.62,24.62,0,0,1,0,4.63Z" transform="translate(12.266 20.124)" fill="#a6fcf6" stroke="#1d1d1b" stroke-linecap="round" stroke-linejoin="round" stroke-width="0.5"/>
    <path id="Path_8184" data-name="Path 8184" d="M2.911,1.839,0,6.468s3.819,3.186,6.4-.29A71.876,71.876,0,0,0,10.533,0,24.615,24.615,0,0,0,2.911,1.839Z" transform="translate(22.153 2.472)" fill="#a6fcf6" stroke="#1d1d1b" stroke-linecap="round" stroke-linejoin="round" stroke-width="0.5"/>
    <g id="Group_4784" data-name="Group 4784" transform="translate(28.41 31.514)">
      <path id="Path_8185" data-name="Path 8185" d="M0,3.892,2.448,0,8.577,8.607l-4.6.84Z" transform="translate(3.366 0)" fill="#a6fcf6" stroke="#1d1d1b" stroke-linecap="round" stroke-linejoin="round" stroke-width="0.5"/>
      <path id="Path_8186" data-name="Path 8186" d="M0,3.892,2.448,0,5.6,4.7,1,5.54Z" transform="translate(0 5.352)" fill="#a6fcf6" stroke="#1d1d1b" stroke-linecap="round" stroke-linejoin="round" stroke-width="0.5"/>
    </g>
    <g id="Group_4785" data-name="Group 4785" transform="translate(40.142 12.859)">
      <path id="Path_8187" data-name="Path 8187" d="M2.448,0,0,3.892l10.412,1.8L9.176,1.176Z" transform="translate(0 5.352)" fill="#a6fcf6" stroke="#1d1d1b" stroke-linecap="round" stroke-linejoin="round" stroke-width="0.5"/>
      <path id="Path_8188" data-name="Path 8188" d="M2.448,0,0,3.892,5.6,4.7,4.366.188Z" transform="translate(3.366 0)" fill="#a6fcf6" stroke="#1d1d1b" stroke-linecap="round" stroke-linejoin="round" stroke-width="0.5"/>
    </g>
    <g id="Group_4786" data-name="Group 4786" transform="translate(29.937 20.383)">
      <path id="Path_8189" data-name="Path 8189" d="M61.991,39.974,0,3.266,2.054,0Z" transform="translate(3.696 2.569)" fill="#f3ba2f" stroke="#000" stroke-linecap="round" stroke-linejoin="round" stroke-width="0.5"/>
      <ellipse id="Ellipse_92" data-name="Ellipse 92" cx="3.319" cy="3.319" rx="3.319" ry="3.319" transform="translate(0 0)" fill="#ceb0fa" stroke="#1d1d1b" stroke-linecap="round" stroke-linejoin="round" stroke-width="0.5"/>
    </g>
    <g id="Group_4787" data-name="Group 4787" transform="translate(41.323 2.28)">
      <path id="Path_8190" data-name="Path 8190" d="M67.216,29.491,0,3.562,1.485,0Z" transform="translate(4.108 2.177)" fill="#f3ba2f" stroke="#000" stroke-linecap="round" stroke-linejoin="round" stroke-width="0.5"/>
      <ellipse id="Ellipse_93" data-name="Ellipse 93" cx="3.319" cy="3.319" rx="3.319" ry="3.319" transform="translate(0 0)" fill="#ceb0fa" stroke="#1d1d1b" stroke-linecap="round" stroke-linejoin="round" stroke-width="0.5"/>
    </g>
    <g id="Group_4788" data-name="Group 4788" transform="translate(18.145 38.663)">
      <path id="Path_8191" data-name="Path 8191" d="M55.053,49.351,2.567,0,0,2.881Z" transform="translate(3.274 2.982)" fill="#f3ba2f" stroke="#000" stroke-linecap="round" stroke-linejoin="round" stroke-width="0.5"/>
      <ellipse id="Ellipse_94" data-name="Ellipse 94" cx="3.319" cy="3.319" rx="3.319" ry="3.319" transform="translate(0 0)" fill="#ceb0fa" stroke="#1d1d1b" stroke-linecap="round" stroke-linejoin="round" stroke-width="0.5"/>
    </g>
  </g>
</svg>
