<svg xmlns="http://www.w3.org/2000/svg" xmlns:xlink="http://www.w3.org/1999/xlink" width="141.673" height="58.024" viewBox="0 0 141.673 58.024">
  <defs>
    <clipPath id="clip-path">
      <path id="Path_8195" data-name="Path 8195" d="M279.868,225.437a5.811,5.811,0,0,1,2.3,3.943c.164,2.227-1.372,4.178-2.819,5.878a12.483,12.483,0,0,1-2.507,2.437,4.2,4.2,0,0,1-3.332.7,12.048,12.048,0,0,1-2.314-1.2,29.792,29.792,0,0,0-3.715-1.3,4.823,4.823,0,0,1-2.965-2.417c-.454-1.1-.224-2.349-.36-3.531-.061-.524-.194-1.04-.213-1.567-.088-2.474,2.229-4.274,4.3-5.627a2.614,2.614,0,0,1,1.268-.536c.845-.034,1.479.719,2.2,1.162,1.528.938,2.463-.1,3.931-.091C276.987,223.293,278.868,224.631,279.868,225.437Z" transform="translate(-263.942 -222.21)" fill="#81a8f8" stroke="#020202" stroke-linecap="round" stroke-linejoin="round" stroke-width="0.5"/>
    </clipPath>
    <clipPath id="clip-path-2">
      <path id="Path_8200" data-name="Path 8200" d="M307.935,189.394c2.525.01,5.024.832,6.432,2.777,2.007,2.774,1.369,6.981.656,10.763a24.108,24.108,0,0,1-1.639,5.879,8.822,8.822,0,0,1-4.2,4.452,20.491,20.491,0,0,1-4.263.862,54.24,54.24,0,0,0-6.341,2.214c-2.122.709-4.479,1.018-6.162-.056-1.525-.974-2.191-2.871-3.327-4.29-.5-.629-1.106-1.171-1.553-1.848-2.1-3.179-.223-8.014,1.657-12a5.5,5.5,0,0,1,1.383-2.051c1.18-.94,2.686-.617,4.069-.8,2.93-.376,3.433-2.745,5.542-4.284C302.112,189.61,305.865,189.386,307.935,189.394Z" transform="translate(-286.613 -189.394)" fill="#a6fcf6" stroke="#020202" stroke-linecap="round" stroke-linejoin="round" stroke-width="0.5"/>
    </clipPath>
  </defs>
  <g id="Group_4820" data-name="Group 4820" transform="translate(-227.105 -122.09)">
    <g id="Group_4791" data-name="Group 4791" transform="translate(262.705 157.88)">
      <path id="Path_8192" data-name="Path 8192" d="M279.868,225.437a5.811,5.811,0,0,1,2.3,3.943c.164,2.227-1.372,4.178-2.819,5.878a12.483,12.483,0,0,1-2.507,2.437,4.2,4.2,0,0,1-3.332.7,12.048,12.048,0,0,1-2.314-1.2,29.792,29.792,0,0,0-3.715-1.3,4.823,4.823,0,0,1-2.965-2.417c-.454-1.1-.224-2.349-.36-3.531-.061-.524-.194-1.04-.213-1.567-.088-2.474,2.229-4.274,4.3-5.627a2.614,2.614,0,0,1,1.268-.536c.845-.034,1.479.719,2.2,1.162,1.528.938,2.463-.1,3.931-.091C276.987,223.293,278.868,224.631,279.868,225.437Z" transform="translate(-263.942 -222.21)" fill="#81a8f8"/>
      <g id="Group_4790" data-name="Group 4790" clip-path="url(#clip-path)">
        <path id="Path_8193" data-name="Path 8193" d="M273.934,219.427l3.182,4.757a6.274,6.274,0,0,1,1.174,2.481c.242,1.647-.832,3.17-1.848,4.489a1.927,1.927,0,0,1-.722.664c-.7.295-1.452-.295-1.854-.934a4.889,4.889,0,0,0-1.334-1.8,1.608,1.608,0,0,0-2.079,2.386c.563.7,1.787,1.236,1.44,2.065a1.037,1.037,0,0,1-.343.409c-1.152.882-2.946.173-3.713-1.058a7.9,7.9,0,0,1-.793-4.215l-6.264-3.82q-.258,4.8-.278,9.6a6.134,6.134,0,0,0,.421,2.752c.777,1.58,2.683,2.193,4.4,2.562a53.4,53.4,0,0,0,13.535,1.137A4.457,4.457,0,0,0,284,237.426a13.422,13.422,0,0,0,1-4.446,11.229,11.229,0,0,0-3.079-7.03c-1.691-1.992-3.714-3.687-5.355-5.719" transform="translate(-263.033 -222.441)" fill="#a6fcf6" stroke="#020202" stroke-linecap="round" stroke-linejoin="round" stroke-width="0.5" style="mix-blend-mode: multiply;isolation: isolate"/>
        <path id="Path_8194" data-name="Path 8194" d="M279.468,225.918c.117.06.247.132.282.259a.48.48,0,0,1-.115.366c-.419.634-1.064,1.355-1.788,1.128a1.892,1.892,0,0,1-.728-.539,27.59,27.59,0,0,0-3.729-2.8c-.844-.613-1.362-.623-.364-1.341C275.1,221.505,277.865,225.1,279.468,225.918Z" transform="translate(-270.763 -222.174)" fill="#a6fcf6" stroke="#020202" stroke-linecap="round" stroke-linejoin="round" stroke-width="0.5" style="mix-blend-mode: multiply;isolation: isolate"/>
      </g>
      <path id="Path_8196" data-name="Path 8196" d="M279.868,225.437a5.811,5.811,0,0,1,2.3,3.943c.164,2.227-1.372,4.178-2.819,5.878a12.483,12.483,0,0,1-2.507,2.437,4.2,4.2,0,0,1-3.332.7,12.048,12.048,0,0,1-2.314-1.2,29.792,29.792,0,0,0-3.715-1.3,4.823,4.823,0,0,1-2.965-2.417c-.454-1.1-.224-2.349-.36-3.531-.061-.524-.194-1.04-.213-1.567-.088-2.474,2.229-4.274,4.3-5.627a2.614,2.614,0,0,1,1.268-.536c.845-.034,1.479.719,2.2,1.162,1.528.938,2.463-.1,3.931-.091C276.987,223.293,278.868,224.631,279.868,225.437Z" transform="translate(-263.942 -222.21)" fill="none" stroke="#020202" stroke-linecap="round" stroke-linejoin="round" stroke-width="0.5"/>
    </g>
    <g id="Group_4793" data-name="Group 4793" transform="translate(227.29 122.34)">
      <path id="Path_8197" data-name="Path 8197" d="M307.935,189.394c2.525.01,5.024.832,6.432,2.777,2.007,2.774,1.369,6.981.656,10.763a24.108,24.108,0,0,1-1.639,5.879,8.822,8.822,0,0,1-4.2,4.452,20.491,20.491,0,0,1-4.263.862,54.24,54.24,0,0,0-6.341,2.214c-2.122.709-4.479,1.018-6.162-.056-1.525-.974-2.191-2.871-3.327-4.29-.5-.629-1.106-1.171-1.553-1.848-2.1-3.179-.223-8.014,1.657-12a5.5,5.5,0,0,1,1.383-2.051c1.18-.94,2.686-.617,4.069-.8,2.93-.376,3.433-2.745,5.542-4.284C302.112,189.61,305.865,189.386,307.935,189.394Z" transform="translate(-286.613 -189.394)" fill="#a6fcf6"/>
      <g id="Group_4792" data-name="Group 4792" clip-path="url(#clip-path-2)">
        <path id="Path_8198" data-name="Path 8198" d="M292.706,186.818l8.336,2.921a8.15,8.15,0,0,1,3.652,2.039c1.658,1.923,1.34,5.074.94,7.9a3.8,3.8,0,0,1-.5,1.643,2.84,2.84,0,0,1-3.393.729c-1.082-.419-2.1-1.134-3.337-.962a3.409,3.409,0,0,0-2.653,2.586,2.325,2.325,0,0,0,1.586,2.773c1.364.33,3.537-.259,3.7,1.205a1.941,1.941,0,0,1-.164.906,4.976,4.976,0,0,1-6.144,2.532c-2.075-.817-3.335-2.821-4.492-4.736l-11.99,1.582q3.454,6.617,7.253,12.993a7.988,7.988,0,0,0,2.794,3.2c2.369,1.267,5.579.058,8.332-1.276a107.09,107.09,0,0,0,20.236-12.834c1.935-1.553,3.96-3.377,4.6-5.717a9.916,9.916,0,0,0-.036-4.335,19.759,19.759,0,0,0-2.122-6.937c-2.076-3.46-5.995-5.2-10-6.039s-8.243-.941-12.208-1.891" transform="translate(-283.534 -189.751)" fill="#81a8f8" stroke="#020202" stroke-linecap="round" stroke-linejoin="round" stroke-width="0.5" style="mix-blend-mode: multiply;isolation: isolate"/>
        <path id="Path_8199" data-name="Path 8199" d="M314.137,197.092a.716.716,0,0,1,.608.044.731.731,0,0,1,.128.6c-.093,1.282-.439,2.92-1.654,3.389a2.968,2.968,0,0,1-1.469.056c-2.536-.316-4.978.122-7.553.25-1.695.084-2.444.619-1.589-1.388C304.384,195.878,311.2,197.705,314.137,197.092Z" transform="translate(-302.716 -188.758)" fill="#81a8f8" stroke="#020202" stroke-linecap="round" stroke-linejoin="round" stroke-width="0.5" style="mix-blend-mode: multiply;isolation: isolate"/>
      </g>
      <path id="Path_8201" data-name="Path 8201" d="M307.935,189.394c2.525.01,5.024.832,6.432,2.777,2.007,2.774,1.369,6.981.656,10.763a24.108,24.108,0,0,1-1.639,5.879,8.822,8.822,0,0,1-4.2,4.452,20.491,20.491,0,0,1-4.263.862,54.24,54.24,0,0,0-6.341,2.214c-2.122.709-4.479,1.018-6.162-.056-1.525-.974-2.191-2.871-3.327-4.29-.5-.629-1.106-1.171-1.553-1.848-2.1-3.179-.223-8.014,1.657-12a5.5,5.5,0,0,1,1.383-2.051c1.18-.94,2.686-.617,4.069-.8,2.93-.376,3.433-2.745,5.542-4.284C302.112,189.61,305.865,189.386,307.935,189.394Z" transform="translate(-286.613 -189.394)" fill="none" stroke="#020202" stroke-linecap="round" stroke-linejoin="round" stroke-width="0.5"/>
    </g>
    <g id="Group_4794" data-name="Group 4794" transform="translate(316.072 149.931)">
      <path id="Path_8202" data-name="Path 8202" d="M236.228,245.333s-1-1.36,1.36-1,13.456,6.872,13.742,12.955-1.788,11.81-21.686,7.588-28.632-10.377-30.278-15.459a10.193,10.193,0,0,1,2.791-10.45c3.847-2.834,8.725-3.1,11.166-1.933h0l1,1.36,1.36-1,2.362.357,2.362.357,1.466,1.6,1.54,2.482,1.36-1,1.359-1,5.726,2.075,2,2.719Z" transform="translate(-198.894 -236.383)" fill="#a6fcf6" stroke="#020202" stroke-linecap="round" stroke-linejoin="round" stroke-width="0.5"/>
      <path id="Path_8203" data-name="Path 8203" d="M214.291,244.779s3.293,10.163,1.933,11.166-2.719,2-4.367-3.078a23.8,23.8,0,0,1-.93-9.806Z" transform="translate(-176.957 -235.828)" fill="#81a8f8" stroke="#020202" stroke-linecap="round" stroke-linejoin="round" stroke-width="0.5"/>
      <path id="Path_8204" data-name="Path 8204" d="M224.649,240.946s3.937,13.885,1.575,13.528-4.94-15.246-4.94-15.246Z" transform="translate(-198.767 -236.146)" fill="#81a8f8" stroke="#020202" stroke-linecap="round" stroke-linejoin="round" stroke-width="0.5"/>
      <path id="Path_8205" data-name="Path 8205" d="M233.424,237.339s2.243,12.42.573,12.168c-4.724-.716-2.935-12.526-2.935-12.526Z" transform="translate(-216.632 -236.333)" fill="#81a8f8" stroke="#020202" stroke-linecap="round" stroke-linejoin="round" stroke-width="0.5"/>
    </g>
  </g>
</svg>
