<?xml version="1.0" encoding="utf-8"?>
<!-- Generator: Adobe Illustrator 27.5.0, SVG Export Plug-In . SVG Version: 6.00 Build 0)  -->
<svg version="1.1" xmlns="http://www.w3.org/2000/svg" xmlns:xlink="http://www.w3.org/1999/xlink" x="0px" y="0px"
	 viewBox="0 0 216 293" style="enable-background:new 0 0 216 293;" xml:space="preserve">
<style type="text/css">
	.st0{fill:none;stroke:#03A5ED;stroke-width:2;stroke-linecap:round;stroke-linejoin:round;stroke-miterlimit:10;}
	.st1{fill:#B5C0F1;}
	.st2{fill:#221363;}
	.st3{fill:#03A5ED;}
</style>
<g id="Layer_1">
	<g>
		<g>
			<polygon class="st0" points="109.2,28.17 26.04,172.21 192.37,172.21 			"/>
			<g>
				<polygon class="st1" points="110.07,78.21 110.07,125.78 149.56,146.6 				"/>
				<polygon class="st2" points="110.07,125.78 70.59,146.6 149.56,146.6 				"/>
				<polygon class="st3" points="110.07,78.21 70.59,146.6 110.14,125.78 				"/>
			</g>
			<circle class="st3" cx="189.8" cy="171.2" r="5.85"/>
			<circle class="st3" cx="109.31" cy="28.71" r="5.85"/>
			<circle class="st3" cx="26.2" cy="171.29" r="5.85"/>
		</g>
	</g>
</g>
<g id="Слой_1">
	<g>
		<path class="st2" d="M72.13,239.37l10.05-16.07h6.51l-13.25,20.8l13.57,21.14h-6.57l-10.31-16.36l-10.37,16.36h-6.54l13.59-21.14
			l-13.28-20.8h6.48L72.13,239.37z"/>
		<path class="st2" d="M111.99,248.27h-9.85v16.96h-5.56V223.3h13.88c4.72,0,8.36,1.08,10.9,3.23c2.54,2.15,3.82,5.28,3.82,9.39
			c0,2.61-0.71,4.89-2.12,6.83c-1.41,1.94-3.38,3.39-5.89,4.35l9.85,17.8v0.35h-5.93L111.99,248.27z M102.14,243.75h8.5
			c2.75,0,4.93-0.71,6.55-2.13c1.62-1.42,2.43-3.33,2.43-5.71c0-2.6-0.77-4.59-2.32-5.97c-1.55-1.39-3.78-2.09-6.7-2.11h-8.47
			V243.75z"/>
		<path class="st2" d="M160.78,227.82H147.3v37.41h-5.5v-37.41h-13.45v-4.52h32.43V227.82z"/>
	</g>
</g>
</svg>
