<svg width="203" height="185" viewBox="0 0 203 185" fill="none" xmlns="http://www.w3.org/2000/svg">
<g clip-path="url(#clip0_2592_19858)">
<path d="M115.302 71.0175H87.3833V81.1361H115.302V71.0175Z" fill="white"/>
<path d="M150.837 98.5026H53.0002V53.4555H150.837V98.5026ZM173.843 70.92H160.653V43.1317H106.251V29.8888H96.435V43.1317H43.1841V70.92H28.074V81.0386H43.1841V108.808H160.653V81.0386H173.843V70.92Z" fill="white"/>
</g>
<path d="M129.869 154.625V132.279H118.696V126.099H147.223V132.279H136.05V154.625H129.869Z" fill="white"/>
<path d="M109.576 154.625L101.296 144.76H109.339L115.916 152.525V154.625H109.576ZM87.4287 154.625V126.138H110.052C111.135 126.138 112.112 126.402 112.984 126.931C113.882 127.459 114.595 128.172 115.123 129.07C115.678 129.968 115.955 130.945 115.955 132.002V139.371C115.955 140.428 115.678 141.405 115.123 142.303C114.595 143.201 113.882 143.914 112.984 144.443C112.112 144.971 111.135 145.235 110.052 145.235L93.5698 145.275V154.625H87.4287ZM93.5698 139.054H109.735V132.279H93.5698V139.054Z" fill="white"/>
<path d="M54.8794 154.625V152.525L65.0618 140.362L54.8794 128.198V126.099H61.2582L69.1823 135.488L77.0271 126.099H83.4059V128.198L73.1839 140.362L83.4059 152.486V154.625H77.0271L69.1031 145.275L61.2582 154.625H54.8794Z" fill="white"/>
<defs>
<clipPath id="clip0_2592_19858">
<rect width="145.954" height="79.2323" fill="white" transform="translate(28.074 29.8888)"/>
</clipPath>
</defs>
</svg>
