<?xml version="1.0" encoding="utf-8"?>
<!-- Generator: Adobe Illustrator 24.0.1, SVG Export Plug-In . SVG Version: 6.00 Build 0)  -->
<svg version="1.1" id="Layer_1" xmlns="http://www.w3.org/2000/svg" xmlns:xlink="http://www.w3.org/1999/xlink" x="0px" y="0px"
	 viewBox="0 0 2140.2 630" style="enable-background:new 0 0 2140.2 630;" xml:space="preserve">
<style type="text/css">
	.st0{fill:#F7DF1E;}
</style>
<rect class="st0" width="630" height="630"/>
<path d="M423.2,492.2c12.7,20.7,29.2,36,58.4,36c24.5,0,40.2-12.3,40.2-29.2c0-20.3-16.1-27.5-43.1-39.3l-14.8-6.4
	c-42.7-18.2-71.1-41-71.1-89.2c0-44.4,33.8-78.2,86.7-78.2c37.6,0,64.7,13.1,84.2,47.4l-46.1,29.6c-10.1-18.2-21.1-25.4-38.1-25.4
	c-17.3,0-28.3,11-28.3,25.4c0,17.8,11,25,36.4,36l14.8,6.3c50.3,21.6,78.7,43.6,78.7,93c0,53.3-41.9,82.5-98.1,82.5
	c-55,0-90.5-26.2-107.9-60.5L423.2,492.2z M214.1,497.3c9.3,16.5,17.8,30.5,38.1,30.5c19.5,0,31.7-7.6,31.7-37.2V289.3h59.2v202.1
	c0,61.3-35.9,89.2-88.4,89.2c-47.4,0-74.9-24.5-88.8-54.1L214.1,497.3z"/>
<g>
	<path d="M842.6,509.4c0,9.8-1.1,18.9-3.2,27.3c-2.1,8.4-5.8,15.8-11.1,22.1c-5.3,6.3-12.4,11.3-21.3,14.9
		c-8.9,3.6-20.2,5.5-33.8,5.5c-12.6,0-23.6-1.8-32.9-5.3c-9.3-3.5-16.4-7.3-21.4-11.3l12.9-28.4c4.8,3.3,10.7,6.4,17.7,9.3
		c7,3,14.1,4.5,21.4,4.5c12.3,0,21.2-3.1,26.7-9.2c5.6-6.1,8.3-16.7,8.3-31.6V375.8h36.5V509.4z"/>
	<path d="M937.1,420.9c11.5,0,21.2,1.4,29,4.3c7.9,2.9,14.1,6.9,18.8,12.1c4.7,5.2,8,11.4,10.1,18.8c2,7.4,3,15.5,3,24.3v91.1
		c-5.4,1.1-13.5,2.5-24.3,4.2c-10.8,1.6-23,2.4-36.6,2.4c-9,0-17.2-0.9-24.7-2.6c-7.5-1.7-13.8-4.5-19.1-8.3
		c-5.3-3.8-9.4-8.8-12.4-14.9c-3-6.1-4.5-13.7-4.5-22.7c0-8.6,1.7-15.9,5-21.8c3.3-5.9,7.9-10.8,13.6-14.5c5.7-3.7,12.4-6.4,20-8
		c7.6-1.6,15.5-2.4,23.7-2.4c3.8,0,7.9,0.2,12.1,0.7c4.2,0.5,8.7,1.3,13.5,2.4v-5.7c0-4-0.5-7.9-1.4-11.5c-1-3.6-2.6-6.8-5-9.6
		c-2.4-2.8-5.6-4.9-9.5-6.5c-3.9-1.5-8.9-2.3-14.8-2.3c-8,0-15.4,0.6-22.1,1.7c-6.7,1.1-12.2,2.5-16.4,4l-4.3-28.2
		c4.4-1.5,10.8-3.1,19.2-4.6C918.6,421.7,927.6,420.9,937.1,420.9z M940,550.5c10.7,0,18.9-0.6,24.4-1.7v-38.5
		c-1.9-0.6-4.7-1.1-8.3-1.7c-3.6-0.6-7.7-0.9-12.1-0.9c-3.8,0-7.7,0.3-11.6,0.9c-3.9,0.6-7.5,1.6-10.6,3.2c-3.2,1.5-5.7,3.7-7.6,6.5
		c-1.9,2.8-2.9,6.3-2.9,10.5c0,8.2,2.6,13.9,7.8,17.1C924.2,548.9,931.2,550.5,940,550.5z"/>
	<path d="M1075.5,574.9c-9.6-19.7-19.5-42.4-29.6-67.9c-10.1-25.6-19.3-53-27.5-82.3h37.1c2.1,8.4,4.6,17.5,7.4,27.1
		c2.8,9.7,5.8,19.3,8.9,29c3.2,9.7,6.4,19.1,9.8,28.2c3.4,9.1,6.5,17.3,9.4,24.6c2.9-7.3,6-15.5,9.2-24.6c3.3-9.1,6.5-18.5,9.7-28.2
		c3.2-9.7,6.2-19.3,9.1-29c2.9-9.7,5.4-18.7,7.5-27.1h35.9c-8.3,29.3-17.5,56.7-27.5,82.3c-10.1,25.6-20,48.2-29.6,67.9H1075.5z"/>
	<path d="M1237.9,420.9c11.5,0,21.2,1.4,29,4.3c7.9,2.9,14.1,6.9,18.8,12.1c4.7,5.2,8,11.4,10.1,18.8c2,7.4,3,15.5,3,24.3v91.1
		c-5.4,1.1-13.5,2.5-24.3,4.2c-10.8,1.6-23,2.4-36.6,2.4c-9,0-17.2-0.9-24.7-2.6c-7.5-1.7-13.8-4.5-19.1-8.3
		c-5.3-3.8-9.4-8.8-12.4-14.9c-3-6.1-4.5-13.7-4.5-22.7c0-8.6,1.7-15.9,5-21.8c3.3-5.9,7.9-10.8,13.6-14.5c5.7-3.7,12.4-6.4,20-8
		c7.6-1.6,15.5-2.4,23.7-2.4c3.8,0,7.9,0.2,12.1,0.7c4.2,0.5,8.7,1.3,13.5,2.4v-5.7c0-4-0.5-7.9-1.4-11.5c-1-3.6-2.6-6.8-5-9.6
		c-2.4-2.8-5.6-4.9-9.5-6.5c-3.9-1.5-8.9-2.3-14.8-2.3c-8,0-15.4,0.6-22.1,1.7c-6.7,1.1-12.2,2.5-16.4,4l-4.3-28.2
		c4.4-1.5,10.8-3.1,19.2-4.6C1219.3,421.7,1228.3,420.9,1237.9,420.9z M1240.8,550.5c10.7,0,18.9-0.6,24.4-1.7v-38.5
		c-1.9-0.6-4.7-1.1-8.3-1.7c-3.6-0.6-7.7-0.9-12.1-0.9c-3.8,0-7.7,0.3-11.6,0.9c-3.9,0.6-7.5,1.6-10.6,3.2c-3.2,1.5-5.7,3.7-7.6,6.5
		c-1.9,2.8-2.9,6.3-2.9,10.5c0,8.2,2.6,13.9,7.8,17.1C1225,548.9,1232,550.5,1240.8,550.5z"/>
	<path d="M1391.3,547.9c13,0,22.5-2.2,28.4-6.6c5.9-4.4,8.9-10.6,8.9-18.7c0-4.8-1-8.9-3-12.4c-2-3.4-4.9-6.6-8.6-9.3
		c-3.7-2.8-8.3-5.4-13.6-7.8c-5.4-2.4-11.5-4.7-18.4-7c-6.9-2.5-13.6-5.2-20-8.2c-6.4-3-12.1-6.7-17-11.1
		c-4.9-4.4-8.8-9.7-11.8-15.8c-3-6.1-4.5-13.5-4.5-22.1c0-18,6.2-32.1,18.7-42.4c12.4-10.2,29.4-15.4,50.8-15.4
		c12.4,0,23.5,1.4,33.2,4.2c9.7,2.8,17.3,5.8,22.8,9l-11.2,29.3c-6.5-3.6-13.6-6.4-21.4-8.3c-7.8-1.9-15.8-2.9-24-2.9
		c-9.8,0-17.4,2-22.8,6c-5.5,4-8.2,9.7-8.2,17c0,4.4,0.9,8.2,2.7,11.3c1.8,3.2,4.4,6,7.8,8.5c3.3,2.5,7.3,4.8,11.8,6.9
		c4.5,2.1,9.4,4.1,14.8,6c9.4,3.4,17.8,6.9,25.1,10.5c7.4,3.5,13.6,7.8,18.7,12.6c5.1,4.9,9,10.6,11.6,17.2c2.7,6.6,4,14.6,4,24
		c0,18-6.4,31.9-19.1,41.8c-12.7,9.9-31.4,14.8-55.9,14.8c-8.2,0-15.8-0.5-22.6-1.6c-6.8-1.1-12.8-2.3-18.1-3.9
		c-5.3-1.5-9.8-3.1-13.6-4.7c-3.8-1.6-6.9-3.1-9.2-4.5l10.6-29.6c5.2,2.9,12.2,5.7,21,8.6C1368.2,546.5,1378.9,547.9,1391.3,547.9z"
		/>
	<path d="M1488.1,499.9c0-11.1,1.7-21.5,5.2-31.2c3.4-9.7,8.4-18,14.8-25.1c6.4-7.1,14.2-12.6,23.4-16.7c9.2-4,19.5-6,31-6
		c14.2,0,27.6,2.6,40.2,7.8l-7.5,28.4c-4-1.7-8.6-3.2-13.6-4.3c-5.1-1.1-10.5-1.7-16.2-1.7c-13.6,0-23.9,4.3-31,12.8
		c-7.1,8.5-10.6,20.5-10.6,36.1c0,14.9,3.3,26.8,10.1,35.5c6.7,8.7,18,13.1,33.9,13.1c5.9,0,11.8-0.6,17.5-1.7
		c5.7-1.1,10.7-2.6,14.9-4.3l4.9,28.7c-3.8,1.9-9.6,3.6-17.4,5.2c-7.8,1.5-15.8,2.3-24,2.3c-12.8,0-24-2-33.5-5.9
		c-9.5-3.9-17.3-9.4-23.6-16.4c-6.2-7-10.9-15.3-13.9-25C1489.7,521.7,1488.1,511.2,1488.1,499.9z"/>
	<path d="M1717.7,456c-2.9-1-6.8-2-11.9-3c-5.1-1.1-11-1.6-17.7-1.6c-3.8,0-7.9,0.4-12.2,1.1c-4.3,0.8-7.3,1.4-9,2v120.4h-34.8
		V431.9c6.7-2.5,15.1-4.8,25.1-7c10.1-2.2,21.2-3.3,33.5-3.3c2.3,0,5,0.1,8,0.4c3.1,0.3,6.1,0.7,9.2,1.1c3.1,0.5,6,1.1,8.9,1.7
		c2.9,0.7,5.2,1.3,6.9,1.9L1717.7,456z"/>
	<path d="M1786.6,380.7c0,6.5-2.1,11.7-6.3,15.5c-4.2,3.8-9.2,5.7-14.9,5.7c-5.9,0-11-1.9-15.2-5.7c-4.2-3.8-6.3-9-6.3-15.5
		c0-6.7,2.1-12,6.3-15.8c4.2-3.8,9.3-5.7,15.2-5.7c5.7,0,10.7,1.9,14.9,5.7C1784.5,368.7,1786.6,374,1786.6,380.7z M1782.9,574.9
		h-34.8V424.7h34.8V574.9z"/>
	<path d="M1962.4,499.9c0,11.5-1.5,22-4.5,31.6c-3,9.6-7.2,17.8-12.8,24.7c-5.6,6.9-12.5,12.3-20.8,16.1c-8.3,3.8-17.8,5.7-28.3,5.7
		c-7.1,0-13.6-0.9-19.5-2.6c-5.9-1.7-10.8-3.6-14.7-5.7v58.3h-34.8V429.6c7.1-1.9,15.8-3.7,26.1-5.5c10.3-1.7,21.3-2.6,32.8-2.6
		c11.9,0,22.5,1.8,31.9,5.5c9.4,3.6,17.4,8.9,24,15.7c6.6,6.8,11.7,15,15.2,24.7C1960.7,477,1962.4,487.9,1962.4,499.9z
		 M1926.8,500.5c0-15.5-3.5-27.6-10.5-36.2c-7-8.6-18.2-12.9-33.8-12.9c-3.3,0-6.7,0.1-10.2,0.4c-3.5,0.3-7,0.9-10.5,1.9v85.9
		c3.1,2.1,7.1,4.1,12.2,5.9c5.1,1.8,10.5,2.7,16.2,2.7c12.6,0,21.9-4.3,27.7-12.9C1923.9,526.7,1926.8,515.1,1926.8,500.5z"/>
	<path d="M1996.6,385l34.8-5.7v45.4h53.4v29h-53.4v61.2c0,12.1,1.9,20.7,5.7,25.9c3.8,5.2,10.3,7.8,19.5,7.8c6.3,0,11.9-0.7,16.8-2
		c4.9-1.3,8.8-2.6,11.6-3.7l5.7,27.6c-4,1.7-9.3,3.5-15.8,5.3c-6.5,1.8-14.2,2.7-23,2.7c-10.7,0-19.7-1.4-26.9-4.3
		c-7.2-2.9-12.9-7-17.1-12.5c-4.2-5.5-7.2-12.1-8.9-19.8s-2.6-16.6-2.6-26.6V385z"/>
</g>
</svg>
