<svg width="273" height="50" viewBox="0 0 273 50" fill="none" xmlns="http://www.w3.org/2000/svg">
<g clip-path="url(#clip0_896_4717)">
<path d="M85.7634 19.9621C85.7141 20.0607 85.6155 20.1593 85.5662 20.2086C85.5169 20.2579 85.4184 20.3072 85.2705 20.3072C85.1719 20.3072 85.0241 20.2579 84.8762 20.1593C84.7283 20.0607 84.5312 19.9128 84.2847 19.8143C84.0383 19.6664 83.7918 19.5678 83.4468 19.4692C83.1511 19.3707 82.7567 19.3214 82.3131 19.3214C81.9188 19.3214 81.5245 19.3707 81.2288 19.4692C80.933 19.5678 80.6373 19.7157 80.4401 19.9128C80.243 20.11 80.0458 20.3072 79.9472 20.6029C79.8487 20.8493 79.7994 21.1451 79.7994 21.4408C79.7994 21.8351 79.898 22.1309 80.0951 22.3773C80.2923 22.6238 80.5387 22.8209 80.8837 23.0181C81.1795 23.2152 81.5738 23.3631 81.9681 23.4617C82.3624 23.6096 82.806 23.7081 83.2003 23.856C83.644 24.0039 84.0383 24.1517 84.4326 24.3489C84.8269 24.5461 85.2212 24.7925 85.5169 25.0389C85.8127 25.3347 86.1084 25.6797 86.3056 26.074C86.5027 26.4683 86.6013 26.9612 86.6013 27.5527C86.6013 28.1935 86.5027 28.7849 86.2563 29.3271C86.0591 29.8693 85.7141 30.3622 85.3198 30.7565C84.9255 31.1508 84.3833 31.4959 83.7918 31.7423C83.2003 31.9887 82.5103 32.0873 81.771 32.0873C81.3273 32.0873 80.8837 32.038 80.4401 31.9395C79.9965 31.8409 79.6022 31.7423 79.2079 31.5451C78.8136 31.3973 78.4686 31.2001 78.1235 30.9537C77.7785 30.7072 77.4828 30.4608 77.2363 30.165L77.8278 29.13C77.8771 29.0314 77.9757 28.9821 78.025 28.9328C78.1235 28.8835 78.2221 28.8342 78.3207 28.8342C78.4686 28.8342 78.6164 28.8835 78.8136 29.0314C79.0107 29.1793 79.2079 29.3271 79.5036 29.5243C79.7994 29.7214 80.0951 29.8693 80.4894 30.0172C80.8837 30.165 81.3274 30.2143 81.8695 30.2143C82.3131 30.2143 82.7075 30.165 83.0525 30.0172C83.3975 29.9186 83.6932 29.7214 83.9397 29.5243C84.1861 29.3271 84.334 29.0314 84.4819 28.7356C84.6297 28.4399 84.679 28.0949 84.679 27.7006C84.679 27.3063 84.5804 26.9612 84.3833 26.6655C84.1861 26.419 83.9397 26.1726 83.5947 25.9754C83.2989 25.7783 82.9046 25.6304 82.5103 25.5318C82.116 25.384 81.6724 25.2854 81.2781 25.1375C80.8345 24.9897 80.4401 24.8418 80.0458 24.6446C79.6515 24.4475 79.2572 24.2503 78.9615 23.9546C78.6657 23.6588 78.37 23.3138 78.1728 22.8702C77.9757 22.4266 77.8771 21.8844 77.8771 21.2437C77.8771 20.7508 77.9757 20.2579 78.1728 19.765C78.37 19.2721 78.6657 18.8778 79.06 18.4835C79.4543 18.1384 79.898 17.8427 80.4894 17.5962C81.0316 17.3498 81.6724 17.2512 82.4117 17.2512C83.2003 17.2512 83.9397 17.3991 84.6297 17.6455C85.3198 17.892 85.862 18.2863 86.4042 18.7299L85.7634 19.9621Z" fill="#12233C"/>
<path d="M97.6919 30.165V31.8901H88.8691V17.5962H97.6919V19.3213H90.9886V23.8559H96.4104V25.5318H90.9886V30.165H97.6919Z" fill="#12233C"/>
<path d="M114.697 17.5962V31.8408H112.873V21.2436C112.873 21.0464 112.873 20.8986 112.922 20.7014L108.191 29.4256C108.043 29.7707 107.747 29.9185 107.402 29.9185H107.106C106.761 29.9185 106.515 29.7707 106.367 29.4256L101.537 20.7014C101.586 21.0957 101.586 21.4408 101.586 21.7365V31.8901H99.7129V17.5962H101.29C101.487 17.5962 101.635 17.5962 101.734 17.6455C101.832 17.6948 101.931 17.7933 102.029 17.9412L106.811 26.4683C106.909 26.6161 107.008 26.8133 107.057 27.0105C107.156 27.2076 107.205 27.4048 107.303 27.6019C107.451 27.2076 107.599 26.8133 107.796 26.4683L112.479 17.9412C112.577 17.7933 112.676 17.6948 112.775 17.6455C112.873 17.5962 113.021 17.5962 113.218 17.5962H114.697Z" fill="#12233C"/>
<path d="M129.779 31.8901H128.152C127.955 31.8901 127.807 31.8409 127.709 31.7423C127.61 31.6437 127.511 31.5451 127.462 31.3972L126.181 28.0949H119.872L118.59 31.3972C118.541 31.5451 118.442 31.6437 118.344 31.7423C118.196 31.8409 118.048 31.8901 117.9 31.8901H116.273L121.942 17.6455H124.061L129.779 31.8901ZM125.589 26.5669L123.47 21.0465C123.322 20.6522 123.174 20.2086 123.026 19.6171C122.977 19.9128 122.878 20.1593 122.78 20.4057C122.681 20.6522 122.632 20.8493 122.533 21.0465L120.414 26.5669H125.589Z" fill="#12233C"/>
<path d="M142.988 17.5962V31.8408H141.904C141.756 31.8408 141.608 31.7915 141.51 31.7422C141.411 31.693 141.312 31.5944 141.165 31.4465L133.13 21.0464C133.13 21.2436 133.18 21.3915 133.18 21.5886V31.8408H131.307V17.5962H132.391C132.588 17.5962 132.736 17.5962 132.785 17.6455C132.884 17.6948 132.982 17.7933 133.081 17.9412L141.165 28.3906C141.165 28.1934 141.115 27.9963 141.115 27.8484V17.5962H142.988Z" fill="#12233C"/>
<path d="M155.853 19.3706H151.318V31.8408H149.199V19.3706H144.664V17.5962H155.853V19.3706Z" fill="#12233C"/>
<path d="M159.649 31.8901H157.529V17.5962H159.649V31.8901Z" fill="#12233C"/>
<path d="M172.907 28.8343C173.006 28.8343 173.104 28.8836 173.203 28.9822L174.041 29.9187C173.449 30.6088 172.759 31.1509 171.921 31.496C171.083 31.8903 170.098 32.0381 168.915 32.0381C167.88 32.0381 166.943 31.841 166.105 31.496C165.267 31.1509 164.577 30.658 163.936 30.0173C163.345 29.3765 162.901 28.5879 162.556 27.7007C162.211 26.8135 162.063 25.8277 162.063 24.7433C162.063 23.6589 162.211 22.6732 162.556 21.786C162.901 20.8987 163.394 20.1101 163.986 19.4694C164.577 18.8286 165.317 18.3357 166.204 17.9907C167.042 17.6456 168.027 17.4485 169.063 17.4485C170.098 17.4485 170.985 17.5964 171.773 17.9414C172.562 18.2864 173.252 18.73 173.844 19.2722L173.154 20.258C173.104 20.3073 173.055 20.4058 172.956 20.4551C172.907 20.5044 172.809 20.5044 172.661 20.5044C172.513 20.5044 172.365 20.4551 172.217 20.3073C172.069 20.1594 171.823 20.0608 171.527 19.8637C171.231 19.7158 170.936 19.5679 170.492 19.4201C170.098 19.2722 169.605 19.2229 168.964 19.2229C168.274 19.2229 167.584 19.3708 167.042 19.6172C166.45 19.8637 165.957 20.2087 165.514 20.7016C165.07 21.1452 164.774 21.7367 164.528 22.4267C164.281 23.1168 164.183 23.8561 164.183 24.7433C164.183 25.6305 164.281 26.3699 164.528 27.0599C164.774 27.75 165.119 28.2922 165.563 28.785C166.007 29.2779 166.5 29.623 167.091 29.8694C167.682 30.1159 168.323 30.2144 168.964 30.2144C169.358 30.2144 169.753 30.1651 170.048 30.1159C170.393 30.0666 170.689 29.968 170.936 29.8694C171.231 29.7708 171.478 29.623 171.724 29.4751C171.971 29.3272 172.217 29.1301 172.464 28.9329C172.513 28.8836 172.562 28.8343 172.611 28.8343H172.907Z" fill="#12233C"/>
<path d="M188.877 20.3564C188.779 20.5043 188.68 20.6521 188.582 20.7014C188.483 20.8 188.335 20.8 188.138 20.8C187.99 20.8 187.842 20.7507 187.645 20.6521C187.448 20.5536 187.251 20.455 187.054 20.3071C186.807 20.2085 186.561 20.0607 186.314 19.9621C186.019 19.8635 185.723 19.8142 185.329 19.8142C184.688 19.8142 184.244 19.9621 183.899 20.2085C183.603 20.455 183.456 20.8493 183.456 21.2929C183.456 21.5886 183.554 21.8351 183.751 22.0322C183.948 22.2294 184.195 22.3773 184.491 22.5251C184.786 22.673 185.131 22.7716 185.526 22.9194C185.92 23.018 186.314 23.1659 186.709 23.3138C187.103 23.4616 187.497 23.6095 187.892 23.8067C188.286 24.0038 188.631 24.2503 188.927 24.546C189.222 24.8417 189.469 25.1868 189.666 25.6304C189.863 26.074 189.962 26.5669 189.962 27.1583C189.962 27.8484 189.863 28.4399 189.617 29.0313C189.37 29.6228 189.025 30.1157 188.631 30.5593C188.187 31.0029 187.645 31.3479 187.004 31.5944C186.364 31.8408 185.624 31.9887 184.786 31.9887C184.343 31.9887 183.899 31.9394 183.406 31.8408C182.963 31.7422 182.47 31.5944 182.075 31.4465C181.632 31.2986 181.238 31.1015 180.843 30.855C180.449 30.6086 180.104 30.3621 179.857 30.0664L180.843 28.4891C180.942 28.3906 181.04 28.292 181.139 28.1934C181.287 28.0948 181.385 28.0948 181.583 28.0948C181.78 28.0948 181.977 28.1441 182.174 28.292C182.371 28.4399 182.618 28.5384 182.864 28.6863C183.111 28.8342 183.406 28.982 183.751 29.0806C184.096 29.2285 184.491 29.2778 184.934 29.2778C185.526 29.2778 186.019 29.1299 186.364 28.8835C186.709 28.637 186.857 28.1934 186.857 27.6019C186.857 27.2569 186.758 27.0105 186.561 26.764C186.364 26.5669 186.117 26.3697 185.821 26.2218C185.526 26.074 185.181 25.9754 184.786 25.8768C184.392 25.7782 183.998 25.6304 183.603 25.5318C183.209 25.3839 182.815 25.236 182.42 25.0389C182.026 24.8417 181.681 24.5953 181.385 24.2995C181.09 24.0038 180.843 23.6095 180.646 23.1659C180.449 22.7223 180.35 22.1308 180.35 21.4408C180.35 20.8986 180.449 20.3564 180.695 19.8635C180.893 19.3706 181.238 18.8777 181.681 18.4834C182.125 18.0891 182.618 17.7441 183.258 17.4976C183.85 17.2512 184.589 17.1526 185.378 17.1526C185.821 17.1526 186.265 17.2019 186.659 17.2512C187.103 17.3005 187.497 17.399 187.842 17.5469C188.237 17.6948 188.582 17.8426 188.877 18.0398C189.222 18.237 189.518 18.4341 189.765 18.6806L188.877 20.3564Z" fill="#12233C"/>
<path d="M201.396 28.1442C201.495 28.1442 201.544 28.1442 201.643 28.1935C201.741 28.2428 201.79 28.2921 201.889 28.3414L203.22 29.7215C202.628 30.4608 201.889 31.0523 201.051 31.4466C200.164 31.8409 199.129 32.0381 197.946 32.0381C196.861 32.0381 195.876 31.8409 194.988 31.4959C194.101 31.1016 193.362 30.6087 192.77 29.9679C192.179 29.3271 191.686 28.5385 191.39 27.602C191.045 26.7148 190.897 25.729 190.897 24.6447C190.897 23.5603 191.095 22.5745 191.44 21.6873C191.785 20.8001 192.278 20.0115 192.918 19.3707C193.559 18.7299 194.298 18.1877 195.186 17.8427C196.073 17.4977 197.059 17.3005 198.094 17.3005C198.636 17.3005 199.129 17.3498 199.622 17.4484C200.115 17.547 200.558 17.6949 200.953 17.8427C201.347 17.9906 201.741 18.237 202.086 18.4342C202.431 18.6806 202.727 18.9271 203.023 19.2228L201.889 20.7508C201.84 20.8494 201.741 20.948 201.643 20.9972C201.544 21.0958 201.396 21.0958 201.248 21.0958C201.15 21.0958 201.002 21.0465 200.903 20.9972C200.805 20.948 200.706 20.8987 200.558 20.8001C200.46 20.7015 200.312 20.6522 200.164 20.5536C200.016 20.4551 199.868 20.4058 199.671 20.3072C199.474 20.2086 199.227 20.1593 198.981 20.11C198.734 20.0607 198.389 20.0115 198.044 20.0115C197.502 20.0115 196.96 20.11 196.516 20.3072C196.073 20.5043 195.679 20.8001 195.334 21.1944C194.988 21.5887 194.742 22.0816 194.545 22.6238C194.348 23.2153 194.249 23.856 194.249 24.5954C194.249 25.3347 194.348 25.9755 194.545 26.5669C194.742 27.1584 195.038 27.6513 195.383 28.0456C195.728 28.4399 196.122 28.7357 196.615 28.9328C197.059 29.13 197.552 29.2286 198.094 29.2286C198.389 29.2286 198.685 29.2286 198.932 29.1793C199.178 29.13 199.425 29.0807 199.622 29.0314C199.819 28.9821 200.065 28.8835 200.213 28.7357C200.41 28.6371 200.607 28.4892 200.805 28.2921C200.903 28.2428 200.952 28.1935 201.051 28.1442C201.199 28.1442 201.298 28.1442 201.396 28.1442Z" fill="#12233C"/>
<path d="M216.972 17.3992V31.8902H213.571V25.7784H207.706V31.8902H204.305V17.3992H207.706V23.4618H213.571V17.3992H216.972Z" fill="#12233C"/>
<path d="M233.78 24.6446C233.78 25.6797 233.583 26.6655 233.238 27.5527C232.893 28.4399 232.35 29.2285 231.71 29.9186C231.069 30.5594 230.28 31.1015 229.344 31.4959C228.407 31.8902 227.372 32.038 226.288 32.038C225.204 32.038 224.119 31.8409 223.232 31.4959C222.345 31.1508 221.507 30.6086 220.866 29.9186C220.225 29.2285 219.683 28.4892 219.338 27.5527C218.993 26.6655 218.796 25.6797 218.796 24.6446C218.796 23.6096 218.993 22.6238 219.338 21.7366C219.683 20.8493 220.225 20.0607 220.866 19.3707C221.507 18.7299 222.295 18.1877 223.232 17.7934C224.168 17.3991 225.204 17.2512 226.288 17.2512C227.372 17.2512 228.457 17.4484 229.344 17.8427C230.28 18.237 231.069 18.7299 231.71 19.42C232.35 20.0607 232.893 20.8493 233.238 21.7858C233.632 22.6238 233.78 23.6096 233.78 24.6446ZM230.379 24.6446C230.379 23.9053 230.28 23.2645 230.083 22.7223C229.886 22.1309 229.64 21.6873 229.295 21.2437C228.95 20.8493 228.506 20.5536 228.013 20.3072C227.52 20.11 226.929 20.0114 226.288 20.0114C225.647 20.0114 225.056 20.11 224.563 20.3072C224.07 20.5043 223.626 20.8001 223.281 21.2437C222.936 21.638 222.69 22.1309 222.493 22.7223C222.295 23.3138 222.197 23.9546 222.197 24.6446C222.197 25.384 222.295 26.0247 222.493 26.5669C222.69 27.1091 222.936 27.602 223.281 28.0456C223.626 28.4399 224.07 28.7356 224.563 28.9328C225.056 29.13 225.647 29.2285 226.288 29.2285C226.929 29.2285 227.52 29.13 228.013 28.9328C228.506 28.7356 228.95 28.4399 229.295 28.0456C229.64 27.6513 229.886 27.1584 230.083 26.5669C230.28 26.0247 230.379 25.384 230.379 24.6446Z" fill="#12233C"/>
<path d="M244.328 29.1793V31.841H235.604V17.3992H238.955V29.1793H244.328Z" fill="#12233C"/>
<path d="M259.41 31.8902H256.798C256.502 31.8902 256.255 31.841 256.108 31.6931C255.91 31.5452 255.812 31.3974 255.713 31.1509L254.875 28.6372H249.355L248.517 31.1509C248.468 31.3481 248.32 31.4959 248.123 31.6438C247.926 31.7917 247.679 31.8902 247.433 31.8902H244.82L250.439 17.3992H253.89L259.41 31.8902ZM254.087 26.3698L252.756 22.4267C252.657 22.1802 252.559 21.8845 252.46 21.5395C252.362 21.1945 252.214 20.8494 252.115 20.4551C252.017 20.8494 251.918 21.2437 251.819 21.5888C251.721 21.9338 251.622 22.2295 251.524 22.476L250.193 26.4191H254.087V26.3698Z" fill="#12233C"/>
<path d="M272.176 31.8902H269.12C268.578 31.8902 268.134 31.6931 267.888 31.2495L265.473 27.0599C265.374 26.8627 265.226 26.7642 265.078 26.6656C264.931 26.567 264.733 26.5177 264.487 26.5177H263.698V31.8902H260.347V17.3992H265.078C266.114 17.3992 267.001 17.4977 267.74 17.7442C268.479 17.9414 269.071 18.2371 269.564 18.6314C270.057 19.0257 270.352 19.4693 270.599 20.0115C270.796 20.5537 270.895 21.0959 270.895 21.7366C270.895 22.2295 270.845 22.6731 270.697 23.0675C270.55 23.4618 270.402 23.8561 270.155 24.2011C269.909 24.5461 269.613 24.8912 269.268 25.1376C268.923 25.4333 268.479 25.6305 268.036 25.8277C268.233 25.9262 268.479 26.0741 268.627 26.2713C268.824 26.4191 268.972 26.6163 269.12 26.8627L272.176 31.8902ZM265.078 24.2011C265.522 24.2011 265.916 24.1518 266.261 24.0039C266.606 23.9054 266.853 23.7082 267.05 23.5111C267.247 23.3139 267.395 23.0675 267.494 22.7717C267.592 22.476 267.642 22.1802 267.642 21.8845C267.642 21.2437 267.444 20.7508 267.001 20.4058C266.606 20.0608 265.966 19.8636 265.078 19.8636H263.698V24.1518H265.078V24.2011Z" fill="#12233C"/>
<path d="M68.3642 14.9839C65.949 16.5119 64.2731 17.3498 62.2523 18.5327C50.4228 25.6797 39.037 33.6153 30.2142 44.1139L25.9753 49.2893L12.9629 28.5878C15.871 30.9044 23.1165 37.4106 26.0739 38.84L35.636 31.6437C42.2901 26.9612 61.1186 16.7583 68.3642 14.9839Z" fill="#F3D25F"/>
<path d="M22.9194 33.7632C23.9052 34.5519 24.891 35.2912 25.6796 35.8827C27.8483 25.4333 26.0246 14.1953 20.3071 4.43604C29.9185 4.28818 39.4806 4.1896 49.0921 4.04173C51.2608 8.8228 52.493 13.8996 52.7888 19.1243C53.6267 18.6807 54.4646 18.2864 55.3025 17.892C55.0068 12.5688 53.4788 6.75265 50.5707 0.0492894C37.4598 0 24.3981 0 11.2871 0C19.8142 10.1043 23.708 22.3281 22.9194 33.7632Z" fill="#1F3C73"/>
<path d="M21.1449 32.3831C21.3914 32.6296 21.6871 32.8267 21.9335 33.0239C21.5392 23.3139 17.8918 13.4067 11.0406 4.87964H4.92871C13.7515 13.0124 19.1241 22.821 21.1449 32.3831Z" fill="#2C5BA8"/>
<path d="M19.0257 30.5102C19.3214 30.7566 19.6172 31.0031 19.9622 31.2988C17.3992 24.1026 12.8645 17.0049 6.45691 10.7944H0C8.23133 16.7092 14.5897 23.5604 19.0257 30.5102Z" fill="#638BC8"/>
</g>
<defs>
<clipPath id="clip0_896_4717">
<rect width="272.176" height="49.2894" fill="white"/>
</clipPath>
</defs>
</svg>
