<svg width="92" height="20" viewBox="0 0 92 20" fill="none" xmlns="http://www.w3.org/2000/svg">
<path d="M4.7002 0.515625V19H0.904297V0.515625H4.7002ZM15.7451 13.3252V0.515625H19.541V13.3252C19.541 14.5609 19.2702 15.623 18.7285 16.5117C18.1868 17.3919 17.4463 18.069 16.5068 18.543C15.5758 19.0169 14.5264 19.2539 13.3584 19.2539C12.1481 19.2539 11.0775 19.0508 10.1465 18.6445C9.21549 18.2383 8.4834 17.6162 7.9502 16.7783C7.41699 15.932 7.15039 14.8613 7.15039 13.5664H10.9717C10.9717 14.2435 11.0648 14.7809 11.251 15.1787C11.4456 15.5765 11.7207 15.86 12.0762 16.0293C12.4316 16.1986 12.859 16.2832 13.3584 16.2832C13.8408 16.2832 14.2598 16.1689 14.6152 15.9404C14.9707 15.7119 15.2458 15.3776 15.4404 14.9375C15.6436 14.4974 15.7451 13.96 15.7451 13.3252ZM24.5303 0.515625H27.7549L32.5029 14.0869L37.251 0.515625H40.4756L33.7979 19H31.208L24.5303 0.515625ZM22.791 0.515625H26.0029L26.5869 13.7441V19H22.791V0.515625ZM39.0029 0.515625H42.2275V19H38.4189V13.7441L39.0029 0.515625ZM57.9697 16.0293V19H48.1309V16.0293H57.9697ZM49.375 0.515625V19H45.5664V0.515625H49.375ZM56.6875 8.04395V10.9385H48.1309V8.04395H56.6875ZM57.957 0.515625V3.49902H48.1309V0.515625H57.957ZM60.1914 0.515625H67.085C68.4984 0.515625 69.7129 0.727214 70.7285 1.15039C71.7526 1.57357 72.5397 2.19987 73.0898 3.0293C73.64 3.85872 73.915 4.87858 73.915 6.08887C73.915 7.0791 73.7458 7.92969 73.4072 8.64062C73.0771 9.3431 72.6074 9.93132 71.998 10.4053C71.3971 10.8708 70.6904 11.2432 69.8779 11.5225L68.6719 12.1572H62.6797L62.6543 9.18652H67.1104C67.779 9.18652 68.3333 9.06803 68.7734 8.83105C69.2135 8.59408 69.5436 8.264 69.7637 7.84082C69.9922 7.41764 70.1064 6.92676 70.1064 6.36816C70.1064 5.77572 69.9964 5.26367 69.7764 4.83203C69.5563 4.40039 69.222 4.07031 68.7734 3.8418C68.3249 3.61328 67.762 3.49902 67.085 3.49902H64V19H60.1914V0.515625ZM70.5254 19L66.3105 10.7607L70.335 10.7354L74.6006 18.8223V19H70.5254ZM76.8477 0.515625H83.7412C85.1546 0.515625 86.3691 0.727214 87.3848 1.15039C88.4089 1.57357 89.196 2.19987 89.7461 3.0293C90.2962 3.85872 90.5713 4.87858 90.5713 6.08887C90.5713 7.0791 90.402 7.92969 90.0635 8.64062C89.7334 9.3431 89.2637 9.93132 88.6543 10.4053C88.0534 10.8708 87.3467 11.2432 86.5342 11.5225L85.3281 12.1572H79.3359L79.3105 9.18652H83.7666C84.4352 9.18652 84.9896 9.06803 85.4297 8.83105C85.8698 8.59408 86.1999 8.264 86.4199 7.84082C86.6484 7.41764 86.7627 6.92676 86.7627 6.36816C86.7627 5.77572 86.6527 5.26367 86.4326 4.83203C86.2126 4.40039 85.8783 4.07031 85.4297 3.8418C84.9811 3.61328 84.4183 3.49902 83.7412 3.49902H80.6562V19H76.8477V0.515625ZM87.1816 19L82.9668 10.7607L86.9912 10.7354L91.2568 18.8223V19H87.1816Z" fill="black"/>
</svg>
