<svg width="124" height="42" viewBox="0 0 124 42" fill="none" xmlns="http://www.w3.org/2000/svg">
<g clip-path="url(#clip0_882_1674)">
<path d="M56.2197 38.9477C59.8974 23.6861 79.5119 42 79.5119 42V15.75C79.5119 15.75 59.8974 -0.732538 56.2197 14.5291V38.9477Z" fill="#326599"/>
<path d="M56.2325 38.9477C54.1056 26.1707 46.695 29.3146 46.695 29.3146L46.4805 2.50906C46.4805 2.50906 52.1196 0.57999 56.2632 13.5646L56.2264 38.9477H56.2325Z" fill="black"/>
<path d="M56.2811 39.0759C55.6926 23.3503 51.3652 24.327 51.3652 24.327L50.8564 0C50.8564 0 55.6865 2.47849 56.3853 12.1971L56.2749 39.0759H56.2811Z" fill="#999999"/>
<path d="M13.4052 19.4799C13.4052 21.3724 12.8352 22.7825 11.6951 23.7043C10.555 24.6323 8.91844 25.0901 6.7915 25.0901H4.29066V33.1788H0V13.8759H6.75472C8.80198 13.8759 10.4202 14.3398 11.6154 15.2616C12.8107 16.1895 13.4052 17.5936 13.4052 19.4738V19.4799ZM9.11458 20.0416C9.11458 19.0831 8.85714 18.3689 8.33613 17.8988C7.81513 17.4288 7.09184 17.1968 6.15403 17.1968H4.28453V22.9596H6.26436C7.25121 22.9596 7.97449 22.6971 8.42808 22.1782C8.88166 21.6593 9.11458 20.945 9.11458 20.0416Z" fill="#00008B"/>
<path d="M28.0736 33.1849H24.2059V31.6404L22.6061 32.5439C22.1586 32.7942 21.6928 32.9895 21.2085 33.1299C20.7243 33.2704 20.1972 33.3375 19.6333 33.3375C18.297 33.3375 17.2428 32.9285 16.4766 32.0983C15.7104 31.2741 15.3242 30.1814 15.3242 28.8262V19.6753H19.1919V27.9532C19.1919 28.4477 19.3697 28.8811 19.7191 29.2596C20.0685 29.6381 20.614 29.8212 21.3434 29.8212C22.0238 29.8212 22.6061 29.6747 23.0903 29.3878C23.5745 29.0948 23.9484 28.8323 24.212 28.5881V19.6753H28.0797V33.1788H28.0736V33.1849Z" fill="#00008B"/>
<path d="M44.5926 26.1584C44.5926 28.2218 43.9551 29.9372 42.6863 31.3107C41.4175 32.6843 39.8177 33.3741 37.8869 33.3741C37.1943 33.3741 36.4955 33.2764 35.7784 33.0872C35.0674 32.8979 34.5402 32.6721 34.2031 32.4157L32.0332 33.368L31.1016 32.8735V13.8759H34.8957V20.3224L36.3484 19.6203C36.6365 19.486 36.9552 19.3578 37.3108 19.2418C37.6663 19.1259 38.0586 19.0648 38.4999 19.0648C40.4062 19.0648 41.8956 19.7363 42.9744 21.0732C44.0471 22.4102 44.5865 24.1072 44.5865 26.1584H44.5926ZM40.6881 26.4026C40.6881 25.2793 40.3816 24.3087 39.7687 23.4907C39.1557 22.6788 38.3712 22.2697 37.4272 22.2697C36.8449 22.2697 36.3239 22.3674 35.8519 22.5506C35.38 22.7398 35.0674 22.9779 34.908 23.2587V29.6686C35.1164 29.9006 35.4413 30.0898 35.8826 30.2424C36.3239 30.395 36.8204 30.4683 37.3659 30.4683C38.5612 30.4683 39.4132 30.1447 39.9219 29.4916C40.4368 28.8384 40.6881 27.8128 40.6881 26.3965V26.4026Z" fill="#00008B"/>
<path d="M13.4052 19.4799C13.4052 21.3724 12.8352 22.7825 11.6951 23.7043C10.555 24.6323 8.91844 25.0901 6.7915 25.0901H4.29066V33.1788H0V13.8759H6.75472C8.80198 13.8759 10.4202 14.3398 11.6154 15.2616C12.8107 16.1895 13.4052 17.5936 13.4052 19.4738V19.4799ZM9.11458 20.0416C9.11458 19.0831 8.85714 18.3689 8.33613 17.8988C7.81513 17.4288 7.09184 17.1968 6.15403 17.1968H4.28453V22.9596H6.26436C7.25121 22.9596 7.97449 22.6971 8.42808 22.1782C8.88166 21.6593 9.11458 20.945 9.11458 20.0416Z" fill="#326599"/>
<path d="M28.0736 33.1849H24.2059V31.6404L22.6061 32.5439C22.1586 32.7942 21.6928 32.9895 21.2085 33.1299C20.7243 33.2704 20.1972 33.3375 19.6333 33.3375C18.297 33.3375 17.2428 32.9285 16.4766 32.0983C15.7104 31.2741 15.3242 30.1814 15.3242 28.8262V19.6753H19.1919V27.9532C19.1919 28.4477 19.3697 28.8811 19.7191 29.2596C20.0685 29.6381 20.614 29.8212 21.3434 29.8212C22.0238 29.8212 22.6061 29.6747 23.0903 29.3878C23.5745 29.0948 23.9484 28.8323 24.212 28.5881V19.6753H28.0797V33.1788H28.0736V33.1849Z" fill="#326599"/>
<path d="M44.5926 26.1584C44.5926 28.2218 43.9551 29.9372 42.6863 31.3107C41.4175 32.6843 39.8177 33.3741 37.8869 33.3741C37.1943 33.3741 36.4955 33.2764 35.7784 33.0872C35.0674 32.8979 34.5402 32.6721 34.2031 32.4157L32.0332 33.368L31.1016 32.8735V13.8759H34.8957V20.3224L36.3484 19.6203C36.6365 19.486 36.9552 19.3578 37.3108 19.2418C37.6663 19.1259 38.0586 19.0648 38.4999 19.0648C40.4062 19.0648 41.8956 19.7363 42.9744 21.0732C44.0471 22.4102 44.5865 24.1072 44.5865 26.1584H44.5926ZM40.6881 26.4026C40.6881 25.2793 40.3816 24.3087 39.7687 23.4907C39.1557 22.6788 38.3712 22.2697 37.4272 22.2697C36.8449 22.2697 36.3239 22.3674 35.8519 22.5506C35.38 22.7398 35.0674 22.9779 34.908 23.2587V29.6686C35.1164 29.9006 35.4413 30.0898 35.8826 30.2424C36.3239 30.395 36.8204 30.4683 37.3659 30.4683C38.5612 30.4683 39.4132 30.1447 39.9219 29.4916C40.4368 28.8384 40.6881 27.8128 40.6881 26.3965V26.4026Z" fill="#326599"/>
<path d="M95.234 27.0009H85.2C85.4084 28.0936 85.8436 28.8811 86.4994 29.3634C87.1553 29.8457 87.9521 30.0898 88.8899 30.0898C89.6439 30.0898 90.4775 29.98 91.3908 29.7663C92.3041 29.5465 93.0212 29.2657 93.5484 28.9117V32.3058C93.0519 32.6599 92.3041 32.9346 91.3111 33.1422C90.3181 33.3497 89.5151 33.4474 88.9083 33.4474C86.5117 33.4474 84.6422 32.7942 83.2998 31.4939C81.9574 30.1936 81.2832 28.4477 81.2832 26.2622C81.2832 24.0768 81.9697 22.2881 83.3427 20.9329C84.7157 19.5837 86.432 18.9061 88.4915 18.9061C90.551 18.9061 92.1876 19.6265 93.4135 21.0672C94.6333 22.5079 95.2401 24.4858 95.234 26.9948V27.0009ZM91.6727 25.1695C91.4827 24.1622 91.0965 23.3992 90.5142 22.8864C89.9319 22.3736 89.2148 22.1172 88.3567 22.1172C87.3575 22.1172 86.5975 22.398 86.0887 22.9474C85.58 23.5029 85.2735 24.2416 85.1632 25.1695H91.6727Z" fill="#00008B"/>
<path d="M110.007 33.1849H107.058L106.255 31.9639L104.22 33.0628C104.049 33.1543 103.81 33.2215 103.485 33.2703C103.166 33.3131 102.884 33.3375 102.651 33.3375C100.665 33.3375 99.1514 32.6721 98.1216 31.3413C97.0919 30.0104 96.5709 28.3378 96.5586 26.3232C96.5586 24.1439 97.1716 22.4102 98.422 21.1221C99.6724 19.834 101.321 19.1869 103.375 19.1869C103.963 19.1869 104.478 19.2357 104.925 19.3273C105.373 19.4189 105.802 19.5837 106.213 19.8157V13.882H110.007V33.1849ZM106.213 29.0276V23.0572C106.004 22.807 105.655 22.5872 105.171 22.3979C104.686 22.2148 104.159 22.1232 103.589 22.1232C102.535 22.1232 101.75 22.4285 101.235 23.045C100.721 23.6616 100.463 24.6384 100.463 25.9814C100.463 27.3244 100.739 28.3683 101.284 29.0459C101.83 29.7235 102.572 30.0593 103.509 30.0593C104.11 30.0593 104.643 29.9555 105.097 29.7541C105.551 29.5526 105.924 29.3084 106.206 29.0276H106.213Z" fill="#00008B"/>
<path d="M95.234 27.0009H85.2C85.4084 28.0936 85.8436 28.8811 86.4994 29.3634C87.1553 29.8457 87.9521 30.0898 88.8899 30.0898C89.6439 30.0898 90.4775 29.98 91.3908 29.7663C92.3041 29.5465 93.0212 29.2657 93.5484 28.9117V32.3058C93.0519 32.6599 92.3041 32.9346 91.3111 33.1422C90.3181 33.3497 89.5151 33.4474 88.9083 33.4474C86.5117 33.4474 84.6422 32.7942 83.2998 31.4939C81.9574 30.1936 81.2832 28.4477 81.2832 26.2622C81.2832 24.0768 81.9697 22.2881 83.3427 20.9329C84.7157 19.5837 86.432 18.9061 88.4915 18.9061C90.551 18.9061 92.1876 19.6265 93.4135 21.0672C94.6333 22.5079 95.2401 24.4858 95.234 26.9948V27.0009ZM91.6727 25.1695C91.4827 24.1622 91.0965 23.3992 90.5142 22.8864C89.9319 22.3736 89.2148 22.1172 88.3567 22.1172C87.3575 22.1172 86.5975 22.398 86.0887 22.9474C85.58 23.5029 85.2735 24.2416 85.1632 25.1695H91.6727Z" fill="#326599"/>
<path d="M110.007 33.1849H107.058L106.255 31.9639L104.22 33.0628C104.049 33.1543 103.81 33.2215 103.485 33.2703C103.166 33.3131 102.884 33.3375 102.651 33.3375C100.665 33.3375 99.1514 32.6721 98.1216 31.3413C97.0919 30.0104 96.5709 28.3378 96.5586 26.3232C96.5586 24.1439 97.1716 22.4102 98.422 21.1221C99.6724 19.834 101.321 19.1869 103.375 19.1869C103.963 19.1869 104.478 19.2357 104.925 19.3273C105.373 19.4189 105.802 19.5837 106.213 19.8157V13.882H110.007V33.1849ZM106.213 29.0276V23.0572C106.004 22.807 105.655 22.5872 105.171 22.3979C104.686 22.2148 104.159 22.1232 103.589 22.1232C102.535 22.1232 101.75 22.4285 101.235 23.045C100.721 23.6616 100.463 24.6384 100.463 25.9814C100.463 27.3244 100.739 28.3683 101.284 29.0459C101.83 29.7235 102.572 30.0593 103.509 30.0593C104.11 30.0593 104.643 29.9555 105.097 29.7541C105.551 29.5526 105.924 29.3084 106.206 29.0276H106.213Z" fill="#326599"/>
<path d="M77.3363 31.3657H73.5789L71.7646 22.1843L68.4178 30.0715H66.7138L63.692 22.5445L61.8777 31.3657H58.3164L61.9819 14.932H63.3916L67.7681 24.6262L72.1385 14.932H73.6586L77.3302 31.3657H77.3363Z" fill="white"/>
<path d="M124 13.5096C124 16.2322 121.855 18.375 119.06 18.375C116.265 18.375 114.089 16.2383 114.089 13.5096C114.089 10.7808 116.295 8.7052 119.06 8.7052C121.824 8.7052 124 10.8418 124 13.5096ZM115.321 13.5096C115.321 15.6462 116.908 17.3494 119.084 17.3494C121.26 17.3494 122.762 15.6523 122.762 13.5401C122.762 11.4279 121.205 9.66974 119.054 9.66974C116.902 9.66974 115.315 11.3974 115.315 13.5096H115.321ZM118.294 16.0308H117.178V11.2264C117.619 11.141 118.239 11.0799 119.029 11.0799C119.943 11.0799 120.353 11.2264 120.709 11.434C120.972 11.6415 121.181 12.02 121.181 12.4901C121.181 13.0151 120.77 13.4302 120.182 13.6011V13.6622C120.654 13.8392 120.917 14.1872 121.064 14.8343C121.211 15.5668 121.297 15.8599 121.42 16.0369H120.212C120.065 15.8599 119.979 15.4203 119.832 14.8648C119.746 14.3398 119.452 14.1017 118.833 14.1017H118.306V16.0369H118.294V16.0308ZM118.324 13.3081H118.851C119.471 13.3081 119.967 13.1005 119.967 12.6061C119.967 12.1665 119.642 11.8735 118.937 11.8735C118.643 11.8735 118.435 11.904 118.318 11.9346V13.3142L118.324 13.3081Z" fill="#999999"/>
</g>
<defs>
<clipPath id="clip0_882_1674">
<rect width="124" height="42" fill="white"/>
</clipPath>
</defs>
</svg>
