<svg width="199" height="27" viewBox="0 0 199 27" fill="none" xmlns="http://www.w3.org/2000/svg">
<g clip-path="url(#clip0_884_2078)">
<path fill-rule="evenodd" clip-rule="evenodd" d="M55.5328 14.1197C55.8955 12.0899 57.1665 9.91565 59.7198 9.91565C61.9489 9.91565 62.9632 11.8994 62.9632 13.7417C62.9632 14.0387 62.9151 14.1197 62.5668 14.1197H55.5328ZM59.8594 7.573C55.1813 7.573 51.7871 11.6468 51.7871 17.2628C51.7871 22.9757 54.8684 26.3888 60.0328 26.3888C62.7947 26.3888 65.0254 25.1643 65.7219 24.0128L65.7925 23.8969L65.6048 22.3134L65.0912 22.5739C63.8571 23.1996 62.3758 23.5173 60.6924 23.5173C56.7396 23.5173 55.3322 20.1216 55.3322 16.9452C55.3322 16.7482 55.3322 16.537 55.3402 16.3226H66.5211L66.5725 15.9843C66.6463 15.4967 66.6463 15.1266 66.6463 14.6565C66.6463 11.245 64.5231 7.573 59.8594 7.573Z" fill="#40BA9B"/>
<path fill-rule="evenodd" clip-rule="evenodd" d="M177.233 3.87769H175.413L175.333 4.17151C174.798 6.1171 174.102 7.39563 171.951 8.57251L171.744 8.68527V10.4434H173.861V21.8375C173.861 25.0282 175.114 26.3877 178.046 26.3877C179.797 26.3877 181.611 25.6524 182.174 24.7169L182.253 24.5867L181.996 23.2764L181.553 23.4352C181.128 23.5909 180.099 23.8339 179.157 23.8339C177.91 23.8339 177.233 23.4193 177.233 21.2387V10.4434H182.265V7.99598H177.233V3.87769Z" fill="#40BA9B"/>
<path fill-rule="evenodd" clip-rule="evenodd" d="M77.0759 18.1277C77.0422 19.0997 76.9909 21.0945 76.9861 22.2491C76.3762 22.8971 75.2545 23.5515 73.8117 23.5515C72.3032 23.5515 71.3675 22.6383 71.3675 21.1691C71.3675 19.1441 72.9724 18.1166 76.1387 18.1166H76.1853C76.4404 18.1166 76.7758 18.1166 77.0759 18.1277ZM80.3915 22.1539C80.3915 20.518 80.4285 19.0123 80.4654 17.5623C80.4991 16.2027 80.5312 14.8924 80.5312 13.5663C80.5312 9.75768 78.2459 7.57227 74.2643 7.57227C72.2309 7.57227 70.0933 8.66497 69.201 9.72274L69.0822 9.86091L69.3807 11.6191L69.8782 11.3427C70.9663 10.7376 72.1972 10.4438 73.6384 10.4438C76.0504 10.4438 77.1257 11.6032 77.1257 14.2V15.8263C76.6266 15.8089 76.028 15.8089 75.6525 15.8089C70.9583 15.8089 67.9268 18.0927 67.9268 21.6266C67.9268 24.4314 69.9617 26.3881 72.8745 26.3881C74.7521 26.3881 76.3746 25.4351 77.283 24.5029C77.6248 25.6734 78.6535 26.3881 80.0946 26.3881C81.1843 26.3881 82.3077 26.1133 82.9545 25.6877L83.1342 25.5701V23.9756H82.733C80.7157 23.9756 80.3915 23.542 80.3915 22.1539Z" fill="#40BA9B"/>
<path fill-rule="evenodd" clip-rule="evenodd" d="M94.7432 7.57308C93.5556 7.57308 91.8898 8.37038 90.7712 9.3932V7.1792L90.2047 7.43173C88.5084 8.18932 87.2855 8.56096 85.4319 9.10255L85.1447 9.18832V10.6527L85.464 10.7178C87.3995 11.1101 87.3995 11.253 87.3995 13.0033V21.5908C87.3995 23.8731 87.1283 23.9208 86.5938 24.0145L85.1094 24.2432V25.9807L85.5266 25.9648C85.7898 25.9537 86.0947 25.9378 86.4286 25.9188C87.1812 25.8759 88.1168 25.8251 89.0509 25.8251C90.0475 25.8251 91.3634 25.8854 92.3247 25.9315L93.5123 25.9807V24.2273L91.5705 24.0129C91.089 23.9478 90.7712 23.9017 90.7712 21.5908V11.8216C91.7069 11.1117 92.9185 10.6908 94.0483 10.6908C94.7143 10.6908 95.4734 10.8099 95.7751 10.964L96.2903 11.2244L96.6738 7.8812L96.3352 7.79702C95.8698 7.6779 95.398 7.57308 94.7432 7.57308Z" fill="#40BA9B"/>
<path fill-rule="evenodd" clip-rule="evenodd" d="M110.413 22.4953C109.44 23.1544 108.091 23.5181 106.614 23.5181C103.072 23.5181 100.872 20.9865 100.872 16.9095C100.872 12.7706 102.933 9.88156 105.886 9.88156C107.856 9.88156 108.744 10.7678 108.85 12.8468L108.871 13.2248H110.973V12.8277C110.973 11.6445 111.008 9.97844 111.109 8.84921L111.135 8.54744L110.848 8.44262C109.773 8.04556 108.073 7.57227 106.094 7.57227C101.28 7.57227 97.3623 11.9193 97.3623 17.2621C97.3623 22.8908 100.548 26.3881 105.677 26.3881C108.323 26.3881 110.44 25.1556 111.161 23.9374L111.236 23.8104L110.92 22.1507L110.413 22.4953Z" fill="#40BA9B"/>
<path fill-rule="evenodd" clip-rule="evenodd" d="M164.474 18.1277C164.44 19.1044 164.39 21.1056 164.385 22.2491C163.776 22.8971 162.654 23.5515 161.213 23.5515C159.704 23.5515 158.767 22.6383 158.767 21.1691C158.767 19.1441 160.372 18.1166 163.538 18.1166H163.585C163.838 18.1166 164.174 18.1166 164.474 18.1277ZM167.791 22.1539C167.791 20.518 167.829 19.0123 167.865 17.5623C167.898 16.2027 167.931 14.8924 167.931 13.5663C167.931 9.75768 165.645 7.57227 161.664 7.57227C159.63 7.57227 157.493 8.66497 156.6 9.72115L156.482 9.86091L156.78 11.6191L157.278 11.3427C158.367 10.7376 159.597 10.4438 161.038 10.4438C163.448 10.4438 164.524 11.6032 164.524 14.2V15.8263C164.026 15.8089 163.427 15.8089 163.05 15.8089C158.358 15.8089 155.326 18.0927 155.326 21.6266C155.326 24.4314 157.361 26.3881 160.275 26.3881C162.153 26.3881 163.776 25.4351 164.684 24.5029C165.024 25.6718 166.053 26.3881 167.494 26.3881C168.6 26.3881 169.696 26.1197 170.354 25.6877L170.534 25.5701V23.9756H170.132C168.115 23.9756 167.791 23.542 167.791 22.1539Z" fill="#40BA9B"/>
<path fill-rule="evenodd" clip-rule="evenodd" d="M129.195 21.591V13.9881C129.195 11.2341 128.607 7.57319 123.518 7.57319C121.854 7.57319 120.151 8.45625 118.956 9.38696V0.000488281L118.372 0.2959C116.712 1.13766 115.467 1.62843 113.615 2.16843L113.328 2.25261V3.71855L113.649 3.78366C115.586 4.17596 115.586 4.3189 115.586 6.06914V21.591C115.586 23.8733 115.313 23.9209 114.78 24.013L113.294 24.2433V25.9808L114.271 25.9411C115.093 25.9062 116.152 25.8601 117.235 25.8601C118.324 25.8601 119.481 25.9094 120.336 25.9443L121.246 25.9808V24.2433L119.773 24.0146C119.264 23.9225 118.956 23.8669 118.956 21.591V11.6343C119.575 11.2484 121.05 10.4431 122.581 10.4431C124.976 10.4431 125.823 11.4723 125.823 14.3756V21.591C125.823 23.8733 125.55 23.9209 125.017 24.013L123.533 24.2433V25.9808L124.509 25.9411C125.332 25.9062 126.393 25.8601 127.474 25.8601C128.559 25.8601 129.718 25.9078 130.573 25.9443L131.486 25.9808V24.2433L130.013 24.0146C129.501 23.9225 129.195 23.8669 129.195 21.591Z" fill="#40BA9B"/>
<path fill-rule="evenodd" clip-rule="evenodd" d="M187.084 14.1197C187.447 12.0899 188.718 9.91565 191.27 9.91565C193.499 9.91565 194.515 11.8994 194.515 13.7417C194.515 14.0387 194.465 14.1197 194.117 14.1197H187.084ZM191.409 7.573C186.731 7.573 183.337 11.6468 183.337 17.2628C183.337 22.9757 186.42 26.3888 191.584 26.3888C194.346 26.3888 196.577 25.1643 197.273 24.0128L197.342 23.8969L197.156 22.3134L196.641 22.5739C195.409 23.1996 193.927 23.5173 192.242 23.5173C188.289 23.5173 186.882 20.1216 186.882 16.9452C186.882 16.7482 186.882 16.537 186.89 16.3226H198.074L198.124 15.9843C198.198 15.4967 198.198 15.1266 198.198 14.6565C198.198 11.245 196.075 7.573 191.409 7.573Z" fill="#40BA9B"/>
<path fill-rule="evenodd" clip-rule="evenodd" d="M149.863 15.421C148.146 15.421 146.849 15.3654 145.992 15.3289L145.262 15.2987V17.0617L146.902 17.3698C147.469 17.481 148.003 17.5842 148.003 19.7601V23.5067C146.913 24.0626 145.22 24.15 144.275 24.15C139.878 24.15 137.039 20.4113 137.039 14.6222C137.039 8.92356 139.96 5.09433 144.309 5.09433C147.111 5.09433 148.769 6.58727 148.976 9.30156L149.005 9.66844H151.161L151.129 9.2428C150.988 7.33056 150.956 5.75503 150.922 4.23033L150.916 3.95874L150.659 3.86662C149.374 3.40286 147.326 2.78662 144.378 2.78662C137.912 2.78662 133.218 7.86739 133.218 14.8683C133.218 21.909 137.406 26.4577 143.892 26.4577C146.954 26.4577 150.028 25.7398 151.235 25.2284L151.479 25.1251V19.7251C151.479 17.6446 151.829 17.4683 152.439 17.3349L153.84 17.0585V15.2987L152.882 15.34C152.094 15.3766 151.112 15.421 149.863 15.421Z" fill="#40BA9B"/>
<path fill-rule="evenodd" clip-rule="evenodd" d="M24.0514 14.1197C24.4141 12.0899 25.6851 9.91565 28.2384 9.91565C30.4675 9.91565 31.4818 11.8994 31.4818 13.7417C31.4818 14.0387 31.432 14.1197 31.0854 14.1197H24.0514ZM28.378 7.573C23.6999 7.573 20.3057 11.6468 20.3057 17.2628C20.3057 22.9757 23.387 26.3888 28.5513 26.3888C31.3133 26.3888 33.544 25.1643 34.2405 24.0128L34.3111 23.8969L34.1233 22.3134L33.6098 22.5739C32.3757 23.1996 30.8944 23.5173 29.2109 23.5173C25.2582 23.5173 23.8508 20.1216 23.8508 16.9452C23.8508 16.7482 23.8508 16.537 23.8588 16.3226H35.0397L35.091 15.9843C35.1649 15.4967 35.1649 15.1266 35.1649 14.6565C35.1649 11.245 33.0417 7.573 28.378 7.573Z" fill="#40BA9B"/>
<path fill-rule="evenodd" clip-rule="evenodd" d="M43.9919 14.993C41.8768 14.1735 40.5801 13.5985 40.5801 12.123C40.5801 10.1108 42.4818 9.81058 43.6148 9.81058C45.6514 9.81058 46.5918 10.7222 46.7555 12.8568L46.7844 13.2237H48.8691L48.8402 12.7996C48.7375 11.3099 48.7038 10.3935 48.7712 8.90369L48.784 8.62417L48.5224 8.51775C47.3974 8.06034 45.5535 7.57275 43.7544 7.57275C40.0633 7.57275 37.4859 9.64699 37.4859 12.6154C37.4859 16.3732 40.3811 17.4182 42.7081 18.26C44.8714 19.0414 46.1986 19.6036 46.1986 21.2395C46.1986 22.9437 44.8987 24.0443 42.8862 24.0443C40.2045 24.0443 39.5899 22.9088 39.293 20.5216L39.2496 20.1738H37.1826L37.2099 20.5947C37.3126 22.2401 37.3816 23.5329 37.3126 25.164L37.3014 25.4642L37.587 25.5579C39.3058 26.1249 41.0005 26.3886 42.9215 26.3886C46.5132 26.3886 49.3264 23.9411 49.3264 20.817C49.3264 17.0561 46.3687 15.911 43.9919 14.993Z" fill="#40BA9B"/>
<path fill-rule="evenodd" clip-rule="evenodd" d="M12.8772 9.48367C12.8772 12.1043 11.1296 13.7322 8.31467 13.7322C7.34053 13.7322 6.82859 13.7084 6.21714 13.6591V5.55914C6.94574 5.51626 7.83161 5.51626 8.62761 5.51626C11.3687 5.51626 12.8772 6.92502 12.8772 9.48367ZM16.9102 22.5231C15.1898 20.6204 13.3523 18.0506 11.932 15.5698C14.604 14.6899 16.6293 12.036 16.6293 9.30738C16.6293 5.44479 13.8722 3.13867 9.2519 3.13867C8.14937 3.13867 7.16561 3.16885 6.25566 3.19744C5.47571 3.22126 4.75032 3.2435 4.0458 3.2435C2.6849 3.2435 1.27745 3.2435 0.417258 3.20855L0 3.19108V4.95561L1.64335 5.26214C2.20826 5.37173 2.74267 5.47655 2.74267 7.65402V21.5209C2.74267 23.6968 2.20826 23.8016 1.64496 23.9096L0 24.2177V25.9807L0.824887 25.9489C1.76853 25.914 3.19363 25.86 4.60107 25.86C6.18344 25.86 8.2248 25.9314 9.02882 25.9648L9.44448 25.9807V24.2018L7.29881 23.908C6.74193 23.8238 6.21714 23.746 6.21714 21.5209V16.0685C6.83982 16.1066 7.44806 16.1098 8.25208 16.1098C10.3994 19.9724 12.391 22.7836 13.4534 24.024C14.6313 25.4581 16.3934 26.2475 18.4155 26.2475C19.0799 26.2475 19.7572 26.1252 20.1825 25.9283L20.4135 25.8203V24.2558H20.0123C19.0494 24.2558 17.918 23.6237 16.9102 22.5231Z" fill="#40BA9B"/>
</g>
<defs>
<clipPath id="clip0_884_2078">
<rect width="199" height="27" fill="white"/>
</clipPath>
</defs>
</svg>
