<svg width="148" height="42" viewBox="0 0 148 42" fill="none" xmlns="http://www.w3.org/2000/svg">
<g clip-path="url(#clip0_882_1673)">
<path d="M80.8185 13.1918L79.482 14.5283C79.2543 14.756 78.9771 14.8698 78.6677 14.8698H72.8936V3.99219H78.6677C78.9771 3.99219 79.2543 4.10604 79.482 4.33374L80.8185 5.67024C81.0462 5.89794 81.1601 6.17514 81.1601 6.48451V12.3725C81.1601 12.6819 81.0462 12.9591 80.8185 13.1868V13.1918ZM79.2048 6.81369C79.2048 6.73201 79.1726 6.65034 79.1058 6.58599L78.4697 5.94991C78.4054 5.88556 78.3386 5.85091 78.242 5.85091H74.8488V13.0111H78.242C78.341 13.0111 78.4054 12.9789 78.4697 12.9121L79.1058 12.276C79.1702 12.2117 79.2048 12.13 79.2048 12.0483V6.81369Z" fill="#1C1B1A"/>
<path d="M84.1797 14.8723V13.1423H86.1374V5.71977H84.1797V3.98975H90.0529V5.71977H88.0951V13.1423H90.0529V14.8723H84.1797Z" fill="#1C1B1A"/>
<path d="M100.98 14.8723L100.735 13.4863L99.6904 14.5308C99.4627 14.7585 99.1855 14.8723 98.8761 14.8723H95.5646C95.2552 14.8723 94.978 14.7585 94.7503 14.5308L93.4138 13.1943C93.1861 12.9666 93.0723 12.6894 93.0723 12.38V6.49196C93.0723 6.18258 93.1861 5.90538 93.4138 5.67768L94.7503 4.34118C94.978 4.11348 95.2552 3.99963 95.5646 3.99963H99.8043C100.114 3.99963 100.391 4.11348 100.619 4.34118L102.037 5.75936L100.715 7.06368L99.6063 5.95488C99.5419 5.89053 99.4751 5.85588 99.3786 5.85588H95.9853C95.8863 5.85588 95.822 5.88806 95.7576 5.95488L95.1216 6.59096C95.0572 6.65531 95.0226 6.73698 95.0226 6.81866V12.0533C95.0226 12.135 95.0547 12.2166 95.1216 12.281L95.7576 12.9171C95.822 12.9814 95.8888 13.0161 95.9853 13.0161H98.5618C98.6608 13.0161 98.7252 12.9839 98.7895 12.9171L100.275 11.4321C100.339 11.3677 100.374 11.3009 100.374 11.2044V10.3554H97.6832V8.49671H102.331V12.7042L102.754 14.8748H100.977L100.98 14.8723Z" fill="#1C1B1A"/>
<path d="M105.546 14.8723V13.1423H107.504V5.71977H105.546V3.98975H111.419V5.71977H109.461V13.1423H111.419V14.8723H105.546Z" fill="#1C1B1A"/>
<path d="M118.53 5.85335V14.8723H116.572V5.85335H113.424V3.99463H121.678V5.85335H118.53Z" fill="#1C1B1A"/>
<path d="M130.633 14.8723L129.606 12.1473H125.267L124.24 14.8723H122.282L126.312 3.99219H128.628L132.625 14.8723H130.635H130.633ZM127.435 6.09594L125.935 10.4024H128.938L127.438 6.09594H127.435Z" fill="#1C1B1A"/>
<path d="M135.432 14.8723V3.99219H137.389V13.0111H142.723V14.8698H135.432V14.8723Z" fill="#1C1B1A"/>
<path d="M72.8916 29.9673V19.0872H74.8493V28.1061H80.1829V29.9648H72.8916V29.9673Z" fill="#1C1B1A"/>
<path d="M82.8906 29.9673V28.2373H84.8484V20.8147H82.8906V19.0847H88.7638V20.8147H86.8061V28.2373H88.7638V29.9673H82.8906Z" fill="#1C1B1A"/>
<path d="M100.235 28.5813L99.1757 29.6406C98.948 29.8683 98.6857 29.9673 98.3763 29.9673H92.3076V19.0872H98.3763C98.6857 19.0872 98.948 19.201 99.1584 19.4139L100.235 20.4905C100.463 20.7182 100.577 20.9805 100.577 21.3048V22.7724C100.577 23.0818 100.463 23.359 100.235 23.5892L99.3044 24.5198L100.235 25.4504C100.463 25.6781 100.577 25.9404 100.577 26.2647V27.7645C100.577 28.0739 100.463 28.3511 100.235 28.5788V28.5813ZM98.6213 21.6315C98.6213 21.5349 98.5892 21.4681 98.5223 21.4038L98.1635 21.0449C98.0991 20.9805 98.0323 20.9459 97.9358 20.9459H94.2653V23.604H97.5447C97.6264 23.604 97.7081 23.5719 97.7724 23.505L98.5223 22.7551C98.5867 22.6908 98.6213 22.6239 98.6213 22.5274V21.6315ZM98.6213 26.5419C98.6213 26.4429 98.5892 26.3785 98.5223 26.3142L97.7402 25.5321C97.6759 25.4677 97.6091 25.4331 97.5125 25.4331H94.2653V28.1085H97.9358C98.0174 28.1085 98.0991 28.0764 98.1635 28.0095L98.5223 27.6507C98.5867 27.5863 98.6213 27.5195 98.6213 27.423V26.5419Z" fill="#1C1B1A"/>
<path d="M111.033 29.9673L107.821 25.8241C107.757 25.7251 107.658 25.6781 107.544 25.6781H106.353V29.9673H104.396V19.0872H110.464C110.774 19.0872 111.036 19.201 111.246 19.4139L112.323 20.4905C112.551 20.7182 112.664 20.9805 112.664 21.3048V23.458C112.664 23.7847 112.551 24.0446 112.323 24.2723L111.246 25.3489C111.033 25.5618 110.774 25.6756 110.464 25.6756H110.073L113.434 29.9648H111.036L111.033 29.9673ZM110.707 21.6315C110.707 21.5349 110.675 21.4681 110.608 21.4038L110.249 21.0449C110.185 20.9805 110.118 20.9459 110.021 20.9459H106.351V23.8169H110.021C110.12 23.8169 110.185 23.7847 110.249 23.7179L110.608 23.359C110.672 23.2947 110.707 23.2278 110.707 23.1313V21.6315Z" fill="#1C1B1A"/>
<path d="M123.51 29.9673L122.483 27.2423H118.144L117.117 29.9673H115.159L119.188 19.0872H121.505L125.502 29.9673H123.512H123.51ZM120.312 21.1909L118.812 25.4974H121.814L120.315 21.1909H120.312Z" fill="#1C1B1A"/>
<path d="M134.779 29.9673L131.566 25.8241C131.502 25.7251 131.403 25.6781 131.289 25.6781H130.098V29.9673H128.141V19.0872H134.209C134.519 19.0872 134.781 19.201 134.991 19.4139L136.068 20.4905C136.296 20.7182 136.41 20.9805 136.41 21.3048V23.458C136.41 23.7847 136.296 24.0446 136.068 24.2723L134.991 25.3489C134.779 25.5618 134.519 25.6756 134.209 25.6756H133.818L137.179 29.9648H134.781L134.779 29.9673ZM134.452 21.6315C134.452 21.5349 134.42 21.4681 134.353 21.4038L133.994 21.0449C133.93 20.9805 133.863 20.9459 133.766 20.9459H130.096V23.8169H133.766C133.865 23.8169 133.93 23.7847 133.994 23.7179L134.353 23.359C134.417 23.2947 134.452 23.2278 134.452 23.1313V21.6315Z" fill="#1C1B1A"/>
<path d="M144.33 25.1559V29.9673H142.372V25.1559L138.687 19.0872H140.822L143.367 23.312L145.894 19.0872H147.997L144.327 25.1559H144.33Z" fill="#1C1B1A"/>
<path d="M10.3331 22.1834L6.34095 11.3132H4.02682L0 22.1834H1.95525L2.98237 19.4609H7.31857L8.3457 22.1834H10.3331ZM6.65032 17.7185H3.65062L5.15047 13.417L6.65032 17.7185ZM20.045 20.4237L18.7258 19.1194L17.617 20.2282C17.5527 20.2925 17.4859 20.3247 17.3893 20.3247H14.699C14.6 20.3247 14.5357 20.2925 14.4713 20.2282L13.8352 19.5921C13.7709 19.5278 13.7362 19.4461 13.7362 19.3644V14.1323C13.7362 14.0506 13.7684 13.9689 13.8352 13.9046L14.4713 13.2685C14.5357 13.2041 14.6025 13.172 14.699 13.172H17.3893C17.4883 13.172 17.5527 13.2041 17.617 13.2685L18.7258 14.3773L20.045 13.073L18.6268 11.6548C18.3991 11.4271 18.1219 11.3132 17.8126 11.3132H14.2758C13.9664 11.3132 13.6892 11.4271 13.4615 11.6548L12.125 12.9913C11.8973 13.219 11.7835 13.4962 11.7835 13.8056V19.6886C11.7835 19.998 11.8973 20.2752 12.125 20.5029L13.4615 21.8394C13.6892 22.0671 13.9664 22.181 14.2758 22.181H17.8126C18.1219 22.181 18.3991 22.0671 18.6268 21.8394L20.045 20.4212V20.4237ZM33.4174 22.1834V11.3132H30.4177L27.8437 19.7381L25.2697 11.3132H22.27V22.1834H24.1758V13.5457L26.8315 22.1834H28.8511L31.5067 13.5457V22.1834H33.415H33.4174Z" fill="#1C1B1A"/>
<path d="M49.3142 2.90312L44.7627 1.71265L43.5771 6.23695L46.8639 5.35337L49.3142 2.90312Z" fill="#1C1B1A"/>
<path d="M45.513 6.73694L38.9766 8.51151L39.9789 12.2389L45.513 6.73694Z" fill="#1C1B1A"/>
<path d="M67.669 12.6522L68.8792 8.02645L64.3574 6.85083L65.2682 10.2886L67.669 12.6522Z" fill="#1C1B1A"/>
<path d="M39.6397 21.2776L38.4492 25.8291L42.9735 27.0122L42.08 23.7204L39.6397 21.2776Z" fill="#1C1B1A"/>
<path d="M62.08 2.23987L58.3057 3.28927L63.8744 8.85802L62.08 2.23987Z" fill="#1C1B1A"/>
<path d="M61.7236 27.1483L68.3517 25.3489L67.3221 21.5498L61.7236 27.1483Z" fill="#1C1B1A"/>
<path d="M57.9395 30.9326L62.5652 32.1428L63.7557 27.6185L60.3229 28.5491L57.9395 30.9326Z" fill="#1C1B1A"/>
<path d="M45.2476 31.6157L48.965 30.6034L43.4854 25.1262L45.2476 31.6157Z" fill="#1C1B1A"/>
<path d="M67.4259 20.045L70.5444 16.9265L60.6494 7.03147L56.7834 3.16552L53.6179 0L48.0937 5.5242L39.8842 13.7338L36.6914 16.9265L42.2626 22.4977L50.4722 30.7073L53.6179 33.853L59.1075 28.3635L67.4284 20.0425L67.4259 20.045ZM53.509 19.4931C53.509 19.7876 53.4001 20.05 53.1848 20.2678L51.9151 21.5374C51.6973 21.7552 51.435 21.8617 51.1405 21.8617H45.6583V11.5335H51.1405C51.435 11.5335 51.6973 11.6424 51.9151 11.8577L53.1848 13.1274C53.4026 13.3452 53.509 13.6075 53.509 13.9021V19.4906V19.4931ZM56.5409 11.5335H58.3996V20.0945H63.4635V21.8592H56.5434V11.531L56.5409 11.5335Z" fill="#1C1B1A"/>
<path d="M50.9554 13.3947C50.8935 13.3328 50.8316 13.3007 50.7376 13.3007H47.5176V20.097H50.7376C50.8316 20.097 50.891 20.0673 50.9554 20.003L51.5593 19.3991C51.6211 19.3372 51.6533 19.2605 51.6533 19.1813V14.2115C51.6533 14.1347 51.6236 14.058 51.5593 13.9937L50.9554 13.3898V13.3947Z" fill="#1C1B1A"/>
<path d="M76.3483 33.7961H75.6256V35.8702L75.3533 35.5979C75.2147 35.4593 75.0415 35.3876 74.8484 35.3876H73.7396C73.5416 35.3876 73.3808 35.4544 73.2446 35.5905L72.8783 35.9568C72.7373 36.0979 72.668 36.2687 72.668 36.4691V38.5036C72.668 38.709 72.7422 38.8971 72.8783 39.0332L73.2446 39.3995C73.3808 39.5357 73.5441 39.6025 73.7396 39.6025H74.8484C75.039 39.6025 75.2147 39.5307 75.3533 39.3921L75.6751 39.0704L75.7889 39.605H76.5067L76.3458 38.8229V33.7986L76.3483 33.7961ZM75.6256 36.8701V38.12C75.6256 38.12 75.6206 38.1398 75.6107 38.1497L74.8856 38.8748C74.8856 38.8748 74.8683 38.8897 74.8484 38.8897H73.757C73.7446 38.8897 73.7347 38.8823 73.7273 38.8748L73.4055 38.5531C73.4055 38.5531 73.3882 38.5085 73.3882 38.4788V36.4691C73.3882 36.4691 73.3882 36.4543 73.403 36.4394L73.7273 36.1152C73.7273 36.1152 73.7446 36.1028 73.757 36.1028H74.8484C74.8707 36.1028 74.8781 36.1103 74.8856 36.1177L75.6107 36.8429C75.6107 36.8429 75.6256 36.8627 75.6256 36.8726V36.8701Z" fill="#1C1B1A"/>
<path d="M76.8955 34.5089H77.737V39.6H78.4572V33.7961H76.8955V34.5089Z" fill="#1C1B1A"/>
<path d="M80.8825 38.6521H79.9346V39.6H80.8825V38.6521Z" fill="#1C1B1A"/>
<path d="M85.6993 38.751V36.4666C85.6993 36.2785 85.6201 36.0854 85.489 35.9543L85.1227 35.588C84.989 35.4543 84.8182 35.385 84.6277 35.385H83.0956C82.8952 35.385 82.7392 35.4494 82.6006 35.588L82.1378 36.0508L82.6353 36.5606L83.0833 36.1127C83.0956 36.1003 83.1006 36.1003 83.113 36.1003H84.6128C84.6252 36.1003 84.6277 36.1003 84.6425 36.1151L84.9667 36.4394C84.9667 36.4394 84.9791 36.4592 84.9791 36.4691V36.7784H83.0857C82.8952 36.7784 82.7194 36.8502 82.5808 36.9888L82.2319 37.3378C82.0933 37.4764 82.0215 37.6496 82.0215 37.8427V38.5184C82.0215 38.7139 82.0957 38.8946 82.2319 39.0307L82.5982 39.397C82.7343 39.5331 82.8976 39.5999 83.0932 39.5999H84.3752C84.5806 39.5999 84.7291 39.5381 84.8702 39.397L85.1004 39.1668L85.583 39.6494L86.083 39.1495L85.7117 38.7782C85.6969 38.7634 85.6969 38.7609 85.6969 38.7485L85.6993 38.751ZM84.9766 37.4912V38.2684C84.9766 38.2808 84.9766 38.2832 84.9643 38.2981L84.3901 38.8723C84.3901 38.8723 84.3727 38.8871 84.3604 38.8871H83.1105C83.0981 38.8871 83.0882 38.8797 83.0808 38.8723L82.7566 38.5481C82.7417 38.5332 82.7417 38.5307 82.7417 38.5184V37.86C82.7417 37.86 82.7467 37.8402 82.7566 37.8303L83.0808 37.5061C83.0956 37.4912 83.0981 37.4912 83.1105 37.4912H84.9791H84.9766Z" fill="#1C1B1A"/>
<path d="M87.6467 36.4394L87.9709 36.1152C87.9833 36.1028 87.9882 36.1028 88.0006 36.1028H89.5004C89.5128 36.1028 89.5153 36.1028 89.5301 36.1152L90.1093 36.7043L90.6191 36.1944L90.0152 35.5905C89.8766 35.4519 89.7182 35.3876 89.5202 35.3876H87.9857C87.7853 35.3876 87.6293 35.4519 87.4907 35.5905L87.1244 35.9568C86.9883 36.0929 86.9141 36.2761 86.9141 36.4692V38.5184C86.9141 38.714 86.9883 38.8946 87.1244 39.0308L87.4907 39.3971C87.6269 39.5332 87.7902 39.6 87.9857 39.6H89.5202C89.7207 39.6 89.8766 39.5357 90.0152 39.3971L90.6191 38.7932L90.1093 38.2833L89.5301 38.8724C89.5153 38.8872 89.5128 38.8872 89.5004 38.8872H88.0006C88.0006 38.8872 87.9857 38.8872 87.9709 38.8724L87.6467 38.5481C87.6467 38.5481 87.6318 38.5283 87.6318 38.5184V36.4692C87.6318 36.4692 87.6368 36.4493 87.6467 36.4394Z" fill="#1C1B1A"/>
<path d="M96.1812 35.5904C96.045 35.4543 95.8817 35.3875 95.6862 35.3875H95.2605C95.0699 35.3875 94.8942 35.4593 94.7556 35.5979L94.3348 36.0186L93.9066 35.5904C93.7705 35.4543 93.6072 35.3875 93.4116 35.3875H92.9859C92.7954 35.3875 92.6196 35.4593 92.481 35.5979L92.1543 35.9246L92.0256 35.385H91.2881L91.4886 36.2141V39.5975H92.2113V36.8651C92.2113 36.8527 92.2113 36.8502 92.2236 36.8354L92.9488 36.1102C92.9488 36.1102 92.9736 36.0978 92.9859 36.0978H93.3943C93.3943 36.0978 93.4141 36.1028 93.424 36.1127L93.7482 36.4369C93.7631 36.4517 93.7631 36.4542 93.7631 36.4666V39.5975H94.4858V36.8651C94.4858 36.8527 94.4858 36.8502 94.4982 36.8354L95.2233 36.1102C95.2233 36.1102 95.2481 36.0978 95.2605 36.0978H95.6688C95.6688 36.0978 95.6886 36.1028 95.6985 36.1127L96.0228 36.4369C96.0376 36.4517 96.0376 36.4542 96.0376 36.4666V39.5975H96.7603V36.4666C96.7603 36.2661 96.6885 36.0953 96.5499 35.9543L96.1836 35.588L96.1812 35.5904Z" fill="#1C1B1A"/>
<path d="M99.1852 38.6521H98.2373V39.6H99.1852V38.6521Z" fill="#1C1B1A"/>
<path d="M103.539 35.5905C103.403 35.4544 103.239 35.3876 103.044 35.3876H101.509C101.314 35.3876 101.15 35.4544 101.014 35.5905L100.648 35.9568C100.507 36.0979 100.438 36.2687 100.438 36.4692V38.5184C100.438 38.7189 100.509 38.8897 100.648 39.0308L101.014 39.3971C101.15 39.5332 101.314 39.6 101.509 39.6H103.044C103.242 39.6 103.403 39.5332 103.539 39.3971L103.905 39.0308C104.041 38.8946 104.115 38.7065 104.115 38.5011V36.4667C104.115 36.2662 104.044 36.0954 103.905 35.9544L103.539 35.588V35.5905ZM103.395 36.4692V38.4788C103.395 38.5085 103.385 38.5432 103.383 38.5506L103.059 38.8749C103.059 38.8749 103.041 38.8897 103.029 38.8897H101.529C101.517 38.8897 101.507 38.8823 101.499 38.8749L101.175 38.5506C101.16 38.5358 101.16 38.5333 101.16 38.5209V36.4716C101.16 36.4716 101.16 36.4568 101.175 36.4419L101.499 36.1177C101.499 36.1177 101.519 36.1053 101.529 36.1053H103.029C103.029 36.1053 103.049 36.1103 103.059 36.1202L103.383 36.4444C103.398 36.4592 103.398 36.4617 103.398 36.4741L103.395 36.4692Z" fill="#1C1B1A"/>
<path d="M107.922 35.5904C107.786 35.4543 107.623 35.3875 107.427 35.3875H106.769C106.579 35.3875 106.403 35.4593 106.264 35.5979L105.938 35.9246L105.809 35.385H105.071L105.272 36.2141V39.5975H105.994V36.8651C105.994 36.8527 105.994 36.8502 106.009 36.8354L106.734 36.1102C106.734 36.1102 106.759 36.0978 106.772 36.0978H107.413C107.413 36.0978 107.432 36.1028 107.442 36.1127L107.767 36.4369C107.781 36.4517 107.781 36.4542 107.781 36.4666V37.1819H108.504V36.4666C108.504 36.2661 108.432 36.0953 108.294 35.9543L107.927 35.588L107.922 35.5904Z" fill="#1C1B1A"/>
<path d="M112.912 35.3876H112.194L112.08 35.9222L111.758 35.6004C111.62 35.4618 111.447 35.3901 111.254 35.3901H110.145C109.949 35.3901 109.786 35.4569 109.65 35.593L109.283 35.9593C109.147 36.0954 109.073 36.2835 109.073 36.4889V38.5209C109.073 38.7214 109.145 38.8922 109.283 39.0333L109.65 39.3995C109.786 39.5357 109.949 39.6025 110.145 39.6025H111.254C111.444 39.6025 111.62 39.5307 111.758 39.3921L112.031 39.1199V40.1049C112.031 40.1049 112.026 40.1247 112.018 40.1346L111.694 40.4588C111.679 40.4737 111.677 40.4737 111.664 40.4737H110.165C110.152 40.4737 110.15 40.4737 110.135 40.4613L109.556 39.8723L109.046 40.3821L109.65 40.986C109.788 41.1246 109.947 41.189 110.145 41.189H111.679C111.88 41.189 112.036 41.1246 112.174 40.986L112.541 40.6197C112.677 40.4836 112.751 40.3029 112.751 40.1074V36.1994L112.912 35.3925V35.3876ZM112.028 36.8701V38.12C112.028 38.12 112.023 38.1398 112.016 38.1497L111.291 38.8749C111.291 38.8749 111.273 38.8897 111.254 38.8897H110.162C110.15 38.8897 110.14 38.8823 110.132 38.8749L109.808 38.5506C109.793 38.5358 109.793 38.5333 109.793 38.5209V36.5137C109.793 36.484 109.803 36.4494 109.808 36.4419L110.132 36.1177C110.132 36.1177 110.152 36.1053 110.162 36.1053H111.254C111.276 36.1053 111.283 36.1127 111.291 36.1202L112.016 36.8453C112.016 36.8453 112.031 36.8652 112.031 36.8751L112.028 36.8701Z" fill="#1C1B1A"/>
</g>
<defs>
<clipPath id="clip0_882_1673">
<rect width="148" height="41.184" fill="white"/>
</clipPath>
</defs>
</svg>
