<svg width="66" height="55" viewBox="0 0 66 55" fill="none" xmlns="http://www.w3.org/2000/svg">
<g clip-path="url(#clip0_887_3409)">
<path fill-rule="evenodd" clip-rule="evenodd" d="M61.2937 14.2017C69.0976 26.6903 65.2997 43.1406 52.8111 50.9445C42.944 57.1104 30.6039 56.0335 22.0093 49.1506L23.2864 48.3524C31.4044 54.5929 42.8656 55.4887 52.0591 49.7439C63.8835 42.355 67.4797 26.7795 60.0908 14.9551C55.0219 6.84319 46.9477 2.52534 38.0268 3.04862C35.5878 3.19193 33.5213 3.89819 33.5213 3.89819C33.5213 3.89819 33.4135 3.15598 33.2581 2.70179C44.1824 -0.249746 54.5009 3.3315 61.2937 14.2017ZM12.637 34.0853L13.9169 33.2852C12.7327 27.3574 13.5706 21.6378 16.4904 16.4181C16.4904 16.4181 15.771 15.6343 15.3495 15.4121C12.2327 21.0529 11.2287 27.7098 12.637 34.0848V34.0853Z" fill="#A5A5A5"/>
<path fill-rule="evenodd" clip-rule="evenodd" d="M33.0832 9.50711C35.7267 8.75837 38.5708 8.55719 41.4631 9.01558C52.1321 10.7054 59.4109 20.7242 57.7211 31.3932C56.0313 42.0623 46.0125 49.341 35.3434 47.6512C24.6744 45.9614 17.3957 35.9426 19.0855 25.2735C19.492 22.7076 20.3804 20.3372 21.6435 18.2408C23.8071 18.2712 26.0043 17.7007 27.9756 16.4689C30.6106 14.822 32.3611 12.2948 33.0832 9.50711Z" fill="#9B9B9B"/>
<mask id="mask0_887_3409" style="mask-type:luminance" maskUnits="userSpaceOnUse" x="24" y="14" width="29" height="29">
<path d="M38.4076 42.6127C46.1424 42.6127 52.4128 36.3424 52.4128 28.6075C52.4128 20.8726 46.1424 14.6023 38.4076 14.6023C30.6727 14.6023 24.4023 20.8726 24.4023 28.6075C24.4023 36.3424 30.6727 42.6127 38.4076 42.6127Z" fill="white"/>
</mask>
<g mask="url(#mask0_887_3409)">
<path d="M47.2295 43.6505L53.4509 36.165V43.6505H47.2295Z" fill="#409FFF"/>
<path d="M46.6406 43.6504L53.4507 35.4568V36.1649L47.2293 43.6504H46.6406Z" fill="#409FFF"/>
<path d="M46.0518 43.6505L53.4504 34.7488V35.4569L46.6404 43.6505H46.0518Z" fill="#409EFE"/>
<path d="M45.4629 43.6504L53.4502 34.0405V34.7487L46.0515 43.6504H45.4629Z" fill="#3F9DFE"/>
<path d="M44.875 43.6505L53.4505 33.3325V34.0406L45.4632 43.6505H44.875Z" fill="#3F9CFD"/>
<path d="M44.2861 43.6504L53.4502 32.6248V33.3324L44.8748 43.6504H44.2861Z" fill="#3E9BFC"/>
<path d="M43.6982 43.6505L53.451 31.9167V32.6249L44.2869 43.6505H43.6982Z" fill="#3E9AFC"/>
<path d="M43.1094 43.6504L53.4507 31.2085V31.9166L43.698 43.6504H43.1094Z" fill="#3D99FB"/>
<path d="M42.5215 43.6505L53.451 30.5005V31.2086L43.1096 43.6505H42.5215Z" fill="#3D98FA"/>
<path d="M41.9326 43.6504L53.4508 29.7922V30.5004L42.5212 43.6504H41.9326Z" fill="#3D97FA"/>
<path d="M41.3438 43.6505L53.4505 29.0842V29.7924L41.9324 43.6505H41.3438Z" fill="#3C96F9"/>
<path d="M40.7549 43.6504L53.4503 28.376V29.0841L41.3435 43.6504H40.7549Z" fill="#3C95F8"/>
<path d="M40.167 43.6505L53.4506 27.6685V28.3761L40.7552 43.6505H40.167Z" fill="#3B94F8"/>
<path d="M39.5781 43.6504L53.4503 26.9602V27.6683L40.1668 43.6504H39.5781Z" fill="#3B93F7"/>
<path d="M38.9902 43.6505L53.451 26.2522V26.9603L39.5789 43.6505H38.9902Z" fill="#3A92F6"/>
<path d="M38.4014 43.6504L53.4508 25.5439V26.2521L38.99 43.6504H38.4014Z" fill="#3A91F6"/>
<path d="M37.8125 43.6505L53.4501 24.8359V25.5441L38.4007 43.6505H37.8125Z" fill="#3990F5"/>
<path d="M37.2246 43.6504L53.4508 24.1277V24.8358L37.8132 43.6504H37.2246Z" fill="#398FF4"/>
<path d="M36.6357 43.6505L53.4506 23.4197V24.1278L37.2244 43.6505H36.6357Z" fill="#398EF4"/>
<path d="M36.0469 43.6504L53.4504 22.7119V23.4196L36.6355 43.6504H36.0469Z" fill="#388DF3"/>
<path d="M35.459 43.6505L53.4506 22.0039V22.712L36.0471 43.6505H35.459Z" fill="#388CF2"/>
<path d="M34.8701 43.6504L53.4504 21.2957V22.0038L35.4587 43.6504H34.8701Z" fill="#378BF1"/>
<path d="M34.2812 43.6505L53.4501 20.5876V21.2958L34.8699 43.6505H34.2812Z" fill="#378AF1"/>
<path d="M33.6934 43.6504L53.4509 19.8794V20.5875L34.282 43.6504H33.6934Z" fill="#3689F0"/>
<path d="M33.1045 43.6505L53.4502 19.1714V19.8795L33.6927 43.6505H33.1045Z" fill="#3688EF"/>
<path d="M32.5166 43.6504L53.4509 18.4631V19.1713L33.1052 43.6504H32.5166Z" fill="#3687EF"/>
<path d="M31.9277 43.6505L53.4507 17.7551V18.4633L32.5164 43.6505H31.9277Z" fill="#3586EE"/>
<path d="M31.3389 43.6504L53.4504 17.0474V17.755L31.9275 43.6504H31.3389Z" fill="#3585ED"/>
<path d="M30.751 43.6505L53.4507 16.3394V17.0475L31.3391 43.6505H30.751Z" fill="#3484ED"/>
<path d="M30.1621 43.6504L53.4505 15.6311V16.3392L30.7507 43.6504H30.1621Z" fill="#3483EC"/>
<path d="M29.5732 43.6505L53.4502 14.9231V15.6312L30.1619 43.6505H29.5732Z" fill="#3382EB"/>
<path d="M28.9854 43.6504L53.451 14.2148V14.923L29.574 43.6504H28.9854Z" fill="#3381EB"/>
<path d="M28.3965 43.6505L53.4022 13.5647H53.4503V14.2149L28.9846 43.6505H28.3965Z" fill="#3280EA"/>
<path d="M27.8086 43.6505L52.8143 13.5647H53.4029L28.3972 43.6505H27.8086Z" fill="#327FE9"/>
<path d="M27.2197 43.6505L52.2254 13.5647H52.814L27.8084 43.6505H27.2197Z" fill="#327EE9"/>
<path d="M26.6309 43.6505L51.637 13.5647H52.2252L27.2195 43.6505H26.6309Z" fill="#317DE8"/>
<path d="M26.043 43.6505L51.0487 13.5647H51.6373L26.6311 43.6505H26.043Z" fill="#317CE7"/>
<path d="M25.4541 43.6505L50.4598 13.5647H51.0484L26.0427 43.6505H25.4541Z" fill="#307AE7"/>
<path d="M24.8652 43.6505L49.8709 13.5647H50.4595L25.4539 43.6505H24.8652Z" fill="#3079E6"/>
<path d="M24.2773 43.6505L49.2835 13.5647H49.8717L24.866 43.6505H24.2773Z" fill="#2F78E5"/>
<path d="M23.6885 43.6505L48.6942 13.5647H49.2828L24.2766 43.6505H23.6885Z" fill="#2F77E5"/>
<path d="M23.3652 43.3317L48.1058 13.5647H48.6944L23.6887 43.6505H23.3652V43.3317Z" fill="#2F76E4"/>
<path d="M23.3652 42.6236L47.5172 13.5647H48.1058L23.3652 43.3317V42.6236Z" fill="#2E75E3"/>
<path d="M23.3652 41.9154L46.929 13.5647H47.5172L23.3652 42.6236V41.9154Z" fill="#2E74E3"/>
<path d="M23.3652 41.2073L46.3404 13.5647H46.929L23.3652 41.9154V41.2073Z" fill="#2D73E2"/>
<path d="M23.3652 40.4992L45.7517 13.5647H46.3404L23.3652 41.2073V40.4992Z" fill="#2D72E1"/>
<path d="M23.3652 39.791L45.1631 13.5647H45.7517L23.3652 40.4992V39.791Z" fill="#2C71E1"/>
<path d="M23.3652 39.0829L44.575 13.5647H45.1631L23.3652 39.791V39.0829Z" fill="#2C70E0"/>
<path d="M23.3652 38.3753L43.9863 13.5647H44.575L23.3652 39.0829V38.3753Z" fill="#2B6FDF"/>
<path d="M23.3652 37.6671L43.3977 13.5647H43.9863L23.3652 38.3753V37.6671Z" fill="#2B6EDF"/>
<path d="M23.3652 36.959L42.8091 13.5647H43.3977L23.3652 37.6671V36.959Z" fill="#2B6DDE"/>
<path d="M23.3652 36.2509L42.2209 13.5647H42.8091L23.3652 36.959V36.2509Z" fill="#2A6CDD"/>
<path d="M23.3652 35.5428L41.6323 13.5647H42.2209L23.3652 36.2509V35.5428Z" fill="#2A6BDD"/>
<path d="M23.3652 34.8346L41.0437 13.5647H41.6323L23.3652 35.5428V34.8346Z" fill="#296ADC"/>
<path d="M23.3652 34.1265L40.455 13.5647H41.0437L23.3652 34.8346V34.1265Z" fill="#2969DB"/>
<path d="M23.3652 33.4188L39.8669 13.5647H40.455L23.3652 34.1265V33.4188Z" fill="#2868DA"/>
<path d="M23.3652 32.7107L39.2782 13.5647H39.8669L23.3652 33.4188V32.7107Z" fill="#2867DA"/>
<path d="M23.3652 32.0026L38.6896 13.5647H39.2782L23.3652 32.7107V32.0026Z" fill="#2866D9"/>
<path d="M23.3652 31.2945L38.101 13.5647H38.6896L23.3652 32.0026V31.2945Z" fill="#2765D8"/>
<path d="M23.3652 30.5863L37.5128 13.5647H38.101L23.3652 31.2945V30.5863Z" fill="#2764D8"/>
<path d="M23.3652 29.8782L36.9242 13.5647H37.5128L23.3652 30.5863V29.8782Z" fill="#2663D7"/>
<path d="M23.3652 29.1701L36.3356 13.5647H36.9242L23.3652 29.8782V29.1701Z" fill="#2662D6"/>
<path d="M23.3652 28.462L35.7469 13.5647H36.3356L23.3652 29.1701V28.462Z" fill="#2561D6"/>
<path d="M23.3652 27.7543L35.1588 13.5647H35.7469L23.3652 28.462V27.7543Z" fill="#2560D5"/>
<path d="M23.3652 27.0462L34.5702 13.5647H35.1588L23.3652 27.7543V27.0462Z" fill="#245FD4"/>
<path d="M23.3652 26.338L33.9815 13.5647H34.5702L23.3652 27.0462V26.338Z" fill="#245ED4"/>
<path d="M23.3652 25.6299L33.3929 13.5647H33.9815L23.3652 26.338V25.6299Z" fill="#245DD3"/>
<path d="M23.3652 24.9218L32.8047 13.5647H33.3929L23.3652 25.6299V24.9218Z" fill="#235CD2"/>
<path d="M23.3652 24.2137L32.2161 13.5647H32.8047L23.3652 24.9218V24.2137Z" fill="#235BD2"/>
<path d="M23.3652 23.5055L31.6275 13.5647H32.2161L23.3652 24.2137V23.5055Z" fill="#225AD1"/>
<path d="M23.3652 22.7979L31.0389 13.5647H31.6275L23.3652 23.5055V22.7979Z" fill="#2259D0"/>
<path d="M23.3652 22.0898L30.4507 13.5647H31.0389L23.3652 22.7979V22.0898Z" fill="#2158D0"/>
<path d="M23.3652 21.3816L29.8621 13.5647H30.4507L23.3652 22.0898V21.3816Z" fill="#2157CF"/>
<path d="M29.8621 13.5647L23.3652 21.3816V13.5647H29.8621Z" fill="#2157CF"/>
</g>
<mask id="mask1_887_3409" style="mask-type:luminance" maskUnits="userSpaceOnUse" x="24" y="14" width="29" height="29">
<path d="M38.4076 42.6127C46.1424 42.6127 52.4128 36.3424 52.4128 28.6075C52.4128 20.8726 46.1424 14.6023 38.4076 14.6023C30.6727 14.6023 24.4023 20.8726 24.4023 28.6075C24.4023 36.3424 30.6727 42.6127 38.4076 42.6127Z" fill="white"/>
</mask>
<g mask="url(#mask1_887_3409)">
<path d="M47.2295 43.6505L53.4509 36.165V43.6505H47.2295Z" fill="#409FFF"/>
<path d="M46.6406 43.6504L53.4507 35.4568V36.1649L47.2293 43.6504H46.6406Z" fill="#409FFF"/>
<path d="M46.0518 43.6505L53.4504 34.7488V35.4569L46.6404 43.6505H46.0518Z" fill="#409EFE"/>
<path d="M45.4629 43.6504L53.4502 34.0405V34.7487L46.0515 43.6504H45.4629Z" fill="#3F9DFE"/>
<path d="M44.875 43.6505L53.4505 33.3325V34.0406L45.4632 43.6505H44.875Z" fill="#3F9CFD"/>
<path d="M44.2861 43.6504L53.4502 32.6248V33.3324L44.8748 43.6504H44.2861Z" fill="#3E9BFC"/>
<path d="M43.6982 43.6505L53.451 31.9167V32.6249L44.2869 43.6505H43.6982Z" fill="#3E9AFC"/>
<path d="M43.1094 43.6504L53.4507 31.2085V31.9166L43.698 43.6504H43.1094Z" fill="#3D99FB"/>
<path d="M42.5215 43.6505L53.451 30.5005V31.2086L43.1096 43.6505H42.5215Z" fill="#3D98FA"/>
<path d="M41.9326 43.6504L53.4508 29.7922V30.5004L42.5212 43.6504H41.9326Z" fill="#3D97FA"/>
<path d="M41.3438 43.6505L53.4505 29.0842V29.7924L41.9324 43.6505H41.3438Z" fill="#3C96F9"/>
<path d="M40.7549 43.6504L53.4503 28.376V29.0841L41.3435 43.6504H40.7549Z" fill="#3C95F8"/>
<path d="M40.167 43.6505L53.4506 27.6685V28.3761L40.7552 43.6505H40.167Z" fill="#3B94F8"/>
<path d="M39.5781 43.6504L53.4503 26.9602V27.6683L40.1668 43.6504H39.5781Z" fill="#3B93F7"/>
<path d="M38.9902 43.6505L53.451 26.2522V26.9603L39.5789 43.6505H38.9902Z" fill="#3A92F6"/>
<path d="M38.4014 43.6504L53.4508 25.5439V26.2521L38.99 43.6504H38.4014Z" fill="#3A91F6"/>
<path d="M37.8125 43.6505L53.4501 24.8359V25.5441L38.4007 43.6505H37.8125Z" fill="#3990F5"/>
<path d="M37.2246 43.6504L53.4508 24.1277V24.8358L37.8132 43.6504H37.2246Z" fill="#398FF4"/>
<path d="M36.6357 43.6505L53.4506 23.4197V24.1278L37.2244 43.6505H36.6357Z" fill="#398EF4"/>
<path d="M36.0469 43.6504L53.4504 22.7119V23.4196L36.6355 43.6504H36.0469Z" fill="#388DF3"/>
<path d="M35.459 43.6505L53.4506 22.0039V22.712L36.0471 43.6505H35.459Z" fill="#388CF2"/>
<path d="M34.8701 43.6504L53.4504 21.2957V22.0038L35.4587 43.6504H34.8701Z" fill="#378BF1"/>
<path d="M34.2812 43.6505L53.4501 20.5876V21.2958L34.8699 43.6505H34.2812Z" fill="#378AF1"/>
<path d="M33.6934 43.6504L53.4509 19.8794V20.5875L34.282 43.6504H33.6934Z" fill="#3689F0"/>
<path d="M33.1045 43.6505L53.4502 19.1714V19.8795L33.6927 43.6505H33.1045Z" fill="#3688EF"/>
<path d="M32.5166 43.6504L53.4509 18.4631V19.1713L33.1052 43.6504H32.5166Z" fill="#3687EF"/>
<path d="M31.9277 43.6505L53.4507 17.7551V18.4633L32.5164 43.6505H31.9277Z" fill="#3586EE"/>
<path d="M31.3389 43.6504L53.4504 17.0474V17.755L31.9275 43.6504H31.3389Z" fill="#3585ED"/>
<path d="M30.751 43.6505L53.4507 16.3394V17.0475L31.3391 43.6505H30.751Z" fill="#3484ED"/>
<path d="M30.1621 43.6504L53.4505 15.6311V16.3392L30.7507 43.6504H30.1621Z" fill="#3483EC"/>
<path d="M29.5732 43.6505L53.4502 14.9231V15.6312L30.1619 43.6505H29.5732Z" fill="#3382EB"/>
<path d="M28.9854 43.6504L53.451 14.2148V14.923L29.574 43.6504H28.9854Z" fill="#3381EB"/>
<path d="M28.3965 43.6505L53.4022 13.5647H53.4503V14.2149L28.9846 43.6505H28.3965Z" fill="#3280EA"/>
<path d="M27.8086 43.6505L52.8143 13.5647H53.4029L28.3972 43.6505H27.8086Z" fill="#327FE9"/>
<path d="M27.2197 43.6505L52.2254 13.5647H52.814L27.8084 43.6505H27.2197Z" fill="#327EE9"/>
<path d="M26.6309 43.6505L51.637 13.5647H52.2252L27.2195 43.6505H26.6309Z" fill="#317DE8"/>
<path d="M26.043 43.6505L51.0487 13.5647H51.6373L26.6311 43.6505H26.043Z" fill="#317CE7"/>
<path d="M25.4541 43.6505L50.4598 13.5647H51.0484L26.0427 43.6505H25.4541Z" fill="#307AE7"/>
<path d="M24.8652 43.6505L49.8709 13.5647H50.4595L25.4539 43.6505H24.8652Z" fill="#3079E6"/>
<path d="M24.2773 43.6505L49.2835 13.5647H49.8717L24.866 43.6505H24.2773Z" fill="#2F78E5"/>
<path d="M23.6885 43.6505L48.6942 13.5647H49.2828L24.2766 43.6505H23.6885Z" fill="#2F77E5"/>
<path d="M23.3652 43.3317L48.1058 13.5647H48.6944L23.6887 43.6505H23.3652V43.3317Z" fill="#2F76E4"/>
<path d="M23.3652 42.6236L47.5172 13.5647H48.1058L23.3652 43.3317V42.6236Z" fill="#2E75E3"/>
<path d="M23.3652 41.9154L46.929 13.5647H47.5172L23.3652 42.6236V41.9154Z" fill="#2E74E3"/>
<path d="M23.3652 41.2073L46.3404 13.5647H46.929L23.3652 41.9154V41.2073Z" fill="#2D73E2"/>
<path d="M23.3652 40.4992L45.7517 13.5647H46.3404L23.3652 41.2073V40.4992Z" fill="#2D72E1"/>
<path d="M23.3652 39.791L45.1631 13.5647H45.7517L23.3652 40.4992V39.791Z" fill="#2C71E1"/>
<path d="M23.3652 39.0829L44.575 13.5647H45.1631L23.3652 39.791V39.0829Z" fill="#2C70E0"/>
<path d="M23.3652 38.3753L43.9863 13.5647H44.575L23.3652 39.0829V38.3753Z" fill="#2B6FDF"/>
<path d="M23.3652 37.6671L43.3977 13.5647H43.9863L23.3652 38.3753V37.6671Z" fill="#2B6EDF"/>
<path d="M23.3652 36.959L42.8091 13.5647H43.3977L23.3652 37.6671V36.959Z" fill="#2B6DDE"/>
<path d="M23.3652 36.2509L42.2209 13.5647H42.8091L23.3652 36.959V36.2509Z" fill="#2A6CDD"/>
<path d="M23.3652 35.5428L41.6323 13.5647H42.2209L23.3652 36.2509V35.5428Z" fill="#2A6BDD"/>
<path d="M23.3652 34.8346L41.0437 13.5647H41.6323L23.3652 35.5428V34.8346Z" fill="#296ADC"/>
<path d="M23.3652 34.1265L40.455 13.5647H41.0437L23.3652 34.8346V34.1265Z" fill="#2969DB"/>
<path d="M23.3652 33.4188L39.8669 13.5647H40.455L23.3652 34.1265V33.4188Z" fill="#2868DA"/>
<path d="M23.3652 32.7107L39.2782 13.5647H39.8669L23.3652 33.4188V32.7107Z" fill="#2867DA"/>
<path d="M23.3652 32.0026L38.6896 13.5647H39.2782L23.3652 32.7107V32.0026Z" fill="#2866D9"/>
<path d="M23.3652 31.2945L38.101 13.5647H38.6896L23.3652 32.0026V31.2945Z" fill="#2765D8"/>
<path d="M23.3652 30.5863L37.5128 13.5647H38.101L23.3652 31.2945V30.5863Z" fill="#2764D8"/>
<path d="M23.3652 29.8782L36.9242 13.5647H37.5128L23.3652 30.5863V29.8782Z" fill="#2663D7"/>
<path d="M23.3652 29.1701L36.3356 13.5647H36.9242L23.3652 29.8782V29.1701Z" fill="#2662D6"/>
<path d="M23.3652 28.462L35.7469 13.5647H36.3356L23.3652 29.1701V28.462Z" fill="#2561D6"/>
<path d="M23.3652 27.7543L35.1588 13.5647H35.7469L23.3652 28.462V27.7543Z" fill="#2560D5"/>
<path d="M23.3652 27.0462L34.5702 13.5647H35.1588L23.3652 27.7543V27.0462Z" fill="#245FD4"/>
<path d="M23.3652 26.338L33.9815 13.5647H34.5702L23.3652 27.0462V26.338Z" fill="#245ED4"/>
<path d="M23.3652 25.6299L33.3929 13.5647H33.9815L23.3652 26.338V25.6299Z" fill="#245DD3"/>
<path d="M23.3652 24.9218L32.8047 13.5647H33.3929L23.3652 25.6299V24.9218Z" fill="#235CD2"/>
<path d="M23.3652 24.2137L32.2161 13.5647H32.8047L23.3652 24.9218V24.2137Z" fill="#235BD2"/>
<path d="M23.3652 23.5055L31.6275 13.5647H32.2161L23.3652 24.2137V23.5055Z" fill="#225AD1"/>
<path d="M23.3652 22.7979L31.0389 13.5647H31.6275L23.3652 23.5055V22.7979Z" fill="#2259D0"/>
<path d="M23.3652 22.0898L30.4507 13.5647H31.0389L23.3652 22.7979V22.0898Z" fill="#2158D0"/>
<path d="M23.3652 21.3816L29.8621 13.5647H30.4507L23.3652 22.0898V21.3816Z" fill="#2157CF"/>
<path d="M29.8621 13.5647L23.3652 21.3816V13.5647H29.8621Z" fill="#2157CF"/>
</g>
<mask id="mask2_887_3409" style="mask-type:luminance" maskUnits="userSpaceOnUse" x="26" y="16" width="25" height="25">
<path d="M38.4081 40.7423C45.111 40.7423 50.5448 35.3085 50.5448 28.6056C50.5448 21.9028 45.111 16.469 38.4081 16.469C31.7052 16.469 26.2715 21.9028 26.2715 28.6056C26.2715 35.3085 31.7052 40.7423 38.4081 40.7423Z" fill="white"/>
</mask>
<g mask="url(#mask2_887_3409)">
<path d="M46.0527 41.6414L51.4442 35.1548V41.6414H46.0527Z" fill="#001CFF"/>
<path d="M45.874 41.6415L51.4438 34.9402V35.1549L46.0523 41.6415H45.874Z" fill="#001CFF"/>
<path d="M45.6963 41.6414L51.4444 34.7258V34.9401L45.8746 41.6414H45.6963Z" fill="#001DFF"/>
<path d="M45.5176 41.6415L51.444 34.5117V34.726L45.6959 41.6415H45.5176Z" fill="#011EFF"/>
<path d="M45.3389 41.6414L51.4436 34.2969V34.5116L45.5172 41.6414H45.3389Z" fill="#011FFF"/>
<path d="M45.1611 41.6416L51.4442 34.0828V34.297L45.3394 41.6416H45.1611Z" fill="#0220FF"/>
<path d="M44.9824 41.6414L51.4438 33.8679V34.0826L45.1607 41.6414H44.9824Z" fill="#0221FF"/>
<path d="M44.8047 41.6413L51.4444 33.6536V33.8678L44.983 41.6413H44.8047Z" fill="#0322FF"/>
<path d="M44.626 41.6415L51.4435 33.439V33.6537L44.8038 41.6415H44.626Z" fill="#0323FF"/>
<path d="M44.4482 41.6414L51.4441 33.2246V33.4389L44.6266 41.6414H44.4482Z" fill="#0424FF"/>
<path d="M44.2695 41.6415L51.4437 33.0105V33.2248L44.4478 41.6415H44.2695Z" fill="#0425FF"/>
<path d="M44.0918 41.6414L51.4443 32.7957V33.0104L44.2701 41.6414H44.0918Z" fill="#0426FF"/>
<path d="M43.9131 41.6415L51.4439 32.5815V32.7958L44.0914 41.6415H43.9131Z" fill="#0527FF"/>
<path d="M43.7344 41.6414L51.4435 32.3667V32.5814L43.9127 41.6414H43.7344Z" fill="#0528FF"/>
<path d="M43.5566 41.6413L51.4441 32.1523V32.3666L43.735 41.6413H43.5566Z" fill="#0629FF"/>
<path d="M43.3789 41.6415L51.4442 31.9377V32.1525L43.5568 41.6415H43.3789Z" fill="#062AFF"/>
<path d="M43.2002 41.6414L51.4438 31.7234V31.9376L43.3785 41.6414H43.2002Z" fill="#072BFF"/>
<path d="M43.0225 41.6415L51.4444 31.5093V31.7235L43.2008 41.6415H43.0225Z" fill="#072CFF"/>
<path d="M42.8438 41.6414L51.444 31.2944V31.5092L43.0221 41.6414H42.8438Z" fill="#072DFF"/>
<path d="M42.665 41.6415L51.4436 31.0803V31.2946L42.8434 41.6415H42.665Z" fill="#082EFF"/>
<path d="M42.4873 41.6414L51.4441 30.8655V31.0802L42.6656 41.6414H42.4873Z" fill="#082FFF"/>
<path d="M42.3086 41.6416L51.4437 30.6514V30.8656L42.4869 41.6416H42.3086Z" fill="#0930FF"/>
<path d="M42.1309 41.6414L51.4439 30.4365V30.6512L42.3087 41.6414H42.1309Z" fill="#0931FF"/>
<path d="M41.9521 41.6413L51.4435 30.2222V30.4364L42.1305 41.6413H41.9521Z" fill="#0A32FF"/>
<path d="M41.7744 41.6415L51.444 30.0081V30.2223L41.9527 41.6415H41.7744Z" fill="#0A33FF"/>
<path d="M41.5957 41.6414L51.4437 29.7932V30.0079L41.774 41.6414H41.5957Z" fill="#0B34FF"/>
<path d="M41.418 41.6415L51.4442 29.5791V29.7934L41.5963 41.6415H41.418Z" fill="#0B35FF"/>
<path d="M41.2393 41.6414L51.4438 29.3643V29.579L41.4176 41.6414H41.2393Z" fill="#0B36FF"/>
<path d="M41.0605 41.6416L51.4434 29.1501V29.3644L41.2389 41.6416H41.0605Z" fill="#0C37FF"/>
<path d="M40.8828 41.6414L51.4436 28.9353V29.15L41.0607 41.6414H40.8828Z" fill="#0C38FF"/>
<path d="M40.7051 41.6413L51.4441 28.7209V28.9352L40.8834 41.6413H40.7051Z" fill="#0D39FF"/>
<path d="M40.5264 41.6415L51.4437 28.5063V28.7211L40.7047 41.6415H40.5264Z" fill="#0D3AFF"/>
<path d="M40.3486 41.6414L51.4443 28.292V28.5062L40.5269 41.6414H40.3486Z" fill="#0E3BFF"/>
<path d="M40.1699 41.6415L51.4439 28.0779V28.2921L40.3482 41.6415H40.1699Z" fill="#0E3CFF"/>
<path d="M39.9912 41.6414L51.4435 27.863V28.0778L40.1695 41.6414H39.9912Z" fill="#0E3DFF"/>
<path d="M39.8135 41.6415L51.4441 27.6489V27.8632L39.9918 41.6415H39.8135Z" fill="#0F3EFF"/>
<path d="M39.6357 41.6414L51.4442 27.4341V27.6488L39.8136 41.6414H39.6357Z" fill="#0F3FFF"/>
<path d="M39.457 41.6413L51.4438 27.2197V27.434L39.6353 41.6413H39.457Z" fill="#1040FF"/>
<path d="M39.2783 41.6415L51.4434 27.0051V27.2199L39.4566 41.6415H39.2783Z" fill="#1041FF"/>
<path d="M39.1006 41.6414L51.444 26.7908V27.005L39.2789 41.6414H39.1006Z" fill="#1142FF"/>
<path d="M38.9219 41.6415L51.4436 26.5767V26.7909L39.1002 41.6415H38.9219Z" fill="#1143FF"/>
<path d="M38.7441 41.6414L51.4442 26.3618V26.5765L38.9225 41.6414H38.7441Z" fill="#1244FF"/>
<path d="M38.5654 41.6415L51.4438 26.1477V26.362L38.7437 41.6415H38.5654Z" fill="#1245FF"/>
<path d="M38.3877 41.6414L51.4439 25.9329V26.1476L38.5655 41.6414H38.3877Z" fill="#1246FF"/>
<path d="M38.209 41.6416L51.4435 25.7188V25.933L38.3873 41.6416H38.209Z" fill="#1347FF"/>
<path d="M38.0312 41.6414L51.4441 25.5039V25.7186L38.2096 41.6414H38.0312Z" fill="#1348FF"/>
<path d="M37.8525 41.6413L51.4437 25.2896V25.5038L38.0309 41.6413H37.8525Z" fill="#1449FF"/>
<path d="M37.6748 41.6415L51.4443 25.0754V25.2897L37.8531 41.6415H37.6748Z" fill="#144AFF"/>
<path d="M37.4961 41.6414L51.4439 24.8606V25.0753L37.6744 41.6414H37.4961Z" fill="#154BFF"/>
<path d="M37.3174 41.6415L51.4435 24.6465V24.8607L37.4957 41.6415H37.3174Z" fill="#154CFF"/>
<path d="M37.1396 41.6414L51.4441 24.4316V24.6464L37.318 41.6414H37.1396Z" fill="#164DFF"/>
<path d="M36.9619 41.6415L51.4442 24.2175V24.4318L37.1398 41.6415H36.9619Z" fill="#164EFF"/>
<path d="M36.7832 41.6414L51.4438 24.0027V24.2174L36.9615 41.6414H36.7832Z" fill="#164FFF"/>
<path d="M36.6055 41.6413L51.4444 23.7883V24.0026L36.7838 41.6413H36.6055Z" fill="#1750FF"/>
<path d="M36.4268 41.6415L51.444 23.5742V23.7885L36.6051 41.6415H36.4268Z" fill="#1751FF"/>
<path d="M36.248 41.6414L51.4436 23.3594V23.5741L36.4264 41.6414H36.248Z" fill="#1852FF"/>
<path d="M36.0703 41.6415L51.4442 23.1453V23.3595L36.2486 41.6415H36.0703Z" fill="#1853FF"/>
<path d="M35.8916 41.6414L51.4438 22.9304V23.1451L36.0699 41.6414H35.8916Z" fill="#1954FF"/>
<path d="M35.7139 41.6415L51.4439 22.7163V22.9306L35.8917 41.6415H35.7139Z" fill="#1955FF"/>
<path d="M35.5352 41.6414L51.4435 22.5015V22.7162L35.7135 41.6414H35.5352Z" fill="#1956FF"/>
<path d="M35.3574 41.6416L51.4441 22.2874V22.5016L35.5357 41.6416H35.3574Z" fill="#1A57FF"/>
<path d="M35.1787 41.6415L51.4437 22.073V22.2873L35.357 41.6415H35.1787Z" fill="#1A58FF"/>
<path d="M35.001 41.6413L51.4443 21.8582V22.0729L35.1793 41.6413H35.001Z" fill="#1B59FF"/>
<path d="M34.8223 41.6415L51.4439 21.644V21.8583L35.0006 41.6415H34.8223Z" fill="#1B5AFF"/>
<path d="M34.6436 41.6414L51.4435 21.4292V21.6439L34.8219 41.6414H34.6436Z" fill="#1C5BFF"/>
<path d="M34.4658 41.6415L51.4436 21.2151V21.4293L34.6437 41.6415H34.4658Z" fill="#1C5CFF"/>
<path d="M34.2881 41.6414L51.4442 21.0002V21.215L34.4664 41.6414H34.2881Z" fill="#1D5DFF"/>
<path d="M34.1094 41.6416L51.4438 20.7861V21.0004L34.2877 41.6416H34.1094Z" fill="#1D5EFF"/>
<path d="M33.9316 41.6414L51.4443 20.5713V20.786L34.11 41.6414H33.9316Z" fill="#1D5FFF"/>
<path d="M33.7529 41.6413L51.4439 20.3569V20.5712L33.9312 41.6413H33.7529Z" fill="#1E60FF"/>
<path d="M33.5742 41.6415L51.4436 20.1428V20.3571L33.7525 41.6415H33.5742Z" fill="#1E61FF"/>
<path d="M33.3965 41.6414L51.4441 19.928V20.1427L33.5748 41.6414H33.3965Z" fill="#1F62FF"/>
<path d="M33.2188 41.6415L51.4442 19.7139V19.9281L33.3966 41.6415H33.2188Z" fill="#1F63FF"/>
<path d="M33.04 41.6414L51.4439 19.499V19.7137L33.2184 41.6414H33.04Z" fill="#2064FF"/>
<path d="M32.8613 41.6415L51.4435 19.2849V19.4992L33.0396 41.6415H32.8613Z" fill="#2065FF"/>
<path d="M32.6836 41.6414L51.444 19.0701V19.2848L32.8619 41.6414H32.6836Z" fill="#2066FF"/>
<path d="M32.5049 41.6413L51.4436 18.8557V19.07L32.6832 41.6413H32.5049Z" fill="#2167FF"/>
<path d="M32.3271 41.6415L51.4442 18.6416V18.8559L32.5055 41.6415H32.3271Z" fill="#2168FF"/>
<path d="M32.1484 41.6414L51.4438 18.4268V18.6415L32.3268 41.6414H32.1484Z" fill="#2269FF"/>
<path d="M31.9707 41.6415L51.4439 18.2126V18.4269L32.1486 41.6415H31.9707Z" fill="#226AFF"/>
<path d="M31.792 41.6414L51.4435 17.9978V18.2125L31.9703 41.6414H31.792Z" fill="#236BFF"/>
<path d="M31.6143 41.6415L51.4441 17.7837V17.9979L31.7926 41.6415H31.6143Z" fill="#236CFF"/>
<path d="M31.4355 41.6414L51.4437 17.5688V17.7836L31.6139 41.6414H31.4355Z" fill="#246DFF"/>
<path d="M31.2578 41.6416L51.4443 17.3547V17.569L31.4361 41.6416H31.2578Z" fill="#246EFF"/>
<path d="M31.0791 41.6415L51.4439 17.1404V17.3546L31.2574 41.6415H31.0791Z" fill="#246FFF"/>
<path d="M30.9004 41.6413L51.4435 16.9255V17.1403L31.0787 41.6413H30.9004Z" fill="#2570FF"/>
<path d="M30.7227 41.6415L51.4436 16.7114V16.9257L30.9005 41.6415H30.7227Z" fill="#2571FF"/>
<path d="M30.5449 41.6414L51.4442 16.4966V16.7113L30.7232 41.6414H30.5449Z" fill="#2672FF"/>
<path d="M30.3662 41.6415L51.4438 16.2825V16.4967L30.5445 41.6415H30.3662Z" fill="#2673FF"/>
<path d="M30.1875 41.6414L51.4434 16.0676V16.2824L30.3658 41.6414H30.1875Z" fill="#2774FF"/>
<path d="M30.0098 41.6415L51.444 15.8535V16.0678L30.1881 41.6415H30.0098Z" fill="#2775FF"/>
<path d="M29.8311 41.6415L51.4436 15.6392V15.8534L30.0094 41.6415H29.8311Z" fill="#2876FF"/>
<path d="M29.6533 41.6414L51.3228 15.5701H51.4442V15.6392L29.8316 41.6414H29.6533Z" fill="#2877FF"/>
<path d="M29.4746 41.6414L51.1446 15.5701H51.3224L29.6529 41.6414H29.4746Z" fill="#2878FF"/>
<path d="M29.2969 41.6414L50.9664 15.5701H51.1447L29.4747 41.6414H29.2969Z" fill="#2979FF"/>
<path d="M29.1182 41.6414L50.7877 15.5701H50.966L29.2965 41.6414H29.1182Z" fill="#297AFF"/>
<path d="M28.9404 41.6414L50.6099 15.5701H50.7883L29.1187 41.6414H28.9404Z" fill="#2A7BFF"/>
<path d="M28.7617 41.6414L50.4312 15.5701H50.6095L28.94 41.6414H28.7617Z" fill="#2A7CFF"/>
<path d="M28.584 41.6414L50.2535 15.5701H50.4318L28.7623 41.6414H28.584Z" fill="#2B7DFF"/>
<path d="M28.4053 41.6414L50.0748 15.5701H50.2531L28.5836 41.6414H28.4053Z" fill="#2B7EFF"/>
<path d="M28.2266 41.6414L49.8965 15.5701H50.0744L28.4049 41.6414H28.2266Z" fill="#2B7FFF"/>
<path d="M28.0488 41.6414L49.7183 15.5701H49.8966L28.2267 41.6414H28.0488Z" fill="#2C80FF"/>
<path d="M27.8711 41.6414L49.5406 15.5701H49.7189L28.0494 41.6414H27.8711Z" fill="#2C81FF"/>
<path d="M27.6924 41.6414L49.3619 15.5701H49.5402L27.8707 41.6414H27.6924Z" fill="#2D82FF"/>
<path d="M27.5146 41.6414L49.1842 15.5701H49.3625L27.693 41.6414H27.5146Z" fill="#2D84FF"/>
<path d="M27.3359 41.6414L49.0054 15.5701H49.1838L27.5143 41.6414H27.3359Z" fill="#2E85FF"/>
<path d="M27.1572 41.6414L48.8267 15.5701H49.005L27.3355 41.6414H27.1572Z" fill="#2E86FF"/>
<path d="M26.9795 41.6414L48.6495 15.5701H48.8273L27.1578 41.6414H26.9795Z" fill="#2F87FF"/>
<path d="M26.8018 41.6414L48.4713 15.5701H48.6496L26.9796 41.6414H26.8018Z" fill="#2F88FF"/>
<path d="M26.623 41.6414L48.2926 15.5701H48.4709L26.8014 41.6414H26.623Z" fill="#2F89FF"/>
<path d="M26.4443 41.6414L48.1138 15.5701H48.2922L26.6226 41.6414H26.4443Z" fill="#308AFF"/>
<path d="M26.2666 41.6414L47.9361 15.5701H48.1144L26.4449 41.6414H26.2666Z" fill="#308BFF"/>
<path d="M26.0879 41.6414L47.7574 15.5701H47.9357L26.2662 41.6414H26.0879Z" fill="#318CFF"/>
<path d="M25.9102 41.6414L47.5797 15.5701H47.758L26.0885 41.6414H25.9102Z" fill="#318DFF"/>
<path d="M25.7314 41.6414L47.4014 15.5701H47.5793L25.9098 41.6414H25.7314Z" fill="#328EFF"/>
<path d="M25.5537 41.6414L47.2232 15.5701H47.4015L25.7316 41.6414H25.5537Z" fill="#328FFF"/>
<path d="M25.376 41.6414L47.0455 15.5701H47.2238L25.5543 41.6414H25.376Z" fill="#3290FF"/>
<path d="M25.3721 41.4309L46.8665 15.5701H47.0448L25.3753 41.6414H25.3721V41.4309Z" fill="#3391FF"/>
<path d="M25.3721 41.2162L46.6882 15.5701H46.8665L25.3721 41.4309V41.2162Z" fill="#3392FF"/>
<path d="M25.3721 41.0019L46.5099 15.5701H46.6882L25.3721 41.2162V41.0019Z" fill="#3493FF"/>
<path d="M25.3721 40.7872L46.3316 15.5701H46.5099L25.3721 41.0019V40.7872Z" fill="#3494FF"/>
<path d="M25.3721 40.573L46.1533 15.5701H46.3316L25.3721 40.7872V40.573Z" fill="#3595FF"/>
<path d="M25.3721 40.3587L45.9754 15.5701H46.1533L25.3721 40.573V40.3587Z" fill="#3596FF"/>
<path d="M25.3721 40.144L45.7971 15.5701H45.9754L25.3721 40.3587V40.144Z" fill="#3697FF"/>
<path d="M25.3721 39.9297L45.6188 15.5701H45.7971L25.3721 40.144V39.9297Z" fill="#3698FF"/>
<path d="M25.3721 39.715L45.4405 15.5701H45.6188L25.3721 39.9297V39.715Z" fill="#3699FF"/>
<path d="M25.3721 39.5007L45.2622 15.5701H45.4405L25.3721 39.715V39.5007Z" fill="#379AFF"/>
<path d="M25.3721 39.286L45.0838 15.5701H45.2622L25.3721 39.5007V39.286Z" fill="#379BFF"/>
<path d="M25.3721 39.0717L44.9055 15.5701H45.0838L25.3721 39.286V39.0717Z" fill="#389CFF"/>
<path d="M25.3721 38.857L44.7277 15.5701H44.9055L25.3721 39.0717V38.857Z" fill="#389DFF"/>
<path d="M25.3721 38.6428L44.5494 15.5701H44.7277L25.3721 38.857V38.6428Z" fill="#399EFF"/>
<path d="M25.3721 38.4285L44.371 15.5701H44.5494L25.3721 38.6428V38.4285Z" fill="#399FFF"/>
<path d="M25.3721 38.2138L44.1927 15.5701H44.3711L25.3721 38.4285V38.2138Z" fill="#3AA0FF"/>
<path d="M25.3721 37.9995L44.0144 15.5701H44.1927L25.3721 38.2138V37.9995Z" fill="#3AA1FF"/>
<path d="M25.3721 37.7848L43.8361 15.5701H44.0144L25.3721 37.9995V37.7848Z" fill="#3AA2FF"/>
<path d="M25.3721 37.5705L43.6578 15.5701H43.8361L25.3721 37.7848V37.5705Z" fill="#3BA3FF"/>
<path d="M25.3721 37.3558L43.4799 15.5701H43.6578L25.3721 37.5705V37.3558Z" fill="#3BA4FF"/>
<path d="M25.3721 37.1416L43.3016 15.5701H43.4799L25.3721 37.3558V37.1416Z" fill="#3CA5FF"/>
<path d="M25.3721 36.9273L43.1233 15.5701H43.3016L25.3721 37.1416V36.9273Z" fill="#3CA6FF"/>
<path d="M25.3721 36.7126L42.945 15.5701H43.1233L25.3721 36.9273V36.7126Z" fill="#3DA7FF"/>
<path d="M25.3721 36.4983L42.7667 15.5701H42.945L25.3721 36.7126V36.4983Z" fill="#3DA8FF"/>
<path d="M25.3721 36.2836L42.5884 15.5701H42.7667L25.3721 36.4983V36.2836Z" fill="#3DA9FF"/>
<path d="M25.3721 36.0693L42.41 15.5701H42.5884L25.3721 36.2836V36.0693Z" fill="#3EAAFF"/>
<path d="M25.3721 35.8546L42.2322 15.5701H42.41L25.3721 36.0693V35.8546Z" fill="#3EABFF"/>
<path d="M25.3721 35.6403L42.0539 15.5701H42.2322L25.3721 35.8546V35.6403Z" fill="#3FACFF"/>
<path d="M25.3721 35.4261L41.8756 15.5701H42.0539L25.3721 35.6403V35.4261Z" fill="#3FADFF"/>
<path d="M25.3721 35.2114L41.6973 15.5701H41.8756L25.3721 35.4261V35.2114Z" fill="#40AEFF"/>
<path d="M25.3721 34.9971L41.5189 15.5701H41.6973L25.3721 35.2114V34.9971Z" fill="#40AFFF"/>
<path d="M25.3721 34.7824L41.3406 15.5701H41.5189L25.3721 34.9971V34.7824Z" fill="#41B0FF"/>
<path d="M25.3721 34.5681L41.1623 15.5701H41.3406L25.3721 34.7824V34.5681Z" fill="#41B1FF"/>
<path d="M25.3721 34.3534L40.9845 15.5701H41.1623L25.3721 34.5681V34.3534Z" fill="#41B2FF"/>
<path d="M25.3721 34.1391L40.8061 15.5701H40.9845L25.3721 34.3534V34.1391Z" fill="#42B3FF"/>
<path d="M25.3721 33.9249L40.6278 15.5701H40.8061L25.3721 34.1391V33.9249Z" fill="#42B4FF"/>
<path d="M25.3721 33.7101L40.4495 15.5701H40.6278L25.3721 33.9249V33.7101Z" fill="#43B5FF"/>
<path d="M25.3721 33.4959L40.2712 15.5701H40.4495L25.3721 33.7101V33.4959Z" fill="#43B6FF"/>
<path d="M25.3721 33.2812L40.0929 15.5701H40.2712L25.3721 33.4959V33.2812Z" fill="#44B7FF"/>
<path d="M25.3721 33.0669L39.9146 15.5701H40.0929L25.3721 33.2812V33.0669Z" fill="#44B8FF"/>
<path d="M25.3721 32.8522L39.7367 15.5701H39.9146L25.3721 33.0669V32.8522Z" fill="#44B9FF"/>
<path d="M25.3721 32.6379L39.5584 15.5701H39.7367L25.3721 32.8522V32.6379Z" fill="#45BAFF"/>
<path d="M25.3721 32.4237L39.3801 15.5701H39.5584L25.3721 32.6379V32.4237Z" fill="#45BBFF"/>
<path d="M25.3721 32.2089L39.2018 15.5701H39.3801L25.3721 32.4237V32.2089Z" fill="#46BCFF"/>
<path d="M25.3721 31.9947L39.0235 15.5701H39.2018L25.3721 32.2089V31.9947Z" fill="#46BDFF"/>
<path d="M25.3721 31.78L38.8451 15.5701H39.0235L25.3721 31.9947V31.78Z" fill="#47BEFF"/>
<path d="M25.3721 31.5657L38.6668 15.5701H38.8451L25.3721 31.78V31.5657Z" fill="#47BFFF"/>
<path d="M25.3721 31.351L38.4885 15.5701H38.6668L25.3721 31.5657V31.351Z" fill="#48C0FF"/>
<path d="M25.3721 31.1367L38.3107 15.5701H38.4885L25.3721 31.351V31.1367Z" fill="#48C1FF"/>
<path d="M25.3721 30.922L38.1323 15.5701H38.3107L25.3721 31.1367V30.922Z" fill="#48C2FF"/>
<path d="M25.3721 30.7077L37.954 15.5701H38.1323L25.3721 30.922V30.7077Z" fill="#49C3FF"/>
<path d="M25.3721 30.4935L37.7757 15.5701H37.954L25.3721 30.7077V30.4935Z" fill="#49C4FF"/>
<path d="M25.3721 30.2788L37.5974 15.5701H37.7757L25.3721 30.4935V30.2788Z" fill="#4AC5FF"/>
<path d="M25.3721 30.0645L37.4191 15.5701H37.5974L25.3721 30.2787V30.0645Z" fill="#4AC6FF"/>
<path d="M25.3721 29.8498L37.2408 15.5701H37.4191L25.3721 30.0645V29.8498Z" fill="#4BC7FF"/>
<path d="M25.3721 29.6355L37.0629 15.5701H37.2408L25.3721 29.8498V29.6355Z" fill="#4BC8FF"/>
<path d="M25.3721 29.4208L36.8846 15.5701H37.0629L25.3721 29.6355V29.4208Z" fill="#4CC9FF"/>
<path d="M25.3721 29.2065L36.7063 15.5701H36.8846L25.3721 29.4208V29.2065Z" fill="#4CCAFF"/>
<path d="M25.3721 28.9923L36.528 15.5701H36.7063L25.3721 29.2065V28.9923Z" fill="#4CCBFF"/>
<path d="M25.3721 28.7775L36.3497 15.5701H36.528L25.3721 28.9923V28.7775Z" fill="#4DCCFF"/>
<path d="M25.3721 28.5633L36.1714 15.5701H36.3497L25.3721 28.7775V28.5633Z" fill="#4DCDFF"/>
<path d="M25.3721 28.3486L35.993 15.5701H36.1713L25.3721 28.5633V28.3486Z" fill="#4ECEFF"/>
<path d="M25.3721 28.1343L35.8152 15.5701H35.993L25.3721 28.3486V28.1343Z" fill="#4ECFFF"/>
<path d="M25.3721 27.9196L35.6369 15.5701H35.8152L25.3721 28.1343V27.9196Z" fill="#4FD0FF"/>
<path d="M25.3721 27.7053L35.4586 15.5701H35.6369L25.3721 27.9196V27.7053Z" fill="#4FD1FF"/>
<path d="M25.3721 27.4911L35.2802 15.5701H35.4586L25.3721 27.7053V27.4911Z" fill="#4FD2FF"/>
<path d="M25.3721 27.2763L35.1019 15.5701H35.2802L25.3721 27.4911V27.2763Z" fill="#50D3FF"/>
<path d="M25.3721 27.0621L34.9236 15.5701H35.1019L25.3721 27.2763V27.0621Z" fill="#50D4FF"/>
<path d="M25.3721 26.8473L34.7453 15.5701H34.9236L25.3721 27.0621V26.8473Z" fill="#51D5FF"/>
<path d="M25.3721 26.6331L34.5674 15.5701H34.7453L25.3721 26.8473V26.6331Z" fill="#51D6FF"/>
<path d="M25.3721 26.4184L34.3891 15.5701H34.5674L25.3721 26.6331V26.4184Z" fill="#52D7FF"/>
<path d="M25.3721 26.2041L34.2108 15.5701H34.3891L25.3721 26.4184V26.2041Z" fill="#52D8FF"/>
<path d="M25.3721 25.9898L34.0325 15.5701H34.2108L25.3721 26.2041V25.9898Z" fill="#53D9FF"/>
<path d="M25.3721 25.7751L33.8542 15.5701H34.0325L25.3721 25.9898V25.7751Z" fill="#53DAFF"/>
<path d="M25.3721 25.5609L33.6759 15.5701H33.8542L25.3721 25.7751V25.5609Z" fill="#53DBFF"/>
<path d="M25.3721 25.3461L33.4976 15.5701H33.6759L25.3721 25.5609V25.3461Z" fill="#54DCFF"/>
<path d="M25.3721 25.1319L33.3197 15.5701H33.4976L25.3721 25.3461V25.1319Z" fill="#54DDFF"/>
<path d="M25.3721 24.9172L33.1414 15.5701H33.3197L25.3721 25.1319V24.9172Z" fill="#55DEFF"/>
<path d="M25.3721 24.7029L32.9631 15.5701H33.1414L25.3721 24.9172V24.7029Z" fill="#55DFFF"/>
<path d="M25.3721 24.4882L32.7848 15.5701H32.9631L25.3721 24.7029V24.4882Z" fill="#56E0FF"/>
<path d="M25.3721 24.2739L32.6064 15.5701H32.7848L25.3721 24.4882V24.2739Z" fill="#56E1FF"/>
<path d="M25.3721 24.0596L32.4281 15.5701H32.6064L25.3721 24.2739V24.0596Z" fill="#56E2FF"/>
<path d="M25.3721 23.8449L32.2498 15.5701H32.4281L25.3721 24.0596V23.8449Z" fill="#57E3FF"/>
<path d="M25.3721 23.6307L32.072 15.5701H32.2498L25.3721 23.8449V23.6307Z" fill="#57E4FF"/>
<path d="M25.3721 23.4159L31.8936 15.5701H32.072L25.3721 23.6307V23.4159Z" fill="#58E5FF"/>
<path d="M25.3721 23.2017L31.7153 15.5701H31.8937L25.3721 23.4159V23.2017Z" fill="#58E6FF"/>
<path d="M25.3721 22.987L31.537 15.5701H31.7153L25.3721 23.2017V22.987Z" fill="#59E7FF"/>
<path d="M25.3721 22.7727L31.3587 15.5701H31.537L25.3721 22.987V22.7727Z" fill="#59E8FF"/>
<path d="M25.3721 22.5584L31.1804 15.5701H31.3587L25.3721 22.7727V22.5584Z" fill="#5AE9FF"/>
<path d="M25.3721 22.3437L31.0021 15.5701H31.1804L25.3721 22.5584V22.3437Z" fill="#5AEAFF"/>
<path d="M31.0021 15.5701L25.3721 22.3437V15.5701H31.0021Z" fill="#5AEAFF"/>
</g>
<path fill-rule="evenodd" clip-rule="evenodd" d="M22.8498 39.6365L17.5451 42.9512L15.7891 40.1406L21.0937 36.8259L22.8498 39.6365Z" fill="#9B9B9B"/>
<path fill-rule="evenodd" clip-rule="evenodd" d="M8.88907 42.5441L14.6839 38.7808L14.0644 39.1832C15.6646 38.1441 17.8034 38.5988 18.8425 40.199C19.8816 41.7991 19.4269 43.9385 17.8268 44.9771L20.0725 43.5188L14.2782 47.2816L5.33584 53.089C3.73613 54.1281 1.59682 53.6734 0.557732 52.0733C-0.481351 50.4731 -0.0266936 48.3338 1.57348 47.2947L8.8886 42.5441H8.88907Z" fill="#9B9B9B"/>
<path fill-rule="evenodd" clip-rule="evenodd" d="M0.204102 51.36C0.28439 51.5756 0.387552 51.7862 0.514053 51.9887C1.52513 53.6071 3.65604 54.0987 5.27395 53.0876L4.64751 53.4792L17.9035 45.196C19.5219 44.1849 20.0139 42.054 19.0028 40.4361C18.8623 40.2111 18.6971 40.0033 18.5094 39.8162C19.0696 41.3216 18.5155 43.0627 17.1002 43.9473L3.84416 52.2306L4.4706 51.8389C3.08235 52.7062 1.31647 52.4677 0.204568 51.36H0.204102Z" fill="#878787"/>
<path fill-rule="evenodd" clip-rule="evenodd" d="M21.8587 38.4455L22.7246 39.831L19.3445 41.9428L18.8525 40.3234L21.8582 38.4451L21.8587 38.4455Z" fill="#878787"/>
<mask id="mask3_887_3409" style="mask-type:luminance" maskUnits="userSpaceOnUse" x="15" y="0" width="14" height="14">
<path d="M28.3276 6.60424C28.3276 2.99218 25.3994 0.0644531 21.7878 0.0644531C18.1762 0.0644531 15.248 2.99265 15.248 6.60424C15.248 10.2158 18.1762 13.144 21.7878 13.144C25.3994 13.144 28.3276 10.2158 28.3276 6.60424Z" fill="white"/>
</mask>
<g mask="url(#mask3_887_3409)">
<path d="M28.3281 0.0644531H15.248V13.1445H28.3281V0.0644531Z" fill="white"/>
<path d="M28.3746 3.11873V0.0178223H15.2012V13.1912H27.9171V13.2169C28.0786 13.0834 28.2369 12.9466 28.3918 12.8056H28.3741V3.11873H28.3746Z" fill="white"/>
<path d="M26.1362 3.11865C26.1362 2.2154 25.9533 1.35464 25.6218 0.571823C25.5392 0.376236 25.4473 0.185317 25.3464 0V0.0177382H15.2011V7.74551H14.9668C16.1511 8.92977 17.7867 9.6617 19.5932 9.6617C23.2066 9.6617 26.1362 6.73257 26.1362 3.11865Z" fill="white"/>
</g>
<path d="M32.2139 21.4794C33.4159 19.9479 35.4791 19.1819 38.4045 19.1819C40.3086 19.1819 41.9998 19.5595 43.4781 20.3148C44.9565 21.0701 45.6959 22.4952 45.6959 24.5906V32.5681C45.6959 33.1213 45.7061 33.7916 45.7276 34.5786C45.7593 35.1742 45.8499 35.5785 45.9988 35.7913C46.1477 36.0042 46.3708 36.1797 46.6691 36.3179V36.9882H41.723C41.5848 36.6372 41.4891 36.3076 41.4359 35.9991C41.3827 35.6905 41.3402 35.3395 41.3085 34.946C40.6806 35.6266 39.9576 36.2063 39.1388 36.6853C38.1599 37.2491 37.0541 37.5311 35.8204 37.5311C34.2459 37.5311 32.9458 37.0816 31.9194 36.183C30.8929 35.2844 30.3799 34.0105 30.3799 32.3618C30.3799 30.2239 31.2042 28.676 32.853 27.7191C33.7571 27.1981 35.0866 26.8256 36.8417 26.602L38.3891 26.4107C39.2294 26.3042 39.8301 26.1712 40.1919 26.012C40.8407 25.7357 41.1652 25.3048 41.1652 24.7195C41.1652 24.0071 40.9178 23.5147 40.4234 23.2435C39.9291 22.9723 39.2028 22.8364 38.2454 22.8364C37.1708 22.8364 36.4104 23.1025 35.9637 23.6342C35.6444 24.0277 35.4315 24.5594 35.3256 25.2297H30.9382C31.0339 23.7089 31.4591 22.4588 32.2144 21.4804L32.2139 21.4794ZM35.5963 33.701C36.0216 34.0521 36.543 34.2276 37.1601 34.2276C38.1385 34.2276 39.0398 33.9405 39.8642 33.3659C40.6886 32.7917 41.1166 31.7438 41.1484 30.223V28.5318C40.8613 28.7129 40.5714 28.859 40.2787 28.9706C39.986 29.0821 39.5846 29.1857 39.0739 29.2819L38.0526 29.4733C37.0952 29.6437 36.409 29.8509 35.9945 30.0955C35.2924 30.5105 34.9414 31.1542 34.9414 32.0262C34.9414 32.8029 35.1594 33.3612 35.5954 33.7015L35.5963 33.701Z" fill="white"/>
<g opacity="0.09">
<path fill-rule="evenodd" clip-rule="evenodd" d="M39.2846 29.8499C43.6398 26.447 48.4109 18.7407 48.4109 18.7407C48.4109 18.7407 52.5887 23.7578 52.4743 28.9038C52.3613 33.9885 49.0186 38.3811 46.3392 40.1927C43.6598 42.0043 38.8141 43.2633 35.2398 42.3689C29.7172 40.9867 26.7021 36.2847 26.7021 36.2847C26.7021 36.2847 34.9289 33.2529 39.2841 29.8504L39.2846 29.8499Z" fill="black"/>
</g>
</g>
<defs>
<clipPath id="clip0_887_3409">
<rect width="65.3488" height="55" fill="white"/>
</clipPath>
</defs>
</svg>
