<?xml version="1.0" encoding="utf-8"?>
<!-- Generator: Adobe Illustrator 27.5.0, SVG Export Plug-In . SVG Version: 6.00 Build 0)  -->
<svg version="1.1" xmlns="http://www.w3.org/2000/svg" xmlns:xlink="http://www.w3.org/1999/xlink" x="0px" y="0px"
	 viewBox="0 0 357 200" style="enable-background:new 0 0 357 200;" xml:space="preserve">
<style type="text/css">
	.st0{fill:none;stroke:#03A5ED;stroke-width:2;stroke-linecap:round;stroke-linejoin:round;stroke-miterlimit:10;}
	.st1{fill:#B5C0F1;}
	.st2{fill:#221363;}
	.st3{fill:#03A5ED;}
</style>
<g id="Layer_1">
	<g>
		<g>
			<polygon class="st0" points="113.36,28.17 30.2,172.21 196.52,172.21 			"/>
			<g>
				<polygon class="st1" points="114.23,78.21 114.23,125.78 153.72,146.6 				"/>
				<polygon class="st2" points="114.23,125.78 74.74,146.6 153.72,146.6 				"/>
				<polygon class="st3" points="114.23,78.21 74.74,146.6 114.3,125.78 				"/>
			</g>
			<circle class="st3" cx="193.96" cy="171.2" r="5.85"/>
			<circle class="st3" cx="113.47" cy="28.71" r="5.85"/>
			<circle class="st3" cx="30.35" cy="171.29" r="5.85"/>
		</g>
	</g>
</g>
<g id="Слой_1">
	<g>
		<path class="st2" d="M223.55,91.37L233.6,75.3h6.51l-13.25,20.8l13.57,21.14h-6.57l-10.31-16.36l-10.37,16.36h-6.54l13.59-21.14
			l-13.28-20.8h6.48L223.55,91.37z"/>
		<path class="st2" d="M263.41,100.27h-9.85v16.96H248V75.3h13.88c4.72,0,8.36,1.08,10.9,3.23c2.54,2.15,3.82,5.28,3.82,9.39
			c0,2.61-0.71,4.89-2.12,6.83c-1.41,1.94-3.38,3.39-5.89,4.35l9.85,17.8v0.35h-5.93L263.41,100.27z M253.56,95.75h8.5
			c2.75,0,4.93-0.71,6.55-2.13c1.62-1.42,2.43-3.33,2.43-5.71c0-2.6-0.77-4.59-2.32-5.97c-1.55-1.39-3.78-2.09-6.7-2.11h-8.47V95.75
			z"/>
		<path class="st2" d="M312.2,79.82h-13.48v37.41h-5.5V79.82h-13.45V75.3h32.43V79.82z"/>
	</g>
</g>
</svg>
