<svg xmlns="http://www.w3.org/2000/svg">
  <symbol id="arrow-long" viewBox="0 0 186 23"><path fill="currentColor" d="M173.894.44a1.5 1.5 0 0 1 2.121 0l9.546 9.545a1.5 1.5 0 0 1 0 2.121l-9.546 9.546a1.5 1.5 0 1 1-2.121-2.12l6.985-6.986H1.5a1.5 1.5 0 0 1 0-3h179.379l-6.985-6.986a1.5 1.5 0 0 1 0-2.12"/></symbol>
  <symbol id="clog" viewBox="0 0 56 51"><path fill="#03CFE5" d="m55.51 24-6.85-1.27a.6.6 0 0 1-.41-.35l-2.1-4.9a.58.58 0 0 1 .03-.53l3.99-5.82c.1-.14.08-.35-.04-.47l-4.99-4.99a.38.38 0 0 0-.47-.04l-5.92 4.06c-.14.1-.38.11-.53.04l-4.75-1.94a.57.57 0 0 1-.35-.4L31.8.3c-.03-.17-.2-.3-.37-.3h-7.05c-.17 0-.33.14-.37.3l-1.32 7.09c-.03.17-.19.35-.35.4l-4.75 1.94c-.15.08-.39.06-.53-.04l-5.92-4.06a.38.38 0 0 0-.47.04l-4.99 4.99c-.12.12-.14.33-.04.47l3.99 5.82c.1.14.11.38.03.53l-2.1 4.9a.6.6 0 0 1-.41.35L.3 24c-.17.03-.3.2-.3.37v7.05c0 .17.14.34.3.37l6.68 1.24c.17.03.35.19.4.35l2.09 5.21c.07.15.06.39-.04.53l-3.8 5.53c-.1.14-.08.35.04.47l4.99 4.99c.12.12.33.14.47.04l5.43-3.73c.14-.1.37-.1.52-.02l2.4 1.28c.15.08.33.01.39-.15l4.94-11.94c.07-.16 0-.36-.15-.45l-.6-.37c-.11-.07-.26-.18-.38-.29a7.797 7.797 0 0 1 4.2-14.37c4.31 0 7.8 3.49 7.8 7.8 0 2.76-1.43 5.18-3.6 6.57-.12.11-.27.22-.38.29l-.6.37c-.14.09-.21.29-.15.45l4.94 11.94c.07.16.24.22.39.15l2.4-1.28a.51.51 0 0 1 .52.02l5.43 3.73c.14.1.35.08.47-.04l4.99-4.99c.12-.12.14-.33.04-.47l-3.8-5.53a.59.59 0 0 1-.04-.53l2.09-5.21c.05-.16.23-.32.4-.35l6.68-1.24c.17-.03.3-.2.3-.37v-7.05c0-.17-.14-.33-.3-.37"/></symbol>
  <symbol id="ethereum" viewBox="0 0 37 60"><path fill="#010101" stroke="#1717B0" stroke-linecap="round" stroke-linejoin="round" stroke-width=".5" d="m.25 30.24 18.08 10.69zm36.16 0L18.33 40.93z"/><path fill="#CFC5FB" stroke="#1717B0" stroke-linecap="round" stroke-linejoin="round" stroke-width=".5" d="M5.21 22.03.25 30.24l18.08-8.21V.25z"/><path fill="#81A8F8" stroke="#1717B0" stroke-linecap="round" stroke-linejoin="round" stroke-width=".5" d="M18.33 22.03.25 30.24l18.08 10.69z"/><path fill="#A6FCF6" stroke="#1717B0" stroke-linecap="round" stroke-linejoin="round" stroke-width=".5" d="M31.46 22.03 18.33.25v21.78l18.08 8.21z"/><path fill="#CEB0FA" stroke="#1717B0" stroke-linecap="round" stroke-linejoin="round" stroke-width=".5" d="M18.33 22.03v18.9l18.08-10.69z"/><path fill="#81A8F8" stroke="#1717B0" stroke-linecap="round" stroke-linejoin="round" stroke-width=".5" d="m.25 33.67 18.08 25.48v-14.8z"/><path fill="#CEB0FA" stroke="#1717B0" stroke-linecap="round" stroke-linejoin="round" stroke-width=".5" d="M18.33 44.35v14.8l18.09-25.48z"/></symbol>
  <symbol id="gh" viewBox="0 0 43 41"><path fill="#fff" fill-rule="evenodd" d="M21.293 0C9.53 0 0 9.405 0 21.017c0 9.299 6.098 17.154 14.564 19.942 1.063.18 1.462-.443 1.462-1 0-.5-.025-2.157-.025-3.912-5.35.976-6.738-1.287-7.161-2.468-.241-.607-1.28-2.468-2.185-2.968-.748-.394-1.812-1.37-.025-1.394 1.678-.025 2.874 1.525 3.273 2.156 1.92 3.182 4.976 2.288 6.206 1.73.183-1.369.748-2.287 1.354-2.812-4.735-.525-9.687-2.337-9.687-10.381 0-2.288.823-4.174 2.185-5.65-.216-.525-.955-2.681.216-5.568 0 0 1.786-.55 5.857 2.157a20 20 0 0 1 5.326-.714 20 20 0 0 1 5.325.714c4.07-2.731 5.857-2.157 5.857-2.157 1.171 2.887.424 5.043.216 5.568 1.354 1.468 2.185 3.337 2.185 5.65 0 8.069-4.976 9.856-9.712 10.38.773.657 1.437 1.92 1.437 3.888 0 2.812-.025 5.067-.025 5.78 0 .55.4 1.206 1.463 1.001 8.407-2.788 14.505-10.668 14.505-19.942C42.611 9.405 33.082 0 21.318 0z" clip-rule="evenodd"/></symbol>
  <symbol id="global" viewBox="0 0 75 75"><path fill="#C6FE6A" stroke="#000" stroke-miterlimit="10" d="M37.58 63.613c13.785 0 24.96-11.175 24.96-24.96s-11.175-24.96-24.96-24.96-24.96 11.175-24.96 24.96 11.175 24.96 24.96 24.96Z"/><path fill="#C6FE6A" stroke="#000" stroke-miterlimit="10" d="M25.09 33.533c1.63-.17 5.13-1.21 6.01-3.04s2.41-4.35 7.43-2.48c2.05.77 3.62-4.73 2.03-6.03-1.34-1.1-2.49-.53-5.77-3.28s-4.01-.92-7.58-1.08c-.7-.03-1.45-.23-2.22-.53-5.07 2.96-9 7.66-10.97 13.28.53 1.11 1.11 2.17 1.73 3.03 2.86 4.02 5.76 2.89 7.96 6.87s-1.45 4.7 3.25 6.8 3.38 9.23 4.46 12.24 3.38.72 3.98-.79-.48-4.75 3.36-9.76c3.84-5 1.1-7.29-3.6-9.34s-5.76-.12-8.68-1.3-3.09-4.43-1.39-4.61zm27.08-15.13c-2.13.64-4.24 1.63-4.56 3.08-.67 3.03-.24 4.39 2.46 4.86s4.92-2.1 4.87.88c-.05 2.99-5.34 2.16-7.42 2.52-2.08.37-1.33 1.55-1.98 2.84s-4.06 4.81-.66 6.12c3.39 1.31 8.63.73 8.73 3.96s.06 5.2-.85 6.28-4.17 4.09-2.04 4.63c1.25.32 4.73-.26 7.74-1.24a24.85 24.85 0 0 0 4.09-13.68c0-8.34-4.09-15.72-10.37-20.25z"/><path stroke="#000" stroke-dasharray="4 4" stroke-linecap="round" stroke-linejoin="round" d="M54.06 16.283c10.38-8.86 18.11-13.88 19.66-12.33 2.44 2.43-11.17 20.06-30.39 39.38C24.1 62.653 6.54 76.343 4.1 73.913c-1.56-1.55 3.42-9.3 12.23-19.72"/><path fill="#000" d="m3.716 34.213-3.72.01.009 3.72 3.72-.01zM50.45 3.73l-3.719.008.009 3.72 3.72-.009zm23.693 54.141-3.72.01.01 3.72 3.72-.01zM54.162 0l-3.72.01.009 3.72 3.72-.01z"/><path stroke="#000" stroke-dasharray="4 4" stroke-linecap="round" stroke-linejoin="round" d="M20.48 16.283C10.1 7.423 2.37 2.403.82 3.953c-2.44 2.43 11.17 20.06 30.39 39.38 19.23 19.32 36.79 33.01 39.23 30.58 1.56-1.55-3.42-9.3-12.23-19.72"/></symbol>
  <symbol id="homeassistant" viewBox="0 0 52 51"><path fill="#00BDFF" d="M49.28 22.158 28.06.938c-1.25-1.25-3.3-1.25-4.56 0L2.28 22.158c-1.25 1.25-2.28 3.73-2.28 5.5v19.34a3.23 3.23 0 0 0 3.22 3.22h19.82l-8.73-8.73c-.45.15-.93.24-1.43.24-2.43 0-4.4-1.98-4.4-4.4s1.98-4.4 4.4-4.4 4.4 1.98 4.4 4.4c0 .5-.09.98-.24 1.43l6.8 6.8v-24.9a4.41 4.41 0 0 1-2.47-3.95c0-2.43 1.98-4.4 4.4-4.4s4.4 1.98 4.4 4.4c0 1.73-1.01 3.23-2.47 3.95v17.46l6.76-6.76c-.13-.42-.21-.87-.21-1.33 0-2.43 1.98-4.4 4.4-4.4s4.4 1.98 4.4 4.4-1.98 4.4-4.4 4.4c-.54 0-1.05-.1-1.52-.28l-9.43 9.43v6.63h20.62a3.23 3.23 0 0 0 3.22-3.22v-19.34c0-1.77-1.02-4.25-2.28-5.5z"/></symbol>
  <symbol id="keyhole" viewBox="0 0 53 51"><path fill="#3DA638" stroke="#1C511C" stroke-linecap="round" stroke-linejoin="round" stroke-width=".25" d="M29.355 34.805c3.74-1.39 5.69-4.06 5.69-8.66s-3.88-8.65-8.72-8.66c-5.11 0-8.97 4.04-8.9 8.66s2.26 7.69 5.79 8.8l-6.24 15.36c-8.35-2.16-16.85-12.02-16.85-24.15 0-14.37 11.55-26.03 26.03-26.03s26.21 11.65 26.21 26.03c0 12.32-8.42 22.04-16.95 24.2l-6.04-15.54z"/></symbol>
  <symbol id="no-cloud" viewBox="0 0 83 83"><path fill="#000" stroke="#000" stroke-linecap="round" stroke-linejoin="round" d="M54.29 36.8h-.07v-.39c0-5.04-4.1-9.15-9.15-9.15-2.03 0-3.95.65-5.55 1.88a9.3 9.3 0 0 0-2.65 3.22 7.213 7.213 0 0 0-10.66 6.33v.26c-3.16.25-5.65 2.9-5.65 6.12 0 3.39 2.76 6.14 6.14 6.14h27.58c3.98 0 7.21-3.23 7.21-7.21s-3.23-7.21-7.21-7.21z"/><path stroke="#000" stroke-linecap="round" stroke-linejoin="round" d="M41.03 74.36c18.662 0 33.79-15.128 33.79-33.79S59.692 6.78 41.03 6.78 7.24 21.908 7.24 40.57s15.13 33.79 33.79 33.79M.5 81.56 81.56.5"/></symbol>
  <symbol id="no-subscription" viewBox="0 0 83 83"><path stroke="#000" stroke-linecap="round" stroke-linejoin="round" d="M41.03 74.37c18.662 0 33.79-15.128 33.79-33.79S59.692 6.79 41.03 6.79 7.24 21.918 7.24 40.58s15.13 33.79 33.79 33.79"/><path fill="#000" d="M41.03 57.32c9.245 0 16.74-7.495 16.74-16.74s-7.495-16.74-16.74-16.74-16.74 7.495-16.74 16.74 7.495 16.74 16.74 16.74"/><path stroke="#000" stroke-dasharray="6 6" stroke-linecap="round" stroke-linejoin="round" d="M41.03 16.68c13.2 0 23.89 10.7 23.89 23.89s-10.7 23.89-23.89 23.89c-11.48 0-21.07-8.1-23.37-18.89"/><path fill="#000" d="m21.35 46.14-4.22-5.56-2.7 6.43z"/><path stroke="#000" stroke-linecap="round" stroke-linejoin="round" d="M.5 81.56 81.56.5"/><path fill="#fff" d="M43.44 43.69c-.09-.24-.24-.46-.44-.66-.21-.2-.48-.38-.81-.55s-.73-.33-1.2-.5c-.75-.27-1.43-.55-2.05-.84-.62-.3-1.14-.64-1.57-1.04-.44-.39-.78-.85-1.01-1.37-.24-.52-.36-1.15-.36-1.87 0-.63.11-1.21.32-1.73s.52-.98.91-1.36.87-.7 1.42-.93 1.18-.39 1.86-.46v-2.39h1.78v2.42c.67.09 1.27.27 1.8.55.53.27.99.63 1.37 1.07.37.45.66.97.86 1.56.2.6.31 1.27.31 2.01h-3.09c0-.48-.06-.89-.18-1.25s-.29-.65-.5-.88c-.19-.2-.43-.35-.7-.46-.27-.1-.57-.16-.9-.16q-.57 0-.99.15c-.28.1-.51.24-.68.42-.18.19-.31.4-.4.65s-.13.51-.13.8.04.55.13.77.23.44.44.63c.2.19.47.38.8.55s.75.35 1.25.53q1.125.42 2.04.87c.61.3 1.13.65 1.57 1.04.43.4.76.86 1 1.38.23.52.35 1.14.35 1.86 0 .65-.11 1.24-.32 1.76-.22.52-.52.97-.92 1.35s-.88.68-1.45.91c-.56.23-1.19.37-1.89.44v2.18h-1.77v-2.18a7.3 7.3 0 0 1-1.84-.42 4.8 4.8 0 0 1-1.57-.95c-.46-.42-.83-.94-1.1-1.57-.27-.64-.41-1.4-.41-2.29h3.11c0 .54.08.98.23 1.34.16.36.36.64.61.85s.53.37.85.46.65.13.98.13c.42 0 .79-.05 1.1-.16s.57-.26.77-.45c.18-.17.31-.38.41-.61s.14-.49.14-.77c0-.31-.05-.59-.14-.83z"/></symbol>
  <symbol id="no-tracking" viewBox="0 0 83 83"><path fill="#fff" stroke="#000" stroke-miterlimit="10" d="M66.95 41.57S55.67 52.58 41.76 52.58 16.57 41.57 16.57 41.57s11.28-11.01 25.19-11.01 25.19 11.01 25.19 11.01Z"/><path fill="#000" d="M41.84 50.69a9.15 9.15 0 1 0 0-18.3 9.15 9.15 0 0 0 0 18.3"/><path stroke="#000" stroke-miterlimit="10" d="M41.84 30.81v-6.34m17.8 11.94 3.41-5.34M51.5 32.33l2.13-5.97M23.7 36.41l-3.41-5.34m11.55 1.26-2.14-5.97"/><path stroke="#000" stroke-linecap="round" stroke-linejoin="round" d="M41.03 74.36c18.662 0 33.79-15.128 33.79-33.79S59.692 6.78 41.03 6.78 7.24 21.908 7.24 40.57s15.13 33.79 33.79 33.79M.5 81.55 81.56.5"/></symbol>
  <symbol id="open-source" viewBox="0 0 48 40"><g clip-path="url(#open-source-__clip0_2328_431)"><path fill="#C6FE6A" stroke="#000" stroke-miterlimit="10" d="M46.76 9.64H.5v29.05h46.26zm0 0H.5V.5h12.34l5.41 4.84h28.51z"/><path fill="#000" d="m9.13 22.03-3.85 2.04-.71.1v-.83l4.56-2.72zm-3.85 1.66 3.85 2.02v1.41l-4.56-2.73v-.83zm11.9-5.64L13.8 29.43h-.89l3.39-11.38zm7.88 5.93-3.96-1.99v-1.37l4.76 2.72v.84l-.8-.19zm-3.96 1.75 3.97-2.04.79-.15v.83L21.1 27.1v-1.38z"/><path stroke="#000" stroke-miterlimit="10" d="M3.73 4.8h9.14"/><path fill="#C6FE6A" stroke="#000" stroke-miterlimit="10" d="M39.12 18.85h-5.91a3.16 3.16 0 0 0-3.16 3.16v3.83A3.16 3.16 0 0 0 33.21 29h5.91a3.16 3.16 0 0 0 3.16-3.16v-3.83a3.16 3.16 0 0 0-3.16-3.16Z"/><path fill="#C6FE6A" d="m32.92 18.7-.06-.19c-.57-1.96.54-4.01 2.5-4.58s4.01.54 4.58 2.5l.06.19"/><path stroke="#000" stroke-miterlimit="10" d="m32.92 18.7-.06-.19c-.57-1.96.54-4.01 2.5-4.58s4.01.54 4.58 2.5l.06.19"/></g><defs><clipPath id="open-source-__clip0_2328_431"><path fill="#fff" d="M0 0h47.26v39.19H0z"/></clipPath></defs></symbol>
  <symbol id="polkadot" viewBox="0 0 58 55"><path fill="#FF0B91" d="M28.782 11.54c5.479 0 9.92-2.583 9.92-5.77S34.261 0 28.782 0c-5.478 0-9.92 2.583-9.92 5.77s4.442 5.77 9.92 5.77m0 43.46c5.479 0 9.92-2.583 9.92-5.77s-4.441-5.77-9.92-5.77c-5.478 0-9.92 2.583-9.92 5.77S23.304 55 28.782 55M14.954 19.515c2.74-4.745 2.723-9.883-.037-11.476S7.699 9 4.96 13.745c-2.74 4.744-2.723 9.882.037 11.476 2.76 1.593 7.218-.962 9.957-5.706m37.639 21.728c2.739-4.745 2.722-9.883-.037-11.477-2.76-1.593-7.218.962-9.957 5.706s-2.723 9.883.037 11.477c2.76 1.593 7.217-.962 9.957-5.706m-37.42 5.922c2.772-1.593 2.8-6.747.061-11.512-2.738-4.764-7.206-7.334-9.978-5.74-2.773 1.593-2.8 6.747-.062 11.511s7.206 7.335 9.979 5.741M52.56 25.216c2.76-1.594 2.776-6.732.036-11.476S45.4 6.44 42.64 8.034s-2.777 6.731-.037 11.476c2.739 4.744 7.197 7.3 9.956 5.706"/></symbol>
  <symbol id="privacy" viewBox="0 0 43 47"><g stroke="#000" stroke-miterlimit="10" clip-path="url(#privacy-__clip0_2328_427)"><path fill="#C6FE6A" d="M37.41 6.72a4.81 4.81 0 0 1 4.14 4.78v3.18c0 23.74-14.43 30.15-19.09 31.59-.93.29-1.93.29-2.86 0C14.93 44.82.5 38.42.5 14.68v-3.16c0-2.41 1.77-4.46 4.15-4.78 6.28-.83 10.91-3.4 13.61-5.33a4.84 4.84 0 0 1 5.58-.04c2.76 1.92 7.44 4.5 13.56 5.36z"/><path fill="#000" d="M17.51 33.1c-.66 0-1.29-.26-1.76-.73l-4.85-4.85c-.97-.97-.97-2.55 0-3.52s2.55-.97 3.52 0l2.85 2.85 10.16-13.17c.84-1.09 2.4-1.29 3.49-.45s1.29 2.4.45 3.49L19.48 32.13c-.44.57-1.1.92-1.81.96h-.16z"/></g><defs><clipPath id="privacy-__clip0_2328_427"><path fill="#fff" d="M0 0h42.05v46.99H0z"/></clipPath></defs></symbol>
  <symbol id="tasmota" viewBox="0 0 51 51"><path fill="#00BDFF" d="M25.13 0 0 24.65l2.63 2.69 22.5-22.07 22.5 22.07 2.63-2.69z"/><path fill="#00BDFF" d="M25.13 17.81c-8.44 0-15.3 6.87-15.3 15.3 0 6.47 4.04 12.02 9.73 14.25v-4.15c-3.55-1.97-5.97-5.76-5.97-10.1 0-5.72 4.19-10.48 9.66-11.38v28.48h3.77V21.73c5.47.9 9.66 5.66 9.66 11.38 0 4.34-2.41 8.13-5.97 10.1v4.15c5.69-2.23 9.73-7.78 9.73-14.25 0-8.44-6.87-15.3-15.3-15.3z"/></symbol>
  <symbol id="tg" viewBox="0 0 49 40"><path fill="#fff" d="M2.963 17.119s21.303-8.634 28.696-11.67C34.496 4.231 44.096.346 44.096.346s4.437-1.698 4.063 2.43c-.12 1.698-1.108 7.659-2.096 14.1-1.481 9.113-3.075 19.084-3.075 19.084s-.247 2.799-2.342 3.279c-2.095.487-5.545-1.699-6.158-2.186-.494-.362-9.234-5.835-12.437-8.509-.86-.73-1.848-2.186.12-3.892 4.437-4.01 9.727-8.996 12.93-12.157 1.482-1.462 2.956-4.86-3.203-.731-8.747 5.96-17.367 11.551-17.367 11.551s-1.968 1.22-5.665.118C5.17 22.34.86 20.878.86 20.878s-2.955-1.825 2.096-3.767z"/></symbol>
  <symbol id="x" viewBox="0 0 36 36"><path fill="#fff" d="M21.207 15.217 34.468 0h-3.146L19.81 13.212 10.61 0H0l13.91 19.983L0 35.94h3.146l12.162-13.952 9.715 13.952h10.61zm-4.304 4.938-1.413-1.99L4.275 2.335h4.828l9.053 12.78 1.412 1.992L31.33 33.719H26.5l-9.598-13.55z"/></symbol>
  <symbol id="youtube" viewBox="0 0 57 40"><path fill="#fff" d="M56.9 12.322C56.9 5.52 51.314 0 44.414 0h-31.93C5.584 0 0 5.52 0 12.322v14.665c0 6.81 5.593 12.322 12.484 12.322h31.931c6.9 0 12.484-5.52 12.484-12.322zM38.121 20.76l-14.317 6.99c-.558.299-2.47-.102-2.47-.731V12.668c0-.637 1.92-1.038 2.486-.723l13.703 7.36c.574.322 1.18 1.14.597 1.454"/></symbol>
</svg>
