<svg width="152" height="120" viewBox="0 0 152 120" fill="none" xmlns="http://www.w3.org/2000/svg">
<g clip-path="url(#clip0_961_3347)">
<path d="M76.0005 79.5107C83.5728 79.5107 89.7314 73.3609 89.7314 65.8049C89.7314 58.2489 83.5704 52.0967 76.0005 52.0967C68.4306 52.0967 62.2695 58.2464 62.2695 65.8049C62.2695 73.3634 68.4306 79.5107 76.0005 79.5107Z" fill="#2949D3"/>
<path d="M143.774 68.4353C143.263 68.4353 142.765 68.487 142.279 68.5781C140.448 64.0292 137.119 60.9876 133.315 60.9876C133.125 60.9876 132.937 60.995 132.752 61.0098V45.8115C132.752 38.9278 127.109 33.2928 120.213 33.2928H88.9068V32.9234C88.9068 30.7019 87.1031 28.9016 84.8776 28.9016H77.5544V16.1662C81.1247 15.2697 83.7722 12.0532 83.7722 8.21115C83.7722 3.67704 80.0884 0 75.546 0C71.0035 0 67.3197 3.67704 67.3197 8.21115C67.3197 12.0532 69.9672 15.2697 73.5375 16.1662V28.9016H66.2143C63.9888 28.9016 62.1851 30.7019 62.1851 32.9234V33.2928H30.8791C23.9828 33.2928 18.3399 38.9254 18.3399 45.8115V60.9999C14.6833 61.1797 11.5004 64.1696 9.72633 68.5757C9.24026 68.487 8.74185 68.4328 8.2311 68.4328C3.68867 68.4328 0.00488281 72.1098 0.00488281 76.644C0.00488281 81.1781 3.68867 84.8551 8.2311 84.8551C8.74185 84.8551 9.24026 84.8034 9.72633 84.7123C11.5004 89.1183 14.6833 92.1082 18.3399 92.288V107.476C18.3399 114.36 23.9828 119.995 30.8791 119.995H120.213C127.109 119.995 132.752 114.363 132.752 107.476V92.2781C132.939 92.2929 133.127 92.3003 133.315 92.3003C137.119 92.3003 140.448 89.2587 142.279 84.7098C142.765 84.7985 143.263 84.8526 143.774 84.8526C148.316 84.8526 152 81.1756 152 76.6415C152 72.1074 148.316 68.4303 143.774 68.4303V68.4353ZM75.9999 42.7994C88.7094 42.7994 99.0477 53.1188 99.0477 65.8049C99.0477 78.4911 88.7094 88.8104 75.9999 88.8104C63.2905 88.8104 52.9522 78.4911 52.9522 65.8049C52.9522 53.1188 63.2905 42.7994 75.9999 42.7994ZM112.495 93.4283C111.94 94.0785 98.648 109.365 74.5664 109.365C50.4849 109.365 39.584 93.6204 39.1473 92.9505C37.7458 90.798 38.3577 87.9189 40.5142 86.5175C42.6608 85.1236 45.5328 85.7245 46.9442 87.8573C47.3192 88.4115 55.4171 100.063 74.5664 100.063C93.7157 100.063 104.959 87.9041 105.409 87.3869C107.086 85.4511 110.023 85.227 111.972 86.8919C113.919 88.5592 114.158 91.4753 112.495 93.4258V93.4283Z" fill="#2949D3"/>
</g>
<defs>
<clipPath id="clip0_961_3347">
<rect width="152" height="120" fill="white"/>
</clipPath>
</defs>
</svg>
