<svg width="235" height="187" viewBox="0 0 235 187" fill="none" xmlns="http://www.w3.org/2000/svg">
<path d="M117.508 123.448C129.21 123.448 138.737 113.904 138.737 102.168C138.737 90.4321 129.216 80.888 117.508 80.888C105.801 80.888 96.2793 90.4321 96.2793 102.168C96.2793 113.904 105.801 123.448 117.508 123.448Z" fill="white"/>
<path d="M222.28 106.25C221.487 106.25 220.718 106.331 219.966 106.47C217.138 99.4074 211.989 94.6876 206.107 94.6876C205.812 94.6876 205.522 94.6992 205.239 94.7224V71.1288C205.239 60.4423 196.516 51.6926 185.849 51.6926H137.451V51.1185C137.451 47.6685 134.663 44.8737 131.221 44.8737H119.901V25.1012C125.419 23.7096 129.514 18.7172 129.514 12.7506C129.514 5.71141 123.822 0 116.794 0C109.766 0 104.074 5.70561 104.074 12.7506C104.074 18.7172 108.17 23.7096 113.688 25.1012V44.8737H102.368C98.9261 44.8737 96.1379 47.6685 96.1379 51.1185V51.6926H47.7393C37.0785 51.6926 28.3497 60.4365 28.3497 71.1288V94.705C22.6925 94.9833 17.7757 99.6278 15.0338 106.47C14.2819 106.331 13.5125 106.25 12.7201 106.25C5.69771 106.25 0 111.955 0 119C0 126.045 5.69192 131.751 12.7201 131.751C13.5125 131.751 14.2819 131.67 15.0338 131.53C17.7757 138.373 22.6983 143.011 28.3497 143.295V166.877C28.3497 177.564 37.0727 186.314 47.7393 186.314H185.849C196.51 186.314 205.239 177.57 205.239 166.877V143.284C205.528 143.307 205.817 143.319 206.107 143.319C211.989 143.319 217.138 138.593 219.966 131.536C220.718 131.675 221.487 131.757 222.28 131.757C229.302 131.757 235 126.051 235 119.006C235 111.961 229.308 106.255 222.28 106.255V106.25ZM117.506 66.4495C137.15 66.4495 153.138 82.4704 153.138 102.167C153.138 121.865 137.156 137.886 117.506 137.886C97.8559 137.886 81.8734 121.865 81.8734 102.167C81.8734 82.4704 97.8559 66.4495 117.506 66.4495ZM173.928 145.052C173.071 146.061 152.519 169.794 115.29 169.794C78.0615 169.794 61.2113 145.348 60.5345 144.31C58.3653 140.97 59.314 136.494 62.6458 134.325C65.9661 132.163 70.4086 133.096 72.5836 136.407C73.162 137.271 85.6796 155.356 115.29 155.356C144.901 155.356 162.278 136.482 162.972 135.676C165.569 132.673 170.104 132.325 173.118 134.905C176.126 137.491 176.496 142.02 173.928 145.047V145.052Z" fill="white"/>
</svg>
