<svg width="138" height="138" viewBox="0 0 138 138" fill="none" xmlns="http://www.w3.org/2000/svg">
<mask id="mask0_1009_1790" style="mask-type:luminance" maskUnits="userSpaceOnUse" x="0" y="0" width="138" height="138">
<path d="M69 138C107.108 138 138 107.108 138 69C138 30.8923 107.108 0 69 0C30.8923 0 0 30.8923 0 69C0 107.108 30.8923 138 69 138Z" fill="white"/>
</mask>
<g mask="url(#mask0_1009_1790)">
<path d="M69.0279 -56.8911H-128.866V189.781H69.0279V-56.8911Z" fill="#03A5ED"/>
<path d="M266.533 -56.8911H68.6387V189.781H266.533V-56.8911Z" fill="#B5C0F1"/>
<path d="M68.6388 69L-100.986 160.835L230.655 156.054L68.6388 69Z" fill="#42475F"/>
<path d="M68.6387 24.7871V69.4723L105.728 89.0262L68.6387 24.7871Z" fill="#C1CCFF"/>
<path d="M68.6387 24.7871L31.5498 89.0262L68.7041 69.4723L68.6387 24.7871Z" fill="#0FB3FC"/>
<path d="M68.7217 69.4724L31.6328 89.0262H105.81L68.7217 69.4724Z" fill="#535974"/>
</g>
</svg>
