<svg width="224" height="120" viewBox="0 0 224 120" fill="none" xmlns="http://www.w3.org/2000/svg">
<g clip-path="url(#clip0_966_3882)">
<path d="M69.1202 4.12268L4.43359 116.165H133.807L69.1202 4.12268Z" stroke="#03A5ED" stroke-width="1.55571" stroke-linecap="round" stroke-linejoin="round"/>
<path d="M69.7979 43.0466V80.0571L100.515 96.252L69.7979 43.0466Z" fill="#B5C0F1"/>
<path d="M69.7967 80.057L39.0791 96.252H69.7967H100.514L69.7967 80.057Z" fill="#221363"/>
<path d="M69.7967 43.0466L39.0791 96.252L69.8511 80.0571L69.7967 43.0466Z" fill="#03A5ED"/>
<path d="M131.816 119.938C134.329 119.938 136.367 117.901 136.367 115.387C136.367 112.874 134.329 110.837 131.816 110.837C129.303 110.837 127.266 112.874 127.266 115.387C127.266 117.901 129.303 119.938 131.816 119.938Z" fill="#03A5ED"/>
<path d="M69.2057 9.10093C71.7189 9.10093 73.7562 7.06361 73.7562 4.55046C73.7562 2.03731 71.7189 0 69.2057 0C66.6926 0 64.6553 2.03731 64.6553 4.55046C64.6553 7.06361 66.6926 9.10093 69.2057 9.10093Z" fill="#03A5ED"/>
<path d="M4.55046 120C7.06361 120 9.10093 117.963 9.10093 115.45C9.10093 112.936 7.06361 110.899 4.55046 110.899C2.03731 110.899 0 112.936 0 115.45C0 117.963 2.03731 120 4.55046 120Z" fill="#03A5ED"/>
<path d="M154.831 53.2911L162.649 40.7909H167.713L157.406 56.9703L167.962 73.4142H162.851L154.831 60.6885L146.765 73.4142H141.678L152.249 56.9703L141.919 40.7909H146.959L154.824 53.2911H154.831Z" fill="#221363"/>
<path d="M185.837 60.214H178.175V73.4064H173.851V40.7831H184.647C188.319 40.7831 191.15 41.6232 193.126 43.2956C195.102 44.968 196.097 47.4026 196.097 50.5996C196.097 52.6298 195.545 54.4034 194.448 55.9124C193.351 57.4214 191.819 58.5493 189.867 59.2961L197.529 73.1419V73.4142H192.916L185.837 60.2217V60.214ZM178.175 56.698H184.787C186.926 56.698 188.622 56.1458 189.882 55.0412C191.142 53.9366 191.772 52.4509 191.772 50.5996C191.772 48.5772 191.173 47.0293 189.968 45.9558C188.762 44.8746 187.027 44.3301 184.756 44.3146H178.168V56.7058L178.175 56.698Z" fill="#221363"/>
<path d="M223.788 44.3067H213.303V73.4063H209.025V44.3067H198.562V40.7908H223.788V44.3067Z" fill="#221363"/>
</g>
<defs>
<clipPath id="clip0_966_3882">
<rect width="223.789" height="120" fill="white"/>
</clipPath>
</defs>
</svg>
