<svg width="52" height="51" viewBox="0 0 52 51" fill="none" xmlns="http://www.w3.org/2000/svg">
<path d="M49.28 22.1575L28.06 0.9375C26.81 -0.3125 24.76 -0.3125 23.5 0.9375L2.28 22.1575C1.03 23.4075 0 25.8875 0 27.6575V46.9975C0 48.7675 1.45 50.2175 3.22 50.2175H23.04L14.31 41.4875C13.86 41.6375 13.38 41.7275 12.88 41.7275C10.45 41.7275 8.47998 39.7475 8.47998 37.3275C8.47998 34.9075 10.46 32.9275 12.88 32.9275C15.3 32.9275 17.28 34.9075 17.28 37.3275C17.28 37.8275 17.19 38.3075 17.04 38.7575L23.84 45.5575V20.6575C22.38 19.9375 21.37 18.4375 21.37 16.7075C21.37 14.2775 23.35 12.3075 25.77 12.3075C28.19 12.3075 30.17 14.2875 30.17 16.7075C30.17 18.4375 29.16 19.9375 27.7 20.6575V38.1175L34.46 31.3575C34.33 30.9375 34.25 30.4875 34.25 30.0275C34.25 27.5975 36.23 25.6275 38.65 25.6275C41.07 25.6275 43.05 27.6075 43.05 30.0275C43.05 32.4475 41.07 34.4275 38.65 34.4275C38.11 34.4275 37.6 34.3275 37.13 34.1475L27.7 43.5775V50.2075H48.32C50.09 50.2075 51.54 48.7575 51.54 46.9875V27.6475C51.54 25.8775 50.52 23.3975 49.26 22.1475L49.28 22.1575Z" fill="#00BDFF"/>
</svg>
