<svg width="83" height="83" viewBox="0 0 83 83" fill="none" xmlns="http://www.w3.org/2000/svg">
<path d="M41.0302 74.37C59.6919 74.37 74.8202 59.2417 74.8202 40.58C74.8202 21.9183 59.6919 6.78998 41.0302 6.78998C22.3685 6.78998 7.24023 21.9183 7.24023 40.58C7.24023 59.2417 22.3685 74.37 41.0302 74.37Z" stroke="black" stroke-linecap="round" stroke-linejoin="round"/>
<path d="M41.03 57.32C50.2753 57.32 57.77 49.8253 57.77 40.58C57.77 31.3348 50.2753 23.84 41.03 23.84C31.7848 23.84 24.29 31.3348 24.29 40.58C24.29 49.8253 31.7848 57.32 41.03 57.32Z" fill="black"/>
<path d="M41.0302 16.68C54.2302 16.68 64.9202 27.38 64.9202 40.57C64.9202 53.76 54.2202 64.46 41.0302 64.46C29.5502 64.46 19.9602 56.36 17.6602 45.57" stroke="black" stroke-linecap="round" stroke-linejoin="round" stroke-dasharray="6 6"/>
<path d="M21.3502 46.14L17.1302 40.58L14.4302 47.01L21.3502 46.14Z" fill="black"/>
<path d="M0.5 81.56L81.56 0.5" stroke="black" stroke-linecap="round" stroke-linejoin="round"/>
<path d="M43.4401 43.69C43.3501 43.45 43.2001 43.23 43.0001 43.03C42.7901 42.83 42.5201 42.65 42.1901 42.48C41.8601 42.31 41.4601 42.15 40.9901 41.98C40.2401 41.71 39.5601 41.43 38.9401 41.14C38.3201 40.84 37.8001 40.5 37.3701 40.1C36.9301 39.71 36.5901 39.25 36.3601 38.73C36.1201 38.21 36.0001 37.58 36.0001 36.86C36.0001 36.23 36.1101 35.65 36.3201 35.13C36.5301 34.61 36.8401 34.15 37.2301 33.77C37.6201 33.39 38.1001 33.07 38.6501 32.84C39.2001 32.61 39.8301 32.45 40.5101 32.38V29.99H42.2901V32.41C42.9601 32.5 43.5601 32.68 44.0901 32.96C44.6201 33.23 45.0801 33.59 45.4601 34.03C45.8301 34.48 46.1201 35 46.3201 35.59C46.5201 36.19 46.6301 36.86 46.6301 37.6H43.5401C43.5401 37.12 43.4801 36.71 43.3601 36.35C43.2401 35.99 43.0701 35.7 42.8601 35.47C42.6701 35.27 42.4301 35.12 42.1601 35.01C41.8901 34.91 41.5901 34.85 41.2601 34.85C40.8801 34.85 40.5501 34.9 40.2701 35C39.9901 35.1 39.7601 35.24 39.5901 35.42C39.4101 35.61 39.2801 35.82 39.1901 36.07C39.1001 36.32 39.0601 36.58 39.0601 36.87C39.0601 37.16 39.1001 37.42 39.1901 37.64C39.2801 37.86 39.4201 38.08 39.6301 38.27C39.8301 38.46 40.1001 38.65 40.4301 38.82C40.7601 38.99 41.1801 39.17 41.6801 39.35C42.4301 39.63 43.1101 39.92 43.7201 40.22C44.3301 40.52 44.8501 40.87 45.2901 41.26C45.7201 41.66 46.0501 42.12 46.2901 42.64C46.5201 43.16 46.6401 43.78 46.6401 44.5C46.6401 45.15 46.5301 45.74 46.3201 46.26C46.1001 46.78 45.8001 47.23 45.4001 47.61C45.0001 47.99 44.5201 48.29 43.9501 48.52C43.3901 48.75 42.7601 48.89 42.0601 48.96V51.14H40.2901V48.96C39.6601 48.9 39.0501 48.76 38.4501 48.54C37.8601 48.32 37.3301 48 36.8801 47.59C36.4201 47.17 36.0501 46.65 35.7801 46.02C35.5101 45.38 35.3701 44.62 35.3701 43.73H38.4801C38.4801 44.27 38.5601 44.71 38.7101 45.07C38.8701 45.43 39.0701 45.71 39.3201 45.92C39.5701 46.13 39.8501 46.29 40.1701 46.38C40.4901 46.47 40.8201 46.51 41.1501 46.51C41.5701 46.51 41.9401 46.46 42.2501 46.35C42.5601 46.24 42.8201 46.09 43.0201 45.9C43.2001 45.73 43.3301 45.52 43.4301 45.29C43.5301 45.06 43.5701 44.8 43.5701 44.52C43.5701 44.21 43.5201 43.93 43.4301 43.69H43.4401Z" fill="white"/>
</svg>
