<svg width="49" height="40" viewBox="0 0 49 40" fill="none" xmlns="http://www.w3.org/2000/svg">
<path d="M2.96272 17.1188C2.96272 17.1188 24.2661 8.48477 31.6594 5.44948C34.4956 4.23065 44.0956 0.346107 44.0956 0.346107C44.0956 0.346107 48.5332 -1.3524 48.1588 2.77591C48.0392 4.47441 47.0514 10.4349 46.0635 16.8751C44.5816 25.9888 42.9883 35.9596 42.9883 35.9596C42.9883 35.9596 42.7413 38.759 40.646 39.2387C38.5507 39.7262 35.1011 37.5402 34.4876 37.0527C33.9937 36.6909 25.254 31.218 22.0513 28.5444C21.1909 27.8131 20.203 26.3584 22.1708 24.652C26.6084 20.6417 31.8984 15.6562 35.1011 12.4951C36.5829 11.0325 38.0568 7.63552 31.8984 11.7638C23.1508 17.7243 14.5306 23.3152 14.5306 23.3152C14.5306 23.3152 12.5628 24.5341 8.86617 23.4332C5.16955 22.3402 0.859471 20.8776 0.859471 20.8776C0.859471 20.8776 -2.09623 19.0532 2.95476 17.111L2.96272 17.1188Z" fill="white"/>
</svg>
