<?xml version="1.0" encoding="utf-8"?>
<!-- Generator: Adobe Illustrator 27.5.0, SVG Export Plug-In . SVG Version: 6.00 Build 0)  -->
<svg version="1.1" id="Слой_1" xmlns="http://www.w3.org/2000/svg" xmlns:xlink="http://www.w3.org/1999/xlink" x="0px" y="0px"
	 viewBox="0 0 1622 736" style="enable-background:new 0 0 1622 736;" xml:space="preserve">
<style type="text/css">
	.st0{fill:#2949D3;}
</style>
<g>
	<path class="st0" d="M811,290.71c19.55,0,35.46-15.91,35.46-35.46c0-19.55-15.91-35.46-35.46-35.46
		c-19.55,0-35.46,15.91-35.46,35.46C775.54,274.8,791.45,290.71,811,290.71z"/>
	<path class="st0" d="M986.02,262.05c-1.32,0-2.61,0.14-3.86,0.37c-4.73-11.77-13.32-19.64-23.15-19.64c-0.49,0-0.97,0.02-1.45,0.06
		v-39.32c0-17.81-14.57-32.38-32.38-32.38h-80.84v-0.96c0-5.75-4.66-10.41-10.41-10.41h-18.91v-32.94
		c9.22-2.32,16.06-10.64,16.06-20.58c0-11.73-9.51-21.25-21.25-21.25c-11.73,0-21.25,9.51-21.25,21.25
		c0,9.94,6.84,18.26,16.06,20.58v32.94h-18.91c-5.75,0-10.41,4.66-10.41,10.41v0.96h-80.84c-17.81,0-32.38,14.57-32.38,32.38v39.29
		c-9.45,0.47-17.66,8.2-22.24,19.6c-1.25-0.23-2.54-0.37-3.86-0.37c-11.73,0-21.25,9.51-21.25,21.25c0,11.73,9.51,21.25,21.25,21.25
		c1.32,0,2.61-0.14,3.86-0.37c4.58,11.4,12.8,19.13,22.24,19.6v39.29c0,17.81,14.57,32.38,32.38,32.38h230.7
		c17.81,0,32.38-14.57,32.38-32.38v-39.32c0.48,0.04,0.97,0.06,1.45,0.06c9.82,0,18.42-7.87,23.15-19.64
		c1.25,0.23,2.54,0.37,3.86,0.37c11.73,0,21.25-9.51,21.25-21.25C1007.26,271.56,997.75,262.05,986.02,262.05z M811,195.73
		c32.82,0,59.52,26.7,59.52,59.52c0,32.82-26.7,59.52-59.52,59.52s-59.52-26.7-59.52-59.52C751.48,222.43,778.18,195.73,811,195.73z
		 M905.24,326.71c-1.43,1.69-35.76,41.23-97.94,41.23c-63.14,0-90.34-40.73-91.47-42.47c-3.62-5.57-2.04-13.02,3.53-16.64
		c5.54-3.61,12.96-2.05,16.6,3.47c0.97,1.44,21.88,31.58,71.33,31.58c50.69,0,78.49-31.45,79.65-32.79
		c4.34-5.01,11.92-5.59,16.95-1.28C908.92,314.12,909.53,321.67,905.24,326.71z"/>
</g>
<g>
	<path class="st0" d="M100.04,587.69H81.89v36.02H65.62v-93.66h32.94c10.81,0,19.15,2.43,25.02,7.28
		c5.88,4.85,8.81,11.87,8.81,21.05c0,6.27-1.51,11.51-4.54,15.74s-7.24,7.48-12.64,9.75l21.04,39v0.83h-17.43L100.04,587.69z
		 M81.89,574.57h16.73c5.49,0,9.78-1.38,12.87-4.15c3.09-2.77,4.63-6.55,4.63-11.35c0-5.02-1.43-8.9-4.28-11.64
		c-2.85-2.74-7.11-4.16-12.77-4.25H81.89V574.57z"/>
	<path class="st0" d="M222.58,579.33c0,9.18-1.59,17.23-4.76,24.16c-3.17,6.93-7.71,12.24-13.61,15.95
		c-5.9,3.71-12.68,5.56-20.36,5.56c-7.59,0-14.36-1.85-20.3-5.56c-5.94-3.71-10.53-8.99-13.77-15.86
		c-3.24-6.86-4.88-14.77-4.92-23.74v-5.28c0-9.13,1.62-17.2,4.86-24.19c3.24-6.99,7.8-12.34,13.7-16.05
		c5.9-3.71,12.66-5.56,20.3-5.56c7.63,0,14.4,1.83,20.3,5.5c5.9,3.67,10.45,8.94,13.67,15.82c3.22,6.88,4.85,14.89,4.89,24.03
		V579.33z M206.31,574.44c0-10.38-1.96-18.33-5.89-23.87c-3.92-5.53-9.49-8.3-16.69-8.3c-7.03,0-12.53,2.76-16.5,8.27
		c-3.97,5.51-5.99,13.31-6.08,23.38v5.4c0,10.29,2,18.25,6.01,23.87c4.01,5.62,9.57,8.43,16.69,8.43c7.21,0,12.75-2.74,16.63-8.23
		c3.88-5.49,5.82-13.51,5.82-24.06V574.44z"/>
	<path class="st0" d="M238.79,623.72v-93.66h32.1c10.59,0,18.66,2.12,24.19,6.37c5.53,4.25,8.3,10.57,8.3,18.98
		c0,4.29-1.16,8.15-3.47,11.58c-2.32,3.43-5.7,6.09-10.16,7.98c5.06,1.37,8.97,3.96,11.74,7.75c2.77,3.79,4.15,8.35,4.15,13.67
		c0,8.79-2.82,15.55-8.46,20.26c-5.64,4.72-13.71,7.08-24.22,7.08H238.79z M255.07,569.49h15.95c5.06,0,9.02-1.15,11.87-3.44
		c2.85-2.29,4.28-5.54,4.28-9.75c0-4.63-1.32-7.98-3.96-10.04s-6.74-3.09-12.32-3.09h-15.83V569.49z M255.07,581.45v29.27h18.08
		c5.1,0,9.09-1.26,11.97-3.8c2.87-2.53,4.31-6.05,4.31-10.55c0-9.73-4.98-14.71-14.92-14.92H255.07z"/>
	<path class="st0" d="M396.66,579.33c0,9.18-1.59,17.23-4.76,24.16c-3.17,6.93-7.71,12.24-13.61,15.95
		c-5.9,3.71-12.68,5.56-20.36,5.56c-7.59,0-14.36-1.85-20.3-5.56c-5.94-3.71-10.53-8.99-13.77-15.86
		c-3.24-6.86-4.88-14.77-4.92-23.74v-5.28c0-9.13,1.62-17.2,4.86-24.19c3.24-6.99,7.8-12.34,13.7-16.05
		c5.9-3.71,12.66-5.56,20.3-5.56c7.63,0,14.4,1.83,20.3,5.5c5.9,3.67,10.45,8.94,13.67,15.82c3.22,6.88,4.85,14.89,4.89,24.03
		V579.33z M380.38,574.44c0-10.38-1.96-18.33-5.89-23.87c-3.92-5.53-9.49-8.3-16.69-8.3c-7.03,0-12.53,2.76-16.5,8.27
		c-3.97,5.51-5.99,13.31-6.08,23.38v5.4c0,10.29,2,18.25,6.01,23.87c4.01,5.62,9.57,8.43,16.69,8.43c7.21,0,12.75-2.74,16.63-8.23
		c3.88-5.49,5.82-13.51,5.82-24.06V574.44z"/>
	<path class="st0" d="M487.17,623.72h-16.28l-41.75-66.45v66.45h-16.28v-93.66h16.28l41.88,66.71v-66.71h16.15V623.72z"/>
	<path class="st0" d="M581.15,579.33c0,9.18-1.59,17.23-4.76,24.16c-3.17,6.93-7.71,12.24-13.61,15.95
		c-5.9,3.71-12.68,5.56-20.36,5.56c-7.59,0-14.36-1.85-20.3-5.56c-5.94-3.71-10.53-8.99-13.77-15.86
		c-3.24-6.86-4.88-14.77-4.92-23.74v-5.28c0-9.13,1.62-17.2,4.86-24.19c3.24-6.99,7.8-12.34,13.7-16.05
		c5.9-3.71,12.66-5.56,20.3-5.56c7.63,0,14.4,1.83,20.3,5.5c5.9,3.67,10.45,8.94,13.67,15.82c3.22,6.88,4.85,14.89,4.89,24.03
		V579.33z M564.88,574.44c0-10.38-1.96-18.33-5.89-23.87c-3.92-5.53-9.49-8.3-16.69-8.3c-7.03,0-12.53,2.76-16.5,8.27
		c-3.97,5.51-5.99,13.31-6.08,23.38v5.4c0,10.29,2,18.25,6.01,23.87c4.01,5.62,9.57,8.43,16.69,8.43c7.21,0,12.75-2.74,16.63-8.23
		c3.88-5.49,5.82-13.51,5.82-24.06V574.44z"/>
	<path class="st0" d="M618.46,530.05l27.02,71.79l26.95-71.79h21.04v93.66h-16.21v-30.88l1.61-41.3l-27.66,72.18h-11.64l-27.6-72.11
		l1.61,41.24v30.88h-16.21v-93.66H618.46z"/>
	<path class="st0" d="M729.88,623.72h-16.21v-93.66h16.21V623.72z"/>
	<path class="st0" d="M821.36,593.23c-0.94,9.99-4.63,17.79-11.06,23.38S795.3,625,784.62,625c-7.46,0-14.03-1.77-19.72-5.31
		c-5.68-3.54-10.07-8.57-13.16-15.08c-3.09-6.52-4.7-14.09-4.82-22.71v-8.75c0-8.83,1.56-16.62,4.7-23.35
		c3.13-6.73,7.62-11.92,13.48-15.57c5.85-3.64,12.62-5.47,20.3-5.47c10.33,0,18.66,2.8,24.96,8.4s9.97,13.52,11,23.77h-16.21
		c-0.77-6.73-2.73-11.59-5.89-14.57c-3.15-2.98-7.77-4.47-13.86-4.47c-7.08,0-12.51,2.59-16.31,7.76
		c-3.8,5.17-5.74,12.76-5.82,22.76v8.31c0,10.13,1.81,17.86,5.44,23.18c3.62,5.32,8.93,7.98,15.92,7.98
		c6.39,0,11.19-1.44,14.41-4.31c3.22-2.87,5.25-7.66,6.11-14.35H821.36z"/>
	<path class="st0" d="M884.85,599.59c0-4.12-1.45-7.29-4.34-9.52c-2.89-2.23-8.12-4.48-15.66-6.75c-7.55-2.27-13.55-4.8-18.01-7.59
		c-8.54-5.36-12.8-12.35-12.8-20.97c0-7.55,3.08-13.77,9.23-18.66c6.15-4.89,14.14-7.33,23.96-7.33c6.52,0,12.33,1.2,17.43,3.6
		c5.1,2.4,9.11,5.82,12.03,10.26s4.38,9.36,4.38,14.76h-16.21c0-4.89-1.53-8.72-4.6-11.48c-3.07-2.77-7.45-4.15-13.15-4.15
		c-5.32,0-9.45,1.14-12.38,3.41c-2.94,2.27-4.41,5.45-4.41,9.52c0,3.43,1.59,6.29,4.76,8.59c3.17,2.29,8.41,4.53,15.7,6.69
		c7.29,2.17,13.14,4.63,17.56,7.4c4.42,2.77,7.65,5.94,9.71,9.52s3.09,7.77,3.09,12.58c0,7.81-2.99,14.01-8.97,18.62
		c-5.98,4.61-14.1,6.92-24.35,6.92c-6.78,0-13.01-1.25-18.69-3.76c-5.68-2.51-10.1-5.97-13.25-10.39
		c-3.15-4.42-4.73-9.56-4.73-15.44h16.28c0,5.32,1.76,9.44,5.28,12.35c3.52,2.92,8.55,4.38,15.12,4.38c5.66,0,9.92-1.15,12.77-3.44
		C883.42,606.4,884.85,603.37,884.85,599.59z"/>
	<path class="st0" d="M923.64,607.25c2.92,0,5.17,0.83,6.76,2.48c1.59,1.65,2.38,3.72,2.38,6.21c0,2.45-0.79,4.47-2.38,6.08
		c-1.59,1.61-3.84,2.41-6.76,2.41c-2.79,0-5-0.79-6.62-2.38c-1.63-1.59-2.45-3.62-2.45-6.11c0-2.49,0.79-4.56,2.38-6.21
		C918.54,608.08,920.77,607.25,923.64,607.25z"/>
	<path class="st0" d="M1026.5,623.72h-16.28l-41.75-66.45v66.45H952.2v-93.66h16.28l41.88,66.71v-66.71h16.15V623.72z"/>
	<path class="st0" d="M1100.48,581.9h-38.47v28.82h44.97v12.99h-61.24v-93.66h60.79v13.12h-44.52v25.86h38.47V581.9z"/>
	<path class="st0" d="M1189.19,543.18h-29.21v80.54h-16.15v-80.54h-28.95v-13.12h74.3V543.18z"/>
	<path class="st0" d="M1275.91,600.56l14.41-70.5h16.15l-21.61,93.66h-15.57l-17.82-68.38l-18.21,68.38h-15.63l-21.62-93.66h16.15
		l14.54,70.38l17.88-70.38h13.64L1275.91,600.56z"/>
	<path class="st0" d="M1393.12,579.33c0,9.18-1.59,17.23-4.76,24.16c-3.17,6.93-7.71,12.24-13.61,15.95
		c-5.9,3.71-12.68,5.56-20.36,5.56c-7.59,0-14.36-1.85-20.3-5.56c-5.94-3.71-10.53-8.99-13.77-15.86
		c-3.24-6.86-4.88-14.77-4.92-23.74v-5.28c0-9.13,1.62-17.2,4.86-24.19s7.8-12.34,13.7-16.05c5.9-3.71,12.66-5.56,20.3-5.56
		c7.63,0,14.4,1.83,20.29,5.5c5.9,3.67,10.46,8.94,13.67,15.82c3.22,6.88,4.85,14.89,4.89,24.03V579.33z M1376.84,574.44
		c0-10.38-1.96-18.33-5.89-23.87s-9.49-8.3-16.69-8.3c-7.03,0-12.54,2.76-16.5,8.27c-3.97,5.51-5.99,13.31-6.08,23.38v5.4
		c0,10.29,2,18.25,6.02,23.87c4.01,5.62,9.57,8.43,16.69,8.43c7.21,0,12.75-2.74,16.63-8.23c3.88-5.49,5.82-13.51,5.82-24.06V574.44
		z"/>
	<path class="st0" d="M1443.74,587.69h-18.14v36.02h-16.28v-93.66h32.94c10.81,0,19.15,2.43,25.03,7.28
		c5.88,4.85,8.81,11.87,8.81,21.05c0,6.27-1.51,11.51-4.54,15.74s-7.24,7.48-12.64,9.75l21.04,39v0.83h-17.43L1443.74,587.69z
		 M1425.6,574.57h16.72c5.49,0,9.78-1.38,12.87-4.15c3.09-2.77,4.63-6.55,4.63-11.35c0-5.02-1.43-8.9-4.28-11.64
		c-2.85-2.74-7.11-4.16-12.77-4.25h-17.18V574.57z"/>
	<path class="st0" d="M1518.43,583.25l-10.62,11.26v29.21h-16.28v-93.66h16.28v43.94l9.01-11.13l27.4-32.81h19.69l-34.8,41.49
		l36.8,52.17h-19.3L1518.43,583.25z"/>
</g>
</svg>
