<svg width="129" height="130" viewBox="0 0 129 130" fill="none" xmlns="http://www.w3.org/2000/svg">
<circle cx="68.9829" cy="69.6074" r="57.4277" fill="#C7FE6C"/>
<path d="M12.4304 125.204L21.4036 97.4929L48.8518 115.445L12.4304 125.204Z" fill="#C7FE6C"/>
<path d="M57.0315 46.0303L14.0139 2.74884H11.111L4.24926 8.55489L2.66577 12.7775L46.2111 56.5867L61.2541 60.8093L57.0315 46.0303Z" fill="white"/>
<path d="M111.189 27.3897C105.074 21.2829 97.708 16.5745 89.598 13.5887C81.4881 10.603 72.8272 9.41104 64.2122 10.0949C56.6171 10.6915 49.211 12.7618 42.4075 16.1901C41.8623 16.4661 41.4487 16.9469 41.2574 17.5273C41.066 18.1077 41.1126 18.7403 41.3868 19.2864C41.6611 19.8325 42.1407 20.2476 42.7204 20.4407C43.3002 20.6339 43.9329 20.5893 44.4799 20.3167C50.7493 17.1575 57.5741 15.2496 64.573 14.6996C73.1703 14.0058 81.8105 15.3406 89.7976 18.5965C97.7848 21.8523 104.896 26.9383 110.558 33.4449C116.22 39.9514 120.275 47.6966 122.397 56.0569C124.519 64.4172 124.648 73.1589 122.773 81.578C120.899 89.9972 117.073 97.8586 111.605 104.529C106.137 111.2 99.1792 116.493 91.2915 119.983C83.4037 123.472 74.8066 125.061 66.1925 124.621C57.5785 124.181 49.1882 121.724 41.6972 117.448C40.484 116.763 39.1396 116.342 37.7522 116.213C36.3648 116.084 34.9658 116.249 33.6469 116.699L16.0219 122.567L21.8882 104.949C22.3413 103.634 22.509 102.238 22.3803 100.853C22.2516 99.4682 21.8294 98.1267 21.1418 96.9178C15.9234 87.7586 13.4344 77.2976 13.9687 66.7697C14.3661 58.9362 16.4678 51.2837 20.1271 44.3461C20.2682 44.0777 20.355 43.784 20.3827 43.482C20.4103 43.18 20.3782 42.8755 20.2882 42.5859C20.1981 42.2963 20.0519 42.0273 19.8579 41.7942C19.6639 41.5611 19.4259 41.3685 19.1574 41.2274C18.889 41.0863 18.5954 40.9995 18.2934 40.9718C17.9914 40.9442 17.6869 40.9763 17.3973 41.0664C17.1077 41.1564 16.8387 41.3026 16.6056 41.4966C16.3725 41.6906 16.1799 41.9287 16.0388 42.1971C12.0681 49.727 9.78752 58.0323 9.35619 66.5341C8.7772 77.9485 11.4775 89.2902 17.1382 99.2191C17.4995 99.8622 17.7196 100.575 17.7835 101.31C17.8475 102.045 17.7539 102.785 17.5091 103.481L10.1826 125.486C10.0472 125.893 10.0277 126.329 10.1263 126.747C10.2248 127.164 10.4376 127.545 10.7407 127.848C11.0438 128.152 11.4253 128.364 11.8425 128.463C12.2597 128.561 12.696 128.542 13.1028 128.407L35.1149 121.078C35.8163 120.835 36.5612 120.743 37.3006 120.809C38.04 120.874 38.7572 121.095 39.405 121.458C48.4379 126.617 58.6635 129.323 69.066 129.307C70.0616 129.307 71.0591 129.283 72.0584 129.233C83.5902 128.639 94.7024 124.714 104.048 117.932C113.394 111.151 120.573 101.804 124.714 91.0256C128.856 80.2467 129.783 68.4981 127.382 57.2033C124.981 45.9085 119.357 35.5524 111.189 27.3897Z" fill="black"/>
<path d="M46.8631 60.0882L61.0752 63.9048C61.4669 64.0098 61.8793 64.0099 62.2709 63.905C62.6626 63.8001 63.0198 63.5939 63.3065 63.3072C63.5933 63.0205 63.7994 62.6633 63.9043 62.2716C64.0092 61.8799 64.0091 61.4675 63.9041 61.0759L60.0875 46.8615C59.759 45.6412 59.1159 44.5285 58.2226 43.6346L23.2687 8.68171L23.2669 8.67889L23.2641 8.67704L16.6958 2.10893C15.3432 0.758485 13.5099 0 11.5985 0C9.68707 0 7.85378 0.758485 6.5011 2.10893L2.10827 6.50054C0.758687 7.85399 -0.00021206 9.68741 4.45154e-08 11.5987C0.00021215 13.5101 0.758387 15.3433 2.10827 16.6965L43.6351 58.2222C44.5292 59.116 45.6423 59.7594 46.8631 60.0882ZM54.2861 46.2286C54.2161 46.2696 54.1485 46.3145 54.0836 46.3632L46.3636 54.0831C46.315 54.1481 46.2701 54.2157 46.229 54.2857L13.5768 21.6342L21.6338 13.577L54.2861 46.2286ZM58.4053 58.406L50.6533 56.3239L56.3236 50.6536L58.4053 58.406ZM5.37462 9.76576L9.76623 5.37415C10.2525 4.88896 10.9115 4.61648 11.5984 4.61648C12.2854 4.61648 12.9443 4.88896 13.4306 5.37415L18.3684 10.3119L10.3114 18.3691L5.37351 13.4312C4.88821 12.9447 4.61576 12.2855 4.61597 11.5983C4.61618 10.9111 4.88902 10.252 5.37462 9.76576Z" fill="black"/>
<path d="M106.865 74.7873H43.8113C43.1989 74.7873 42.6116 75.0306 42.1785 75.4636C41.7455 75.8967 41.5022 76.484 41.5022 77.0964C41.5022 77.7088 41.7455 78.2962 42.1785 78.7292C42.6116 79.1622 43.1989 79.4055 43.8113 79.4055H106.865C107.478 79.4055 108.065 79.1622 108.498 78.7292C108.931 78.2962 109.175 77.7088 109.175 77.0964C109.175 76.484 108.931 75.8967 108.498 75.4636C108.065 75.0306 107.478 74.7873 106.865 74.7873Z" fill="black"/>
<path d="M106.866 90.2103H61.6743C61.0619 90.2103 60.4746 90.4536 60.0416 90.8866C59.6085 91.3197 59.3652 91.907 59.3652 92.5194C59.3652 93.1319 59.6085 93.7192 60.0416 94.1522C60.4746 94.5853 61.0619 94.8286 61.6743 94.8286H106.866C107.478 94.8286 108.065 94.5853 108.498 94.1522C108.931 93.7192 109.175 93.1319 109.175 92.5194C109.175 91.907 108.931 91.3197 108.498 90.8866C108.065 90.4536 107.478 90.2103 106.866 90.2103Z" fill="black"/>
<path d="M45.5464 92.5198C45.5464 93.0044 45.6901 93.4782 45.9593 93.8812C46.2286 94.2842 46.6113 94.5983 47.059 94.7837C47.5068 94.9692 47.9995 95.0177 48.4748 94.9232C48.9502 94.8286 49.3868 94.5953 49.7295 94.2526C50.0722 93.9099 50.3056 93.4732 50.4001 92.9979C50.4947 92.5226 50.4461 92.0299 50.2607 91.5821C50.0752 91.1343 49.7611 90.7516 49.3581 90.4824C48.9551 90.2131 48.4814 90.0694 47.9967 90.0695C47.3469 90.0695 46.7236 90.3276 46.2641 90.7871C45.8045 91.2467 45.5464 91.8699 45.5464 92.5198Z" fill="black"/>
</svg>
