<svg width="53" height="40" viewBox="0 0 53 40" fill="none" xmlns="http://www.w3.org/2000/svg">
<path d="M44.2786 3.28692C40.8449 1.72996 37.2199 0.621212 33.4914 0C33.0214 0.817798 32.4876 1.91082 32.1132 2.79939C28.1537 2.21749 24.1224 2.21749 20.1629 2.79939C19.7406 1.84005 19.2626 0.91216 18.7448 0C15.0163 0.621212 11.3834 1.72996 7.94967 3.30265C1.14597 13.3207 -0.702342 23.0949 0.221814 32.7198C4.21321 35.6529 8.69059 37.8782 13.4548 39.3094C14.5223 37.8782 15.4704 36.3606 16.291 34.7722C14.7454 34.206 13.2476 33.4983 11.8295 32.6726C12.204 32.3974 12.5625 32.1143 12.9051 31.8391C21.2782 35.7472 30.9899 35.7472 39.371 31.8391C39.7215 32.13 40.096 32.4053 40.4625 32.6805C39.0364 33.514 37.5386 34.2217 35.993 34.7957C36.8057 36.3842 37.7537 37.8939 38.8292 39.3251C43.5934 37.9018 48.0708 35.6686 52.0622 32.7355C53.1377 21.5773 50.198 11.8895 44.2866 3.29478L44.2786 3.28692ZM17.4541 26.8065C14.8729 26.8065 12.7537 24.471 12.7537 21.6087C12.7537 18.7465 14.8251 16.3953 17.4541 16.3953C20.0832 16.3953 22.1785 18.7307 22.1546 21.593C22.1307 24.4632 20.0832 26.8065 17.4541 26.8065ZM34.814 26.8065C32.2327 26.8065 30.1135 24.471 30.1135 21.6087C30.1135 18.7465 32.1849 16.3953 34.814 16.3953C37.443 16.3953 39.5383 18.7307 39.5144 21.593C39.4825 24.4632 37.443 26.8065 34.814 26.8065Z" fill="white"/>
</svg>
