<svg xmlns="http://www.w3.org/2000/svg" xmlns:xlink="http://www.w3.org/1999/xlink" viewBox="0 0 103.17 208.42"><defs><style>.cls-1{fill:#010101;}.cls-1,.cls-2,.cls-3,.cls-4,.cls-5{stroke:#1717b0;stroke-width:0.25px;}.cls-1,.cls-12,.cls-13,.cls-14,.cls-17,.cls-18,.cls-19,.cls-2,.cls-20,.cls-3,.cls-4,.cls-5{stroke-linecap:round;stroke-linejoin:round;}.cls-2{fill:#cfc5fb;}.cls-3{fill:#81a8f8;}.cls-4{fill:#a6fcf6;}.cls-5{fill:#ceb0fa;}.cls-6{fill:#172026;}.cls-7{fill:#e30078;}.cls-8{fill:url(#Безымянный_градиент_13);}.cls-9{opacity:0.25;fill:url(#Безымянный_градиент_12);}.cls-10{opacity:0.33;fill:url(#Безымянный_градиент_11);}.cls-11{fill:url(#Безымянный_градиент_28);}.cls-12{fill:#221363;}.cls-12,.cls-13,.cls-14,.cls-17,.cls-18,.cls-19,.cls-20{stroke:#1d1d1b;stroke-width:0.5px;}.cls-13{fill:#2849d3;}.cls-14{fill:none;}.cls-15,.cls-19,.cls-21{fill:#fff;}.cls-16{fill:#1d1d1b;}.cls-17{fill:#f6df8c;}.cls-18{fill:#f9b233;}.cls-20{fill:#b5c0f1;}.cls-21{font-size:4.94px;font-family:Roboto-Light, Roboto;font-weight:300;letter-spacing:0.25em;}.cls-22{letter-spacing:0.2em;}</style><linearGradient id="Безымянный_градиент_13" x1="50.04" y1="-990.62" x2="79.52" y2="-990.62" gradientTransform="matrix(1, 0, 0, -1, -50.02, -946.82)" gradientUnits="userSpaceOnUse"><stop offset="0" stop-color="#499ea1"/><stop offset="0.69" stop-color="#3a7879"/></linearGradient><linearGradient id="Безымянный_градиент_12" x1="28.56" y1="53.44" x2="15.71" y2="42.66" gradientUnits="userSpaceOnUse"><stop offset="0" stop-color="#499ea1"/><stop offset="0.06" stop-color="#449396"/><stop offset="0.52" stop-color="#204546"/><stop offset="0.84" stop-color="#0a1414"/><stop offset="1" stop-color="#010101"/></linearGradient><linearGradient id="Безымянный_градиент_11" x1="4.68" y1="58.12" x2="10.08" y2="37.99" gradientUnits="userSpaceOnUse"><stop offset="0" stop-color="#499ea1" stop-opacity="0"/><stop offset="1" stop-color="#fff"/></linearGradient><linearGradient id="Безымянный_градиент_28" x1="50.43" y1="-986.93" x2="79.11" y2="-994.61" gradientTransform="matrix(1, 0, 0, -1, -50.02, -946.82)" gradientUnits="userSpaceOnUse"><stop offset="0" stop-color="#71c6cf"/><stop offset="0.31" stop-color="#6ec3cc"/><stop offset="0.57" stop-color="#67bac2"/><stop offset="0.8" stop-color="#59abb1"/><stop offset="1" stop-color="#48989b"/></linearGradient></defs><g id="Layer_2" data-name="Layer 2"><g id="pic"><polygon class="cls-1" points="28.48 79.71 28.48 79.71 28.48 79.71 47.56 90.98 47.56 90.98 47.56 90.98 28.48 79.71"/><polygon class="cls-1" points="66.64 79.71 47.56 90.98 47.56 90.98 47.56 90.98 47.56 90.98 66.64 79.71 66.64 79.71"/><polygon class="cls-2" points="33.71 71.04 28.48 79.71 28.48 79.71 47.56 71.04 47.56 71.04 47.56 71.04 47.56 48.05 33.71 71.04"/><polygon class="cls-3" points="47.56 71.04 28.48 79.71 47.56 90.98 47.56 90.98 47.56 71.04 47.56 71.04"/><polygon class="cls-4" points="61.41 71.04 47.56 48.05 47.56 48.05 47.56 71.04 47.56 71.04 66.64 79.71 66.64 79.71 61.41 71.04"/><polygon class="cls-5" points="47.56 71.04 47.56 90.98 66.64 79.71 47.56 71.04"/><polygon class="cls-3" points="28.48 83.33 47.56 110.21 47.56 94.6 28.48 83.33"/><polygon class="cls-5" points="47.56 94.6 47.56 110.21 66.65 83.33 47.56 94.6"/><path class="cls-6" d="M81.1,0A22.16,22.16,0,0,0,59,22.13a23.31,23.31,0,0,0,1.17,7.21,3.1,3.1,0,0,0,5.86-2,15.61,15.61,0,0,1-.88-5.68A16,16,0,1,1,82,38.06s-3.1.18-4.62.41l-1.76.29a.23.23,0,0,1-.29-.29l.53-2.58L78.7,22.72a3.06,3.06,0,0,0-6-1.29s-6.91,32.21-7,32.56a3.05,3.05,0,1,0,6,1.28c.06-.35,1-4.62,1-4.62a7.79,7.79,0,0,1,6.56-6.09c.7-.12,3.46-.29,3.46-.29A22.17,22.17,0,0,0,81.1,0Z"/><path class="cls-7" d="M87.66,50A4,4,0,1,0,86,57.87a4,4,0,0,0,4.78-3.13A4.08,4.08,0,0,0,87.66,50Z"/><path class="cls-8" d="M0,52.31l14.74,8.51,14.75-8.51v-17L14.76,26.77,0,35.29Z"/><path class="cls-9" d="M14.76,60.82l14.75-8.51v-17L14.76,43.8Z"/><polygon class="cls-10" points="0 35.28 14.76 43.8 14.76 60.82 0 52.31 0 35.28"/><path class="cls-11" d="M13.24,29,2.55,35.15v.57l10.69,6.17a2.57,2.57,0,0,1,3,0L27,35.72v-.57L16.27,29a2.57,2.57,0,0,1-3,0ZM28,37.42l-10.7,6.24a2.56,2.56,0,0,1-1.52,2.63V58.57l.5.28L27,52.68a2.56,2.56,0,0,1,1.51-2.63V37.71a2.43,2.43,0,0,1-.49-.29Zm-26.45.07a2.5,2.5,0,0,1-.5.29V50.12a2.56,2.56,0,0,1,1.52,2.63l10.69,6.17.49-.29V46.29a2.56,2.56,0,0,1-1.52-2.63L1.54,37.49Z"/><rect class="cls-12" x="24.07" y="132.84" width="49.77" height="68.27"/><path class="cls-13" d="M73,131.88s.41,4.9-1.64,4.9c-2.5,0-4.53-10.09-.41-10.09s2.88,8.08,2.88,8.08V200s1.23,8.07-2.88,8.07S68.87,198,71.37,198c2,0,1.64,4.9,1.64,4.9"/><line class="cls-14" x1="78.77" y1="131.19" x2="83.31" y2="131.19"/><circle class="cls-15" cx="83.27" cy="131.19" r="0.75"/><path class="cls-16" d="M83.27,132a.85.85,0,1,1,0-1.7.85.85,0,0,1,0,1.7Zm0-1.5a.65.65,0,1,0,0,1.3.65.65,0,1,0,0-1.3Z"/><path class="cls-17" d="M68.26,133.83h8.87v-5.35h-9.4S67.93,133.3,68.26,133.83Z"/><circle class="cls-18" cx="76.72" cy="131.16" r="3.29"/><line class="cls-14" x1="29.42" y1="131.6" x2="33.95" y2="131.6"/><circle class="cls-15" cx="33.91" cy="131.6" r="0.75"/><path class="cls-16" d="M33.91,132.46a.86.86,0,0,1-.85-.86.85.85,0,0,1,1.7,0,.86.86,0,0,1-.85.86Zm0-1.51a.65.65,0,0,0-.65.65.65.65,0,1,0,1.3,0,.65.65,0,0,0-.65-.65Z"/><path class="cls-19" d="M20.55,134.24h7.22V128.9H20S20.22,133.71,20.55,134.24Z"/><circle class="cls-19" cx="27.36" cy="131.57" r="3.29"/><line class="cls-14" x1="14.46" y1="131.6" x2="9.92" y2="131.6"/><circle class="cls-15" cx="9.96" cy="131.6" r="0.75"/><path class="cls-16" d="M10,130.75a.86.86,0,1,1-.85.85.85.85,0,0,1,.85-.85Zm0,1.51a.67.67,0,0,0,.66-.66A.66.66,0,0,0,10,131a.65.65,0,0,0-.65.65.66.66,0,0,0,.65.66Z"/><path class="cls-17" d="M23.32,134.24H16.1V128.9h7.76S23.66,133.71,23.32,134.24Z"/><circle class="cls-18" cx="16.51" cy="131.57" r="3.29"/><path class="cls-20" d="M71,126.69s-2,.22-2,4.73,2.41,5.33,2.41,5.33l-47.59.12s-2.38-.54-2.38-5.15,1.94-4.7,1.94-4.7l47.51-.41"/><line class="cls-14" x1="78.77" y1="203.58" x2="83.31" y2="203.58"/><circle class="cls-15" cx="83.27" cy="203.58" r="0.75"/><path class="cls-16" d="M83.27,204.43a.85.85,0,1,1,0-1.7.85.85,0,0,1,0,1.7Zm0-1.5a.65.65,0,1,0,0,1.3.65.65,0,1,0,0-1.3Z"/><path class="cls-17" d="M68.26,200.94h8.87v5.35h-9.4S67.93,201.47,68.26,200.94Z"/><circle class="cls-18" cx="76.72" cy="203.61" r="3.29"/><line class="cls-14" x1="29.42" y1="203.17" x2="33.96" y2="203.52"/><path class="cls-15" d="M33.86,204.26a.74.74,0,0,0,.8-.69.75.75,0,0,0-.69-.81.77.77,0,0,0-.81.7A.75.75,0,0,0,33.86,204.26Z"/><path class="cls-16" d="M33.85,204.36a.85.85,0,0,1-.79-.91.87.87,0,0,1,.92-.79.85.85,0,0,1,.78.92.84.84,0,0,1-.91.78Zm.11-1.5a.67.67,0,0,0-.7.6.66.66,0,0,0,.6.7.64.64,0,0,0,.7-.6.66.66,0,0,0-.6-.7Z"/><path class="cls-19" d="M20.55,200.53h7.22v5.35H20S20.22,201.06,20.55,200.53Z"/><circle class="cls-19" cx="27.36" cy="203.2" r="3.29"/><line class="cls-14" x1="14.46" y1="203.17" x2="9.92" y2="203.17"/><circle class="cls-15" cx="9.96" cy="203.17" r="0.75"/><path class="cls-16" d="M10,202.32a.85.85,0,1,1,0,1.7.85.85,0,0,1,0-1.7Zm0,1.5a.65.65,0,1,0,0-1.3.65.65,0,1,0,0,1.3Z"/><path class="cls-17" d="M23.32,200.53H16.1v5.35h7.76S23.66,201.06,23.32,200.53Z"/><circle class="cls-18" cx="16.51" cy="203.2" r="3.29"/><path class="cls-20" d="M71,208.08s-2-.22-2-4.72S71.37,198,71.37,198l-47.59-.13s-2.38.54-2.38,5.15,1.94,4.7,1.94,4.7l47.51.42"/><text class="cls-21" transform="translate(31.42 147.26)">10101010<tspan class="cls-22" x="31.66" y="0">1</tspan><tspan x="0" y="8.64">01011101</tspan><tspan class="cls-22" x="31.66" y="8.64">0</tspan><tspan x="0" y="17.27">10010000</tspan><tspan class="cls-22" x="31.66" y="17.27">1</tspan><tspan x="0" y="25.91">01000101</tspan><tspan class="cls-22" x="31.66" y="25.91">0</tspan><tspan x="0" y="34.55">00101010</tspan><tspan class="cls-22" x="31.66" y="34.55">0</tspan><tspan x="0" y="43.19">11010100</tspan><tspan class="cls-22" x="31.66" y="43.19">0</tspan></text></g></g></svg>