<svg width="353" height="140" viewBox="0 0 353 140" fill="none" xmlns="http://www.w3.org/2000/svg">
<g clip-path="url(#clip0_2592_19896)">
<path d="M113.971 71.1422H88.4739V80.4598H113.971V71.1422Z" fill="white"/>
<path d="M146.423 96.4516H57.0736V54.9705H146.423V96.4516ZM167.433 71.0525H155.387V45.464H105.704V33.2694H96.7403V45.464H48.1091V71.0525H34.3098V80.37H48.1091V105.941H155.387V80.37H167.433V71.0525Z" fill="white"/>
</g>
<path d="M293.537 95.3744V64.0215H277.86V55.3495H317.885V64.0215H302.209V95.3744H293.537Z" fill="white"/>
<path d="M265.063 95.3743L253.445 81.5323H264.73L273.958 92.428V95.3743H265.063ZM233.989 95.3743V55.405H265.731C267.25 55.405 268.621 55.7756 269.844 56.5168C271.104 57.258 272.105 58.2586 272.846 59.5186C273.624 60.7787 274.013 62.1499 274.013 63.6323V73.9721C274.013 75.4545 273.624 76.8257 272.846 78.0858C272.105 79.3458 271.104 80.3464 269.844 81.0876C268.621 81.8288 267.25 82.1994 265.731 82.1994L242.605 82.255V95.3743H233.989ZM242.605 73.5274H265.286V64.0214H242.605V73.5274Z" fill="white"/>
<path d="M188.32 95.3743V92.428L202.606 75.3618L188.32 58.2956V55.3494H197.27L208.388 68.5242L219.395 55.3494H228.345V58.2956L214.002 75.3618L228.345 92.3724V95.3743H219.395L208.276 82.255L197.27 95.3743H188.32Z" fill="white"/>
<defs>
<clipPath id="clip0_2592_19896">
<rect width="133.292" height="72.96" fill="white" transform="translate(34.3098 33.2694)"/>
</clipPath>
</defs>
</svg>
