<svg width="426" height="298" viewBox="0 0 426 298" fill="none" xmlns="http://www.w3.org/2000/svg">
<path d="M410.456 224.054C397.789 244.78 377.52 260.298 355.366 271.598C310.161 294.647 255.495 301.427 203.556 290.384C185.682 286.597 168.14 280.765 150.172 277.65C132.204 274.534 113.231 274.299 97.2017 281.397C88.3201 285.317 80.6036 291.352 71.4988 294.832C49.2601 303.31 19.9947 293.229 7.10669 272.391C-5.75898 251.566 -0.156672 222.728 19.5258 209.944C29.8897 203.202 42.7811 200.917 54.8238 197.209C91.0088 186.088 93.7275 178.046 110.168 145.293C129.36 107.052 92.5946 44.8325 126.008 17.5483C163.32 -12.9249 293.792 2.72181 335.508 26.0483C380.807 51.375 410.591 85.3288 421.701 134.039C428.491 163.741 426.644 195.464 412.171 221.145C411.608 222.101 411.032 223.077 410.469 224.033L410.456 224.054Z" fill="white"/>
</svg>
