<svg id="Group_4093" data-name="Group 4093" xmlns="http://www.w3.org/2000/svg" xmlns:xlink="http://www.w3.org/1999/xlink" width="270.817" height="298.039" viewBox="0 0 270.817 298.039">
  <defs>
    <clipPath id="clip-path">
      <rect id="Rectangle_1547" data-name="Rectangle 1547" width="270.817" height="298.039" fill="none"/>
    </clipPath>
    <clipPath id="clip-path-3">
      <rect id="Rectangle_1533" data-name="Rectangle 1533" width="3.566" height="3.566" transform="translate(51.021)" fill="none"/>
    </clipPath>
    <clipPath id="clip-path-4">
      <rect id="Rectangle_1534" data-name="Rectangle 1534" width="142.673" height="70.238" transform="translate(74.673 73.21)" fill="none"/>
    </clipPath>
    <clipPath id="clip-path-5">
      <path id="Path_6943" data-name="Path 6943" d="M186.837,80.059S101.5,68.9,84.088,84.695s-6.559,40.665-.1,44.989c6.507,4.356,20.554,11.177,30.454,4.51s16.782-7.412,27.121-5.937c9.539,1.361,27.987,18.964,46.512,14.454s24.749-16.669,23.481-31.038-13.335-31.138-24.719-31.614" fill="none"/>
    </clipPath>
    <clipPath id="clip-path-6">
      <rect id="Rectangle_1535" data-name="Rectangle 1535" width="38.484" height="195.199" transform="translate(34.165 10.45)" fill="none"/>
    </clipPath>
    <clipPath id="clip-path-7">
      <rect id="Rectangle_1536" data-name="Rectangle 1536" width="3.566" height="3.566" transform="translate(46.86 24.963)" fill="none"/>
    </clipPath>
    <clipPath id="clip-path-8">
      <rect id="Rectangle_1537" data-name="Rectangle 1537" width="3.566" height="3.566" transform="translate(36.162 17.831)" fill="none"/>
    </clipPath>
    <clipPath id="clip-path-9">
      <rect id="Rectangle_1538" data-name="Rectangle 1538" width="3.566" height="3.566" transform="translate(47.454 82.616)" fill="none"/>
    </clipPath>
    <clipPath id="clip-path-10">
      <rect id="Rectangle_1539" data-name="Rectangle 1539" width="3.566" height="3.567" transform="translate(56.964 98.069)" fill="none"/>
    </clipPath>
    <clipPath id="clip-path-11">
      <rect id="Rectangle_1540" data-name="Rectangle 1540" width="3.566" height="3.567" transform="translate(67.663 76.672)" fill="none"/>
    </clipPath>
    <clipPath id="clip-path-12">
      <rect id="Rectangle_1541" data-name="Rectangle 1541" width="3.566" height="3.566" transform="translate(66.474 166.421)" fill="none"/>
    </clipPath>
    <clipPath id="clip-path-13">
      <rect id="Rectangle_1542" data-name="Rectangle 1542" width="13.076" height="13.076" transform="translate(36.756 41.011)" fill="none"/>
    </clipPath>
    <clipPath id="clip-path-14">
      <rect id="Rectangle_1543" data-name="Rectangle 1543" width="13.076" height="13.076" transform="translate(49.832 109.957)" fill="none"/>
    </clipPath>
    <clipPath id="clip-path-15">
      <rect id="Rectangle_1544" data-name="Rectangle 1544" width="13.076" height="13.076" transform="translate(54.587 136.108)" fill="none"/>
    </clipPath>
    <clipPath id="clip-path-16">
      <rect id="Rectangle_1545" data-name="Rectangle 1545" width="5.944" height="5.944" transform="translate(43.888 8.321)" fill="none"/>
    </clipPath>
  </defs>
  <g id="Group_4092" data-name="Group 4092" clip-path="url(#clip-path)">
    <g id="Group_4091" data-name="Group 4091">
      <g id="Group_4090" data-name="Group 4090" clip-path="url(#clip-path)">
        <path id="Path_6915" data-name="Path 6915" d="M29.658,113.672s3.084,9.929-1.568,13.28-8.347-3.517-10.683,2.136c-1.1,2.666-3.837,27.622-1.168,47.36,2.093,15.486,49.07,1,57.817,5.738,0,0,.968,2.4-2.014,6.454s-58.615,14.1-66.8-7.229c-10.951-28.527,3.732-57.2,3.732-57.2s-7.8-15.9-1.138-25.7,10.148-10.328,7.022-4.344S8.368,106.693,11.061,106.5s7.477-18.092,10.816-16.685-3.293,15.872-3.293,15.872,3.917-6.316,9.571-2.606c4.662,3.059,3.406,10.729,1.18,9.791s-5.743-5.075-8.024-2.717-1.074,8.177,1.414,9.226c5.565,2.344,4.941-7.212,6.933-5.709" fill="#fbb03b"/>
        <path id="Path_6916" data-name="Path 6916" d="M29.658,113.672s3.084,9.929-1.568,13.28-8.347-3.517-10.683,2.136c-1.1,2.666-3.837,27.622-1.168,47.36,2.093,15.486,49.07,1,57.817,5.738,0,0,.968,2.4-2.014,6.454s-58.615,14.1-66.8-7.229c-10.951-28.527,3.732-57.2,3.732-57.2s-7.8-15.9-1.138-25.7,10.148-10.328,7.022-4.344S8.368,106.693,11.061,106.5s7.477-18.092,10.816-16.685-3.293,15.872-3.293,15.872,3.917-6.316,9.571-2.606c4.662,3.059,3.406,10.729,1.18,9.791s-5.743-5.075-8.024-2.717-1.074,8.177,1.414,9.226C28.29,121.725,27.666,112.169,29.658,113.672Z" fill="none" stroke="#000" stroke-linecap="round" stroke-linejoin="round" stroke-width="1"/>
        <path id="Path_6917" data-name="Path 6917" d="M19.679,179.812s-.358,13.181-5.269,12.383S.979,179.032,1.623,175.977s15.226-3.4,15.226-3.4l2.83,7.23" fill="#f15a24"/>
        <path id="Path_6918" data-name="Path 6918" d="M19.679,179.812s-.358,13.181-5.269,12.383S.979,179.032,1.623,175.977s15.226-3.4,15.226-3.4Z" fill="none" stroke="#000" stroke-linecap="round" stroke-linejoin="round" stroke-width="1"/>
        <path id="Path_6919" data-name="Path 6919" d="M20.083,177.321s-5.838,16.8-7.5,16.083-6.647-2.885-6.168-4.011,13.039-13.679,13.668-12.072" fill="#ff9271"/>
        <path id="Path_6920" data-name="Path 6920" d="M20.083,177.321s-5.838,16.8-7.5,16.083-6.647-2.885-6.168-4.011S19.454,175.714,20.083,177.321Z" fill="none" stroke="#000" stroke-linecap="round" stroke-linejoin="round" stroke-width="1"/>
        <path id="Path_6921" data-name="Path 6921" d="M2.626,184.415S.575,181.524.5,180.158s17.771-6.291,17.771-6.291S6.189,185.295,2.626,184.415" fill="#ff9271"/>
        <path id="Path_6922" data-name="Path 6922" d="M2.626,184.415S.575,181.524.5,180.158s17.771-6.291,17.771-6.291S6.189,185.295,2.626,184.415Z" fill="none" stroke="#000" stroke-linecap="round" stroke-linejoin="round" stroke-width="1"/>
        <path id="Path_6923" data-name="Path 6923" d="M169.231,8.612S166.8,23.176,168.422,28.3s-5.394,1.618-3.506-8.092-2.428-15.912,4.315-11.6" fill="#b5c0f1"/>
        <path id="Path_6924" data-name="Path 6924" d="M169.231,8.612S166.8,23.176,168.422,28.3s-5.394,1.618-3.506-8.092S162.488,4.3,169.231,8.612Z" fill="none" stroke="#000" stroke-miterlimit="10" stroke-width="1"/>
        <path id="Path_6925" data-name="Path 6925" d="M171.453,1.913s5.5,1.778,3.5,7.542-12.824,2.253-12.293-1.635,4.554-7.826,8.8-5.907" fill="#03a5ed"/>
        <path id="Path_6926" data-name="Path 6926" d="M171.453,1.913s5.5,1.778,3.5,7.542-12.824,2.253-12.293-1.635S167.21-.006,171.453,1.913Z" fill="none" stroke="#000" stroke-miterlimit="10" stroke-width="1"/>
        <path id="Path_6927" data-name="Path 6927" d="M235.207,51.944s-3.456-25.094-44.348-27.736S106.771,16.284,94.676,42.7s141.107,17.83,140.531,9.245" fill="#535974"/>
        <path id="Path_6928" data-name="Path 6928" d="M235.207,51.944s-3.456-25.094-44.348-27.736S106.771,16.284,94.676,42.7,235.783,60.529,235.207,51.944Z" fill="none" stroke="#000" stroke-linecap="round" stroke-linejoin="round" stroke-width="1"/>
        <path id="Path_6929" data-name="Path 6929" d="M261.241,59.989S212.8,31.048,151.645,32.344,52.354,44.821,57.529,52.78s56.178,26.472,78.427,26.576,112.516,7.99,119.609,1.5,25.86-13.226,5.676-20.867" fill="#1a1d28"/>
        <path id="Path_6930" data-name="Path 6930" d="M261.241,59.989S212.8,31.048,151.645,32.344,52.354,44.821,57.529,52.78s56.178,26.472,78.427,26.576,112.516,7.99,119.609,1.5S281.425,67.63,261.241,59.989Z" fill="none" stroke="#000" stroke-miterlimit="10" stroke-width="1"/>
        <path id="Path_6931" data-name="Path 6931" d="M161.674,255.572c2.224,0,70.618.932,71.175-32.292s21.74-157.528-20.018-169.871C170.488,40.892,97.5,35.47,81.927,76.6s-10.889,165.38,4.124,171.708,75.623,7.26,75.623,7.26" fill="#f15a24"/>
        <path id="Path_6932" data-name="Path 6932" d="M161.674,255.572c2.224,0,70.618.932,71.175-32.292s21.74-157.528-20.018-169.871C170.488,40.892,97.5,35.47,81.927,76.6s-10.889,165.38,4.124,171.708S161.674,255.572,161.674,255.572Z" fill="none" stroke="#000" stroke-miterlimit="10" stroke-width="1"/>
        <g id="Group_4051" data-name="Group 4051" opacity="0.21">
          <g id="Group_4050" data-name="Group 4050">
            <g id="Group_4049" data-name="Group 4049" clip-path="url(#clip-path-3)">
              <path id="Path_6933" data-name="Path 6933" d="M51.021,1.783A1.783,1.783,0,1,0,52.8,0a1.783,1.783,0,0,0-1.783,1.783" fill="#03a5ed"/>
            </g>
          </g>
        </g>
        <path id="Path_6934" data-name="Path 6934" d="M93.815,58.842c-1.112.556-20,39.043-20,90.2,0,0,1.112,91.748,1.112,94.528s-2.78,5-6.116,2.224-7.557-69.921-6.117-90.08C66.034,109.006,77.711,68.693,81.6,66.19s12.211-7.348,12.211-7.348" fill="#131220"/>
        <path id="Path_6935" data-name="Path 6935" d="M93.815,58.842c-1.112.556-20,39.043-20,90.2,0,0,1.112,91.748,1.112,94.528s-2.78,5-6.116,2.224-7.557-69.921-6.117-90.08C66.034,109.006,77.711,68.693,81.6,66.19S93.815,58.842,93.815,58.842Z" fill="none" stroke="#000" stroke-miterlimit="10" stroke-width="1"/>
        <path id="Path_6936" data-name="Path 6936" d="M193.941,74.274s-96.31-14.427-116.43,5.675-8.024,51.821-.5,57.388c7.58,5.609,23.1,14.039,34.558,5.569s18-9.449,29.906-8.711c11.175.694,29.472,22.96,50.955,17.3s28.639-21.177,27.083-39.563-12.352-36.982-25.572-37.656" fill="#535974"/>
        <path id="Path_6937" data-name="Path 6937" d="M193.941,74.274s-96.31-14.427-116.43,5.675-8.024,51.821-.5,57.388c7.58,5.609,23.1,14.039,34.558,5.569s18-9.449,29.906-8.711c11.175.694,29.472,22.96,50.955,17.3s28.639-21.177,27.083-39.563S207.161,74.948,193.941,74.274Z" fill="none" stroke="#000" stroke-miterlimit="10" stroke-width="1"/>
        <path id="Path_6938" data-name="Path 6938" d="M186.837,80.059S101.5,68.9,84.087,84.695s-6.558,40.666-.1,44.99c6.507,4.355,20.554,11.177,30.453,4.508s16.782-7.41,27.122-5.935c9.538,1.359,27.987,18.963,46.512,14.453s24.749-16.668,23.481-31.038-13.335-31.138-24.719-31.614" fill="#282b38"/>
        <path id="Path_6939" data-name="Path 6939" d="M186.837,80.059S101.5,68.9,84.087,84.695s-6.558,40.666-.1,44.99c6.507,4.355,20.554,11.177,30.453,4.508s16.782-7.41,27.122-5.935c9.538,1.359,27.987,18.963,46.512,14.453s24.749-16.668,23.481-31.038S198.221,80.535,186.837,80.059Z" fill="none" stroke="#000" stroke-miterlimit="10" stroke-width="1"/>
        <g id="Group_4056" data-name="Group 4056" opacity="0.13">
          <g id="Group_4055" data-name="Group 4055">
            <g id="Group_4054" data-name="Group 4054" clip-path="url(#clip-path-4)">
              <g id="Group_4053" data-name="Group 4053">
                <g id="Group_4052" data-name="Group 4052" clip-path="url(#clip-path-5)">
                  <path id="Path_6940" data-name="Path 6940" d="M171.513,75.963,217.346,121.8l-4.335,9.91L148.6,74.105Z" fill="#9bb4f9"/>
                  <path id="Path_6941" data-name="Path 6941" d="M128.157,73.486c.619,0,84.234,62.556,84.234,62.556l-9.291,4.336s-95.382-66.273-94.763-66.892,19.82,0,19.82,0" fill="#9bb4f9"/>
                  <path id="Path_6942" data-name="Path 6942" d="M84.8,81.538c.619,1.858,43.975,49.549,43.975,49.549s-14.245,7.433-14.245,6.813S77.988,83.4,78.607,83.4,84.8,81.538,84.8,81.538" fill="#9bb4f9"/>
                </g>
              </g>
            </g>
          </g>
        </g>
        <path id="Path_6944" data-name="Path 6944" d="M186.837,80.059S101.5,68.9,84.087,84.695s-6.558,40.666-.1,44.99c6.507,4.355,20.554,11.177,30.453,4.508s16.782-7.41,27.122-5.935c9.538,1.359,27.987,18.963,46.512,14.453s24.749-16.668,23.481-31.038S198.221,80.535,186.837,80.059Z" fill="none" stroke="#000" stroke-miterlimit="10" stroke-width="1"/>
        <path id="Path_6945" data-name="Path 6945" d="M129.393,149.028c1.452-.652,8.709-2.385,11.613,1.124,2.468,2.982,7.488-2.248,19.1-2.248,11.346,0,15.4,19.14,4.87,20.229-10.753,1.112-16.865-3-20.495-9.753s-12.342-4.247-15.246-5.65c-2.734-1.322-1.3-3.05.154-3.7" fill="#e6e6e6"/>
        <path id="Path_6946" data-name="Path 6946" d="M129.393,149.028c1.452-.652,8.709-2.385,11.613,1.124,2.468,2.982,7.488-2.248,19.1-2.248,11.346,0,15.4,19.14,4.87,20.229-10.753,1.112-16.865-3-20.495-9.753s-12.342-4.247-15.246-5.65C126.5,151.408,127.941,149.68,129.393,149.028Z" fill="none" stroke="#000" stroke-linecap="round" stroke-linejoin="round" stroke-width="1"/>
        <path id="Path_6947" data-name="Path 6947" d="M169.475,165.51a93.076,93.076,0,0,0-12.285-6.4c-6.17-2.541-20.691-9.438-29.04-8.712" fill="none" stroke="#000" stroke-miterlimit="10" stroke-width="1"/>
        <line id="Line_161" data-name="Line 161" x1="3.48" y2="17.655" transform="translate(162.999 150.526)" fill="none" stroke="#000" stroke-miterlimit="10" stroke-width="1"/>
        <line id="Line_162" data-name="Line 162" x1="2.885" y2="20.277" transform="translate(156.102 147.904)" fill="none" stroke="#000" stroke-miterlimit="10" stroke-width="1"/>
        <line id="Line_163" data-name="Line 163" x1="2.676" y2="15.898" transform="translate(149.568 148.653)" fill="none" stroke="#000" stroke-miterlimit="10" stroke-width="1"/>
        <line id="Line_164" data-name="Line 164" x1="1.776" y2="8.217" transform="translate(144.849 150.526)" fill="none" stroke="#000" stroke-miterlimit="10" stroke-width="1"/>
        <line id="Line_165" data-name="Line 165" x1="0.726" y2="3.993" transform="translate(140.855 150.757)" fill="none" stroke="#000" stroke-miterlimit="10" stroke-width="1"/>
        <line id="Line_166" data-name="Line 166" x1="1.289" y2="3.919" transform="translate(129.603 148.653)" fill="none" stroke="#000" stroke-miterlimit="10" stroke-width="1"/>
        <line id="Line_167" data-name="Line 167" x1="0.726" y2="3.267" transform="translate(135.773 147.853)" fill="none" stroke="#000" stroke-miterlimit="10" stroke-width="1"/>
        <path id="Path_6948" data-name="Path 6948" d="M102.577,222.769l8.854-26.5s10.545,1.97,11.03,2.757-9.072,28.735-9.072,28.735-9.114,4.817-9.187,3.993-1.576-8.433-1.576-8.433Z" fill="#03a5ed"/>
        <path id="Path_6949" data-name="Path 6949" d="M102.577,222.769l8.854-26.5s10.545,1.97,11.03,2.757-9.072,28.735-9.072,28.735-9.114,4.817-9.187,3.993-1.576-8.433-1.576-8.433Z" fill="none" stroke="#000" stroke-miterlimit="10" stroke-width="1"/>
        <path id="Path_6950" data-name="Path 6950" d="M99.507,239.634l-1.3-5.278,4.367-11.587,11.1,3.58s-3.617,10.691-3.992,11.139-4.164,4.517-4.575,4.554-5.606-2.408-5.606-2.408" fill="#999"/>
        <path id="Path_6951" data-name="Path 6951" d="M99.507,239.634l-1.3-5.278,4.367-11.587,11.1,3.58s-3.617,10.691-3.992,11.139-4.164,4.517-4.575,4.554S99.507,239.634,99.507,239.634Z" fill="none" stroke="#000" stroke-miterlimit="10" stroke-width="1"/>
        <path id="Path_6952" data-name="Path 6952" d="M91.5,242.688s-2.377,4.676-6.45,2.8-5.2-14.612-5.2-14.612-6.281-11.9-25.352-8.92c-16.518,2.579-20.41,9.064-19.969,14.049s2.7,30.463,10.113,44.879,38.371,17.257,51.315-6.776c8.864-16.456,11.95-28.969,11.95-28.969s-12.774-5.568-13.377-6.072-3.029,3.617-3.029,3.617" fill="#282b38"/>
        <path id="Path_6953" data-name="Path 6953" d="M91.5,242.688s-2.377,4.676-6.45,2.8-5.2-14.612-5.2-14.612-6.281-11.9-25.352-8.92c-16.518,2.579-20.41,9.064-19.969,14.049s2.7,30.463,10.113,44.879,38.371,17.257,51.315-6.776c8.864-16.456,11.95-28.969,11.95-28.969s-12.774-5.568-13.377-6.072S91.5,242.688,91.5,242.688Z" fill="none" stroke="#000" stroke-miterlimit="10" stroke-width="1"/>
        <path id="Path_6954" data-name="Path 6954" d="M79.213,223.68l.834,9.416s-3.29,6.99-22.626,9.26a42.652,42.652,0,0,1-22.6-3.024,53.394,53.394,0,0,1-.735-8.308c-.006-3.753,5.911-8.9,21.371-10.824s23.719-3.216,23.753,3.48" fill="#666"/>
        <path id="Path_6955" data-name="Path 6955" d="M79.213,223.68l.834,9.416s-3.29,6.99-22.626,9.26a42.652,42.652,0,0,1-22.6-3.024,53.394,53.394,0,0,1-.735-8.308c-.006-3.753,5.911-8.9,21.371-10.824S79.179,216.984,79.213,223.68Z" fill="none" stroke="#000" stroke-miterlimit="10" stroke-width="1"/>
        <path id="Path_6956" data-name="Path 6956" d="M78.82,219.249l.441,4.985s-5.447,7.739-24.287,9.407-20.739-.955-20.935-3.171-1.647-5.995-.231-8.911c2.405-4.952,17.283-6.554,21.665-7.5s21.651-1.359,23.347,5.19" fill="#999"/>
        <path id="Path_6957" data-name="Path 6957" d="M78.82,219.249l.441,4.985s-5.447,7.739-24.287,9.407-20.739-.955-20.935-3.171-1.647-5.995-.231-8.911c2.405-4.952,17.283-6.554,21.665-7.5S77.124,212.7,78.82,219.249Z" fill="none" stroke="#000" stroke-miterlimit="10" stroke-width="1"/>
        <path id="Path_6958" data-name="Path 6958" d="M70.994,212.813c.58-.051,1.31,1.971,1.535,4.733.327,4-5.92,5.393-16.3,7.007s-17,1.505-17.424-3.326c-.1-1.14-.967-4.934,1.173-5.668,8.266-2.836,29.174-2.583,31.017-2.746" fill="gray"/>
        <path id="Path_6959" data-name="Path 6959" d="M70.994,212.813c.58-.051,1.31,1.971,1.535,4.733.327,4-5.92,5.393-16.3,7.007s-17,1.505-17.424-3.326c-.1-1.14-.967-4.934,1.173-5.668C48.243,212.723,69.151,212.976,70.994,212.813Z" fill="none" stroke="#000" stroke-miterlimit="10" stroke-width="1"/>
        <path id="Path_6960" data-name="Path 6960" d="M56.166,210.648c.58-.051,12.183-1.078,14.747,1.477s-4.732,5.983-15.113,7.6-19.327-.375-16.152-4.134,14.2-4.735,16.518-4.94" fill="#b3b3b3"/>
        <path id="Path_6961" data-name="Path 6961" d="M56.166,210.648c.58-.051,12.183-1.078,14.747,1.477s-4.732,5.983-15.113,7.6-19.327-.375-16.152-4.134S53.846,210.853,56.166,210.648Z" fill="none" stroke="#000" stroke-miterlimit="10" stroke-width="1"/>
        <path id="Path_6962" data-name="Path 6962" d="M73.786,231.526a2.247,2.247,0,1,0,2.04-2.437,2.246,2.246,0,0,0-2.04,2.437" fill="#e6e6e6"/>
        <path id="Path_6963" data-name="Path 6963" d="M73.786,231.526a2.247,2.247,0,1,0,2.04-2.437A2.246,2.246,0,0,0,73.786,231.526Z" fill="none" stroke="#000" stroke-linecap="round" stroke-linejoin="round" stroke-width="1"/>
        <path id="Path_6964" data-name="Path 6964" d="M61.944,236.481a2.247,2.247,0,1,0,2.04-2.437,2.246,2.246,0,0,0-2.04,2.437" fill="#e6e6e6"/>
        <path id="Path_6965" data-name="Path 6965" d="M61.944,236.481a2.247,2.247,0,1,0,2.04-2.437A2.246,2.246,0,0,0,61.944,236.481Z" fill="none" stroke="#000" stroke-linecap="round" stroke-linejoin="round" stroke-width="1"/>
        <path id="Path_6966" data-name="Path 6966" d="M47.592,238.31a2.247,2.247,0,1,0,2.04-2.437,2.246,2.246,0,0,0-2.04,2.437" fill="#e6e6e6"/>
        <path id="Path_6967" data-name="Path 6967" d="M47.592,238.31a2.247,2.247,0,1,0,2.04-2.437A2.246,2.246,0,0,0,47.592,238.31Z" fill="none" stroke="#000" stroke-linecap="round" stroke-linejoin="round" stroke-width="1"/>
        <path id="Path_6968" data-name="Path 6968" d="M36.367,237.629a2.247,2.247,0,1,0,2.04-2.437,2.246,2.246,0,0,0-2.04,2.437" fill="#e6e6e6"/>
        <path id="Path_6969" data-name="Path 6969" d="M36.367,237.629a2.247,2.247,0,1,0,2.04-2.437A2.246,2.246,0,0,0,36.367,237.629Z" fill="none" stroke="#000" stroke-linecap="round" stroke-linejoin="round" stroke-width="1"/>
        <path id="Path_6970" data-name="Path 6970" d="M93.423,239.169l2.377-4.676s13.833,4.916,13.882,5.47a44.083,44.083,0,0,1-1.775,5.181s-13.783-4.362-14.484-5.975" fill="#999"/>
        <path id="Path_6971" data-name="Path 6971" d="M93.423,239.169l2.377-4.676s13.833,4.916,13.882,5.47a44.083,44.083,0,0,1-1.775,5.181S94.124,240.782,93.423,239.169Z" fill="none" stroke="#000" stroke-miterlimit="10" stroke-width="1"/>
        <path id="Path_6972" data-name="Path 6972" d="M123.371,199.117l-12.578-3.352s1.985-9.108,3.76-14.289,4.539-1.854,5-6.583c.877-9.009,8.917-20.348,13.657-23.559,0,0,6.929,1.9,8.639,2.3s-18.6,12.555-16.512,23.534c.941,4.947,1.956,3.177,2.657,4.789s-4.166,16-4.622,17.156" fill="#282b38"/>
        <path id="Path_6973" data-name="Path 6973" d="M123.371,199.117l-12.578-3.352s1.985-9.108,3.76-14.289,4.539-1.854,5-6.583c.877-9.009,8.917-20.348,13.657-23.559,0,0,6.929,1.9,8.639,2.3s-18.6,12.555-16.512,23.534c.941,4.947,1.956,3.177,2.657,4.789S123.827,197.96,123.371,199.117Z" fill="none" stroke="#000" stroke-miterlimit="10" stroke-width="1"/>
        <path id="Path_6974" data-name="Path 6974" d="M112.832,206.19a2.78,2.78,0,1,0,2.524-3.015,2.779,2.779,0,0,0-2.524,3.015" fill="#65cbef"/>
        <path id="Path_6975" data-name="Path 6975" d="M109.887,217.057a1.668,1.668,0,1,0,1.515-1.809,1.668,1.668,0,0,0-1.515,1.809" fill="#65cbef"/>
        <path id="Path_6976" data-name="Path 6976" d="M109.4,211.518a1.668,1.668,0,1,0,1.515-1.809,1.669,1.669,0,0,0-1.515,1.809" fill="#65cbef"/>
        <path id="Path_6977" data-name="Path 6977" d="M113.45,200.553a1.112,1.112,0,1,0,1.01-1.206,1.112,1.112,0,0,0-1.01,1.206" fill="#65cbef"/>
        <path id="Path_6978" data-name="Path 6978" d="M88.489,286.568c-2.975,0-4.958-3.47-8.924-6.445s-4.957-12.394-8.923-13.385-.387,8.61-.2,12.394.491,5.468-3.971,4.972S53.786,264.755,52.3,268.225s5.619,14.542,2.314,14.212-5.784-10.742-6.776-6.776,2.589,13.2,10.907,17.352c7.859,3.925,24.292,5.453,40.652,3.966,15.463-1.406,66.43-4.462,72.875-10.411s41.148-41.147,40.156-49.575-10.576-17.352-12.89-5.949-20.821,39.164-36.685,46.6-74.363,8.924-74.363,8.924" fill="#fbb03b"/>
        <path id="Path_6979" data-name="Path 6979" d="M88.489,286.568c-2.975,0-4.958-3.47-8.924-6.445s-4.957-12.394-8.923-13.385-.387,8.61-.2,12.394.491,5.468-3.971,4.972S53.786,264.755,52.3,268.225s5.619,14.542,2.314,14.212-5.784-10.742-6.776-6.776,2.589,13.2,10.907,17.352c7.859,3.925,24.292,5.453,40.652,3.966,15.463-1.406,66.43-4.462,72.875-10.411s41.148-41.147,40.156-49.575-10.576-17.352-12.89-5.949-20.821,39.164-36.685,46.6S88.489,286.568,88.489,286.568Z" fill="none" stroke="#000" stroke-linecap="round" stroke-linejoin="round" stroke-width="1"/>
        <path id="Path_6980" data-name="Path 6980" d="M200.205,49.332s6.509,107.494,2.617,159.763-8.9,52.268.556,52.268,35.031,2.225,40.592-2.224,12.233-94.528,9.452-121.218S246.194,66.19,237.853,60.63s-25.23-11.113-37.648-11.3" fill="#131220"/>
        <path id="Path_6981" data-name="Path 6981" d="M200.205,49.332s6.509,107.494,2.617,159.763-8.9,52.268.556,52.268,35.031,2.225,40.592-2.224,12.233-94.528,9.452-121.218S246.194,66.19,237.853,60.63,212.623,49.517,200.205,49.332Z" fill="none" stroke="#000" stroke-miterlimit="10" stroke-width="1"/>
        <path id="Path_6982" data-name="Path 6982" d="M228.436,76.441c2.384-1.052,5.522-3.263,1.513-8.2s-11.163.181-8.535,5.934c1.522,3.333,4.638,3.319,7.022,2.267" fill="#e6e6e6"/>
        <path id="Path_6983" data-name="Path 6983" d="M228.436,76.441c2.384-1.052,5.522-3.263,1.513-8.2s-11.163.181-8.535,5.934C222.936,77.507,226.052,77.493,228.436,76.441Z" fill="none" stroke="#000" stroke-linecap="round" stroke-linejoin="round" stroke-width="1"/>
        <path id="Path_6984" data-name="Path 6984" d="M230.591,69.376s-7.188,5.6-7.663,6.626c-.358.776-2.1-1.739-1.611-2.623s8.178-5.583,8.178-5.583,1.238.872,1.1,1.58" fill="#b3b3b3"/>
        <path id="Path_6985" data-name="Path 6985" d="M230.591,69.376s-7.188,5.6-7.663,6.626c-.358.776-2.1-1.739-1.611-2.623s8.178-5.583,8.178-5.583S230.733,68.668,230.591,69.376Z" fill="none" stroke="#000" stroke-linecap="round" stroke-linejoin="round" stroke-width="1"/>
        <g id="Group_4059" data-name="Group 4059" opacity="0.21">
          <g id="Group_4058" data-name="Group 4058">
            <g id="Group_4057" data-name="Group 4057" clip-path="url(#clip-path-6)">
              <path id="Path_6986" data-name="Path 6986" d="M58.029,205.649s15.645-14.011,10.952-41.422S53.24,139.539,56.369,120.655s22.479-41.77,14.265-59.436-19.5-34.727-18.425-48.737c.622-8.09-8.89,9.823-10.1,21.4-3.589,34.218,6.8,48.285-.6,60.03-10.1,16.048-9.035,30.926-1.343,46.357s24.9,59.9,17.862,65.383" fill="#03a5ed"/>
            </g>
          </g>
        </g>
        <path id="Path_6987" data-name="Path 6987" d="M165.138,274s14.859,7.727,13.67,10.1-14.859,10.7-17.236,8.321c-.94-.94-4.161-13.67-3.566-14.859s7.132-4.16,7.132-3.566" fill="#f15a24"/>
        <path id="Path_6988" data-name="Path 6988" d="M165.138,274s14.859,7.727,13.67,10.1-14.859,10.7-17.236,8.321c-.94-.94-4.161-13.67-3.566-14.859S165.138,273.406,165.138,274Z" fill="none" stroke="#000" stroke-linecap="round" stroke-linejoin="round" stroke-width="1"/>
        <path id="Path_6989" data-name="Path 6989" d="M162.76,273.406c.532.266,14.859,11.293,14.859,12.482s-2.377,2.377-2.972,2.377-12.48-13.076-12.48-13.67-.6-1.783.593-1.189" fill="#ff9271"/>
        <path id="Path_6990" data-name="Path 6990" d="M162.76,273.406c.532.266,14.859,11.293,14.859,12.482s-2.377,2.377-2.972,2.377-12.48-13.076-12.48-13.67S161.572,272.812,162.76,273.406Z" fill="none" stroke="#000" stroke-linecap="round" stroke-linejoin="round" stroke-width="1"/>
        <path id="Path_6991" data-name="Path 6991" d="M160.383,274.6c2.691,2.691,11.293,16.642,10.7,16.642s-4.16,1.189-4.754,1.189-7.727-16.642-7.133-17.237.6-1.188,1.189-.594" fill="#ff9271"/>
        <path id="Path_6992" data-name="Path 6992" d="M160.383,274.6c2.691,2.691,11.293,16.642,10.7,16.642s-4.16,1.189-4.754,1.189-7.727-16.642-7.133-17.237S159.789,274,160.383,274.6Z" fill="none" stroke="#000" stroke-linecap="round" stroke-linejoin="round" stroke-width="1"/>
        <g id="Group_4062" data-name="Group 4062" opacity="0.21">
          <g id="Group_4061" data-name="Group 4061">
            <g id="Group_4060" data-name="Group 4060" clip-path="url(#clip-path-7)">
              <path id="Path_6993" data-name="Path 6993" d="M46.86,26.746a1.783,1.783,0,1,0,1.783-1.783,1.783,1.783,0,0,0-1.783,1.783" fill="#03a5ed"/>
            </g>
          </g>
        </g>
        <g id="Group_4065" data-name="Group 4065" opacity="0.21">
          <g id="Group_4064" data-name="Group 4064">
            <g id="Group_4063" data-name="Group 4063" clip-path="url(#clip-path-8)">
              <path id="Path_6994" data-name="Path 6994" d="M36.162,19.614a1.783,1.783,0,1,0,1.783-1.783,1.783,1.783,0,0,0-1.783,1.783" fill="#03a5ed"/>
            </g>
          </g>
        </g>
        <g id="Group_4068" data-name="Group 4068" opacity="0.21">
          <g id="Group_4067" data-name="Group 4067">
            <g id="Group_4066" data-name="Group 4066" clip-path="url(#clip-path-9)">
              <path id="Path_6995" data-name="Path 6995" d="M47.454,84.4a1.784,1.784,0,1,0,1.783-1.783A1.783,1.783,0,0,0,47.454,84.4" fill="#03a5ed"/>
            </g>
          </g>
        </g>
        <g id="Group_4071" data-name="Group 4071" opacity="0.21">
          <g id="Group_4070" data-name="Group 4070">
            <g id="Group_4069" data-name="Group 4069" clip-path="url(#clip-path-10)">
              <path id="Path_6996" data-name="Path 6996" d="M56.964,99.853a1.783,1.783,0,1,0,1.783-1.783,1.783,1.783,0,0,0-1.783,1.783" fill="#03a5ed"/>
            </g>
          </g>
        </g>
        <g id="Group_4074" data-name="Group 4074" opacity="0.21">
          <g id="Group_4073" data-name="Group 4073">
            <g id="Group_4072" data-name="Group 4072" clip-path="url(#clip-path-11)">
              <path id="Path_6997" data-name="Path 6997" d="M67.663,78.456a1.783,1.783,0,1,0,1.783-1.783,1.783,1.783,0,0,0-1.783,1.783" fill="#fff"/>
            </g>
          </g>
        </g>
        <g id="Group_4077" data-name="Group 4077" opacity="0.21">
          <g id="Group_4076" data-name="Group 4076">
            <g id="Group_4075" data-name="Group 4075" clip-path="url(#clip-path-12)">
              <path id="Path_6998" data-name="Path 6998" d="M66.474,168.2a1.783,1.783,0,1,0,1.783-1.783,1.783,1.783,0,0,0-1.783,1.783" fill="#fff"/>
            </g>
          </g>
        </g>
        <g id="Group_4080" data-name="Group 4080" opacity="0.21">
          <g id="Group_4079" data-name="Group 4079">
            <g id="Group_4078" data-name="Group 4078" clip-path="url(#clip-path-13)">
              <path id="Path_6999" data-name="Path 6999" d="M36.756,47.549a6.538,6.538,0,1,0,6.538-6.538,6.538,6.538,0,0,0-6.538,6.538" fill="#03a5ed"/>
            </g>
          </g>
        </g>
        <g id="Group_4083" data-name="Group 4083" opacity="0.21">
          <g id="Group_4082" data-name="Group 4082">
            <g id="Group_4081" data-name="Group 4081" clip-path="url(#clip-path-14)">
              <path id="Path_7000" data-name="Path 7000" d="M49.832,116.5a6.538,6.538,0,1,0,6.538-6.538,6.538,6.538,0,0,0-6.538,6.538" fill="#03a5ed"/>
            </g>
          </g>
        </g>
        <g id="Group_4086" data-name="Group 4086" opacity="0.21">
          <g id="Group_4085" data-name="Group 4085">
            <g id="Group_4084" data-name="Group 4084" clip-path="url(#clip-path-15)">
              <path id="Path_7001" data-name="Path 7001" d="M54.587,142.646a6.538,6.538,0,1,0,6.538-6.538,6.538,6.538,0,0,0-6.538,6.538" fill="#fff"/>
            </g>
          </g>
        </g>
        <g id="Group_4089" data-name="Group 4089" opacity="0.21">
          <g id="Group_4088" data-name="Group 4088">
            <g id="Group_4087" data-name="Group 4087" clip-path="url(#clip-path-16)">
              <path id="Path_7002" data-name="Path 7002" d="M43.888,11.293A2.972,2.972,0,1,0,46.86,8.321a2.973,2.973,0,0,0-2.972,2.972" fill="#03a5ed"/>
            </g>
          </g>
        </g>
      </g>
    </g>
  </g>
</svg>
