<svg width="190" height="70" viewBox="0 0 190 70" fill="none" xmlns="http://www.w3.org/2000/svg">
<g clip-path="url(#clip0_2603_7873)">
<path d="M101.835 19.7255H88.4448V24.5784H101.835V19.7255Z" fill="white"/>
<path d="M118.878 32.9074H71.9547V11.3026H118.878V32.9074ZM129.911 19.6787H123.585V6.35134H97.4937V0H92.7861V6.35134H67.2469V19.6787H60V24.5316H67.2469V37.8497H123.585V24.5316H129.911V19.6787Z" fill="white"/>
</g>
<path d="M13.3701 53.1768H4.04199C3.31559 53.1768 2.6394 53.3647 2.02441 53.7402C1.42039 54.1086 0.931754 54.5973 0.563477 55.2002C0.18802 55.8158 0 56.4925 0 57.2188V69.9795H3.94238V57.3008C3.94238 57.2606 3.95227 57.2255 4.00098 57.1768C4.04933 57.1284 4.08334 57.1191 4.12402 57.1191H13.3701V53.1768Z" fill="white"/>
<path fill-rule="evenodd" clip-rule="evenodd" d="M28.7002 53.1768C29.4416 53.1769 30.1275 53.3635 30.7451 53.7402C31.2741 54.0632 31.7125 54.4795 32.0547 54.9844L32.1953 55.2061C32.5594 55.8207 32.7422 56.4952 32.7422 57.2188V65.9375C32.7422 66.6613 32.5596 67.336 32.1953 67.9502C31.8804 68.481 31.4691 68.9223 30.9668 69.2715L30.7451 69.416C30.1277 69.7925 29.4417 69.9794 28.7002 69.9795H19.709C18.9826 69.9795 18.3062 69.7911 17.6914 69.416C17.163 69.0936 16.7226 68.6791 16.374 68.1758L16.2305 67.9551C15.855 67.34 15.666 66.664 15.666 65.9375V57.2188C15.666 56.4925 15.855 55.8158 16.2305 55.2002C16.5987 54.5974 17.0875 54.1085 17.6914 53.7402C18.3063 53.3649 18.9827 53.1768 19.709 53.1768H28.7002ZM19.791 57.1191C19.7506 57.1191 19.7157 57.1282 19.667 57.1768C19.6183 57.2255 19.6094 57.2606 19.6094 57.3008V65.8555C19.6094 65.8955 19.6184 65.9296 19.667 65.9785C19.7157 66.0271 19.7506 66.0371 19.791 66.0371H28.6182C28.6375 66.0371 28.6538 66.035 28.6689 66.0283L28.7158 65.9912C28.7592 65.9443 28.7725 65.9059 28.7725 65.8555V57.3008C28.7725 57.2501 28.7592 57.2108 28.7158 57.1641C28.6808 57.1267 28.6565 57.1192 28.6182 57.1191H19.791Z" fill="white"/>
<path fill-rule="evenodd" clip-rule="evenodd" d="M28.7002 53.1768C29.4416 53.1769 30.1275 53.3635 30.7451 53.7402C31.2741 54.0632 31.7125 54.4795 32.0547 54.9844L32.1953 55.2061C32.5594 55.8207 32.7422 56.4952 32.7422 57.2188V65.9375C32.7422 66.6613 32.5596 67.336 32.1953 67.9502C31.8804 68.481 31.4691 68.9223 30.9668 69.2715L30.7451 69.416C30.1277 69.7925 29.4417 69.9794 28.7002 69.9795H19.709C18.9826 69.9795 18.3062 69.7911 17.6914 69.416C17.163 69.0936 16.7226 68.6791 16.374 68.1758L16.2305 67.9551C15.855 67.34 15.666 66.664 15.666 65.9375V57.2188C15.666 56.4925 15.855 55.8158 16.2305 55.2002C16.5987 54.5974 17.0875 54.1085 17.6914 53.7402C18.3063 53.3649 18.9827 53.1768 19.709 53.1768H28.7002ZM19.791 57.1191C19.7506 57.1191 19.7157 57.1282 19.667 57.1768C19.6183 57.2255 19.6094 57.2606 19.6094 57.3008V65.8555C19.6094 65.8955 19.6184 65.9296 19.667 65.9785C19.7157 66.0271 19.7506 66.0371 19.791 66.0371H28.6182C28.6375 66.0371 28.6538 66.035 28.6689 66.0283L28.7158 65.9912C28.7592 65.9443 28.7725 65.9059 28.7725 65.8555V57.3008C28.7725 57.2501 28.7592 57.2108 28.7158 57.1641C28.6808 57.1267 28.6565 57.1192 28.6182 57.1191H19.791Z" fill="white"/>
<path fill-rule="evenodd" clip-rule="evenodd" d="M68.8879 53.1768C69.6294 53.1769 70.3153 53.3635 70.9329 53.7402C71.4619 54.0632 71.9002 54.4795 72.2424 54.9844L72.3831 55.2061C72.7472 55.8207 72.9299 56.4952 72.9299 57.2188V65.9375C72.9299 66.6613 72.7473 67.336 72.3831 67.9502C72.0682 68.481 71.6568 68.9223 71.1545 69.2715L70.9329 69.416C70.3154 69.7925 69.6295 69.9794 68.8879 69.9795H59.8967C59.1704 69.9795 58.4939 69.7911 57.8792 69.416C57.3508 69.0936 56.9104 68.6791 56.5618 68.1758L56.4182 67.9551C56.0427 67.34 55.8538 66.664 55.8538 65.9375V57.2188C55.8538 56.4925 56.0428 55.8158 56.4182 55.2002C56.7865 54.5974 57.2752 54.1085 57.8792 53.7402C58.494 53.3649 59.1705 53.1768 59.8967 53.1768H68.8879ZM59.9788 57.1191C59.9384 57.1191 59.9034 57.1282 59.8547 57.1768C59.806 57.2255 59.7971 57.2606 59.7971 57.3008V65.8555C59.7971 65.8955 59.8061 65.9296 59.8547 65.9785C59.9035 66.0271 59.9383 66.0371 59.9788 66.0371H68.8059C68.8253 66.0371 68.8415 66.035 68.8567 66.0283L68.9036 65.9912C68.9469 65.9443 68.9602 65.9059 68.9602 65.8555V57.3008C68.9602 57.2501 68.947 57.2108 68.9036 57.1641C68.8685 57.1267 68.8443 57.1192 68.8059 57.1191H59.9788Z" fill="white"/>
<path fill-rule="evenodd" clip-rule="evenodd" d="M108.911 53.1768C109.653 53.1769 110.338 53.3635 110.956 53.7402C111.485 54.0632 111.923 54.4795 112.266 54.9844L112.406 55.2061C112.77 55.8207 112.953 56.4952 112.953 57.2188V65.9375C112.953 66.6613 112.77 67.336 112.406 67.9502C112.091 68.481 111.68 68.9223 111.178 69.2715L110.956 69.416C110.339 69.7925 109.653 69.9794 108.911 69.9795H99.9199C99.1936 69.9795 98.5171 69.7911 97.9023 69.416C97.374 69.0936 96.9336 68.6791 96.585 68.1758L96.4414 67.9551C96.0659 67.34 95.877 66.664 95.877 65.9375V57.2188C95.877 56.4925 96.0659 55.8158 96.4414 55.2002C96.8097 54.5974 97.2984 54.1085 97.9023 53.7402C98.5172 53.3649 99.1937 53.1768 99.9199 53.1768H108.911ZM100.002 57.1191C99.9616 57.1191 99.9266 57.1282 99.8779 57.1768C99.8292 57.2255 99.8203 57.2606 99.8203 57.3008V65.8555C99.8203 65.8955 99.8293 65.9296 99.8779 65.9785C99.9267 66.0271 99.9615 66.0371 100.002 66.0371H108.829C108.848 66.0371 108.865 66.035 108.88 66.0283L108.927 65.9912C108.97 65.9443 108.983 65.9059 108.983 65.8555V57.3008C108.983 57.2501 108.97 57.2108 108.927 57.1641C108.892 57.1267 108.867 57.1192 108.829 57.1191H100.002Z" fill="white"/>
<path fill-rule="evenodd" clip-rule="evenodd" d="M40.0703 48V53.1768H49.1611C49.9029 53.1768 50.5884 53.3634 51.2061 53.7402C51.7354 54.0632 52.1733 54.4793 52.5156 54.9844L52.6562 55.2061C53.0202 55.8206 53.2031 56.495 53.2031 57.2188V65.9375C53.2031 66.6614 53.0202 67.3351 52.6562 67.9492C52.3412 68.4803 51.9296 68.9222 51.4268 69.2715L51.2061 69.416C50.5885 69.7926 49.903 69.9794 49.1611 69.9795H36.1279V48H40.0703ZM40.252 56.6191C40.0702 56.6191 39.9106 56.687 39.7744 56.8232C39.6382 56.9595 39.5703 57.1194 39.5703 57.3008V65.8555C39.5703 66.0371 39.6384 66.1957 39.7744 66.332C39.9106 66.4681 40.0702 66.5361 40.252 66.5361H49.0791C49.2605 66.5361 49.4194 66.4681 49.5557 66.332C49.6918 66.1956 49.7607 66.0372 49.7607 65.8555V57.3008C49.7607 57.1194 49.6919 56.9595 49.5557 56.8232C49.4195 56.6872 49.2604 56.6191 49.0791 56.6191H40.252Z" fill="white"/>
<path d="M90.9575 53.7402C90.3398 53.3634 89.6544 53.1768 88.9126 53.1768H75.8794V69.9795H79.8218V57.3008C79.8218 57.2606 79.8317 57.2255 79.8804 57.1768C79.9287 57.1284 79.9631 57.1191 80.0034 57.1191H88.8306C88.8707 57.1191 88.9051 57.1284 88.9536 57.1768C89.0023 57.2255 89.0122 57.2606 89.0122 57.3008V69.9795H92.9546V57.2188C92.9546 56.495 92.7716 55.8206 92.4077 55.2061L92.2671 54.9844C91.9248 54.4794 91.4868 54.0632 90.9575 53.7402Z" fill="white"/>
<path d="M139.183 53.7402C138.565 53.3634 137.879 53.1768 137.138 53.1768H116.448V69.9795H120.418V57.3008C120.418 57.2492 120.431 57.2108 120.474 57.165L120.475 57.1641C120.509 57.1268 120.533 57.1191 120.572 57.1191H126.675C126.715 57.1191 126.75 57.1285 126.798 57.1768L126.799 57.1777C126.847 57.2262 126.856 57.2607 126.856 57.3008V69.9795H130.826V57.3008C130.826 57.2603 130.835 57.2251 130.884 57.1768C130.932 57.1283 130.966 57.1192 131.007 57.1191H137.083C137.123 57.1191 137.157 57.1282 137.206 57.1768C137.255 57.2258 137.265 57.2608 137.265 57.3008V69.9795H141.18V57.2188C141.18 56.495 140.997 55.8206 140.633 55.2061L140.492 54.9844C140.199 54.5516 139.835 54.1843 139.404 53.8848L139.183 53.7402Z" fill="white"/>
<path d="M148.618 69.9795H144.675V53.1768H148.618V69.9795ZM148.618 51.9424H144.675V48H148.618V51.9424Z" fill="white"/>
<path d="M152.003 57.2185V65.9373C152.003 66.6636 152.191 67.3397 152.567 67.9548C152.935 68.5586 153.423 69.0474 154.027 69.4158C154.642 69.7914 155.318 69.9792 156.045 69.9792H169.078V66.0369H156.127C156.086 66.0369 156.052 66.0268 156.003 65.9783C155.955 65.9297 155.946 65.8955 155.946 65.8552V57.3005C155.946 57.2603 155.954 57.2249 156.002 57.1765L156.003 57.1775C156.052 57.1287 156.087 57.1189 156.127 57.1189H169.024V53.1765H156.045C155.318 53.1765 154.643 53.3648 154.028 53.74C153.424 54.1085 152.935 54.5977 152.567 55.2009C152.191 55.8163 152.003 56.4925 152.003 57.2185Z" fill="white"/>
<path d="M185.444 66.0369H176.617C176.576 66.0369 176.542 66.0268 176.493 65.9783C176.445 65.9297 176.436 65.8955 176.436 65.8552V65.0291H172.493V65.9373C172.493 66.6635 172.681 67.3396 173.057 67.9548C173.425 68.5586 173.913 69.0474 174.517 69.4158C175.132 69.7914 175.808 69.9792 176.535 69.9792H185.526C186.268 69.9792 186.954 69.7926 187.571 69.4158L187.792 69.2712C188.295 68.9219 188.707 68.481 189.021 67.95C189.386 67.3356 189.568 66.6611 189.568 65.9373V63.6482C189.568 62.9092 189.387 62.226 189.021 61.6091C188.661 61.0018 188.173 60.5138 187.565 60.1531C186.949 59.7876 186.265 59.6062 185.526 59.6062H176.617C176.577 59.6062 176.542 59.5974 176.493 59.5486C176.445 59.4999 176.436 59.4659 176.436 59.4255V57.3005C176.436 57.2603 176.444 57.2249 176.492 57.1765L176.493 57.1775C176.542 57.1287 176.577 57.1189 176.617 57.1189H185.444C185.483 57.1189 185.507 57.1261 185.542 57.1638C185.585 57.2103 185.599 57.2493 185.599 57.3005V58.1267H189.568V57.2185C189.568 56.495 189.386 55.8204 189.021 55.2058C188.662 54.5995 188.176 54.1092 187.571 53.74L187.336 53.6082C186.781 53.3201 186.175 53.1766 185.526 53.1765H176.535C175.808 53.1765 175.133 53.3648 174.518 53.74C173.914 54.1085 173.425 54.5977 173.057 55.2009C172.681 55.8164 172.493 56.4926 172.493 57.2185V59.5076C172.493 60.2491 172.679 60.935 173.057 61.5525C173.426 62.1573 173.916 62.643 174.522 63.0027C175.137 63.3673 175.811 63.5496 176.535 63.5496H185.444C185.483 63.5496 185.507 63.5569 185.542 63.5945L185.586 63.6609C185.595 63.6826 185.599 63.7048 185.599 63.7302V65.8552C185.599 65.9064 185.585 65.9445 185.542 65.991C185.507 66.0286 185.483 66.0369 185.444 66.0369Z" fill="white"/>
<defs>
<clipPath id="clip0_2603_7873">
<rect width="70" height="38" fill="white" transform="translate(60)"/>
</clipPath>
</defs>
</svg>
