<svg width="109" height="16" viewBox="0 0 109 16" fill="none" xmlns="http://www.w3.org/2000/svg">
<g clip-path="url(#clip0_416_25801)">
<path d="M83.3225 11.4715L83.3225 11.4716C83.4058 11.6427 83.5092 11.786 83.6331 11.9042L83.6333 11.9044C83.7509 12.0182 83.8914 12.1076 84.0556 12.1712C84.2196 12.2346 84.4065 12.2667 84.617 12.2667C84.8935 12.2667 85.1265 12.2102 85.3191 12.0994C85.5126 11.988 85.6687 11.8388 85.7862 11.6526L85.7877 11.6504L85.7878 11.6504C85.9316 11.4477 86.0347 11.2063 86.0967 10.9251C86.1579 10.6427 86.1905 10.3423 86.1945 10.0239V8.88542C86.1933 8.85466 86.192 8.82188 86.1907 8.78708L83.3225 11.4715ZM83.3225 11.4715C83.2425 11.308 83.1811 11.1262 83.1373 10.9246L86.1576 8.20367C86.1677 8.29852 86.1751 8.40058 86.18 8.51018L83.3225 11.4715ZM86.0977 7.51959L86.1187 7.50066L86.1522 7.53778C86.1107 7.31894 86.0487 7.11987 85.9663 6.94189C85.8839 6.7626 85.7811 6.60901 85.6545 6.48048C85.5299 6.35128 85.3796 6.25306 85.2063 6.18319M86.0977 7.51959C86.0569 7.31509 85.9979 7.12923 85.9209 6.9629L85.9209 6.96277C85.8406 6.78805 85.7409 6.63945 85.6189 6.51556L85.6185 6.51519L85.6185 6.51518C85.4993 6.39155 85.3551 6.29712 85.1878 6.22964M86.0977 7.51959L83.0687 10.2535M86.0977 7.51959L83.0687 10.2535M85.1878 6.22964C85.1878 6.22967 85.1879 6.22969 85.1879 6.22971L85.2063 6.18319M85.1878 6.22964C85.1877 6.22962 85.1876 6.22959 85.1876 6.22957L85.2063 6.18319M85.1878 6.22964C85.0206 6.16381 84.8273 6.1297 84.6077 6.1297C84.3238 6.1297 84.0909 6.18327 83.9051 6.28745L83.8807 6.24384M85.2063 6.18319C85.0323 6.11464 84.8325 6.0797 84.6077 6.0797C84.3177 6.0797 84.0758 6.13441 83.8807 6.24384M83.8807 6.24384L83.9052 6.28741C83.7177 6.39291 83.5564 6.54059 83.4219 6.73074C83.2888 6.92059 83.1882 7.16126 83.1234 7.4536C83.0589 7.74868 83.0256 8.05093 83.0256 8.36306V9.59373C83.0256 9.71858 83.0296 9.84268 83.0381 9.9667L83.0381 9.96698C83.044 10.0614 83.0545 10.1568 83.0687 10.2535M83.8807 6.24384L83.0687 10.2535M86.2873 11.9595C86.1107 12.2205 85.8839 12.4268 85.607 12.5798C85.3302 12.7327 85 12.8091 84.617 12.8091C84.3052 12.8091 84.025 12.7584 83.7772 12.6575C83.5293 12.5554 83.3171 12.4071 83.1404 12.2106M86.2873 11.9595L86.3284 11.988C86.3284 11.9879 86.3285 11.9878 86.3286 11.9877M86.2873 11.9595L86.3287 11.9875C86.3287 11.9876 86.3286 11.9877 86.3286 11.9877M86.2873 11.9595L86.3286 11.9877M86.3286 11.9877C86.1475 12.2553 85.9148 12.4669 85.6312 12.6235C85.3456 12.7813 85.0066 12.8591 84.617 12.8591C84.2997 12.8591 84.0131 12.8075 83.7584 12.7039L83.7581 12.7038C83.5039 12.5989 83.2856 12.4466 83.1039 12.2447M83.1039 12.2447C83.1041 12.2449 83.1043 12.2451 83.1045 12.2454L83.1404 12.2106M83.1039 12.2447C83.1037 12.2445 83.1035 12.2443 83.1033 12.2441L83.1404 12.2106M83.1039 12.2447C82.837 11.9682 82.6436 11.6269 82.5249 11.2228C82.4061 10.821 82.3462 10.3897 82.3462 9.93188V8.46457C82.3462 8.06529 82.3915 7.68538 82.4829 7.32701C82.5745 6.96805 82.7139 6.6552 82.901 6.38924C83.086 6.1219 83.3194 5.9122 83.6033 5.7601L83.6034 5.76005C83.8887 5.60786 84.2241 5.53203 84.6077 5.53203C84.9285 5.53203 85.2181 5.5864 85.475 5.69553L85.4752 5.69561C85.7295 5.80491 85.9476 5.9564 86.1267 6.15162C86.3834 6.41925 86.5714 6.75878 86.6906 7.16853L86.6906 7.16862C86.8087 7.57734 86.8699 8.00968 86.8739 8.46413L86.8739 8.46457L86.8739 9.93188C86.8739 10.3312 86.8286 10.7077 86.7392 11.0595C86.7392 11.0595 86.7392 11.0595 86.7392 11.0595L83.1404 12.2106M83.381 6.70196C83.2433 6.89839 83.1404 7.14558 83.0745 7.44286C83.0093 7.74146 82.9756 8.04732 82.9756 8.36306V9.59373L83.381 6.70196Z" fill="black" stroke="black" stroke-width="0.1"/>
<path d="M92.4964 12.7162V12.7662H92.5464H93.1258H93.1758V12.7162V5.6875V5.6375H93.1258H93.044H93.0341L93.0249 5.64131L90.5774 6.65511L90.5466 6.66789V6.7013V7.25632V7.33196L90.6162 7.30232L92.4964 6.50141V12.7162Z" fill="black" stroke="black" stroke-width="0.1"/>
<path d="M99.8583 12.2179C100.029 12.2838 100.222 12.3167 100.438 12.3167C100.721 12.3167 100.964 12.2587 101.165 12.1427C101.365 12.0274 101.528 11.8725 101.65 11.6793C101.798 11.4704 101.903 11.2225 101.966 10.9358C102.028 10.6497 102.062 10.3458 102.065 10.0242M99.8583 12.2179L99.8764 12.1713C99.8764 12.1712 99.8763 12.1712 99.8763 12.1712M99.8583 12.2179C99.6883 12.152 99.5413 12.059 99.4187 11.9404L99.8763 12.1712M99.8583 12.2179L99.8763 12.1712M99.8763 12.1712C100.04 12.2346 100.227 12.2667 100.438 12.2667C100.714 12.2667 100.948 12.2102 101.14 12.0994L101.14 12.0994C101.333 11.988 101.49 11.8387 101.608 11.6526L101.609 11.6504L101.609 11.6504C101.753 11.4477 101.855 11.2063 101.917 10.9251L101.917 10.9251C101.979 10.6427 102.012 10.3423 102.015 10.024M102.015 10.024V10.0242H102.065M102.015 10.024C102.015 10.0239 102.015 10.0238 102.015 10.0238L102.065 10.0242M102.015 10.024V8.8851M102.065 10.0242V8.88446M102.065 8.88446L102.015 8.88574C102.015 8.88553 102.015 8.88532 102.015 8.8851M102.065 8.88446C102.062 8.79329 102.058 8.68399 102.053 8.55747C102.052 8.54129 102.051 8.52482 102.051 8.50808M102.065 8.88446H102.015V8.8851M102.015 8.8851C102.012 8.79447 102.008 8.6858 102.003 8.55951C102.002 8.54332 102.001 8.52685 102.001 8.51008L102.051 8.50808M102.051 8.50808L102.001 8.5103C101.996 8.40108 101.988 8.29914 101.978 8.2042M102.051 8.50808L101.978 8.2042M101.978 8.2042L102.024 8.16289L98.9025 10.9068M101.978 8.2042C101.976 8.18345 101.974 8.16304 101.972 8.14296L98.9025 10.9068M98.9025 10.9068L98.9515 10.8966C98.9534 10.906 98.9554 10.9153 98.9574 10.9246L98.936 10.9439L98.9025 10.9068ZM101.742 6.96263L101.742 6.96276C101.818 7.12926 101.878 7.31519 101.918 7.5196L98.8894 10.254C98.8747 10.1573 98.8643 10.0618 98.8588 9.96724L98.8588 9.96696C98.851 9.84277 98.8471 9.71858 98.8471 9.59373V8.36306C98.8471 8.05079 98.879 7.74858 98.9441 7.45371C99.0096 7.16108 99.109 6.92051 99.2433 6.73085L99.2433 6.73073C99.3771 6.54063 99.5384 6.39296 99.7266 6.28745L99.7266 6.28741C99.9117 6.18328 100.145 6.1297 100.429 6.1297C100.648 6.1297 100.841 6.16381 101.009 6.22964C101.176 6.29709 101.319 6.39152 101.44 6.51537C101.561 6.63949 101.662 6.7882 101.742 6.96263ZM102.56 11.0596L102.56 11.0595C102.649 10.7077 102.694 10.3311 102.694 9.93188L102.694 8.46457L102.694 8.46428C102.691 8.00973 102.63 7.57729 102.511 7.16848C102.392 6.75875 102.203 6.41924 101.947 6.15162C101.768 5.95646 101.551 5.80492 101.295 5.69557L101.295 5.69553C101.038 5.58641 100.749 5.53203 100.429 5.53203C100.045 5.53203 99.7101 5.60787 99.4248 5.76005L99.4247 5.7601C99.1408 5.91218 98.9068 6.12186 98.7218 6.38924C98.5346 6.65525 98.3959 6.96812 98.3043 7.32701C98.2129 7.68538 98.1677 8.06529 98.1677 8.46457V9.93188C98.1677 10.3896 98.2262 10.8209 98.3457 11.2228C98.465 11.6269 98.6578 11.9682 98.924 12.2447C99.1063 12.4465 99.3246 12.5989 99.5789 12.7038L99.5791 12.7039C99.8338 12.8075 100.12 12.8591 100.438 12.8591C100.827 12.8591 101.166 12.7813 101.451 12.6235C101.735 12.4669 101.968 12.2553 102.149 11.9877C102.334 11.7219 102.47 11.4124 102.56 11.0596ZM100.438 12.8091C100.126 12.8091 99.8458 12.7584 99.5979 12.6575L102.108 11.9595C101.931 12.2205 101.704 12.4268 101.427 12.5798C101.15 12.7327 100.821 12.8091 100.438 12.8091Z" fill="black" stroke="black" stroke-width="0.1"/>
<path d="M108.317 12.7162V12.7662H108.367H108.947H108.997V12.7162V5.6875V5.6375H108.947H108.864H108.854L108.845 5.64131L106.398 6.65511L106.367 6.66789V6.7013V7.25632V7.33195L106.436 7.30232L108.317 6.5014V12.7162Z" fill="black" stroke="black" stroke-width="0.1"/>
<path d="M0.926229 11.4715L0.926262 11.4716C1.00959 11.6427 1.11298 11.786 1.23683 11.9042L1.23709 11.9044C1.35464 12.0182 1.49519 12.1076 1.65934 12.1712C1.82339 12.2346 2.01027 12.2667 2.22074 12.2667C2.4973 12.2667 2.73021 12.2102 2.92285 12.0994C3.11631 11.988 3.27247 11.8388 3.39001 11.6526L3.39145 11.6504L3.39151 11.6504C3.5354 11.4477 3.63845 11.2063 3.7005 10.9251C3.76165 10.6427 3.79429 10.3423 3.79822 10.0239V8.88542C3.79704 8.85466 3.7958 8.82188 3.79448 8.78708L0.926229 11.4715ZM0.926229 11.4715C0.846304 11.308 0.784875 11.1262 0.741094 10.9246L3.76132 8.20367C3.77149 8.29852 3.77889 8.40058 3.78376 8.51018L0.926229 11.4715ZM3.70146 7.51959L3.72244 7.50066L3.75594 7.53778C3.71441 7.31894 3.65245 7.11987 3.57005 6.94189C3.48766 6.7626 3.38483 6.60901 3.25827 6.48048C3.13368 6.35128 2.98339 6.25306 2.81003 6.18319M3.70146 7.51959C3.66071 7.31509 3.60168 7.12923 3.52468 6.9629L3.52462 6.96277C3.44432 6.78805 3.34462 6.63945 3.22264 6.51556L3.22227 6.51519L3.22227 6.51518C3.10305 6.39155 2.95889 6.29712 2.79153 6.22964M3.70146 7.51959L0.672423 10.2535M3.70146 7.51959L0.672423 10.2535M2.79153 6.22964C2.79159 6.22967 2.79165 6.22969 2.79171 6.22971L2.81003 6.18319M2.79153 6.22964C2.79146 6.22962 2.7914 6.22959 2.79134 6.22957L2.81003 6.18319M2.79153 6.22964C2.62435 6.16381 2.43106 6.1297 2.21151 6.1297C1.92759 6.1297 1.69467 6.18327 1.5089 6.28745L1.48445 6.24384M2.81003 6.18319C2.63601 6.11464 2.43628 6.0797 2.21151 6.0797C1.92147 6.0797 1.67956 6.13441 1.48445 6.24384M1.48445 6.24384L1.50897 6.28741C1.32147 6.39291 1.16014 6.54059 1.02568 6.73074C0.892549 6.92059 0.791948 7.16126 0.727118 7.4536C0.662634 7.74868 0.629408 8.05093 0.629408 8.36306V9.59373C0.629408 9.71858 0.63333 9.84268 0.641816 9.9667L0.641835 9.96698C0.647768 10.0614 0.65824 10.1568 0.672423 10.2535M1.48445 6.24384L0.672423 10.2535M3.89107 11.9595C3.71441 12.2205 3.48766 12.4268 3.21081 12.5798C2.93396 12.7327 2.60371 12.8091 2.22074 12.8091C1.90895 12.8091 1.6288 12.7584 1.38096 12.6575C1.13311 12.5554 0.920857 12.4071 0.7442 12.2106M3.89107 11.9595L3.93215 11.988C3.93221 11.9879 3.93226 11.9878 3.93231 11.9877M3.89107 11.9595L3.93248 11.9875C3.93242 11.9876 3.93237 11.9877 3.93231 11.9877M3.89107 11.9595L3.93231 11.9877M3.93231 11.9877C3.75121 12.2553 3.51858 12.4669 3.23498 12.6235C2.94931 12.7813 2.61039 12.8591 2.22074 12.8591C1.90351 12.8591 1.61682 12.8075 1.36211 12.7039L1.3619 12.7038C1.10762 12.5989 0.889313 12.4466 0.707622 12.2447M0.707622 12.2447C0.707827 12.2449 0.708032 12.2451 0.708236 12.2454L0.7442 12.2106M0.707622 12.2447C0.707423 12.2445 0.707223 12.2443 0.707023 12.2441L0.7442 12.2106M0.707622 12.2447C0.440778 11.9682 0.247319 11.6269 0.128681 11.2228C0.00989305 10.821 -0.05 10.3897 -0.05 9.93188V8.46457C-0.05 8.06529 -0.0047458 7.68538 0.0866812 7.32701C0.178259 6.96805 0.317641 6.6552 0.504786 6.38924C0.689803 6.1219 0.923131 5.9122 1.20706 5.7601L1.20714 5.76005C1.4925 5.60786 1.82783 5.53203 2.21151 5.53203C2.53227 5.53203 2.82185 5.5864 3.07875 5.69553L3.07894 5.69561C3.33329 5.80491 3.55138 5.9564 3.73045 6.15162C3.98712 6.41925 4.17519 6.75878 4.29437 7.16853L4.2944 7.16862C4.41241 7.57734 4.47364 8.00968 4.47763 8.46413L4.47763 8.46457L4.47763 9.93188C4.47763 10.3312 4.43238 10.7077 4.34294 11.0595C4.34294 11.0595 4.34294 11.0595 4.34294 11.0595L0.7442 12.2106M0.984797 6.70196C0.847031 6.89839 0.7442 7.14558 0.678284 7.44286C0.613026 7.74146 0.579408 8.04732 0.579408 8.36306V9.59373L0.984797 6.70196Z" fill="black" stroke="black" stroke-width="0.1"/>
<path d="M10.1001 12.7162V12.7662H10.1501H10.7295H10.7795V12.7162V5.6875V5.6375H10.7295H10.6478H10.6379L10.6287 5.64131L8.18118 6.65511L8.15032 6.66789V6.7013V7.25632V7.33196L8.21991 7.30232L10.1001 6.50141V12.7162Z" fill="black" stroke="black" stroke-width="0.1"/>
<path d="M18.0109 12.7162V12.7662H18.0609H18.6403H18.6903V12.7162V5.6875V5.6375H18.6403H18.5586H18.5486L18.5394 5.64131L16.0919 6.65511L16.0611 6.66789V6.7013V7.25632V7.33196L16.1307 7.30232L18.0109 6.50141V12.7162Z" fill="black" stroke="black" stroke-width="0.1"/>
<path d="M27.4801 10.9358L27.4313 10.9251C27.3699 11.2062 27.2669 11.4477 27.123 11.6504L27.1229 11.6504L27.1215 11.6526C27.004 11.8387 26.8472 11.988 26.6536 12.0994L26.6536 12.0994C26.4617 12.2102 26.2288 12.2667 25.9522 12.2667C25.741 12.2667 25.5542 12.2346 25.3908 12.1713L25.3908 12.1712C25.226 12.1076 25.0854 12.0182 24.9679 11.9044L24.9676 11.9042C24.8438 11.786 24.7404 11.6427 24.657 11.4716L24.6121 11.4934M27.4801 10.9358L27.4313 10.9252C27.4924 10.6427 27.5257 10.3423 27.529 10.0239V8.88527C27.5263 8.80076 27.5222 8.70065 27.5176 8.58539C27.5166 8.56097 27.5156 8.53586 27.5145 8.51008L27.5645 8.50808M27.4801 10.9358C27.4175 11.2225 27.312 11.4704 27.1637 11.6793L27.5382 8.16271C27.5502 8.26884 27.559 8.38383 27.5645 8.50808M27.4801 10.9358C27.5421 10.6497 27.5757 10.3458 27.579 10.0242V8.88446C27.5763 8.79955 27.5722 8.6989 27.5675 8.58327C27.5666 8.55887 27.5655 8.5338 27.5645 8.50808M27.5645 8.50808L27.5146 8.5103C27.5097 8.40084 27.5023 8.29884 27.4924 8.20398L24.4719 10.9246C24.5157 11.1261 24.5777 11.3079 24.6571 11.4716L24.6121 11.4934M24.6121 11.4934C24.6978 11.6694 24.8046 11.8178 24.9331 11.9404M24.6121 11.4934C24.5271 11.3181 24.4618 11.123 24.417 10.9068L24.9331 11.9404M24.9331 11.9404C25.0557 12.059 25.202 12.152 25.3728 12.2179C25.5428 12.2838 25.736 12.3167 25.9522 12.3167C26.2356 12.3167 26.4775 12.2587 26.6786 12.1427L24.9331 11.9404ZM26.9538 6.51528L26.954 6.51546C27.0755 6.63947 27.1758 6.78813 27.2561 6.96276C27.3325 7.12927 27.3921 7.31519 27.4323 7.51954L24.4035 10.2538C24.3891 10.157 24.3786 10.0616 24.3726 9.96698L24.3726 9.96696C24.3648 9.84277 24.3609 9.71858 24.3609 9.59373V8.36306C24.3609 8.05084 24.3934 7.7486 24.4586 7.45364C24.5234 7.16116 24.6234 6.92053 24.7571 6.73076L24.7571 6.73073C24.8909 6.54068 25.0528 6.39296 25.2404 6.28741C25.4255 6.18328 25.6584 6.1297 25.9423 6.1297C26.1618 6.1297 26.3551 6.16381 26.5223 6.22964C26.6897 6.29712 26.8339 6.39156 26.9538 6.51528ZM25.0926 12.7037L25.0929 12.7039C25.3483 12.8075 25.6343 12.8591 25.9522 12.8591C26.3412 12.8591 26.6801 12.7813 26.9658 12.6235C27.2493 12.4669 27.4826 12.2553 27.6631 11.9877C27.8475 11.7219 27.9841 11.4125 28.0737 11.0595C28.1638 10.7077 28.2084 10.3311 28.2084 9.93188L28.2084 8.46457L28.2084 8.46421C28.2051 8.0097 28.1439 7.57731 28.0252 7.16855L28.0252 7.16853C27.906 6.75878 27.7179 6.41925 27.4612 6.15162C27.2822 5.95643 27.0648 5.80491 26.8097 5.69559L26.8095 5.69553C26.5526 5.5864 26.2631 5.53203 25.9423 5.53203C25.5593 5.53203 25.2239 5.60786 24.9386 5.76005L24.9385 5.7601C24.6546 5.91219 24.4213 6.12188 24.2363 6.38921C24.0484 6.65524 23.9097 6.96813 23.8181 7.32701C23.7267 7.68538 23.6814 8.06529 23.6814 8.46457V9.93188C23.6814 10.3897 23.7407 10.821 23.8601 11.2228C23.9788 11.627 24.1723 11.9683 24.4384 12.2447C24.6207 12.4465 24.839 12.5989 25.0926 12.7037Z" fill="black" stroke="black" stroke-width="0.1"/>
<path d="M45.6131 0.757853C42.7912 0.757853 40.332 3.74944 40.332 7.67955C40.332 11.6097 42.7912 14.6012 45.6131 14.6012C48.435 14.6012 50.8941 11.6097 50.8941 7.67955C50.8941 3.74944 48.435 0.757853 45.6131 0.757853Z" stroke="black" stroke-width="0.86" stroke-miterlimit="10" stroke-linecap="round" stroke-linejoin="round"/>
<path d="M51.3241 7.67773H74.043V14.9879" stroke="black" stroke-width="0.86" stroke-miterlimit="10" stroke-linecap="round" stroke-linejoin="round"/>
<path d="M64.8228 15.0293V7.71912" stroke="black" stroke-width="0.86" stroke-miterlimit="10" stroke-linecap="round" stroke-linejoin="round"/>
</g>
<defs>
<clipPath id="clip0_416_25801">
<rect width="109" height="15.4245" fill="white"/>
</clipPath>
</defs>
</svg>
