<svg xmlns="http://www.w3.org/2000/svg" xmlns:xlink="http://www.w3.org/1999/xlink" width="299" height="123" viewBox="0 0 299 123">
  <defs>
    <clipPath id="clip-path">
      <rect id="Rectangle_72" data-name="Rectangle 72" width="299" height="123" transform="translate(0 314.001)" fill="none"/>
    </clipPath>
  </defs>
  <g id="Group_65" data-name="Group 65" transform="translate(0 -314.001)">
    <g id="Group_64" data-name="Group 64" clip-path="url(#clip-path)">
      <path id="Path_169" data-name="Path 169" d="M98.71,383.123a1.593,1.593,0,1,1,1.128-.466A1.588,1.588,0,0,1,98.71,383.123Zm-.818-2.412a1.158,1.158,0,1,0,1.637,0A1.159,1.159,0,0,0,97.892,380.711Z" fill="none" stroke="#b3d9ff" stroke-linecap="round" stroke-linejoin="round" stroke-width="0.5"/>
      <path id="Path_170" data-name="Path 170" d="M106.227,377.568a.219.219,0,0,1-.191-.112,8.384,8.384,0,0,0-14.651,0,.218.218,0,1,1-.382-.212,8.822,8.822,0,0,1,15.415,0,.218.218,0,0,1-.085.3A.216.216,0,0,1,106.227,377.568Z" fill="none" stroke="#b3d9ff" stroke-linecap="round" stroke-linejoin="round" stroke-width="0.5"/>
      <path id="Path_171" data-name="Path 171" d="M104.763,379.032a.219.219,0,0,1-.2-.129,6.358,6.358,0,0,0-1.316-1.909,6.417,6.417,0,0,0-10.39,1.909.219.219,0,0,1-.4-.179,6.853,6.853,0,0,1,12.5,0,.219.219,0,0,1-.11.289A.216.216,0,0,1,104.763,379.032Z" fill="none" stroke="#b3d9ff" stroke-linecap="round" stroke-linejoin="round" stroke-width="0.5"/>
      <path id="Path_172" data-name="Path 172" d="M103.227,380.567a.218.218,0,0,1-.211-.163,4.451,4.451,0,0,0-8.612,0,.218.218,0,1,1-.422-.11,4.888,4.888,0,0,1,9.457,0,.219.219,0,0,1-.157.266A.207.207,0,0,1,103.227,380.567Z" fill="none" stroke="#b3d9ff" stroke-linecap="round" stroke-linejoin="round" stroke-width="0.5"/>
      <path id="Path_173" data-name="Path 173" d="M98.632,394.377a.218.218,0,0,1-.218-.218v-9.192a.218.218,0,1,1,.436,0v9.192A.218.218,0,0,1,98.632,394.377Z" fill="none" stroke="#b3d9ff" stroke-linecap="round" stroke-linejoin="round" stroke-width="0.5"/>
      <path id="Path_174" data-name="Path 174" d="M59.267,384.266v-3.253H53.625v11.978H52.31v3.038h1.315v11.078h1.451V396.029h1.545v-3.038H55.076v-8.725Z" fill="#47433e"/>
      <path id="Path_175" data-name="Path 175" d="M55.294,407.326H53.406V396.248H52.092v-3.475h1.314V380.8h6.079v3.69H55.294v8.288H56.84v3.475H55.294Zm-1.451-.437h1.014V395.811H56.4v-2.6H54.857v-9.161h4.192v-2.817H53.843v11.978H52.528v2.6h1.315Z" fill="#0d0c0d"/>
      <path id="Path_176" data-name="Path 176" d="M99.5,389.814a.9.9,0,1,0-1.462.7v13.217h1.119V390.517a.9.9,0,0,0,.343-.7" fill="#47433e"/>
      <path id="Path_177" data-name="Path 177" d="M99.377,403.952H97.821V390.616a1.121,1.121,0,1,1,1.556,0Zm-1.119-.437h.682v-13.1l.082-.066a.684.684,0,1,0-.846,0l.082.066Z" fill="#0d0c0d"/>
      <rect id="Rectangle_65" data-name="Rectangle 65" width="4.028" height="6.187" transform="translate(96.585 401.777)" fill="#47433e"/>
      <path id="Path_178" data-name="Path 178" d="M100.832,408.182H96.367v-6.623h4.465Zm-4.029-.436h3.592V402H96.8Z" fill="#0d0c0d"/>
      <rect id="Rectangle_66" data-name="Rectangle 66" width="1.094" height="8.837" transform="translate(66.32 398.27)" fill="#0d0c0d"/>
      <path id="Path_179" data-name="Path 179" d="M67.632,407.326H66.1v-9.273h1.531Zm-1.094-.437h.657v-8.4h-.657Z" fill="#0d0c0d"/>
      <rect id="Rectangle_67" data-name="Rectangle 67" width="17.247" height="3.038" transform="translate(52.634 404.159)" fill="#47433e"/>
      <path id="Path_180" data-name="Path 180" d="M70.1,407.415H52.415V403.94H70.1Zm-17.247-.437h16.81v-2.6H52.852Z" fill="#0d0c0d"/>
      <rect id="Rectangle_68" data-name="Rectangle 68" width="4.56" height="6.187" transform="translate(65.089 395.411)" fill="#47433e"/>
      <path id="Path_181" data-name="Path 181" d="M69.868,401.816h-5v-6.623h5Zm-4.56-.437h4.123v-5.75H65.308Z" fill="#0d0c0d"/>
      <rect id="Rectangle_69" data-name="Rectangle 69" width="1.896" height="8.526" transform="translate(68.498 394.241)" fill="#6c6966"/>
      <path id="Path_182" data-name="Path 182" d="M70.613,402.986H68.28v-8.962h2.333Zm-1.9-.437h1.459V394.46H68.717Z" fill="#0d0c0d"/>
      <rect id="Rectangle_70" data-name="Rectangle 70" width="90.322" height="2.373" transform="translate(39.362 405.757)" fill="#85807b"/>
      <path id="Path_183" data-name="Path 183" d="M129.9,408.348H39.143v-2.81H129.9Zm-90.322-.437h89.886v-1.937H39.58Z" fill="#0d0c0d"/>
      <rect id="Rectangle_71" data-name="Rectangle 71" width="99.181" height="2.373" transform="translate(34.932 407.663)" fill="#ecce63"/>
      <path id="Path_184" data-name="Path 184" d="M134.331,410.254H34.713v-2.81h99.618Zm-99.18-.436H133.9v-1.937H35.151Z" fill="#0d0c0d"/>
      <path id="Path_185" data-name="Path 185" d="M65.214,440.617A23.236,23.236,0,0,1,47.8,448.676a.824.824,0,0,1-.673-1.328l.43-.557a.824.824,0,0,1,.7-.319c.708.04,2.059-.115,1.792-1.945-.245-1.683-.73-4.2-1.012-5.629a.823.823,0,0,1,.883-.98l14.742,1.352a.824.824,0,0,1,.558,1.347" fill="#cecdc4"/>
      <path id="Path_186" data-name="Path 186" d="M47.773,448.895a1.042,1.042,0,0,1-.821-1.68l.431-.557a1.042,1.042,0,0,1,.881-.4,1.691,1.691,0,0,0,1.307-.388,1.55,1.55,0,0,0,.256-1.308c-.246-1.691-.739-4.246-1.01-5.618a1.042,1.042,0,0,1,1.117-1.24l14.742,1.352a1.042,1.042,0,0,1,.706,1.7,23.54,23.54,0,0,1-17.577,8.137h-.032m.432-2.2a.6.6,0,0,0-.477.235l-.43.557a.594.594,0,0,0-.06.647.587.587,0,0,0,.554.329,23.1,23.1,0,0,0,17.255-7.98.605.605,0,0,0-.411-.99L49.9,438.136a.6.6,0,0,0-.65.72c.273,1.377.767,3.94,1.015,5.64a1.955,1.955,0,0,1-.367,1.666,2.059,2.059,0,0,1-1.654.529h-.034" fill="#0d0c0d"/>
      <path id="Path_187" data-name="Path 187" d="M123.459,409.985H43.531v8.469h71.463Z" fill="#9e9c93"/>
      <path id="Path_188" data-name="Path 188" d="M115.085,418.673H43.312v-8.906h80.674Zm-71.336-.437H114.9l8.028-8.032H43.749Z" fill="#0d0c0d"/>
      <path id="Path_189" data-name="Path 189" d="M134.285,412.964H40.273a2.419,2.419,0,0,0-2.5,2.334v23.109a2.419,2.419,0,0,0,2.5,2.334l90.939-.319a2.419,2.419,0,0,0,2.5-2.334l3.074-22.79a2.42,2.42,0,0,0-2.5-2.334" fill="#e5e4dd"/>
      <path id="Path_190" data-name="Path 190" d="M40.274,440.959a2.641,2.641,0,0,1-2.716-2.552V415.3a2.641,2.641,0,0,1,2.715-2.553h94.012A2.64,2.64,0,0,1,137,415.3v.029L133.926,438.1a2.641,2.641,0,0,1-2.714,2.537Zm0-27.777a2.2,2.2,0,0,0-2.278,2.116v23.109a2.2,2.2,0,0,0,2.278,2.116l90.939-.32a2.2,2.2,0,0,0,2.278-2.115l0-.03,3.072-22.775a2.206,2.206,0,0,0-2.279-2.1Z" fill="#0d0c0d"/>
      <path id="Path_191" data-name="Path 191" d="M49.877,408.855v6.225a3.353,3.353,0,0,1-3.353,3.353H43.96a3.354,3.354,0,0,1-3.354-3.353v-6.225Z" fill="#cecdc4"/>
      <path id="Path_192" data-name="Path 192" d="M46.523,418.651H43.959a3.576,3.576,0,0,1-3.572-3.572v-6.443H50.1v6.443a3.576,3.576,0,0,1-3.572,3.572m-5.7-9.578v6.006a3.138,3.138,0,0,0,3.135,3.135h2.564a3.138,3.138,0,0,0,3.135-3.135v-6.006Z" fill="#0d0c0d"/>
      <path id="Path_193" data-name="Path 193" d="M48.366,413.567a3.125,3.125,0,1,1-3.124-3.124,3.124,3.124,0,0,1,3.124,3.124" fill="#9e9c93"/>
      <path id="Path_194" data-name="Path 194" d="M45.241,416.91a3.343,3.343,0,1,1,3.343-3.343,3.347,3.347,0,0,1-3.343,3.343m0-6.249a2.906,2.906,0,1,0,2.906,2.906,2.91,2.91,0,0,0-2.906-2.906" fill="#0d0c0d"/>
      <path id="Path_195" data-name="Path 195" d="M45.927,413.567a.686.686,0,1,1-.686-.686.686.686,0,0,1,.686.686" fill="#e5e4dd"/>
      <path id="Path_196" data-name="Path 196" d="M45.241,414.472a.9.9,0,1,1,.9-.9.905.905,0,0,1-.9.9m0-1.372a.467.467,0,1,0,.467.467.468.468,0,0,0-.467-.467" fill="#0d0c0d"/>
      <path id="Path_197" data-name="Path 197" d="M115.408,408.855v6.225a3.353,3.353,0,0,1-3.353,3.353h-2.564a3.354,3.354,0,0,1-3.354-3.353v-6.225Z" fill="#cecdc4"/>
      <path id="Path_198" data-name="Path 198" d="M112.054,418.651h-2.563a3.576,3.576,0,0,1-3.572-3.572v-6.443h9.707v6.443a3.576,3.576,0,0,1-3.572,3.572m-5.7-9.578v6.006a3.138,3.138,0,0,0,3.136,3.135h2.563a3.137,3.137,0,0,0,3.135-3.135v-6.006Z" fill="#0d0c0d"/>
      <path id="Path_199" data-name="Path 199" d="M113.9,413.567a3.125,3.125,0,1,1-3.124-3.124,3.124,3.124,0,0,1,3.124,3.124" fill="#9e9c93"/>
      <path id="Path_200" data-name="Path 200" d="M110.772,416.91a3.343,3.343,0,1,1,3.343-3.343,3.347,3.347,0,0,1-3.343,3.343m0-6.249a2.906,2.906,0,1,0,2.906,2.906,2.91,2.91,0,0,0-2.906-2.906" fill="#0d0c0d"/>
      <path id="Path_201" data-name="Path 201" d="M111.458,413.567a.686.686,0,1,1-.686-.686.686.686,0,0,1,.686.686" fill="#e5e4dd"/>
      <path id="Path_202" data-name="Path 202" d="M110.772,414.472a.9.9,0,1,1,.9-.9.905.905,0,0,1-.9.9m0-1.372a.467.467,0,1,0,.467.467.468.468,0,0,0-.467-.467" fill="#0d0c0d"/>
    </g>
  </g>
</svg>
