<svg xmlns="http://www.w3.org/2000/svg" xmlns:xlink="http://www.w3.org/1999/xlink" width="162.755" height="119.271" viewBox="0 0 162.755 119.271">
  <defs>
    <clipPath id="clip-path">
      <rect id="Rectangle_35" data-name="Rectangle 35" width="4.327" height="3.845" transform="translate(191.518 505.85)" fill="none"/>
    </clipPath>
    <clipPath id="clip-path-2">
      <rect id="Rectangle_36" data-name="Rectangle 36" width="34.917" height="20.357" transform="translate(135.362 516.775)" fill="none"/>
    </clipPath>
    <clipPath id="clip-path-3">
      <rect id="Rectangle_37" data-name="Rectangle 37" width="26.855" height="39.533" transform="translate(242.148 510.146)" fill="none"/>
    </clipPath>
  </defs>
  <g id="Group_127" data-name="Group 127" transform="translate(-128.245 -474.01)">
    <ellipse id="Ellipse_1" data-name="Ellipse 1" cx="2.418" cy="2.269" rx="2.418" ry="2.269" transform="translate(223.422 486.167)" fill="none" stroke="#b3d9ff" stroke-linecap="round" stroke-linejoin="round" stroke-width="0.5"/>
    <path id="Path_73" data-name="Path 73" d="M239.045,481.542a14.267,14.267,0,0,0-2.522-3.134,15.835,15.835,0,0,0-21.368,0,14.239,14.239,0,0,0-2.522,3.134" fill="none" stroke="#b3d9ff" stroke-linecap="round" stroke-linejoin="round" stroke-width="0.5"/>
    <path id="Path_74" data-name="Path 74" d="M236.474,483.955a10.914,10.914,0,0,0-2.392-3.256,12.218,12.218,0,0,0-16.484,0,10.9,10.9,0,0,0-2.393,3.256" fill="none" stroke="#b3d9ff" stroke-linecap="round" stroke-linejoin="round" stroke-width="0.5"/>
    <path id="Path_75" data-name="Path 75" d="M233.776,486.488a7.557,7.557,0,0,0-2.137-3.5,8.586,8.586,0,0,0-11.6,0,7.566,7.566,0,0,0-2.137,3.5" fill="none" stroke="#b3d9ff" stroke-linecap="round" stroke-linejoin="round" stroke-width="0.5"/>
    <line id="Line_2" data-name="Line 2" y2="15.157" transform="translate(225.702 494.104)" fill="none" stroke="#b3d9ff" stroke-linecap="round" stroke-linejoin="round" stroke-width="0.5"/>
    <path id="Path_76" data-name="Path 76" d="M196.352,584.855l8.178-4.039s2.422,3.86-1.587,5.872a4.787,4.787,0,0,1-6.591-1.833" fill="#020202"/>
    <path id="Path_77" data-name="Path 77" d="M176.406,559.424c-9.874-2.692-10.622-6.731-10.622-6.731L160.7,549.4s-4.861-.3-3.665,4.437,17.727,9.175,22.589,11.045,14.136,7.33,15.034,12.267,1.695,7.7,1.695,7.7l8.178-4.039c-.224-.823-18.25-18.7-28.123-21.392M197.2,582.686l-.976-4.407a1.184,1.184,0,0,1,1.927-1.154l3.861,3.317Z" fill="#020202"/>
    <path id="Path_78" data-name="Path 78" d="M201.477,583.359a.674.674,0,1,1-.674-.674A.674.674,0,0,1,201.477,583.359Z" fill="none" stroke="#333" stroke-miterlimit="10" stroke-width="0.5"/>
    <path id="Path_79" data-name="Path 79" d="M192.456,519.742l-25.842,30.847-.242,3.669a3.449,3.449,0,0,1-6.889-.35l.243-6.825,18.658-27.245Z" fill="#191816"/>
    <path id="Path_80" data-name="Path 80" d="M181.579,528.647s-12.31,14.517-11.379,15.519,1.433.4,1.433.4l19.643-23.454-9.186,6.4Z" fill="#3d3d3d"/>
    <path id="Path_81" data-name="Path 81" d="M160.7,545.661s.163,1.158,2.55-.917,20.6-24.866,20.6-24.866l-5.718.1Z" fill="#3d3d3d"/>
    <circle id="Ellipse_2" data-name="Ellipse 2" cx="2.194" cy="2.194" r="2.194" transform="translate(160.698 551.645)" fill="none" stroke="#333" stroke-miterlimit="10" stroke-width="0.5"/>
    <path id="Path_82" data-name="Path 82" d="M163.566,553.839a.674.674,0,1,1-.674-.674A.674.674,0,0,1,163.566,553.839Z" fill="none" stroke="#333" stroke-miterlimit="10" stroke-width="0.5"/>
    <path id="Path_83" data-name="Path 83" d="M241.965,581.552l9.042,1.2s-.135,4.555-4.586,4a4.787,4.787,0,0,1-4.456-5.191" fill="#020202"/>
    <path id="Path_84" data-name="Path 84" d="M239.545,549.323c-6.705-7.731-5.079-11.5-5.079-11.5l-2.4-5.565s-3.872-2.954-5.514,1.648,9.623,17.488,12.621,21.747,7.667,13.957,5.665,18.558-2.878,7.344-2.878,7.344l9.042,1.2c.271-.808-4.758-25.692-11.462-33.424m4.331,30.9,1.641-4.2a1.184,1.184,0,0,1,2.244.113l1.361,4.9Z" fill="#020202"/>
    <path id="Path_85" data-name="Path 85" d="M247.055,583.162a.674.674,0,1,1-.185-.935A.674.674,0,0,1,247.055,583.162Z" fill="none" stroke="#333" stroke-miterlimit="10" stroke-width="0.5"/>
    <path id="Path_86" data-name="Path 86" d="M266.1,526.955l-28.963,7.956-2.295,2.873a3.449,3.449,0,0,1-5.454-4.223l4.1-5.463,22.052-8.376Z" fill="#191816"/>
    <path id="Path_87" data-name="Path 87" d="M166.644,507.4l4.36-2.282,8.3-.48,71.572,1.381,8.41-1.879,19.049.5,3.714,2.762,1.372,11.169-6.084,9.994-10.671.634-17.674-2.377-60.385-.333-8.318.485-17.366-1.91Z" fill="#191816"/>
    <path id="Path_88" data-name="Path 88" d="M187.356,511.657h28.485a3.071,3.071,0,0,1,1.306.292l7.379,3.476a5.194,5.194,0,0,0,2.213.495h31l-.9,6.2,4.188.985-3.427,4.1a3.784,3.784,0,0,1-2.9,1.358H244.126a3.786,3.786,0,0,1-2.624.96l-29.552-.8a7.16,7.16,0,0,1-1.012-.1l-9.953-1.7a4.032,4.032,0,0,0-.835-.055l-16.459.638v-.654l1.577-.168a2.335,2.335,0,0,0,2.088-2.322Z" fill="#eda400"/>
    <path id="Path_89" data-name="Path 89" d="M212.3,513.743H195.674a1.03,1.03,0,0,1-1.029-1.03v-2.866a1.03,1.03,0,0,1,1.029-1.03H212.3a1.03,1.03,0,0,1,1.03,1.03v2.866a1.03,1.03,0,0,1-1.03,1.03" fill="#0b0904"/>
    <path id="Path_90" data-name="Path 90" d="M189.176,504.636h-7.567v-1.8a1.291,1.291,0,0,1,1.292-1.292h4.983a1.291,1.291,0,0,1,1.292,1.292Z" fill="#2a2118"/>
    <path id="Path_91" data-name="Path 91" d="M226.144,504.636h-7.567v-1.8a1.291,1.291,0,0,1,1.292-1.292h4.983a1.291,1.291,0,0,1,1.292,1.292Z" fill="#2a2118"/>
    <path id="Path_92" data-name="Path 92" d="M160.953,521.242l-1.642-7.458a3.621,3.621,0,0,1-.079-.952l.207-4.029a1.756,1.756,0,0,1,1.36-1.621l13.218-3.043H282.048v.5H259.759l-.527,6.856a1.3,1.3,0,0,1-1.294,1.2H221.613l-9.149-4.562a1.658,1.658,0,0,0-.741-.175H195.918a1.66,1.66,0,0,0-.924.281l-2.4,2.019a2.394,2.394,0,0,1-1.332.4h-3.76l-1.275-4.563a1.449,1.449,0,0,0-1.4-1.059H173.588a2.061,2.061,0,0,0-1.1.316l-2.508,1.579a2.057,2.057,0,0,0-.957,1.862l.6,10.094Z" fill="#ffb600"/>
    <path id="Path_93" data-name="Path 93" d="M243.453,504.139H174.017L160.8,507.183a1.755,1.755,0,0,0-1.359,1.621l-.053,1.034,9.642-1.045a2.054,2.054,0,0,1,.956-1.861l2.509-1.579a2.049,2.049,0,0,1,1.1-.316h11.247a1.448,1.448,0,0,1,1.395,1.058l1.275,4.563h3.761a2.39,2.39,0,0,0,1.331-.4l2.4-2.02a1.659,1.659,0,0,1,.924-.28h15.8s.167-1.646,2.86-2.244c3.773-.839,12.18-1.38,28.871-1.571" fill="#fad109"/>
    <g id="Group_32" data-name="Group 32" opacity="0.72">
      <g id="Group_31" data-name="Group 31">
        <g id="Group_30" data-name="Group 30" clip-path="url(#clip-path)">
          <path id="Path_94" data-name="Path 94" d="M191.544,509.15s.449-2.244,1.72-2.992,2.843.046,2.543.472-3.365,2.6-3.59,2.894-.833.224-.673-.374" fill="#fff"/>
        </g>
      </g>
    </g>
    <path id="Path_95" data-name="Path 95" d="M257.739,515.921l-.9,6.2,4.189.985-3.428,4.1a3.787,3.787,0,0,1-2.9,1.358H244.126a3.792,3.792,0,0,1-2.624.959l-29.552-.8a7.131,7.131,0,0,1-1.012-.1l-9.954-1.7a4.018,4.018,0,0,0-.835-.054l-20.046.637v-.653l5.164-.168a2.337,2.337,0,0,0,2.089-2.323v-8l8.489,6.352h55.536s5.834-2.837,6.358-6.8" fill="#c80"/>
    <path id="Path_96" data-name="Path 96" d="M201.277,526.857l43.9-.372a2.076,2.076,0,0,1,2.1,2.076" fill="none" stroke="#a07022" stroke-miterlimit="10" stroke-width="0.5"/>
    <path id="Path_97" data-name="Path 97" d="M211.842,513.314H196.129a.969.969,0,0,1-.97-.969v-2.7a.969.969,0,0,1,.97-.969h15.713a.969.969,0,0,1,.969.969v2.7a.969.969,0,0,1-.969.969" fill="#ffb600"/>
    <path id="Path_98" data-name="Path 98" d="M210.907,512.389h-5.815a.533.533,0,0,1-.533-.533v-1.485a.534.534,0,0,1,.533-.534h5.815a.533.533,0,0,1,.533.534v1.485a.533.533,0,0,1-.533.533" fill="#100f0d"/>
    <path id="Path_99" data-name="Path 99" d="M202.978,512.389H201.1a.533.533,0,0,1-.533-.533v-1.485a.534.534,0,0,1,.533-.534h1.875a.533.533,0,0,1,.533.534v1.485a.533.533,0,0,1-.533.533" fill="#100f0d"/>
    <path id="Path_100" data-name="Path 100" d="M198.789,512.389h-1.875a.533.533,0,0,1-.533-.533v-1.485a.534.534,0,0,1,.533-.534h1.875a.533.533,0,0,1,.533.534v1.485a.533.533,0,0,1-.533.533" fill="#100f0d"/>
    <path id="Path_101" data-name="Path 101" d="M278.245,505.118l11.158,1.793a1.766,1.766,0,0,1,1.483,1.636l.11,1.808a1.757,1.757,0,0,1-.158.845l-8.266,18h-10.1s3.889-.036,5.236-2.711c.962-1.911,2.42-4.938,3.174-6.511a4.992,4.992,0,0,0,.49-2.158v-9.332a2.564,2.564,0,0,0-1.394-2.282l-1.789-.918a.089.089,0,0,1,.054-.166" fill="#ffb600"/>
    <path id="Path_102" data-name="Path 102" d="M288.67,515.921l-6.1,13.275h-10.1s3.89-.036,5.236-2.711c.962-1.911,2.42-4.938,3.174-6.511a4.992,4.992,0,0,0,.49-2.158v-5.125Z" fill="#c80"/>
    <path id="Path_103" data-name="Path 103" d="M279.655,529.2h2.917l8.267-17.995a1.772,1.772,0,0,0,.158-.846l-.111-1.808a1.766,1.766,0,0,0-1.483-1.636,13.984,13.984,0,0,1-1.371,5.479c-1.34,2.655-8.377,16.806-8.377,16.806" fill="#fad109"/>
    <path id="Path_104" data-name="Path 104" d="M222.231,510.183v-3.264H223.3a1.236,1.236,0,0,1,.8.22.792.792,0,0,1,.267.65.665.665,0,0,1-.129.4.846.846,0,0,1-.355.273.752.752,0,0,1,.418.281.8.8,0,0,1,.154.494.874.874,0,0,1-.285.691,1.177,1.177,0,0,1-.8.251Zm.43-1.872h.65a.68.68,0,0,0,.452-.142.476.476,0,0,0,.169-.384.467.467,0,0,0-.157-.392.775.775,0,0,0-.477-.122h-.637Zm0,.345v1.175h.71a.685.685,0,0,0,.475-.156.549.549,0,0,0,.173-.429q0-.59-.641-.59Z" fill="#666"/>
    <path id="Path_105" data-name="Path 105" d="M224.914,508.948a1.437,1.437,0,0,1,.14-.641,1.04,1.04,0,0,1,.39-.44,1.064,1.064,0,0,1,.571-.154,1.021,1.021,0,0,1,.8.343,1.317,1.317,0,0,1,.306.912V509a1.455,1.455,0,0,1-.136.636,1.027,1.027,0,0,1-.388.438,1.078,1.078,0,0,1-.579.157,1.022,1.022,0,0,1-.8-.343,1.313,1.313,0,0,1-.306-.908Zm.417.049a1.037,1.037,0,0,0,.187.648.635.635,0,0,0,1,0,1.138,1.138,0,0,0,.186-.694,1.038,1.038,0,0,0-.189-.647.6.6,0,0,0-.5-.248.6.6,0,0,0-.5.245,1.129,1.129,0,0,0-.188.7" fill="#666"/>
    <path id="Path_106" data-name="Path 106" d="M229.054,509.54a.306.306,0,0,0-.126-.261,1.231,1.231,0,0,0-.442-.16,2.079,2.079,0,0,1-.5-.162.694.694,0,0,1-.273-.224.53.53,0,0,1-.089-.309.628.628,0,0,1,.252-.5.983.983,0,0,1,.645-.207,1.015,1.015,0,0,1,.669.213.677.677,0,0,1,.256.545h-.417a.375.375,0,0,0-.144-.294.544.544,0,0,0-.364-.123.569.569,0,0,0-.355.1.308.308,0,0,0-.127.257.253.253,0,0,0,.118.227,1.49,1.49,0,0,0,.43.146,2.243,2.243,0,0,1,.5.165.741.741,0,0,1,.286.232.573.573,0,0,1,.093.331.621.621,0,0,1-.26.521,1.092,1.092,0,0,1-.675.2,1.222,1.222,0,0,1-.516-.1.84.84,0,0,1-.35-.288.688.688,0,0,1-.127-.4h.415a.429.429,0,0,0,.167.331.649.649,0,0,0,.411.122.666.666,0,0,0,.378-.1.291.291,0,0,0,.142-.254" fill="#666"/>
    <path id="Path_107" data-name="Path 107" d="M230.571,507.17v.587h.453v.321h-.453v1.506a.341.341,0,0,0,.06.219.258.258,0,0,0,.207.072.984.984,0,0,0,.2-.026v.334a1.194,1.194,0,0,1-.318.044.519.519,0,0,1-.42-.168.722.722,0,0,1-.141-.477v-1.5h-.441v-.321h.441v-.587Z" fill="#666"/>
    <path id="Path_108" data-name="Path 108" d="M231.353,508.948a1.437,1.437,0,0,1,.14-.641,1.04,1.04,0,0,1,.39-.44,1.064,1.064,0,0,1,.571-.154,1.021,1.021,0,0,1,.8.343,1.317,1.317,0,0,1,.306.912V509a1.455,1.455,0,0,1-.136.636,1.027,1.027,0,0,1-.388.438,1.078,1.078,0,0,1-.579.157,1.022,1.022,0,0,1-.8-.343,1.313,1.313,0,0,1-.306-.908Zm.417.049a1.037,1.037,0,0,0,.187.648.635.635,0,0,0,1,0,1.138,1.138,0,0,0,.186-.694,1.038,1.038,0,0,0-.189-.647.6.6,0,0,0-.5-.248.6.6,0,0,0-.5.245,1.129,1.129,0,0,0-.188.7" fill="#666"/>
    <path id="Path_109" data-name="Path 109" d="M234.474,507.758l.013.3a.887.887,0,0,1,.727-.35q.768,0,.775.868v1.6h-.414v-1.605a.564.564,0,0,0-.12-.388.485.485,0,0,0-.367-.125.6.6,0,0,0-.354.108.736.736,0,0,0-.238.282v1.728h-.414v-2.425Z" fill="#666"/>
    <path id="Path_110" data-name="Path 110" d="M236.68,510.183v-3.264h.92a1.493,1.493,0,0,1,.754.188,1.268,1.268,0,0,1,.5.536,1.75,1.75,0,0,1,.181.8v.208a1.764,1.764,0,0,1-.178.81,1.26,1.26,0,0,1-.509.533,1.573,1.573,0,0,1-.769.191Zm.429-2.912v2.56h.454a.983.983,0,0,0,.774-.31,1.28,1.28,0,0,0,.276-.881v-.191a1.3,1.3,0,0,0-.261-.865.927.927,0,0,0-.741-.313Z"/>
    <path id="Path_111" data-name="Path 111" d="M240.418,509.576l.565-1.818h.444l-.975,2.8q-.227.6-.72.6l-.078-.007-.155-.029v-.336l.112.009a.554.554,0,0,0,.328-.085.61.61,0,0,0,.194-.312l.092-.246-.865-2.4h.453Z"/>
    <path id="Path_112" data-name="Path 112" d="M242.189,507.758l.013.3a.887.887,0,0,1,.727-.35q.768,0,.775.868v1.6h-.414v-1.605a.564.564,0,0,0-.12-.388.485.485,0,0,0-.367-.125.6.6,0,0,0-.354.108.736.736,0,0,0-.238.282v1.728H241.8v-2.425Z"/>
    <path id="Path_113" data-name="Path 113" d="M245.826,510.183a.874.874,0,0,1-.058-.255.927.927,0,0,1-.691.3.856.856,0,0,1-.588-.2.657.657,0,0,1-.23-.514.687.687,0,0,1,.288-.589,1.366,1.366,0,0,1,.811-.209h.4v-.191a.464.464,0,0,0-.13-.346.52.52,0,0,0-.383-.129.6.6,0,0,0-.372.112.332.332,0,0,0-.151.271h-.416a.567.567,0,0,1,.128-.35.875.875,0,0,1,.35-.268,1.172,1.172,0,0,1,.485-.1.961.961,0,0,1,.657.209.757.757,0,0,1,.247.578v1.116a1.357,1.357,0,0,0,.085.531v.036Zm-.688-.316a.733.733,0,0,0,.37-.1.607.607,0,0,0,.253-.262v-.5h-.325q-.762,0-.762.446a.376.376,0,0,0,.13.3.5.5,0,0,0,.334.11"/>
    <path id="Path_114" data-name="Path 114" d="M247.216,507.758l.011.269a.9.9,0,0,1,.72-.314.692.692,0,0,1,.692.39.905.905,0,0,1,.774-.39q.8,0,.811.845v1.625h-.415v-1.6a.557.557,0,0,0-.118-.389.525.525,0,0,0-.4-.129.552.552,0,0,0-.384.138.563.563,0,0,0-.177.371v1.609h-.417v-1.589a.462.462,0,0,0-.517-.529.557.557,0,0,0-.559.347v1.771h-.414v-2.425Z"/>
    <path id="Path_115" data-name="Path 115" d="M250.852,507.114a.243.243,0,0,1,.062-.17.23.23,0,0,1,.182-.069.236.236,0,0,1,.184.069.243.243,0,0,1,.063.17.233.233,0,0,1-.063.168.239.239,0,0,1-.184.068.224.224,0,0,1-.244-.236m.448,3.069h-.415v-2.425h.415Z"/>
    <path id="Path_116" data-name="Path 116" d="M252.936,509.889a.6.6,0,0,0,.388-.134.473.473,0,0,0,.184-.337h.392a.756.756,0,0,1-.143.4.937.937,0,0,1-.354.3,1.011,1.011,0,0,1-.467.112,1,1,0,0,1-.788-.33,1.317,1.317,0,0,1-.292-.9v-.069a1.457,1.457,0,0,1,.13-.63.987.987,0,0,1,.373-.428,1.066,1.066,0,0,1,.575-.152.972.972,0,0,1,.678.244.873.873,0,0,1,.288.634h-.392a.572.572,0,0,0-.179-.386.551.551,0,0,0-.395-.152.58.58,0,0,0-.49.228,1.068,1.068,0,0,0-.173.658v.078a1.048,1.048,0,0,0,.172.646.582.582,0,0,0,.493.226"/>
    <path id="Path_117" data-name="Path 117" d="M255.779,509.54a.307.307,0,0,0-.127-.261,1.216,1.216,0,0,0-.441-.16,2.064,2.064,0,0,1-.5-.162.687.687,0,0,1-.273-.224.53.53,0,0,1-.089-.309.628.628,0,0,1,.252-.5.982.982,0,0,1,.644-.207,1.015,1.015,0,0,1,.67.213.677.677,0,0,1,.256.545h-.417a.373.373,0,0,0-.145-.294.542.542,0,0,0-.364-.123.566.566,0,0,0-.354.1.305.305,0,0,0-.127.257.253.253,0,0,0,.118.227,1.49,1.49,0,0,0,.43.146,2.216,2.216,0,0,1,.5.165.734.734,0,0,1,.286.232.566.566,0,0,1,.094.331.621.621,0,0,1-.26.521,1.093,1.093,0,0,1-.676.2,1.217,1.217,0,0,1-.515-.1.84.84,0,0,1-.35-.288.688.688,0,0,1-.127-.4h.414a.43.43,0,0,0,.168.331.647.647,0,0,0,.41.122.669.669,0,0,0,.379-.1.291.291,0,0,0,.142-.254"/>
    <path id="Path_118" data-name="Path 118" d="M136.785,544.01l10.655,12.865s11.868,25.431,12.765,26.927,1.795,4.388,1.3,4.487h-1.995s-1.9-6.681-3.59-6.083-2.693,6.083-2.693,6.083H151.23a67.955,67.955,0,0,1,3.131-7.18c1.057-1.7-3.63-11.668-11.11-20.245s-17.053-20.045-13.662-22.937,7.2,6.083,7.2,6.083" fill="#191919"/>
    <path id="Path_119" data-name="Path 119" d="M129.588,537.927c3.391-2.892,7.2,6.083,7.2,6.083l10.655,12.865s11.868,25.431,12.766,26.927,1.795,4.388,1.3,4.488l-1.475-.009a98.274,98.274,0,0,0-15.379-30.608c-11.07-14.46-15.059-19.746-15.059-19.746" fill="#3d3d3d"/>
    <path id="Path_120" data-name="Path 120" d="M151.229,588.29H161.5s.6,4.787-5.136,4.986-5.136-4.986-5.136-4.986" fill="#191919"/>
    <path id="Path_121" data-name="Path 121" d="M156.872,590.383a.727.727,0,1,1-.739-.715A.726.726,0,0,1,156.872,590.383Z" fill="none" stroke="#333" stroke-miterlimit="10" stroke-width="0.5"/>
    <path id="Path_122" data-name="Path 122" d="M180.993,511s-3.112-5.045-8.228-3.715c-5.758,1.5-6.878,13.841-6.878,13.841s.074,1.421,1.047.673,1.244-13.3,6.056-13.585,6.657,4.16,7.4,4.062.6-1.276.6-1.276" fill="#3a3634"/>
    <path id="Path_123" data-name="Path 123" d="M171.538,517.178s-1.39-3.909,2.2-4.9a7.269,7.269,0,0,1,6.086.924l.571-.924s-4.866-3.383-8.227-.286a4.814,4.814,0,0,0-.9,6.464Z" fill="#3a3634"/>
    <path id="Path_124" data-name="Path 124" d="M161.789,520.771s-.075-4.169,1.87-5.282,2.994-2.164,3.366-1.561,1.5,3.964,1.5,3.964Z" fill="#191816"/>
    <path id="Path_125" data-name="Path 125" d="M172.191,528.079l.929,1.977,11.818-5.268-1.047-2.244Z"/>
    <path id="Path_126" data-name="Path 126" d="M128.495,545.435l10.191-14.344a1.349,1.349,0,0,1,.445-.4l16.864-9.367a1.349,1.349,0,0,1,1.527.15,1.353,1.353,0,0,0,1.49.169l21.465-11.052a4.071,4.071,0,0,1,5.5,1.8l2.242,4.484a4.071,4.071,0,0,1-1.975,5.536l-46.91,21.031a1.354,1.354,0,0,0-.594.519l-3.339,5.373a1.349,1.349,0,0,1-1.765.487l-4.664-2.405a1.35,1.35,0,0,1-.482-1.982" fill="#ffb600"/>
    <path id="Path_127" data-name="Path 127" d="M180.477,510.592l-21.466,11.052a1.349,1.349,0,0,1-1.489-.169,1.35,1.35,0,0,0-1.527-.149l-16.865,9.366a1.35,1.35,0,0,0-.445.4l-10.19,14.343a1.35,1.35,0,0,0,.481,1.982s4.78-8.293,6.386-9.589c1.344-1.085,30.959-14.86,40.589-19.327a6.788,6.788,0,0,0,3.752-4.608Z" fill="#fad109"/>
    <g id="Group_35" data-name="Group 35" opacity="0.72">
      <g id="Group_34" data-name="Group 34">
        <g id="Group_33" data-name="Group 33" clip-path="url(#clip-path-2)">
          <path id="Path_128" data-name="Path 128" d="M136.51,535.733s33.468-19.447,33.767-18.948-35.025,20.643-34.915,20.344a10.234,10.234,0,0,1,1.148-1.4" fill="#fff"/>
        </g>
      </g>
    </g>
    <path id="Path_129" data-name="Path 129" d="M279.884,590.319l8.757-4.5s2.683,4.125-1.61,6.367a5.168,5.168,0,0,1-7.147-1.863" fill="#191919"/>
    <path id="Path_130" data-name="Path 130" d="M258.172,562.537c-10.514-3.4-11.849-6.4-11.849-6.4l-5.549-3.464s-5.252-.237-3.877,4.855,19.3,9.593,24.577,11.527,15.389,7.664,16.445,12.978,1.965,8.286,1.965,8.286l8.757-4.5c-.257-.884-18.156-19.3-30.469-23.279m22.589,25.426-1.131-4.74a1.278,1.278,0,0,1,2.06-1.279l4.226,3.512Z" fill="#191919"/>
    <path id="Path_131" data-name="Path 131" d="M285.9,589.379a.727.727,0,1,1-.739-.715A.726.726,0,0,1,285.9,589.379Z" fill="none" stroke="#333" stroke-miterlimit="10" stroke-width="0.5"/>
    <path id="Path_132" data-name="Path 132" d="M270.226,507.355l-13.682,19.781a2.154,2.154,0,0,1-2.766.683.873.873,0,0,0-1.139.3l-10.079,15.8a4.8,4.8,0,0,0-.705,1.913l-1.919,13.725a3.567,3.567,0,1,0,7.084.837l.324-3.35a6.388,6.388,0,0,1,1.465-3.492l32.146-38.3a2.926,2.926,0,0,0-.538-4.262l-6.081-4.352a2.927,2.927,0,0,0-4.11.715" fill="#ffb600"/>
    <path id="Path_133" data-name="Path 133" d="M241.128,562.747a3.56,3.56,0,0,1-1.192-3.187l1.918-13.724a4.777,4.777,0,0,1,.707-1.914l10.077-15.8a.873.873,0,0,1,1.139-.3,2.151,2.151,0,0,0,2.766-.683l13.682-19.781s2.89,2.841-.476,7.778-26.03,32.761-26.7,35.453-1.918,12.161-1.918,12.161" fill="#fad109"/>
    <g id="Group_38" data-name="Group 38" opacity="0.72">
      <g id="Group_37" data-name="Group 37">
        <g id="Group_36" data-name="Group 36" clip-path="url(#clip-path-3)">
          <path id="Path_134" data-name="Path 134" d="M242.747,548.118s25.506-37.747,26.029-37.947.075.845-.673,1.856-26.029,38.441-25.954,37.64a3.729,3.729,0,0,1,.6-1.549" fill="#fff"/>
        </g>
      </g>
    </g>
  </g>
</svg>
