<svg width="37" height="60" viewBox="0 0 37 60" fill="none" xmlns="http://www.w3.org/2000/svg">
<path d="M0.25 30.24L18.33 40.93L0.25 30.24Z" fill="#010101" stroke="#1717B0" stroke-width="0.5" stroke-linecap="round" stroke-linejoin="round"/>
<path d="M36.4101 30.24L18.3301 40.93L36.4101 30.24Z" fill="#010101" stroke="#1717B0" stroke-width="0.5" stroke-linecap="round" stroke-linejoin="round"/>
<path d="M5.20999 22.03L0.25 30.24L18.33 22.03V0.25L5.20999 22.03Z" fill="#CFC5FB" stroke="#1717B0" stroke-width="0.5" stroke-linecap="round" stroke-linejoin="round"/>
<path d="M18.33 22.03L0.25 30.24L18.33 40.93V22.03Z" fill="#81A8F8" stroke="#1717B0" stroke-width="0.5" stroke-linecap="round" stroke-linejoin="round"/>
<path d="M31.4601 22.03L18.3301 0.25V22.03L36.4101 30.24L31.4601 22.03Z" fill="#A6FCF6" stroke="#1717B0" stroke-width="0.5" stroke-linecap="round" stroke-linejoin="round"/>
<path d="M18.3301 22.03V40.93L36.4101 30.24L18.3301 22.03Z" fill="#CEB0FA" stroke="#1717B0" stroke-width="0.5" stroke-linecap="round" stroke-linejoin="round"/>
<path d="M0.25 33.67L18.33 59.15V44.35L0.25 33.67Z" fill="#81A8F8" stroke="#1717B0" stroke-width="0.5" stroke-linecap="round" stroke-linejoin="round"/>
<path d="M18.3301 44.35V59.15L36.4201 33.67L18.3301 44.35Z" fill="#CEB0FA" stroke="#1717B0" stroke-width="0.5" stroke-linecap="round" stroke-linejoin="round"/>
</svg>
