<svg width="75" height="75" viewBox="0 0 75 75" fill="none" xmlns="http://www.w3.org/2000/svg">
<path d="M37.5796 63.613C51.3647 63.613 62.5396 52.438 62.5396 38.653C62.5396 24.868 51.3647 13.693 37.5796 13.693C23.7946 13.693 12.6196 24.868 12.6196 38.653C12.6196 52.438 23.7946 63.613 37.5796 63.613Z" fill="#C6FE6A" stroke="black" stroke-miterlimit="10"/>
<path d="M25.0895 33.533C26.7195 33.363 30.2195 32.323 31.0995 30.493C31.9795 28.663 33.5095 26.143 38.5295 28.013C40.5795 28.783 42.1495 23.283 40.5595 21.983C39.2195 20.883 38.0695 21.453 34.7895 18.703C31.5095 15.953 30.7795 17.783 27.2095 17.623C26.5095 17.593 25.7595 17.393 24.9895 17.093C19.9195 20.053 15.9895 24.753 14.0195 30.373C14.5495 31.483 15.1295 32.543 15.7495 33.403C18.6095 37.423 21.5095 36.293 23.7095 40.273C25.9095 44.253 22.2595 44.973 26.9595 47.073C31.6595 49.173 30.3395 56.303 31.4195 59.313C32.4995 62.323 34.7995 60.033 35.3995 58.523C35.9995 57.013 34.9195 53.773 38.7595 48.763C42.5995 43.763 39.8595 41.473 35.1595 39.423C30.4595 37.373 29.3995 39.303 26.4795 38.123C23.5595 36.943 23.3895 33.693 25.0895 33.513V33.533Z" fill="#C6FE6A" stroke="black" stroke-miterlimit="10"/>
<path d="M52.1697 18.403C50.0397 19.043 47.9297 20.033 47.6097 21.483C46.9397 24.513 47.3697 25.873 50.0697 26.343C52.7697 26.813 54.9897 24.243 54.9397 27.223C54.8897 30.213 49.5997 29.383 47.5197 29.743C45.4397 30.113 46.1897 31.293 45.5397 32.583C44.8897 33.873 41.4797 37.393 44.8797 38.703C48.2697 40.013 53.5097 39.433 53.6097 42.663C53.7097 45.893 53.6697 47.863 52.7597 48.943C51.8497 50.023 48.5897 53.033 50.7197 53.573C51.9697 53.893 55.4497 53.3129 58.4597 52.3329C61.0397 48.4029 62.5497 43.703 62.5497 38.653C62.5497 30.313 58.4597 22.933 52.1797 18.403H52.1697Z" fill="#C6FE6A" stroke="black" stroke-miterlimit="10"/>
<path d="M54.0598 16.283C64.4398 7.42299 72.1698 2.40298 73.7198 3.95298C76.1598 6.38298 62.5498 24.013 43.3298 43.333C24.0998 62.653 6.53978 76.343 4.09978 73.913C2.53978 72.363 7.51978 64.613 16.3298 54.193" stroke="black" stroke-linecap="round" stroke-linejoin="round" stroke-dasharray="4 4"/>
<path d="M3.71559 34.2131L-0.00439453 34.2222L0.00469514 37.9422L3.72468 37.9331L3.71559 34.2131Z" fill="black"/>
<path d="M50.4509 3.72907L46.731 3.73816L46.74 7.45815L50.46 7.44906L50.4509 3.72907Z" fill="black"/>
<path d="M74.1433 57.871L70.4233 57.8801L70.4324 61.6001L74.1524 61.591L74.1433 57.871Z" fill="black"/>
<path d="M54.1619 4.56998e-06L50.4419 0.00909424L50.451 3.72908L54.171 3.71999L54.1619 4.56998e-06Z" fill="black"/>
<path d="M20.4801 16.283C10.1001 7.42299 2.37008 2.40298 0.820079 3.95298C-1.61992 6.38298 11.9901 24.013 31.2101 43.333C50.4401 62.653 68.0001 76.343 70.4401 73.913C72.0001 72.363 67.0201 64.613 58.2101 54.193" stroke="black" stroke-linecap="round" stroke-linejoin="round" stroke-dasharray="4 4"/>
</svg>
