<svg width="40" height="40" viewBox="0 0 40 40" fill="none" xmlns="http://www.w3.org/2000/svg">
<path d="M28.8401 0H10.9943C4.93148 0 0 4.86747 0 10.8516V28.4657C0 34.4498 4.93148 39.3172 10.9943 39.3172H28.8401C34.9029 39.3172 39.8343 34.4498 39.8343 28.4657V10.8516C39.8343 4.86747 34.9029 0 28.8401 0ZM36.297 28.4657C36.297 32.5232 32.951 35.8259 28.8401 35.8259H10.9943C6.88336 35.8259 3.53729 32.5232 3.53729 28.4657V10.8516C3.53729 6.79402 6.88336 3.49137 10.9943 3.49137H28.8401C32.951 3.49137 36.297 6.79402 36.297 10.8516V28.4657Z" fill="white"/>
<path d="M30.6087 6.56592C29.9235 6.56592 29.2623 6.84114 28.7763 7.31295C28.2903 7.78475 28.0115 8.44528 28.0115 9.12154C28.0115 9.79779 28.2903 10.4505 28.7763 10.9301C29.2543 11.4019 29.9235 11.6772 30.6087 11.6772C31.2938 11.6772 31.9551 11.4019 32.4411 10.9301C32.927 10.4505 33.1979 9.78993 33.1979 9.12154C33.1979 8.45314 32.9191 7.78475 32.4411 7.31295C31.963 6.83327 31.2938 6.56592 30.6087 6.56592Z" fill="white"/>
<path d="M19.9172 9.53052C14.2607 9.53052 9.65582 14.0756 9.65582 19.6586C9.65582 25.2417 14.2607 29.7868 19.9172 29.7868C25.5736 29.7868 30.1864 25.2417 30.1864 19.6586C30.1864 14.0756 25.5816 9.53052 19.9172 9.53052ZM19.9172 26.3032C16.2046 26.3032 13.1851 23.323 13.1851 19.6586C13.1851 15.9943 16.2046 13.014 19.9172 13.014C23.6297 13.014 26.6492 15.9943 26.6492 19.6586C26.6492 23.323 23.6297 26.3032 19.9172 26.3032Z" fill="white"/>
</svg>
