<svg width="43" height="47" viewBox="0 0 43 47" fill="none" xmlns="http://www.w3.org/2000/svg">
<g clip-path="url(#clip0_2328_427)">
<path d="M37.41 6.72003C39.79 7.05003 41.55 9.09003 41.55 11.5V14.68C41.55 38.42 27.12 44.83 22.46 46.27C21.53 46.56 20.53 46.56 19.6 46.27C14.93 44.82 0.5 38.42 0.5 14.68V11.52C0.5 9.11003 2.27 7.06003 4.65 6.74003C10.93 5.91003 15.56 3.34003 18.26 1.41003C19.93 0.220026 22.16 0.200026 23.84 1.37003C26.6 3.29003 31.28 5.87003 37.4 6.73003L37.41 6.72003Z" fill="#C6FE6A" stroke="black" stroke-miterlimit="10"/>
<path d="M17.51 33.1C16.85 33.1 16.22 32.84 15.75 32.37L10.9 27.52C9.92999 26.55 9.92999 24.97 10.9 24C11.87 23.03 13.45 23.03 14.42 24L17.27 26.85L27.43 13.68C28.27 12.59 29.83 12.39 30.92 13.23C32.01 14.07 32.21 15.63 31.37 16.72L19.48 32.13C19.04 32.7 18.38 33.05 17.67 33.09C17.62 33.09 17.56 33.09 17.51 33.09V33.1Z" fill="black" stroke="black" stroke-miterlimit="10"/>
</g>
<defs>
<clipPath id="clip0_2328_427">
<rect width="42.05" height="46.99" fill="white"/>
</clipPath>
</defs>
</svg>
