<svg xmlns="http://www.w3.org/2000/svg" width="57.728" height="37.695" viewBox="0 0 57.728 37.695">
  <g id="Group_2054" data-name="Group 2054" transform="translate(-1316.334 -2154.257)">
    <rect id="Rectangle_312" data-name="Rectangle 312" width="57.728" height="36.985" transform="translate(1316.334 2154.966)"/>
    <rect id="Rectangle_313" data-name="Rectangle 313" width="57.728" height="3.182" transform="translate(1316.334 2154.257)" fill="#666"/>
    <g id="Group_2053" data-name="Group 2053">
      <path id="Path_2382" data-name="Path 2382" d="M1322.451,2165.563l.049-.368h-.154v-.11h.171l.036-.272h-.162v-.111h.178l.049-.358h.109l-.047.358h.195l.049-.358h.11l-.047.358h.155v.111h-.171l-.033.272h.161v.11h-.179l-.049.368h-.112l.049-.368h-.2l-.049.368Zm.373-.478.036-.272h-.195l-.036.272Z" fill="#b3b3b3"/>
      <path id="Path_2383" data-name="Path 2383" d="M1324.529,2164.655c0,.066-.008.139-.008.249v.528a.523.523,0,0,1-.129.415.479.479,0,0,1-.33.109.584.584,0,0,1-.3-.075l.041-.126a.516.516,0,0,0,.266.071c.169,0,.293-.088.293-.317v-.1h0a.323.323,0,0,1-.289.153.406.406,0,0,1-.386-.443.436.436,0,0,1,.409-.482.3.3,0,0,1,.283.157h0l.008-.137Zm-.171.359a.257.257,0,0,0-.009-.076.239.239,0,0,0-.231-.174c-.158,0-.27.133-.27.343,0,.179.09.327.268.327a.24.24,0,0,0,.229-.169.3.3,0,0,0,.013-.088Z" fill="#b3b3b3"/>
      <path id="Path_2384" data-name="Path 2384" d="M1324.889,2165.14a.292.292,0,0,0,.312.315.578.578,0,0,0,.251-.048l.028.119a.739.739,0,0,1-.3.056.422.422,0,0,1-.447-.458.441.441,0,0,1,.426-.489.385.385,0,0,1,.376.428.6.6,0,0,1-.006.077Zm.484-.119a.235.235,0,0,0-.228-.268.274.274,0,0,0-.254.268Z" fill="#b3b3b3"/>
      <path id="Path_2385" data-name="Path 2385" d="M1325.938,2164.4v.26h.237v.126h-.237v.49c0,.112.033.176.125.176a.4.4,0,0,0,.095-.011l.008.124a.412.412,0,0,1-.146.022.228.228,0,0,1-.179-.069.338.338,0,0,1-.064-.237v-.495h-.14v-.126h.14v-.217Z" fill="#b3b3b3"/>
      <path id="Path_2386" data-name="Path 2386" d="M1326.76,2164.938c0-.107,0-.2-.007-.283h.144l.005.178h.008a.272.272,0,0,1,.252-.2.231.231,0,0,1,.047,0v.156a.248.248,0,0,0-.057-.006.232.232,0,0,0-.221.212.437.437,0,0,0-.007.077v.484h-.164Z" fill="#b3b3b3"/>
      <path id="Path_2387" data-name="Path 2387" d="M1328.179,2165.1a.444.444,0,0,1-.452.482.431.431,0,0,1-.436-.467.443.443,0,0,1,.45-.482A.43.43,0,0,1,1328.179,2165.1Zm-.721.009c0,.2.114.349.276.349s.276-.148.276-.353c0-.154-.077-.348-.273-.348S1327.458,2164.938,1327.458,2165.111Z" fill="#b3b3b3"/>
      <path id="Path_2388" data-name="Path 2388" d="M1328.382,2165.563c0-.061.007-.154.007-.234v-1.1h.164v.572h0a.337.337,0,0,1,.309-.167c.226,0,.385.187.384.463a.432.432,0,0,1-.408.486.324.324,0,0,1-.3-.171h-.006l-.007.15Zm.171-.364a.307.307,0,0,0,.007.061.255.255,0,0,0,.248.193c.172,0,.275-.141.275-.349,0-.182-.094-.338-.27-.338a.262.262,0,0,0-.251.2.3.3,0,0,0-.009.067Z" fill="#b3b3b3"/>
      <path id="Path_2389" data-name="Path 2389" d="M1330.281,2165.1a.443.443,0,0,1-.452.482.431.431,0,0,1-.435-.467.443.443,0,0,1,.45-.482A.43.43,0,0,1,1330.281,2165.1Zm-.72.009c0,.2.114.349.276.349s.275-.148.275-.353c0-.154-.077-.348-.272-.348S1329.561,2164.938,1329.561,2165.111Z" fill="#b3b3b3"/>
      <path id="Path_2390" data-name="Path 2390" d="M1330.69,2164.4v.26h.237v.126h-.237v.49c0,.112.033.176.124.176a.406.406,0,0,0,.1-.011l.008.124a.414.414,0,0,1-.147.022.227.227,0,0,1-.178-.069.338.338,0,0,1-.064-.237v-.495h-.14v-.126h.14v-.217Z" fill="#b3b3b3"/>
      <path id="Path_2391" data-name="Path 2391" d="M1331.235,2164.278l-.031.451h-.1l-.031-.451Z" fill="#b3b3b3"/>
      <path id="Path_2392" data-name="Path 2392" d="M1331.444,2165.4a.436.436,0,0,0,.218.065c.12,0,.177-.06.177-.135s-.047-.122-.169-.167c-.163-.058-.24-.148-.24-.257a.28.28,0,0,1,.313-.266.469.469,0,0,1,.224.055l-.042.121a.351.351,0,0,0-.186-.052c-.1,0-.152.055-.152.123s.055.109.173.154c.158.06.238.139.238.275,0,.159-.124.271-.34.271a.524.524,0,0,1-.255-.061Z" fill="#b3b3b3"/>
      <path id="Path_2393" data-name="Path 2393" d="M1332.779,2164.3v1.264h-.163V2164.3Z" fill="#b3b3b3"/>
      <path id="Path_2394" data-name="Path 2394" d="M1333.065,2164.315a2.516,2.516,0,0,1,.348-.026.731.731,0,0,1,.512.157.584.584,0,0,1,.179.455.669.669,0,0,1-.183.492.781.781,0,0,1-.559.182,2.746,2.746,0,0,1-.3-.015Zm.164,1.119a1.124,1.124,0,0,0,.165.009.487.487,0,0,0,.539-.537.451.451,0,0,0-.513-.487.874.874,0,0,0-.191.017Z" fill="#b3b3b3"/>
      <path id="Path_2395" data-name="Path 2395" d="M1322.686,2169.485v-.189a.549.549,0,0,1-.288-.082l.045-.126a.5.5,0,0,0,.271.08c.133,0,.224-.076.224-.184s-.074-.167-.213-.223c-.192-.074-.31-.161-.31-.324a.306.306,0,0,1,.283-.3v-.191h.117v.183a.5.5,0,0,1,.244.065l-.047.124a.458.458,0,0,0-.237-.063c-.144,0-.2.086-.2.161,0,.1.07.147.234.214.193.079.291.177.291.344a.326.326,0,0,1-.3.318v.2Z" fill="#b3b3b3"/>
      <path id="Path_2396" data-name="Path 2396" d="M1323.378,2168.712c0-.116,0-.21-.007-.3h.148l.007.155h0a.359.359,0,0,1,.324-.175.411.411,0,0,1,.384.46.43.43,0,0,1-.413.489.32.32,0,0,1-.28-.143h0v.494h-.163Zm.163.242a.359.359,0,0,0,.008.068.256.256,0,0,0,.248.194c.175,0,.275-.144.275-.352,0-.181-.095-.338-.269-.338a.263.263,0,0,0-.25.205.255.255,0,0,0-.012.068Z" fill="#b3b3b3"/>
      <path id="Path_2397" data-name="Path 2397" d="M1324.5,2168.416l.2.536c.021.061.043.132.058.187h0c.016-.055.035-.124.058-.19l.18-.533h.175l-.248.647a1.378,1.378,0,0,1-.312.569.457.457,0,0,1-.2.107l-.041-.138a.47.47,0,0,0,.145-.081.511.511,0,0,0,.138-.184.119.119,0,0,0,.014-.04.134.134,0,0,0-.012-.043l-.336-.837Z" fill="#b3b3b3"/>
      <path id="Path_2398" data-name="Path 2398" d="M1325.521,2168.155v.261h.236v.126h-.236v.489c0,.114.032.177.124.177a.343.343,0,0,0,.095-.012l.008.124a.388.388,0,0,1-.146.023.228.228,0,0,1-.179-.07.331.331,0,0,1-.064-.236v-.5h-.14v-.126h.14v-.218Z" fill="#b3b3b3"/>
      <path id="Path_2399" data-name="Path 2399" d="M1325.943,2167.991h.165v.568h0a.323.323,0,0,1,.118-.117.347.347,0,0,1,.169-.046c.122,0,.318.075.318.387v.541h-.165v-.521c0-.147-.055-.271-.21-.271a.237.237,0,0,0-.222.165.19.19,0,0,0-.012.079v.548h-.165Z" fill="#b3b3b3"/>
      <path id="Path_2400" data-name="Path 2400" d="M1327.81,2168.862a.445.445,0,0,1-.453.483.431.431,0,0,1-.435-.467.443.443,0,0,1,.45-.482A.43.43,0,0,1,1327.81,2168.862Zm-.721.01c0,.2.114.349.276.349s.276-.149.276-.353c0-.154-.078-.348-.273-.348S1327.089,2168.7,1327.089,2168.872Z" fill="#b3b3b3"/>
      <path id="Path_2401" data-name="Path 2401" d="M1328.02,2168.662c0-.1,0-.171-.007-.246h.146l.009.15h0a.332.332,0,0,1,.3-.17c.126,0,.321.075.321.386v.542h-.165v-.523c0-.147-.055-.269-.21-.269a.236.236,0,0,0-.222.169.227.227,0,0,0-.011.077v.546h-.165Z" fill="#b3b3b3"/>
      <path id="Path_2402" data-name="Path 2402" d="M1329.051,2169.135a.55.55,0,0,0,.27.077c.212,0,.278-.136.276-.236,0-.171-.156-.245-.316-.245h-.092v-.124h.092c.12,0,.273-.062.273-.207,0-.1-.063-.183-.214-.183a.441.441,0,0,0-.244.081l-.043-.12a.575.575,0,0,1,.318-.094c.24,0,.35.143.35.291a.3.3,0,0,1-.226.287v0a.318.318,0,0,1,.273.314c0,.2-.153.366-.445.366a.62.62,0,0,1-.317-.082Z" fill="#b3b3b3"/>
      <path id="Path_2403" data-name="Path 2403" d="M1330.81,2168.756v.122h-.463v-.122Z" fill="#b3b3b3"/>
      <path id="Path_2404" data-name="Path 2404" d="M1331,2168.662c0-.1,0-.171-.007-.246h.145l.006.147h.006a.312.312,0,0,1,.285-.167.268.268,0,0,1,.257.181h0a.388.388,0,0,1,.1-.118.31.31,0,0,1,.2-.063c.12,0,.3.078.3.393v.535h-.161v-.514c0-.174-.064-.28-.2-.28a.215.215,0,0,0-.2.151.283.283,0,0,0-.013.082v.561h-.161v-.544c0-.144-.064-.25-.189-.25a.226.226,0,0,0-.205.165.218.218,0,0,0-.013.081v.548H1331Z" fill="#b3b3b3"/>
      <path id="Path_2405" data-name="Path 2405" d="M1332.964,2169.324c0-.061.007-.154.007-.234v-1.1h.164v.572h0a.337.337,0,0,1,.309-.167.407.407,0,0,1,.384.462.432.432,0,0,1-.408.487.325.325,0,0,1-.3-.171h-.006l-.007.15Zm.171-.364a.315.315,0,0,0,.007.061.256.256,0,0,0,.248.193c.173,0,.275-.142.275-.35,0-.181-.094-.338-.269-.338a.264.264,0,0,0-.252.2.319.319,0,0,0-.009.068Z" fill="#b3b3b3"/>
      <path id="Path_2406" data-name="Path 2406" d="M1334.863,2168.862a.444.444,0,0,1-.452.483.431.431,0,0,1-.435-.467.443.443,0,0,1,.45-.482A.429.429,0,0,1,1334.863,2168.862Zm-.72.01c0,.2.114.349.276.349s.275-.149.275-.353c0-.154-.077-.348-.272-.348S1334.143,2168.7,1334.143,2168.872Z" fill="#b3b3b3"/>
      <path id="Path_2407" data-name="Path 2407" d="M1335.051,2169.155a.426.426,0,0,0,.218.066c.12,0,.176-.06.176-.135s-.047-.122-.169-.167c-.163-.059-.24-.148-.24-.257a.28.28,0,0,1,.314-.266.47.47,0,0,1,.223.055l-.042.12a.356.356,0,0,0-.185-.051c-.1,0-.153.055-.153.123s.055.109.173.154c.158.059.238.139.238.274,0,.159-.124.272-.339.272a.518.518,0,0,1-.255-.062Z" fill="#b3b3b3"/>
      <path id="Path_2408" data-name="Path 2408" d="M1336.6,2167.991v1.1c0,.08,0,.173.006.234h-.147l-.008-.157h0a.336.336,0,0,1-.309.178.414.414,0,0,1-.389-.462.433.433,0,0,1,.407-.487.306.306,0,0,1,.275.138h0v-.543Zm-.166.794a.269.269,0,0,0-.007-.069.245.245,0,0,0-.239-.192c-.171,0-.272.151-.272.352,0,.184.09.336.268.336a.25.25,0,0,0,.243-.2.275.275,0,0,0,.007-.072Z" fill="#b3b3b3"/>
      <path id="Path_2409" data-name="Path 2409" d="M1336.939,2168.416l.2.536c.02.061.043.132.057.187h0c.017-.055.035-.124.059-.19l.179-.533h.175l-.248.647a1.391,1.391,0,0,1-.311.569.457.457,0,0,1-.2.107l-.041-.138a.467.467,0,0,0,.144-.081.512.512,0,0,0,.139-.184.112.112,0,0,0,.013-.04.125.125,0,0,0-.011-.043l-.336-.837Z" fill="#b3b3b3"/>
      <path id="Path_2410" data-name="Path 2410" d="M1337.765,2168.662c0-.1,0-.171-.007-.246h.146l.009.15h0a.332.332,0,0,1,.3-.17c.126,0,.321.075.321.386v.542h-.165v-.523c0-.147-.055-.269-.21-.269a.236.236,0,0,0-.222.169.253.253,0,0,0-.011.077v.546h-.165Z" fill="#b3b3b3"/>
      <path id="Path_2411" data-name="Path 2411" d="M1338.77,2169.227a.112.112,0,1,1,.11.118A.111.111,0,0,1,1338.77,2169.227Z" fill="#b3b3b3"/>
      <path id="Path_2412" data-name="Path 2412" d="M1339.846,2169.29a.6.6,0,0,1-.261.053.432.432,0,0,1-.452-.463.462.462,0,0,1,.488-.483.559.559,0,0,1,.229.047l-.037.127a.4.4,0,0,0-.192-.043.343.343,0,0,0-.006.684.466.466,0,0,0,.2-.045Z" fill="#b3b3b3"/>
      <path id="Path_2413" data-name="Path 2413" d="M1340.041,2167.991h.165v1.333h-.165Z" fill="#b3b3b3"/>
      <path id="Path_2414" data-name="Path 2414" d="M1340.669,2168.16a.1.1,0,0,1-.2,0,.1.1,0,0,1,.1-.1A.1.1,0,0,1,1340.669,2168.16Zm-.185,1.164v-.908h.165v.908Z" fill="#b3b3b3"/>
      <path id="Path_2415" data-name="Path 2415" d="M1341.017,2168.9a.292.292,0,0,0,.311.316.593.593,0,0,0,.252-.048l.028.119a.744.744,0,0,1-.3.056.422.422,0,0,1-.447-.458.441.441,0,0,1,.426-.489.384.384,0,0,1,.376.427.606.606,0,0,1-.006.077Zm.484-.118a.235.235,0,0,0-.229-.268.273.273,0,0,0-.253.268Z" fill="#b3b3b3"/>
      <path id="Path_2416" data-name="Path 2416" d="M1341.867,2168.662c0-.1,0-.171-.007-.246h.147l.009.15h0a.33.33,0,0,1,.3-.17c.126,0,.322.075.322.386v.542h-.165v-.523c0-.147-.055-.269-.21-.269a.234.234,0,0,0-.222.169.229.229,0,0,0-.012.077v.546h-.165Z" fill="#b3b3b3"/>
      <path id="Path_2417" data-name="Path 2417" d="M1343.1,2168.155v.261h.236v.126h-.236v.489c0,.114.032.177.124.177a.343.343,0,0,0,.095-.012l.008.124a.388.388,0,0,1-.146.023.228.228,0,0,1-.179-.07.331.331,0,0,1-.064-.236v-.5h-.14v-.126h.14v-.218Z" fill="#b3b3b3"/>
      <path id="Path_2418" data-name="Path 2418" d="M1344.23,2168.258h0l-.212.115-.033-.126.267-.143h.141v1.22h-.16Z" fill="#b3b3b3"/>
      <path id="Path_2419" data-name="Path 2419" d="M1344.932,2169.208a.643.643,0,0,0,.133-.006.46.46,0,0,0,.255-.118.531.531,0,0,0,.162-.324h-.005a.36.36,0,0,1-.288.131.353.353,0,0,1-.36-.373.418.418,0,0,1,.416-.434c.25,0,.4.2.4.514a.766.766,0,0,1-.211.572.6.6,0,0,1-.354.164.783.783,0,0,1-.152.009Zm.06-.7a.235.235,0,0,0,.235.259.272.272,0,0,0,.24-.127.107.107,0,0,0,.015-.061c0-.208-.077-.368-.25-.368C1345.092,2168.209,1344.992,2168.333,1344.992,2168.506Z" fill="#b3b3b3"/>
      <path id="Path_2420" data-name="Path 2420" d="M1345.8,2169.324v-.1l.13-.126c.311-.3.452-.454.454-.638a.217.217,0,0,0-.242-.238.414.414,0,0,0-.259.1l-.053-.117a.539.539,0,0,1,.346-.123.343.343,0,0,1,.373.354c0,.226-.163.408-.42.656l-.1.09v0h.548v.136Z" fill="#b3b3b3"/>
      <path id="Path_2421" data-name="Path 2421" d="M1346.779,2169.227a.111.111,0,0,1,.113-.119.119.119,0,1,1-.113.119Z" fill="#b3b3b3"/>
      <path id="Path_2422" data-name="Path 2422" d="M1347.515,2168.258h0l-.212.115-.032-.126.266-.143h.141v1.22h-.159Z" fill="#b3b3b3"/>
      <path id="Path_2423" data-name="Path 2423" d="M1348.816,2168.221a.556.556,0,0,0-.123.008.493.493,0,0,0-.424.433h.005a.373.373,0,0,1,.664.253.409.409,0,0,1-.407.43c-.26,0-.431-.2-.431-.52a.77.77,0,0,1,.207-.55.661.661,0,0,1,.39-.18.71.71,0,0,1,.119-.009Zm-.046.7a.248.248,0,0,0-.251-.28.272.272,0,0,0-.237.15.141.141,0,0,0-.018.073c0,.2.095.349.267.349C1348.674,2169.217,1348.77,2169.1,1348.77,2168.925Z" fill="#b3b3b3"/>
      <path id="Path_2424" data-name="Path 2424" d="M1349.07,2169.015a.348.348,0,0,1,.243-.327l0,0a.305.305,0,0,1-.194-.275.341.341,0,0,1,.377-.324.315.315,0,0,1,.356.3.309.309,0,0,1-.2.285v.006a.338.338,0,0,1,.247.315.377.377,0,0,1-.416.355C1349.225,2169.345,1349.07,2169.192,1349.07,2169.015Zm.658-.008c0-.149-.1-.22-.269-.267a.266.266,0,0,0-.22.252.226.226,0,0,0,.244.233A.221.221,0,0,0,1349.728,2169.007Zm-.455-.61c0,.123.092.188.233.225a.239.239,0,0,0,.185-.222.189.189,0,0,0-.206-.2A.2.2,0,0,0,1349.273,2168.4Z" fill="#b3b3b3"/>
      <path id="Path_2425" data-name="Path 2425" d="M1350.063,2169.227a.112.112,0,0,1,.113-.119.119.119,0,1,1-.113.119Z" fill="#b3b3b3"/>
      <path id="Path_2426" data-name="Path 2426" d="M1350.425,2169.015a.348.348,0,0,1,.242-.327l0,0a.3.3,0,0,1-.193-.275.341.341,0,0,1,.377-.324.314.314,0,0,1,.355.3.31.31,0,0,1-.2.285v.006a.338.338,0,0,1,.246.315.377.377,0,0,1-.415.355C1350.579,2169.345,1350.425,2169.192,1350.425,2169.015Zm.657-.008c0-.149-.1-.22-.269-.267a.266.266,0,0,0-.219.252.226.226,0,0,0,.244.233A.221.221,0,0,0,1351.082,2169.007Zm-.454-.61c0,.123.092.188.232.225a.239.239,0,0,0,.186-.222.189.189,0,0,0-.206-.2A.194.194,0,0,0,1350.628,2168.4Z" fill="#b3b3b3"/>
      <path id="Path_2427" data-name="Path 2427" d="M1352.216,2168.7c0,.415-.154.644-.425.644-.238,0-.4-.224-.4-.627s.176-.634.425-.634S1352.216,2168.313,1352.216,2168.7Zm-.663.019c0,.317.1.5.248.5.169,0,.25-.2.25-.508s-.077-.5-.248-.5C1351.658,2168.211,1351.553,2168.388,1351.553,2168.72Z" fill="#b3b3b3"/>
      <path id="Path_2428" data-name="Path 2428" d="M1352.383,2169.227a.111.111,0,0,1,.112-.119.119.119,0,1,1-.112.119Z" fill="#b3b3b3"/>
      <path id="Path_2429" data-name="Path 2429" d="M1352.8,2169.135a.55.55,0,0,0,.27.077c.212,0,.278-.136.276-.236,0-.171-.156-.245-.316-.245h-.091v-.124h.091c.12,0,.273-.062.273-.207,0-.1-.063-.183-.214-.183a.441.441,0,0,0-.244.081l-.043-.12a.575.575,0,0,1,.318-.094c.24,0,.35.143.35.291a.3.3,0,0,1-.226.287v0a.318.318,0,0,1,.273.314c0,.2-.153.366-.445.366a.62.62,0,0,1-.317-.082Z" fill="#b3b3b3"/>
      <path id="Path_2430" data-name="Path 2430" d="M1354.359,2168.16a.1.1,0,0,1-.2,0,.1.1,0,0,1,.1-.1A.1.1,0,0,1,1354.359,2168.16Zm-.184,1.164v-.908h.165v.908Z" fill="#b3b3b3"/>
      <path id="Path_2431" data-name="Path 2431" d="M1355.4,2167.991v1.1c0,.08,0,.173.007.234h-.147l-.008-.157h0a.336.336,0,0,1-.31.178.414.414,0,0,1-.388-.462.433.433,0,0,1,.407-.487.3.3,0,0,1,.274.138h0v-.543Zm-.165.794a.321.321,0,0,0-.007-.069.245.245,0,0,0-.239-.192c-.171,0-.272.151-.272.352,0,.184.09.336.268.336a.25.25,0,0,0,.243-.2.324.324,0,0,0,.007-.072Z" fill="#b3b3b3"/>
      <path id="Path_2432" data-name="Path 2432" d="M1322.406,2173.086c0-.062.007-.154.007-.234v-1.1h.163v.571h0a.341.341,0,0,1,.31-.167c.225,0,.384.188.383.463a.432.432,0,0,1-.408.486.322.322,0,0,1-.3-.17h-.006l-.007.15Zm.17-.364a.3.3,0,0,0,.008.06.257.257,0,0,0,.248.194c.173,0,.275-.142.275-.35,0-.182-.093-.338-.269-.338a.264.264,0,0,0-.252.2.305.305,0,0,0-.01.068Z" fill="#b3b3b3"/>
      <path id="Path_2433" data-name="Path 2433" d="M1323.575,2172.662a.292.292,0,0,0,.312.316.6.6,0,0,0,.252-.048l.028.119a.771.771,0,0,1-.3.055.421.421,0,0,1-.446-.458.441.441,0,0,1,.426-.489.385.385,0,0,1,.376.428.615.615,0,0,1-.006.077Zm.485-.118a.235.235,0,0,0-.229-.269.275.275,0,0,0-.254.269Z" fill="#b3b3b3"/>
      <path id="Path_2434" data-name="Path 2434" d="M1324.625,2171.917v.261h.236v.126h-.236v.489c0,.113.032.177.124.177a.347.347,0,0,0,.1-.012l.008.124a.4.4,0,0,1-.147.022.229.229,0,0,1-.179-.069.335.335,0,0,1-.063-.236v-.5h-.141v-.126h.141v-.218Z" fill="#b3b3b3"/>
      <path id="Path_2435" data-name="Path 2435" d="M1325.551,2173.086l-.013-.114h-.006a.338.338,0,0,1-.277.134.257.257,0,0,1-.278-.26c0-.22.195-.34.546-.338v-.019a.187.187,0,0,0-.207-.21.447.447,0,0,0-.236.068l-.037-.11a.558.558,0,0,1,.3-.08c.278,0,.346.19.346.371v.34a1.3,1.3,0,0,0,.014.218Zm-.025-.464c-.179,0-.384.028-.384.2a.145.145,0,0,0,.156.157.228.228,0,0,0,.22-.151.2.2,0,0,0,.008-.053Z" fill="#b3b3b3"/>
      <path id="Path_2436" data-name="Path 2436" d="M1326.337,2172.518v.122h-.463v-.122Z" fill="#b3b3b3"/>
      <path id="Path_2437" data-name="Path 2437" d="M1326.537,2171.838a1.6,1.6,0,0,1,.3-.026.528.528,0,0,1,.347.091.267.267,0,0,1,.1.224.3.3,0,0,1-.214.277v0a.327.327,0,0,1,.261.318.341.341,0,0,1-.107.253.633.633,0,0,1-.437.119,1.8,1.8,0,0,1-.254-.016Zm.163.517h.149c.172,0,.274-.089.274-.211,0-.149-.113-.206-.278-.206a.813.813,0,0,0-.145.01Zm0,.607a.817.817,0,0,0,.138.008c.169,0,.324-.063.324-.246s-.148-.245-.326-.245h-.136Z" fill="#b3b3b3"/>
      <path id="Path_2438" data-name="Path 2438" d="M1327.557,2171.838a2.347,2.347,0,0,1,.347-.026.722.722,0,0,1,.512.157.582.582,0,0,1,.179.455.665.665,0,0,1-.183.491.778.778,0,0,1-.558.183,2.482,2.482,0,0,1-.3-.016Zm.163,1.118a.965.965,0,0,0,.165.01.487.487,0,0,0,.539-.537.452.452,0,0,0-.513-.488.881.881,0,0,0-.191.017Z" fill="#b3b3b3"/>
      <path id="Path_2439" data-name="Path 2439" d="M1329.212,2172.518v.122h-.463v-.122Z" fill="#b3b3b3"/>
      <path id="Path_2440" data-name="Path 2440" d="M1329.449,2172.97a.653.653,0,0,0,.134-.006.463.463,0,0,0,.255-.118.533.533,0,0,0,.162-.325h-.006a.366.366,0,0,1-.647-.242.418.418,0,0,1,.416-.433c.25,0,.4.2.4.513a.773.773,0,0,1-.211.573.615.615,0,0,1-.354.164.869.869,0,0,1-.153.008Zm.061-.7a.234.234,0,0,0,.234.258.27.27,0,0,0,.24-.127.1.1,0,0,0,.016-.06c0-.208-.077-.368-.25-.368C1329.609,2171.971,1329.51,2172.095,1329.51,2172.268Z" fill="#b3b3b3"/>
      <path id="Path_2441" data-name="Path 2441" d="M1331.13,2172.463c0,.415-.154.643-.425.643-.238,0-.4-.223-.4-.627s.177-.633.425-.633S1331.13,2172.074,1331.13,2172.463Zm-.663.018c0,.318.1.5.248.5.169,0,.25-.2.25-.508s-.077-.5-.248-.5C1330.572,2171.973,1330.467,2172.149,1330.467,2172.481Z" fill="#b3b3b3"/>
      <path id="Path_2442" data-name="Path 2442" d="M1331.794,2173.086v-.332h-.566v-.109l.543-.779h.179v.758h.171v.13h-.171v.332Zm0-.462v-.407q0-.1.006-.192h-.006c-.037.072-.067.124-.1.181l-.3.414v0Z" fill="#b3b3b3"/>
      <path id="Path_2443" data-name="Path 2443" d="M1332.344,2172.97a.653.653,0,0,0,.134-.006.463.463,0,0,0,.254-.118.54.54,0,0,0,.163-.325h-.006a.367.367,0,0,1-.648-.242.418.418,0,0,1,.416-.433c.25,0,.405.2.405.513a.773.773,0,0,1-.211.573.615.615,0,0,1-.355.164.852.852,0,0,1-.152.008Zm.06-.7a.234.234,0,0,0,.235.258.27.27,0,0,0,.24-.127.1.1,0,0,0,.016-.06c0-.208-.078-.368-.25-.368C1332.5,2171.971,1332.4,2172.095,1332.4,2172.268Z" fill="#b3b3b3"/>
      <path id="Path_2444" data-name="Path 2444" d="M1334.024,2172.463c0,.415-.154.643-.424.643-.239,0-.4-.223-.4-.627s.177-.633.425-.633S1334.024,2172.074,1334.024,2172.463Zm-.663.018c0,.318.1.5.248.5.169,0,.25-.2.25-.508s-.077-.5-.248-.5C1333.467,2171.973,1333.361,2172.149,1333.361,2172.481Z" fill="#b3b3b3"/>
      <path id="Path_2445" data-name="Path 2445" d="M1334.989,2172.463c0,.415-.154.643-.425.643-.238,0-.4-.223-.4-.627s.177-.633.425-.633S1334.989,2172.074,1334.989,2172.463Zm-.663.018c0,.318.1.5.248.5.169,0,.25-.2.25-.508s-.077-.5-.248-.5C1334.432,2171.973,1334.326,2172.149,1334.326,2172.481Z" fill="#b3b3b3"/>
      <path id="Path_2446" data-name="Path 2446" d="M1335.954,2172.463c0,.415-.154.643-.425.643-.238,0-.4-.223-.4-.627s.177-.633.425-.633S1335.954,2172.074,1335.954,2172.463Zm-.663.018c0,.318.1.5.248.5.169,0,.25-.2.25-.508s-.077-.5-.248-.5C1335.4,2171.973,1335.291,2172.149,1335.291,2172.481Z" fill="#b3b3b3"/>
      <path id="Path_2447" data-name="Path 2447" d="M1336.9,2171.866v.109l-.531,1.111h-.171l.53-1.079v0h-.6v-.137Z" fill="#b3b3b3"/>
      <path id="Path_2448" data-name="Path 2448" d="M1339.876,2172.463c0,.415-.154.643-.425.643-.238,0-.4-.223-.4-.627s.177-.633.425-.633S1339.876,2172.074,1339.876,2172.463Zm-.663.018c0,.318.1.5.248.5.169,0,.25-.2.25-.508s-.077-.5-.248-.5C1339.318,2171.973,1339.213,2172.149,1339.213,2172.481Z" fill="#b3b3b3"/>
      <path id="Path_2449" data-name="Path 2449" d="M1340.029,2173.086v-.1l.13-.126c.312-.295.452-.454.454-.637a.218.218,0,0,0-.242-.239.419.419,0,0,0-.259.1l-.052-.117a.533.533,0,0,1,.345-.123.342.342,0,0,1,.373.354c0,.226-.163.407-.42.655l-.1.09v0h.548v.137Z" fill="#b3b3b3"/>
      <path id="Path_2450" data-name="Path 2450" d="M1341.43,2172.518v.122h-.463v-.122Z" fill="#b3b3b3"/>
      <path id="Path_2451" data-name="Path 2451" d="M1341.931,2172.02h0l-.212.115-.032-.126.266-.143h.141v1.22h-.159Z" fill="#b3b3b3"/>
      <path id="Path_2452" data-name="Path 2452" d="M1342.633,2172.97a.645.645,0,0,0,.133-.006.469.469,0,0,0,.255-.118.538.538,0,0,0,.162-.325h-.006a.367.367,0,0,1-.648-.242.418.418,0,0,1,.416-.433c.25,0,.405.2.405.513a.773.773,0,0,1-.211.573.615.615,0,0,1-.355.164.847.847,0,0,1-.151.008Zm.059-.7a.234.234,0,0,0,.235.258.27.27,0,0,0,.24-.127.1.1,0,0,0,.016-.06c0-.208-.078-.368-.25-.368C1342.792,2171.971,1342.692,2172.095,1342.692,2172.268Z" fill="#b3b3b3"/>
      <path id="Path_2453" data-name="Path 2453" d="M1343.6,2172.97a.634.634,0,0,0,.132-.006.462.462,0,0,0,.255-.118.533.533,0,0,0,.162-.325h-.005a.357.357,0,0,1-.288.131.353.353,0,0,1-.36-.373.418.418,0,0,1,.416-.433c.25,0,.4.2.4.513a.773.773,0,0,1-.21.573.615.615,0,0,1-.355.164.851.851,0,0,1-.151.008Zm.059-.7a.234.234,0,0,0,.235.258.27.27,0,0,0,.24-.127.1.1,0,0,0,.015-.06c0-.208-.077-.368-.25-.368C1343.757,2171.971,1343.657,2172.095,1343.657,2172.268Z" fill="#b3b3b3"/>
      <path id="Path_2454" data-name="Path 2454" d="M1345.277,2172.463c0,.415-.154.643-.424.643-.239,0-.4-.223-.4-.627s.177-.633.425-.633S1345.277,2172.074,1345.277,2172.463Zm-.663.018c0,.318.1.5.248.5.169,0,.25-.2.25-.508s-.077-.5-.248-.5C1344.72,2171.973,1344.614,2172.149,1344.614,2172.481Z" fill="#b3b3b3"/>
      <path id="Path_2455" data-name="Path 2455" d="M1345.941,2173.086v-.332h-.566v-.109l.544-.779h.179v.758h.171v.13h-.171v.332Zm0-.462v-.407q0-.1.006-.192h-.006c-.037.072-.067.124-.1.181l-.3.414v0Z" fill="#b3b3b3"/>
      <path id="Path_2456" data-name="Path 2456" d="M1346.831,2172.518v.122h-.463v-.122Z" fill="#b3b3b3"/>
      <path id="Path_2457" data-name="Path 2457" d="M1347.068,2172.97a.651.651,0,0,0,.134-.006.463.463,0,0,0,.255-.118.533.533,0,0,0,.162-.325h-.006a.366.366,0,0,1-.647-.242.418.418,0,0,1,.416-.433c.25,0,.4.2.4.513a.773.773,0,0,1-.211.573.612.612,0,0,1-.354.164.867.867,0,0,1-.153.008Zm.061-.7a.234.234,0,0,0,.234.258.27.27,0,0,0,.241-.127.112.112,0,0,0,.015-.06c0-.208-.077-.368-.25-.368C1347.229,2171.971,1347.129,2172.095,1347.129,2172.268Z" fill="#b3b3b3"/>
      <path id="Path_2458" data-name="Path 2458" d="M1348.033,2172.97a.653.653,0,0,0,.134-.006.463.463,0,0,0,.255-.118.533.533,0,0,0,.162-.325h-.006a.366.366,0,0,1-.647-.242.418.418,0,0,1,.416-.433c.25,0,.4.2.4.513a.773.773,0,0,1-.211.573.615.615,0,0,1-.354.164.869.869,0,0,1-.153.008Zm.061-.7a.234.234,0,0,0,.234.258.27.27,0,0,0,.24-.127.1.1,0,0,0,.016-.06c0-.208-.077-.368-.25-.368C1348.193,2171.971,1348.094,2172.095,1348.094,2172.268Z" fill="#b3b3b3"/>
      <path id="Path_2459" data-name="Path 2459" d="M1349.714,2172.463c0,.415-.154.643-.425.643-.238,0-.4-.223-.4-.627s.177-.633.425-.633S1349.714,2172.074,1349.714,2172.463Zm-.663.018c0,.318.1.5.248.5.169,0,.25-.2.25-.508s-.077-.5-.248-.5C1349.156,2171.973,1349.051,2172.149,1349.051,2172.481Z" fill="#b3b3b3"/>
      <path id="Path_2460" data-name="Path 2460" d="M1349.907,2172.9a.542.542,0,0,0,.271.078c.212,0,.277-.136.275-.237,0-.171-.155-.244-.315-.244h-.092v-.124h.092c.12,0,.272-.062.272-.207,0-.1-.062-.183-.214-.183a.439.439,0,0,0-.244.081l-.043-.121a.59.59,0,0,1,.319-.093c.24,0,.349.142.349.291a.3.3,0,0,1-.225.287v0a.317.317,0,0,1,.272.313c0,.2-.152.366-.444.366a.624.624,0,0,1-.318-.082Z" fill="#b3b3b3"/>
      <path id="Path_2461" data-name="Path 2461" d="M1352.073,2173.086c0-.062.007-.154.007-.234v-1.1h.164v.571h0a.341.341,0,0,1,.31-.167c.225,0,.384.188.383.463a.432.432,0,0,1-.408.486.322.322,0,0,1-.3-.17h-.006l-.007.15Zm.171-.364a.3.3,0,0,0,.007.06.257.257,0,0,0,.248.194c.173,0,.275-.142.275-.35,0-.182-.093-.338-.269-.338a.264.264,0,0,0-.252.2.31.31,0,0,0-.009.068Z" fill="#b3b3b3"/>
      <path id="Path_2462" data-name="Path 2462" d="M1353.242,2172.662a.293.293,0,0,0,.313.316.6.6,0,0,0,.251-.048l.028.119a.771.771,0,0,1-.3.055.421.421,0,0,1-.446-.458.441.441,0,0,1,.426-.489.385.385,0,0,1,.376.428.592.592,0,0,1-.006.077Zm.485-.118a.235.235,0,0,0-.229-.269.275.275,0,0,0-.254.269Z" fill="#b3b3b3"/>
      <path id="Path_2463" data-name="Path 2463" d="M1354.292,2171.917v.261h.236v.126h-.236v.489c0,.113.032.177.124.177a.347.347,0,0,0,.1-.012l.008.124a.4.4,0,0,1-.147.022.229.229,0,0,1-.179-.069.335.335,0,0,1-.063-.236v-.5h-.141v-.126h.141v-.218Z" fill="#b3b3b3"/>
      <path id="Path_2464" data-name="Path 2464" d="M1355.218,2173.086l-.013-.114h-.006a.338.338,0,0,1-.277.134.257.257,0,0,1-.278-.26c0-.22.195-.34.546-.338v-.019a.187.187,0,0,0-.207-.21.447.447,0,0,0-.236.068l-.037-.11a.559.559,0,0,1,.3-.08c.278,0,.346.19.346.371v.34a1.317,1.317,0,0,0,.014.218Zm-.025-.464c-.179,0-.384.028-.384.2a.145.145,0,0,0,.156.157.228.228,0,0,0,.22-.151.2.2,0,0,0,.008-.053Z" fill="#b3b3b3"/>
      <path id="Path_2465" data-name="Path 2465" d="M1355.568,2173.086v-.1l.13-.126c.312-.295.452-.454.454-.637a.217.217,0,0,0-.242-.239.42.42,0,0,0-.259.1l-.052-.117a.533.533,0,0,1,.345-.123.342.342,0,0,1,.373.354c0,.226-.163.407-.42.655l-.1.09v0h.548v.137Z" fill="#b3b3b3"/>
      <path id="Path_2466" data-name="Path 2466" d="M1356.629,2172.97a.651.651,0,0,0,.134-.006.468.468,0,0,0,.255-.118.538.538,0,0,0,.162-.325h-.006a.367.367,0,0,1-.648-.242.418.418,0,0,1,.416-.433c.25,0,.405.2.405.513a.773.773,0,0,1-.211.573.615.615,0,0,1-.355.164.853.853,0,0,1-.152.008Zm.06-.7a.234.234,0,0,0,.235.258.27.27,0,0,0,.24-.127.1.1,0,0,0,.016-.06c0-.208-.077-.368-.25-.368C1356.789,2171.971,1356.689,2172.095,1356.689,2172.268Z" fill="#b3b3b3"/>
      <path id="Path_2467" data-name="Path 2467" d="M1359.521,2172.917a.429.429,0,0,0,.217.065c.12,0,.177-.059.177-.134s-.047-.122-.169-.167c-.163-.059-.24-.149-.24-.257a.28.28,0,0,1,.313-.267.471.471,0,0,1,.224.056l-.042.12a.359.359,0,0,0-.186-.052c-.1,0-.152.056-.152.123s.055.11.173.155c.158.059.238.138.238.274,0,.159-.124.271-.34.271a.524.524,0,0,1-.255-.061Z" fill="#b3b3b3"/>
      <path id="Path_2468" data-name="Path 2468" d="M1360.288,2172.474c0-.117,0-.21-.007-.3h.148l.008.155h0a.36.36,0,0,1,.324-.176.412.412,0,0,1,.384.461.43.43,0,0,1-.413.488.32.32,0,0,1-.28-.142h0v.494h-.163Zm.163.242a.359.359,0,0,0,.008.068.257.257,0,0,0,.248.194c.175,0,.275-.144.275-.352,0-.182-.1-.338-.269-.338a.264.264,0,0,0-.25.2.257.257,0,0,0-.012.068Z" fill="#b3b3b3"/>
      <path id="Path_2469" data-name="Path 2469" d="M1362.181,2172.624a.444.444,0,0,1-.452.482.431.431,0,0,1-.436-.466.444.444,0,0,1,.45-.483A.431.431,0,0,1,1362.181,2172.624Zm-.721.01c0,.2.114.348.276.348s.276-.148.276-.352c0-.154-.077-.349-.273-.349S1361.46,2172.461,1361.46,2172.634Z" fill="#b3b3b3"/>
      <path id="Path_2470" data-name="Path 2470" d="M1362.59,2171.917v.261h.236v.126h-.236v.489c0,.113.032.177.124.177a.349.349,0,0,0,.1-.012l.007.124a.391.391,0,0,1-.146.022.229.229,0,0,1-.179-.069.335.335,0,0,1-.063-.236v-.5h-.141v-.126h.141v-.218Z" fill="#b3b3b3"/>
      <path id="Path_2471" data-name="Path 2471" d="M1363.77,2171.783a1.241,1.241,0,0,0-.237.768,1.267,1.267,0,0,0,.237.762h-.129a1.209,1.209,0,0,1-.246-.762,1.232,1.232,0,0,1,.246-.768Z" fill="#b3b3b3"/>
      <path id="Path_2472" data-name="Path 2472" d="M1364.322,2173.086l-.412-1.265h.176l.2.623c.055.171.1.325.136.473h0c.036-.146.089-.306.144-.471l.214-.625h.175l-.452,1.265Z" fill="#b3b3b3"/>
      <path id="Path_2473" data-name="Path 2473" d="M1365.075,2172.9a.539.539,0,0,0,.271.078c.212,0,.277-.136.275-.237,0-.171-.155-.244-.315-.244h-.092v-.124h.092c.12,0,.272-.062.272-.207,0-.1-.062-.183-.214-.183a.439.439,0,0,0-.244.081l-.043-.121a.59.59,0,0,1,.319-.093c.24,0,.349.142.349.291a.3.3,0,0,1-.225.287v0a.317.317,0,0,1,.272.313c0,.2-.152.366-.444.366a.624.624,0,0,1-.318-.082Z" fill="#b3b3b3"/>
      <path id="Path_2474" data-name="Path 2474" d="M1365.953,2173.313a1.266,1.266,0,0,0,.237-.768,1.239,1.239,0,0,0-.237-.762h.128a1.2,1.2,0,0,1,.246.764,1.22,1.22,0,0,1-.246.766Z" fill="#b3b3b3"/>
      <path id="Path_2475" data-name="Path 2475" d="M1322.4,2176.647a.582.582,0,0,0,.293.083c.167,0,.265-.087.265-.215s-.067-.186-.238-.252c-.207-.074-.334-.18-.334-.359a.363.363,0,0,1,.409-.342.572.572,0,0,1,.279.061l-.045.133a.5.5,0,0,0-.24-.06c-.173,0-.238.1-.238.19,0,.118.077.177.251.244.214.082.323.185.323.371s-.144.364-.443.364a.655.655,0,0,1-.323-.08Z" fill="#b3b3b3"/>
      <path id="Path_2476" data-name="Path 2476" d="M1324.174,2176.385a.444.444,0,0,1-.452.482.431.431,0,0,1-.436-.467.443.443,0,0,1,.45-.482A.43.43,0,0,1,1324.174,2176.385Zm-.721.01c0,.2.114.348.276.348s.276-.148.276-.352c0-.155-.077-.349-.273-.349S1323.453,2176.222,1323.453,2176.4Z" fill="#b3b3b3"/>
      <path id="Path_2477" data-name="Path 2477" d="M1324.4,2176.847v-.783h-.128v-.126h.128v-.042a.429.429,0,0,1,.1-.318.317.317,0,0,1,.222-.085.382.382,0,0,1,.14.027l-.022.127a.258.258,0,0,0-.106-.02c-.14,0-.176.124-.176.263v.048h.22v.126h-.22v.783Z" fill="#b3b3b3"/>
      <path id="Path_2478" data-name="Path 2478" d="M1325.152,2175.678v.26h.237v.126h-.237v.49c0,.112.033.176.124.176a.349.349,0,0,0,.1-.011l.008.124a.414.414,0,0,1-.147.022.227.227,0,0,1-.178-.069.336.336,0,0,1-.064-.236v-.5h-.14v-.126h.14v-.217Z" fill="#b3b3b3"/>
      <path id="Path_2479" data-name="Path 2479" d="M1325.658,2175.938l.12.462c.026.1.05.2.068.289h.006c.02-.092.049-.19.08-.287l.148-.464h.139l.14.455a3.007,3.007,0,0,1,.081.3h.006a2.465,2.465,0,0,1,.07-.294l.129-.457h.164l-.293.909h-.151l-.138-.434a2.561,2.561,0,0,1-.081-.3h0a2.737,2.737,0,0,1-.082.3l-.147.432h-.15l-.274-.909Z" fill="#b3b3b3"/>
      <path id="Path_2480" data-name="Path 2480" d="M1327.471,2176.847l-.013-.115h-.006a.336.336,0,0,1-.277.135.259.259,0,0,1-.279-.261c0-.219.2-.339.547-.337v-.019a.187.187,0,0,0-.207-.21.452.452,0,0,0-.236.067l-.037-.109a.555.555,0,0,1,.3-.08c.278,0,.345.189.345.371v.34a1.31,1.31,0,0,0,.015.218Zm-.025-.464c-.179,0-.384.028-.384.2a.146.146,0,0,0,.156.157.228.228,0,0,0,.22-.151.2.2,0,0,0,.008-.053Z" fill="#b3b3b3"/>
      <path id="Path_2481" data-name="Path 2481" d="M1327.874,2176.222c0-.108,0-.2-.007-.284h.145l.005.178h.007a.271.271,0,0,1,.252-.2.207.207,0,0,1,.047.005v.156a.227.227,0,0,0-.056-.006.232.232,0,0,0-.222.212.444.444,0,0,0-.008.077v.485h-.163Z" fill="#b3b3b3"/>
      <path id="Path_2482" data-name="Path 2482" d="M1328.563,2176.423a.291.291,0,0,0,.312.315.58.58,0,0,0,.251-.048l.028.12a.766.766,0,0,1-.3.055.422.422,0,0,1-.447-.458.441.441,0,0,1,.426-.489.385.385,0,0,1,.376.428.632.632,0,0,1-.006.077Zm.484-.118a.235.235,0,0,0-.229-.269.275.275,0,0,0-.254.269Z" fill="#b3b3b3"/>
      <path id="Path_2483" data-name="Path 2483" d="M1329.374,2176.089a.112.112,0,1,1,.11.116A.11.11,0,0,1,1329.374,2176.089Zm0,.662a.112.112,0,1,1,.11.116A.111.111,0,0,1,1329.374,2176.751Z" fill="#b3b3b3"/>
      <path id="Path_2484" data-name="Path 2484" d="M1330.148,2176.847v-.1l.13-.126c.312-.3.452-.454.454-.638a.217.217,0,0,0-.242-.238.42.42,0,0,0-.259.1l-.052-.118a.539.539,0,0,1,.345-.123.343.343,0,0,1,.373.355c0,.225-.163.407-.419.655l-.1.09v0h.548v.137Z" fill="#b3b3b3"/>
      <path id="Path_2485" data-name="Path 2485" d="M1331.127,2176.749a.111.111,0,0,1,.112-.118.118.118,0,1,1-.112.118Z" fill="#b3b3b3"/>
      <path id="Path_2486" data-name="Path 2486" d="M1331.543,2176.657a.539.539,0,0,0,.27.077c.212,0,.278-.135.276-.236,0-.171-.155-.244-.316-.244h-.091v-.124h.091c.121,0,.273-.063.273-.207,0-.1-.063-.184-.214-.184a.444.444,0,0,0-.244.081l-.043-.12a.575.575,0,0,1,.318-.094c.241,0,.35.143.35.291a.305.305,0,0,1-.226.288v0a.317.317,0,0,1,.273.313c0,.2-.153.366-.445.366a.623.623,0,0,1-.317-.082Z" fill="#b3b3b3"/>
      <path id="Path_2487" data-name="Path 2487" d="M1332.481,2176.749a.111.111,0,0,1,.113-.118.118.118,0,0,1,0,.236A.111.111,0,0,1,1332.481,2176.749Z" fill="#b3b3b3"/>
      <path id="Path_2488" data-name="Path 2488" d="M1332.9,2176.657a.544.544,0,0,0,.271.077c.212,0,.277-.135.275-.236,0-.171-.155-.244-.315-.244h-.092v-.124h.092c.12,0,.272-.063.272-.207,0-.1-.062-.184-.213-.184a.447.447,0,0,0-.245.081l-.043-.12a.581.581,0,0,1,.319-.094c.24,0,.349.143.349.291a.305.305,0,0,1-.225.288v0a.317.317,0,0,1,.272.313c0,.2-.152.366-.444.366a.617.617,0,0,1-.317-.082Z" fill="#b3b3b3"/>
      <path id="Path_2489" data-name="Path 2489" d="M1334.632,2175.544a1.241,1.241,0,0,0-.236.768,1.268,1.268,0,0,0,.236.762h-.129a1.215,1.215,0,0,1-.246-.762,1.242,1.242,0,0,1,.246-.768Z" fill="#b3b3b3"/>
      <path id="Path_2490" data-name="Path 2490" d="M1334.8,2176.847c0-.062.007-.155.007-.235v-1.1h.163v.571h0a.337.337,0,0,1,.309-.167c.226,0,.385.187.384.463a.432.432,0,0,1-.408.486.324.324,0,0,1-.3-.171h-.006l-.007.151Zm.17-.365a.307.307,0,0,0,.008.061.255.255,0,0,0,.248.193c.172,0,.275-.141.275-.349,0-.182-.094-.338-.27-.338a.265.265,0,0,0-.252.2.4.4,0,0,0-.009.067Z" fill="#b3b3b3"/>
      <path id="Path_2491" data-name="Path 2491" d="M1336.185,2175.78h0l-.212.116-.032-.126.266-.143h.141v1.22h-.159Z" fill="#b3b3b3"/>
      <path id="Path_2492" data-name="Path 2492" d="M1337.149,2175.78h0l-.212.116-.033-.126.267-.143h.141v1.22h-.16Z" fill="#b3b3b3"/>
      <path id="Path_2493" data-name="Path 2493" d="M1337.755,2176.847v-.1l.13-.126c.311-.3.452-.454.454-.638a.217.217,0,0,0-.242-.238.417.417,0,0,0-.259.1l-.053-.118a.539.539,0,0,1,.346-.123.343.343,0,0,1,.373.355c0,.225-.163.407-.42.655l-.1.09v0h.548v.137Z" fill="#b3b3b3"/>
      <path id="Path_2494" data-name="Path 2494" d="M1339.531,2176.224c0,.415-.154.643-.425.643-.238,0-.4-.223-.4-.627s.177-.634.425-.634S1339.531,2175.835,1339.531,2176.224Zm-.663.018c0,.318.1.5.248.5.169,0,.25-.2.25-.508s-.077-.5-.248-.5C1338.974,2175.733,1338.868,2175.91,1338.868,2176.242Z" fill="#b3b3b3"/>
      <path id="Path_2495" data-name="Path 2495" d="M1340.413,2175.766h-.465l-.048.313a.61.61,0,0,1,.1-.008.508.508,0,0,1,.263.067.346.346,0,0,1,.175.312.424.424,0,0,1-.455.417.587.587,0,0,1-.3-.075l.041-.126a.542.542,0,0,0,.26.068.269.269,0,0,0,.29-.264c0-.158-.107-.271-.351-.271a1.415,1.415,0,0,0-.169.013l.078-.585h.584Z" fill="#b3b3b3"/>
      <path id="Path_2496" data-name="Path 2496" d="M1341.487,2175.514v1.1c0,.08,0,.173.007.235h-.148l-.007-.158h0a.336.336,0,0,1-.31.178.414.414,0,0,1-.388-.462.434.434,0,0,1,.407-.487.3.3,0,0,1,.274.139h0v-.543Zm-.165.794a.28.28,0,0,0-.008-.07.243.243,0,0,0-.238-.191c-.171,0-.272.15-.272.351,0,.184.09.336.268.336a.248.248,0,0,0,.242-.2.269.269,0,0,0,.008-.071Z" fill="#b3b3b3"/>
      <path id="Path_2497" data-name="Path 2497" d="M1342.406,2175.743a.556.556,0,0,0-.123.008.5.5,0,0,0-.425.434h.006a.371.371,0,0,1,.663.253.408.408,0,0,1-.406.429c-.261,0-.432-.2-.432-.519a.766.766,0,0,1,.207-.55.667.667,0,0,1,.391-.181.71.71,0,0,1,.119-.009Zm-.047.7a.247.247,0,0,0-.251-.28.272.272,0,0,0-.236.15.136.136,0,0,0-.018.074c0,.2.095.348.267.348C1342.264,2176.739,1342.359,2176.621,1342.359,2176.447Z" fill="#b3b3b3"/>
      <path id="Path_2498" data-name="Path 2498" d="M1342.771,2176.73a.726.726,0,0,0,.133,0,.456.456,0,0,0,.255-.119.531.531,0,0,0,.162-.324h-.006a.358.358,0,0,1-.287.131.353.353,0,0,1-.36-.373.418.418,0,0,1,.416-.434c.25,0,.4.2.4.514a.768.768,0,0,1-.211.572.6.6,0,0,1-.354.164.783.783,0,0,1-.152.009Zm.06-.7a.234.234,0,0,0,.234.259.273.273,0,0,0,.241-.127.113.113,0,0,0,.015-.06c0-.208-.077-.369-.25-.369C1342.931,2175.731,1342.831,2175.855,1342.831,2176.028Z" fill="#b3b3b3"/>
      <path id="Path_2499" data-name="Path 2499" d="M1343.625,2176.537a.349.349,0,0,1,.242-.327l0,0a.3.3,0,0,1-.193-.274.341.341,0,0,1,.377-.325.315.315,0,0,1,.355.3.307.307,0,0,1-.2.285v.006a.339.339,0,0,1,.246.316.375.375,0,0,1-.415.354C1343.779,2176.867,1343.625,2176.715,1343.625,2176.537Zm.657-.008c0-.148-.1-.219-.268-.266a.266.266,0,0,0-.22.252.225.225,0,0,0,.244.232A.22.22,0,0,0,1344.282,2176.529Zm-.454-.609c0,.122.092.187.233.225a.24.24,0,0,0,.185-.222.189.189,0,0,0-.206-.2A.193.193,0,0,0,1343.828,2175.92Z" fill="#b3b3b3"/>
      <path id="Path_2500" data-name="Path 2500" d="M1344.749,2176.423a.291.291,0,0,0,.312.315.582.582,0,0,0,.252-.048l.028.12a.771.771,0,0,1-.3.055.421.421,0,0,1-.446-.458.441.441,0,0,1,.426-.489.386.386,0,0,1,.376.428.6.6,0,0,1-.006.077Zm.484-.118a.235.235,0,0,0-.228-.269.275.275,0,0,0-.254.269Z" fill="#b3b3b3"/>
      <path id="Path_2501" data-name="Path 2501" d="M1345.945,2176.847v-.1l.13-.126c.312-.3.452-.454.454-.638a.217.217,0,0,0-.242-.238.42.42,0,0,0-.259.1l-.052-.118a.539.539,0,0,1,.345-.123.343.343,0,0,1,.373.355c0,.225-.163.407-.42.655l-.1.09v0h.548v.137Z" fill="#b3b3b3"/>
      <path id="Path_2502" data-name="Path 2502" d="M1347.722,2176.224c0,.415-.155.643-.425.643-.238,0-.4-.223-.4-.627s.176-.634.424-.634S1347.722,2175.835,1347.722,2176.224Zm-.663.018c0,.318.1.5.248.5.169,0,.25-.2.25-.508s-.078-.5-.248-.5C1347.164,2175.733,1347.059,2175.91,1347.059,2176.242Z" fill="#b3b3b3"/>
      <path id="Path_2503" data-name="Path 2503" d="M1347.875,2176.847v-.1l.13-.126c.311-.3.452-.454.454-.638a.217.217,0,0,0-.242-.238.417.417,0,0,0-.259.1l-.053-.118a.539.539,0,0,1,.346-.123.343.343,0,0,1,.373.355c0,.225-.163.407-.42.655l-.1.09v0h.548v.137Z" fill="#b3b3b3"/>
      <path id="Path_2504" data-name="Path 2504" d="M1349.651,2176.224c0,.415-.154.643-.424.643-.239,0-.4-.223-.4-.627s.177-.634.425-.634S1349.651,2175.835,1349.651,2176.224Zm-.663.018c0,.318.1.5.248.5.169,0,.25-.2.25-.508s-.077-.5-.248-.5C1349.094,2175.733,1348.988,2175.91,1348.988,2176.242Z" fill="#b3b3b3"/>
      <path id="Path_2505" data-name="Path 2505" d="M1350.24,2176.278v.122h-.463v-.122Z" fill="#b3b3b3"/>
      <path id="Path_2506" data-name="Path 2506" d="M1350.741,2175.78h0l-.212.116-.032-.126.267-.143h.14v1.22h-.159Z" fill="#b3b3b3"/>
      <path id="Path_2507" data-name="Path 2507" d="M1351.347,2176.847v-.1l.13-.126c.311-.3.452-.454.454-.638a.218.218,0,0,0-.243-.238.414.414,0,0,0-.258.1l-.053-.118a.539.539,0,0,1,.346-.123.343.343,0,0,1,.373.355c0,.225-.163.407-.42.655l-.1.09v0h.548v.137Z" fill="#b3b3b3"/>
      <path id="Path_2508" data-name="Path 2508" d="M1352.747,2176.278v.122h-.463v-.122Z" fill="#b3b3b3"/>
      <path id="Path_2509" data-name="Path 2509" d="M1353.248,2175.78h0l-.212.116-.032-.126.267-.143h.14v1.22h-.159Z" fill="#b3b3b3"/>
      <path id="Path_2510" data-name="Path 2510" d="M1354.213,2175.78h0l-.212.116-.032-.126.266-.143h.141v1.22h-.159Z" fill="#b3b3b3"/>
      <path id="Path_2511" data-name="Path 2511" d="M1355.576,2175.78h0l-.212.116-.032-.126.267-.143h.14v1.22h-.159Z" fill="#b3b3b3"/>
      <path id="Path_2512" data-name="Path 2512" d="M1356.541,2175.78h0l-.212.116-.032-.126.267-.143h.14v1.22h-.159Z" fill="#b3b3b3"/>
      <path id="Path_2513" data-name="Path 2513" d="M1357.16,2176.089a.112.112,0,1,1,.224,0,.112.112,0,1,1-.224,0Zm0,.662a.112.112,0,1,1,.111.116A.111.111,0,0,1,1357.16,2176.751Z" fill="#b3b3b3"/>
      <path id="Path_2514" data-name="Path 2514" d="M1358.265,2175.766h-.465l-.048.313a.6.6,0,0,1,.1-.008.5.5,0,0,1,.262.067.345.345,0,0,1,.175.312.423.423,0,0,1-.454.417.592.592,0,0,1-.3-.075l.041-.126a.55.55,0,0,0,.261.068.269.269,0,0,0,.289-.264c0-.158-.106-.271-.351-.271a1.378,1.378,0,0,0-.168.013l.078-.585h.584Z" fill="#b3b3b3"/>
      <path id="Path_2515" data-name="Path 2515" d="M1358.541,2176.657a.54.54,0,0,0,.271.077c.211,0,.277-.135.275-.236,0-.171-.155-.244-.316-.244h-.091v-.124h.091c.121,0,.273-.063.273-.207,0-.1-.063-.184-.214-.184a.444.444,0,0,0-.244.081l-.043-.12a.575.575,0,0,1,.318-.094c.241,0,.35.143.35.291a.305.305,0,0,1-.226.288v0a.317.317,0,0,1,.273.313c0,.2-.153.366-.445.366a.624.624,0,0,1-.317-.082Z" fill="#b3b3b3"/>
      <path id="Path_2516" data-name="Path 2516" d="M1359.479,2176.089a.112.112,0,1,1,.224,0,.112.112,0,1,1-.224,0Zm0,.662a.112.112,0,1,1,.111.116A.111.111,0,0,1,1359.479,2176.751Z" fill="#b3b3b3"/>
      <path id="Path_2517" data-name="Path 2517" d="M1360.215,2175.78h0l-.212.116-.032-.126.266-.143h.141v1.22h-.159Z" fill="#b3b3b3"/>
      <path id="Path_2518" data-name="Path 2518" d="M1360.82,2176.847v-.1l.13-.126c.312-.3.452-.454.454-.638a.217.217,0,0,0-.242-.238.42.42,0,0,0-.259.1l-.052-.118a.539.539,0,0,1,.345-.123.343.343,0,0,1,.373.355c0,.225-.163.407-.42.655l-.1.09v0h.548v.137Z" fill="#b3b3b3"/>
      <path id="Path_2519" data-name="Path 2519" d="M1361.738,2177.074a1.266,1.266,0,0,0,.238-.767,1.238,1.238,0,0,0-.238-.763h.128a1.2,1.2,0,0,1,.246.764,1.22,1.22,0,0,1-.246.766Z" fill="#b3b3b3"/>
      <path id="Path_2520" data-name="Path 2520" d="M1322.582,2179.343v1.264h-.163v-1.264Z" fill="#b3b3b3"/>
      <path id="Path_2521" data-name="Path 2521" d="M1322.881,2179.945c0-.094,0-.171-.007-.246h.147l.008.151h0a.334.334,0,0,1,.3-.171c.126,0,.321.075.321.386v.542h-.165v-.523c0-.146-.054-.269-.21-.269a.235.235,0,0,0-.221.169.231.231,0,0,0-.012.078v.545h-.165Z" fill="#b3b3b3"/>
      <path id="Path_2522" data-name="Path 2522" d="M1323.9,2180.438a.426.426,0,0,0,.218.066c.12,0,.177-.06.177-.135s-.047-.122-.169-.167c-.163-.058-.24-.148-.24-.257a.28.28,0,0,1,.313-.266.472.472,0,0,1,.224.055l-.042.12a.361.361,0,0,0-.186-.051c-.1,0-.152.055-.152.123s.055.109.173.154c.158.06.238.139.238.274,0,.16-.124.272-.34.272a.513.513,0,0,1-.255-.062Z" fill="#b3b3b3"/>
      <path id="Path_2523" data-name="Path 2523" d="M1324.869,2179.438v.261h.236v.126h-.236v.489c0,.114.032.177.124.177a.347.347,0,0,0,.1-.012l.008.125a.419.419,0,0,1-.147.022.231.231,0,0,1-.179-.069.341.341,0,0,1-.063-.237v-.5h-.141v-.126h.141v-.218Z" fill="#b3b3b3"/>
      <path id="Path_2524" data-name="Path 2524" d="M1325.8,2180.607l-.013-.114h-.006a.337.337,0,0,1-.277.135.258.258,0,0,1-.278-.261c0-.22.2-.34.547-.338v-.018a.188.188,0,0,0-.207-.21.449.449,0,0,0-.237.067l-.037-.109a.558.558,0,0,1,.3-.08c.278,0,.346.189.346.371v.34a1.427,1.427,0,0,0,.014.217Zm-.024-.463c-.18,0-.385.028-.385.205a.146.146,0,0,0,.156.157.228.228,0,0,0,.22-.152.163.163,0,0,0,.009-.052Z" fill="#b3b3b3"/>
      <path id="Path_2525" data-name="Path 2525" d="M1326.2,2179.274h.165v1.333h-.165Z" fill="#b3b3b3"/>
      <path id="Path_2526" data-name="Path 2526" d="M1326.642,2179.274h.165v1.333h-.165Z" fill="#b3b3b3"/>
      <path id="Path_2527" data-name="Path 2527" d="M1327.177,2180.184a.291.291,0,0,0,.311.315.579.579,0,0,0,.252-.048l.029.119a.755.755,0,0,1-.3.056.422.422,0,0,1-.446-.458.44.44,0,0,1,.425-.489.384.384,0,0,1,.376.427.606.606,0,0,1-.006.078Zm.484-.119a.234.234,0,0,0-.228-.268.273.273,0,0,0-.254.268Z" fill="#b3b3b3"/>
      <path id="Path_2528" data-name="Path 2528" d="M1328.813,2179.274v1.1c0,.08,0,.173.006.234h-.147l-.008-.157h0a.336.336,0,0,1-.309.178.414.414,0,0,1-.389-.462.433.433,0,0,1,.407-.487.306.306,0,0,1,.275.138h0v-.543Zm-.166.794a.276.276,0,0,0-.007-.069.245.245,0,0,0-.239-.191c-.171,0-.272.15-.272.351,0,.184.09.336.268.336a.25.25,0,0,0,.243-.2.274.274,0,0,0,.007-.071Z" fill="#b3b3b3"/>
      <path id="Path_2529" data-name="Path 2529" d="M1329.049,2179.85a.112.112,0,0,1,.112-.12.118.118,0,1,1-.112.12Zm0,.662a.11.11,0,0,1,.112-.118.117.117,0,1,1-.112.118Z" fill="#b3b3b3"/>
      <path id="Path_2530" data-name="Path 2530" d="M1329.823,2180.607v-.1l.13-.126c.312-.3.452-.454.454-.638a.217.217,0,0,0-.242-.238.425.425,0,0,0-.259.1l-.052-.117a.536.536,0,0,1,.345-.123.343.343,0,0,1,.373.355c0,.225-.163.407-.42.655l-.1.09v0h.548v.136Z" fill="#b3b3b3"/>
      <path id="Path_2531" data-name="Path 2531" d="M1331.6,2179.984c0,.415-.155.644-.425.644-.238,0-.4-.224-.4-.627s.177-.634.425-.634S1331.6,2179.6,1331.6,2179.984Zm-.663.019c0,.317.1.5.248.5.169,0,.25-.2.25-.508s-.078-.5-.248-.5C1331.042,2179.494,1330.937,2179.671,1330.937,2180Z" fill="#b3b3b3"/>
      <path id="Path_2532" data-name="Path 2532" d="M1331.753,2180.607v-.1l.13-.126c.311-.3.452-.454.454-.638a.217.217,0,0,0-.242-.238.422.422,0,0,0-.259.1l-.053-.117a.539.539,0,0,1,.346-.123.343.343,0,0,1,.373.355c0,.225-.163.407-.42.655l-.1.09v0h.548v.136Z" fill="#b3b3b3"/>
      <path id="Path_2533" data-name="Path 2533" d="M1333.529,2179.984c0,.415-.154.644-.425.644-.238,0-.4-.224-.4-.627s.177-.634.425-.634S1333.529,2179.6,1333.529,2179.984Zm-.663.019c0,.317.1.5.248.5.169,0,.25-.2.25-.508s-.077-.5-.248-.5C1332.972,2179.494,1332.866,2179.671,1332.866,2180Z" fill="#b3b3b3"/>
      <path id="Path_2534" data-name="Path 2534" d="M1334.118,2180.039v.122h-.463v-.122Z" fill="#b3b3b3"/>
      <path id="Path_2535" data-name="Path 2535" d="M1334.619,2179.541h0l-.212.115-.032-.126.267-.142h.14v1.219h-.159Z" fill="#b3b3b3"/>
      <path id="Path_2536" data-name="Path 2536" d="M1335.225,2180.607v-.1l.129-.126c.312-.3.453-.454.455-.638a.218.218,0,0,0-.243-.238.42.42,0,0,0-.258.1l-.053-.117a.539.539,0,0,1,.346-.123.343.343,0,0,1,.373.355c0,.225-.163.407-.42.655l-.1.09v0H1336v.136Z" fill="#b3b3b3"/>
      <path id="Path_2537" data-name="Path 2537" d="M1336.625,2180.039v.122h-.463v-.122Z" fill="#b3b3b3"/>
      <path id="Path_2538" data-name="Path 2538" d="M1337.126,2179.541h0l-.212.115-.032-.126.267-.142h.14v1.219h-.159Z" fill="#b3b3b3"/>
      <path id="Path_2539" data-name="Path 2539" d="M1338.091,2179.541h0l-.212.115-.032-.126.266-.142h.141v1.219h-.159Z" fill="#b3b3b3"/>
      <path id="Path_2540" data-name="Path 2540" d="M1339.454,2179.541h0l-.212.115-.032-.126.267-.142h.14v1.219h-.159Z" fill="#b3b3b3"/>
      <path id="Path_2541" data-name="Path 2541" d="M1340.788,2179.526h-.465l-.048.314a.61.61,0,0,1,.1-.008.517.517,0,0,1,.263.066.349.349,0,0,1,.175.313.424.424,0,0,1-.455.417.587.587,0,0,1-.3-.075l.041-.125a.555.555,0,0,0,.26.067.269.269,0,0,0,.29-.265c0-.158-.107-.27-.351-.27a1.415,1.415,0,0,0-.169.013l.078-.585h.584Z" fill="#b3b3b3"/>
      <path id="Path_2542" data-name="Path 2542" d="M1341.038,2179.85a.112.112,0,1,1,.224,0,.112.112,0,1,1-.224,0Zm0,.662a.112.112,0,1,1,.11.116A.11.11,0,0,1,1341.038,2180.512Z" fill="#b3b3b3"/>
      <path id="Path_2543" data-name="Path 2543" d="M1342.226,2179.984c0,.415-.155.644-.425.644-.238,0-.4-.224-.4-.627s.177-.634.425-.634S1342.226,2179.6,1342.226,2179.984Zm-.663.019c0,.317.1.5.248.5.168,0,.25-.2.25-.508s-.078-.5-.248-.5C1341.668,2179.494,1341.563,2179.671,1341.563,2180Z" fill="#b3b3b3"/>
      <path id="Path_2544" data-name="Path 2544" d="M1343.076,2179.5a.561.561,0,0,0-.124.008.5.5,0,0,0-.425.433h.006a.371.371,0,0,1,.662.253.407.407,0,0,1-.4.43c-.261,0-.432-.2-.432-.52a.765.765,0,0,1,.207-.549.661.661,0,0,1,.39-.181.761.761,0,0,1,.121-.009Zm-.048.7a.247.247,0,0,0-.251-.28.272.272,0,0,0-.236.15.135.135,0,0,0-.019.073c0,.2.1.349.268.349C1342.933,2180.5,1343.028,2180.382,1343.028,2180.208Z" fill="#b3b3b3"/>
      <path id="Path_2545" data-name="Path 2545" d="M1343.357,2179.85a.112.112,0,1,1,.224,0,.112.112,0,1,1-.224,0Zm0,.662a.112.112,0,1,1,.111.116A.11.11,0,0,1,1343.357,2180.512Z" fill="#b3b3b3"/>
      <path id="Path_2546" data-name="Path 2546" d="M1344.462,2179.526H1344l-.048.314a.612.612,0,0,1,.1-.008.517.517,0,0,1,.263.066.349.349,0,0,1,.174.313.423.423,0,0,1-.454.417.585.585,0,0,1-.3-.075l.041-.125a.554.554,0,0,0,.26.067.268.268,0,0,0,.289-.265c0-.158-.106-.27-.35-.27a1.4,1.4,0,0,0-.169.013l.078-.585h.584Z" fill="#b3b3b3"/>
      <path id="Path_2547" data-name="Path 2547" d="M1345.491,2179.388v.108l-.531,1.111h-.171l.529-1.079v0h-.6v-.136Z" fill="#b3b3b3"/>
    </g>
  </g>
</svg>
