<svg xmlns="http://www.w3.org/2000/svg" viewBox="0 0 264.56 242.79"><defs><style>.cls-1,.cls-8{fill:#fff;}.cls-2{fill:#b2c1f3;}.cls-3,.cls-7{fill:none;}.cls-3{stroke:#333;}.cls-3,.cls-8{stroke-linecap:round;stroke-linejoin:round;}.cls-4{fill:#eaae87;}.cls-5{fill:#bc9173;}.cls-6{fill:#966b53;}.cls-8{stroke:#000;}</style></defs><g id="Layer_2" data-name="Layer 2"><g ><path d="M176.75,144s44.5,20.95,50,30S234,215.48,234,215.48L15.73,217.9s17-52.9,28-56.9,42-14,42-14Z"/><path class="cls-1" d="M85.63,210.28c.12-1.28-4.13-51.36-4.13-51.36l25.67-14.42,31.38,13.41,1.26,50.72Z"/><path class="cls-2" d="M136.46,199c-.07-6.9-.18-13.81-.27-20.72,0-.15,0-.3,0-.49l-1.95-1.26c0,.51,0,.87,0,1.22-.05.53-.09,1.07-.19,1.59-.55,2.78-1.11,5.54-1.67,8.31,0,.12-.05.24-.08.4l-.74.18c-.08-.21-.17-.39-.22-.57q-.85-3.09-1.68-6.18a20.48,20.48,0,0,1-.87-4.92,23.38,23.38,0,0,0-.27-2.34c-.85.08-1.65.14-2.45.24a.78.78,0,0,0-.41.3c-.87,1-1.73,2-2.61,3a3.79,3.79,0,0,0-.64,1.78q-1.08,4.77-2.13,9.56-1.86,8.43-3.69,16.85c-.32,1.44-.65,2.89-1,4.33h20.89C136.47,206.52,136.49,202.76,136.46,199Z"/><path d="M176.84,18.72c-.14-.23-.26-.45-.38-.64l-.18-.3-.18-.27-.12-.18-.3-.38c-.09-.11-.17-.21-.26-.3l-.07-.08c-.08-.09-.17-.17-.25-.25a6,6,0,0,0-1.06-.83l-.15-.09a4.13,4.13,0,0,0-.42-.22L173.1,15l-.41-.15h0l-.43-.11a11.25,11.25,0,0,0-1.27-.22,14,14,0,0,0-3.77.15,7.26,7.26,0,0,1-1.68,0,.9.9,0,0,1-.79-.68q-.16-.42-.36-.81c-.07-.13-.15-.25-.23-.37s-.13-.2-.21-.3a.76.76,0,0,0-.08-.11l-.24-.28-.27-.28-.12-.11-.26-.21a3.38,3.38,0,0,0-.36-.27,8.84,8.84,0,0,1-1.89-1.51l-.08-.09a1.7,1.7,0,0,0-.3-.23l-.21-.15a.41.41,0,0,1-.11-.07l-.1-.07-.11.11h0a.75.75,0,0,1,.07.12,1,1,0,0,0,.08.11,19.52,19.52,0,0,1,2.82,5.07c.33.92.67,1.84,1,2.78a1,1,0,0,0,.09.21.56.56,0,0,0,0,.08l.07.08.08.06a.54.54,0,0,0,.19.08.42.42,0,0,0,.12,0c.37.06.75.14,1.13.22l.37.09,2.76.78a3.33,3.33,0,0,0,.69.12,4.16,4.16,0,0,0,1.63-.26l.29-.13a6.54,6.54,0,0,1,.87-.34,4.77,4.77,0,0,1,1.65-.28l.71.08a9.7,9.7,0,0,1,1.05.2,5.49,5.49,0,0,1,.68.24,2.59,2.59,0,0,1,.33.17c.1.05.2.08.48.19h0Zm-17.65-8.6.5.81a12.43,12.43,0,0,1,.73,1.28c.08.14.15.28.22.43l.21.44c.13.29.26.59.38.89.21.51.4,1,.58,1.53.07.23.15.46.22.69s.08.24.11.36.14.42.2.64.18.63.26.94c.19.68.4,1.35.6,2l.15,0C163.51,17.42,161,11.36,159.19,10.12Zm8.62,2.15a1.64,1.64,0,0,1-.22-.14L167.4,12a2.92,2.92,0,0,1-.32-.38c-.09-.14-.18-.29-.26-.44l-.12-.24c-.08-.18-.18-.36-.28-.54a2.39,2.39,0,0,0-.13-.21l-.13-.21a2.56,2.56,0,0,0-.2-.26l-.15-.18-.24-.23-.22-.18L165,8.78l-.38-.32-.35-.32c-.12-.11-.23-.23-.34-.35s-.2-.2-.29-.31a4.59,4.59,0,0,1-.36-.41c-.11-.13-.22-.25-.32-.38l-.3-.38c-.12-.17-.26-.33-.39-.49s-.27-.31-.4-.48a1.41,1.41,0,0,0-.46-.42l-.1,0a2.1,2.1,0,0,0-.46-.18c-1.29-.39-2.58-.81-3.85-1.27-1-.36-1.27-.46-1.66.08a1.4,1.4,0,0,0-.12.18c-.09.13-.18.29-.3.48,0,0,0,.09,0,.18s.27.06.41.07a5,5,0,0,1,2.5,1h0c.38.27.74.55,1.11.85a11.25,11.25,0,0,0,3.92,2.27,3.65,3.65,0,0,1,.81.36,4.16,4.16,0,0,1,1.91,2.16c.1.25.21.5.32.74a1.47,1.47,0,0,0,.54.67l.06,0,.07,0,.06,0h0a.53.53,0,0,0,.12,0l.19,0,.27,0a1.55,1.55,0,0,1,.31,0l.48,0,.06-.17A.9.9,0,0,1,167.81,12.27Zm-5.7,7.48c-.26-1.13-.53-2.25-.84-3.37a13.3,13.3,0,0,0-.7-2,26.3,26.3,0,0,0-5.42-7.75,2.1,2.1,0,0,0-.26-.24l-.25-.21a4.24,4.24,0,0,0,0,.52,27.73,27.73,0,0,1,.29,5.07c0,1,0,2,0,2.94a1,1,0,0,0,.15.47c.92,1.57,1.87,3.12,2.75,4.7a.64.64,0,0,0,.08.14.44.44,0,0,0,.08.11l.06.07.08.08a1.38,1.38,0,0,0,.25.17l.12,0,.13.05.48.11.25.05.3.05.3,0a5.88,5.88,0,0,0,1.45,0C162.29,20.62,162.32,20.6,162.11,19.75Zm-8.51-4.7c.13.29.19.46.27.61.24.43.49.85.72,1.28.37.69.73,1.38,1.11,2.07a1.91,1.91,0,0,0,.67.72.71.71,0,0,0,.14.1h0a2.26,2.26,0,0,0,.26.16h0A14.79,14.79,0,0,0,153.6,15.05ZM156,20.69l-.31-.51-2.13-3.4c-.26-.4-.49-.82-.76-1.21h0l-.28-.38-.17-.22a12,12,0,0,0-1.22-1.35l-.18-.16-.32-.27a4.41,4.41,0,0,0-.49-.36,1.83,1.83,0,0,0-.3-.18,2.14,2.14,0,0,0-.3-.17l-.31-.16-.69-.3-1.13-.51-.92-.38c-.31-.12-.61-.25-.93-.36l-.33-.12-.69-.2-.7-.17-.7-.16-.35-.07a2.94,2.94,0,0,0-.83.05,1.44,1.44,0,0,0,.43,1.07c.46.71.94,1.43,1.39,2.16a1.35,1.35,0,0,1-.25,1.75l-.11.1-.12.1-.12.1-.26.17c-.08.07-.17.12-.25.18h0l-.12.09-.06,0c-.13.09-.28.15-.53.29l.54.07h.13c.51,0,1,.07,1.53.13l.51.06.51.08.5.08.6.11.9.2.49.12,1,.26c.65.19,1.3.4,1.95.62a10,10,0,0,1,1.67.77,3,3,0,0,1,.61.58c-.66-.14-1.32-.25-2-.35l-.55-.07c-.22,0-.44-.06-.66-.07a5.35,5.35,0,0,0-.55-.05.9.9,0,0,0-.23,0l-.55,0-.41,0-.42,0c-.72,0-1.44,0-2.17,0l-.45,0c-.25,0-.49,0-.74,0l-.27,0h0l-.27,0a9.07,9.07,0,0,1-2.1-.51c-1-.36-1.91-.79-2.86-1.17-.23-.09-.48-.15-.77-.24,0,0,0,.1,0,.14s0,.08,0,.12a1,1,0,0,0,.22.52l.09.1a2.17,2.17,0,0,0,.29.24l.05,0,.27.2.33.24a12.4,12.4,0,0,0,1.56.91,9.43,9.43,0,0,0,1.77.66,8.79,8.79,0,0,0,1.79.27l.38,0h.88l1.07,0,.56,0a18.69,18.69,0,0,1,2,0l.6,0,.41,0,.36,0,.5,0,.75.08.76.1,1.72.19.89.08.9.09h0Zm25.41,64.7a37.79,37.79,0,0,0-.71-4.65c-.09-.45-.19-.89-.3-1.33-.24-1-.53-2-.84-3a8.37,8.37,0,0,1-.13-4.93c.16-.53.27-1.09.48-1.62a38,38,0,0,0,1.29-5.66,1,1,0,0,0-.06-.27c-.5-.15-1-.33-1.52-.49-.87-.25-1.73-.51-2.6-.72a15.58,15.58,0,0,0-2.72-.44c-2.13-.14-4.27-.26-6.4-.41a1,1,0,0,0-1,.55C165.93,64,165,65.52,164,67.06a1.75,1.75,0,0,0-.14,1.81c.24.51.5,1,.76,1.53l.36.71c.77,1.45,1.58,2.88,2.31,4.35a19,19,0,0,1,1.31,3.45c.2.68.37,1.37.52,2.06a6.43,6.43,0,0,1-.86-.8,2.48,2.48,0,0,1-.25-.3,1.57,1.57,0,0,1-.19-.36c-.26-.75-.5-1.51-.7-2.27v0a40.13,40.13,0,0,0-2.46-4.85c-.48-.84-1-1.66-1.45-2.52l-.2-.36a3.25,3.25,0,0,1-.19-2.7,17.49,17.49,0,0,1,2.32-4.9,1,1,0,0,0,.11-.21.55.55,0,0,0,0-.37,1.13,1.13,0,0,1,.1-1.06c.56-1,1.13-2,1.75-3a1.87,1.87,0,0,1,1.13-.71,2.36,2.36,0,0,0-.7,1.55c.53-.57,1-1.12,1.49-1.61a2.36,2.36,0,0,1,2-.85l-1,1.24a24.5,24.5,0,0,1,2.45-.93c.21.5-.18.62-.38.84l-.6.65a.49.49,0,0,0,.41,0c.72-.37,1.43-.76,2.16-1.1a2.65,2.65,0,0,1,1.06-.28,9.25,9.25,0,0,1,1.82.15,9.8,9.8,0,0,1,3.91,1c-.1-1.34-.19-2.53-.27-3.73-.16-2.16-.32-4.31-.46-6.47-.09-1.25-.08-2.51-.24-3.75A20.11,20.11,0,0,0,178.57,38a40.62,40.62,0,0,0-4.17-7.27,16.51,16.51,0,0,0-1.75-2c-.51-.53-1.07-1-1.59-1.54s-.93-1-1.42-1.48a8.31,8.31,0,0,0-3.56-2.15,4.06,4.06,0,0,0-1.86-.12,45.71,45.71,0,0,1-6.89.78c-1.62,0-3.24,0-4.86,0-1.35,0-2.7,0-4.05,0a31,31,0,0,1-8.31-1.55c-1.83-.63-3.62-1.39-5.44-2.06a28.77,28.77,0,0,0-5.8-1.36,16.38,16.38,0,0,0-9.37,1.21,3.4,3.4,0,0,0-1.22.91c-1.36,1.61-2.71,3.24-4,4.92a123,123,0,0,0-7.55,11.36,1.16,1.16,0,0,0,0,1.45c1.66,2.41,3.28,4.84,4.94,7.25a2.43,2.43,0,0,0,.82.7c.75.44,1.52.81,2.27,1.23.48.28.52.39.33.9a12,12,0,0,1-.69,1.55,47.43,47.43,0,0,1-3.35,5.2c-1.4,1.93-2.75,3.89-4.1,5.86a2.36,2.36,0,0,0-.41,1c-.1.84-.21,1.67-.31,2.51-.2,1.6-.39,3.21-.56,4.81l-.15,1.47c-.26,2.71-.42,5.44-.64,8.16,0,.68-.16,1.35-.24,2.06a4.37,4.37,0,0,1-.51-.12c-2-.74-1.69-.28-2.73-2.45-.73-1.5-1.5-3-2.27-4.47-.32-.63-.68-1.26-1-1.87a2.41,2.41,0,0,0-.52-.69c-.3-.24-.6-.47-.91-.68a5.45,5.45,0,0,0-.62-.35c-1.59-.76-3.2-1.46-4.8-2.2l-.42-.2a2.56,2.56,0,0,0-2.71.3c-.09.07-.13.22-.23.39l.81.1h.11c.5.05,1,.1,1.5.18a16.63,16.63,0,0,1,5.13,2l1,.55a3.48,3.48,0,0,1,1.33,1.5c-.75.28-1,.28-1.4-.08A11.71,11.71,0,0,0,91,71.19a27.54,27.54,0,0,0-5.13-.51,1.51,1.51,0,0,0-1.3.69c-.1.14-.18.29-.27.44a32.78,32.78,0,0,0-2.21,4.82,6.82,6.82,0,0,0-.24,4.75c.54,1.58,1.15,3.14,1.66,4.73,1,3,2.4,5.75,3.61,8.62l.13.26a6.41,6.41,0,0,0,2.49,2.84,53,53,0,0,1,6.39,5c.57.54,1.19,1,1.79,1.52a2.26,2.26,0,0,0,2.57.15,2,2,0,0,0,1.07-1.88c.11-1.42.26-2.84.39-4.25a2.42,2.42,0,0,0,0-.66,54.24,54.24,0,0,0-2-8.53,3,3,0,0,1-.14-.72c0-.24.13-.36.36-.37a.85.85,0,0,1,.88.55c.22.57.4,1.16.66,1.71A38.64,38.64,0,0,1,103.88,97c1.53,5.52,3,11,4.57,16.56a5.11,5.11,0,0,0,2,2.89,33.21,33.21,0,0,0,8,4.14c2.79,1,5.63,1.88,8.45,2.81,1.18.39,2.36.79,3.56,1.14,3.29,1,6.59,1.93,9.89,2.85,1.92.52,3.86,1,5.8,1.39a29.83,29.83,0,0,0,7.81.94c1.81-.09,3.62-.24,5.43-.41,2.47-.23,4.94-.47,7.41-.77a6.86,6.86,0,0,0,2.33-.61,6.35,6.35,0,0,0,2.82-3,63.42,63.42,0,0,0,3.14-7.86c1.16-3.8,2.39-7.59,3.39-11.44s1.72-7.67,2.36-11.55A33.89,33.89,0,0,0,181.38,85.39Zm-16.93,46.94c-.3,0-.56.07-.82.12-.92.17-1.83.37-2.75.52a57.7,57.7,0,0,0-8.4,1.92,94.12,94.12,0,0,0-12.29,4.72,39,39,0,0,1-4.69,2.16,1.09,1.09,0,0,1-1-.08,121.58,121.58,0,0,0-14.59-7.7,55,55,0,0,1-8.83-4.71c-.38-.25-.8-.44-1.28-.7,0,.24,0,.39.08.53.36,2,.73,4.06,1.09,6.09q1.35,7.52,2.69,15a1.22,1.22,0,0,0,.58.87c2.32,1.52,4.6,3.11,7,4.59a20.32,20.32,0,0,1,5.64,5.33c.44.62.62.62,1.25.15a8.46,8.46,0,0,1,1.33-.91c4.25-2,8.46-4.07,12.57-6.33a84,84,0,0,0,10.29-6.33c1.3-1,2.58-2,3.91-2.9a61.13,61.13,0,0,0,7.45-6.48,2.42,2.42,0,0,0,.84-1.66c0-1.26.06-2.51.08-3.76A1.71,1.71,0,0,0,164.45,132.33Zm-43.18,25.44a47.39,47.39,0,0,0-4.17-2.35l-.81-.42-.26-.14-.63-.35q-.47-.25-.93-.54l-.72-.44c-.27-.16-.53-.33-.8-.51l-1.06-.7-.26-.18-1.06-.73-1.36-1-1.35-1c-.19-.14-.39-.28-.57-.43l-.18-.17-1-.95-1-.95-.9-.85L104,146c-.32-.31-.64-.62-1-.94-2-2-3.92-4.14-5.88-6.21-.11-.12-.23-.22-.37-.36-.22.46-.44.84-.59,1.25-1.53,4.25-3,8.51-4.59,12.76a.88.88,0,0,0,.08.82c.46.79.88,1.59,1.34,2.37.75,1.27,1.51,2.54,2.29,3.79,1.15,1.89,2.35,3.75,3.48,5.64,1.34,2.24,2.53,4.56,4.07,6.68l.39.57.24.36.51.83.37.59,0,.07,0,.07c.1.16.22.32.33.47.34.47.73.93,1.14,1.4.42-.55.76-1,1.11-1.5a22.24,22.24,0,0,1,2.67-3.23c.76-.69,1.49-1.42,2.25-2.12,3.29-3,6.6-6,9.89-9a11.07,11.07,0,0,0,.88-1A9,9,0,0,0,121.27,157.77Zm17.11,14.1a74.1,74.1,0,0,1-5.84-6.43,1.2,1.2,0,0,0-.59-.4c-1.36-.39-2.74-.76-4.11-1.12l-.24,0h-.41l-3.2.43-3.21.45c-.33,0-.65.15-1,.22.16,1.13,2.86,6.06,4.17,7.67l.28,0,.51,0a48.37,48.37,0,0,1,8.76-.1,2.77,2.77,0,0,1,.53.1l.21.07.08,0h0l.17.08.21.15.09.08.1.09a2.85,2.85,0,0,1,.25.33.54.54,0,0,1,.07.13l.17.27c.38.64.81,1.26,1.29,2l.48-1h0c.15-.32.31-.63.46-.94l.89-1.83A2,2,0,0,0,138.38,171.87ZM159.45,170l-.06,0h0c-.19.22-.36.45-.53.68s-.36.45-.55.66c-2.05,2.26-4.08,4.53-6.17,6.75-.15.16-.3.32-.46.47s-.37.36-.56.53l-.72.64-.35.32-.32.28-.4.37-.13.11a.57.57,0,0,1-.13.08.5.5,0,0,1-.34.06l-.1,0-.2-.06h0l-.42-.18-.33-.17-.21-.11-.18-.1-.19-.12-.33-.22c-.2-.14-.4-.3-.59-.46l-.28-.26-4.13-4-.51-.47c-.09.07-.14.09-.16.13-.84,1.56-1.7,3.11-2.51,4.68l-.06.14a.78.78,0,0,0-.05.14,3,3,0,0,0-.17,1c0,.93.06,1.86.09,2.8.2,7.44.39,14.89.61,22.33,0,1,.16,2,.25,3.06l.11,0h0l.09,0h0c.12-.15.23-.3.34-.46,1.58-2.43,3.21-4.83,4.74-7.29,1.64-2.62,3.26-5.27,4.76-8a143.55,143.55,0,0,0,9.8-22.07c.15-.41.27-.82.41-1.24Zm6.71-32.73-.16.22c-.11.15-.21.3-.32.44a4.73,4.73,0,0,1-.31.43,5.16,5.16,0,0,1-.53.6c-1.4,1.34-2.84,2.65-4.31,3.9s-2.71,2.2-4.09,3.26l-2.61,2c-.87.66-1.75,1.31-2.64,1.94-.33.23-.65.46-1,.67s-.66.44-1,.65l-1,.63h0c-.67.41-1.36.81-2,1.2l-.35.19-1.21.68L143,155c-3.52,1.9-7,3.84-10.69,5.45-.3.13-.59.31-1,.49.66.57,1.25,1.06,1.81,1.57.91.83,1.8,1.67,2.7,2.5.45.42.9.84,1.36,1.25l.34.31c.33.32.68.63,1,.94s.48.44.72.66l.13.12c.24.23.48.46.71.7l.63.64c.2.22.41.44.6.66s.35.38.52.58l.66.78c1.25,1.52,2.49,3.05,3.77,4.53a11.82,11.82,0,0,0,.92,1l.49.46.48.45a1.61,1.61,0,0,0,1.08.52c.53-.67,1.07-1.31,1.55-2q5.42-7.6,10.8-15.21a5.62,5.62,0,0,0,.93-2c.2-.87.41-1.72.63-2.58s.43-1.72.64-2.57q.48-1.94.93-3.87c.1-.43.2-.86.29-1.3.72-3.28,1.25-6.61,2-9.9A1.37,1.37,0,0,0,166.16,137.3Zm29.31,51.95c-.22-1.21-.39-2.43-.61-3.64-.71-4-1.45-8.08-2.17-12.11s-1.45-8.13-2.21-12.19c-.69-3.67-1.44-7.32-2.13-11a4.49,4.49,0,0,0-1.74-2.8c-2.56-2-5.3-3.83-8-5.62-2.05-1.35-4.13-2.67-6.06-4.2a20.73,20.73,0,0,0-5.68-3.22c-.53-.19-1-.41-1.54-.61,0-.17,0-.27,0-.36s0-.44,0-.67c0-.69,0-.7.66-.94a9.68,9.68,0,0,0,2.44-1.19,13,13,0,0,0,3.46-4.17,38.54,38.54,0,0,0,3-6.79,151.55,151.55,0,0,0,4.64-15.45A125.29,125.29,0,0,0,182,90.68a26.21,26.21,0,0,0-.19-7.86c-.15-.85-.33-1.71-.51-2.56-.11-.46-.21-.93-.33-1.4-.23-1-.47-2-.73-2.93a8.34,8.34,0,0,1,0-4.35c.48-1.73.91-3.47,1.37-5.21a19.18,19.18,0,0,0,.64-3.26,8,8,0,0,0,0-1.38c-.05-.5-.1-1-.14-1.5v0c-.23-2.62-.39-5.25-.69-7.86a25.17,25.17,0,0,1,.37-7.84c.25-1.3.49-2.6.7-3.92a32.45,32.45,0,0,0,0-9.18,3.73,3.73,0,0,0-1.5-2.76c-.29-.22-.55-.47-.87-.74.13-.69.26-1.39.4-2.09a16.26,16.26,0,0,0-.78-9.48,8.61,8.61,0,0,0-.34-.89A2.67,2.67,0,0,0,178,14.32a17.56,17.56,0,0,1-2.14-1.14c-1-.65-1.86-1.46-2.86-2.06a50.8,50.8,0,0,1-9.23-7.56c-.45-.44-.82-1-1.26-1.43a11.9,11.9,0,0,0-1.6-1.5,3.27,3.27,0,0,0-3-.47,17.85,17.85,0,0,1-2.51.56c-1.58.2-3.17.31-4.77.45a5.73,5.73,0,0,0-.58.07,22.4,22.4,0,0,1-5.95.18c-3.12-.18-6.23-.48-9.35-.61C130.52.64,126.27.59,122,.75a18.59,18.59,0,0,0-5.83,1.1,32.48,32.48,0,0,0-9.11,4.9,3.4,3.4,0,0,1-1.45.68c-1.42.3-2.82.68-4.24,1a48.25,48.25,0,0,0-5.48,1.71,6.57,6.57,0,0,0-3.56,2.83c-.06.1-.14.2-.21.3-3.06,4.67-6,9.41-8.66,14.32-1.11,2-2.37,4-3.61,5.91-1.42,2.21-2.92,4.37-4.36,6.56a4.23,4.23,0,0,0-.57,3.85c.6,1.78,1,3.64,1.45,5.47,1,3.59,1.76,7.21,2.36,10.87A63.3,63.3,0,0,0,82,72a2,2,0,0,1,0,1.48l-.42,1.1a21.06,21.06,0,0,0-1.19,4.33,3.83,3.83,0,0,0,.11,1.75c.46,1.45.93,2.89,1.42,4.33a75.24,75.24,0,0,0,4.42,10.52,10,10,0,0,0,3,3.5,70.46,70.46,0,0,1,6.89,5.54,2.52,2.52,0,0,1,.82,1.57c.32,2.26.71,4.51.91,6.79.32,3.57.53,7.15.73,10.73a91.72,91.72,0,0,1-.08,9.95c-.09,1.88,0,1.6-1.41,2.44a2.94,2.94,0,0,0-1.43,1.79c-.06.19-.13.37-.2.56a3.14,3.14,0,0,1-1.79,2c-2.46,1.11-4.91,2.26-7.32,3.47s-5,2.4-7.55,3.53c-1.76.79-3.47,1.72-5.18,2.65a3.41,3.41,0,0,0-1.1,1c-.63.88-1.21,1.79-1.76,2.72-3.6,6-7,12.16-10.2,18.37a108,108,0,0,0-7.23,17.33c-.22.71-.41,1.42-.56,2.14-.19.9.06,1.28.93,1.52.57.15,1.14.32,1.71.46a121,121,0,0,0,14.29,2.52l2.7.31c-.23.32-.39.56-.57.78-1.75,2.29-3.52,4.56-5.26,6.85-1.56,2-3.11,4.12-4.66,6.18v0H93.4c-.51-2.53-1-5.05-1.56-7.57-.28-1.4-.63-2.79-.77-4.2-.19-1.76-.24-3.53-.27-5.3q-.14-8.93-.21-17.86,0-4.6,0-9.21c0-1.92.07-3.84.13-5.76a5.36,5.36,0,0,1,.06-.68l.18,0c.41.51.85,1,1.22,1.55a48.37,48.37,0,0,0,5.29,6.33,11.44,11.44,0,0,1,.9,1.06c1.88,2.5,3.74,5,5.64,7.48.59.78,1.29,1.48,1.89,2.16a2,2,0,0,0,1.41-.76c1-1.05,2-2.11,3-3.13,1.67-1.69,3.36-3.35,5-5l1.43-1.4a23.78,23.78,0,0,0,4.87,8.55,12.8,12.8,0,0,0-.45,1.3c-.73,3.16-1.43,6.32-2.18,9.47q-1.73,7.17-3.5,14.32c-.72,2.91-1.45,5.81-2.18,8.72h2.2c.34-1.44.67-2.89,1-4.33q1.84-8.43,3.69-16.85,1-4.78,2.13-9.56a3.79,3.79,0,0,1,.64-1.78c.88-1,1.74-2,2.61-3a.78.78,0,0,1,.41-.3c.8-.1,1.6-.16,2.45-.24a23.38,23.38,0,0,1,.27,2.34,20.48,20.48,0,0,0,.87,4.92q.83,3.09,1.68,6.18c.05.18.14.36.22.57l.74-.18c0-.16.06-.28.08-.4.56-2.77,1.12-5.53,1.67-8.31.1-.52.14-1.06.19-1.59,0-.35,0-.71,0-1.22l1.95,1.26c0,.19,0,.34,0,.49.09,6.91.2,13.82.27,20.72,0,3.76,0,7.52,0,11.28h54.9l.19-.13a3.51,3.51,0,0,0,.53-.4,1.12,1.12,0,0,0,.34-1.45,20.37,20.37,0,0,0-1.28-2.4c-.7-1-1.48-2-2.28-3-1.38-1.67-2.8-3.3-4.2-4.95a6.1,6.1,0,0,1-.4-.53l.55-.33c2-1.15,4-2.26,5.92-3.46,1.15-.7,2.24-1.51,3.33-2.31a9.33,9.33,0,0,0,1.11-1.07A1.09,1.09,0,0,0,195.47,189.25ZM168.05,79.87a1.57,1.57,0,0,1-.19-.36c-.26-.75-.5-1.51-.7-2.27.22.52.41,1.05.59,1.59C167.87,79.17,168,79.52,168.05,79.87Z"/><path class="cls-1" d="M166.16,137.3a1.37,1.37,0,0,1,.89,1.82c-.7,3.29-1.23,6.62-2,9.9-.76,3.46-1.67,6.88-2.49,10.32a5.62,5.62,0,0,1-.93,2q-5.4,7.59-10.8,15.21c-.48.67-1,1.31-1.55,2a1.59,1.59,0,0,1-1.08-.52,23.7,23.7,0,0,1-1.89-1.86c-1.28-1.48-2.53-3-3.77-4.53a38,38,0,0,0-4-4.15c-1.83-1.64-3.61-3.33-5.42-5-.56-.52-1.15-1-1.81-1.57.36-.19.64-.36,1-.49,3.67-1.61,7.17-3.55,10.69-5.45a78.08,78.08,0,0,0,8.16-4.87c1.78-1.26,3.51-2.6,5.25-3.93,1.38-1.06,2.76-2.13,4.09-3.26s2.91-2.56,4.31-3.9A13.15,13.15,0,0,0,166.16,137.3Z"/><path class="cls-1" d="M122.77,159.29a11.07,11.07,0,0,1-.88,1q-4.94,4.5-9.89,9c-.76.69-1.49,1.42-2.25,2.12a21.64,21.64,0,0,0-2.67,3.22c-.35.47-.69,1-1.11,1.51a18.71,18.71,0,0,1-1.57-2c-.5-.79-1-1.6-1.51-2.35-1.54-2.12-2.73-4.44-4.07-6.68-1.13-1.89-2.33-3.75-3.49-5.64-.77-1.25-1.53-2.52-2.28-3.79-.46-.78-.88-1.58-1.34-2.37a.88.88,0,0,1-.08-.82c1.54-4.25,3.05-8.51,4.59-12.76.15-.41.37-.79.59-1.25l.37.36c2,2.07,3.89,4.17,5.88,6.21,1.3,1.33,2.69,2.58,4,3.86a6.08,6.08,0,0,0,.75.59c.9.65,1.81,1.28,2.71,1.92a51.23,51.23,0,0,0,6.53,4,47.3,47.3,0,0,1,4.17,2.34A9.5,9.5,0,0,1,122.77,159.29Z"/><path class="cls-1" d="M139.26,209.05c-.09-1-.22-2-.25-3.06-.22-7.44-.41-14.89-.61-22.33,0-.94-.11-1.87-.09-2.8a2.78,2.78,0,0,1,.29-1.27c.8-1.58,1.66-3.12,2.5-4.68,0,0,.08-.06.16-.13l.51.47,4.13,4a7.56,7.56,0,0,0,2.53,1.62.73.73,0,0,0,.9-.17c.94-.87,1.94-1.68,2.81-2.61,2.09-2.22,4.12-4.49,6.17-6.75.38-.43.72-.9,1.08-1.35l.13.07c-.14.42-.26.83-.41,1.24a143.55,143.55,0,0,1-9.8,22.07c-1.5,2.7-3.12,5.34-4.76,8-1.53,2.46-3.16,4.86-4.74,7.29-.11.16-.23.3-.34.46Z"/><path class="cls-2" d="M138.55,172.12l-1.83,3.75c-.54-.85-1-1.54-1.45-2.28a2,2,0,0,0-1.73-1.07,48.37,48.37,0,0,0-8.76.1l-.51,0-.28,0c-1.31-1.61-4-6.53-4.17-7.67a9.6,9.6,0,0,1,1-.22c2.14-.3,4.27-.6,6.41-.88a1.6,1.6,0,0,1,.65.06c1.37.36,2.75.73,4.11,1.12a1.27,1.27,0,0,1,.59.4,74.1,74.1,0,0,0,5.84,6.43A1.23,1.23,0,0,1,138.55,172.12Z"/><path class="cls-1" d="M156,20.69c-1.22-.13-2.37-.21-3.51-.36a24.66,24.66,0,0,0-5.36-.28c-.83.07-1.67.08-2.51.08a10,10,0,0,1-6.09-2.29,1.23,1.23,0,0,1-.66-1.17c.29.09.54.15.77.24.95.39,1.89.82,2.86,1.17a8.41,8.41,0,0,0,3.4.55,29.38,29.38,0,0,1,8,.59,3,3,0,0,0-.61-.58,10.5,10.5,0,0,0-1.67-.77,28.65,28.65,0,0,0-8-1.65c-.17,0-.33,0-.67-.09.28-.16.44-.23.58-.32a6.81,6.81,0,0,0,1-.74,1.35,1.35,0,0,0,.25-1.75c-.45-.73-.93-1.44-1.39-2.16a1.44,1.44,0,0,1-.43-1.07,2.94,2.94,0,0,1,.83-.05,20.12,20.12,0,0,1,2.77.72c1.25.45,2.45,1,3.66,1.55a8.71,8.71,0,0,1,3.3,2.87,17.73,17.73,0,0,1,1,1.61C154.33,18.05,155.11,19.31,156,20.69Z"/><path class="cls-1" d="M154.64,6.17c.26.23.4.33.51.45a26.49,26.49,0,0,1,5.42,7.75,14.54,14.54,0,0,1,.71,2c.3,1.12.56,2.24.83,3.36.21.86.18.88-.71,1a6.53,6.53,0,0,1-2.78-.22,1.27,1.27,0,0,1-.81-.65c-.88-1.59-1.82-3.14-2.74-4.71a1.13,1.13,0,0,1-.15-.47c0-1,0-2,0-2.94a27.73,27.73,0,0,0-.29-5.07A4.27,4.27,0,0,1,154.64,6.17Z"/><path class="cls-1" d="M159.91,9.15a4.44,4.44,0,0,1,.8.61,8.84,8.84,0,0,0,1.89,1.51A5.55,5.55,0,0,1,164.73,14a.91.91,0,0,0,.79.68,7.26,7.26,0,0,0,1.68,0,12.76,12.76,0,0,1,5,.07A6.3,6.3,0,0,1,176,17.33c.34.47.62,1,1,1.63-.28-.11-.4-.14-.49-.19a6.94,6.94,0,0,0-2.77-.69,5,5,0,0,0-1.65.27c-.4.11-.77.33-1.16.48a3.83,3.83,0,0,1-2.32.14c-.92-.25-1.83-.53-2.76-.78-.49-.13-1-.23-1.5-.31a.67.67,0,0,1-.6-.54c-.31-.94-.65-1.86-1-2.78a19,19,0,0,0-2.82-5.07,1.82,1.82,0,0,1-.15-.23Z"/><path class="cls-1" d="M168,12.56a4.16,4.16,0,0,0-.79,0,1.13,1.13,0,0,1-1.33-.78c-.11-.24-.22-.49-.32-.74a4.14,4.14,0,0,0-1.92-2.16,3.38,3.38,0,0,0-.8-.36,11,11,0,0,1-3.92-2.28c-.36-.28-.73-.57-1.11-.85a5.06,5.06,0,0,0-2.5-1c-.14,0-.28,0-.41-.07s0-.15,0-.18c.75-1.24.74-1.21,2.08-.73s2.55.87,3.85,1.26a1.79,1.79,0,0,1,1,.65c.25.33.54.64.79,1a14.1,14.1,0,0,0,2.73,2.78,4.66,4.66,0,0,1,1.35,1.81,2.71,2.71,0,0,0,1.35,1.49Z"/><path class="cls-1" d="M163.2,20.16c-.2-.68-.41-1.35-.6-2a26.48,26.48,0,0,0-2.91-7.2l-.5-.81c1.84,1.25,4.32,7.3,4.16,10Z"/><path class="cls-1" d="M156.8,20a2.44,2.44,0,0,1-1.1-1c-.38-.69-.74-1.38-1.11-2.07-.23-.43-.48-.85-.72-1.28-.08-.15-.14-.32-.27-.61A14.79,14.79,0,0,1,156.8,20Z"/><path d="M125.55,59.75a3,3,0,0,1,.23-.27,43.36,43.36,0,0,1,6.62-5.15,6.27,6.27,0,0,1,2.29-.73,19.09,19.09,0,0,1,6.31.06c1.46.21,2.91.46,4.36.7a4.48,4.48,0,0,1,2.84,1.71c.32.41.67.81,1,1.21l.16-.1-.6-1.21c-.15-.31-.33-.61-.45-.93,0-.14,0-.4.06-.46a.6.6,0,0,1,.53-.07,6.33,6.33,0,0,1,1.16.88c.44.46.8,1,1.27,1.59a1.93,1.93,0,0,0-.48-1.12c-.16-.24-.37-.46-.52-.71s-.08-.34,0-.4a.6.6,0,0,1,.45-.14.92.92,0,0,1,.42.27c.56.55,1.13,1.09,1.65,1.68a8.32,8.32,0,0,1,.75,1.17,1.34,1.34,0,0,0,.42.52L154,57.09a5.4,5.4,0,0,1,1,2.87c0,.32,0,.64.08.95s.08.6-.3.73a.8.8,0,0,1-1-.29c-.38-.6-.76-1.2-1.15-1.8a4.58,4.58,0,0,0-.3-.35c.14.54.24.91.33,1.29.15.64,0,.8-.66.75a39.12,39.12,0,0,1-5.88-.94c-2.08-.49-4.18-.88-6.28-1.31a10.09,10.09,0,0,0-3.15,0c-1.52.17-3,.29-4.55.46-1.07.12-2.14.3-3.21.43-.83.1-1.66.17-2.49.24C126.09,60.11,125.75,60.13,125.55,59.75Z"/><path d="M93.08,80.08l-.58-.92c-.22.31-.4.52-.55.76a2.88,2.88,0,0,1-1.37,1.19,2.1,2.1,0,0,1-.85.19c-.63,0-.84-.29-.72-.9a4.57,4.57,0,0,1,.19-.63,3.94,3.94,0,0,0,0-2.47.66.66,0,0,0-.28-.4c-.41-.2-.85-.34-1.25-.5-.83,1.34-1.59,2.6-2.37,3.85a2.32,2.32,0,0,1-.61.71c-.47.34-.87.12-.9-.46-.07-1.47-.14-2.94-.19-4.41A3.7,3.7,0,0,1,85.82,73a5.17,5.17,0,0,1,3.47-.18c.58.19,1.14.43,1.71.66a3.51,3.51,0,0,1,1.5,1.28c.72,1,1.44,2.11,2.14,3.18a37,37,0,0,1,2.44,5.27,3.9,3.9,0,0,1,.21,2.65,5.92,5.92,0,0,0,1.45,5.33,6.67,6.67,0,0,1,1.47,2.35,1.52,1.52,0,0,1,0,1.22,6.45,6.45,0,0,1-2.45,2.8c-.06-.3-.13-.57-.16-.85-.12-1.39-.23-2.79-.34-4.18a2.34,2.34,0,0,0-.77-1.82,3,3,0,0,1-1-2.17,9.61,9.61,0,0,1,.23-2.93c0-.24.1-.47.17-.78-.56.3-1,.59-1.53.82s-1,.41-1.51.59a1,1,0,0,0-.71.58,6.75,6.75,0,0,0-.63,2.93,2.18,2.18,0,0,0,1.18,2.06,2.87,2.87,0,0,1,.54.37c.33.28.4.57.22.84a.65.65,0,0,1-.82.31,3.14,3.14,0,0,1-.94-.55,6.86,6.86,0,0,1-.76-9.68C91.67,82.15,92.34,81.12,93.08,80.08Z"/><path d="M149.19,64a3.26,3.26,0,0,0-2.57-1.39c-1-.05-2-.1-3-.17a36.79,36.79,0,0,0-6.47.07,7.78,7.78,0,0,0-2.22.48c-.68.3-1.34.63-2,1l-1.55.84a2.18,2.18,0,0,0-1,1.25c-.09.25-.18.51-.28.76-.28.72-.18,1,.51,1.35a10.92,10.92,0,0,0,2.22.91c.65.19,1.3.34,1.95.49a22.56,22.56,0,0,0,9.29.27,23,23,0,0,0,2.26-.63c.21-.06.5-.12.4-.55-.53.16-1,.36-1.57.47a10.52,10.52,0,0,1-1.75.24c-.53,0-1.1.24-1.56-.07.33-1.44.64-2.79.94-4.16a2.58,2.58,0,0,1,2.6,1c.56.75,1.25,1.39,1.9,2.1.82-.5.85-.64.41-1.3l-.17-.24-2.09-2.86a2,2,0,0,1,2,.6c.32.4.7.75,1,1.13a1.16,1.16,0,0,0,1.7.19A4.67,4.67,0,0,0,149.19,64Zm-15.31,4.52-1.11-.33-1.22-.38c.28-1,.57-1.47,1.2-1.72a3.71,3.71,0,0,1,1-.21,4.75,4.75,0,0,0,.29,2.5Z"/><path d="M171.56,104.26l-.06-.78c.89-.15,1.48.43,1.64,1.64a2.46,2.46,0,0,1-.38.14,16.52,16.52,0,0,1-5.06.13c-.7-.14-1.39-.33-2.09-.45a9,9,0,0,0-3.94.19,6.41,6.41,0,0,1-3.85-.13,7.61,7.61,0,0,0-1.72-.35,65.86,65.86,0,0,0-10.32-.15c-1.59.07-3.19.19-4.78.25a10.67,10.67,0,0,1-1.69-.12,1.32,1.32,0,0,1-.55-.31.32.32,0,0,1,0-.52,4.26,4.26,0,0,1,2.87-1.47c.05,0,.09,0,.22.09l-.6,1.28a6,6,0,0,0,1.95,0c2.34-.54,4.67-1.12,7-1.61a35.94,35.94,0,0,1,5.65-1,8.33,8.33,0,0,1,4.29.82,4,4,0,0,0,2.64.31c.94-.18,1.88-.36,2.83-.5a3.05,3.05,0,0,1,2.67,1l1.23,1.17A2,2,0,0,0,171.56,104.26Z"/><path d="M178.7,69.06c-.09-.66-.11-1.33-.25-2a2.26,2.26,0,0,0-.67-1.58,5.45,5.45,0,0,0-1.65-.94,25.32,25.32,0,0,0-6.93-.86,2.42,2.42,0,0,0-1.68.64c-.6.57-1.18,1.16-1.76,1.75l-.07.06a.26.26,0,0,0-.05.15c0,.07,0,.17-.07.31.31-.13.52-.19.7-.28s.63-.38.94-.58a2.05,2.05,0,0,1,1.28-.28c-.36.32-.77.54-1.13.82a22.45,22.45,0,0,0-1.73,1.48,1.75,1.75,0,0,0-.47,1.63l1.41-.54a2,2,0,0,0,1.71,1.45l.36.08a31.67,31.67,0,0,0,5.5.39,10.69,10.69,0,0,0,4.13-1A.62.62,0,0,0,178.7,69.06Zm-5.43,1.06a6.31,6.31,0,0,0,.12-4.81,5.09,5.09,0,0,1,2.49.83,1.34,1.34,0,0,1,.4.76c.16.84.27,1.69.4,2.56A5.4,5.4,0,0,1,173.27,70.12Z"/><path d="M167.75,89.3a4.85,4.85,0,0,1-.66,0,1.61,1.61,0,0,0-1.09.34c-.64.41-1.31.76-2,1.13a1.52,1.52,0,0,1-1.42.08c-1-.42-1.94-.83-2.89-1.29a3.5,3.5,0,0,0-1.56-.36c-1,0-2,0-2.94-.07a14.31,14.31,0,0,0-3.52.27,1.57,1.57,0,0,1-.43,0,.44.44,0,0,1-.32-.71,1.11,1.11,0,0,1,.3-.31,10.93,10.93,0,0,1,4.89-1.92,7.69,7.69,0,0,1,5.19,1.5c.48.3.94.63,1.43.89a1.73,1.73,0,0,0,1.77,0c.9-.54,1.81-1.07,2.7-1.64a1.86,1.86,0,0,1,2.48.19c.18.17.36.33.53.51.51.56.44.87-.31,1.09a11.14,11.14,0,0,1-1.51.28,5,5,0,0,1-.67,0Z"/><path d="M150.68,82.62a5.44,5.44,0,0,1-.19.61c-.11.27-.24.54-.37.81a3.19,3.19,0,0,0-.09,2.78c.11.25.17.53.28.88-.72-.1-.81-.66-1.16-1.11-.56.06-1.19.11-1.82.21a1.19,1.19,0,0,0-.48.32l-8.13,7.39c-.83.76-1.66,1.51-2.55,2.2.13-.16.25-.33.39-.49,3.17-3.46,6.3-7,9.54-10.37a37.24,37.24,0,0,1,3.79-3.15,2.58,2.58,0,0,1,.64-.25Z"/><path d="M85.69,85.09V82.87a5.7,5.7,0,0,1,.06-.58.45.45,0,0,1,.45-.41.42.42,0,0,1,.48.36,8,8,0,0,1,.16,1.38c0,1.08,0,2.16,0,3.24a9.2,9.2,0,0,0,.52,3,4.47,4.47,0,0,0,.54,1A16.88,16.88,0,0,0,91,94.47a10.57,10.57,0,0,1,.89.88.6.6,0,0,1,.08.86c-.22.22-.53.23-.86-.06a20.21,20.21,0,0,1-4.8-5.54A4.5,4.5,0,0,1,85.91,89c-.13-1.29-.19-2.59-.28-3.89Z"/><path class="cls-3" d="M191.37,210.28l.19-.13a3.51,3.51,0,0,0,.53-.4,1.12,1.12,0,0,0,.34-1.45,20.37,20.37,0,0,0-1.28-2.4c-.7-1-1.48-2-2.28-3-1.38-1.67-2.8-3.3-4.2-4.95a6.1,6.1,0,0,1-.4-.53l.55-.33c2-1.15,4-2.26,5.92-3.46,1.15-.7,2.24-1.51,3.33-2.31a9.33,9.33,0,0,0,1.11-1.07,1.09,1.09,0,0,0,.29-1c-.22-1.21-.39-2.43-.61-3.64-.71-4-1.45-8.08-2.17-12.11s-1.45-8.13-2.21-12.19c-.69-3.67-1.44-7.32-2.13-11a4.49,4.49,0,0,0-1.74-2.8c-2.56-2-5.3-3.83-8-5.62-2.05-1.35-4.13-2.67-6.06-4.2a20.73,20.73,0,0,0-5.68-3.22c-.53-.19-1-.41-1.54-.61,0-.17,0-.27,0-.36M97.17,136a2.94,2.94,0,0,0-1.43,1.79c-.06.19-.13.37-.2.56a3.14,3.14,0,0,1-1.79,2c-2.46,1.11-4.91,2.26-7.32,3.47s-5,2.4-7.55,3.53c-1.76.79-3.47,1.72-5.18,2.65a3.41,3.41,0,0,0-1.1,1c-.63.88-1.21,1.79-1.76,2.72-3.6,6-7,12.16-10.2,18.37a108,108,0,0,0-7.23,17.33c-.22.71-.41,1.42-.56,2.14-.19.9.06,1.28.93,1.52.57.15,1.14.32,1.71.46a121,121,0,0,0,14.29,2.52l2.7.31c-.23.32-.39.56-.57.78-1.75,2.29-3.52,4.56-5.26,6.85-1.56,2-3.11,4.12-4.66,6.18v0"/><path class="cls-4" d="M181.38,85.39a43,43,0,0,0-1.85-9,8.38,8.38,0,0,1-.13-4.93c.16-.55.27-1.11.48-1.63l.08-.21a42.8,42.8,0,0,0,1.21-5.45.9.9,0,0,0-.06-.26l-1.52-.5a24.9,24.9,0,0,0-5.32-1.16c-2.13-.14-4.27-.26-6.4-.41a1,1,0,0,0-1,.55C165.93,64,165,65.52,164,67.06a1.74,1.74,0,0,0-.14,1.81l.27.57c.28.56.56,1.11.85,1.66.77,1.46,1.58,2.89,2.31,4.37A19.53,19.53,0,0,1,168.68,79c.15.51.27,1,.39,1.55s.19.83.27,1.26c0,.26.12.58-.25.67s-.44-.22-.51-.49l-.06-.29c-.25-1-.45-2-.77-2.91a34.35,34.35,0,0,0-3.05-6.46c-.55-1-1.13-1.9-1.65-2.88a3.26,3.26,0,0,1-.27-2.45c0-.08.05-.17.08-.25a21.86,21.86,0,0,1,1.53-3.67,13.48,13.48,0,0,1,.79-1.23.73.73,0,0,0,.15-.58,1,1,0,0,1-.09-.47,1.25,1.25,0,0,1,.19-.59c.43-.77.86-1.52,1.31-2.27.15-.24.29-.48.44-.71a1.84,1.84,0,0,1,1.13-.72,2.45,2.45,0,0,0-.7,1.51v0l0,0c.51-.56.95-1.09,1.45-1.57a2.39,2.39,0,0,1,2-.85l-1,1.24c.88-.21,1.57-.81,2.45-.93a.49.49,0,0,1-.14.63l-.24.21-.6.65a.49.49,0,0,0,.41,0l1.29-.68.87-.42a2.83,2.83,0,0,1,1.06-.28,9.32,9.32,0,0,1,1.82.15,9.75,9.75,0,0,1,3.91,1c-.1-1.34-.19-2.53-.27-3.73-.16-2.16-.32-4.31-.46-6.47-.09-1.25-.08-2.51-.24-3.75A20.11,20.11,0,0,0,178.57,38a40.62,40.62,0,0,0-4.17-7.27,17.31,17.31,0,0,0-1.75-2c-.5-.54-1.07-1-1.59-1.53s-.93-1-1.42-1.49a8.35,8.35,0,0,0-3.56-2.15,4.1,4.1,0,0,0-1.87-.12,51.35,51.35,0,0,1-6.3.77h-.58c-1.62,0-3.24,0-4.86,0-1.35,0-2.7,0-4.05,0a31,31,0,0,1-8.31-1.55c-1.83-.63-3.62-1.39-5.44-2.06a28.77,28.77,0,0,0-5.8-1.36,16.38,16.38,0,0,0-9.37,1.21,3.52,3.52,0,0,0-1.22.91c-1.36,1.61-2.71,3.24-4,4.92a123,123,0,0,0-7.55,11.36,1.15,1.15,0,0,0,0,1.45c1.66,2.41,3.28,4.84,4.94,7.25a2.32,2.32,0,0,0,.82.7c.74.44,1.52.81,2.27,1.23.48.27.52.39.33.9a12,12,0,0,1-.69,1.55,46,46,0,0,1-3.35,5.2c-1.4,1.93-2.75,3.89-4.1,5.86a2.5,2.5,0,0,0-.41,1c-.13,1.09-.27,2.18-.4,3.26q-.35,2.78-.62,5.53c-.27,2.72-.42,5.44-.64,8.16,0,.68-.15,1.35-.24,2.06a3.71,3.71,0,0,1-.5-.12c-2-.74-1.7-.28-2.74-2.45-.73-1.51-1.5-3-2.27-4.47-.33-.63-.68-1.25-1-1.87a2.41,2.41,0,0,0-.52-.69,8.21,8.21,0,0,0-1.53-1c-1.73-.83-3.48-1.59-5.22-2.4a2.56,2.56,0,0,0-2.71.3,1.34,1.34,0,0,0-.22.39l.8.1c.54.06,1.08.1,1.61.19a18.26,18.26,0,0,1,6.09,2.51,3.48,3.48,0,0,1,1.33,1.5c-.75.28-1,.28-1.4-.08A11.76,11.76,0,0,0,91,71.19a26.79,26.79,0,0,0-5.13-.5,1.48,1.48,0,0,0-1.3.68c-.1.14-.18.29-.27.44a32.78,32.78,0,0,0-2.21,4.82c-.11.31-.22.62-.3.93A6.41,6.41,0,0,0,81.71,81c0,.13.07.25.11.37.55,1.58,1.17,3.14,1.67,4.73,1,3,2.4,5.75,3.61,8.62l.13.26a6.47,6.47,0,0,0,2.49,2.84,53,53,0,0,1,6.39,5c.57.53,1.19,1,1.79,1.52a2.26,2.26,0,0,0,2.57.15,2,2,0,0,0,1.07-1.88c.11-1.42.27-2.84.39-4.25a2.89,2.89,0,0,0,0-.66,54.24,54.24,0,0,0-2-8.53,3,3,0,0,1-.14-.72c0-.24.13-.36.36-.37a.85.85,0,0,1,.88.55c.22.57.4,1.16.67,1.71A39.79,39.79,0,0,1,103.88,97c1.52,5.52,3,11,4.57,16.56a5.11,5.11,0,0,0,2,2.89,33.21,33.21,0,0,0,8,4.14c2.79,1,5.63,1.88,8.45,2.81,1.18.38,2.36.79,3.56,1.14,3.29,1,6.59,1.93,9.89,2.85,1.92.52,3.86,1,5.8,1.4a30.24,30.24,0,0,0,7.81.93c1.29-.06,2.58-.16,3.86-.27l1.57-.14c2.47-.23,4.94-.47,7.41-.77a6.86,6.86,0,0,0,2.33-.61,6.47,6.47,0,0,0,2.07-1.75,6,6,0,0,0,.75-1.26,63.42,63.42,0,0,0,3.14-7.86c1.16-3.8,2.39-7.59,3.39-11.44s1.72-7.67,2.36-11.55A34.35,34.35,0,0,0,181.38,85.39ZM92,96.21c-.21.22-.53.23-.86-.06a20.21,20.21,0,0,1-4.8-5.54A4.31,4.31,0,0,1,85.91,89c-.13-1.29-.19-2.59-.28-3.89h.06V82.88a5.61,5.61,0,0,1,.06-.59.46.46,0,0,1,.45-.41.42.42,0,0,1,.48.36,8,8,0,0,1,.16,1.38c0,1.08,0,2.16,0,3.24a9.76,9.76,0,0,0,.53,3,4.47,4.47,0,0,0,.54,1A16.88,16.88,0,0,0,91,94.47a10.57,10.57,0,0,1,.89.88A.6.6,0,0,1,92,96.21Zm8.23-2.65a1.49,1.49,0,0,1,0,1.21,6.42,6.42,0,0,1-2.45,2.81c-.06-.3-.13-.57-.16-.85-.12-1.39-.23-2.79-.34-4.18a2.32,2.32,0,0,0-.77-1.82,3,3,0,0,1-1-2.17,9.61,9.61,0,0,1,.23-2.93c.06-.24.1-.47.17-.78-.56.3-1,.59-1.53.82s-1,.41-1.51.59a1,1,0,0,0-.71.58,6.75,6.75,0,0,0-.63,2.93,2.18,2.18,0,0,0,1.18,2.06,2.87,2.87,0,0,1,.54.37c.33.28.4.57.22.84a.65.65,0,0,1-.82.31,3.14,3.14,0,0,1-.94-.55,6.86,6.86,0,0,1-.76-9.68c.76-1,1.43-2,2.16-3-.19-.32-.35-.56-.57-.92-.22.31-.4.52-.55.76a2.88,2.88,0,0,1-1.37,1.19,2.28,2.28,0,0,1-.85.19c-.64,0-.85-.29-.72-.9a4.57,4.57,0,0,1,.19-.63,3.91,3.91,0,0,0,0-2.46.65.65,0,0,0-.28-.41c-.41-.2-.85-.34-1.25-.5-.82,1.34-1.59,2.6-2.37,3.85a2.45,2.45,0,0,1-.61.71c-.47.34-.87.12-.9-.45-.07-1.48-.14-3-.19-4.42A3.7,3.7,0,0,1,85.81,73a5.18,5.18,0,0,1,3.47-.18c.59.19,1.15.43,1.72.67a3.37,3.37,0,0,1,1.5,1.27c.72,1.06,1.44,2.11,2.14,3.18a37,37,0,0,1,2.44,5.27,3.9,3.9,0,0,1,.21,2.65,5.92,5.92,0,0,0,1.45,5.33A6.67,6.67,0,0,1,100.21,93.56Zm68.43-23.17-.36-.08a1.93,1.93,0,0,1-1.68-1.37l0-.08-.65.25-.77.29v-.08a1.74,1.74,0,0,1,.47-1.55,22.29,22.29,0,0,1,1.74-1.48c.36-.28.77-.5,1.13-.82a2,2,0,0,0-1.28.29c-.31.18-.62.39-1,.56a6,6,0,0,1-.69.29c.07-.25.06-.39.13-.46.6-.61,1.2-1.22,1.82-1.81a2.42,2.42,0,0,1,1.68-.64,25.32,25.32,0,0,1,6.93.86,5.64,5.64,0,0,1,1.65.93,2.36,2.36,0,0,1,.68,1.59c.12.59.15,1.2.22,1.81a.88.88,0,0,0,0,.16.78.78,0,0,1,0,.38.67.67,0,0,1-.4.37,14,14,0,0,1-2.48.8,7.45,7.45,0,0,1-1.65.18A31.67,31.67,0,0,1,168.64,70.39Zm-19-4.44a1.08,1.08,0,0,1-1.09-.45c-.34-.38-.72-.73-1-1.13a2,2,0,0,0-2-.6c.25.34.51.69.75,1l1.34,1.84c.06.08.12.15.17.23.44.66.41.8-.4,1.3a26.2,26.2,0,0,1-1.9-2.09,2.59,2.59,0,0,0-2.61-1c-.14.64-.28,1.27-.43,1.9s-.33,1.49-.51,2.26c.46.31,1,.08,1.56.07a10.52,10.52,0,0,0,1.75-.24c.28-.06.56-.15.84-.24l.74-.23c.09.43-.2.49-.41.55a23,23,0,0,1-2.26.63c-.56.11-1.13.2-1.69.26-.24,0-.48,0-.73.06a24.16,24.16,0,0,1-6.87-.59,15.51,15.51,0,0,1-4.17-1.39c-.69-.39-.79-.64-.51-1.36,0,0,0,0,0,0,.1-.24.18-.48.27-.72a2.15,2.15,0,0,1,1-1.25c1.17-.63,2.32-1.29,3.54-1.82a7.79,7.79,0,0,1,2.21-.48,36.91,36.91,0,0,1,6.48-.07c1,.07,2,.13,3,.17A3.24,3.24,0,0,1,149.19,64a4.67,4.67,0,0,1,1,1.74A1.65,1.65,0,0,1,149.61,66ZM136.56,96.22c3.17-3.46,6.3-7,9.54-10.37a36.3,36.3,0,0,1,3.8-3.15,2.37,2.37,0,0,1,.63-.25l.15.17a5.44,5.44,0,0,1-.19.61c-.12.28-.24.54-.37.81a3.19,3.19,0,0,0-.09,2.78c.11.25.17.53.28.88-.72-.1-.81-.66-1.16-1.11-.56.06-1.19.11-1.82.21a1.19,1.19,0,0,0-.48.32l-8.13,7.39c-.83.76-1.66,1.52-2.55,2.2C136.3,96.55,136.42,96.38,136.56,96.22Zm33.15-8.81c.18.17.36.33.53.51.52.56.44.87-.31,1.09l-.08,0a11.26,11.26,0,0,1-1.43.26,5,5,0,0,1-.67,0,4.85,4.85,0,0,1-.66,0,1.56,1.56,0,0,0-1.09.34c-.64.41-1.31.76-2,1.13a1.52,1.52,0,0,1-1.42.08l-.05,0c-.95-.42-1.91-.82-2.84-1.26a3.38,3.38,0,0,0-1.56-.37c-1,0-2,0-2.94-.07a14.31,14.31,0,0,0-3.52.27,1.57,1.57,0,0,1-.43,0,.44.44,0,0,1-.32-.71,1.11,1.11,0,0,1,.3-.31,10.81,10.81,0,0,1,4.89-1.92,7.69,7.69,0,0,1,5.19,1.5c.48.3.94.63,1.43.89a1.73,1.73,0,0,0,1.76,0c.91-.54,1.82-1.07,2.71-1.63A1.85,1.85,0,0,1,169.71,87.41ZM125.78,59.48a43.36,43.36,0,0,1,6.62-5.15,6.21,6.21,0,0,1,2.29-.73,19.09,19.09,0,0,1,6.31.06c1.46.21,2.91.46,4.36.7a4.51,4.51,0,0,1,2.84,1.7c.32.42.67.82,1,1.22l.16-.1-.6-1.21c-.15-.31-.33-.61-.45-.93,0-.14,0-.4.07-.46a.58.58,0,0,1,.52-.07,7.18,7.18,0,0,1,.91.65l.25.23c.17.18.33.38.49.58s.33.42.5.64l.28.37a1.3,1.3,0,0,0-.16-.63,2.46,2.46,0,0,0-.17-.27l-.15-.22c-.16-.25-.37-.46-.52-.71s-.08-.34,0-.4a.55.55,0,0,1,.45-.13.82.82,0,0,1,.42.26c.28.28.58.56.86.85l.51.51.28.32a8.32,8.32,0,0,1,.75,1.17,1.56,1.56,0,0,0,.42.53c0-.36,0-.71-.06-1.17a5.42,5.42,0,0,1,1,2.87c0,.32,0,.64.07.95s.09.6-.28.73a.8.8,0,0,1-1-.3l-1.15-1.79a4.58,4.58,0,0,0-.3-.35c.14.54.24.92.33,1.29.15.64,0,.8-.66.75a39.46,39.46,0,0,1-5.89-.94c-2.07-.49-4.17-.89-6.27-1.31a10.27,10.27,0,0,0-3-.06h0l-.16,0c-1.52.18-3,.29-4.55.46-1.07.12-2.14.3-3.21.43-.83.1-1.66.17-2.49.24-.31,0-.65.05-.85-.33A3,3,0,0,1,125.78,59.48Zm42.77,57a.51.51,0,0,1-.12.36c-.08.07-.31,0-.45-.05-1.06-.46-2.11-.94-3.16-1.41a7.55,7.55,0,0,0-1.61-.52,10.67,10.67,0,0,0-4.1,0c-2.61.47-5.19,1.06-7.79,1.59a2,2,0,0,1-.85,0c-.21,0-.32-.18-.31-.34a.51.51,0,0,1,.1-.29,6,6,0,0,1,.49-.64,32.83,32.83,0,0,1,4.05-4.37,5.09,5.09,0,0,1,2.88-1.34h0l.56,0h.16c.76,0,1.52,0,2.58,0l3.46.13a6.85,6.85,0,0,1,1,.16,1.82,1.82,0,0,1,1.48,1.28c.25.76.52,1.52.79,2.28.16.47.32.93.47,1.41a12.58,12.58,0,0,1,.36,1.64v.1Zm3.71-11.19a14.54,14.54,0,0,1-4.56.07c-.7-.14-1.39-.33-2.09-.45l-.17,0a9.06,9.06,0,0,0-3.77.22,6.49,6.49,0,0,1-3.85-.13,8.2,8.2,0,0,0-1.72-.35,67.11,67.11,0,0,0-10.32-.16l-2.06.12-2.72.14h-.6c-.37,0-.73-.07-1.09-.12a1.08,1.08,0,0,1-.47-.23l-.08-.07a.33.33,0,0,1,0-.52,4.36,4.36,0,0,1,2.83-1.47h0c.05,0,.09,0,.22.09-.18.39-.37.78-.58,1.24a.08.08,0,0,1,0,0,5.76,5.76,0,0,0,1.95,0c2.34-.53,4.68-1.11,7-1.6a35.94,35.94,0,0,1,5.65-1,8.33,8.33,0,0,1,4.29.82,4,4,0,0,0,2.64.31c.94-.18,1.88-.36,2.83-.5a3.05,3.05,0,0,1,2.67,1c.32.31.63.61,1,.91l.27.26a2,2,0,0,0,1.93.47l.09,0-.06-.78a1.26,1.26,0,0,1,.78.09,1.82,1.82,0,0,1,.85,1.55,2,2,0,0,1-.37.14l-.5.06Z"/><path class="cls-4" d="M164.53,132.79c0,1.25-.05,2.5-.08,3.76a2.42,2.42,0,0,1-.84,1.66,61.13,61.13,0,0,1-7.45,6.48c-1.33.93-2.61,1.93-3.91,2.9A84,84,0,0,1,142,153.92q-4.8,2.64-9.76,5c-.93.45-1.86.9-2.81,1.33a8.45,8.45,0,0,0-1.24.84l-.09.07c-.63.47-.81.47-1.25-.15-.27-.36-.54-.72-.83-1.07a20,20,0,0,0-4.81-4.26c-2.35-1.48-4.63-3.07-7-4.59a1.2,1.2,0,0,1-.58-.87q-1.33-7.51-2.69-15c-.36-2-.73-4.06-1.09-6.09,0-.14,0-.29-.08-.53.48.26.9.45,1.28.7a55,55,0,0,0,8.83,4.71c2.65,1.16,5.24,2.43,7.79,3.79,2.19,1.17,4.34,2.41,6.46,3.7l.34.21a1,1,0,0,0,.76.15,1.45,1.45,0,0,0,.26-.07,41.28,41.28,0,0,0,4.68-2.15,94,94,0,0,1,12.3-4.73,56.4,56.4,0,0,1,8.4-1.91c.92-.16,1.83-.36,2.75-.53.26,0,.53-.08.82-.12A1.71,1.71,0,0,1,164.53,132.79Z"/><path class="cls-4" d="M134,68.33l-.12.14-2.33-.71c.4-1.37.8-1.78,2.16-1.93A4.75,4.75,0,0,0,134,68.33Z"/><path class="cls-4" d="M176.68,69.46a5.4,5.4,0,0,1-3.41.66,6.47,6.47,0,0,0,.54-2.46,6.66,6.66,0,0,0-.41-2.35,5.19,5.19,0,0,1,2.48.83,1.34,1.34,0,0,1,.4.76c.06.32.12.65.17,1C176.53,68.39,176.6,68.92,176.68,69.46Z"/><path class="cls-5" d="M133.71,65.83c-1.36.15-1.76.56-2.16,1.93l2.33.71.12-.14A4.75,4.75,0,0,1,133.71,65.83Zm6.87-.56a1.93,1.93,0,0,0-.35,0c-.45,0-.72.15-.77.41s.22.49.48.63a2.26,2.26,0,0,0,.33.13q.64.17.81-.27A.71.71,0,0,0,140.58,65.27Zm0,0a1.93,1.93,0,0,0-.35,0c-.45,0-.72.15-.77.41s.22.49.48.63a2.26,2.26,0,0,0,.33.13q.64.17.81-.27A.71.71,0,0,0,140.58,65.27Zm-6.87.56c-1.36.15-1.76.56-2.16,1.93l2.33.71.12-.14A4.75,4.75,0,0,1,133.71,65.83Zm0,0c-1.36.15-1.76.56-2.16,1.93l2.33.71.12-.14A4.75,4.75,0,0,1,133.71,65.83Zm6.87-.56a1.93,1.93,0,0,0-.35,0c-.45,0-.72.15-.77.41s.22.49.48.63a2.26,2.26,0,0,0,.33.13q.64.17.81-.27A.71.71,0,0,0,140.58,65.27Zm0,0a1.93,1.93,0,0,0-.35,0c-.45,0-.72.15-.77.41s.22.49.48.63a2.26,2.26,0,0,0,.33.13q.64.17.81-.27A.71.71,0,0,0,140.58,65.27Zm-6.87.56c-1.36.15-1.76.56-2.16,1.93l2.33.71.12-.14A4.75,4.75,0,0,1,133.71,65.83Zm0,0c-1.36.15-1.76.56-2.16,1.93l2.33.71.12-.14A4.75,4.75,0,0,1,133.71,65.83Zm6.87-.56a1.93,1.93,0,0,0-.35,0c-.45,0-.72.15-.77.41s.22.49.48.63a2.26,2.26,0,0,0,.33.13q.64.17.81-.27A.71.71,0,0,0,140.58,65.27Zm0,0a1.93,1.93,0,0,0-.35,0c-.45,0-.72.15-.77.41s.22.49.48.63a2.26,2.26,0,0,0,.33.13q.64.17.81-.27A.71.71,0,0,0,140.58,65.27Zm-6.87.56c-1.36.15-1.76.56-2.16,1.93l2.33.71.12-.14A4.75,4.75,0,0,1,133.71,65.83Zm0,0c-1.36.15-1.76.56-2.16,1.93l2.33.71.12-.14A4.75,4.75,0,0,1,133.71,65.83Zm6.87-.56a1.93,1.93,0,0,0-.35,0c-.45,0-.72.15-.77.41s.22.49.48.63a2.26,2.26,0,0,0,.33.13q.64.17.81-.27A.71.71,0,0,0,140.58,65.27Zm27.84,49.65a4.13,4.13,0,0,1-.51-1.26.58.58,0,0,0-.19-.3c.16.47.32.93.47,1.41a12.58,12.58,0,0,1,.36,1.64v.1l0,0,0,0A3.81,3.81,0,0,0,168.42,114.92ZM140.58,65.27a1.93,1.93,0,0,0-.35,0c-.45,0-.72.15-.77.41s.22.49.48.63a2.26,2.26,0,0,0,.33.13q.64.17.81-.27A.71.71,0,0,0,140.58,65.27Zm-6.87.56c-1.36.15-1.76.56-2.16,1.93l2.33.71.12-.14A4.75,4.75,0,0,1,133.71,65.83Zm0,0c-1.36.15-1.76.56-2.16,1.93l2.33.71.12-.14A4.75,4.75,0,0,1,133.71,65.83Zm6.87-.56a1.93,1.93,0,0,0-.35,0c-.45,0-.72.15-.77.41s.22.49.48.63a2.26,2.26,0,0,0,.33.13q.64.17.81-.27A.71.71,0,0,0,140.58,65.27Zm0,0a1.93,1.93,0,0,0-.35,0c-.45,0-.72.15-.77.41s.22.49.48.63a2.26,2.26,0,0,0,.33.13q.64.17.81-.27A.71.71,0,0,0,140.58,65.27Zm-6.87.56c-1.36.15-1.76.56-2.16,1.93l2.33.71.12-.14A4.75,4.75,0,0,1,133.71,65.83Zm0,0c-1.36.15-1.76.56-2.16,1.93l2.33.71.12-.14A4.75,4.75,0,0,1,133.71,65.83Zm6.87-.56a1.93,1.93,0,0,0-.35,0c-.45,0-.72.15-.77.41s.22.49.48.63a2.26,2.26,0,0,0,.33.13q.64.17.81-.27A.71.71,0,0,0,140.58,65.27Zm0,0a1.93,1.93,0,0,0-.35,0c-.45,0-.72.15-.77.41s.22.49.48.63a2.26,2.26,0,0,0,.33.13q.64.17.81-.27A.71.71,0,0,0,140.58,65.27Zm-6.87.56c-1.36.15-1.76.56-2.16,1.93l2.33.71.12-.14A4.75,4.75,0,0,1,133.71,65.83Zm0,0c-1.36.15-1.76.56-2.16,1.93l2.33.71.12-.14A4.75,4.75,0,0,1,133.71,65.83Zm6.87-.56a1.93,1.93,0,0,0-.35,0c-.45,0-.72.15-.77.41s.22.49.48.63a2.26,2.26,0,0,0,.33.13q.64.17.81-.27A.71.71,0,0,0,140.58,65.27Zm0,0a1.93,1.93,0,0,0-.35,0c-.45,0-.72.15-.77.41s.22.49.48.63a2.26,2.26,0,0,0,.33.13q.64.17.81-.27A.71.71,0,0,0,140.58,65.27Zm-6.87.56c-1.36.15-1.76.56-2.16,1.93l2.33.71.12-.14A4.75,4.75,0,0,1,133.71,65.83Zm39.13,28.29c-.47-1.85-.92-3.71-1.42-5.56-.24-.89-.59-1.75-.91-2.62a2.17,2.17,0,0,0-.24-.45,1.15,1.15,0,0,0-1.14-.64,4.78,4.78,0,0,1-1.46-.15,2.52,2.52,0,0,1-2-2,6.36,6.36,0,0,0-.28-.84l-1.74-4.69c-.58-1.55-1.1-3.11-1.74-4.62a51,51,0,0,1-2.5-6.3,6.39,6.39,0,0,0-.41-1c-.4-.83-.79-1.66-1.21-2.47A25.75,25.75,0,0,0,156.18,60a5.05,5.05,0,0,1-.63-1.4c-.16-.47-.11-.48-.6-.41l-.31-.91L154.4,57c-.09-.1-.18-.21-.28-.31a1.1,1.1,0,0,0-.28-.2c-.53-.24-1.07-.46-1.6-.71a.67.67,0,0,0-.18-.07l.51.51.28.32a8.32,8.32,0,0,1,.75,1.17,1.56,1.56,0,0,0,.42.53c0-.36,0-.71-.06-1.17a5.42,5.42,0,0,1,1,2.87c0,.32,0,.64.07.95s.09.6-.28.73a.8.8,0,0,1-1-.3l-1.15-1.79a4.58,4.58,0,0,0-.3-.35c.14.54.24.92.33,1.29.15.64,0,.8-.66.75a39.46,39.46,0,0,1-5.89-.94c-2.07-.49-4.17-.89-6.27-1.31a8.15,8.15,0,0,0-1.91-.13l-.72,0-.34,0h0l-.16,0c-1.52.18-3,.29-4.55.46-1.07.12-2.14.3-3.21.43-.83.1-1.66.17-2.49.24-.31,0-.65.05-.85-.33a3,3,0,0,1,.23-.27,43.36,43.36,0,0,1,6.62-5.15,6.21,6.21,0,0,1,2.29-.73,19.09,19.09,0,0,1,6.31.06c1.46.21,2.91.46,4.36.7a4.51,4.51,0,0,1,2.84,1.7c.32.42.67.82,1,1.22l.16-.1-.6-1.21c-.15-.31-.33-.61-.45-.93,0-.14,0-.4.07-.46a.58.58,0,0,1,.52-.07,7.18,7.18,0,0,1,.91.65l0-.1c-2.1-7.76-4.59-15.41-7.31-23a2.31,2.31,0,0,1,.32-2.55c.67-.79,1.21-1.67,1.87-2.46a2.72,2.72,0,0,1,1.87-.94,48.54,48.54,0,0,0,5.74-.89c1.87-.4,3.75-.72,5.64-1h-.58c-1.62,0-3.24,0-4.86,0-1.35,0-2.7,0-4.05,0a31,31,0,0,1-8.31-1.55c-1.83-.63-3.62-1.39-5.44-2.06a28.77,28.77,0,0,0-5.8-1.36,16.38,16.38,0,0,0-9.37,1.21,3.52,3.52,0,0,0-1.22.91c-1.36,1.61-2.71,3.24-4,4.92a123,123,0,0,0-7.55,11.36,1.15,1.15,0,0,0,0,1.45c1.66,2.41,3.28,4.84,4.94,7.25a2.32,2.32,0,0,0,.82.7c.74.44,1.52.81,2.27,1.23.48.27.52.39.33.9a12,12,0,0,1-.69,1.55,46,46,0,0,1-3.35,5.2c-1.4,1.93-2.75,3.89-4.1,5.86a2.5,2.5,0,0,0-.41,1c-.13,1.09-.27,2.18-.4,3.26h0c-.17,1.38-.34,2.76-.48,4.15,0,.46-.1.91-.14,1.37-.27,2.72-.42,5.44-.64,8.16,0,.68-.15,1.35-.24,2.06a3.71,3.71,0,0,1-.5-.12c-2-.74-1.7-.28-2.74-2.45-.73-1.51-1.5-3-2.27-4.47-.33-.63-.68-1.25-1-1.87a2.41,2.41,0,0,0-.52-.69,8.21,8.21,0,0,0-1.53-1c-1.73-.83-3.48-1.59-5.22-2.4a2.56,2.56,0,0,0-2.71.3,1.34,1.34,0,0,0-.22.39l.8.1c.54.06,1.08.1,1.61.19a18.26,18.26,0,0,1,6.09,2.51,3.48,3.48,0,0,1,1.33,1.5c-.75.28-1,.28-1.4-.08A11.76,11.76,0,0,0,91,71.19a26.79,26.79,0,0,0-5.13-.5,1.48,1.48,0,0,0-1.3.68c-.1.14-.18.29-.27.44a32.78,32.78,0,0,0-2.21,4.82c-.11.31-.22.62-.3.93-.07.68-.09,1.36-.1,2,0,.47,0,.94,0,1.4,0,.13.07.25.11.37.55,1.58,1.17,3.14,1.67,4.73,1,3,2.4,5.75,3.61,8.62l.13.26a6.47,6.47,0,0,0,2.49,2.84,53,53,0,0,1,6.39,5c.57.53,1.19,1,1.79,1.52a2.26,2.26,0,0,0,2.57.15,2,2,0,0,0,1.07-1.88c.11-1.42.27-2.84.39-4.25a2.89,2.89,0,0,0,0-.66,54.24,54.24,0,0,0-2-8.53,3,3,0,0,1-.14-.72c0-.24.13-.36.36-.37a.85.85,0,0,1,.88.55c.22.57.4,1.16.67,1.71A39.79,39.79,0,0,1,103.88,97c1.52,5.52,3,11,4.57,16.56a5.11,5.11,0,0,0,2,2.89,33.21,33.21,0,0,0,8,4.14c2.79,1,5.63,1.88,8.45,2.81,1.18.38,2.36.79,3.56,1.14,3.29,1,6.59,1.93,9.89,2.85,1.92.52,3.86,1,5.8,1.4a30.24,30.24,0,0,0,7.81.93l1-.05.8,0,.53,0,.6-.05,1-.08,1.57-.14c2.47-.23,4.94-.47,7.41-.77a6.86,6.86,0,0,0,2.33-.61,6.47,6.47,0,0,0,2.07-1.75,7.53,7.53,0,0,1-2.2.79,22.12,22.12,0,0,1-10,0,.89.89,0,0,1-.63-.57l-1.7-3.68a2.94,2.94,0,0,1-.1-2.29c.49-1.39,1-2.77,1.49-4.17a1.09,1.09,0,0,1,1-.77c1.37-.18,2.75-.37,4.12-.53a10.67,10.67,0,0,0-4.1,0c-2.61.47-5.19,1.06-7.79,1.59a2,2,0,0,1-.85,0c-.21,0-.32-.18-.31-.34a.51.51,0,0,1,.1-.29,6,6,0,0,1,.49-.64,32.83,32.83,0,0,1,4.05-4.37,4.68,4.68,0,0,1,.57-.45l.19-.13.16-.1a4,4,0,0,1,.62-.31l.12-.05a1.06,1.06,0,0,1,.25-.09l.16,0a2.37,2.37,0,0,1,.36-.09l.45-.07c.2,0,.42,0,.64,0-.9-1-1.78-2-2.67-3-.16-.18-.29-.38-.52-.68,1.34-.06,2.55-.39,3.75.06a4.17,4.17,0,0,0,2.54.16l4-1.09a9.06,9.06,0,0,0-3.77.22,6.49,6.49,0,0,1-3.85-.13,8.2,8.2,0,0,0-1.72-.35,67.11,67.11,0,0,0-10.32-.16l-2.06.12-.33,0-1,.06H142l-1,0h-.6c-.37,0-.73-.07-1.09-.12a1.08,1.08,0,0,1-.47-.23l-.08-.07a.33.33,0,0,1,0-.52,5.54,5.54,0,0,1,1.89-1.29l.15-.05c.12,0,.24-.06.37-.09l.2,0,.22,0h0c.05,0,.09,0,.22.09-.18.39-.37.78-.58,1.24a.08.08,0,0,1,0,0,5.76,5.76,0,0,0,1.95,0c2.34-.53,4.68-1.11,7-1.6a35.94,35.94,0,0,1,5.65-1,8.33,8.33,0,0,1,4.29.82,4,4,0,0,0,2.64.31c.94-.18,1.88-.36,2.83-.5a3.05,3.05,0,0,1,2.67,1c.32.31.63.61,1,.91,0-.25-.23-.46-.42-.61-.85-.71-1.72-1.39-2.6-2.06a1,1,0,0,0-.56-.12,11.18,11.18,0,0,0-3.63.7c-.44-.2-.92-.39-1.37-.65a1.1,1.1,0,0,1-.32-.29h0a.72.72,0,0,1-.12-.23,20.36,20.36,0,0,1-.58-8.61.67.67,0,0,1,.29-.45c.39-.2.8-.33,1.29-.53v.81c0,.83,0,1.67,0,2.5.11,1.37.26,2.74.43,4.11,0,.15.19.4.32.41a4,4,0,0,0,2.82-.37c-.59-1.68-1.18-3.29-1.72-4.92A17,17,0,0,1,162.6,91c0-.08,0-.15,0-.21-.95-.42-1.91-.82-2.84-1.26a3.38,3.38,0,0,0-1.56-.37c-1,0-2,0-2.94-.07a14.31,14.31,0,0,0-3.52.27,1.57,1.57,0,0,1-.43,0,.44.44,0,0,1-.32-.71,1.11,1.11,0,0,1,.3-.31,10.81,10.81,0,0,1,4.89-1.92,7.69,7.69,0,0,1,5.19,1.5c.48.3.94.63,1.43.89a1.73,1.73,0,0,0,1.76,0c.91-.54,1.82-1.07,2.71-1.63a1.85,1.85,0,0,1,2.48.18c.18.17.36.33.53.51.52.56.44.87-.31,1.09l-.08,0c.12.29.22.57.35.85.42.91.86,1.82,1.29,2.73l.94,1.92c.1.19.18.41.54.3C172.92,94.59,172.9,94.35,172.84,94.12ZM92,96.21c-.21.22-.53.23-.86-.06a20.21,20.21,0,0,1-4.8-5.54A4.31,4.31,0,0,1,85.91,89c-.13-1.29-.19-2.59-.28-3.89h.06V82.88a5.61,5.61,0,0,1,.06-.59.46.46,0,0,1,.45-.41.42.42,0,0,1,.48.36,8,8,0,0,1,.16,1.38c0,1.08,0,2.16,0,3.24a9.76,9.76,0,0,0,.53,3,4.47,4.47,0,0,0,.54,1A16.88,16.88,0,0,0,91,94.47a10.57,10.57,0,0,1,.89.88A.6.6,0,0,1,92,96.21Zm8.23-2.65a1.49,1.49,0,0,1,0,1.21,6.42,6.42,0,0,1-2.45,2.81c-.06-.3-.13-.57-.16-.85-.12-1.39-.23-2.79-.34-4.18a2.32,2.32,0,0,0-.77-1.82,3,3,0,0,1-1-2.17,9.61,9.61,0,0,1,.23-2.93c.06-.24.1-.47.17-.78-.56.3-1,.59-1.53.82s-1,.41-1.51.59a1,1,0,0,0-.71.58,6.75,6.75,0,0,0-.63,2.93,2.18,2.18,0,0,0,1.18,2.06,2.87,2.87,0,0,1,.54.37c.33.28.4.57.22.84a.65.65,0,0,1-.82.31,3.14,3.14,0,0,1-.94-.55,6.86,6.86,0,0,1-.76-9.68c.76-1,1.43-2,2.16-3-.19-.32-.35-.56-.57-.92-.22.31-.4.52-.55.76a2.88,2.88,0,0,1-1.37,1.19,2.28,2.28,0,0,1-.85.19c-.64,0-.85-.29-.72-.9a4.57,4.57,0,0,1,.19-.63,3.91,3.91,0,0,0,0-2.46.65.65,0,0,0-.28-.41c-.41-.2-.85-.34-1.25-.5-.82,1.34-1.59,2.6-2.37,3.85a2.45,2.45,0,0,1-.61.71c-.47.34-.87.12-.9-.45-.07-1.48-.14-3-.19-4.42A3.7,3.7,0,0,1,85.81,73a5.18,5.18,0,0,1,3.47-.18c.59.19,1.15.43,1.72.67a3.37,3.37,0,0,1,1.5,1.27c.72,1.06,1.44,2.11,2.14,3.18a37,37,0,0,1,2.44,5.27,3.9,3.9,0,0,1,.21,2.65,5.92,5.92,0,0,0,1.45,5.33A6.67,6.67,0,0,1,100.21,93.56Zm36.92-31.1a36.91,36.91,0,0,1,6.48-.07c1,.07,2,.13,3,.17A3.24,3.24,0,0,1,149.19,64a4.67,4.67,0,0,1,1,1.74,1.74,1.74,0,0,1-.44.21l-.07,0-.1,0a1.08,1.08,0,0,1-1.09-.45c-.34-.38-.72-.73-1-1.13a2,2,0,0,0-2-.6c.25.34.51.69.75,1l1.34,1.84c.06.08.12.15.17.23.44.66.41.8-.4,1.3a26.2,26.2,0,0,1-1.9-2.09,2.59,2.59,0,0,0-2.61-1c-.14.64-.28,1.27-.43,1.9a9.92,9.92,0,0,1,1.33-.1,1.44,1.44,0,0,1,.78.31c.45.34.85.74,1.27,1.11.23.2.32.38.26.53l.74-.23c.09.43-.2.49-.41.55a23,23,0,0,1-2.26.63c-.56.11-1.13.2-1.69.26l-.22,0-.47,0h0a24.16,24.16,0,0,1-6.87-.59,15.51,15.51,0,0,1-4.17-1.39c-.69-.39-.79-.64-.51-1.36,0,0,0,0,0,0,.1-.24.18-.48.27-.72a2.15,2.15,0,0,1,1-1.25c1.17-.63,2.32-1.29,3.54-1.82A7.79,7.79,0,0,1,137.13,62.46Zm13.36,20.77c-.12.28-.24.54-.37.81a3.19,3.19,0,0,0-.09,2.78c.11.25.17.53.28.88-.72-.1-.81-.66-1.16-1.11-.56.06-1.19.11-1.82.21a1.19,1.19,0,0,0-.48.32l-8.13,7.39c-.83.76-1.66,1.52-2.55,2.2.13-.16.25-.33.39-.49,3.17-3.46,6.3-7,9.54-10.37a36.3,36.3,0,0,1,3.8-3.15,2.37,2.37,0,0,1,.63-.25l.15.17A5.44,5.44,0,0,1,150.49,83.23ZM123.24,71.32c.39-.38.8-.73,1.17-1.12a.78.78,0,0,1,.81-.16c1.66.27,3.31.55,5,.81l1,.15.15,0c4.6.68,9.13,1.65,13.68,2.59a1.25,1.25,0,0,1,1.08.87c.11.37.13.77.26,1.13a2.37,2.37,0,0,1-.79,2.71c-1,.93-2,1.88-3,2.78L141,82.46l-1.15,1-3.92,3.4c-.35.31-.71.61-1.16.49a4.34,4.34,0,0,1-3-1,31.62,31.62,0,0,1-3.27-3.69,41.16,41.16,0,0,1-5.12-8.33,4.48,4.48,0,0,1-.54-1.89A1.42,1.42,0,0,1,123.24,71.32Zm16.7-5.06a2.26,2.26,0,0,0,.33.13q.64.17.81-.27a.71.71,0,0,0-.5-.85,1.93,1.93,0,0,0-.35,0c-.45,0-.72.15-.77.41S139.68,66.12,139.94,66.26Zm-6.23-.43c-1.36.15-1.76.56-2.16,1.93l2.33.71.12-.14A4.75,4.75,0,0,1,133.71,65.83Zm0,0c-1.36.15-1.76.56-2.16,1.93l2.33.71.12-.14A4.75,4.75,0,0,1,133.71,65.83Zm6.87-.56a1.93,1.93,0,0,0-.35,0c-.45,0-.72.15-.77.41s.22.49.48.63a2.26,2.26,0,0,0,.33.13q.64.17.81-.27A.71.71,0,0,0,140.58,65.27Zm0,0a1.93,1.93,0,0,0-.35,0c-.45,0-.72.15-.77.41s.22.49.48.63a2.26,2.26,0,0,0,.33.13q.64.17.81-.27A.71.71,0,0,0,140.58,65.27Zm-6.87.56c-1.36.15-1.76.56-2.16,1.93l2.33.71.12-.14A4.75,4.75,0,0,1,133.71,65.83Zm0,0c-1.36.15-1.76.56-2.16,1.93l2.33.71.12-.14A4.75,4.75,0,0,1,133.71,65.83Zm6.87-.56a1.93,1.93,0,0,0-.35,0c-.45,0-.72.15-.77.41s.22.49.48.63a2.26,2.26,0,0,0,.33.13q.64.17.81-.27A.71.71,0,0,0,140.58,65.27Zm0,0a1.93,1.93,0,0,0-.35,0c-.45,0-.72.15-.77.41s.22.49.48.63a2.26,2.26,0,0,0,.33.13q.64.17.81-.27A.71.71,0,0,0,140.58,65.27Zm-6.87.56c-1.36.15-1.76.56-2.16,1.93l2.33.71.12-.14A4.75,4.75,0,0,1,133.71,65.83Zm0,0c-1.36.15-1.76.56-2.16,1.93l2.33.71.12-.14A4.75,4.75,0,0,1,133.71,65.83Zm6.87-.56a1.93,1.93,0,0,0-.35,0c-.45,0-.72.15-.77.41s.22.49.48.63a2.26,2.26,0,0,0,.33.13q.64.17.81-.27A.71.71,0,0,0,140.58,65.27Zm0,0a1.93,1.93,0,0,0-.35,0c-.45,0-.72.15-.77.41s.22.49.48.63a2.26,2.26,0,0,0,.33.13q.64.17.81-.27A.71.71,0,0,0,140.58,65.27Zm-6.87.56c-1.36.15-1.76.56-2.16,1.93l2.33.71.12-.14A4.75,4.75,0,0,1,133.71,65.83Zm0,0c-1.36.15-1.76.56-2.16,1.93l2.33.71.12-.14A4.75,4.75,0,0,1,133.71,65.83Zm6.87-.56a1.93,1.93,0,0,0-.35,0c-.45,0-.72.15-.77.41s.22.49.48.63a2.26,2.26,0,0,0,.33.13q.64.17.81-.27A.71.71,0,0,0,140.58,65.27Zm0,0a1.93,1.93,0,0,0-.35,0c-.45,0-.72.15-.77.41s.22.49.48.63a2.26,2.26,0,0,0,.33.13q.64.17.81-.27A.71.71,0,0,0,140.58,65.27Zm-6.87.56c-1.36.15-1.76.56-2.16,1.93l2.33.71.12-.14A4.75,4.75,0,0,1,133.71,65.83Zm0,0c-1.36.15-1.76.56-2.16,1.93l2.33.71.12-.14A4.75,4.75,0,0,1,133.71,65.83Zm6.87-.56a1.93,1.93,0,0,0-.35,0c-.45,0-.72.15-.77.41s.22.49.48.63a2.26,2.26,0,0,0,.33.13q.64.17.81-.27A.71.71,0,0,0,140.58,65.27Zm0,0a1.93,1.93,0,0,0-.35,0c-.45,0-.72.15-.77.41s.22.49.48.63a2.26,2.26,0,0,0,.33.13q.64.17.81-.27A.71.71,0,0,0,140.58,65.27Zm-6.87.56c-1.36.15-1.76.56-2.16,1.93l2.33.71.12-.14A4.75,4.75,0,0,1,133.71,65.83Zm0,0c-1.36.15-1.76.56-2.16,1.93l2.33.71.12-.14A4.75,4.75,0,0,1,133.71,65.83Zm6.87-.56a1.93,1.93,0,0,0-.35,0c-.45,0-.72.15-.77.41s.22.49.48.63a2.26,2.26,0,0,0,.33.13q.64.17.81-.27A.71.71,0,0,0,140.58,65.27Zm10.75-8.44s0-.06,0-.09l0-.11a.88.88,0,0,0,0-.15s0-.08-.05-.12h0a2.46,2.46,0,0,0-.17-.27,1.65,1.65,0,0,1-.45-.11c.17.2.33.42.5.64l.28.37A.71.71,0,0,0,151.33,56.83Zm-10.75,8.44a1.93,1.93,0,0,0-.35,0c-.45,0-.72.15-.77.41s.22.49.48.63a2.26,2.26,0,0,0,.33.13q.64.17.81-.27A.71.71,0,0,0,140.58,65.27Zm-6.87.56c-1.36.15-1.76.56-2.16,1.93l2.33.71.12-.14A4.75,4.75,0,0,1,133.71,65.83Z"/><path class="cls-5" d="M166.57,68.86l-.65.25.68-.17Zm5.65-2.78a.63.63,0,0,0-.67.51l.39-.41a1.83,1.83,0,0,0,.44,1,.5.5,0,0,0,.38-.5A.58.58,0,0,0,172.22,66.08Zm4.06.82a1.34,1.34,0,0,0-.4-.76,5.19,5.19,0,0,0-2.48-.83,6.66,6.66,0,0,1,.41,2.35,10.65,10.65,0,0,1,2.58.19l.06,0C176.4,67.55,176.34,67.22,176.28,66.9Zm4.83-3-1.52-.5a24.9,24.9,0,0,0-5.32-1.16c-2.13-.14-4.27-.26-6.4-.41a1,1,0,0,0-1,.55C165.93,64,165,65.52,164,67.06a1.74,1.74,0,0,0-.14,1.81l.27.57a1.19,1.19,0,0,0,.62,0l.36-.11a1.74,1.74,0,0,1,.47-1.55,22.29,22.29,0,0,1,1.74-1.48c.36-.28.77-.5,1.13-.82a2,2,0,0,0-1.28.29c-.31.18-.62.39-1,.56a6,6,0,0,1-.69.29c.07-.25.06-.39.13-.46.6-.61,1.2-1.22,1.82-1.81a2.42,2.42,0,0,1,1.68-.64,25.32,25.32,0,0,1,6.93.86,5.64,5.64,0,0,1,1.65.93,2.36,2.36,0,0,1,.68,1.59c.12.59.15,1.2.22,1.81a1.61,1.61,0,0,1,1.11.57l.17.16a42.8,42.8,0,0,0,1.21-5.45A.9.9,0,0,0,181.11,63.91Zm-8.68-7.33-.24.21-.6.65a.49.49,0,0,0,.41,0l1.29-.68Zm-4.82,1.48v0l0,0Zm-.87-.08c-.77-.14-1.53-.33-2.3-.52A1.88,1.88,0,0,1,163,56.05c-.3-1-.73-1.9-1.1-2.85l-.1,0c-.14,1-.36,2-.41,3v.1c-.07,1.19,0,2.39,0,3.58a1.23,1.23,0,0,0,.46,1.11.74.74,0,0,1,.19.45,5.92,5.92,0,0,1,.07,1.11,7.78,7.78,0,0,0,.11,1.67c.1.66.23,1.31.29,2a3,3,0,0,0,.19.63,1.46,1.46,0,0,1,.07.19c0-.08.05-.17.08-.25a21.86,21.86,0,0,1,1.53-3.67,13.48,13.48,0,0,1,.79-1.23.73.73,0,0,0,.15-.58,1,1,0,0,1-.09-.47,1.25,1.25,0,0,1,.19-.59C165.86,59.48,166.29,58.73,166.74,58Z"/><path class="cls-5" d="M134.13,144.1a1.86,1.86,0,0,1-.11.57c-1.64,4.69-3.27,9.37-4.93,14.05-.28.8-.61,1.59-.94,2.37l-.09.07c-.63.47-.81.47-1.25-.15-.27-.36-.54-.72-.83-1.07a19.75,19.75,0,0,0,.73-5.18c.18-4.82.41-9.63.64-14.44a13.81,13.81,0,0,1,.3-2.41.5.5,0,0,1,0-.13c2.19,1.17,4.34,2.41,6.46,3.7C134.16,142.35,134.14,143.23,134.13,144.1Z"/><path class="cls-5" d="M164.72,40.24a35.86,35.86,0,0,1-2.8,8.88,19.06,19.06,0,0,1-.47-4.21,2.86,2.86,0,0,1,.8-2.11c.63-.72,1.21-1.48,1.82-2.22a6,6,0,0,1,.43-.45Z"/><path class="cls-5" d="M172.73,71.75h2.32l.75-1.16a.93.93,0,0,1,.9-.52c.15,0,.39,0,.46-.11a1.37,1.37,0,0,1,1.23-.49,2.42,2.42,0,0,0,.51-.1.63.63,0,0,1,.08.91c-.21.33-.45.65-.68,1s-.68.84-1,1.29a1.33,1.33,0,0,1-1.16.67c-.87,0-1.75-.09-2.63-.14a.54.54,0,0,1-.53-.42C172.92,72.37,172.83,72.1,172.73,71.75Z"/><path class="cls-6" d="M157.54,129.29s-.1,0-.15,0c-1.68-.22-3.37-.39-5-.67a51.94,51.94,0,0,1-10.09-2.67c-1.95-.74-3.95-1.36-5.91-2.09-1.49-.56-2.94-1.24-4.42-1.82a40.22,40.22,0,0,1-9-5,2.1,2.1,0,0,1-.76-1c-3-8-5.91-16.09-8.19-24.37a5.34,5.34,0,0,1-.06-.56c.4.16.7.31,1,.41a31.72,31.72,0,0,0,3.41.9c1.5.26,2.2-.58,1.79-2-.25-.87-.59-1.71-.88-2.58A13.89,13.89,0,0,0,117,83.51c-1.2-1.52-2.36-3.09-3.45-4.69-1.63-2.38-3.2-4.78-5-7a5.61,5.61,0,0,1-1.15-2.12c-.17-.64-.47-1.24-.67-1.87s-.37-1.17-.54-1.76c-.17,1.38-.34,2.76-.48,4.15,0,.46-.1.91-.14,1.37-.27,2.72-.42,5.44-.64,8.16,0,.68-.15,1.35-.24,2.06a3.71,3.71,0,0,1-.5-.12c-2-.74-1.7-.28-2.74-2.45-.73-1.51-1.5-3-2.27-4.47-.33-.63-.68-1.25-1-1.87a2.41,2.41,0,0,0-.52-.69,8.21,8.21,0,0,0-1.53-1c-1.73-.83-3.48-1.59-5.22-2.4a2.56,2.56,0,0,0-2.71.3,1.34,1.34,0,0,0-.22.39l.8.1c.54.06,1.08.1,1.61.19a18.26,18.26,0,0,1,6.09,2.51,3.48,3.48,0,0,1,1.33,1.5c-.75.28-1,.28-1.4-.08A11.76,11.76,0,0,0,91,71.19a26.79,26.79,0,0,0-5.13-.5,1.48,1.48,0,0,0-1.3.68c-.1.14-.18.29-.27.44a32.78,32.78,0,0,0-2.21,4.82c-.11.31-.22.62-.3.93A6.41,6.41,0,0,0,81.71,81c0,.13.07.25.11.37.55,1.58,1.17,3.14,1.67,4.73,1,3,2.4,5.75,3.61,8.62l.13.26a6.47,6.47,0,0,0,2.49,2.84,53,53,0,0,1,6.39,5c.57.53,1.19,1,1.79,1.52a2.26,2.26,0,0,0,2.57.15,2,2,0,0,0,1.07-1.88c.11-1.42.27-2.84.39-4.25a2.89,2.89,0,0,0,0-.66,54.24,54.24,0,0,0-2-8.53,3,3,0,0,1-.14-.72c0-.24.13-.36.36-.37a.85.85,0,0,1,.88.55c.22.57.4,1.16.67,1.71A39.79,39.79,0,0,1,103.88,97c1.52,5.52,3,11,4.57,16.56a5.11,5.11,0,0,0,2,2.89,33.21,33.21,0,0,0,8,4.14c2.79,1,5.63,1.88,8.45,2.81,1.18.38,2.36.79,3.56,1.14,3.29,1,6.59,1.93,9.89,2.85,1.92.52,3.86,1,5.8,1.4a30.24,30.24,0,0,0,7.81.93l1-.05.8,0,.53,0,.6-.05,1-.08C157.78,129.37,157.65,129.34,157.54,129.29ZM92,96.21c-.21.22-.53.23-.86-.06a20.21,20.21,0,0,1-4.8-5.54A4.31,4.31,0,0,1,85.91,89c-.13-1.29-.19-2.59-.28-3.89h.06V82.88a5.61,5.61,0,0,1,.06-.59.46.46,0,0,1,.45-.41.42.42,0,0,1,.48.36,8,8,0,0,1,.16,1.38c0,1.08,0,2.16,0,3.24a9.76,9.76,0,0,0,.53,3,4.47,4.47,0,0,0,.54,1A16.88,16.88,0,0,0,91,94.47a10.57,10.57,0,0,1,.89.88A.6.6,0,0,1,92,96.21Zm8.23-2.65a1.49,1.49,0,0,1,0,1.21,6.42,6.42,0,0,1-2.45,2.81c-.06-.3-.13-.57-.16-.85-.12-1.39-.23-2.79-.34-4.18a2.32,2.32,0,0,0-.77-1.82,3,3,0,0,1-1-2.17,9.61,9.61,0,0,1,.23-2.93c.06-.24.1-.47.17-.78-.56.3-1,.59-1.53.82s-1,.41-1.51.59a1,1,0,0,0-.71.58,6.75,6.75,0,0,0-.63,2.93,2.18,2.18,0,0,0,1.18,2.06,2.87,2.87,0,0,1,.54.37c.33.28.4.57.22.84a.65.65,0,0,1-.82.31,3.14,3.14,0,0,1-.94-.55,6.86,6.86,0,0,1-.76-9.68c.76-1,1.43-2,2.16-3-.19-.32-.35-.56-.57-.92-.22.31-.4.52-.55.76a2.88,2.88,0,0,1-1.37,1.19,2.28,2.28,0,0,1-.85.19c-.64,0-.85-.29-.72-.9a4.57,4.57,0,0,1,.19-.63,3.91,3.91,0,0,0,0-2.46.65.65,0,0,0-.28-.41c-.41-.2-.85-.34-1.25-.5-.82,1.34-1.59,2.6-2.37,3.85a2.45,2.45,0,0,1-.61.71c-.47.34-.87.12-.9-.45-.07-1.48-.14-3-.19-4.42A3.7,3.7,0,0,1,85.81,73a5.18,5.18,0,0,1,3.47-.18c.59.19,1.15.43,1.72.67a3.37,3.37,0,0,1,1.5,1.27c.72,1.06,1.44,2.11,2.14,3.18a37,37,0,0,1,2.44,5.27,3.9,3.9,0,0,1,.21,2.65,5.92,5.92,0,0,0,1.45,5.33A6.67,6.67,0,0,1,100.21,93.56Z"/><path class="cls-6" d="M135.24,141.84a104.77,104.77,0,0,0-2.77,14.5q-.15,1.29-.27,2.58c-.93.45-1.86.9-2.81,1.33a8.45,8.45,0,0,0-1.24.84l-.09.07c-.63.47-.81.47-1.25-.15-.27-.36-.54-.72-.83-1.07a20,20,0,0,0-4.81-4.26c-2.35-1.48-4.63-3.07-7-4.59a1.2,1.2,0,0,1-.58-.87q-1.33-7.51-2.69-15c-.36-2-.73-4.06-1.09-6.09,0-.14,0-.29-.08-.53.48.26.9.45,1.28.7a55,55,0,0,0,8.83,4.71c2.65,1.16,5.24,2.43,7.79,3.79,2.19,1.17,4.34,2.41,6.46,3.7l.34.21A1,1,0,0,0,135.24,141.84Z"/><path class="cls-6" d="M147.48,64.37c.32.4.7.75,1,1.13a10.35,10.35,0,0,0-2.3-.7c-.24-.34-.5-.69-.75-1A2,2,0,0,1,147.48,64.37Z"/><path class="cls-6" d="M151.34,57l-.28-.37a.52.52,0,0,1,.12-.26A1.3,1.3,0,0,1,151.34,57Z"/><path class="cls-6" d="M163.41,83.08a5,5,0,0,1-1.16.14,43.71,43.71,0,0,0-5.37.29,4.73,4.73,0,0,1-3.38-.78c-.28-.19-.59-.35-.88-.53-.58-.34-.74-.62-.59-1.27.23-1.06.47-2.11.79-3.15.65-2.16,1.34-4.31,2.05-6.45a1.34,1.34,0,0,0-.24-1.41c-.74-.9-1.42-1.83-2.1-2.76a1.39,1.39,0,0,0-.77-.48c-.72-.23-1.44-.46-2.15-.73a1.65,1.65,0,0,0,.61-.26,4.67,4.67,0,0,0-1-1.74,3.24,3.24,0,0,0-2.57-1.39c-1,0-2-.1-3-.17a36.91,36.91,0,0,0-6.48.07,7.79,7.79,0,0,0-2.21.48c-1.22.53-2.37,1.19-3.54,1.82a2.15,2.15,0,0,0-1,1.25c-.09.24-.17.48-.27.72-.21-.09-.34,0-.43.22a.85.85,0,0,1-.47-.84,10.11,10.11,0,0,1,.2-1.45c0-.21.16-.38,0-.62s0-.57.31-.72a6,6,0,0,1,.95-.4c.85-.27,1.69-.55,2.55-.75a2.18,2.18,0,0,0,1.31-.86,14.74,14.74,0,0,1,2.22-2.38h0a10.27,10.27,0,0,1,3,.06c2.1.42,4.2.82,6.27,1.31a39.46,39.46,0,0,0,5.89.94c.67,0,.81-.11.66-.75-.09-.37-.19-.75-.33-1.29a4.58,4.58,0,0,1,.3.35l1.15,1.79a.8.8,0,0,0,1,.3c.37-.13.32-.43.28-.73s-.05-.63-.07-.95a5.42,5.42,0,0,0-1-2.87c0,.46,0,.81.06,1.17a1.56,1.56,0,0,1-.42-.53,8.32,8.32,0,0,0-.75-1.17l-.28-.32a7.85,7.85,0,0,1,2.86,1.5,4.35,4.35,0,0,1,1.07,1.56c.65,1.59,1.2,3.22,1.8,4.83,0,.14.09.28.14.42L164.33,80c.09.24.18.46.28.69A1.65,1.65,0,0,1,163.41,83.08Z"/><path class="cls-6" d="M170.89,110.35a6.63,6.63,0,0,1-.17,1.16,14,14,0,0,1-1.66,4.46c-.14.2-.54.83-.63.9s-.31,0-.45-.05c-1.06-.46-2.11-.94-3.16-1.41a9.56,9.56,0,0,0-5.71-.51c-2.6.47-5.07,1.1-7.67,1.62a2.43,2.43,0,0,1-1,0,5.36,5.36,0,0,1-1-.62c-1.46-1-2.81-2-4.27-2.94a4.37,4.37,0,0,1-1.46-1.62,2.7,2.7,0,0,1-.3-.82c-.15-.85.19-1.3,1.05-1.28,1.86,0,3.73.13,5.59.21,2.16.1,4.31.24,6.47.13l1.14,0a4.43,4.43,0,0,1,.73,0h-.08a65.19,65.19,0,0,1,7.78.27,10.37,10.37,0,0,0,3.8-.23C170.62,109.33,170.93,109.6,170.89,110.35Z"/><path class="cls-6" d="M143.39,104.63l-1,.06H142l-1,0h-.6a.74.74,0,0,0,.27.12,2.29,2.29,0,0,0,.58.06c.42,0,.83-.07,1.25-.12l1.22-.19Zm28-.37c-.62-.56-1.26-1.09-1.89-1.63l-1.75-1.47a2.75,2.75,0,0,0-2.25-.69c-1.12.18-2.22.4-3.31.67a1.13,1.13,0,0,1-.9-.1q-.47-.27-1-.51h0c-.33-.16-.67-.33-1-.48a4.39,4.39,0,0,0-3.22-.34c-.39.13-.81.18-1.21.29-3.52.92-7,1.83-10.55,2.77-1,.28-2.07.59-3.11.9a.08.08,0,0,1,0,0,5.76,5.76,0,0,0,1.95,0c2.34-.53,4.68-1.11,7-1.6a35.94,35.94,0,0,1,5.65-1,8.33,8.33,0,0,1,4.29.82,4,4,0,0,0,2.64.31c.94-.18,1.88-.36,2.83-.5a3.05,3.05,0,0,1,2.67,1c.32.31.63.61,1,.91l.27.26a2,2,0,0,0,1.93.47Zm.42.59h0Z"/><path class="cls-6" d="M147,82.39c-.72.22-1.44.45-2.17.65a13,13,0,0,1-5.47.36,8.36,8.36,0,0,1-4.34-2A6.11,6.11,0,0,1,133.86,80,32.26,32.26,0,0,1,130,69.82c0-.14-.08-.27-.13-.45a36.3,36.3,0,0,1-5.7-1.18l.89-.06a21.7,21.7,0,0,1,4.55.34,3,3,0,0,1,.77.23c.46.2.5.33.44.89a1.29,1.29,0,0,0,.07.43,44.3,44.3,0,0,0,3.9,9.36,5.89,5.89,0,0,0,3,2.42,10.35,10.35,0,0,0,4.77.64c1.5-.1,3-.14,4.48-.21Z"/><path class="cls-6" d="M166.14,61.46a2.22,2.22,0,0,1-.38.42c-.29.2-.56.37-.62.77a.53.53,0,0,1-.33.35,1.43,1.43,0,0,0-.92.52.7.7,0,0,1-.46.21.8.8,0,0,0-.78.37.42.42,0,0,1-.74-.21,3.17,3.17,0,0,1-.16-1.09,1.42,1.42,0,0,0-.26-1l0-.06a3.57,3.57,0,0,1-.59-3.13,10.74,10.74,0,0,0,.15-1.39A3.73,3.73,0,0,1,161.3,56c0,.17.09.35.12.52a4.14,4.14,0,0,0,.89,2A17.54,17.54,0,0,0,166.14,61.46Z"/><path class="cls-6" d="M143,73.1l-1.16-2.41c.31,0,.54-.11.78-.13l3.07-.32a1.65,1.65,0,0,0,1-.5c.25-.27.5-.54.76-.79s.5-.35.81,0,.77.93,1.16,1.4A4.67,4.67,0,0,1,147.85,72c-.17.13-.39.21-.55.35a3.14,3.14,0,0,1-2.38.75C144.28,73.08,143.65,73.1,143,73.1Z"/><path class="cls-6" d="M180,79.88A5.67,5.67,0,0,1,177.65,81c-1.26.32-2.52.61-3.8.84a5.78,5.78,0,0,1-4.82-1.3,2.54,2.54,0,0,1-.66-.86.61.61,0,0,1,.16-.56c.18-.19.4-.06.57.12A5.26,5.26,0,0,0,174,80.93c1.94-.29,3.86-.69,5.79-1Z"/><path class="cls-6" d="M142.71,100.91l-1.13,1.42h0a4.36,4.36,0,0,0-2.83,1.47.33.33,0,0,0,0,.52l.08.07-.07.08a2.43,2.43,0,0,1-.33.38.59.59,0,0,1-.75,0,.58.58,0,0,1-.22-.71,1.73,1.73,0,0,1,.29-.51,5,5,0,0,1,1.92-1.55l2.59-1.2.33-.12Z"/><path class="cls-6" d="M144.38,49.8c-.65-.39-1.22-.71-1.76-1.06a.8.8,0,0,1-.39-.89c.22-.9.46-1.8.69-2.69a1.93,1.93,0,0,1,.16-.34c.24.6.41,1,.57,1.44.22.62.42,1.25.65,1.87A2.89,2.89,0,0,1,144.38,49.8Z"/><path class="cls-6" d="M171.85,104.85h0Z"/><path class="cls-6" d="M173.27,105.87c-.35.12-.61,0-.92-.42l-.09-.13.5-.06a2,2,0,0,0,.37-.14,1.82,1.82,0,0,0-.85-1.55l-.18-.79c-.09-.37-.15-.74-.23-1.11l.14-.06a3.47,3.47,0,0,1,.3.37c.43.71.87,1.41,1.27,2.14a2.18,2.18,0,0,1,.22.83A.78.78,0,0,1,173.27,105.87Z"/><path class="cls-7" d="M142.41,70.05c-.24,0-.48,0-.73.06"/><polygon class="cls-6" points="142.43 69.82 142.43 69.83 142.42 69.83 142.43 69.82"/><polygon class="cls-6" points="142.43 69.82 142.43 69.83 142.43 69.83 142.43 69.82"/><path d="M187.65,61.15a1.57,1.57,0,0,0-1.21-.71c-1.45-.12-2.91-.18-4.36-.21-1.67,0-3.33,0-5,0-2.17,0-4.33,0-6.49.17a12.69,12.69,0,0,0-5.3,1.29,8,8,0,0,0-1.2.79,1.21,1.21,0,0,1-.6.22,50.2,50.2,0,0,1-7.15.19,1.44,1.44,0,0,1-.91-.41c-.32-.26-.66-.53-1-.77h0a4.63,4.63,0,0,0-.71-.43h0c-.33-.16-.67-.31-1-.45a17.31,17.31,0,0,0-1.67-.57A63.05,63.05,0,0,0,139.43,58a17.91,17.91,0,0,0-7.12.76c-1.19.38-2.38.74-3.59,1.08h0c-1.39.39-2.8.76-4.21,1.11-5.51,1.35-11,2.59-16.56,3.92l-1.71.41q-7.5,1.82-15,3.67l-2.44.6h-.06c-.17,0-.33.13-.5.19a1.24,1.24,0,0,1,0,.16l.86-.07c0,.53.34.65.76.67a9.15,9.15,0,0,0,1.17,0c.37,0,.73-.06,1.18-.11a1.15,1.15,0,0,0,1.22,1c.4,0,.85,0,1.09.42,0,0,.19,0,.28,0a5.59,5.59,0,0,0,.59-.08h.14l1.09-.18,8.08-1.27.92-.14c2.75-.43,5.5-.86,8.26-1.27q4.69-.7,9.41-1.35a4,4,0,0,1,1.25,0c1.84.31,3.67.66,5.51,1,.45.07.57.29.67.71.48,2.16,1,4.31,1.53,6.45a7.06,7.06,0,0,0,1.54,2.91c.38.45.77.9,1.12,1.37a6.87,6.87,0,0,0,4.29,2.65,23.33,23.33,0,0,0,5.72.47,10.72,10.72,0,0,0,7.36-3.13,15.73,15.73,0,0,0,3.22-4.9c.77-1.81,1.57-3.61,2.36-5.41a2,2,0,0,1,.85-1,3,3,0,0,1,3.16,0,3.83,3.83,0,0,1,1.33,1.23c.11.14.2.28.31.43.22.32.47.63.71.94s.49.6.74.89a2.12,2.12,0,0,0-.17-.74,2.61,2.61,0,0,1-.19-.85s0-.08,0-.12a8.82,8.82,0,0,1,1-4.1l.06-.11.06-.1c1.3-2.18,1.64-2.73,4.82-3.06.86-.09,1.72-.15,2.57-.22,1.28-.09,2.56-.14,3.84-.12a42.83,42.83,0,0,1,4.92.35.94.94,0,0,1,.3.07,1.64,1.64,0,0,1,1,.76,4.89,4.89,0,0,1,.61,1.09c.31,1,.58,1.93.83,2.9a6.74,6.74,0,0,1-.14,3.85,22.41,22.41,0,0,1-1.92,4.93A11.62,11.62,0,0,1,181,78.86a6,6,0,0,1-.58.55,7.06,7.06,0,0,1-2.73,1.47c-3,.86-5.82.75-8.28-1.45a.5.5,0,0,0-.11-.1,3.3,3.3,0,0,1-.61-.42,5.8,5.8,0,0,1-1.46-2.1,4.05,4.05,0,0,0-.21-.35c.06.26.12.51.19.76v0c.22.52.41,1.05.59,1.59.12.34.21.69.3,1a2.48,2.48,0,0,0,.25.3,6.43,6.43,0,0,0,.86.8,8.09,8.09,0,0,0,3.57,1.49,10.5,10.5,0,0,0,7.94-1.72c.21-.15.41-.31.61-.48a9.78,9.78,0,0,0,2.21-2.66,38.25,38.25,0,0,0,2.75-5.78,55.52,55.52,0,0,0,2.11-6.67A4.67,4.67,0,0,0,187.65,61.15Zm-34.9,16.06a7.78,7.78,0,0,1-3.2,3.18,8.34,8.34,0,0,1-3.7,1.13,36.36,36.36,0,0,1-6.16-.55,5.3,5.3,0,0,1-2.63-1.56,11,11,0,0,1-2.27-3,2.34,2.34,0,0,1-.24-.62q-.7-2.59-1.38-5.2a12.74,12.74,0,0,1-.31-1.59c0-.3-.07-.6-.09-.89a18.39,18.39,0,0,1,0-2.1c0-.67.09-1.34.16-2,0,0,0-.07,0-.11a7.32,7.32,0,0,1,.49-1.57,1.35,1.35,0,0,1,1.12-.84,56.28,56.28,0,0,1,6.1-.64c1.19.12,2.39.22,3.58.38s2.28.39,3.42.58a13.15,13.15,0,0,1,3.52,1.07,7.14,7.14,0,0,1,3.53,3.31,4.55,4.55,0,0,1,.46,1.91A18,18,0,0,1,152.75,77.21Z"/><path class="cls-1" d="M141.08,66.12q-.17.43-.81.27a2.26,2.26,0,0,1-.33-.13c-.26-.14-.56-.26-.48-.63s.32-.4.77-.41a1.93,1.93,0,0,1,.35,0A.71.71,0,0,1,141.08,66.12Z"/><path class="cls-1" d="M172.76,66.65a.5.5,0,0,1-.38.5l-.2,0a.57.57,0,0,1-.63-.55v0a.63.63,0,0,1,.67-.51A.58.58,0,0,1,172.76,66.65Z"/><polygon class="cls-8" points="0.5 242.29 28.74 242.29 28.74 215.48 0.5 215.48 5.21 228.89 0.5 242.29"/><polygon class="cls-8" points="264.06 215.48 235.82 215.48 235.82 242.29 264.06 242.29 259.35 228.89 264.06 215.48"/><rect class="cls-8" x="23.03" y="206.24" width="218.49" height="30.24"/><path d="M71,226.27H68.67l-3.46-10a3.67,3.67,0,0,0-.39-.85.79.79,0,0,0-.45-.32l-.48-.12v-.79h5.24V215l-.48.12a.67.67,0,0,0-.35.19.55.55,0,0,0-.1.34,2.51,2.51,0,0,0,.11.52c.07.26.14.52.22.77l2.16,6.72,1.9-6.1a6.75,6.75,0,0,0,.35-1.82.52.52,0,0,0-.2-.46,1.26,1.26,0,0,0-.43-.19L72,215v-.79h3.57V215l-.37.1a1.39,1.39,0,0,0-.27.1.77.77,0,0,0-.21.2,3.19,3.19,0,0,0-.22.39c-.07.16-.15.38-.24.65Z"/><path d="M80.2,217.91v6.46a2.66,2.66,0,0,0,.06.64c0,.15.17.26.4.33l.43.14v.79H76.38v-.81l.5-.12a.49.49,0,0,0,.4-.32,2.25,2.25,0,0,0,.08-.65v-4.44a1.93,1.93,0,0,0-.09-.73c0-.12-.2-.2-.42-.24l-.47-.09v-.7Zm-.08-2.85a2.15,2.15,0,0,1-.06.45,1.35,1.35,0,0,1-.2.5,1.25,1.25,0,0,1-.44.41,1.4,1.4,0,0,1-.76.18,1.21,1.21,0,0,1-.64-.15,1.19,1.19,0,0,1-.4-.37,1.28,1.28,0,0,1-.22-.49,2.53,2.53,0,0,1-.06-.53,2.79,2.79,0,0,1,0-.47,1,1,0,0,1,.18-.47,1.24,1.24,0,0,1,.41-.37,1.67,1.67,0,0,1,.77-.15,1.71,1.71,0,0,1,.69.12,1,1,0,0,1,.42.33,1.05,1.05,0,0,1,.2.47A2.35,2.35,0,0,1,80.12,215.06Z"/><path d="M89.63,224.62a6.52,6.52,0,0,1-1,1,4.84,4.84,0,0,1-.91.57,3.24,3.24,0,0,1-.91.27,5.46,5.46,0,0,1-.9.07,4.21,4.21,0,0,1-1.85-.36,3.09,3.09,0,0,1-1.17-1,3.68,3.68,0,0,1-.62-1.36,6.72,6.72,0,0,1-.18-1.56,5.06,5.06,0,0,1,.45-2.28,4.06,4.06,0,0,1,1.11-1.4,4,4,0,0,1,1.45-.71,5.91,5.91,0,0,1,1.43-.2,6.28,6.28,0,0,1,1.08.1,2.94,2.94,0,0,1,.93.34,1.68,1.68,0,0,1,.88,1.55,1.28,1.28,0,0,1-.33.9,1.33,1.33,0,0,1-1,.35,1,1,0,0,1-.72-.3,1.15,1.15,0,0,1-.37-.63l.06-.2a1,1,0,0,0,.06-.22,2.63,2.63,0,0,0,0-.3.43.43,0,0,0-.18-.39.82.82,0,0,0-.47-.12,1.25,1.25,0,0,0-.57.13,1.05,1.05,0,0,0-.46.49,3.38,3.38,0,0,0-.32,1,9.1,9.1,0,0,0-.12,1.64,5.09,5.09,0,0,0,.16,1.35,2.73,2.73,0,0,0,.42.89,1.56,1.56,0,0,0,.58.49,1.59,1.59,0,0,0,.67.15l.45,0a2.42,2.42,0,0,0,.5-.12,3.37,3.37,0,0,0,.58-.28,5.11,5.11,0,0,0,.65-.51Z"/><path d="M97.4,225.15a3.46,3.46,0,0,1-.81.66,4.6,4.6,0,0,1-.82.38,3.66,3.66,0,0,1-.74.16c-.23,0-.44,0-.61,0a3.3,3.3,0,0,1-1.2-.18,1.54,1.54,0,0,1-.71-.52,2,2,0,0,1-.33-.81,5.89,5.89,0,0,1-.09-1.08V219H90.86v-.9a2.19,2.19,0,0,0,.88-.48,5.1,5.1,0,0,0,.75-.84,7.43,7.43,0,0,0,.61-1c.17-.36.32-.69.45-1h1.39v3.17H97V219H94.94v3.75a7.18,7.18,0,0,0,.06,1,2.11,2.11,0,0,0,.17.62.61.61,0,0,0,.26.3.77.77,0,0,0,.34.08,1.82,1.82,0,0,0,.55-.08,2.41,2.41,0,0,0,.43-.18,1.78,1.78,0,0,0,.36-.25Z"/><path d="M107.14,222.11a5,5,0,0,1-.43,2.23,3.61,3.61,0,0,1-1.08,1.35,3.55,3.55,0,0,1-1.42.66,6.87,6.87,0,0,1-1.44.17,7.39,7.39,0,0,1-1.54-.16,3.34,3.34,0,0,1-2.43-2,5.53,5.53,0,0,1-.39-2.26,5.3,5.3,0,0,1,.39-2.19,3.8,3.8,0,0,1,1-1.36,3.58,3.58,0,0,1,1.4-.68,6.3,6.3,0,0,1,1.54-.19,7.55,7.55,0,0,1,1.57.17,3.53,3.53,0,0,1,1.4.65,3.29,3.29,0,0,1,1,1.35A5.48,5.48,0,0,1,107.14,222.11Zm-2.93-.31a11.74,11.74,0,0,0-.09-1.65,2.87,2.87,0,0,0-.28-.92.83.83,0,0,0-.46-.38,1.92,1.92,0,0,0-.61-.08,2,2,0,0,0-.63.08.78.78,0,0,0-.45.38,2.66,2.66,0,0,0-.27.92,12,12,0,0,0-.08,1.65v.6a10.39,10.39,0,0,0,.09,1.5,3,3,0,0,0,.27.93,1,1,0,0,0,.46.48,1.36,1.36,0,0,0,.61.13,1.48,1.48,0,0,0,.61-.12,1.13,1.13,0,0,0,.46-.48,3.12,3.12,0,0,0,.28-.93,10.34,10.34,0,0,0,.09-1.51Z"/><path d="M112.2,224.37a1.55,1.55,0,0,0,.13.66,1,1,0,0,0,.7.36l.44.09v.79h-5.08v-.81l.49-.12a.52.52,0,0,0,.41-.32,2.3,2.3,0,0,0,.07-.65v-4.32c0-.23,0-.41,0-.55a.76.76,0,0,0-.09-.31.42.42,0,0,0-.2-.17l-.35-.1-.32-.07v-.68l3.66-.27.07,1.49a2,2,0,0,1,.35-.71,2.19,2.19,0,0,1,.51-.5,2.08,2.08,0,0,1,.6-.29,2.22,2.22,0,0,1,.61-.1,2.74,2.74,0,0,1,.56.06,1.55,1.55,0,0,1,.51.18,1,1,0,0,1,.37.39,1.36,1.36,0,0,1,.13.66,1.15,1.15,0,0,1-.42,1,1.56,1.56,0,0,1-1,.32,2.06,2.06,0,0,0-.37-.65.74.74,0,0,0-.57-.22.94.94,0,0,0-.62.19,1.27,1.27,0,0,0-.38.45,2.12,2.12,0,0,0-.19.57,4,4,0,0,0,0,.55Z"/><path d="M129.63,222.28a1.33,1.33,0,0,0-.15-.72.79.79,0,0,0-.49-.31l-.48-.12v-.79h4.83v.79l-.37.16a1,1,0,0,0-.24.2.81.81,0,0,0-.13.31,3.23,3.23,0,0,0,0,.48v3.09a3.7,3.7,0,0,1-1,.58,10.15,10.15,0,0,1-1.22.38,9,9,0,0,1-1.24.23q-.62.06-1.08.06c-.36,0-.75,0-1.17-.05a5.75,5.75,0,0,1-1.25-.28,4.9,4.9,0,0,1-1.2-.62,3.9,3.9,0,0,1-1-1.08,6.14,6.14,0,0,1-.7-1.69,9.78,9.78,0,0,1-.26-2.4,7.68,7.68,0,0,1,.53-3.07,5.12,5.12,0,0,1,3.4-3.08,8.48,8.48,0,0,1,2.31-.32c.39,0,.78,0,1.16,0l1,.1,1.06.13.16,3.19-.84.13-.36-.8a2.88,2.88,0,0,0-.93-1.12,2.29,2.29,0,0,0-1.31-.44,4.07,4.07,0,0,0-1.35.21,2.29,2.29,0,0,0-1,.76,4,4,0,0,0-.62,1.47,10.77,10.77,0,0,0-.22,2.35v.45a13.81,13.81,0,0,0,.18,2.47,4.14,4.14,0,0,0,.53,1.49,1.73,1.73,0,0,0,.81.74,2.76,2.76,0,0,0,1.07.19,2.66,2.66,0,0,0,1.56-.41Z"/><path d="M138.1,224.37a2.72,2.72,0,0,0,.06.64c0,.15.17.26.4.33l.43.14v.79h-4.71v-.81l.5-.12a.5.5,0,0,0,.4-.32,2.25,2.25,0,0,0,.08-.65v-8.43c0-.23,0-.41,0-.55a1,1,0,0,0-.07-.34.32.32,0,0,0-.15-.19,1.11,1.11,0,0,0-.28-.1l-.46-.08V214l3.82-.23Z"/><path d="M150.21,226.27h-3.62l-.14-2h-.09a3.58,3.58,0,0,1-1.17,1.53,3.11,3.11,0,0,1-2,.59,2.77,2.77,0,0,1-1.3-.26,1.89,1.89,0,0,1-.73-.7,2.65,2.65,0,0,1-.32-1,7.88,7.88,0,0,1-.08-1.09q0-.81,0-1.65c0-.57,0-1.1,0-1.6a4.56,4.56,0,0,0-.08-1,.61.61,0,0,0-.53-.41l-.4-.09v-.78h3.68a2.53,2.53,0,0,1,.07.39c0,.14,0,.31,0,.53s0,.48,0,.79,0,.48,0,.82,0,.68,0,1,0,.63,0,.9,0,.43,0,.49a1.8,1.8,0,0,0,.31,1.24,1.09,1.09,0,0,0,.82.31,1.22,1.22,0,0,0,.74-.22,2.33,2.33,0,0,0,.51-.53,2.42,2.42,0,0,0,.31-.65,2,2,0,0,0,.1-.58v-2.74a1.86,1.86,0,0,0-.07-.56c0-.15-.21-.26-.49-.33l-.36-.09v-.78h3.73V224a2.45,2.45,0,0,0,.13.9.63.63,0,0,0,.45.42l.44.12Z"/><path d="M158.14,223.55a3.12,3.12,0,0,1-.21,1.14,2.41,2.41,0,0,1-.66.94,3.43,3.43,0,0,1-1.2.65,5.81,5.81,0,0,1-1.78.24,7.62,7.62,0,0,1-1.11-.08,6.38,6.38,0,0,1-.86-.21,3.79,3.79,0,0,1-.75-.29l-.16-2.09.72-.19a3.65,3.65,0,0,0,1.09,1.39,2.67,2.67,0,0,0,1.53.39,1.31,1.31,0,0,0,.89-.25.74.74,0,0,0,.29-.54.87.87,0,0,0-.42-.75,8.83,8.83,0,0,0-1.41-.66l-.74-.29a5.89,5.89,0,0,1-.87-.42,2.28,2.28,0,0,1-.63-.51,2,2,0,0,1-.4-.69,2.88,2.88,0,0,1-.13-.94,2.33,2.33,0,0,1,.94-2,4.17,4.17,0,0,1,2.55-.71,6.17,6.17,0,0,1,1,.08c.32,0,.6.1.85.16s.55.15.8.24l.16,2.11-.76.08c-.16-.26-.31-.48-.46-.68a2.48,2.48,0,0,0-.48-.49,1.82,1.82,0,0,0-.56-.31,2.19,2.19,0,0,0-.7-.11,3,3,0,0,0-.43,0,1.35,1.35,0,0,0-.37.13.72.72,0,0,0-.26.26,1,1,0,0,0-.09.45.67.67,0,0,0,.28.57,3.37,3.37,0,0,0,.95.45l1.17.42a4.86,4.86,0,0,1,1.63.94A2,2,0,0,1,158.14,223.55Z"/><path d="M163.05,213.75v5.69a2.63,2.63,0,0,1,.63-.82,3.19,3.19,0,0,1,.81-.52,3.87,3.87,0,0,1,.84-.26,4.05,4.05,0,0,1,.72-.08,3.43,3.43,0,0,1,1.48.27,2.11,2.11,0,0,1,.87.73,2.52,2.52,0,0,1,.39,1,7.06,7.06,0,0,1,.1,1.12v3.47a2.66,2.66,0,0,0,.06.64c0,.15.17.26.4.33l.43.14v.79h-4.71v-.81l.5-.12a.52.52,0,0,0,.4-.32,2.27,2.27,0,0,0,.08-.66v-3.05a4.07,4.07,0,0,0-.06-.73,1.65,1.65,0,0,0-.18-.58.88.88,0,0,0-.37-.37,1.48,1.48,0,0,0-.63-.12,1.66,1.66,0,0,0-.78.18,1.54,1.54,0,0,0-.55.5,2.28,2.28,0,0,0-.33.76,3.93,3.93,0,0,0-.1.94v2.47a2.75,2.75,0,0,0,.06.65c0,.15.17.26.4.33l.43.14v.79h-4.71v-.81l.5-.12a.49.49,0,0,0,.4-.32,2.25,2.25,0,0,0,.08-.65v-8.43c0-.23,0-.41,0-.55a1,1,0,0,0-.07-.34.32.32,0,0,0-.15-.19,1.18,1.18,0,0,0-.27-.1l-.47-.08V214Z"/><path d="M174.5,224.37a2.72,2.72,0,0,0,.06.64c0,.15.17.26.4.33l.43.14v.79h-4.71v-.81l.5-.12a.49.49,0,0,0,.4-.32,2.25,2.25,0,0,0,.08-.65v-8.43c0-.23,0-.41,0-.55a1,1,0,0,0-.07-.34.32.32,0,0,0-.15-.19,1.11,1.11,0,0,0-.28-.1l-.46-.08V214l3.82-.23Zm6.43,1.9h-3.4l-3-4.51,1.41-1.26c.28-.24.5-.45.66-.6l.35-.36a.6.6,0,0,0,.14-.23.69.69,0,0,0,0-.2.42.42,0,0,0-.14-.3,1.12,1.12,0,0,0-.61-.16v-.79h4.12v.79a3.36,3.36,0,0,0-.54.09,2.34,2.34,0,0,0-.48.2,5.86,5.86,0,0,0-.59.39c-.23.17-.52.39-.87.67l-1.18.92,2,2.74.73.92a4.64,4.64,0,0,0,.48.53,1.78,1.78,0,0,0,.33.25.7.7,0,0,0,.27.08l.24,0Z"/><path d="M190.23,222.11a5,5,0,0,1-.43,2.23,3.61,3.61,0,0,1-1.08,1.35,3.55,3.55,0,0,1-1.42.66,6.87,6.87,0,0,1-1.44.17,7.39,7.39,0,0,1-1.54-.16,3.34,3.34,0,0,1-2.43-2,5.53,5.53,0,0,1-.39-2.26,5.3,5.3,0,0,1,.39-2.19,3.8,3.8,0,0,1,1-1.36,3.58,3.58,0,0,1,1.4-.68,6.3,6.3,0,0,1,1.54-.19,7.55,7.55,0,0,1,1.57.17,3.53,3.53,0,0,1,1.4.65,3.29,3.29,0,0,1,1,1.35A5.48,5.48,0,0,1,190.23,222.11Zm-2.93-.31a11.74,11.74,0,0,0-.09-1.65,2.62,2.62,0,0,0-.29-.92.78.78,0,0,0-.45-.38,1.92,1.92,0,0,0-.61-.08,2,2,0,0,0-.63.08.78.78,0,0,0-.45.38,2.66,2.66,0,0,0-.27.92,12,12,0,0,0-.08,1.65v.6a10.39,10.39,0,0,0,.09,1.5,3,3,0,0,0,.27.93,1,1,0,0,0,.46.48,1.36,1.36,0,0,0,.61.13,1.48,1.48,0,0,0,.61-.12,1.06,1.06,0,0,0,.45-.48,2.83,2.83,0,0,0,.29-.93,10.34,10.34,0,0,0,.09-1.51Z"/><path d="M200.43,218.68l-.24.11a1.2,1.2,0,0,0-.34.18.69.69,0,0,0-.24.24,2.92,2.92,0,0,0-.21.4c-.07.16-.15.37-.26.65l-2.2,6h-2.09l-2.69-6.34c-.1-.22-.19-.4-.26-.54a2.58,2.58,0,0,0-.18-.31.5.5,0,0,0-.19-.17,2.26,2.26,0,0,0-.26-.11l-.36-.12v-.78h4.76v.78l-.26.06a.62.62,0,0,0-.31.13c-.09.07-.13.21-.13.43a1.58,1.58,0,0,0,.13.54c.1.23.18.44.24.62l1.32,3.46,1.15-3.32.25-.8a2.22,2.22,0,0,0,.11-.57.42.42,0,0,0-.22-.42,3.15,3.15,0,0,0-.41-.13v-.78h2.89Z"/></g></g></svg>