<svg xmlns="http://www.w3.org/2000/svg" width="264.558" height="242.794" viewBox="0 0 264.558 242.794">
  <g id="Group_1918" data-name="Group 1918" transform="translate(-1086.245 -2023)">
    <path id="Path_1860" data-name="Path 1860" d="M1171.875,2233.277c.125-1.277-4.127-51.354-4.127-51.354l25.663-14.428,31.387,13.412,1.254,50.721Z" fill="#fff"/>
    <g id="Group_1915" data-name="Group 1915">
      <g id="Group_1910" data-name="Group 1910">
        <path id="Path_1861" data-name="Path 1861" d="M1222.7,2222c-.065-6.907-.174-13.818-.263-20.724,0-.15-.012-.3-.024-.487-.6-.388-1.2-.781-1.949-1.267,0,.51.02.87,0,1.223a14.846,14.846,0,0,1-.186,1.6c-.547,2.771-1.11,5.537-1.669,8.3-.024.118-.049.239-.081.405-.227.053-.458.11-.737.174a5.05,5.05,0,0,1-.223-.567q-.851-3.085-1.681-6.177a20.441,20.441,0,0,1-.863-4.926,22.386,22.386,0,0,0-.276-2.337c-.85.081-1.652.141-2.45.243a.779.779,0,0,0-.4.295c-.875,1-1.738,2-2.617,3a3.723,3.723,0,0,0-.632,1.782q-1.087,4.776-2.139,9.564-1.854,8.422-3.69,16.848-.48,2.163-.985,4.326h20.886C1222.712,2229.522,1222.737,2225.763,1222.7,2222Z" fill="#b2c1f3"/>
        <path id="Path_1862" data-name="Path 1862" d="M1263.087,2041.72c-.142-.23-.263-.445-.385-.644-.06-.1-.121-.2-.178-.291s-.117-.187-.178-.276c-.041-.06-.085-.121-.126-.178-.1-.13-.194-.259-.295-.381-.085-.1-.175-.206-.264-.3-.024-.024-.044-.048-.069-.072-.081-.09-.166-.175-.251-.256a5.785,5.785,0,0,0-1.061-.826c-.045-.032-.093-.061-.142-.089a4.116,4.116,0,0,0-.421-.219c-.122-.061-.247-.117-.373-.166s-.267-.1-.405-.146a.059.059,0,0,0-.028-.008c-.138-.04-.28-.081-.421-.113a9.836,9.836,0,0,0-1.276-.219,13.988,13.988,0,0,0-3.768.146,7.554,7.554,0,0,1-1.681.012.9.9,0,0,1-.79-.677,6.789,6.789,0,0,0-.364-.814c-.069-.129-.146-.251-.227-.373-.065-.1-.134-.2-.207-.3a.914.914,0,0,0-.085-.11c-.077-.1-.158-.19-.239-.283s-.178-.186-.271-.276c-.041-.036-.081-.077-.122-.109-.081-.073-.166-.146-.251-.215-.117-.093-.235-.186-.36-.271a8.869,8.869,0,0,1-1.892-1.507.641.641,0,0,0-.085-.089,2.122,2.122,0,0,0-.3-.235c-.069-.049-.142-.093-.215-.142-.036-.024-.073-.048-.1-.073a1.228,1.228,0,0,1-.1-.069c-.037.033-.073.069-.11.106h0c.025.04.045.081.069.117a1.211,1.211,0,0,0,.077.118,19.14,19.14,0,0,1,2.819,5.063c.337.924.673,1.847.981,2.779a1.456,1.456,0,0,0,.089.215.667.667,0,0,0,.057.085.4.4,0,0,0,.068.073.329.329,0,0,0,.077.061.669.669,0,0,0,.191.085.834.834,0,0,0,.117.028c.377.061.758.134,1.13.219.126.028.252.06.373.093.924.247,1.839.531,2.763.778a3.1,3.1,0,0,0,.684.113,3.928,3.928,0,0,0,1.633-.259c.1-.037.194-.077.288-.122a6.27,6.27,0,0,1,.87-.348,5.008,5.008,0,0,1,1.649-.276c.239.021.474.045.713.077a8,8,0,0,1,1.053.207,4.88,4.88,0,0,1,.677.239c.109.049.219.1.328.162a4.709,4.709,0,0,0,.486.19h0C1263.184,2041.874,1263.136,2041.8,1263.087,2041.72Zm-17.649-8.595c.194.316.348.559.5.8.263.417.5.846.725,1.28.081.141.15.287.219.433s.142.292.21.442c.134.291.264.591.385.887q.3.759.571,1.535c.077.227.154.458.227.689.037.121.073.239.11.356.069.215.133.426.194.644.093.312.182.624.268.94.186.677.4,1.349.595,2.026.049-.009.1-.017.15-.029C1249.752,2040.42,1247.273,2034.364,1245.438,2033.125Zm8.616,2.147a2.26,2.26,0,0,1-.219-.146c-.065-.053-.13-.11-.19-.166a2.576,2.576,0,0,1-.32-.381,4.016,4.016,0,0,1-.26-.442c-.04-.077-.081-.154-.117-.235-.085-.182-.178-.364-.28-.538-.04-.073-.085-.146-.129-.215s-.089-.142-.138-.207a3.211,3.211,0,0,0-.194-.263c-.049-.061-.1-.117-.154-.174a2.6,2.6,0,0,0-.235-.235c-.073-.065-.15-.126-.227-.182-.13-.1-.259-.2-.389-.3s-.251-.211-.373-.32-.239-.215-.352-.328-.235-.227-.344-.345c-.1-.1-.2-.2-.288-.308-.126-.133-.247-.271-.365-.413-.1-.125-.21-.251-.311-.376s-.2-.256-.3-.385c-.126-.166-.259-.324-.4-.486s-.268-.316-.393-.482a1.474,1.474,0,0,0-.466-.418c-.032-.02-.065-.036-.1-.052a2.368,2.368,0,0,0-.462-.183c-1.292-.389-2.58-.81-3.848-1.264-1.033-.368-1.268-.465-1.661.077-.037.053-.077.114-.122.179-.085.133-.182.291-.295.482-.021.032,0,.089,0,.174.129.024.271.065.409.077a4.928,4.928,0,0,1,2.5.992h0q.56.414,1.11.851a11.061,11.061,0,0,0,3.917,2.273,3.529,3.529,0,0,1,.806.364,4.17,4.17,0,0,1,1.917,2.155c.1.251.21.5.32.746a1.424,1.424,0,0,0,.538.664.158.158,0,0,0,.057.028.222.222,0,0,0,.069.033.186.186,0,0,0,.061.024.056.056,0,0,0,.024.008.541.541,0,0,0,.121.028.821.821,0,0,0,.183.017,1.694,1.694,0,0,0,.271-.029,1.614,1.614,0,0,1,.312-.024c.162,0,.324.012.482.012.02-.057.041-.105.061-.162A1.7,1.7,0,0,1,1254.054,2035.272Zm-5.7,7.473c-.267-1.122-.53-2.248-.838-3.362a14.9,14.9,0,0,0-.7-2.013,26.418,26.418,0,0,0-5.424-7.753,2.85,2.85,0,0,0-.263-.235c-.069-.057-.15-.126-.247-.211a3.765,3.765,0,0,0,0,.518,27.663,27.663,0,0,1,.283,5.072c0,.98-.012,1.961,0,2.941a1,1,0,0,0,.15.47c.915,1.568,1.863,3.115,2.742,4.7a1.218,1.218,0,0,0,.081.134.857.857,0,0,0,.081.109.694.694,0,0,0,.061.073.586.586,0,0,0,.085.081,1.031,1.031,0,0,0,.247.166c.041.02.081.037.122.053a.689.689,0,0,0,.13.044c.162.041.324.081.482.114l.243.048c.1.021.2.037.3.053l.3.036a5.907,5.907,0,0,0,1.442-.032C1248.537,2043.62,1248.561,2043.6,1248.358,2042.745Zm-8.51-4.7c.125.292.186.462.271.616.235.429.486.847.717,1.28.373.685.733,1.382,1.106,2.07a2.058,2.058,0,0,0,.668.721,1.544,1.544,0,0,0,.142.093.067.067,0,0,0,.028.017c.081.056.17.1.264.158v0A14.9,14.9,0,0,0,1239.848,2038.046Zm2.369,5.639c-.1-.17-.21-.34-.316-.506-.737-1.183-1.43-2.289-2.122-3.395-.26-.405-.5-.822-.766-1.215,0,0,0,0,0,0-.089-.13-.182-.259-.279-.385l-.171-.219a11.588,11.588,0,0,0-1.215-1.349c-.061-.056-.121-.113-.182-.166-.1-.089-.207-.178-.316-.267-.158-.126-.324-.247-.494-.361-.1-.064-.195-.125-.3-.182s-.2-.117-.3-.17-.206-.1-.316-.154l-.68-.3c-.381-.17-.758-.34-1.139-.506-.3-.13-.607-.259-.915-.385s-.616-.243-.928-.356c-.113-.041-.223-.081-.336-.118-.227-.077-.458-.142-.689-.2s-.465-.118-.7-.171l-.7-.158c-.114-.024-.231-.052-.349-.077a3.082,3.082,0,0,0-.83.053c-.065.515.231.77.425,1.07.466.717.94,1.434,1.394,2.159a1.347,1.347,0,0,1-.255,1.75c-.037.036-.073.073-.11.1a.921.921,0,0,1-.117.1,1.079,1.079,0,0,1-.122.093,2.886,2.886,0,0,1-.255.179c-.085.06-.174.117-.255.174,0,0,0,0,0,0l-.126.089a.255.255,0,0,1-.056.032c-.126.085-.284.154-.531.288.251.032.409.061.543.077.044,0,.085.008.125.008.515.024,1.025.065,1.536.126.17.016.34.04.506.064s.34.045.506.073.336.053.5.085c.2.037.4.073.6.114.3.061.6.125.895.194l.495.122c.328.081.656.17.984.263.656.186,1.3.4,1.952.616a10.82,10.82,0,0,1,1.669.765,3.2,3.2,0,0,1,.616.584c-.664-.138-1.325-.251-1.985-.345l-.547-.072c-.218-.029-.441-.057-.664-.073-.182-.025-.365-.041-.551-.053a2.066,2.066,0,0,0-.227-.02c-.182-.017-.364-.029-.547-.037-.141-.012-.279-.016-.417-.02s-.275-.012-.413-.016c-.721-.025-1.442-.016-2.167.02-.15,0-.3.012-.454.02a7.321,7.321,0,0,1-.741.012c-.089,0-.183-.012-.272-.016h-.02c-.089-.008-.178-.02-.267-.028a9.076,9.076,0,0,1-2.1-.515c-.968-.352-1.9-.781-2.86-1.166-.23-.093-.478-.15-.765-.235,0,.048-.008.093-.008.138a1.069,1.069,0,0,0,.008.117.947.947,0,0,0,.214.519,1.315,1.315,0,0,0,.094.1,3.13,3.13,0,0,0,.287.239c.021.012.037.028.057.04.089.069.174.134.263.2.11.081.219.162.332.235a11.791,11.791,0,0,0,1.564.915,9.141,9.141,0,0,0,1.766.657,8.992,8.992,0,0,0,1.795.275c.125.008.251.012.377.012.291,0,.583,0,.875,0,.356,0,.717-.016,1.077-.032.186-.008.369-.021.555-.037a16.14,16.14,0,0,1,1.977-.04c.2,0,.4.016.607.028.138.008.272.016.41.028.117.009.235.017.352.029l.506.048c.252.025.5.057.754.085s.5.061.753.1c.571.073,1.147.133,1.726.186l.883.085c.3.028.595.057.9.089v0Zm25.407,64.7a38.633,38.633,0,0,0-.705-4.65q-.139-.663-.3-1.321c-.243-1.016-.527-2.025-.839-3.03a8.324,8.324,0,0,1-.134-4.929c.158-.539.276-1.1.482-1.621a38.431,38.431,0,0,0,1.289-5.667c.012-.061-.033-.138-.061-.263-.494-.158-1.005-.337-1.519-.49-.867-.252-1.726-.515-2.6-.721a15.711,15.711,0,0,0-2.718-.442c-2.135-.138-4.266-.259-6.4-.409a.982.982,0,0,0-1.017.547c-.92,1.567-1.847,3.135-2.811,4.674a1.746,1.746,0,0,0-.146,1.807c.247.515.5,1.025.761,1.531l.365.705c.77,1.454,1.58,2.888,2.313,4.359a20,20,0,0,1,1.308,3.447c.2.681.365,1.365.515,2.058a6.822,6.822,0,0,1-.859-.8,3.025,3.025,0,0,1-.247-.3,1.5,1.5,0,0,1-.195-.36c-.255-.746-.494-1.5-.7-2.273l0-.012a39.326,39.326,0,0,0-2.455-4.853c-.482-.839-.989-1.665-1.45-2.516-.069-.121-.134-.239-.2-.36a3.24,3.24,0,0,1-.19-2.7,17.238,17.238,0,0,1,2.321-4.906.786.786,0,0,0,.105-.2.551.551,0,0,0,.037-.377,1.162,1.162,0,0,1,.1-1.061c.563-1.005,1.134-2.005,1.754-2.982a1.889,1.889,0,0,1,1.13-.717,2.357,2.357,0,0,0-.7,1.552c.527-.571.973-1.118,1.483-1.6a2.39,2.39,0,0,1,1.981-.859c-.361.474-.66.859-.96,1.244a25.867,25.867,0,0,1,2.451-.932c.206.506-.183.624-.377.842l-.6.653a.488.488,0,0,0,.409-.041c.721-.369,1.43-.766,2.164-1.106a2.7,2.7,0,0,1,1.057-.275,16.646,16.646,0,0,1,5.728,1.17c-.093-1.336-.183-2.535-.268-3.734-.158-2.155-.316-4.311-.461-6.466-.085-1.247-.077-2.507-.235-3.747a20.1,20.1,0,0,0-1.414-5.25,40.671,40.671,0,0,0-4.168-7.279,17.773,17.773,0,0,0-1.75-1.985c-.507-.535-1.066-1.017-1.588-1.535-.486-.486-.936-1.005-1.426-1.487a8.342,8.342,0,0,0-3.557-2.147,4.112,4.112,0,0,0-1.863-.117,47.539,47.539,0,0,1-6.883.778c-1.62.012-3.24.036-4.861.036-1.349,0-2.7.036-4.051-.036a30.722,30.722,0,0,1-8.308-1.556c-1.835-.624-3.625-1.385-5.444-2.058a29.562,29.562,0,0,0-5.8-1.361,16.464,16.464,0,0,0-9.37,1.211,3.508,3.508,0,0,0-1.219.908c-1.361,1.616-2.714,3.248-3.994,4.926a123.58,123.58,0,0,0-7.551,11.362,1.141,1.141,0,0,0-.008,1.442c1.661,2.411,3.277,4.845,4.938,7.255a2.493,2.493,0,0,0,.826.7c.742.434,1.52.81,2.265,1.232.478.271.518.384.328.9a10.883,10.883,0,0,1-.685,1.547,47.2,47.2,0,0,1-3.35,5.2c-1.4,1.928-2.75,3.9-4.1,5.861a2.308,2.308,0,0,0-.409,1q-.159,1.251-.316,2.507c-.2,1.6-.389,3.2-.559,4.809-.053.49-.1.98-.15,1.47-.263,2.714-.421,5.44-.636,8.159-.053.676-.158,1.348-.239,2.065-.231-.056-.377-.077-.511-.125-1.96-.737-1.689-.284-2.734-2.451-.725-1.5-1.5-2.985-2.268-4.468-.324-.632-.677-1.256-1.033-1.867a2.415,2.415,0,0,0-.519-.7c-.295-.231-.595-.466-.911-.673a5.569,5.569,0,0,0-.616-.352c-1.588-.762-3.2-1.462-4.8-2.2l-.426-.194a2.542,2.542,0,0,0-2.7.3c-.1.064-.13.214-.231.388.328.041.567.065.806.1l.105.012c.5.053,1.009.1,1.5.182a16.473,16.473,0,0,1,5.136,1.961q.48.267.96.547a3.421,3.421,0,0,1,1.325,1.5c-.745.28-.968.28-1.4-.081a11.877,11.877,0,0,0-5.356-2.491,27.463,27.463,0,0,0-5.128-.5,1.485,1.485,0,0,0-1.3.684,4.714,4.714,0,0,0-.268.438,32.123,32.123,0,0,0-2.211,4.82,6.845,6.845,0,0,0-.248,4.756c.547,1.58,1.159,3.136,1.665,4.723.948,2.986,2.4,5.753,3.614,8.625.036.089.089.174.125.263a6.427,6.427,0,0,0,2.492,2.832,53.512,53.512,0,0,1,6.388,4.99c.571.539,1.191,1.025,1.794,1.523a2.263,2.263,0,0,0,2.569.154,2.008,2.008,0,0,0,1.069-1.883c.113-1.418.263-2.836.389-4.254a2.386,2.386,0,0,0-.045-.656,53.523,53.523,0,0,0-2.017-8.531,2.866,2.866,0,0,1-.138-.721c-.02-.235.126-.357.361-.365a.833.833,0,0,1,.875.543c.227.571.4,1.163.668,1.718a39.252,39.252,0,0,1,2.244,6.623c1.527,5.521,3.034,11.046,4.574,16.564a5.132,5.132,0,0,0,2.045,2.888,33.546,33.546,0,0,0,8.029,4.144c2.791,1,5.631,1.876,8.45,2.8,1.183.389,2.366.794,3.565,1.143,3.293.968,6.587,1.936,9.892,2.847,1.916.527,3.857.977,5.8,1.4a30.093,30.093,0,0,0,7.81.94c1.811-.089,3.621-.243,5.432-.41,2.471-.23,4.942-.473,7.4-.773a6.738,6.738,0,0,0,2.329-.612,6.289,6.289,0,0,0,2.824-3.006,64.012,64.012,0,0,0,3.143-7.862c1.155-3.8,2.386-7.592,3.383-11.44.988-3.8,1.721-7.668,2.361-11.549A34.056,34.056,0,0,0,1267.624,2108.385Zm-16.924,46.942c-.3.044-.567.073-.827.121-.919.174-1.831.373-2.75.527a56.739,56.739,0,0,0-8.394,1.912,94.366,94.366,0,0,0-12.3,4.727,39.011,39.011,0,0,1-4.683,2.155,1.069,1.069,0,0,1-1.021-.081,121.181,121.181,0,0,0-14.591-7.7,55.135,55.135,0,0,1-8.831-4.712c-.376-.251-.8-.437-1.28-.7.037.243.049.389.077.53q.541,3.039,1.094,6.093,1.348,7.5,2.69,15.016a1.215,1.215,0,0,0,.575.875c2.325,1.519,4.606,3.1,6.955,4.582a20.391,20.391,0,0,1,5.639,5.339c.442.612.62.616,1.248.146a8.45,8.45,0,0,1,1.337-.908c4.249-1.981,8.454-4.071,12.569-6.331a86.121,86.121,0,0,0,10.29-6.328c1.3-.972,2.576-1.976,3.905-2.9a61.345,61.345,0,0,0,7.449-6.477,2.4,2.4,0,0,0,.843-1.665c.032-1.256.06-2.5.081-3.76A2.626,2.626,0,0,0,1250.7,2155.327Zm-43.186,25.439a46.521,46.521,0,0,0-4.173-2.349c-.271-.134-.539-.276-.806-.418-.085-.044-.174-.089-.259-.137-.211-.114-.417-.231-.628-.349-.316-.174-.624-.356-.932-.543q-.358-.211-.717-.437-.406-.249-.806-.51c-.352-.231-.7-.462-1.053-.7-.089-.057-.178-.118-.263-.179-.357-.243-.709-.49-1.062-.737-.453-.32-.9-.636-1.357-.952s-.9-.64-1.353-.96c-.194-.142-.389-.283-.571-.437-.061-.053-.121-.11-.178-.162-.34-.32-.681-.636-1.021-.952s-.685-.636-1.025-.956c-.3-.28-.6-.563-.891-.847-.057-.053-.113-.1-.166-.162-.32-.308-.636-.62-.948-.94-1.993-2.037-3.921-4.136-5.878-6.206-.109-.117-.231-.218-.376-.36-.219.458-.438.838-.588,1.248-1.531,4.249-3.05,8.506-4.589,12.76a.867.867,0,0,0,.081.822c.457.786.879,1.588,1.34,2.37q1.125,1.908,2.285,3.791c1.155,1.884,2.354,3.743,3.488,5.639,1.337,2.236,2.528,4.557,4.063,6.676.138.186.267.381.4.575.081.118.158.239.235.361.174.271.344.547.514.822.122.2.243.4.369.591l.048.073c.017.025.033.049.049.069.1.162.219.32.332.474.345.47.733.924,1.143,1.4.413-.559.757-1.033,1.11-1.5a21.816,21.816,0,0,1,2.665-3.229c.766-.688,1.491-1.426,2.252-2.118,3.294-2.99,6.6-5.967,9.892-8.965a10.585,10.585,0,0,0,.879-1.045A9.316,9.316,0,0,0,1207.514,2180.766Zm17.114,14.1a73.062,73.062,0,0,1-5.841-6.425,1.249,1.249,0,0,0-.587-.4c-1.369-.393-2.743-.761-4.116-1.122a2.205,2.205,0,0,0-.235-.048l-.089-.012c-.049,0-.1-.009-.15-.009h-.016c-.053,0-.1,0-.154.009q-1.6.212-3.208.433t-3.2.446c-.329.048-.649.149-.961.226.158,1.131,2.856,6.056,4.169,7.669.085,0,.182.02.275.016.174,0,.345-.016.515-.033a48.452,48.452,0,0,1,8.758-.093,2.85,2.85,0,0,1,.534.093,2.088,2.088,0,0,1,.211.073l.081.037.008,0a1.228,1.228,0,0,1,.166.085c.073.045.142.093.207.142a.816.816,0,0,1,.1.085,1.045,1.045,0,0,1,.093.093,2.11,2.11,0,0,1,.255.328c.025.041.049.081.073.126.053.093.106.182.162.275.381.636.815,1.26,1.293,2,.162-.332.324-.656.482-.976v0c.154-.32.307-.632.461-.944.3-.624.6-1.227.892-1.823A2.45,2.45,0,0,0,1224.628,2194.867Zm21.069-1.839-.065-.036v0c-.182.226-.352.453-.531.68s-.356.454-.55.664c-2.042,2.261-4.076,4.529-6.162,6.749-.15.162-.3.316-.466.47-.182.186-.372.361-.563.535-.235.215-.474.429-.713.64-.117.109-.239.215-.356.32l-.316.279c-.134.122-.267.243-.4.365-.045.04-.089.077-.13.109a.691.691,0,0,1-.129.081.562.562,0,0,1-.349.061c-.028,0-.06-.008-.1-.016a1.9,1.9,0,0,1-.2-.065h0c-.142-.057-.28-.117-.418-.182-.113-.053-.223-.106-.332-.162l-.2-.11-.187-.109c-.061-.032-.121-.073-.182-.113-.113-.069-.223-.142-.332-.219a7.15,7.15,0,0,1-.592-.466q-.14-.122-.279-.255-2.071-1.993-4.132-4c-.17-.162-.344-.32-.51-.47-.086.065-.138.089-.158.129-.843,1.556-1.7,3.1-2.508,4.675-.024.049-.044.1-.065.146s-.036.089-.052.134a3.338,3.338,0,0,0-.171.988c-.012.936.065,1.867.094,2.8q.3,11.169.607,22.336c.033,1.021.166,2.038.251,3.059a1.085,1.085,0,0,0,.11.02h.008a.913.913,0,0,0,.1.02v0c.114-.15.231-.3.332-.457,1.588-2.427,3.213-4.829,4.744-7.288,1.64-2.625,3.261-5.27,4.764-7.972a143.916,143.916,0,0,0,9.8-22.065c.146-.409.271-.826.409-1.24Zm6.712-32.727c-.057.073-.113.146-.166.219-.105.146-.211.3-.316.441s-.206.3-.316.434a4.864,4.864,0,0,1-.522.595c-1.406,1.337-2.84,2.646-4.315,3.9-1.324,1.131-2.71,2.2-4.091,3.257q-1.3,1-2.6,1.993c-.875.661-1.75,1.309-2.645,1.941-.324.226-.652.453-.98.668s-.66.442-1,.648-.668.421-1,.628h0c-.677.413-1.361.814-2.046,1.2-.113.065-.227.13-.344.19-.4.231-.806.454-1.216.677-.518.288-1.045.571-1.567.855-3.52,1.9-7.024,3.84-10.694,5.448-.3.134-.584.308-.944.494.66.571,1.247,1.054,1.806,1.564.908.83,1.8,1.669,2.706,2.5q.675.633,1.353,1.252c.114.1.227.211.341.312.336.312.68.624,1.02.932.243.218.487.441.726.664.044.041.085.081.125.122.239.226.478.461.713.7.211.211.417.426.624.644s.409.434.608.657c.174.19.348.384.518.583q.335.382.656.778c1.248,1.519,2.487,3.046,3.772,4.533a12.692,12.692,0,0,0,.919.952c.162.154.324.3.486.453l.486.45a1.6,1.6,0,0,0,1.082.522c.527-.672,1.069-1.308,1.551-1.984q5.409-7.6,10.8-15.207a5.749,5.749,0,0,0,.924-1.981q.309-1.294.632-2.577t.64-2.576q.48-1.932.931-3.868c.1-.43.2-.859.292-1.293.717-3.285,1.252-6.615,1.944-9.9A1.364,1.364,0,0,0,1252.409,2160.3Zm29.3,51.944c-.219-1.207-.389-2.426-.6-3.637q-1.076-6.058-2.18-12.108c-.729-4.067-1.446-8.13-2.2-12.189-.689-3.671-1.447-7.324-2.127-11a4.523,4.523,0,0,0-1.742-2.8c-2.564-2.041-5.3-3.832-8.033-5.626-2.054-1.349-4.128-2.67-6.06-4.2a20.54,20.54,0,0,0-5.683-3.22c-.527-.191-1.041-.414-1.54-.612-.012-.166-.028-.263-.028-.361,0-.218-.008-.441,0-.664.016-.7.016-.705.66-.944a9.656,9.656,0,0,0,2.439-1.191,12.91,12.91,0,0,0,3.459-4.164,39.159,39.159,0,0,0,3.014-6.793,150.123,150.123,0,0,0,4.634-15.45,125.744,125.744,0,0,0,2.5-13.611,26.33,26.33,0,0,0-.187-7.859c-.154-.855-.328-1.709-.514-2.56-.1-.466-.211-.932-.324-1.4-.231-.981-.478-1.957-.729-2.933a8.258,8.258,0,0,1-.021-4.351c.478-1.734.908-3.471,1.362-5.205a19.341,19.341,0,0,0,.648-3.269,7.915,7.915,0,0,0,0-1.378c-.045-.5-.093-1-.138-1.5,0-.013,0-.029,0-.041-.227-2.621-.385-5.246-.689-7.859a25.209,25.209,0,0,1,.369-7.838c.255-1.3.494-2.6.7-3.917a32.293,32.293,0,0,0,.036-9.183,3.757,3.757,0,0,0-1.5-2.763c-.3-.215-.559-.47-.871-.737.13-.693.256-1.39.4-2.091a16.287,16.287,0,0,0-.777-9.483c-.118-.3-.2-.6-.345-.887a2.688,2.688,0,0,0-1.413-1.114,16.723,16.723,0,0,1-2.143-1.134c-.981-.648-1.86-1.458-2.864-2.066a51.03,51.03,0,0,1-9.224-7.555c-.454-.445-.822-.976-1.264-1.434a12.29,12.29,0,0,0-1.6-1.5,3.3,3.3,0,0,0-2.953-.47,16.2,16.2,0,0,1-2.516.564c-1.58.2-3.172.307-4.763.453a5.7,5.7,0,0,0-.584.069,22.544,22.544,0,0,1-5.955.178c-3.115-.182-6.226-.478-9.349-.607-4.245-.175-8.5-.223-12.756-.065a18.851,18.851,0,0,0-5.829,1.106,32.306,32.306,0,0,0-9.115,4.9,3.4,3.4,0,0,1-1.446.677c-1.418.3-2.819.676-4.241.968a49.434,49.434,0,0,0-5.481,1.709,6.562,6.562,0,0,0-3.557,2.832c-.064.1-.137.2-.206.3-3.063,4.666-6,9.406-8.669,14.315-1.1,2.03-2.362,3.966-3.609,5.911-1.418,2.211-2.917,4.366-4.355,6.562a4.194,4.194,0,0,0-.571,3.844c.595,1.787.972,3.646,1.45,5.477.948,3.589,1.762,7.211,2.358,10.868a62.984,62.984,0,0,0,3.224,11.784,1.982,1.982,0,0,1,0,1.487c-.142.365-.275.737-.417,1.1a20.747,20.747,0,0,0-1.191,4.326,3.841,3.841,0,0,0,.113,1.746c.454,1.45.932,2.9,1.422,4.335a74.33,74.33,0,0,0,4.42,10.524,9.948,9.948,0,0,0,2.993,3.492,71.191,71.191,0,0,1,6.9,5.541,2.532,2.532,0,0,1,.818,1.568c.324,2.26.713,4.516.912,6.789.316,3.573.53,7.158.729,10.739a92.745,92.745,0,0,1-.077,9.949c-.1,1.879-.045,1.6-1.41,2.438a2.981,2.981,0,0,0-1.438,1.787c-.053.19-.13.372-.194.559a3.183,3.183,0,0,1-1.791,2.005c-2.463,1.11-4.914,2.256-7.324,3.472-2.483,1.251-5.007,2.4-7.542,3.528-1.767.79-3.476,1.717-5.182,2.645a3.429,3.429,0,0,0-1.1,1.041c-.632.879-1.208,1.8-1.763,2.726-3.6,6.016-6.967,12.153-10.191,18.371a107.206,107.206,0,0,0-7.235,17.325c-.219.705-.409,1.418-.563,2.139-.187.9.068,1.284.935,1.519.568.154,1.135.324,1.706.458a120.174,120.174,0,0,0,14.291,2.524c.867.1,1.734.2,2.706.308-.235.324-.4.559-.575.786-1.75,2.284-3.516,4.557-5.258,6.845q-2.346,3.081-4.663,6.182s-.012.012-.012.016h31.427c-.511-2.523-1.045-5.047-1.56-7.571-.283-1.393-.636-2.787-.778-4.2-.186-1.759-.239-3.533-.267-5.3q-.133-8.926-.207-17.852c-.024-3.075-.008-6.149.017-9.22.016-1.916.077-3.832.129-5.752a6.546,6.546,0,0,1,.061-.681c.061-.016.118-.036.182-.048.405.51.851,1,1.216,1.543a48.45,48.45,0,0,0,5.29,6.332,11.766,11.766,0,0,1,.9,1.065c1.884,2.5,3.743,5,5.643,7.478.592.778,1.284,1.478,1.884,2.155a1.994,1.994,0,0,0,1.414-.758c.992-1.053,1.989-2.106,3.005-3.131,1.677-1.685,3.367-3.35,5.056-5.023.445-.446.9-.883,1.426-1.4a23.863,23.863,0,0,0,4.873,8.551,13.3,13.3,0,0,0-.45,1.3c-.733,3.16-1.426,6.324-2.179,9.475-1.147,4.776-2.325,9.544-3.5,14.316-.713,2.908-1.446,5.813-2.179,8.717h2.2q.5-2.163.985-4.326,1.852-8.428,3.69-16.848,1.052-4.788,2.139-9.564a3.723,3.723,0,0,1,.632-1.782c.879-1,1.742-2,2.617-3a.779.779,0,0,1,.4-.295c.8-.1,1.6-.162,2.45-.243a22.386,22.386,0,0,1,.276,2.337,20.441,20.441,0,0,0,.863,4.926q.832,3.087,1.681,6.177a5.05,5.05,0,0,0,.223.567c.279-.064.51-.121.737-.174.032-.166.057-.287.081-.405.559-2.767,1.122-5.533,1.669-8.3a14.846,14.846,0,0,0,.186-1.6c.024-.353,0-.713,0-1.223.746.486,1.353.879,1.949,1.267.012.191.02.337.024.487.089,6.906.2,13.817.263,20.724.037,3.759.012,7.518.012,11.273h54.9c.064-.04.129-.085.194-.129a4.678,4.678,0,0,0,.531-.393,1.136,1.136,0,0,0,.336-1.455,19.818,19.818,0,0,0-1.284-2.4c-.7-1.037-1.475-2.025-2.273-2.993-1.381-1.669-2.8-3.3-4.2-4.946-.134-.162-.256-.337-.4-.531.219-.134.381-.235.551-.332,1.977-1.151,3.974-2.261,5.923-3.456,1.15-.7,2.236-1.51,3.326-2.313a8.577,8.577,0,0,0,1.113-1.069A1.1,1.1,0,0,0,1281.713,2212.245ZM1254.3,2102.868a1.5,1.5,0,0,1-.195-.36c-.255-.746-.494-1.5-.7-2.273.218.523.413,1.053.591,1.592C1254.111,2102.171,1254.208,2102.516,1254.3,2102.868Z"/>
        <path id="Path_1863" data-name="Path 1863" d="M1252.407,2160.3a1.364,1.364,0,0,1,.886,1.818c-.693,3.292-1.226,6.619-1.947,9.905-.757,3.454-1.668,6.874-2.495,10.313a5.618,5.618,0,0,1-.922,1.983q-5.41,7.6-10.8,15.206c-.482.677-1.023,1.313-1.55,1.986a1.607,1.607,0,0,1-1.083-.523,24.2,24.2,0,0,1-1.89-1.856c-1.285-1.487-2.526-3.013-3.772-4.534a37.746,37.746,0,0,0-3.969-4.146c-1.827-1.643-3.61-3.334-5.42-4.995-.559-.513-1.147-1-1.807-1.565.357-.188.641-.361.942-.493,3.671-1.609,7.176-3.546,10.7-5.448a79.277,79.277,0,0,0,8.158-4.873c1.785-1.26,3.515-2.6,5.249-3.931,1.383-1.061,2.766-2.126,4.092-3.256,1.476-1.257,2.91-2.565,4.314-3.9A13.964,13.964,0,0,0,1252.407,2160.3Z" fill="#fff"/>
        <path id="Path_1864" data-name="Path 1864" d="M1209.017,2182.285a10.593,10.593,0,0,1-.881,1.046q-4.937,4.492-9.89,8.965c-.764.693-1.489,1.428-2.255,2.119a21.729,21.729,0,0,0-2.664,3.228c-.352.469-.7.944-1.109,1.5a18.26,18.26,0,0,1-1.57-2.017c-.5-.787-.97-1.6-1.518-2.353-1.535-2.116-2.725-4.438-4.062-6.673-1.135-1.9-2.331-3.757-3.489-5.641q-1.158-1.884-2.283-3.79c-.461-.781-.882-1.586-1.341-2.368a.878.878,0,0,1-.08-.825c1.536-4.251,3.055-8.508,4.589-12.76.147-.408.369-.79.586-1.248.148.142.268.246.376.361,1.957,2.071,3.887,4.17,5.879,6.207,1.3,1.332,2.693,2.58,4.051,3.858a7.182,7.182,0,0,0,.749.6q1.35.965,2.71,1.915a50.609,50.609,0,0,0,6.527,4.006,47.62,47.62,0,0,1,4.173,2.35A9.5,9.5,0,0,1,1209.017,2182.285Z" fill="#fff"/>
        <path id="Path_1865" data-name="Path 1865" d="M1225.5,2232.052c-.086-1.02-.22-2.038-.25-3.059q-.321-11.167-.61-22.336c-.025-.933-.1-1.867-.091-2.8a2.951,2.951,0,0,1,.289-1.269c.805-1.574,1.664-3.122,2.506-4.678.021-.039.074-.061.157-.127.165.151.343.306.512.469q2.065,2,4.131,4a7.757,7.757,0,0,0,2.525,1.617.727.727,0,0,0,.905-.171c.936-.871,1.937-1.679,2.81-2.607,2.088-2.22,4.12-4.491,6.165-6.751.385-.426.722-.9,1.081-1.346l.131.07c-.135.413-.262.83-.407,1.239a143.98,143.98,0,0,1-9.8,22.066c-1.505,2.7-3.125,5.346-4.762,7.972-1.533,2.459-3.158,4.861-4.744,7.287-.1.159-.222.307-.334.46Z" fill="#fff"/>
        <path id="Path_1866" data-name="Path 1866" d="M1224.8,2195.115l-1.832,3.751c-.545-.845-1.04-1.54-1.454-2.279a2,2,0,0,0-1.73-1.062,48.153,48.153,0,0,0-8.755.091c-.17.018-.342.027-.514.033a2.634,2.634,0,0,1-.277-.017c-1.314-1.613-4.011-6.537-4.169-7.668.313-.075.632-.18.959-.226q3.2-.452,6.413-.877a1.7,1.7,0,0,1,.644.058c1.375.362,2.749.729,4.115,1.121a1.293,1.293,0,0,1,.59.4,72.926,72.926,0,0,0,5.839,6.423A1.931,1.931,0,0,1,1224.8,2195.115Z" fill="#b2c1f3"/>
        <path id="Path_1867" data-name="Path 1867" d="M1242.222,2043.687c-1.216-.123-2.366-.211-3.508-.36a25.251,25.251,0,0,0-5.362-.275c-.831.068-1.669.079-2.5.073a10,10,0,0,1-6.1-2.289,1.2,1.2,0,0,1-.653-1.161c.286.086.532.141.763.234.956.386,1.895.817,2.863,1.169a8.345,8.345,0,0,0,3.4.548,29.762,29.762,0,0,1,7.971.591,3.227,3.227,0,0,0-.614-.581,10.974,10.974,0,0,0-1.669-.767,28.725,28.725,0,0,0-7.98-1.654c-.167-.007-.332-.041-.666-.085.282-.156.442-.226.582-.324a6.053,6.053,0,0,0,.992-.741,1.343,1.343,0,0,0,.256-1.747c-.453-.728-.928-1.442-1.395-2.16-.2-.3-.492-.557-.423-1.069a2.948,2.948,0,0,1,.827-.052,21.676,21.676,0,0,1,2.771.721c1.244.455,2.451,1.013,3.661,1.555a8.75,8.75,0,0,1,3.3,2.865c.387.505.7,1.067,1.041,1.607C1240.57,2041.046,1241.359,2042.31,1242.222,2043.687Z" fill="#fff"/>
        <path id="Path_1868" data-name="Path 1868" d="M1240.886,2029.169c.261.228.4.329.51.448a26.456,26.456,0,0,1,5.423,7.754,15.225,15.225,0,0,1,.7,2.014c.308,1.112.568,2.237.837,3.36.2.854.177.874-.717,1.01a6.675,6.675,0,0,1-2.772-.222,1.218,1.218,0,0,1-.811-.658c-.878-1.587-1.825-3.136-2.739-4.7a1.012,1.012,0,0,1-.151-.467c-.01-.981,0-1.962,0-2.943a27.689,27.689,0,0,0-.283-5.073A3.841,3.841,0,0,1,1240.886,2029.169Z" fill="#fff"/>
        <path id="Path_1869" data-name="Path 1869" d="M1246.15,2032.15a4.2,4.2,0,0,1,.808.611,8.715,8.715,0,0,0,1.89,1.505,5.569,5.569,0,0,1,2.126,2.749.9.9,0,0,0,.791.674,7.49,7.49,0,0,0,1.681-.011,12.859,12.859,0,0,1,5.044.071,6.348,6.348,0,0,1,3.73,2.583c.34.464.612.978,1.011,1.624-.281-.108-.392-.137-.489-.19a6.923,6.923,0,0,0-2.769-.684,5.038,5.038,0,0,0-1.649.273c-.4.1-.767.327-1.158.471a3.753,3.753,0,0,1-2.317.146c-.924-.249-1.839-.532-2.764-.778-.494-.131-1-.233-1.5-.314a.686.686,0,0,1-.6-.544c-.3-.933-.642-1.856-.979-2.778a19.032,19.032,0,0,0-2.82-5.066,2.325,2.325,0,0,1-.143-.234Z" fill="#fff"/>
        <path id="Path_1870" data-name="Path 1870" d="M1254.238,2035.558a4.383,4.383,0,0,0-.794.007,1.116,1.116,0,0,1-1.324-.772q-.17-.367-.322-.743a4.168,4.168,0,0,0-1.918-2.157,3.649,3.649,0,0,0-.8-.366,10.952,10.952,0,0,1-3.919-2.273c-.367-.287-.735-.575-1.112-.849a4.964,4.964,0,0,0-2.5-.992,3.88,3.88,0,0,1-.409-.076c0-.087-.024-.143-.005-.175.747-1.24.738-1.215,2.076-.737q1.906.682,3.848,1.262a1.845,1.845,0,0,1,1.027.652c.249.333.538.637.79.968a13.756,13.756,0,0,0,2.723,2.778,4.683,4.683,0,0,1,1.355,1.816,2.7,2.7,0,0,0,1.351,1.494Z" fill="#fff"/>
        <path id="Path_1871" data-name="Path 1871" d="M1249.443,2043.159c-.2-.675-.407-1.348-.594-2.026a26.668,26.668,0,0,0-2.91-7.2l-.5-.8c1.834,1.241,4.314,7.3,4.154,10.008Z" fill="#fff"/>
        <path id="Path_1872" data-name="Path 1872" d="M1243.043,2043a2.5,2.5,0,0,1-1.1-.986c-.372-.688-.732-1.383-1.1-2.071-.233-.43-.484-.851-.718-1.28-.084-.154-.144-.322-.272-.613A14.829,14.829,0,0,1,1243.043,2043Z" fill="#fff"/>
        <path id="Path_1873" data-name="Path 1873" d="M1211.8,2082.751a2.437,2.437,0,0,1,.226-.275,44.249,44.249,0,0,1,6.623-5.149,6.247,6.247,0,0,1,2.29-.726,19.226,19.226,0,0,1,6.309.057c1.458.207,2.909.464,4.361.706a4.43,4.43,0,0,1,2.836,1.7c.327.414.677.811,1.016,1.215l.159-.1q-.3-.607-.6-1.214a9.532,9.532,0,0,1-.447-.927.522.522,0,0,1,.06-.466.583.583,0,0,1,.524-.061,5.862,5.862,0,0,1,1.161.879c.439.457.8.988,1.272,1.584a1.9,1.9,0,0,0-.478-1.115c-.16-.247-.373-.46-.521-.712-.063-.107-.081-.337-.014-.4a.583.583,0,0,1,.449-.133.877.877,0,0,1,.421.264c.561.55,1.137,1.089,1.653,1.679a8.12,8.12,0,0,1,.747,1.175,1.386,1.386,0,0,0,.426.522l-.063-1.161a5.334,5.334,0,0,1,.966,2.87c.018.316.042.632.078.947s.086.6-.291.733a.8.8,0,0,1-.971-.3c-.387-.6-.768-1.2-1.154-1.794-.05-.077-.119-.143-.3-.353.137.544.234.916.323,1.29.154.643.017.8-.652.748a38.777,38.777,0,0,1-5.887-.936c-2.079-.492-4.181-.884-6.275-1.306a10.126,10.126,0,0,0-3.156-.041c-1.512.171-3.03.29-4.543.459-1.073.12-2.14.3-3.212.428-.828.1-1.66.173-2.492.24C1212.333,2083.1,1212,2083.131,1211.8,2082.751Z"/>
        <path id="Path_1874" data-name="Path 1874" d="M1179.321,2103.081l-.574-.92c-.225.307-.406.522-.55.76a2.955,2.955,0,0,1-1.37,1.19,2.171,2.171,0,0,1-.854.185c-.633,0-.842-.283-.715-.894a3.523,3.523,0,0,1,.191-.634,3.94,3.94,0,0,0,.012-2.464.647.647,0,0,0-.28-.4c-.41-.2-.846-.343-1.251-.5-.821,1.341-1.582,2.6-2.363,3.847a2.439,2.439,0,0,1-.613.715c-.472.334-.871.117-.9-.457-.072-1.472-.144-2.945-.194-4.418a3.72,3.72,0,0,1,2.2-3.07,5.2,5.2,0,0,1,3.47-.174c.584.185,1.15.427,1.716.661a3.4,3.4,0,0,1,1.495,1.276c.722,1.054,1.442,2.111,2.142,3.18a37.161,37.161,0,0,1,2.446,5.274,3.9,3.9,0,0,1,.205,2.641,5.9,5.9,0,0,0,1.454,5.332,6.744,6.744,0,0,1,1.471,2.355,1.527,1.527,0,0,1-.056,1.214,6.326,6.326,0,0,1-2.451,2.8c-.056-.3-.129-.57-.153-.844-.121-1.394-.238-2.789-.34-4.184a2.333,2.333,0,0,0-.777-1.823,3.005,3.005,0,0,1-.963-2.17,9.347,9.347,0,0,1,.226-2.929c.054-.233.1-.467.166-.775-.558.3-1.031.59-1.53.821a15.258,15.258,0,0,1-1.507.584,1.042,1.042,0,0,0-.709.582,6.675,6.675,0,0,0-.631,2.93,2.187,2.187,0,0,0,1.178,2.062,2.814,2.814,0,0,1,.548.372c.322.273.4.564.22.836a.658.658,0,0,1-.827.309,3.145,3.145,0,0,1-.941-.551,6.862,6.862,0,0,1-.755-9.681C1177.911,2105.152,1178.581,2104.124,1179.321,2103.081Z"/>
        <path id="Path_1875" data-name="Path 1875" d="M1235.432,2086.948a3.24,3.24,0,0,0-2.564-1.385c-1.005-.049-2.009-.1-3.014-.174a37.14,37.14,0,0,0-6.473.073,7.531,7.531,0,0,0-2.22.482c-.677.291-1.333.628-1.985.976-.519.275-1.033.559-1.547.838a2.188,2.188,0,0,0-.977,1.248c-.089.255-.178.511-.279.762-.28.721-.178.976.514,1.357a11.074,11.074,0,0,0,2.22.9c.644.194,1.3.344,1.953.49a22.49,22.49,0,0,0,9.284.276c.766-.154,1.515-.405,2.265-.636.206-.061.5-.118.4-.551-.535.166-1.045.36-1.576.474a10.407,10.407,0,0,1-1.75.235c-.527.016-1.1.247-1.56-.061.328-1.442.636-2.795.944-4.164a2.571,2.571,0,0,1,2.6.984,27.758,27.758,0,0,0,1.9,2.094c.814-.5.85-.636.409-1.3-.057-.081-.118-.158-.174-.239-.689-.944-1.378-1.888-2.087-2.868a1.981,1.981,0,0,1,2.006.6c.324.4.7.753,1.045,1.134a1.153,1.153,0,0,0,1.693.19A4.531,4.531,0,0,0,1235.432,2086.948Zm-15.3,4.521c-.369-.109-.737-.223-1.11-.332q-.613-.189-1.227-.373c.287-.98.571-1.47,1.207-1.721a3.416,3.416,0,0,1,.956-.211,4.694,4.694,0,0,0,.3,2.495C1220.209,2091.376,1220.168,2091.42,1220.128,2091.469Z"/>
        <path id="Path_1876" data-name="Path 1876" d="M1257.808,2127.263l-.062-.787c.889-.151,1.483.437,1.635,1.642a1.681,1.681,0,0,1-.377.138,16.234,16.234,0,0,1-5.063.129c-.7-.133-1.385-.321-2.084-.448a9.061,9.061,0,0,0-3.943.19,6.4,6.4,0,0,1-3.845-.127,7.616,7.616,0,0,0-1.728-.346,65.976,65.976,0,0,0-10.314-.159c-1.595.078-3.189.193-4.785.253a9.823,9.823,0,0,1-1.683-.123,1.192,1.192,0,0,1-.556-.307.323.323,0,0,1,0-.517,4.314,4.314,0,0,1,2.878-1.474c.044,0,.088.037.216.093l-.6,1.28a5.918,5.918,0,0,0,1.944-.035c2.345-.532,4.679-1.114,7.033-1.6a36.041,36.041,0,0,1,5.649-1.007,8.406,8.406,0,0,1,4.294.821,3.923,3.923,0,0,0,2.642.31c.939-.178,1.88-.353,2.825-.5a3.058,3.058,0,0,1,2.67.967c.41.389.818.78,1.234,1.162A2,2,0,0,0,1257.808,2127.263Z"/>
        <path id="Path_1877" data-name="Path 1877" d="M1264.943,2092.056c-.086-.66-.11-1.328-.243-1.972-.114-.567-.154-1.216-.677-1.588a5.361,5.361,0,0,0-1.653-.936,25.238,25.238,0,0,0-6.927-.859,2.4,2.4,0,0,0-1.677.636c-.6.571-1.183,1.159-1.766,1.75-.02.02-.04.045-.061.065a.257.257,0,0,0-.056.146c-.017.073-.033.174-.069.308a7.424,7.424,0,0,0,.7-.28c.32-.178.632-.381.944-.571a2.032,2.032,0,0,1,1.28-.288c-.36.324-.769.543-1.134.827a22.588,22.588,0,0,0-1.73,1.474,1.8,1.8,0,0,0-.469,1.633c.486-.183.911-.349,1.413-.543a1.955,1.955,0,0,0,1.714,1.454c.121.016.239.057.356.081a32.1,32.1,0,0,0,5.505.389,10.8,10.8,0,0,0,4.124-.984A.621.621,0,0,0,1264.943,2092.056Zm-5.425,1.066a6.321,6.321,0,0,0,.122-4.813,5.245,5.245,0,0,1,2.487.827,1.379,1.379,0,0,1,.4.765c.162.839.268,1.69.4,2.56A5.424,5.424,0,0,1,1259.518,2093.122Z"/>
        <path id="Path_1878" data-name="Path 1878" d="M1254,2112.3a5.882,5.882,0,0,1-.663,0,1.6,1.6,0,0,0-1.089.337c-.637.412-1.313.765-1.977,1.135a1.521,1.521,0,0,1-1.416.076c-.966-.424-1.943-.826-2.891-1.285a3.471,3.471,0,0,0-1.555-.369c-.982,0-1.965-.023-2.946-.062a14.444,14.444,0,0,0-3.516.261,1.353,1.353,0,0,1-.436.045.44.44,0,0,1-.32-.711,1.191,1.191,0,0,1,.31-.31,10.873,10.873,0,0,1,4.885-1.923,7.733,7.733,0,0,1,5.192,1.5c.475.3.934.635,1.433.893a1.724,1.724,0,0,0,1.76-.021c.9-.542,1.817-1.071,2.707-1.635a1.852,1.852,0,0,1,2.478.189c.182.165.364.331.53.511.515.558.44.868-.31,1.084a11.663,11.663,0,0,1-1.514.284,4.433,4.433,0,0,1-.662.006Z"/>
        <path id="Path_1879" data-name="Path 1879" d="M1236.925,2105.624c-.063.2-.114.412-.194.608-.111.273-.239.539-.368.8a3.207,3.207,0,0,0-.089,2.781c.11.258.17.536.277.882-.717-.1-.8-.659-1.154-1.112-.567.064-1.2.114-1.818.217a1.118,1.118,0,0,0-.481.32q-4.072,3.69-8.136,7.388c-.829.754-1.653,1.513-2.551,2.2.131-.164.254-.336.4-.491,3.17-3.465,6.3-6.97,9.535-10.371a37.517,37.517,0,0,1,3.8-3.149,2.309,2.309,0,0,1,.633-.251Z"/>
        <path id="Path_1880" data-name="Path 1880" d="M1171.937,2108.086c0-.737,0-1.474,0-2.211a3.508,3.508,0,0,1,.057-.586.451.451,0,0,1,.445-.414.435.435,0,0,1,.486.363,8.628,8.628,0,0,1,.155,1.384c.02,1.08.008,2.161,0,3.241a9.526,9.526,0,0,0,.527,3.038,4.651,4.651,0,0,0,.535,1.042,17.272,17.272,0,0,0,3.111,3.531,10.416,10.416,0,0,1,.9.874.6.6,0,0,1,.072.863c-.212.223-.525.228-.857-.059a20.461,20.461,0,0,1-4.8-5.544,4.368,4.368,0,0,1-.407-1.627c-.13-1.293-.191-2.593-.28-3.891Z"/>
      </g>
      <path id="Path_1881" data-name="Path 1881" d="M1267.624,2108.387a43.03,43.03,0,0,0-1.847-9,8.331,8.331,0,0,1-.132-4.931c.157-.541.273-1.1.479-1.623.028-.071.056-.144.08-.215a42.745,42.745,0,0,0,1.211-5.45c.013-.062-.033-.139-.064-.262-.492-.159-1-.338-1.519-.491a24.118,24.118,0,0,0-5.318-1.162c-2.133-.139-4.267-.262-6.4-.409a.977.977,0,0,0-1.017.547c-.92,1.568-1.845,3.132-2.81,4.672a1.743,1.743,0,0,0-.145,1.808l.277.569c.274.559.56,1.116.849,1.666.768,1.457,1.58,2.889,2.311,4.362a20.1,20.1,0,0,1,1.347,3.575q.216.765.39,1.543c.095.418.184.839.267,1.26.053.262.117.581-.249.671s-.439-.219-.507-.486c-.024-.095-.04-.194-.064-.286-.252-.974-.452-1.964-.766-2.917a34.4,34.4,0,0,0-3.049-6.456c-.554-.956-1.131-1.9-1.651-2.877a3.214,3.214,0,0,1-.267-2.453c.024-.083.049-.166.076-.249a22.187,22.187,0,0,1,1.528-3.67,11.42,11.42,0,0,1,.793-1.236.73.73,0,0,0,.145-.578,1.039,1.039,0,0,1-.083-.467,1.269,1.269,0,0,1,.181-.594c.431-.762.861-1.521,1.316-2.271.144-.237.289-.474.439-.71a1.88,1.88,0,0,1,1.132-.717,2.374,2.374,0,0,0-.7,1.51v.04c.012-.013.024-.028.037-.04.51-.557.95-1.092,1.448-1.565a2.378,2.378,0,0,1,1.979-.858c-.362.474-.661.858-.959,1.245a25.676,25.676,0,0,1,2.45-.931.482.482,0,0,1-.141.633,2.641,2.641,0,0,0-.237.206c-.2.218-.4.434-.6.652a.482.482,0,0,0,.408-.04c.434-.222.864-.452,1.3-.676.286-.148.575-.293.867-.428a2.726,2.726,0,0,1,1.054-.276,9.742,9.742,0,0,1,1.823.144,9.885,9.885,0,0,1,3.907,1.027c-.1-1.337-.181-2.536-.267-3.735-.157-2.155-.317-4.31-.462-6.465-.086-1.248-.076-2.508-.236-3.747a20.136,20.136,0,0,0-1.411-5.251,40.7,40.7,0,0,0-4.172-7.279,17.53,17.53,0,0,0-1.749-1.986c-.5-.535-1.067-1.014-1.586-1.534-.486-.485-.938-1.005-1.426-1.487a8.356,8.356,0,0,0-3.557-2.146,4.136,4.136,0,0,0-1.866-.12,52.293,52.293,0,0,1-6.3.765c-.19.007-.384.013-.575.013-1.62.012-3.24.037-4.86.04-1.352,0-2.7.034-4.051-.037a30.731,30.731,0,0,1-8.309-1.556c-1.836-.624-3.625-1.386-5.444-2.059a29.414,29.414,0,0,0-5.8-1.359,16.446,16.446,0,0,0-9.37,1.208,3.5,3.5,0,0,0-1.22.91c-1.362,1.617-2.711,3.246-3.993,4.925a123.158,123.158,0,0,0-7.55,11.361,1.143,1.143,0,0,0-.009,1.445c1.66,2.407,3.277,4.842,4.937,7.252a2.514,2.514,0,0,0,.827.7c.74.433,1.518.808,2.265,1.229.477.271.52.384.329.9a11.552,11.552,0,0,1-.686,1.546,47.26,47.26,0,0,1-3.35,5.2c-1.4,1.928-2.748,3.9-4.1,5.859a2.378,2.378,0,0,0-.412,1.006c-.135,1.088-.273,2.173-.406,3.261-.224,1.842-.439,3.683-.617,5.527-.265,2.715-.422,5.441-.637,8.159-.052.676-.157,1.349-.24,2.062a4.846,4.846,0,0,1-.507-.123c-1.961-.737-1.69-.282-2.736-2.453-.725-1.5-1.5-2.981-2.268-4.466-.326-.633-.677-1.254-1.033-1.869a2.4,2.4,0,0,0-.52-.7,8.719,8.719,0,0,0-1.527-1.027c-1.728-.827-3.483-1.586-5.223-2.394a2.549,2.549,0,0,0-2.7.3c-.1.064-.13.215-.228.39.326.04.566.065.806.1.534.061,1.075.1,1.607.193a18.32,18.32,0,0,1,6.1,2.509,3.439,3.439,0,0,1,1.325,1.5c-.747.28-.968.28-1.4-.083a11.861,11.861,0,0,0-5.358-2.49,27.224,27.224,0,0,0-5.127-.5,1.482,1.482,0,0,0-1.3.682,4.827,4.827,0,0,0-.268.44,32.238,32.238,0,0,0-2.21,4.82c-.117.31-.218.621-.3.931a6.441,6.441,0,0,0-.062,3.452c.031.123.071.249.114.372.547,1.577,1.162,3.133,1.666,4.722.95,2.985,2.4,5.752,3.612,8.623.037.092.092.175.129.264a6.4,6.4,0,0,0,2.49,2.834,53.03,53.03,0,0,1,6.388,4.989c.572.538,1.193,1.024,1.8,1.525a2.259,2.259,0,0,0,2.567.151,2,2,0,0,0,1.07-1.881c.113-1.421.264-2.838.39-4.255a2.477,2.477,0,0,0-.046-.658,53.542,53.542,0,0,0-2.017-8.53,2.742,2.742,0,0,1-.138-.72c-.021-.236.126-.356.36-.365a.829.829,0,0,1,.876.544c.227.568.406,1.162.67,1.715a39.744,39.744,0,0,1,2.244,6.625c1.525,5.521,3.034,11.048,4.571,16.566a5.133,5.133,0,0,0,2.044,2.886,33.629,33.629,0,0,0,8.033,4.144c2.791,1,5.628,1.875,8.447,2.8,1.184.388,2.367.793,3.566,1.144,3.292.965,6.585,1.933,9.892,2.846,1.915.526,3.855.978,5.8,1.4a30.1,30.1,0,0,0,7.808.938c1.288-.065,2.576-.16,3.861-.271.526-.043,1.048-.089,1.574-.138,2.468-.231,4.94-.474,7.4-.772a6.769,6.769,0,0,0,2.33-.615,6.3,6.3,0,0,0,2.825-3,64.441,64.441,0,0,0,3.142-7.863c1.156-3.806,2.385-7.593,3.384-11.442.987-3.8,1.719-7.666,2.361-11.546A34.1,34.1,0,0,0,1267.624,2108.387Zm-89.4,10.823c-.212.225-.525.228-.857-.058a20.479,20.479,0,0,1-4.8-5.542,4.367,4.367,0,0,1-.409-1.63c-.129-1.291-.19-2.591-.279-3.888.021,0,.043,0,.061-.007,0-.737,0-1.472,0-2.21a3.739,3.739,0,0,1,.059-.587.449.449,0,0,1,.445-.412.433.433,0,0,1,.486.363,8.829,8.829,0,0,1,.154,1.383c.021,1.079.009,2.161,0,3.24a9.5,9.5,0,0,0,.528,3.037,4.5,4.5,0,0,0,.535,1.046,17.229,17.229,0,0,0,3.111,3.529,9.841,9.841,0,0,1,.9.876A.6.6,0,0,1,1178.222,2119.21Zm8.236-2.649a1.523,1.523,0,0,1-.056,1.214,6.325,6.325,0,0,1-2.45,2.8c-.055-.3-.129-.571-.153-.845-.12-1.393-.237-2.788-.341-4.184a2.327,2.327,0,0,0-.775-1.823,3.007,3.007,0,0,1-.965-2.17,9.4,9.4,0,0,1,.227-2.929c.055-.234.1-.468.166-.775-.556.3-1.03.59-1.531.821a14.5,14.5,0,0,1-1.506.584,1.045,1.045,0,0,0-.71.581,6.666,6.666,0,0,0-.63,2.929,2.188,2.188,0,0,0,1.177,2.063,2.722,2.722,0,0,1,.547.372c.323.273.4.565.222.836a.655.655,0,0,1-.827.31,3.154,3.154,0,0,1-.941-.55,6.866,6.866,0,0,1-.756-9.683c.756-.962,1.426-1.992,2.164-3.034-.2-.323-.354-.566-.572-.919-.224.307-.406.522-.55.759a2.947,2.947,0,0,1-1.371,1.19,2.165,2.165,0,0,1-.855.184c-.633,0-.842-.283-.713-.891a3.228,3.228,0,0,1,.191-.637,3.941,3.941,0,0,0,.012-2.462.661.661,0,0,0-.28-.4c-.412-.2-.848-.344-1.251-.5-.821,1.344-1.583,2.6-2.364,3.849a2.508,2.508,0,0,1-.612.716c-.473.332-.873.117-.9-.458-.071-1.472-.145-2.945-.194-4.417a3.722,3.722,0,0,1,2.2-3.071,5.22,5.22,0,0,1,3.471-.175c.584.184,1.149.427,1.715.664a3.374,3.374,0,0,1,1.5,1.275c.719,1.055,1.442,2.109,2.139,3.179a36.891,36.891,0,0,1,2.447,5.275,3.9,3.9,0,0,1,.206,2.641,5.9,5.9,0,0,0,1.454,5.33A6.759,6.759,0,0,1,1186.458,2116.561Zm68.428-23.169c-.12-.022-.237-.062-.36-.08a1.943,1.943,0,0,1-1.682-1.368.815.815,0,0,1-.03-.086c-.228.089-.44.169-.649.252-.252.095-.5.19-.765.292l-.01-.083a1.763,1.763,0,0,1,.48-1.549,21.759,21.759,0,0,1,1.731-1.476c.362-.283.774-.5,1.134-.827a2,2,0,0,0-1.279.289c-.313.188-.624.39-.947.569a7.224,7.224,0,0,1-.694.283c.067-.253.061-.388.126-.455.6-.612,1.2-1.224,1.826-1.817a2.4,2.4,0,0,1,1.678-.633,25.141,25.141,0,0,1,6.926.857,5.424,5.424,0,0,1,1.654.935,2.3,2.3,0,0,1,.676,1.589c.12.59.151,1.2.221,1.8.006.056.016.111.022.166a.768.768,0,0,1-.028.372.646.646,0,0,1-.4.372,14.834,14.834,0,0,1-2.48.806,7.885,7.885,0,0,1-1.645.178A31.773,31.773,0,0,1,1254.886,2093.392Zm-19.029-4.442a1.1,1.1,0,0,1-1.088-.446c-.347-.381-.722-.738-1.048-1.134a1.975,1.975,0,0,0-2-.6c.252.347.5.692.75,1.033.452.618.894,1.227,1.337,1.835.058.08.117.157.172.24.443.658.406.8-.406,1.294a27.255,27.255,0,0,1-1.9-2.093,2.566,2.566,0,0,0-2.6-.984c-.142.633-.286,1.263-.431,1.9-.165.738-.335,1.485-.51,2.259.458.308,1.03.077,1.559.062a9.976,9.976,0,0,0,1.749-.237,8.344,8.344,0,0,0,.845-.237c.24-.077.483-.156.732-.233.095.43-.194.488-.4.55a23.338,23.338,0,0,1-2.265.633q-.844.167-1.688.255c-.243.028-.483.046-.726.065a24.226,24.226,0,0,1-6.87-.593,15.244,15.244,0,0,1-4.171-1.393c-.695-.381-.8-.636-.514-1.359,0-.012.009-.021.012-.033.1-.24.182-.483.268-.726a2.158,2.158,0,0,1,.974-1.251c1.169-.627,2.321-1.291,3.532-1.814a7.685,7.685,0,0,1,2.22-.482,37.227,37.227,0,0,1,6.474-.074q1.508.107,3.015.175a3.232,3.232,0,0,1,2.561,1.386,4.568,4.568,0,0,1,1.033,1.747A1.822,1.822,0,0,1,1235.857,2088.95Zm-13.052,30.273c3.169-3.465,6.3-6.969,9.536-10.372a37.464,37.464,0,0,1,3.8-3.148,2.429,2.429,0,0,1,.633-.252c.05.058.1.117.151.172-.061.2-.114.412-.194.609-.11.273-.239.538-.368.805a3.205,3.205,0,0,0-.087,2.779c.108.258.17.538.277.882-.719-.1-.8-.657-1.156-1.112-.565.064-1.2.116-1.816.218a1.107,1.107,0,0,0-.483.32q-4.071,3.688-8.134,7.386c-.83.757-1.654,1.516-2.551,2.205C1222.541,2119.549,1222.664,2119.376,1222.805,2119.223Zm33.15-8.81c.182.166.363.332.529.51.517.559.44.87-.31,1.085l-.077.021a12.284,12.284,0,0,1-1.436.262,4.33,4.33,0,0,1-.664.006,6.093,6.093,0,0,1-.661-.006,1.612,1.612,0,0,0-1.091.338c-.636.412-1.309.765-1.973,1.134a1.525,1.525,0,0,1-1.418.077c-.018-.006-.033-.015-.052-.021-.947-.418-1.909-.815-2.84-1.264a3.463,3.463,0,0,0-1.553-.369q-1.475,0-2.948-.061a14.364,14.364,0,0,0-3.516.261,1.361,1.361,0,0,1-.434.043.438.438,0,0,1-.319-.71,1.161,1.161,0,0,1,.307-.31,10.88,10.88,0,0,1,4.885-1.922,7.712,7.712,0,0,1,5.192,1.5c.476.3.934.637,1.432.892a1.728,1.728,0,0,0,1.761-.019c.9-.544,1.817-1.072,2.709-1.635A1.845,1.845,0,0,1,1255.955,2110.413Zm-43.934-27.937a44.4,44.4,0,0,1,6.622-5.149,6.315,6.315,0,0,1,2.29-.726,19.231,19.231,0,0,1,6.311.056c1.457.209,2.908.464,4.362.707a4.42,4.42,0,0,1,2.834,1.7c.326.415.677.811,1.015,1.217.055-.034.107-.068.16-.1q-.3-.609-.6-1.215a9.44,9.44,0,0,1-.446-.928c-.049-.135-.03-.4.062-.464a.569.569,0,0,1,.522-.062,6.674,6.674,0,0,1,.907.643,3.115,3.115,0,0,1,.252.236c.172.182.335.372.495.575s.323.418.5.646c.089.117.182.24.28.363a1.355,1.355,0,0,0-.16-.631,2.5,2.5,0,0,0-.166-.267c-.052-.074-.1-.145-.15-.218-.16-.246-.372-.458-.523-.71-.062-.108-.08-.339-.012-.4a.583.583,0,0,1,.448-.132.869.869,0,0,1,.422.264c.285.283.578.563.863.845.173.17.342.342.505.52q.147.151.285.314a8.171,8.171,0,0,1,.747,1.174,1.4,1.4,0,0,0,.425.522c-.019-.35-.037-.7-.065-1.162a5.335,5.335,0,0,1,.968,2.872c.019.316.043.633.077.946s.086.6-.289.732a.8.8,0,0,1-.971-.3c-.387-.6-.769-1.2-1.156-1.792a3.9,3.9,0,0,0-.3-.354c.135.544.234.916.323,1.288.153.646.015.8-.652.75a39.086,39.086,0,0,1-5.89-.937c-2.078-.492-4.177-.886-6.274-1.307a9.891,9.891,0,0,0-2.985-.058h0l-.166.018c-1.512.172-3.031.289-4.543.458-1.073.12-2.14.3-3.213.427-.83.1-1.66.176-2.493.243-.31.025-.642.05-.848-.329A2.582,2.582,0,0,1,1212.021,2082.476Zm42.775,57.032a.5.5,0,0,1-.116.36c-.089.068-.317.012-.458-.049-1.058-.458-2.109-.935-3.157-1.408a7.736,7.736,0,0,0-1.608-.523,10.64,10.64,0,0,0-4.1.016c-2.607.464-5.192,1.057-7.789,1.583a1.948,1.948,0,0,1-.852.015c-.212-.052-.317-.178-.314-.338a.555.555,0,0,1,.1-.3,6.878,6.878,0,0,1,.495-.643,33.241,33.241,0,0,1,4.045-4.371,5.089,5.089,0,0,1,2.878-1.334h0a4.772,4.772,0,0,1,.562-.018h.08c.028,0,.052,0,.08,0,.759.036,1.522.006,2.579.006.956.037,2.207.074,3.458.132a6.6,6.6,0,0,1,1.015.16,1.8,1.8,0,0,1,1.475,1.272c.249.766.523,1.525.79,2.284.163.468.326.935.477,1.4a12.261,12.261,0,0,1,.35,1.642.4.4,0,0,1,.006.086Zm3.7-11.186a14.642,14.642,0,0,1-4.559.064c-.7-.135-1.386-.322-2.084-.448-.059-.01-.114-.022-.172-.028a9.092,9.092,0,0,0-3.772.218,6.419,6.419,0,0,1-3.846-.129,7.53,7.53,0,0,0-1.727-.344,66.006,66.006,0,0,0-10.314-.16c-.688.034-1.374.074-2.063.114-.906.052-1.813.1-2.723.138-.2.006-.4,0-.6-.006-.362-.022-.722-.068-1.082-.117a1.043,1.043,0,0,1-.473-.237l-.083-.07a.323.323,0,0,1,0-.517,4.326,4.326,0,0,1,2.825-1.469h0a.254.254,0,0,1,.049,0c.046,0,.089.037.218.092-.184.393-.368.784-.577,1.236-.007.015-.016.03-.022.046a5.955,5.955,0,0,0,1.946-.037c2.345-.532,4.679-1.116,7.03-1.6a36.3,36.3,0,0,1,5.65-1.008,8.412,8.412,0,0,1,4.3.821,3.922,3.922,0,0,0,2.64.31c.941-.178,1.882-.353,2.828-.5a3.065,3.065,0,0,1,2.669.969c.319.3.636.608.959.906.089.086.181.173.273.256a2,2,0,0,0,1.934.47.842.842,0,0,0,.089-.022c-.021-.27-.043-.528-.065-.787a1.271,1.271,0,0,1,.784.09.888.888,0,1,1,.477,1.69l-.5.065Z" fill="#eaae87"/>
      <path id="Path_1882" data-name="Path 1882" d="M1250.779,2155.788q-.033,1.881-.083,3.76a2.4,2.4,0,0,1-.843,1.666,61.3,61.3,0,0,1-7.451,6.477c-1.328.928-2.607,1.93-3.9,2.9a85.691,85.691,0,0,1-10.289,6.329c-3.206,1.762-6.464,3.419-9.76,5q-1.4.672-2.809,1.331a7.653,7.653,0,0,0-1.249.836,1.123,1.123,0,0,1-.089.071c-.627.467-.805.464-1.248-.148-.267-.369-.544-.725-.83-1.073a19.956,19.956,0,0,0-4.808-4.264c-2.348-1.481-4.629-3.064-6.953-4.583a1.218,1.218,0,0,1-.578-.876q-1.336-7.512-2.69-15.017c-.362-2.032-.731-4.063-1.094-6.092-.028-.142-.04-.286-.074-.529.48.261.9.449,1.279.7a55.041,55.041,0,0,0,8.832,4.709q3.975,1.743,7.786,3.794,3.284,1.757,6.462,3.7c.114.07.227.138.341.209a.974.974,0,0,0,.753.15,1.38,1.38,0,0,0,.268-.07,39.182,39.182,0,0,0,4.681-2.152,94.542,94.542,0,0,1,12.3-4.728,56.418,56.418,0,0,1,8.4-1.912c.919-.157,1.832-.354,2.748-.526.261-.052.529-.08.827-.123A2.557,2.557,0,0,1,1250.779,2155.788Z" fill="#eaae87"/>
      <path id="Path_1883" data-name="Path 1883" d="M1220.247,2091.326c-.039.049-.079.095-.119.144-.778-.236-1.559-.473-2.337-.707.4-1.371.8-1.78,2.161-1.93A4.712,4.712,0,0,0,1220.247,2091.326Z" fill="#eaae87"/>
      <path id="Path_1884" data-name="Path 1884" d="M1262.924,2092.463a5.435,5.435,0,0,1-3.406.658,6.365,6.365,0,0,0,.123-4.811,5.242,5.242,0,0,1,2.487.827,1.381,1.381,0,0,1,.4.766c.061.319.116.642.166.965C1262.771,2091.394,1262.841,2091.922,1262.924,2092.463Z" fill="#eaae87"/>
      <g id="Group_1911" data-name="Group 1911">
        <path id="Path_1885" data-name="Path 1885" d="M1219.952,2088.833c-1.361.15-1.761.559-2.161,1.93.778.234,1.559.471,2.337.707.04-.049.08-.095.119-.144A4.712,4.712,0,0,1,1219.952,2088.833Zm6.877-.56a1.723,1.723,0,0,0-.357-.052c-.448.009-.716.151-.768.406-.077.378.221.5.479.63a1.923,1.923,0,0,0,.336.132c.427.114.7.019.8-.267A.694.694,0,0,0,1226.829,2088.273Zm0,0a1.723,1.723,0,0,0-.357-.052c-.448.009-.716.151-.768.406-.077.378.221.5.479.63a1.923,1.923,0,0,0,.336.132c.427.114.7.019.8-.267A.694.694,0,0,0,1226.829,2088.273Zm-6.877.56c-1.361.15-1.761.559-2.161,1.93.778.234,1.559.471,2.337.707.04-.049.08-.095.119-.144A4.712,4.712,0,0,1,1219.952,2088.833Zm0,0c-1.361.15-1.761.559-2.161,1.93.778.234,1.559.471,2.337.707.04-.049.08-.095.119-.144A4.712,4.712,0,0,1,1219.952,2088.833Zm6.877-.56a1.723,1.723,0,0,0-.357-.052c-.448.009-.716.151-.768.406-.077.378.221.5.479.63a1.923,1.923,0,0,0,.336.132c.427.114.7.019.8-.267A.694.694,0,0,0,1226.829,2088.273Zm0,0a1.723,1.723,0,0,0-.357-.052c-.448.009-.716.151-.768.406-.077.378.221.5.479.63a1.923,1.923,0,0,0,.336.132c.427.114.7.019.8-.267A.694.694,0,0,0,1226.829,2088.273Zm-6.877.56c-1.361.15-1.761.559-2.161,1.93.778.234,1.559.471,2.337.707.04-.049.08-.095.119-.144A4.712,4.712,0,0,1,1219.952,2088.833Zm0,0c-1.361.15-1.761.559-2.161,1.93.778.234,1.559.471,2.337.707.04-.049.08-.095.119-.144A4.712,4.712,0,0,1,1219.952,2088.833Zm6.877-.56a1.723,1.723,0,0,0-.357-.052c-.448.009-.716.151-.768.406-.077.378.221.5.479.63a1.923,1.923,0,0,0,.336.132c.427.114.7.019.8-.267A.694.694,0,0,0,1226.829,2088.273Zm0,0a1.723,1.723,0,0,0-.357-.052c-.448.009-.716.151-.768.406-.077.378.221.5.479.63a1.923,1.923,0,0,0,.336.132c.427.114.7.019.8-.267A.694.694,0,0,0,1226.829,2088.273Zm-6.877.56c-1.361.15-1.761.559-2.161,1.93.778.234,1.559.471,2.337.707.04-.049.08-.095.119-.144A4.712,4.712,0,0,1,1219.952,2088.833Zm0,0c-1.361.15-1.761.559-2.161,1.93.778.234,1.559.471,2.337.707.04-.049.08-.095.119-.144A4.712,4.712,0,0,1,1219.952,2088.833Zm6.877-.56a1.723,1.723,0,0,0-.357-.052c-.448.009-.716.151-.768.406-.077.378.221.5.479.63a1.923,1.923,0,0,0,.336.132c.427.114.7.019.8-.267A.694.694,0,0,0,1226.829,2088.273Zm27.832,49.646a4.213,4.213,0,0,1-.5-1.254.56.56,0,0,0-.194-.3c.163.468.326.935.477,1.4a12.261,12.261,0,0,1,.35,1.642.4.4,0,0,1,.006.086v.012a.1.1,0,0,0,.028-.015.239.239,0,0,0,.055-.031A3.857,3.857,0,0,0,1254.661,2137.919Zm-27.832-49.646a1.723,1.723,0,0,0-.357-.052c-.448.009-.716.151-.768.406-.077.378.221.5.479.63a1.923,1.923,0,0,0,.336.132c.427.114.7.019.8-.267A.694.694,0,0,0,1226.829,2088.273Zm-6.877.56c-1.361.15-1.761.559-2.161,1.93.778.234,1.559.471,2.337.707.04-.049.08-.095.119-.144A4.712,4.712,0,0,1,1219.952,2088.833Zm0,0c-1.361.15-1.761.559-2.161,1.93.778.234,1.559.471,2.337.707.04-.049.08-.095.119-.144A4.712,4.712,0,0,1,1219.952,2088.833Zm6.877-.56a1.723,1.723,0,0,0-.357-.052c-.448.009-.716.151-.768.406-.077.378.221.5.479.63a1.923,1.923,0,0,0,.336.132c.427.114.7.019.8-.267A.694.694,0,0,0,1226.829,2088.273Zm0,0a1.723,1.723,0,0,0-.357-.052c-.448.009-.716.151-.768.406-.077.378.221.5.479.63a1.923,1.923,0,0,0,.336.132c.427.114.7.019.8-.267A.694.694,0,0,0,1226.829,2088.273Zm-6.877.56c-1.361.15-1.761.559-2.161,1.93.778.234,1.559.471,2.337.707.04-.049.08-.095.119-.144A4.712,4.712,0,0,1,1219.952,2088.833Zm0,0c-1.361.15-1.761.559-2.161,1.93.778.234,1.559.471,2.337.707.04-.049.08-.095.119-.144A4.712,4.712,0,0,1,1219.952,2088.833Zm6.877-.56a1.723,1.723,0,0,0-.357-.052c-.448.009-.716.151-.768.406-.077.378.221.5.479.63a1.923,1.923,0,0,0,.336.132c.427.114.7.019.8-.267A.694.694,0,0,0,1226.829,2088.273Zm0,0a1.723,1.723,0,0,0-.357-.052c-.448.009-.716.151-.768.406-.077.378.221.5.479.63a1.923,1.923,0,0,0,.336.132c.427.114.7.019.8-.267A.694.694,0,0,0,1226.829,2088.273Zm-6.877.56c-1.361.15-1.761.559-2.161,1.93.778.234,1.559.471,2.337.707.04-.049.08-.095.119-.144A4.712,4.712,0,0,1,1219.952,2088.833Zm0,0c-1.361.15-1.761.559-2.161,1.93.778.234,1.559.471,2.337.707.04-.049.08-.095.119-.144A4.712,4.712,0,0,1,1219.952,2088.833Zm6.877-.56a1.723,1.723,0,0,0-.357-.052c-.448.009-.716.151-.768.406-.077.378.221.5.479.63a1.923,1.923,0,0,0,.336.132c.427.114.7.019.8-.267A.694.694,0,0,0,1226.829,2088.273Zm0,0a1.723,1.723,0,0,0-.357-.052c-.448.009-.716.151-.768.406-.077.378.221.5.479.63a1.923,1.923,0,0,0,.336.132c.427.114.7.019.8-.267A.694.694,0,0,0,1226.829,2088.273Zm-6.877.56c-1.361.15-1.761.559-2.161,1.93.778.234,1.559.471,2.337.707.04-.049.08-.095.119-.144A4.712,4.712,0,0,1,1219.952,2088.833Zm39.13,28.29c-.464-1.854-.913-3.716-1.417-5.561-.243-.891-.594-1.752-.907-2.622a2.871,2.871,0,0,0-.24-.455,1.148,1.148,0,0,0-1.147-.63,4.988,4.988,0,0,1-1.457-.16,2.492,2.492,0,0,1-1.976-1.964,6.449,6.449,0,0,0-.28-.836q-.871-2.352-1.746-4.7c-.575-1.544-1.095-3.108-1.74-4.618a50,50,0,0,1-2.493-6.3,6.186,6.186,0,0,0-.418-1.021c-.394-.83-.784-1.66-1.208-2.471a23.955,23.955,0,0,0-1.633-2.773,5.175,5.175,0,0,1-.63-1.393c-.15-.473-.1-.489-.6-.415-.092-.27-.185-.547-.307-.907-.065-.073-.148-.172-.243-.282s-.182-.206-.28-.311a.9.9,0,0,0-.28-.2c-.532-.242-1.073-.461-1.6-.713-.062-.027-.123-.055-.179-.074.173.17.342.342.505.52q.147.151.285.314a8.171,8.171,0,0,1,.747,1.174,1.4,1.4,0,0,0,.425.522c-.019-.35-.037-.7-.065-1.162a5.335,5.335,0,0,1,.968,2.872c.019.316.043.633.077.946s.086.6-.289.732a.8.8,0,0,1-.971-.3c-.387-.6-.769-1.2-1.156-1.792a3.9,3.9,0,0,0-.3-.354c.135.544.234.916.323,1.288.153.646.015.8-.652.75a39.086,39.086,0,0,1-5.89-.937c-2.078-.492-4.177-.886-6.274-1.307a8.114,8.114,0,0,0-1.909-.135c-.24.009-.476.021-.716.043-.114.009-.228.021-.341.031a.04.04,0,0,1-.019,0h0l-.166.018c-1.512.172-3.031.289-4.543.458-1.073.12-2.14.3-3.213.427-.83.1-1.66.176-2.493.243-.31.025-.642.05-.848-.329a2.582,2.582,0,0,1,.227-.276,44.4,44.4,0,0,1,6.622-5.149,6.315,6.315,0,0,1,2.29-.726,19.231,19.231,0,0,1,6.311.056c1.457.209,2.908.464,4.362.707a4.42,4.42,0,0,1,2.834,1.7c.326.415.677.811,1.015,1.217.055-.034.107-.068.16-.1q-.3-.609-.6-1.215a9.44,9.44,0,0,1-.446-.928c-.049-.135-.03-.4.062-.464a.569.569,0,0,1,.522-.062,6.674,6.674,0,0,1,.907.643c-.012-.034-.021-.068-.03-.1-2.109-7.759-4.6-15.4-7.311-22.966a2.309,2.309,0,0,1,.317-2.551c.664-.784,1.211-1.666,1.869-2.456a2.692,2.692,0,0,1,1.866-.941,49.427,49.427,0,0,0,5.749-.888c1.865-.4,3.75-.72,5.634-1.046-.19.007-.384.013-.575.013-1.62.012-3.24.037-4.86.04-1.352,0-2.7.034-4.051-.037a30.731,30.731,0,0,1-8.309-1.556c-1.836-.624-3.625-1.386-5.444-2.059a29.414,29.414,0,0,0-5.8-1.359,16.446,16.446,0,0,0-9.37,1.208,3.5,3.5,0,0,0-1.22.91c-1.362,1.617-2.711,3.246-3.993,4.925a123.158,123.158,0,0,0-7.55,11.361,1.143,1.143,0,0,0-.009,1.445c1.66,2.407,3.277,4.842,4.937,7.252a2.514,2.514,0,0,0,.827.7c.74.433,1.518.808,2.265,1.229.477.271.52.384.329.9a11.552,11.552,0,0,1-.686,1.546,47.26,47.26,0,0,1-3.35,5.2c-1.4,1.928-2.748,3.9-4.1,5.859a2.378,2.378,0,0,0-.412,1.006c-.135,1.088-.273,2.173-.406,3.261v0c-.169,1.384-.332,2.767-.476,4.15-.049.458-.1.916-.141,1.374-.265,2.715-.422,5.441-.637,8.159-.052.676-.157,1.349-.24,2.062a4.846,4.846,0,0,1-.507-.123c-1.961-.737-1.69-.282-2.736-2.453-.725-1.5-1.5-2.981-2.268-4.466-.326-.633-.677-1.254-1.033-1.869a2.4,2.4,0,0,0-.52-.7,8.719,8.719,0,0,0-1.527-1.027c-1.728-.827-3.483-1.586-5.223-2.394a2.549,2.549,0,0,0-2.7.3c-.1.064-.13.215-.228.39.326.04.566.065.806.1.534.061,1.075.1,1.607.193a18.32,18.32,0,0,1,6.1,2.509,3.439,3.439,0,0,1,1.325,1.5c-.747.28-.968.28-1.4-.083a11.861,11.861,0,0,0-5.358-2.49,27.224,27.224,0,0,0-5.127-.5,1.482,1.482,0,0,0-1.3.682,4.827,4.827,0,0,0-.268.44,32.238,32.238,0,0,0-2.21,4.82c-.117.31-.218.621-.3.931-.071.677-.1,1.362-.1,2.051,0,.47.01.937.037,1.4.031.123.071.249.114.372.547,1.577,1.162,3.133,1.666,4.722.95,2.985,2.4,5.752,3.612,8.623.037.092.092.175.129.264a6.4,6.4,0,0,0,2.49,2.834,53.03,53.03,0,0,1,6.388,4.989c.572.538,1.193,1.024,1.8,1.525a2.259,2.259,0,0,0,2.567.151,2,2,0,0,0,1.07-1.881c.113-1.421.264-2.838.39-4.255a2.477,2.477,0,0,0-.046-.658,53.542,53.542,0,0,0-2.017-8.53,2.742,2.742,0,0,1-.138-.72c-.021-.236.126-.356.36-.365a.829.829,0,0,1,.876.544c.227.568.406,1.162.67,1.715a39.744,39.744,0,0,1,2.244,6.625c1.525,5.521,3.034,11.048,4.571,16.566a5.133,5.133,0,0,0,2.044,2.886,33.629,33.629,0,0,0,8.033,4.144c2.791,1,5.628,1.875,8.447,2.8,1.184.388,2.367.793,3.566,1.144,3.292.965,6.585,1.933,9.892,2.846,1.915.526,3.855.978,5.8,1.4a30.1,30.1,0,0,0,7.808.938c.323-.016.646-.034.965-.056.268-.015.535-.033.8-.052l.523-.037.609-.046c.323-.024.645-.052.965-.08.526-.043,1.048-.089,1.574-.138,2.468-.231,4.94-.474,7.4-.772a6.769,6.769,0,0,0,2.33-.615,6.31,6.31,0,0,0,2.072-1.742,7.517,7.517,0,0,1-2.2.783,22.025,22.025,0,0,1-10.015-.043.87.87,0,0,1-.627-.562c-.563-1.227-1.131-2.453-1.694-3.68a2.937,2.937,0,0,1-.107-2.3c.494-1.39,1.014-2.77,1.494-4.162a1.074,1.074,0,0,1,.962-.772c1.371-.178,2.745-.372,4.119-.535a10.64,10.64,0,0,0-4.1.016c-2.607.464-5.192,1.057-7.789,1.583a1.948,1.948,0,0,1-.852.015c-.212-.052-.317-.178-.314-.338a.555.555,0,0,1,.1-.3,6.878,6.878,0,0,1,.495-.643,33.241,33.241,0,0,1,4.045-4.371,6.948,6.948,0,0,1,.569-.446c.065-.046.129-.089.194-.129s.107-.067.159-.1a4.544,4.544,0,0,1,.618-.317c.04-.018.08-.034.12-.049.083-.034.163-.061.249-.089a1.5,1.5,0,0,1,.163-.049c.117-.037.24-.065.363-.092.144-.028.292-.05.443-.065a5.5,5.5,0,0,1,.645-.018c-.9-1.009-1.783-2.029-2.671-3.044-.157-.181-.289-.378-.517-.676,1.341-.065,2.546-.394,3.751.058a4.089,4.089,0,0,0,2.536.154c1.34-.353,2.683-.71,4.021-1.085a9.092,9.092,0,0,0-3.772.218,6.419,6.419,0,0,1-3.846-.129,7.53,7.53,0,0,0-1.727-.344,66.006,66.006,0,0,0-10.314-.16c-.688.034-1.374.074-2.063.114l-.328.018c-.345.022-.689.04-1.03.059l-.348.018c-.338.015-.679.031-1.017.043-.2.006-.4,0-.6-.006-.362-.022-.722-.068-1.082-.117a1.043,1.043,0,0,1-.473-.237l-.083-.07a.323.323,0,0,1,0-.517,5.506,5.506,0,0,1,1.887-1.291c.05-.018.1-.034.151-.049a2.761,2.761,0,0,1,.363-.086,1.6,1.6,0,0,1,.209-.028,1.669,1.669,0,0,1,.215-.015h0a.254.254,0,0,1,.049,0c.046,0,.089.037.218.092-.184.393-.368.784-.577,1.236-.007.015-.016.03-.022.046a5.955,5.955,0,0,0,1.946-.037c2.345-.532,4.679-1.116,7.03-1.6a36.3,36.3,0,0,1,5.65-1.008,8.412,8.412,0,0,1,4.3.821,3.922,3.922,0,0,0,2.64.31c.941-.178,1.882-.353,2.828-.5a3.065,3.065,0,0,1,2.669.969c.319.3.636.608.959.906.037-.252-.231-.461-.418-.614-.852-.7-1.722-1.387-2.6-2.054a.925.925,0,0,0-.559-.123,11.188,11.188,0,0,0-3.634.7c-.44-.2-.919-.4-1.365-.652a1.061,1.061,0,0,1-.319-.3l0,0a.754.754,0,0,1-.116-.23,20.357,20.357,0,0,1-.584-8.611.66.66,0,0,1,.3-.452c.384-.2.8-.335,1.291-.531,0,.335,0,.571,0,.808.006.836-.028,1.675.037,2.5.1,1.371.264,2.739.43,4.1.018.157.188.4.317.418a3.975,3.975,0,0,0,2.822-.378c-.591-1.672-1.181-3.283-1.722-4.912a18.77,18.77,0,0,1-.541-2.216c-.015-.077-.028-.145-.04-.209-.947-.418-1.909-.815-2.84-1.264a3.463,3.463,0,0,0-1.553-.369q-1.475,0-2.948-.061a14.364,14.364,0,0,0-3.516.261,1.361,1.361,0,0,1-.434.043.438.438,0,0,1-.319-.71,1.161,1.161,0,0,1,.307-.31,10.88,10.88,0,0,1,4.885-1.922,7.712,7.712,0,0,1,5.192,1.5c.476.3.934.637,1.432.892a1.728,1.728,0,0,0,1.761-.019c.9-.544,1.817-1.072,2.709-1.635a1.845,1.845,0,0,1,2.477.188c.182.166.363.332.529.51.517.559.44.87-.31,1.085l-.077.021c.114.3.218.575.344.849.421.913.861,1.823,1.3,2.73.308.642.624,1.282.938,1.921.095.194.175.412.535.3C1259.168,2117.593,1259.14,2117.354,1259.082,2117.123Zm-80.86,2.087c-.212.225-.525.228-.857-.058a20.479,20.479,0,0,1-4.8-5.542,4.367,4.367,0,0,1-.409-1.63c-.129-1.291-.19-2.591-.279-3.888.021,0,.043,0,.061-.007,0-.737,0-1.472,0-2.21a3.739,3.739,0,0,1,.059-.587.449.449,0,0,1,.445-.412.433.433,0,0,1,.486.363,8.829,8.829,0,0,1,.154,1.383c.021,1.079.009,2.161,0,3.24a9.5,9.5,0,0,0,.528,3.037,4.5,4.5,0,0,0,.535,1.046,17.229,17.229,0,0,0,3.111,3.529,9.841,9.841,0,0,1,.9.876A.6.6,0,0,1,1178.222,2119.21Zm8.236-2.649a1.523,1.523,0,0,1-.056,1.214,6.325,6.325,0,0,1-2.45,2.8c-.055-.3-.129-.571-.153-.845-.12-1.393-.237-2.788-.341-4.184a2.327,2.327,0,0,0-.775-1.823,3.007,3.007,0,0,1-.965-2.17,9.4,9.4,0,0,1,.227-2.929c.055-.234.1-.468.166-.775-.556.3-1.03.59-1.531.821a14.5,14.5,0,0,1-1.506.584,1.045,1.045,0,0,0-.71.581,6.666,6.666,0,0,0-.63,2.929,2.188,2.188,0,0,0,1.177,2.063,2.722,2.722,0,0,1,.547.372c.323.273.4.565.222.836a.655.655,0,0,1-.827.31,3.154,3.154,0,0,1-.941-.55,6.866,6.866,0,0,1-.756-9.683c.756-.962,1.426-1.992,2.164-3.034-.2-.323-.354-.566-.572-.919-.224.307-.406.522-.55.759a2.947,2.947,0,0,1-1.371,1.19,2.165,2.165,0,0,1-.855.184c-.633,0-.842-.283-.713-.891a3.228,3.228,0,0,1,.191-.637,3.941,3.941,0,0,0,.012-2.462.661.661,0,0,0-.28-.4c-.412-.2-.848-.344-1.251-.5-.821,1.344-1.583,2.6-2.364,3.849a2.508,2.508,0,0,1-.612.716c-.473.332-.873.117-.9-.458-.071-1.472-.145-2.945-.194-4.417a3.722,3.722,0,0,1,2.2-3.071,5.22,5.22,0,0,1,3.471-.175c.584.184,1.149.427,1.715.664a3.374,3.374,0,0,1,1.5,1.275c.719,1.055,1.442,2.109,2.139,3.179a36.891,36.891,0,0,1,2.447,5.275,3.9,3.9,0,0,1,.206,2.641,5.9,5.9,0,0,0,1.454,5.33A6.759,6.759,0,0,1,1186.458,2116.561Zm36.922-31.1a37.227,37.227,0,0,1,6.474-.074q1.508.107,3.015.175a3.232,3.232,0,0,1,2.561,1.386,4.568,4.568,0,0,1,1.033,1.747,2,2,0,0,1-.433.209c-.028.009-.053.018-.077.024s-.065.016-.1.022a1.1,1.1,0,0,1-1.088-.446c-.347-.381-.722-.738-1.048-1.134a1.975,1.975,0,0,0-2-.6c.252.347.5.692.75,1.033.452.618.894,1.227,1.337,1.835.058.08.117.157.172.24.443.658.406.8-.406,1.294a27.255,27.255,0,0,1-1.9-2.093,2.566,2.566,0,0,0-2.6-.984c-.142.633-.286,1.263-.431,1.9a8.9,8.9,0,0,1,1.328-.108,1.464,1.464,0,0,1,.781.311c.446.341.852.741,1.273,1.116.227.2.32.378.261.528.24-.077.483-.156.732-.233.095.43-.194.488-.4.55a23.338,23.338,0,0,1-2.265.633q-.844.167-1.688.255c-.071.01-.145.016-.215.022-.157.015-.317.028-.474.04-.012,0-.024,0-.037,0a24.226,24.226,0,0,1-6.87-.593,15.244,15.244,0,0,1-4.171-1.393c-.695-.381-.8-.636-.514-1.359,0-.012.009-.021.012-.033.1-.24.182-.483.268-.726a2.158,2.158,0,0,1,.974-1.251c1.169-.627,2.321-1.291,3.532-1.814A7.685,7.685,0,0,1,1223.38,2085.461Zm13.35,20.771c-.11.273-.239.538-.368.805a3.205,3.205,0,0,0-.087,2.779c.108.258.17.538.277.882-.719-.1-.8-.657-1.156-1.112-.565.064-1.2.116-1.816.218a1.107,1.107,0,0,0-.483.32q-4.071,3.688-8.134,7.386c-.83.757-1.654,1.516-2.551,2.205.129-.166.252-.339.393-.492,3.169-3.465,6.3-6.969,9.536-10.372a37.464,37.464,0,0,1,3.8-3.148,2.429,2.429,0,0,1,.633-.252c.05.058.1.117.151.172C1236.863,2105.826,1236.81,2106.035,1236.73,2106.232Zm-27.242-11.909c.385-.378.793-.735,1.165-1.125a.781.781,0,0,1,.812-.16c1.657.274,3.311.557,4.968.812.329.055.654.1.983.15.053.01.1.019.154.025,4.6.673,9.13,1.648,13.673,2.588a1.253,1.253,0,0,1,1.079.864c.111.372.132.772.262,1.134a2.362,2.362,0,0,1-.787,2.7c-1.012.935-2.011,1.882-3.044,2.789-.516.455-1.033.906-1.552,1.358l-1.144,1q-1.959,1.7-3.919,3.4c-.354.308-.716.615-1.165.492A4.351,4.351,0,0,1,1218,2109.3a32.022,32.022,0,0,1-3.267-3.692,41.026,41.026,0,0,1-5.116-8.328,4.384,4.384,0,0,1-.541-1.893A1.377,1.377,0,0,1,1209.488,2094.323Zm16.695-5.066a1.923,1.923,0,0,0,.336.132c.427.114.7.019.8-.267a.694.694,0,0,0-.492-.849,1.723,1.723,0,0,0-.357-.052c-.448.009-.716.151-.768.406C1225.627,2089,1225.925,2089.125,1226.183,2089.257Zm-6.231-.424c-1.361.15-1.761.559-2.161,1.93.778.234,1.559.471,2.337.707.04-.049.08-.095.119-.144A4.712,4.712,0,0,1,1219.952,2088.833Zm0,0c-1.361.15-1.761.559-2.161,1.93.778.234,1.559.471,2.337.707.04-.049.08-.095.119-.144A4.712,4.712,0,0,1,1219.952,2088.833Zm6.877-.56a1.723,1.723,0,0,0-.357-.052c-.448.009-.716.151-.768.406-.077.378.221.5.479.63a1.923,1.923,0,0,0,.336.132c.427.114.7.019.8-.267A.694.694,0,0,0,1226.829,2088.273Zm0,0a1.723,1.723,0,0,0-.357-.052c-.448.009-.716.151-.768.406-.077.378.221.5.479.63a1.923,1.923,0,0,0,.336.132c.427.114.7.019.8-.267A.694.694,0,0,0,1226.829,2088.273Zm-6.877.56c-1.361.15-1.761.559-2.161,1.93.778.234,1.559.471,2.337.707.04-.049.08-.095.119-.144A4.712,4.712,0,0,1,1219.952,2088.833Zm0,0c-1.361.15-1.761.559-2.161,1.93.778.234,1.559.471,2.337.707.04-.049.08-.095.119-.144A4.712,4.712,0,0,1,1219.952,2088.833Zm6.877-.56a1.723,1.723,0,0,0-.357-.052c-.448.009-.716.151-.768.406-.077.378.221.5.479.63a1.923,1.923,0,0,0,.336.132c.427.114.7.019.8-.267A.694.694,0,0,0,1226.829,2088.273Zm0,0a1.723,1.723,0,0,0-.357-.052c-.448.009-.716.151-.768.406-.077.378.221.5.479.63a1.923,1.923,0,0,0,.336.132c.427.114.7.019.8-.267A.694.694,0,0,0,1226.829,2088.273Zm-6.877.56c-1.361.15-1.761.559-2.161,1.93.778.234,1.559.471,2.337.707.04-.049.08-.095.119-.144A4.712,4.712,0,0,1,1219.952,2088.833Zm0,0c-1.361.15-1.761.559-2.161,1.93.778.234,1.559.471,2.337.707.04-.049.08-.095.119-.144A4.712,4.712,0,0,1,1219.952,2088.833Zm6.877-.56a1.723,1.723,0,0,0-.357-.052c-.448.009-.716.151-.768.406-.077.378.221.5.479.63a1.923,1.923,0,0,0,.336.132c.427.114.7.019.8-.267A.694.694,0,0,0,1226.829,2088.273Zm0,0a1.723,1.723,0,0,0-.357-.052c-.448.009-.716.151-.768.406-.077.378.221.5.479.63a1.923,1.923,0,0,0,.336.132c.427.114.7.019.8-.267A.694.694,0,0,0,1226.829,2088.273Zm-6.877.56c-1.361.15-1.761.559-2.161,1.93.778.234,1.559.471,2.337.707.04-.049.08-.095.119-.144A4.712,4.712,0,0,1,1219.952,2088.833Zm0,0c-1.361.15-1.761.559-2.161,1.93.778.234,1.559.471,2.337.707.04-.049.08-.095.119-.144A4.712,4.712,0,0,1,1219.952,2088.833Zm6.877-.56a1.723,1.723,0,0,0-.357-.052c-.448.009-.716.151-.768.406-.077.378.221.5.479.63a1.923,1.923,0,0,0,.336.132c.427.114.7.019.8-.267A.694.694,0,0,0,1226.829,2088.273Zm0,0a1.723,1.723,0,0,0-.357-.052c-.448.009-.716.151-.768.406-.077.378.221.5.479.63a1.923,1.923,0,0,0,.336.132c.427.114.7.019.8-.267A.694.694,0,0,0,1226.829,2088.273Zm-6.877.56c-1.361.15-1.761.559-2.161,1.93.778.234,1.559.471,2.337.707.04-.049.08-.095.119-.144A4.712,4.712,0,0,1,1219.952,2088.833Zm0,0c-1.361.15-1.761.559-2.161,1.93.778.234,1.559.471,2.337.707.04-.049.08-.095.119-.144A4.712,4.712,0,0,1,1219.952,2088.833Zm6.877-.56a1.723,1.723,0,0,0-.357-.052c-.448.009-.716.151-.768.406-.077.378.221.5.479.63a1.923,1.923,0,0,0,.336.132c.427.114.7.019.8-.267A.694.694,0,0,0,1226.829,2088.273Zm0,0a1.723,1.723,0,0,0-.357-.052c-.448.009-.716.151-.768.406-.077.378.221.5.479.63a1.923,1.923,0,0,0,.336.132c.427.114.7.019.8-.267A.694.694,0,0,0,1226.829,2088.273Zm-6.877.56c-1.361.15-1.761.559-2.161,1.93.778.234,1.559.471,2.337.707.04-.049.08-.095.119-.144A4.712,4.712,0,0,1,1219.952,2088.833Zm0,0c-1.361.15-1.761.559-2.161,1.93.778.234,1.559.471,2.337.707.04-.049.08-.095.119-.144A4.712,4.712,0,0,1,1219.952,2088.833Zm6.877-.56a1.723,1.723,0,0,0-.357-.052c-.448.009-.716.151-.768.406-.077.378.221.5.479.63a1.923,1.923,0,0,0,.336.132c.427.114.7.019.8-.267A.694.694,0,0,0,1226.829,2088.273Zm10.747-8.444a.663.663,0,0,0-.016-.092.645.645,0,0,0-.024-.108,1.064,1.064,0,0,0-.049-.147c-.016-.043-.037-.083-.056-.123l-.006-.013a2.5,2.5,0,0,0-.166-.267,1.5,1.5,0,0,1-.452-.111c.163.2.323.418.5.646.089.117.182.24.28.363A1.145,1.145,0,0,0,1237.576,2079.829Zm-10.747,8.444a1.723,1.723,0,0,0-.357-.052c-.448.009-.716.151-.768.406-.077.378.221.5.479.63a1.923,1.923,0,0,0,.336.132c.427.114.7.019.8-.267A.694.694,0,0,0,1226.829,2088.273Zm-6.877.56c-1.361.15-1.761.559-2.161,1.93.778.234,1.559.471,2.337.707.04-.049.08-.095.119-.144A4.712,4.712,0,0,1,1219.952,2088.833Z" fill="#bc9173"/>
        <path id="Path_1886" data-name="Path 1886" d="M1252.814,2091.858c-.228.089-.44.169-.649.252.228-.059.452-.114.679-.166A.815.815,0,0,1,1252.814,2091.858Zm5.647-2.779a.626.626,0,0,0-.664.507c.113-.114.233-.246.39-.4a1.768,1.768,0,0,0,.44.962.489.489,0,0,0,.375-.491A.58.58,0,0,0,1258.461,2089.079Zm4.064.824a1.381,1.381,0,0,0-.4-.766,5.242,5.242,0,0,0-2.487-.827,6.559,6.559,0,0,1,.412,2.355,10.5,10.5,0,0,1,2.585.187.274.274,0,0,0,.053.016C1262.641,2090.545,1262.586,2090.222,1262.525,2089.9Zm4.826-3c-.492-.159-1-.338-1.519-.491a24.118,24.118,0,0,0-5.318-1.162c-2.133-.139-4.267-.262-6.4-.409a.977.977,0,0,0-1.017.547c-.92,1.568-1.845,3.132-2.81,4.672a1.743,1.743,0,0,0-.145,1.808l.277.569a1.09,1.09,0,0,0,.612-.01l.359-.11a1.763,1.763,0,0,1,.48-1.549,21.759,21.759,0,0,1,1.731-1.476c.362-.283.774-.5,1.134-.827a2,2,0,0,0-1.279.289c-.313.188-.624.39-.947.569a7.224,7.224,0,0,1-.694.283c.067-.253.061-.388.126-.455.6-.612,1.2-1.224,1.826-1.817a2.4,2.4,0,0,1,1.678-.633,25.141,25.141,0,0,1,6.926.857,5.424,5.424,0,0,1,1.654.935,2.3,2.3,0,0,1,.676,1.589c.12.59.151,1.2.221,1.8a1.625,1.625,0,0,1,1.116.575c.056.053.108.105.166.154a42.745,42.745,0,0,0,1.211-5.45C1267.428,2087.1,1267.382,2087.028,1267.351,2086.905Zm-8.678-7.322a2.641,2.641,0,0,0-.237.206c-.2.218-.4.434-.6.652a.482.482,0,0,0,.408-.04c.434-.222.864-.452,1.3-.676C1259.251,2079.675,1258.962,2079.629,1258.673,2079.583Zm-4.814,1.476v.04c.012-.013.024-.028.037-.04Zm-.873-.083c-.772-.136-1.534-.329-2.3-.514a1.9,1.9,0,0,1-1.445-1.408c-.305-.974-.729-1.909-1.1-2.858l-.1.036c-.142,1-.354,1.986-.409,2.988,0,.034,0,.065,0,.1-.062,1.189,0,2.391.012,3.584a1.249,1.249,0,0,0,.464,1.11.732.732,0,0,1,.185.452,5.818,5.818,0,0,1,.074,1.1,7.771,7.771,0,0,0,.107,1.672c.1.661.234,1.316.292,1.98a2.7,2.7,0,0,0,.194.633c.024.065.046.126.071.191.024-.083.049-.166.076-.249a22.187,22.187,0,0,1,1.528-3.67,11.42,11.42,0,0,1,.793-1.236.73.73,0,0,0,.145-.578,1.039,1.039,0,0,1-.083-.467,1.269,1.269,0,0,1,.181-.594C1252.1,2082.485,1252.531,2081.726,1252.986,2080.976Z" fill="#bc9173"/>
        <path id="Path_1887" data-name="Path 1887" d="M1220.377,2167.1a1.932,1.932,0,0,1-.111.571c-1.639,4.685-3.268,9.37-4.928,14.046-.286.8-.615,1.589-.947,2.373a1.123,1.123,0,0,1-.089.071c-.627.467-.805.464-1.248-.148-.267-.369-.544-.725-.83-1.073a19.56,19.56,0,0,0,.729-5.186c.181-4.814.412-9.628.645-14.438a14.413,14.413,0,0,1,.292-2.41c.01-.044.022-.083.034-.123q3.284,1.757,6.462,3.7C1220.4,2165.352,1220.383,2166.228,1220.377,2167.1Z" fill="#bc9173"/>
        <path id="Path_1888" data-name="Path 1888" d="M1250.961,2063.242a35.621,35.621,0,0,1-2.8,8.88,19.6,19.6,0,0,1-.47-4.212,2.863,2.863,0,0,1,.8-2.109c.629-.719,1.207-1.482,1.814-2.221.13-.16.287-.3.431-.446Z" fill="#bc9173"/>
        <path id="Path_1889" data-name="Path 1889" d="M1258.971,2094.751h2.323c.25-.39.5-.775.747-1.164a.932.932,0,0,1,.9-.516c.157.011.4-.011.468-.111a1.351,1.351,0,0,1,1.229-.486,2.788,2.788,0,0,0,.509-.107.633.633,0,0,1,.073.915c-.2.333-.441.647-.674.961-.32.433-.676.842-.968,1.292a1.341,1.341,0,0,1-1.159.665c-.878,0-1.756-.091-2.635-.137a.555.555,0,0,1-.534-.423C1259.16,2095.371,1259.079,2095.1,1258.971,2094.751Z" fill="#bc9173"/>
      </g>
      <g id="Group_1912" data-name="Group 1912">
        <path id="Path_1890" data-name="Path 1890" d="M1243.785,2152.29a.59.59,0,0,0-.147-.009c-1.679-.222-3.369-.394-5.039-.67a51.912,51.912,0,0,1-10.1-2.669c-1.949-.747-3.947-1.358-5.9-2.09-1.494-.559-2.942-1.239-4.426-1.823a40.283,40.283,0,0,1-9.007-4.98,2.045,2.045,0,0,1-.757-.965c-2.981-8.042-5.914-16.1-8.192-24.374a3.965,3.965,0,0,1-.064-.559c.4.159.707.313,1.035.405a32.408,32.408,0,0,0,3.41.907c1.5.255,2.2-.584,1.786-2.029-.249-.873-.588-1.718-.876-2.582a14.041,14.041,0,0,0-2.281-4.347q-1.808-2.277-3.456-4.684c-1.623-2.377-3.2-4.78-5.026-7.012a5.735,5.735,0,0,1-1.149-2.118c-.176-.637-.471-1.242-.67-1.872-.188-.587-.366-1.172-.545-1.762-.169,1.384-.332,2.767-.476,4.15-.049.458-.1.916-.141,1.374-.265,2.715-.422,5.441-.637,8.159-.052.676-.157,1.349-.24,2.062a4.846,4.846,0,0,1-.507-.123c-1.961-.737-1.69-.282-2.736-2.453-.725-1.5-1.5-2.981-2.268-4.466-.326-.633-.677-1.254-1.033-1.869a2.4,2.4,0,0,0-.52-.7,8.719,8.719,0,0,0-1.527-1.027c-1.728-.827-3.483-1.586-5.223-2.394a2.549,2.549,0,0,0-2.7.3c-.1.064-.13.215-.228.39.326.04.566.065.806.1.534.061,1.075.1,1.607.193a18.32,18.32,0,0,1,6.1,2.509,3.439,3.439,0,0,1,1.325,1.5c-.747.28-.968.28-1.4-.083a11.861,11.861,0,0,0-5.358-2.49,27.224,27.224,0,0,0-5.127-.5,1.482,1.482,0,0,0-1.3.682,4.827,4.827,0,0,0-.268.44,32.238,32.238,0,0,0-2.21,4.82c-.117.31-.218.621-.3.931a6.441,6.441,0,0,0-.062,3.452c.031.123.071.249.114.372.547,1.577,1.162,3.133,1.666,4.722.95,2.985,2.4,5.752,3.612,8.623.037.092.092.175.129.264a6.4,6.4,0,0,0,2.49,2.834,53.03,53.03,0,0,1,6.388,4.989c.572.538,1.193,1.024,1.8,1.525a2.259,2.259,0,0,0,2.567.151,2,2,0,0,0,1.07-1.881c.113-1.421.264-2.838.39-4.255a2.477,2.477,0,0,0-.046-.658,53.542,53.542,0,0,0-2.017-8.53,2.742,2.742,0,0,1-.138-.72c-.021-.236.126-.356.36-.365a.829.829,0,0,1,.876.544c.227.568.406,1.162.67,1.715a39.744,39.744,0,0,1,2.244,6.625c1.525,5.521,3.034,11.048,4.571,16.566a5.133,5.133,0,0,0,2.044,2.886,33.629,33.629,0,0,0,8.033,4.144c2.791,1,5.628,1.875,8.447,2.8,1.184.388,2.367.793,3.566,1.144,3.292.965,6.585,1.933,9.892,2.846,1.915.526,3.855.978,5.8,1.4a30.1,30.1,0,0,0,7.808.938c.323-.016.646-.034.965-.056.268-.015.535-.033.8-.052l.523-.037.609-.046c.323-.024.645-.052.965-.08C1244.028,2152.373,1243.9,2152.339,1243.785,2152.29Zm-65.563-33.08c-.212.225-.525.228-.857-.058a20.479,20.479,0,0,1-4.8-5.542,4.367,4.367,0,0,1-.409-1.63c-.129-1.291-.19-2.591-.279-3.888.021,0,.043,0,.061-.007,0-.737,0-1.472,0-2.21a3.739,3.739,0,0,1,.059-.587.449.449,0,0,1,.445-.412.433.433,0,0,1,.486.363,8.829,8.829,0,0,1,.154,1.383c.021,1.079.009,2.161,0,3.24a9.5,9.5,0,0,0,.528,3.037,4.5,4.5,0,0,0,.535,1.046,17.229,17.229,0,0,0,3.111,3.529,9.841,9.841,0,0,1,.9.876A.6.6,0,0,1,1178.222,2119.21Zm8.236-2.649a1.523,1.523,0,0,1-.056,1.214,6.325,6.325,0,0,1-2.45,2.8c-.055-.3-.129-.571-.153-.845-.12-1.393-.237-2.788-.341-4.184a2.327,2.327,0,0,0-.775-1.823,3.007,3.007,0,0,1-.965-2.17,9.4,9.4,0,0,1,.227-2.929c.055-.234.1-.468.166-.775-.556.3-1.03.59-1.531.821a14.5,14.5,0,0,1-1.506.584,1.045,1.045,0,0,0-.71.581,6.666,6.666,0,0,0-.63,2.929,2.188,2.188,0,0,0,1.177,2.063,2.722,2.722,0,0,1,.547.372c.323.273.4.565.222.836a.655.655,0,0,1-.827.31,3.154,3.154,0,0,1-.941-.55,6.866,6.866,0,0,1-.756-9.683c.756-.962,1.426-1.992,2.164-3.034-.2-.323-.354-.566-.572-.919-.224.307-.406.522-.55.759a2.947,2.947,0,0,1-1.371,1.19,2.165,2.165,0,0,1-.855.184c-.633,0-.842-.283-.713-.891a3.228,3.228,0,0,1,.191-.637,3.941,3.941,0,0,0,.012-2.462.661.661,0,0,0-.28-.4c-.412-.2-.848-.344-1.251-.5-.821,1.344-1.583,2.6-2.364,3.849a2.508,2.508,0,0,1-.612.716c-.473.332-.873.117-.9-.458-.071-1.472-.145-2.945-.194-4.417a3.722,3.722,0,0,1,2.2-3.071,5.22,5.22,0,0,1,3.471-.175c.584.184,1.149.427,1.715.664a3.374,3.374,0,0,1,1.5,1.275c.719,1.055,1.442,2.109,2.139,3.179a36.891,36.891,0,0,1,2.447,5.275,3.9,3.9,0,0,1,.206,2.641,5.9,5.9,0,0,0,1.454,5.33A6.759,6.759,0,0,1,1186.458,2116.561Z" fill="#966b53"/>
        <path id="Path_1891" data-name="Path 1891" d="M1221.48,2164.838a105.2,105.2,0,0,0-2.76,14.5c-.1.861-.2,1.722-.271,2.583q-1.4.672-2.809,1.331a7.653,7.653,0,0,0-1.249.836,1.123,1.123,0,0,1-.089.071c-.627.467-.805.464-1.248-.148-.267-.369-.544-.725-.83-1.073a19.956,19.956,0,0,0-4.808-4.264c-2.348-1.481-4.629-3.064-6.953-4.583a1.218,1.218,0,0,1-.578-.876q-1.336-7.512-2.69-15.017c-.362-2.032-.731-4.063-1.094-6.092-.028-.142-.04-.286-.074-.529.48.261.9.449,1.279.7a55.041,55.041,0,0,0,8.832,4.709q3.975,1.743,7.786,3.794,3.284,1.757,6.462,3.7c.114.07.227.138.341.209A.974.974,0,0,0,1221.48,2164.838Z" fill="#966b53"/>
        <path id="Path_1892" data-name="Path 1892" d="M1233.721,2087.37c.326.4.7.753,1.048,1.134a10.494,10.494,0,0,0-2.3-.7c-.246-.341-.5-.686-.75-1.033A1.975,1.975,0,0,1,1233.721,2087.37Z" fill="#966b53"/>
        <path id="Path_1893" data-name="Path 1893" d="M1237.585,2079.977c-.1-.123-.191-.246-.28-.363a.543.543,0,0,1,.12-.268A1.355,1.355,0,0,1,1237.585,2079.977Z" fill="#966b53"/>
        <path id="Path_1894" data-name="Path 1894" d="M1249.66,2106.081a5.083,5.083,0,0,1-1.168.135,45.416,45.416,0,0,0-5.371.293,4.7,4.7,0,0,1-3.372-.781c-.283-.191-.59-.351-.885-.526a.985.985,0,0,1-.593-1.276c.23-1.054.476-2.108.79-3.141.654-2.161,1.343-4.316,2.053-6.459a1.327,1.327,0,0,0-.243-1.408c-.731-.894-1.414-1.829-2.1-2.757a1.356,1.356,0,0,0-.769-.486c-.719-.227-1.442-.458-2.146-.725a1.822,1.822,0,0,0,.606-.255,4.568,4.568,0,0,0-1.033-1.747,3.232,3.232,0,0,0-2.561-1.386q-1.508-.069-3.015-.175a37.227,37.227,0,0,0-6.474.074,7.685,7.685,0,0,0-2.22.482c-1.211.523-2.363,1.187-3.532,1.814a2.158,2.158,0,0,0-.974,1.251c-.086.243-.169.486-.268.726-.215-.1-.338,0-.427.221a.863.863,0,0,1-.476-.845,10.671,10.671,0,0,1,.2-1.448c.043-.212.159-.382.033-.621-.172-.332.034-.575.314-.723a5.774,5.774,0,0,1,.95-.4c.842-.268,1.684-.547,2.542-.747a2.187,2.187,0,0,0,1.313-.861,14.256,14.256,0,0,1,2.222-2.376h0a9.891,9.891,0,0,1,2.985.058c2.1.421,4.2.815,6.274,1.307a39.086,39.086,0,0,0,5.89.937c.667.052.805-.1.652-.75-.089-.372-.188-.744-.323-1.288a3.9,3.9,0,0,1,.3.354c.387.6.769,1.2,1.156,1.792a.8.8,0,0,0,.971.3c.375-.132.326-.43.289-.732s-.058-.63-.077-.946a5.335,5.335,0,0,0-.968-2.872c.028.461.046.812.065,1.162a1.4,1.4,0,0,1-.425-.522,8.171,8.171,0,0,0-.747-1.174q-.138-.162-.285-.314a7.721,7.721,0,0,1,2.858,1.5,4.137,4.137,0,0,1,1.07,1.559c.652,1.589,1.208,3.218,1.8,4.832.049.138.092.28.144.418q2.941,7.7,5.89,15.4c.089.23.181.458.28.682A1.651,1.651,0,0,1,1249.66,2106.081Z" fill="#966b53"/>
        <path id="Path_1895" data-name="Path 1895" d="M1257.135,2133.345a6.369,6.369,0,0,1-.175,1.168,13.929,13.929,0,0,1-1.656,4.457,10.347,10.347,0,0,1-.627.9c-.087.073-.314.015-.452-.044-1.058-.467-2.108-.941-3.159-1.415a9.528,9.528,0,0,0-5.712-.5c-2.6.466-5.071,1.094-7.667,1.619a2.551,2.551,0,0,1-.97-.022,5.672,5.672,0,0,1-1.027-.624c-1.451-.97-2.8-1.98-4.261-2.936a4.456,4.456,0,0,1-1.467-1.619,2.809,2.809,0,0,1-.3-.824c-.153-.854.19-1.3,1.051-1.277,1.86.036,3.727.124,5.588.212,2.159.094,4.311.24,6.477.131.38-.015.759-.037,1.138-.044a4.906,4.906,0,0,1,.73-.015c-.029,0-.051-.007-.08-.007a65.959,65.959,0,0,1,7.776.27,10.419,10.419,0,0,0,3.8-.226C1256.866,2132.331,1257.179,2132.6,1257.135,2133.345Z" fill="#966b53"/>
        <path id="Path_1896" data-name="Path 1896" d="M1229.636,2127.627c-.345.022-.686.04-1.03.059l-.348.018c-.338.015-.679.031-1.017.043-.2.006-.4,0-.6-.006a.765.765,0,0,0,.271.117,1.989,1.989,0,0,0,.584.061c.415-.024.833-.064,1.245-.123s.818-.123,1.223-.187Zm28.044-.372c-.627-.55-1.26-1.088-1.9-1.626-.581-.492-1.165-.981-1.746-1.469a2.746,2.746,0,0,0-2.256-.689c-1.113.175-2.217.4-3.311.667a1.077,1.077,0,0,1-.891-.1q-.476-.268-.962-.514l0,0c-.332-.166-.667-.329-1.005-.482a4.359,4.359,0,0,0-3.218-.338c-.4.126-.815.181-1.218.285-3.516.92-7.033,1.836-10.544,2.773-1.042.277-2.071.593-3.11.9-.007.015-.016.03-.022.046a5.955,5.955,0,0,0,1.946-.037c2.345-.532,4.679-1.116,7.03-1.6a36.3,36.3,0,0,1,5.65-1.008,8.412,8.412,0,0,1,4.3.821,3.922,3.922,0,0,0,2.64.31c.941-.178,1.882-.353,2.828-.5a3.065,3.065,0,0,1,2.669.969c.319.3.636.608.959.906.089.086.181.173.273.256a2,2,0,0,0,1.934.47A.187.187,0,0,1,1257.68,2127.255Zm.412.593h-.006l0,.016.006-.009.006-.007Z" fill="#966b53"/>
        <path id="Path_1897" data-name="Path 1897" d="M1233.249,2105.394c-.723.216-1.443.446-2.171.646a12.824,12.824,0,0,1-5.471.357,8.335,8.335,0,0,1-4.347-2.026,6.078,6.078,0,0,1-1.155-1.419,32.32,32.32,0,0,1-3.894-10.127c-.028-.141-.079-.278-.13-.453a35.959,35.959,0,0,1-5.693-1.185c.3-.019.594-.043.891-.057a21.658,21.658,0,0,1,4.546.339,3.232,3.232,0,0,1,.773.231c.453.2.494.327.438.89a1.144,1.144,0,0,0,.07.425,44.008,44.008,0,0,0,3.9,9.364,5.917,5.917,0,0,0,2.971,2.421,10.256,10.256,0,0,0,4.774.636c1.491-.094,2.985-.14,4.478-.208Z" fill="#966b53"/>
        <path id="Path_1898" data-name="Path 1898" d="M1252.386,2084.456a2.363,2.363,0,0,1-.385.428c-.286.2-.555.369-.613.763a.507.507,0,0,1-.332.348,1.462,1.462,0,0,0-.922.529.683.683,0,0,1-.459.2.825.825,0,0,0-.784.379c-.213.288-.634.154-.735-.218a3.009,3.009,0,0,1-.157-1.083,1.426,1.426,0,0,0-.267-1.029c-.014-.021-.025-.043-.039-.063a3.583,3.583,0,0,1-.586-3.136,10.411,10.411,0,0,0,.146-1.387,3.833,3.833,0,0,1,.295-1.226c.038.173.086.344.115.519a4.21,4.21,0,0,0,.893,1.981A17.444,17.444,0,0,0,1252.386,2084.456Z" fill="#966b53"/>
        <path id="Path_1899" data-name="Path 1899" d="M1229.251,2096.1l-1.152-2.414c.3-.052.539-.1.776-.131q1.534-.165,3.072-.315a1.605,1.605,0,0,0,1.034-.5c.255-.265.5-.537.767-.793.329-.32.5-.347.8-.019.415.442.776.934,1.161,1.406a4.69,4.69,0,0,1-1.613,1.675c-.174.134-.4.209-.557.355a3.134,3.134,0,0,1-2.382.744C1230.527,2096.079,1229.891,2096.1,1229.251,2096.1Z" fill="#966b53"/>
        <path id="Path_1900" data-name="Path 1900" d="M1266.281,2102.876a5.729,5.729,0,0,1-2.382,1.138c-1.259.316-2.528.6-3.806.84a5.834,5.834,0,0,1-4.82-1.3,2.563,2.563,0,0,1-.657-.858.644.644,0,0,1,.155-.569c.182-.18.405-.056.571.126a5.274,5.274,0,0,0,4.938,1.678c1.938-.289,3.859-.686,5.788-1.035C1266.138,2102.882,1266.21,2102.882,1266.281,2102.876Z" fill="#966b53"/>
        <path id="Path_1901" data-name="Path 1901" d="M1228.95,2123.911c-.375.47-.747.949-1.122,1.42h0A4.326,4.326,0,0,0,1225,2126.8a.323.323,0,0,0,0,.517l.083.07c-.022.028-.046.053-.068.08a2.908,2.908,0,0,1-.332.388.615.615,0,0,1-.974-.68,2.181,2.181,0,0,1,.289-.5,5.027,5.027,0,0,1,1.921-1.552q1.3-.6,2.595-1.2c.107-.046.218-.086.325-.126C1228.879,2123.834,1228.913,2123.871,1228.95,2123.911Z" fill="#966b53"/>
        <path id="Path_1902" data-name="Path 1902" d="M1230.626,2072.8c-.652-.388-1.222-.7-1.766-1.06a.8.8,0,0,1-.381-.887c.218-.9.452-1.8.683-2.694a2.806,2.806,0,0,1,.161-.332c.237.595.416,1.013.571,1.44.224.62.419,1.25.649,1.868A2.861,2.861,0,0,1,1230.626,2072.8Z" fill="#966b53"/>
        <path id="Path_1903" data-name="Path 1903" d="M1258.095,2127.848l.006,0-.018.012.006-.009,0-.007Z" fill="#966b53"/>
        <path id="Path_1904" data-name="Path 1904" d="M1259.512,2128.869c-.35.12-.606,0-.913-.421-.031-.043-.061-.083-.095-.126l.5-.065a.888.888,0,1,0-.477-1.69c-.064-.262-.126-.523-.184-.784-.086-.369-.151-.741-.224-1.113l.138-.055a3.273,3.273,0,0,1,.295.362c.43.71.87,1.417,1.27,2.146a2.073,2.073,0,0,1,.227.824A.781.781,0,0,1,1259.512,2128.869Z" fill="#966b53"/>
        <path id="Path_1905" data-name="Path 1905" d="M1228.655,2093.047c-.243.028-.483.046-.726.065" fill="none"/>
        <path id="Path_1906" data-name="Path 1906" d="M1228.67,2092.823v0h0Z" fill="#966b53"/>
        <path id="Path_1907" data-name="Path 1907" d="M1228.67,2092.823l0,0h0Z" fill="#966b53"/>
      </g>
      <g id="Group_1913" data-name="Group 1913">
        <path id="Path_1908" data-name="Path 1908" d="M1273.9,2084.149a1.568,1.568,0,0,0-1.211-.7c-1.45-.125-2.9-.186-4.359-.214-1.669-.033-3.334-.021-5-.009-2.163.017-4.33.025-6.485.167a12.618,12.618,0,0,0-5.3,1.3,7.62,7.62,0,0,0-1.2.786,1.21,1.21,0,0,1-.607.218,49.435,49.435,0,0,1-7.15.191,1.446,1.446,0,0,1-.9-.4c-.329-.268-.665-.535-1.017-.774h0a5.1,5.1,0,0,0-.713-.429h0s-.008-.008-.012-.008c-.333-.162-.673-.312-1.017-.45a15.507,15.507,0,0,0-1.665-.571,62.715,62.715,0,0,0-11.569-2.22,17.855,17.855,0,0,0-7.126.757q-1.781.578-3.585,1.078l-.008,0c-1.4.393-2.8.757-4.213,1.106-5.509,1.349-11.046,2.592-16.564,3.921-.571.138-1.138.276-1.709.413-4.995,1.207-9.986,2.443-14.976,3.666-.819.2-1.633.4-2.447.6l-.053.012a4.938,4.938,0,0,0-.5.19c.012.053.024.106.033.158.271-.024.538-.044.862-.068-.028.526.341.648.758.668a11.214,11.214,0,0,0,1.175-.037c.364-.02.729-.068,1.174-.113.162.729.644.895,1.228.952.393.036.842-.041,1.089.421.025.045.183.041.276.033.2-.021.4-.041.595-.073.045,0,.09-.008.134-.016.365-.057.725-.114,1.09-.175q4.041-.631,8.085-1.272c.3-.048.612-.093.916-.141q4.131-.645,8.259-1.268,4.7-.7,9.415-1.353a4.14,4.14,0,0,1,1.247.04c1.839.312,3.674.661,5.514.972.445.073.571.292.664.709.482,2.159,1,4.31,1.535,6.453a7.115,7.115,0,0,0,1.535,2.909c.381.45.77.9,1.122,1.369a6.869,6.869,0,0,0,4.294,2.653,23.286,23.286,0,0,0,5.716.462,10.68,10.68,0,0,0,7.357-3.127,15.528,15.528,0,0,0,3.22-4.9c.778-1.81,1.576-3.6,2.362-5.408a2.02,2.02,0,0,1,.854-.976,3.037,3.037,0,0,1,3.156-.024,3.953,3.953,0,0,1,1.333,1.235c.105.138.2.28.3.426.223.324.474.628.717.936s.491.6.738.9a1.992,1.992,0,0,0-.174-.741,2.824,2.824,0,0,1-.183-.855c0-.041,0-.077,0-.118a8.944,8.944,0,0,1,.981-4.1l.06-.11c.021-.036.041-.068.057-.1,1.3-2.179,1.649-2.73,4.825-3.058.858-.089,1.717-.15,2.572-.215,1.28-.1,2.56-.142,3.836-.121a42.533,42.533,0,0,1,4.922.348,1.469,1.469,0,0,1,.3.065,1.688,1.688,0,0,1,1.029.761,5.176,5.176,0,0,1,.6,1.09c.316.956.588,1.928.839,2.9a6.788,6.788,0,0,1-.142,3.853,22.558,22.558,0,0,1-1.92,4.934,12.457,12.457,0,0,1-1.669,2.22c-.186.194-.381.376-.583.55a7.288,7.288,0,0,1-2.727,1.471c-3,.855-5.825.745-8.288-1.458a.593.593,0,0,0-.109-.094,3.637,3.637,0,0,1-.6-.421,5.91,5.91,0,0,1-1.462-2.1,3.891,3.891,0,0,0-.215-.349c.061.256.122.511.191.762l0,.012c.218.523.413,1.053.591,1.592.114.344.211.689.3,1.041a3.025,3.025,0,0,0,.247.3,6.822,6.822,0,0,0,.859.8,8,8,0,0,0,3.569,1.487,10.465,10.465,0,0,0,7.947-1.722c.207-.15.41-.308.6-.474a9.8,9.8,0,0,0,2.208-2.657,38.573,38.573,0,0,0,2.754-5.781,54.852,54.852,0,0,0,2.107-6.676A4.628,4.628,0,0,0,1273.9,2084.149Zm-34.9,16.062a7.748,7.748,0,0,1-3.2,3.184,8.25,8.25,0,0,1-3.695,1.122,36.164,36.164,0,0,1-6.165-.543,5.436,5.436,0,0,1-2.629-1.56,11.028,11.028,0,0,1-2.273-2.977,2.791,2.791,0,0,1-.239-.616c-.466-1.729-.931-3.463-1.381-5.2a12.139,12.139,0,0,1-.3-1.6c-.04-.3-.069-.595-.089-.891a17.837,17.837,0,0,1-.02-2.094c.028-.669.085-1.341.162-2.014a.988.988,0,0,1,.016-.109,7.313,7.313,0,0,1,.486-1.572,1.353,1.353,0,0,1,1.122-.842,57.337,57.337,0,0,1,6.1-.64c1.2.125,2.394.222,3.585.388,1.142.158,2.276.389,3.415.58a12.784,12.784,0,0,1,3.52,1.061,7.173,7.173,0,0,1,3.536,3.314,4.617,4.617,0,0,1,.462,1.916A18.007,18.007,0,0,1,1238.993,2100.211Z"/>
      </g>
      <g id="Group_1914" data-name="Group 1914">
        <path id="Path_1909" data-name="Path 1909" d="M1227.321,2089.122c-.1.286-.375.381-.8.267a1.923,1.923,0,0,1-.336-.132c-.258-.132-.556-.252-.479-.63.052-.255.32-.4.768-.406a1.723,1.723,0,0,1,.357.052A.694.694,0,0,1,1227.321,2089.122Z" fill="#fff"/>
        <path id="Path_1910" data-name="Path 1910" d="M1259,2089.654a.489.489,0,0,1-.375.491.679.679,0,0,1-.2.028.573.573,0,0,1-.633-.556.107.107,0,0,1,0-.031.626.626,0,0,1,.664-.507A.58.58,0,0,1,1259,2089.654Z" fill="#fff"/>
      </g>
    </g>
    <g id="Group_1917" data-name="Group 1917">
      <g id="Group_1916" data-name="Group 1916">
        <path id="Path_1911" data-name="Path 1911" d="M1086.745,2265.294h28.238v-26.812h-28.238l4.706,13.406Z" fill="#fff" stroke="#000" stroke-linecap="round" stroke-linejoin="round" stroke-width="1"/>
        <path id="Path_1912" data-name="Path 1912" d="M1350.3,2238.481h-28.238v26.812H1350.3l-4.706-13.406Z" fill="#fff" stroke="#000" stroke-linecap="round" stroke-linejoin="round" stroke-width="1"/>
        <rect id="Rectangle_234" data-name="Rectangle 234" width="218.491" height="30.235" transform="translate(1109.279 2229.244)" fill="#fff" stroke="#000" stroke-linecap="round" stroke-linejoin="round" stroke-width="1"/>
      </g>
      <text id="Victor_Glushkov" data-name="Victor Glushkov" transform="translate(1218.523 2249.266)" font-size="17.114" font-family="Helvetica"><tspan x="-59.77" y="0">Victor Glushkov</tspan></text>
    </g>
  </g>
</svg>
