<svg width="75" height="41" viewBox="0 0 75 41" fill="none" xmlns="http://www.w3.org/2000/svg">
<g clip-path="url(#clip0_874_1243)">
<path d="M34.5663 40.33V23.26H17.5332V6.19H0.5V0.5H23.2109V17.57H40.2441V40.33H34.5663ZM0.5 17.57V40.33H23.2109V34.64H6.17772V17.57H0.5ZM45.9268 22.945H47.6331V19.935C47.6331 19.615 47.7079 19.35 47.8576 19.15C48.0073 18.95 48.2168 18.845 48.4813 18.845C48.7457 18.845 48.9303 18.925 49.05 19.08C49.1698 19.235 49.2346 19.465 49.2346 19.755V22.945H50.9409V19.935C50.9409 19.615 51.0158 19.35 51.1605 19.15C51.3051 18.95 51.5147 18.845 51.7891 18.845C52.0635 18.845 52.2381 18.925 52.3579 19.08C52.4826 19.235 52.5425 19.465 52.5425 19.755V22.945H54.2488V19.455C54.2488 19.155 54.2089 18.88 54.134 18.625C54.0542 18.375 53.9444 18.16 53.7948 17.98C53.6451 17.805 53.4555 17.665 53.226 17.565C52.9965 17.465 52.7321 17.42 52.4327 17.42C52.0835 17.42 51.7691 17.495 51.4848 17.645C51.2004 17.795 50.9559 18.035 50.7464 18.365H50.7264C50.5867 18.07 50.3921 17.84 50.1377 17.675C49.8832 17.505 49.5789 17.425 49.2197 17.425C48.8305 17.425 48.5012 17.51 48.2418 17.675C47.9823 17.845 47.7678 18.065 47.5982 18.345H47.5682V17.58H45.9368V22.95L45.9268 22.945ZM55.0022 16.83H56.7085V15.445H55.0022V16.83ZM55.0022 22.945H56.7085V17.575H55.0022V22.945ZM60.2508 22.98C60.4055 22.965 60.5252 22.945 60.6 22.92V21.67C60.5651 21.67 60.5152 21.67 60.4454 21.675C60.3755 21.675 60.3007 21.68 60.2259 21.68C60.0462 21.68 59.8966 21.645 59.7918 21.575C59.682 21.505 59.6321 21.365 59.6321 21.155V18.64H60.605V17.57H59.6321V15.87H57.9707V17.57H57.2573V18.64H57.9707V21.525C57.9707 21.81 58.0107 22.05 58.0955 22.245C58.1803 22.435 58.295 22.59 58.4497 22.7C58.6044 22.81 58.784 22.89 58.9885 22.935C59.1931 22.98 59.4226 23 59.6721 23C59.9016 23 60.0961 22.995 60.2508 22.975V22.98ZM45.9318 31.085H47.6381V28.075C47.6381 27.755 47.7129 27.49 47.8626 27.29C48.0123 27.085 48.2218 26.985 48.4862 26.985C48.7507 26.985 48.9353 27.065 49.055 27.22C49.1748 27.375 49.2396 27.605 49.2396 27.895V31.085H50.9459V28.075C50.9459 27.755 51.0208 27.49 51.1655 27.29C51.3101 27.085 51.5197 26.985 51.7941 26.985C52.0685 26.985 52.2431 27.065 52.3629 27.22C52.4876 27.375 52.5475 27.605 52.5475 27.895V31.085H54.2538V27.59C54.2538 27.29 54.2139 27.015 54.139 26.76C54.0592 26.51 53.9494 26.295 53.7998 26.115C53.6501 25.94 53.4605 25.8 53.231 25.7C53.0015 25.605 52.737 25.55 52.4377 25.55C52.0885 25.55 51.7741 25.625 51.4897 25.775C51.2054 25.925 50.9609 26.165 50.7513 26.495H50.7314C50.5917 26.2 50.3971 25.97 50.1427 25.8C49.8882 25.635 49.5839 25.545 49.2246 25.545C48.8355 25.545 48.5062 25.63 48.2468 25.8C47.9873 25.97 47.7728 26.19 47.6032 26.475H47.5732V25.71H45.9417V31.08L45.9318 31.085ZM58.5096 31.115C58.784 31.03 59.0334 30.91 59.2579 30.75C59.4924 30.59 59.692 30.4 59.8417 30.18C59.9964 29.96 60.1011 29.73 60.156 29.485H58.4896C58.4148 29.65 58.3 29.785 58.1553 29.88C58.0106 29.975 57.826 30.02 57.6015 30.02C57.2473 30.02 56.9729 29.915 56.7733 29.705C56.5787 29.495 56.454 29.21 56.3991 28.845H60.2508C60.2558 28.3 60.181 27.805 60.0263 27.35C59.8716 26.9 59.6321 26.525 59.3078 26.235C59.0783 26.025 58.8089 25.86 58.5096 25.74C58.2052 25.62 57.861 25.56 57.4768 25.56C57.0677 25.56 56.6935 25.635 56.3592 25.775C56.0249 25.915 55.7356 26.12 55.4911 26.37C55.2466 26.62 55.057 26.925 54.9273 27.27C54.7926 27.615 54.7277 27.99 54.7277 28.385C54.7277 28.78 54.7926 29.17 54.9273 29.515C55.062 29.865 55.2466 30.165 55.4911 30.425C55.7356 30.68 56.0349 30.88 56.3892 31.02C56.7434 31.165 57.1425 31.235 57.5816 31.235C57.9208 31.235 58.2302 31.195 58.5096 31.11V31.115ZM56.4091 27.82C56.464 27.5 56.5787 27.245 56.7534 27.055C56.928 26.865 57.1775 26.77 57.5067 26.77C57.7861 26.77 58.0156 26.865 58.1952 27.055C58.3749 27.245 58.4846 27.5 58.5196 27.82H56.4041H56.4091ZM63.9578 31.015C64.2272 30.86 64.4417 30.64 64.6014 30.36H64.6214V31.085H66.2528V23.585H64.5465V26.32H64.5166C64.3569 26.095 64.1574 25.915 63.9279 25.77C63.6983 25.625 63.394 25.555 63.0198 25.555C62.6706 25.555 62.3513 25.625 62.0669 25.765C61.7825 25.905 61.533 26.1 61.3285 26.35C61.1189 26.6 60.9593 26.895 60.8445 27.245C60.7298 27.595 60.6699 27.98 60.6699 28.4C60.6699 28.85 60.7298 29.25 60.8445 29.6C60.9593 29.955 61.1239 30.25 61.3335 30.495C61.543 30.74 61.7875 30.925 62.0769 31.055C62.3612 31.185 62.6756 31.25 63.0198 31.25C63.3741 31.25 63.6884 31.17 63.9578 31.015ZM62.6805 29.49C62.4959 29.215 62.4061 28.845 62.4061 28.375C62.4061 27.905 62.5009 27.55 62.6905 27.27C62.8801 26.985 63.1445 26.845 63.4838 26.845C63.6734 26.845 63.8331 26.885 63.9728 26.96C64.1075 27.035 64.2222 27.145 64.317 27.28C64.4118 27.415 64.4817 27.58 64.5266 27.775C64.5715 27.97 64.5914 28.175 64.5914 28.4C64.5914 28.84 64.4916 29.2 64.2921 29.485C64.0925 29.765 63.8181 29.905 63.4589 29.905C63.1246 29.905 62.8652 29.77 62.6805 29.495V29.49ZM66.9413 24.97H68.6476V23.585H66.9413V24.97ZM66.9413 31.085H68.6476V25.715H66.9413V31.085ZM72.0303 31.025C72.2798 30.89 72.4844 30.715 72.644 30.49H72.664C72.6839 30.63 72.7089 30.75 72.7388 30.855C72.7637 30.955 72.8037 31.035 72.8436 31.09H74.5V31.015C74.4252 30.965 74.3703 30.88 74.3503 30.755C74.3254 30.635 74.3154 30.465 74.3154 30.245V27.54C74.3154 27.205 74.2605 26.91 74.1458 26.65C74.036 26.39 73.8664 26.18 73.6319 26.01C73.4373 25.865 73.1978 25.755 72.9184 25.68C72.639 25.605 72.2998 25.57 71.8956 25.57C71.4915 25.57 71.1373 25.62 70.8379 25.715C70.5386 25.81 70.2891 25.945 70.0895 26.115C69.89 26.28 69.7403 26.48 69.6355 26.705C69.5307 26.93 69.4759 27.165 69.4659 27.42H71.0375C71.0674 27.195 71.1472 27.025 71.2869 26.905C71.4266 26.785 71.6312 26.725 71.9056 26.725C72.18 26.725 72.3496 26.775 72.4644 26.885C72.5791 26.99 72.639 27.13 72.639 27.305C72.639 27.48 72.5392 27.615 72.3347 27.69C72.1351 27.765 71.7809 27.84 71.277 27.9C70.9976 27.935 70.7331 27.99 70.4837 28.06C70.2342 28.13 70.0197 28.23 69.8301 28.36C69.6405 28.49 69.4958 28.655 69.3861 28.85C69.2763 29.05 69.2264 29.295 69.2264 29.59C69.2264 29.855 69.2713 30.09 69.3611 30.295C69.4509 30.495 69.5756 30.67 69.7403 30.81C69.8999 30.95 70.0945 31.055 70.319 31.125C70.5435 31.195 70.793 31.23 71.0574 31.23C71.4616 31.23 71.7859 31.165 72.0353 31.03L72.0303 31.025ZM71.0724 29.995C70.9327 29.905 70.8629 29.75 70.8629 29.535C70.8629 29.335 70.9377 29.18 71.0824 29.08C71.2271 28.98 71.4616 28.89 71.7909 28.81C71.9655 28.77 72.1301 28.725 72.2748 28.68C72.4245 28.635 72.5542 28.585 72.669 28.525V29.165C72.669 29.46 72.5692 29.695 72.3696 29.87C72.17 30.045 71.9106 30.135 71.5913 30.135C71.3817 30.135 71.2071 30.09 71.0674 30L71.0724 29.995ZM45.9218 40.335H47.6481V32.835H45.9218V40.335ZM51.0457 40.27C51.2952 40.14 51.4947 39.96 51.6594 39.735H51.6793C51.6993 39.875 51.7242 39.995 51.7542 40.095C51.7841 40.195 51.819 40.275 51.859 40.33H53.5104V40.255C53.4355 40.205 53.3807 40.12 53.3607 40C53.3358 39.875 53.3258 39.71 53.3258 39.49V36.785C53.3258 36.45 53.2709 36.15 53.1561 35.895C53.0464 35.635 52.8718 35.425 52.6423 35.255C52.4477 35.11 52.2082 35 51.9288 34.925C51.6494 34.855 51.3101 34.815 50.901 34.815C50.4919 34.815 50.1427 34.865 49.8433 34.96C49.544 35.055 49.2945 35.19 49.0949 35.36C48.8954 35.525 48.7457 35.725 48.6409 35.945C48.5361 36.17 48.4813 36.405 48.4763 36.66H50.0479C50.0778 36.435 50.1576 36.265 50.2973 36.145C50.437 36.025 50.6416 35.965 50.916 35.965C51.1754 35.965 51.36 36.02 51.4748 36.12C51.5895 36.225 51.6494 36.365 51.6494 36.54C51.6494 36.715 51.5446 36.85 51.3451 36.93C51.1455 37.005 50.7913 37.075 50.2873 37.14C50.008 37.175 49.7435 37.225 49.4991 37.295C49.2496 37.365 49.0351 37.465 48.8455 37.595C48.6559 37.725 48.5062 37.89 48.4014 38.09C48.2917 38.29 48.2368 38.535 48.2368 38.83C48.2368 39.095 48.2817 39.33 48.3715 39.53C48.4613 39.73 48.586 39.905 48.7457 40.045C48.9053 40.185 49.0999 40.29 49.3244 40.36C49.5539 40.43 49.7984 40.465 50.0628 40.465C50.467 40.465 50.7913 40.4 51.0407 40.265L51.0457 40.27ZM50.0878 39.245C49.9481 39.155 49.8782 39 49.8782 38.785C49.8782 38.58 49.9531 38.43 50.0978 38.33C50.2424 38.23 50.4819 38.14 50.8112 38.065C50.9858 38.025 51.1505 37.98 51.3002 37.935C51.4498 37.89 51.5796 37.84 51.6943 37.785V38.425C51.6943 38.72 51.5945 38.955 51.395 39.13C51.1954 39.305 50.9359 39.395 50.6166 39.395C50.4071 39.395 50.2325 39.35 50.0928 39.26L50.0878 39.245ZM58.305 40.31C58.5894 40.18 58.8289 39.995 59.0284 39.75C59.228 39.505 59.3827 39.205 59.4875 38.855C59.5972 38.5 59.6471 38.105 59.6471 37.655C59.6471 37.25 59.5922 36.875 59.4875 36.53C59.3777 36.185 59.223 35.885 59.0284 35.63C58.8289 35.375 58.5894 35.175 58.305 35.03C58.0206 34.885 57.7063 34.815 57.3571 34.815C56.9879 34.815 56.6835 34.885 56.444 35.025C56.1996 35.165 56 35.35 55.8304 35.58H55.8004V32.84H54.0941V40.34H55.7256V39.66H55.7455C55.9152 39.94 56.1347 40.15 56.4141 40.295C56.6935 40.44 57.0128 40.51 57.367 40.51C57.7213 40.51 58.0206 40.445 58.305 40.315V40.31ZM56.0499 38.735C55.8453 38.46 55.7455 38.095 55.7455 37.65C55.7455 37.205 55.8354 36.845 56.0249 36.55C56.2095 36.255 56.4889 36.11 56.8681 36.11C57.2174 36.11 57.4818 36.25 57.6564 36.53C57.836 36.81 57.9258 37.18 57.9258 37.64C57.9258 38.1 57.836 38.48 57.6564 38.745C57.4768 39.015 57.2224 39.15 56.8881 39.15C56.5338 39.15 56.2544 39.01 56.0499 38.735Z" fill="black"/>
</g>
<defs>
<clipPath id="clip0_874_1243">
<rect width="74" height="40" fill="white" transform="translate(0.5 0.5)"/>
</clipPath>
</defs>
</svg>
