<?xml version="1.0" encoding="utf-8"?>
<!-- Generator: Adobe Illustrator 24.0.1, SVG Export Plug-In . SVG Version: 6.00 Build 0)  -->
<svg version="1.1" id="Layer_1" xmlns="http://www.w3.org/2000/svg" xmlns:xlink="http://www.w3.org/1999/xlink" x="0px" y="0px"
	 viewBox="0 0 134.8 31.5" style="enable-background:new 0 0 134.8 31.5;" xml:space="preserve">
<style type="text/css">
	.st0{fill:#03A5ED;}
</style>
<g>
	<g>
		<rect x="15.3" y="15.9" class="st0" width="0.5" height="12.7"/>
	</g>
	<g>
		<rect x="28.4" y="2.9" class="st0" width="0.5" height="25.8"/>
	</g>
	<g>
		
			<rect x="-2.5" y="15.5" transform="matrix(0.7071 -0.7071 0.7071 0.7071 -6.5234 15.749)" class="st0" width="36.4" height="0.5"/>
	</g>
	<g>
		<rect x="2.9" y="28.4" class="st0" width="25.8" height="0.5"/>
	</g>
	<g>
		<rect x="13" y="22" transform="matrix(0.7168 -0.6973 0.6973 0.7168 -9.2788 21.7209)" class="st0" width="18.2" height="0.5"/>
	</g>
	<g>
		<path class="st0" d="M69.7,30.6c-1.1-3.1-2.2-5.9-3.2-8.6c-1-2.6-2-5.1-2.9-7.5c-0.9-2.4-1.9-4.7-2.8-6.8
			c-0.9-2.1-1.9-4.3-2.9-6.5L57.8,1h-4.3l-0.1,0.3c-1,2.1-2,4.3-2.9,6.4c-0.9,2.2-1.9,4.5-2.8,6.8c-0.9,2.4-1.9,4.9-2.9,7.5
			c-1,2.6-2,5.5-3.2,8.6l-0.2,0.5h5.1l2.7-7.3h12.7c0.4,0.8,0.8,2.3,1.2,3.4c0.4,1.3,0.9,2.5,1.4,3.7l0.1,0.2h5.3L69.7,30.6z
			 M60.4,19.7h-9.8c0.8-2.4,1.6-4.6,2.4-6.7c0.8-2,1.6-4,2.4-5.8c0.8,1.9,1.6,3.9,2.4,5.9C58.7,15.2,59.6,17.3,60.4,19.7z"/>
	</g>
	<g>
		<rect x="72.8" y="1" class="st0" width="4.9" height="30.1"/>
	</g>
	<g>
		<path class="st0" d="M104.1,30.6c-0.5-1.1-1.1-2.3-1.9-3.5c-0.7-1.2-1.5-2.4-2.2-3.5c-0.7-1.1-1.5-2.1-2.2-3.1
			c-0.5-0.7-1-1.3-1.4-1.8c1.8-0.7,3.2-1.7,4.2-3c1.1-1.4,1.6-3.2,1.6-5.2c0-3.2-1.1-5.6-3.4-7.3c-2.2-1.6-5.5-2.4-9.7-2.4
			c-1.2,0-2.5,0.1-3.9,0.1c-1.4,0.1-2.4,0.3-3.6,0.6l0,0.1v29.5h4.9V19.7h3.8c0.3,0,0.6,0,0.9,0c0.5,0.6,1.1,1.3,1.7,2.1
			c0.7,0.9,1.3,1.8,2,2.8c0.7,1,1.3,2.1,2,3.1c0.7,1.1,1.3,2.1,1.8,3.2l0.1,0.2h5.4L104.1,30.6z M96.6,13.1
			c-0.4,0.6-0.9,1.2-1.6,1.5c-0.7,0.4-1.6,0.7-2.7,0.8c-1.1,0.1-2.4,0.3-3.8,0.3h-1.8V5.3c0.8-0.1,1.8-0.1,3.3-0.1
			c1.1,0,1.9,0.1,2.9,0.2c0.9,0.2,1.6,0.4,2.3,0.8c0.7,0.4,1.1,0.9,1.5,1.6c0.4,0.7,0.6,1.5,0.6,2.5C97.2,11.5,97,12.4,96.6,13.1z"
			/>
	</g>
	<g>
		<path class="st0" d="M134.6,30.6c-1.1-3.1-2.2-5.9-3.2-8.6c-1-2.6-2-5.2-2.9-7.5c-0.9-2.4-1.9-4.7-2.8-6.8
			c-0.9-2.1-1.9-4.3-2.9-6.5L122.6,1h-4.3l-0.1,0.3c-1,2.1-2,4.3-2.9,6.4c-0.9,2.2-1.9,4.5-2.8,6.8c-0.9,2.3-1.9,4.9-2.9,7.5
			c-1,2.6-2,5.5-3.2,8.6l-0.2,0.5h5.1l2.7-7.3h12.7c0.4,0.8,0.8,2.3,1.2,3.4c0.4,1.3,0.9,2.4,1.4,3.7l0.1,0.2h5.3L134.6,30.6z
			 M125.3,19.7h-9.8c0.8-2.4,1.6-4.6,2.4-6.7c0.8-2,1.6-4,2.4-5.8c0.8,1.9,1.6,3.9,2.4,5.9C123.6,15.2,124.4,17.3,125.3,19.7z"/>
	</g>
	<g>
		<circle class="st0" cx="28.6" cy="28.6" r="2.9"/>
	</g>
	<g>
		<circle class="st0" cx="28.6" cy="2.9" r="2.9"/>
	</g>
	<g>
		<circle class="st0" cx="28.6" cy="15.7" r="2.9"/>
	</g>
	<g>
		<circle class="st0" cx="2.9" cy="28.6" r="2.9"/>
	</g>
	<g>
		<circle class="st0" cx="15.7" cy="28.6" r="2.9"/>
	</g>
	<g>
		<circle class="st0" cx="15.7" cy="15.9" r="2.9"/>
	</g>
</g>
</svg>
