<svg width="74" height="128" viewBox="0 0 74 128" fill="none" xmlns="http://www.w3.org/2000/svg">
<path d="M63.9276 0H10.0726C4.91844 0 0.757812 4.17929 0.757812 9.3241V118.685C0.757812 123.825 4.91844 128 10.0726 128H63.9276C69.0724 128 73.2423 123.825 73.2423 118.685V9.3241C73.2423 4.17929 69.0724 0 63.9276 0ZM23.7112 5.66256H50.2982C50.9699 5.66256 51.5156 6.6654 51.5156 7.90613C51.5156 9.14686 50.9699 10.1544 50.2982 10.1544H23.7112C23.0349 10.1544 22.4985 9.14686 22.4985 7.90613C22.4985 6.6654 23.0349 5.66256 23.7112 5.66256ZM37.0047 118.797C33.7257 118.797 31.0576 116.129 31.0576 112.845C31.0576 109.562 33.7257 106.903 37.0047 106.903C40.2745 106.903 42.9425 109.562 42.9425 112.845C42.9425 116.129 40.2745 118.797 37.0047 118.797ZM66.2644 98.4185H7.74039V15.733H66.2644V98.4185Z" fill="black"/>
</svg>
