<svg id="Group_87" data-name="Group 87" xmlns="http://www.w3.org/2000/svg" xmlns:xlink="http://www.w3.org/1999/xlink" width="393.714" height="629.766" viewBox="0 0 393.714 629.766">
  <defs>
    <clipPath id="clip-path">
      <rect id="Rectangle_78" data-name="Rectangle 78" width="70.765" height="70.765" transform="translate(62.157 35.132)" fill="none"/>
    </clipPath>
    <clipPath id="clip-path-2">
      <rect id="Rectangle_79" data-name="Rectangle 79" width="43.74" height="43.74" transform="translate(5.405)" fill="none"/>
    </clipPath>
    <clipPath id="clip-path-3">
      <rect id="Rectangle_80" data-name="Rectangle 80" width="27.525" height="27.525" transform="translate(0 24.322)" fill="none"/>
    </clipPath>
  </defs>
  <g id="Group_123" data-name="Group 123">
    <g id="Group_124" data-name="Group 124">
      <g id="Group_79" data-name="Group 79" opacity="0.73">
        <g id="Group_78" data-name="Group 78">
          <g id="Group_77" data-name="Group 77" clip-path="url(#clip-path)">
            <path id="Path_223" data-name="Path 223" d="M132.672,70.514A35.132,35.132,0,1,1,97.54,35.382a35.133,35.133,0,0,1,35.132,35.132" fill="#a6fcf6"/>
            <path id="Path_224" data-name="Path 224" d="M132.672,70.514A35.132,35.132,0,1,1,97.54,35.382,35.133,35.133,0,0,1,132.672,70.514Z" fill="none" stroke="#1717b0" stroke-linecap="round" stroke-linejoin="round" stroke-width="0.5"/>
          </g>
        </g>
      </g>
      <g id="Group_82" data-name="Group 82" opacity="0.73">
        <g id="Group_81" data-name="Group 81">
          <g id="Group_80" data-name="Group 80" clip-path="url(#clip-path-2)">
            <path id="Path_225" data-name="Path 225" d="M48.9,21.87A21.62,21.62,0,1,1,27.275.25,21.621,21.621,0,0,1,48.9,21.87" fill="#ceb0fa"/>
            <circle id="Ellipse_4" data-name="Ellipse 4" cx="21.62" cy="21.62" r="21.62" transform="translate(5.655 0.25)" fill="none" stroke="#1717b0" stroke-linecap="round" stroke-linejoin="round" stroke-width="0.5"/>
          </g>
        </g>
      </g>
      <g id="Group_85" data-name="Group 85" opacity="0.73">
        <g id="Group_84" data-name="Group 84">
          <g id="Group_83" data-name="Group 83" clip-path="url(#clip-path-3)">
            <path id="Path_226" data-name="Path 226" d="M27.275,38.084A13.512,13.512,0,1,1,13.763,24.571,13.512,13.512,0,0,1,27.275,38.084" fill="#a6fcf6"/>
            <path id="Path_227" data-name="Path 227" d="M27.275,38.084A13.512,13.512,0,1,1,13.763,24.571,13.512,13.512,0,0,1,27.275,38.084Z" fill="none" stroke="#1717b0" stroke-linecap="round" stroke-linejoin="round" stroke-width="0.5"/>
          </g>
        </g>
      </g>
      <rect id="Rectangle_81" data-name="Rectangle 81" width="393.714" height="629.766" fill="none"/>
    </g>
  </g>
</svg>
