<svg width="65" height="65" viewBox="0 0 65 65" fill="none" xmlns="http://www.w3.org/2000/svg">
<path d="M58.9858 32.9076C58.3141 29.9894 55.9271 27.8368 53.054 27.5164C46.252 26.7565 39.364 26.7529 32.5097 26.7565C25.6525 26.7529 18.7659 26.7565 11.9618 27.5164C9.09014 27.8375 6.70453 29.9901 6.03358 32.9076C5.07733 37.0631 5.06586 41.5992 5.06586 45.8779C5.06586 50.1567 5.06586 54.6921 6.02211 58.8476C6.69306 61.7651 9.07867 63.9177 11.9517 64.2388C18.7544 64.9994 25.641 65.0023 32.4975 64.9994C39.3547 65.003 46.2399 64.9994 53.0447 64.2388C55.9163 63.9177 58.3034 61.7651 58.9743 58.8476C59.9299 54.6921 59.9349 50.1567 59.9349 45.8779C59.9342 41.5985 59.9413 37.0631 58.9858 32.9076ZM20.7164 36.1283H16.7452V57.2304H13.0564V36.1283H9.15752V32.6718H20.7164V36.1283ZM30.7355 57.2311H27.4173V55.2347C26.0991 56.7458 24.8475 57.4827 23.6282 57.4827C22.5594 57.4827 21.8239 57.0497 21.492 56.1229C21.3114 55.5695 21.1996 54.6935 21.1996 53.4018V38.9319H24.5149V52.4047C24.5149 53.1817 24.5149 53.5853 24.545 53.6943C24.6246 54.2089 24.8762 54.4699 25.3206 54.4699C25.9858 54.4699 26.6812 53.9573 27.4166 52.9172V38.9319H30.7348L30.7355 57.2311ZM43.3324 51.7388C43.3324 53.4312 43.2184 54.6505 42.9969 55.4261C42.5539 56.7874 41.6672 57.4827 40.3482 57.4827C39.1683 57.4827 38.03 56.8275 36.9211 55.4584V57.2318H33.6057V32.6718H36.9211V40.6924C37.992 39.3742 39.1289 38.7075 40.3482 38.7075C41.6672 38.7075 42.5546 39.4021 42.9969 40.772C43.2198 41.5082 43.3324 42.7182 43.3324 44.4507V51.7388ZM55.8461 48.6858H49.2147V51.9294C49.2147 53.6233 49.7688 54.4692 50.9086 54.4692C51.725 54.4692 52.2003 54.0254 52.3895 53.1394C52.4204 52.9595 52.4641 52.2226 52.4641 50.8929H55.8468V51.3767C55.8468 52.4455 55.806 53.1817 55.7758 53.5129C55.6647 54.2469 55.4038 54.9129 55.0017 55.4992C54.0834 56.8282 52.7229 57.4834 50.991 57.4834C49.2563 57.4834 47.9359 56.8591 46.9775 55.6096C46.2743 54.6935 45.913 53.2513 45.913 51.3065V44.8973C45.913 42.9411 46.2334 41.5103 46.938 40.5856C47.8957 39.3333 49.2154 38.7096 50.9093 38.7096C52.573 38.7096 53.892 39.3333 54.821 40.5856C55.5156 41.5103 55.8475 42.9411 55.8475 44.8973V48.6858H55.8461Z" fill="black"/>
<path d="M50.8792 41.6929C49.7709 41.6929 49.2154 42.5394 49.2154 44.2312V45.9243H52.5307V44.2312C52.53 42.5394 51.9759 41.6929 50.8792 41.6929Z" fill="black"/>
<path d="M38.5741 41.6929C38.0279 41.6929 37.4745 41.9509 36.9203 42.4993V53.6525C37.4737 54.2073 38.0279 54.4697 38.5741 54.4697C39.5303 54.4697 40.0163 53.6525 40.0163 52.0002V44.1896C40.0163 42.5394 39.5303 41.6929 38.5741 41.6929Z" fill="black"/>
<path d="M40.4264 25.0698C41.6486 25.0698 42.9202 24.3271 44.2543 22.7988V24.816H47.6054V6.32251H44.2543V20.457C43.5116 21.5064 42.8077 22.0254 42.1375 22.0254C41.6887 22.0254 41.4249 21.7602 41.3518 21.2405C41.3109 21.1308 41.3109 20.7229 41.3109 19.938V6.32251H37.9705V20.9458C37.9705 22.2519 38.0823 23.1358 38.2673 23.6956C38.6042 24.6325 39.3475 25.0698 40.4264 25.0698Z" fill="black"/>
<path d="M17.0971 14.7653V24.8159H20.8132V14.7653L25.2833 0H21.5257L18.9903 9.7453L16.3523 0H12.442C13.2255 2.30031 14.0405 4.61208 14.824 6.91454C16.0161 10.3754 16.7602 12.9847 17.0971 14.7653Z" fill="black"/>
<path d="M30.2638 25.0698C31.9427 25.0698 33.2473 24.4383 34.1727 23.1766C34.8759 22.2512 35.2128 20.7932 35.2128 18.8276V12.3518C35.2128 10.3748 34.8766 8.92964 34.1727 7.99561C33.2473 6.7304 31.9434 6.09888 30.2638 6.09888C28.5936 6.09888 27.2897 6.7304 26.3621 7.99561C25.6503 8.92964 25.3134 10.3748 25.3134 12.3518V18.8276C25.3134 20.7932 25.6503 22.2512 26.3621 23.1766C27.289 24.4383 28.5936 25.0698 30.2638 25.0698ZM28.6646 11.6801C28.6646 9.96904 29.1836 9.11601 30.2638 9.11601C31.3441 9.11601 31.8617 9.96833 31.8617 11.6801V19.4592C31.8617 21.1702 31.3441 22.0261 30.2638 22.0261C29.1836 22.0261 28.6646 21.1702 28.6646 19.4592V11.6801Z" fill="black"/>
</svg>
