<svg width="91" height="91" viewBox="0 0 91 91" fill="none" xmlns="http://www.w3.org/2000/svg">
<rect x="0.388489" y="0.178818" width="90.1154" height="90.1154" fill="#634ACB"/>
<g clip-path="url(#clip0_23_3963)">
<path d="M65.0422 26.605C61.3901 24.8997 57.4826 23.6574 53.3971 22.9553C52.8942 23.8581 52.3061 25.0772 51.9037 26.0417C47.5629 25.3936 43.2608 25.3936 38.9974 26.0417C38.595 25.0772 37.9915 23.8581 37.4886 22.9553C33.4031 23.6574 29.4879 24.9074 25.8357 26.6127C18.4618 37.716 16.4654 48.5493 17.4636 59.2282C22.3538 62.8702 27.0892 65.077 31.7472 66.5276C32.9002 64.9458 33.9215 63.2714 34.8036 61.5045C33.1245 60.864 31.5074 60.077 29.9831 59.1665C30.3854 58.8656 30.78 58.557 31.1669 58.2329C40.4521 62.5616 50.5497 62.5616 59.7265 58.2329C60.1134 58.557 60.508 58.8656 60.9103 59.1665C59.386 60.0847 57.7689 60.8718 56.0821 61.5122C56.9641 63.2792 57.9855 64.9612 59.1384 66.5353C63.7965 65.0847 68.5396 62.8779 73.4298 59.236C74.5982 46.8595 71.4258 36.1265 65.0422 26.6127V26.605ZM36.0726 52.6619C33.287 52.6619 30.9967 50.0693 30.9967 46.9058C30.9967 43.7422 33.2329 41.1419 36.0726 41.1419C38.9123 41.1419 41.1949 43.7345 41.1485 46.9058C41.1485 50.0693 38.9123 52.6619 36.0726 52.6619ZM54.8286 52.6619C52.043 52.6619 49.7527 50.0693 49.7527 46.9058C49.7527 43.7422 51.9889 41.1419 54.8286 41.1419C57.6683 41.1419 59.9509 43.7345 59.9044 46.9058C59.9044 50.0693 57.6683 52.6619 54.8286 52.6619Z" fill="white"/>
</g>
<defs>
<clipPath id="clip0_23_3963">
<rect width="56.4459" height="43.5723" fill="white" transform="translate(17.2236 22.9553)"/>
</clipPath>
</defs>
</svg>
