<svg xmlns="http://www.w3.org/2000/svg" width="142.955" height="101.199" viewBox="0 0 142.955 101.199">
  <path id="youtube" d="M3.154,88.242a17.957,17.957,0,0,0,12.318,12.483c14.547,3.962,96.083,3.974,110.848,0,10.112-2.925,11.97-11.893,12.318-12.483,3.85-20.484,4.1-47.19-.177-70.434l.177,1.156A17.957,17.957,0,0,0,126.32,6.482c-14.352-3.9-96.1-4.045-110.848,0C5.359,9.412,3.5,18.375,3.154,18.964a190.867,190.867,0,0,0,0,69.278ZM56.729,75.134v-43L93.677,53.665Z" transform="translate(0.63 -3.003)" fill="#75fbfd" stroke="#000" stroke-width="1"/>
</svg>
