<svg xmlns="http://www.w3.org/2000/svg" width="117.228" height="94.912" viewBox="0 0 117.228 94.912">
  <path id="twitter" d="M115.583,59.118A49.4,49.4,0,0,1,101.93,62.86a23.563,23.563,0,0,0,10.424-13.1A47.355,47.355,0,0,1,97.329,55.5,23.694,23.694,0,0,0,56.34,71.7a24.4,24.4,0,0,0,.549,5.4A67.071,67.071,0,0,1,8.047,52.32a23.7,23.7,0,0,0,7.282,31.67A23.4,23.4,0,0,1,4.623,81.071v.26a23.8,23.8,0,0,0,18.985,23.283,23.65,23.65,0,0,1-6.213.78,20.952,20.952,0,0,1-4.486-.4A23.921,23.921,0,0,0,35.051,121.5,47.612,47.612,0,0,1,5.671,131.6,44.383,44.383,0,0,1,0,131.278a66.709,66.709,0,0,0,36.351,10.634c43.6,0,67.443-36.12,67.443-67.429,0-1.047-.036-2.059-.087-3.063A47.272,47.272,0,0,0,115.583,59.118Z" transform="translate(0.271 -47.5)" fill="#75fbfd" stroke="#000" stroke-width="1"/>
</svg>
