<svg width="91" height="91" viewBox="0 0 91 91" fill="none" xmlns="http://www.w3.org/2000/svg">
<rect y="0.178787" width="90.1154" height="90.1154" fill="#0AC4FF"/>
<g clip-path="url(#clip0_23_4026)">
<path d="M76.2518 25.963C73.9064 26.982 71.4242 27.6635 68.8833 27.9751C71.561 26.3914 73.5611 23.8859 74.5123 20.9327C72.004 22.4126 69.2612 23.4576 66.4011 24.0223C61.5735 18.8881 53.4819 18.622 48.322 23.4316C45.742 25.8397 44.2762 29.2083 44.2762 32.7328C44.2631 33.7064 44.3674 34.68 44.5759 35.6341C34.2822 35.1344 24.6986 30.2858 18.2097 22.3087C14.7893 28.1309 16.5158 35.5952 22.1382 39.3403C20.112 39.2884 18.1315 38.7497 16.3594 37.7696V37.9124C16.3594 43.9747 20.6463 49.2062 26.6075 50.433C25.513 50.7186 24.3859 50.8614 23.2523 50.8549C22.4379 50.8679 21.63 50.7965 20.8287 50.6407C22.5226 55.8203 27.3111 59.3772 32.7837 59.52C28.2558 63.0444 22.6724 64.9592 16.9262 64.9527C15.9034 64.9592 14.8805 64.9008 13.8642 64.7775C19.7146 68.5291 26.5293 70.5153 33.4873 70.4958C57.0195 70.4958 69.8931 51.0691 69.8931 34.2321C69.8931 33.6675 69.8736 33.1222 69.8475 32.5835C72.3688 30.7856 74.5448 28.5398 76.2583 25.9695L76.2518 25.963Z" fill="white"/>
</g>
<defs>
<clipPath id="clip0_23_4026">
<rect width="62.3876" height="50.5043" fill="white" transform="translate(13.8642 19.9844)"/>
</clipPath>
</defs>
</svg>
