<svg xmlns="http://www.w3.org/2000/svg" width="138.934" height="105.665" viewBox="0 0 138.934 105.665">
  <path id="Path_6784" data-name="Path 6784" d="M138.3,72.378c-.725-17.483-4.882-34.892-13.139-50.369-2.189-4.1-4.717-8.015-7.148-11.982a3.476,3.476,0,0,0-1.486-1.244A113.613,113.613,0,0,0,90.08.544a1.234,1.234,0,0,0-1.566.809c-.838,1.782-1.8,3.506-2.558,5.318-.392.922-.875,1.087-1.812,1.025a168.955,168.955,0,0,0-28.769-.022c-1.039.1-1.581-.062-2.017-1.109-.75-1.815-1.746-3.524-2.595-5.3A1.161,1.161,0,0,0,49.278.544,113.741,113.741,0,0,0,22.7,8.826,3.479,3.479,0,0,0,21.328,10C7.761,30.386-1.5,56.575.87,81.374c.168,1.768.271,3.554.542,5.31a2.8,2.8,0,0,0,.93,1.724A113.5,113.5,0,0,0,35.1,105.049c.867.278,1.376.2,1.877-.611,2.229-3.6,4.516-7.173,6.851-10.859-4.081-1.976-7.858-3.8-11.689-5.658,1.742-2.35,2.485-2.54,4.725-1.6,21.82,9.186,43.646,9.307,65.477.04,2.4-1.017,2.763-.937,4.776,1.449-1.918,1.01-3.759,2.046-5.658,2.957-1.874.908-3.81,1.691-5.995,2.646,1.947,3.191,3.74,6.277,5.669,9.274,1.8,2.792,1.863,2.77,4.992,1.716a112.428,112.428,0,0,0,30.859-15.986,2.823,2.823,0,0,0,.941-1.727,75.736,75.736,0,0,0,.37-14.313M55.141,68.392a11.319,11.319,0,0,1-16.158.384c-6.064-5.585-5.954-16.118.227-21.571,6.449-5.691,16.231-2.8,19.133,5.717a42.084,42.084,0,0,1,1.083,5.083,15.64,15.64,0,0,1-4.286,10.386m45.755-.007a11.355,11.355,0,0,1-16.356.223,15,15,0,0,1,.081-21.121c6.383-6.039,16.44-3.25,19.455,5.413a17.871,17.871,0,0,1,.688,2.723,19.783,19.783,0,0,1,.179,2.13A14.6,14.6,0,0,1,100.9,68.385" transform="translate(0.008 -0.006)" fill="#75fbfd" stroke="#000" stroke-width="1" fill-rule="evenodd"/>
</svg>
