<svg width="91" height="91" viewBox="0 0 91 91" fill="none" xmlns="http://www.w3.org/2000/svg">
<rect x="0.298279" width="90.1154" height="90.1154" fill="#DA2142"/>
<g clip-path="url(#clip0_23_3967)">
<path d="M16.5065 59.7785C17.2118 62.338 19.2043 64.3435 21.7631 65.0821C27.967 66.7644 62.7501 66.7695 69.0467 65.0821C71.6003 64.3383 73.5876 62.3328 74.3033 59.7785C75.9456 51.0744 76.0537 39.7236 74.226 29.8449L74.3033 30.3373C73.5979 27.7779 71.6055 25.7724 69.0467 25.0338C62.92 23.3771 28.0494 23.3156 21.7579 25.0338C19.2043 25.7775 17.217 27.783 16.5065 30.3373C14.6994 40.0673 14.6994 50.0486 16.5065 59.7785ZM39.3606 54.2083V35.9332L55.12 45.0836L39.3606 54.2083Z" fill="white"/>
</g>
<defs>
<clipPath id="clip0_23_3967">
<rect width="60.4071" height="42.582" fill="white" transform="translate(15.1526 23.7668)"/>
</clipPath>
</defs>
</svg>
