<svg width="58" height="58" viewBox="0 0 58 58" fill="none" xmlns="http://www.w3.org/2000/svg">
<g clip-path="url(#clip0_2001_4673)">
<path d="M25.7527 30.557C25.7527 32.8833 24.086 34.7763 21.9905 34.7763C19.9278 34.7763 18.2283 32.8833 18.2283 30.557C18.2283 28.2318 19.895 26.3376 21.9905 26.3376C24.1018 26.3376 25.7855 28.2487 25.7527 30.557Z" fill="black"/>
<path d="M39.662 30.557C39.662 32.8833 38.0123 34.7763 35.8998 34.7763C33.8371 34.7763 32.1376 32.8833 32.1376 30.557C32.1376 28.2318 33.8043 26.3376 35.8998 26.3376C38.0123 26.3376 39.6948 28.2487 39.662 30.557Z" fill="black"/>
<path d="M51.7327 0H6.2673C2.80609 0 0 2.80609 0 6.2673V51.7327C0 55.1939 2.80609 58 6.2673 58H51.7327C55.1939 58 58 55.1939 58 51.7327V6.2673C58 2.80609 55.1939 0 51.7327 0ZM49.6824 39.5341C49.6802 39.5726 49.6598 39.6066 49.6281 39.6303C46.0481 42.2599 42.579 43.8564 39.1585 44.9144C39.1042 44.9313 39.0453 44.911 39.0125 44.8646C38.2216 43.7648 37.5043 42.605 36.8751 41.3875C36.8389 41.3162 36.8717 41.2302 36.9464 41.202C38.0858 40.772 39.1709 40.256 40.213 39.6473C40.2956 39.5986 40.3013 39.481 40.2243 39.4244C40.0037 39.2603 39.7842 39.0872 39.5749 38.9141C39.5353 38.8824 39.4821 38.8756 39.438 38.8982C32.6671 42.0257 25.2503 42.0257 18.4002 38.8982C18.355 38.8779 18.3018 38.8847 18.2645 38.9163C18.0551 39.0883 17.8356 39.2603 17.6161 39.4244C17.5403 39.481 17.5471 39.5986 17.6286 39.6473C18.6718 40.2447 19.7558 40.772 20.894 41.2031C20.9687 41.2314 21.0038 41.3162 20.9676 41.3875C20.352 42.6073 19.6336 43.767 18.8291 44.8657C18.794 44.911 18.7363 44.9313 18.682 44.9144C15.2773 43.8564 11.8093 42.2599 8.2293 39.6303C8.19875 39.6066 8.17725 39.5703 8.17386 39.5319C7.44518 31.7212 8.93196 23.8133 14.3586 15.705C14.3721 15.6835 14.3914 15.6666 14.4151 15.6575C17.0843 14.431 19.9458 13.5292 22.9352 13.0144C22.9907 13.0064 23.045 13.0313 23.0721 13.0789C23.4421 13.734 23.8642 14.5724 24.1504 15.2581C27.3016 14.7772 30.5026 14.7772 33.7206 15.2581C34.0057 14.5871 34.413 13.734 34.7819 13.0789C34.8091 13.0291 34.8634 13.0042 34.9188 13.0144C37.9093 13.5314 40.7709 14.4332 43.4389 15.6575C43.4627 15.6666 43.4819 15.6835 43.4932 15.7073C48.2206 22.6603 50.556 30.5037 49.6824 39.5341Z" fill="black"/>
</g>
<defs>
<clipPath id="clip0_2001_4673">
<rect width="58" height="58" fill="white"/>
</clipPath>
</defs>
</svg>
