<svg width="39" height="39" viewBox="0 0 39 39" fill="none" xmlns="http://www.w3.org/2000/svg">
<g clip-path="url(#clip0_1280_7963)">
<path fill-rule="evenodd" clip-rule="evenodd" d="M0.672414 39H38.3276C38.5059 39 38.6769 38.9292 38.8031 38.8031C38.9292 38.677 39 38.5059 39 38.3276V11.431C39.0001 11.3125 38.9688 11.196 38.9093 11.0935C38.8498 10.991 38.7641 10.906 38.6611 10.8474L33.6207 7.96676V2.01724C33.6207 1.8389 33.5498 1.66787 33.4237 1.54177C33.2976 1.41567 33.1266 1.34483 32.9483 1.34483H26.8966C26.7182 1.34483 26.5472 1.41567 26.4211 1.54177C26.295 1.66787 26.2241 1.8389 26.2241 2.01724V3.73862L19.8335 0.0887567C19.732 0.0305784 19.617 -3.05176e-05 19.5 -3.05176e-05C19.383 -3.05176e-05 19.268 0.0305784 19.1665 0.0887567L0.338897 10.8474C0.23587 10.906 0.150231 10.991 0.0906995 11.0935C0.0311685 11.196 -0.000126928 11.3125 3.86904e-07 11.431V38.3276C3.86904e-07 38.5059 0.0708437 38.677 0.196946 38.8031C0.323048 38.9292 0.494079 39 0.672414 39ZM3.36207 37.6552V14.217H1.34483V37.6552H3.36207ZM4.7069 13.9324V37.6552H12.1034V29.5787L9.73655 27.7384C9.38041 28.0504 8.92561 28.2268 8.45222 28.2365C7.97882 28.2462 7.51719 28.0885 7.14859 27.7913C6.78 27.4941 6.52808 27.0764 6.43718 26.6117C6.34629 26.147 6.42224 25.6652 6.65169 25.251C6.88113 24.8368 7.24934 24.5168 7.69149 24.3474C8.13364 24.178 8.62138 24.17 9.06884 24.3249C9.5163 24.4797 9.89479 24.7875 10.1377 25.1939C10.3805 25.6004 10.4722 26.0795 10.3966 26.5469L13.189 28.7191C13.2698 28.7819 13.3351 28.8623 13.3801 28.9542C13.425 29.0462 13.4483 29.1471 13.4483 29.2495V37.6552H15.4655V22.4683L13.6452 20.6479C13.2158 20.853 12.7277 20.8997 12.2672 20.7797C11.8067 20.6597 11.4035 20.3808 11.1288 19.9922C10.8541 19.6037 10.7255 19.1305 10.7659 18.6564C10.8063 18.1823 11.013 17.7377 11.3495 17.4012C11.686 17.0647 12.1306 16.858 12.6047 16.8176C13.0788 16.7773 13.552 16.9058 13.9405 17.1805C14.329 17.4552 14.6079 17.8585 14.7279 18.3189C14.8479 18.7794 14.8013 19.2675 14.5962 19.6969L16.6135 21.7141C16.6759 21.7765 16.7255 21.8507 16.7593 21.9323C16.7931 22.0139 16.8104 22.1013 16.8103 22.1897V37.6552H18.8276V18.0401C18.3789 17.8814 18.0008 17.5693 17.76 17.1589C17.5193 16.7484 17.4313 16.2661 17.5118 15.7971C17.5923 15.3281 17.836 14.9026 18.1998 14.5959C18.5636 14.2892 19.0241 14.1209 19.5 14.1209C19.9759 14.1209 20.4364 14.2892 20.8002 14.5959C21.164 14.9026 21.4077 15.3281 21.4882 15.7971C21.5687 16.2661 21.4807 16.7484 21.24 17.1589C20.9992 17.5693 20.6211 17.8814 20.1724 18.0401V37.6552H22.1897V22.1897C22.1896 22.1013 22.2069 22.0139 22.2407 21.9323C22.2745 21.8507 22.3241 21.7765 22.3865 21.7141L24.4038 19.6969C24.1987 19.2675 24.1521 18.7794 24.2721 18.3189C24.3921 17.8585 24.671 17.4552 25.0595 17.1805C25.448 16.9058 25.9212 16.7773 26.3953 16.8176C26.8695 16.858 27.314 17.0647 27.6505 17.4012C27.987 17.7377 28.1937 18.1823 28.2341 18.6564C28.2745 19.1305 28.1459 19.6037 27.8712 19.9922C27.5965 20.3808 27.1933 20.6597 26.7328 20.7797C26.2723 20.8997 25.7842 20.853 25.3548 20.6479L23.5345 22.4683V37.6552H25.5517V29.25C25.5515 29.1476 25.5749 29.0465 25.6199 28.9546C25.6649 28.8626 25.7305 28.7822 25.8115 28.7196L28.6034 26.5469C28.5267 26.0774 28.6182 25.596 28.8618 25.1874C29.1053 24.7788 29.4853 24.4693 29.9347 24.3134C30.3842 24.1576 30.8742 24.1654 31.3184 24.3355C31.7626 24.5055 32.1326 24.827 32.363 25.2431C32.5934 25.6592 32.6696 26.1434 32.578 26.6101C32.4864 27.0769 32.233 27.4964 31.8624 27.7946C31.4919 28.0928 31.0279 28.2507 30.5523 28.2403C30.0768 28.2299 29.6201 28.052 29.2629 27.7379L26.896 29.5781V37.6552H34.2931V13.9324L19.5 5.48152L4.7069 13.9346V13.9324ZM37.6552 14.2148H35.6379V37.6552H37.6552V14.217V14.2148ZM8.40517 25.5517C8.53816 25.5517 8.66817 25.5912 8.77875 25.665C8.88932 25.7389 8.97551 25.8439 9.0264 25.9668C9.0773 26.0897 9.09061 26.2249 9.06467 26.3553C9.03872 26.4858 8.97468 26.6056 8.88064 26.6996C8.7866 26.7936 8.66679 26.8577 8.53635 26.8836C8.40592 26.9096 8.27072 26.8963 8.14785 26.8454C8.02498 26.7945 7.91997 26.7083 7.84608 26.5977C7.77219 26.4871 7.73276 26.3571 7.73276 26.2241C7.73276 26.0458 7.8036 25.8748 7.9297 25.7487C8.05581 25.6226 8.22684 25.5517 8.40517 25.5517ZM30.5948 25.5517C30.7278 25.5517 30.8578 25.5912 30.9684 25.665C31.079 25.7389 31.1652 25.8439 31.2161 25.9668C31.267 26.0897 31.2803 26.2249 31.2543 26.3553C31.2284 26.4858 31.1643 26.6056 31.0703 26.6996C30.9763 26.7936 30.8564 26.8577 30.726 26.8836C30.5956 26.9096 30.4604 26.8963 30.3375 26.8454C30.2146 26.7945 30.1096 26.7083 30.0357 26.5977C29.9618 26.4871 29.9224 26.3571 29.9224 26.2241C29.9224 26.0458 29.9933 25.8748 30.1194 25.7487C30.2455 25.6226 30.4165 25.5517 30.5948 25.5517ZM12.7759 18.1552C12.9089 18.1552 13.0389 18.1946 13.1494 18.2685C13.26 18.3424 13.3462 18.4474 13.3971 18.5703C13.448 18.6931 13.4613 18.8283 13.4354 18.9588C13.4094 19.0892 13.3454 19.209 13.2513 19.3031C13.1573 19.3971 13.0375 19.4611 12.907 19.4871C12.7766 19.513 12.6414 19.4997 12.5185 19.4488C12.3957 19.3979 12.2907 19.3117 12.2168 19.2012C12.1429 19.0906 12.1034 18.9606 12.1034 18.8276C12.1034 18.6493 12.1743 18.4782 12.3004 18.3521C12.4265 18.226 12.5975 18.1552 12.7759 18.1552ZM26.2241 18.1552C26.3571 18.1552 26.4871 18.1946 26.5977 18.2685C26.7083 18.3424 26.7945 18.4474 26.8454 18.5703C26.8963 18.6931 26.9096 18.8283 26.8836 18.9588C26.8577 19.0892 26.7936 19.209 26.6996 19.3031C26.6056 19.3971 26.4858 19.4611 26.3553 19.4871C26.2249 19.513 26.0897 19.4997 25.9668 19.4488C25.8439 19.3979 25.7389 19.3117 25.665 19.2012C25.5912 19.0906 25.5517 18.9606 25.5517 18.8276C25.5517 18.6493 25.6226 18.4782 25.7487 18.3521C25.8748 18.226 26.0458 18.1552 26.2241 18.1552ZM19.5 15.4655C19.633 15.4655 19.763 15.505 19.8736 15.5788C19.9842 15.6527 20.0703 15.7577 20.1212 15.8806C20.1721 16.0035 20.1854 16.1387 20.1595 16.2691C20.1335 16.3995 20.0695 16.5194 19.9755 16.6134C19.8814 16.7074 19.7616 16.7715 19.6312 16.7974C19.5007 16.8234 19.3655 16.8101 19.2427 16.7592C19.1198 16.7083 19.0148 16.6221 18.9409 16.5115C18.867 16.4009 18.8276 16.2709 18.8276 16.1379C18.8276 15.9596 18.8984 15.7886 19.0245 15.6625C19.1506 15.5364 19.3217 15.4655 19.5 15.4655ZM27.569 4.5084L28.5749 5.08345C28.6516 5.12724 28.7189 5.18572 28.773 5.25553C28.8271 5.32534 28.8669 5.40511 28.8901 5.49031C28.9134 5.5755 28.9196 5.66444 28.9085 5.75204C28.8974 5.83965 28.8691 5.92421 28.8253 6.00089C28.7815 6.07757 28.723 6.14487 28.6532 6.19896C28.5834 6.25304 28.5036 6.29285 28.4184 6.3161C28.3333 6.33935 28.2443 6.3456 28.1567 6.33448C28.0691 6.32336 27.9845 6.29509 27.9079 6.2513L19.5 1.44703L1.34483 11.821V12.8722H3.85589L19.1665 4.12324C19.268 4.06506 19.383 4.03445 19.5 4.03445C19.617 4.03445 19.732 4.06506 19.8335 4.12324L35.1446 12.8722H37.6552V11.821L32.6148 8.94095C32.4905 8.86982 32.3921 8.76086 32.3341 8.62994C32.276 8.49903 32.2613 8.353 32.292 8.21313C32.2816 8.16578 32.2764 8.11744 32.2764 8.06896V2.68965H27.569V4.5084Z" fill="black"/>
</g>
<defs>
<clipPath id="clip0_1280_7963">
<rect width="39" height="39" fill="white"/>
</clipPath>
</defs>
</svg>
