<svg xmlns="http://www.w3.org/2000/svg" width="38.701" height="29.607" viewBox="0 0 38.701 29.607">
  <path id="Path_1995" data-name="Path 1995" d="M893.956,2604.493a32.05,32.05,0,0,0-3.59-13.762c-.6-1.121-1.289-2.191-1.953-3.274a.959.959,0,0,0-.406-.341,31,31,0,0,0-7.225-2.25.335.335,0,0,0-.428.221c-.23.486-.492.958-.7,1.453-.106.252-.239.3-.495.279a46.264,46.264,0,0,0-7.861-.006c-.284.028-.432-.017-.551-.3-.2-.5-.477-.963-.709-1.448a.317.317,0,0,0-.406-.2,31.035,31.035,0,0,0-7.261,2.264.948.948,0,0,0-.376.32c-3.707,5.571-6.237,12.726-5.59,19.5.046.484.074.971.148,1.452a.775.775,0,0,0,.254.471,31.024,31.024,0,0,0,8.952,4.546c.237.076.376.056.513-.167.61-.984,1.235-1.959,1.873-2.967l-3.2-1.546c.476-.642.679-.694,1.292-.436a22.1,22.1,0,0,0,17.89.01c.656-.278.755-.256,1.3.4-.524.276-1.026.559-1.545.808s-1.042.462-1.639.723c.532.873,1.023,1.715,1.549,2.534.491.764.509.757,1.364.469a30.684,30.684,0,0,0,8.432-4.368.768.768,0,0,0,.257-.472A20.7,20.7,0,0,0,893.956,2604.493Zm-22.722-1.089a3.094,3.094,0,0,1-4.415.106,4.089,4.089,0,0,1,.063-5.9,3.231,3.231,0,0,1,5.227,1.563,11.663,11.663,0,0,1,.3,1.389A4.27,4.27,0,0,1,871.234,2603.4Zm12.5,0a3.1,3.1,0,0,1-4.469.062,4.1,4.1,0,0,1,.022-5.771,3.236,3.236,0,0,1,5.316,1.478,4.875,4.875,0,0,1,.188.745,5.394,5.394,0,0,1,.049.581A3.984,3.984,0,0,1,883.736,2603.4Z" transform="translate(-855.79 -2584.352)" fill="#b5c0f1" stroke="#000" stroke-miterlimit="10" stroke-width="1" fill-rule="evenodd"/>
</svg>
