<svg xmlns="http://www.w3.org/2000/svg" width="105.406" height="61.329" viewBox="0 0 105.406 61.329">
  <g id="Group_128" data-name="Group 128" transform="translate(-334.682 -233.75)">
    <path id="Path_38" data-name="Path 38" d="M388.334,243.754a1.761,1.761,0,1,1-2.49,0A1.76,1.76,0,0,1,388.334,243.754Z" fill="none" stroke="#fff" stroke-linecap="round" stroke-linejoin="round" stroke-width="0.5"/>
    <path id="Path_39" data-name="Path 39" d="M377.472,239.65a11.006,11.006,0,0,1,19.235,0" fill="none" stroke="#fff" stroke-linecap="round" stroke-linejoin="round" stroke-width="0.5"/>
    <path id="Path_40" data-name="Path 40" d="M379.345,241.523a8.489,8.489,0,0,1,15.489,0" fill="none" stroke="#fff" stroke-linecap="round" stroke-linejoin="round" stroke-width="0.5"/>
    <path id="Path_41" data-name="Path 41" d="M381.309,243.488a5.975,5.975,0,0,1,11.56,0" fill="none" stroke="#fff" stroke-linecap="round" stroke-linejoin="round" stroke-width="0.5"/>
    <line id="Line_1" data-name="Line 1" y2="11.761" transform="translate(387.189 249.397)" fill="none" stroke="#fff" stroke-linecap="round" stroke-linejoin="round" stroke-width="0.5"/>
    <path id="Path_42" data-name="Path 42" d="M367.035,294.83l-1.606-.332L370,272.352l2.113.437Z" fill="#d8d8d8"/>
    <path id="Path_43" data-name="Path 43" d="M367.035,294.83l-1.606-.332L370,272.352l2.113.437Z" fill="none" stroke="#1d1e1c" stroke-linecap="round" stroke-linejoin="round" stroke-width="0.5"/>
    <path id="Path_44" data-name="Path 44" d="M408.405,294.83l1.606-.332-4.573-22.146-2.113.437Z" fill="#d8d8d8"/>
    <path id="Path_45" data-name="Path 45" d="M408.405,294.83l1.606-.332-4.573-22.146-2.113.437Z" fill="none" stroke="#1d1e1c" stroke-linecap="round" stroke-linejoin="round" stroke-width="0.5"/>
    <path id="Path_46" data-name="Path 46" d="M381.2,284.007v3.729h12.846v-3.729Z" fill="#b1b1b1"/>
    <path id="Path_47" data-name="Path 47" d="M381.2,284.007v3.729h12.846v-3.729Z" fill="none" stroke="#1d1e1c" stroke-linecap="round" stroke-linejoin="round" stroke-width="0.5"/>
    <path id="Path_48" data-name="Path 48" d="M390.763,289.585h-6.289a1.063,1.063,0,0,1-1.063-1.064V284a1.063,1.063,0,0,1,1.063-1.063h6.289A1.063,1.063,0,0,1,391.827,284v4.517a1.064,1.064,0,0,1-1.064,1.064" fill="#a4a4a5"/>
    <path id="Rectangle_9" data-name="Rectangle 9" d="M1.064,0H7.353A1.063,1.063,0,0,1,8.416,1.063V5.581A1.063,1.063,0,0,1,7.353,6.644H1.064A1.064,1.064,0,0,1,0,5.58V1.064A1.064,1.064,0,0,1,1.064,0Z" transform="translate(383.411 282.941)" fill="none" stroke="#1d1e1c" stroke-linecap="round" stroke-linejoin="round" stroke-width="0.5"/>
    <rect id="Rectangle_10" data-name="Rectangle 10" width="5.505" height="1.536" transform="translate(384.866 277.563)" fill="#a5a5a4"/>
    <rect id="Rectangle_11" data-name="Rectangle 11" width="5.505" height="1.536" transform="translate(384.866 277.563)" fill="none" stroke="#1d1e1c" stroke-linecap="round" stroke-linejoin="round" stroke-width="0.5"/>
    <path id="Path_49" data-name="Path 49" d="M390.017,274.972h-4.8v1.645h.747v.946h3.3v-.946h.746Z" fill="#868787"/>
    <path id="Path_50" data-name="Path 50" d="M390.017,274.972h-4.8v1.645h.747v.946h3.3v-.946h.746Z" fill="none" stroke="#1d1e1c" stroke-linecap="round" stroke-linejoin="round" stroke-width="0.5"/>
    <path id="Path_51" data-name="Path 51" d="M388.726,280.283v-2.974h-2.215v2.974h-1.076v6.3a1.354,1.354,0,0,0,1.354,1.354h1.659a1.354,1.354,0,0,0,1.354-1.354v-6.3Z" fill="#bbbaba"/>
    <path id="Path_52" data-name="Path 52" d="M388.726,280.283v-2.974h-2.215v2.974h-1.076v6.3a1.354,1.354,0,0,0,1.354,1.354h1.659a1.354,1.354,0,0,0,1.354-1.354v-6.3Z" fill="none" stroke="#1d1e1c" stroke-linecap="round" stroke-linejoin="round" stroke-width="0.5"/>
    <rect id="Rectangle_12" data-name="Rectangle 12" width="3.579" height="3.431" transform="translate(421.965 251.263)" fill="#fff"/>
    <rect id="Rectangle_13" data-name="Rectangle 13" width="3.579" height="3.431" transform="translate(421.965 251.263)" fill="none" stroke="#1d1e1c" stroke-linecap="round" stroke-linejoin="round" stroke-width="0.5"/>
    <path id="Path_53" data-name="Path 53" d="M421.523,253.959c0,.929-4.322,2.027-4.322,2.027s-10.026-1.689-9.508-2.027,13.83,0,13.83,0" fill="#fff"/>
    <path id="Path_54" data-name="Path 54" d="M421.523,253.959c0,.929-4.322,2.027-4.322,2.027s-10.026-1.689-9.508-2.027S421.523,253.959,421.523,253.959Z" fill="none" stroke="#1d1e1c" stroke-linecap="round" stroke-linejoin="round" stroke-width="0.5"/>
    <path id="Path_55" data-name="Path 55" d="M425.985,254.078c0-.929,4.322-2.027,4.322-2.027s10.026,1.689,9.508,2.027-13.83,0-13.83,0" fill="#fff"/>
    <path id="Path_56" data-name="Path 56" d="M425.985,254.078c0-.929,4.322-2.027,4.322-2.027s10.026,1.689,9.508,2.027S425.985,254.078,425.985,254.078Z" fill="none" stroke="#1d1e1c" stroke-linecap="round" stroke-linejoin="round" stroke-width="0.5"/>
    <rect id="Rectangle_14" data-name="Rectangle 14" width="4.761" height="2.833" transform="translate(421.374 252.764)" fill="#fff"/>
    <rect id="Rectangle_15" data-name="Rectangle 15" width="4.761" height="2.833" transform="translate(421.374 252.764)" fill="none" stroke="#1d1e1c" stroke-linecap="round" stroke-linejoin="round" stroke-width="0.5"/>
    <rect id="Rectangle_16" data-name="Rectangle 16" width="5.495" height="2.597" transform="translate(421.006 260.076)" fill="#898989"/>
    <rect id="Rectangle_17" data-name="Rectangle 17" width="5.495" height="2.597" transform="translate(421.006 260.076)" fill="none" stroke="#1d1e1c" stroke-linecap="round" stroke-linejoin="round" stroke-width="0.5"/>
    <rect id="Rectangle_18" data-name="Rectangle 18" width="5.943" height="4.481" transform="translate(420.783 255.597)" fill="#a4a4a5"/>
    <rect id="Rectangle_19" data-name="Rectangle 19" width="5.943" height="4.481" transform="translate(420.783 255.597)" fill="none" stroke="#1d1e1c" stroke-linecap="round" stroke-linejoin="round" stroke-width="0.5"/>
    <rect id="Rectangle_20" data-name="Rectangle 20" width="3.579" height="3.431" transform="translate(349.226 251.263)" fill="#fff"/>
    <rect id="Rectangle_21" data-name="Rectangle 21" width="3.579" height="3.431" transform="translate(349.226 251.263)" fill="none" stroke="#1d1e1c" stroke-linecap="round" stroke-linejoin="round" stroke-width="0.5"/>
    <path id="Path_57" data-name="Path 57" d="M348.784,253.959c0,.929-4.322,2.027-4.322,2.027s-10.026-1.689-9.508-2.027,13.83,0,13.83,0" fill="#fff"/>
    <path id="Path_58" data-name="Path 58" d="M348.784,253.959c0,.929-4.322,2.027-4.322,2.027s-10.026-1.689-9.508-2.027S348.784,253.959,348.784,253.959Z" fill="none" stroke="#1d1e1c" stroke-linecap="round" stroke-linejoin="round" stroke-width="0.5"/>
    <path id="Path_59" data-name="Path 59" d="M353.246,254.078c0-.929,4.322-2.027,4.322-2.027s10.026,1.689,9.508,2.027-13.83,0-13.83,0" fill="#fff"/>
    <path id="Path_60" data-name="Path 60" d="M353.246,254.078c0-.929,4.322-2.027,4.322-2.027s10.026,1.689,9.508,2.027S353.246,254.078,353.246,254.078Z" fill="none" stroke="#1d1e1c" stroke-linecap="round" stroke-linejoin="round" stroke-width="0.5"/>
    <rect id="Rectangle_22" data-name="Rectangle 22" width="4.761" height="2.833" transform="translate(348.635 252.764)" fill="#fff"/>
    <rect id="Rectangle_23" data-name="Rectangle 23" width="4.761" height="2.833" transform="translate(348.635 252.764)" fill="none" stroke="#1d1e1c" stroke-linecap="round" stroke-linejoin="round" stroke-width="0.5"/>
    <rect id="Rectangle_24" data-name="Rectangle 24" width="5.495" height="2.597" transform="translate(348.267 260.076)" fill="#898989"/>
    <rect id="Rectangle_25" data-name="Rectangle 25" width="5.495" height="2.597" transform="translate(348.267 260.076)" fill="none" stroke="#1d1e1c" stroke-linecap="round" stroke-linejoin="round" stroke-width="0.5"/>
    <rect id="Rectangle_26" data-name="Rectangle 26" width="5.943" height="4.481" transform="translate(348.044 255.597)" fill="#a4a4a5"/>
    <rect id="Rectangle_27" data-name="Rectangle 27" width="5.943" height="4.481" transform="translate(348.044 255.597)" fill="none" stroke="#1d1e1c" stroke-linecap="round" stroke-linejoin="round" stroke-width="0.5"/>
    <rect id="Rectangle_28" data-name="Rectangle 28" width="3.931" height="1.465" transform="translate(379.667 274.587)" fill="#e0e0de"/>
    <rect id="Rectangle_29" data-name="Rectangle 29" width="3.931" height="1.465" transform="translate(379.667 274.587)" fill="none" stroke="#1d1e1c" stroke-linecap="round" stroke-linejoin="round" stroke-width="0.5"/>
    <rect id="Rectangle_30" data-name="Rectangle 30" width="3.931" height="1.465" transform="translate(385.653 274.587)" fill="#e0e0de"/>
    <rect id="Rectangle_31" data-name="Rectangle 31" width="3.931" height="1.465" transform="translate(385.653 274.587)" fill="none" stroke="#1d1e1c" stroke-linecap="round" stroke-linejoin="round" stroke-width="0.5"/>
    <rect id="Rectangle_32" data-name="Rectangle 32" width="3.931" height="1.465" transform="translate(391.638 274.587)" fill="#e0e0de"/>
    <rect id="Rectangle_33" data-name="Rectangle 33" width="3.931" height="1.465" transform="translate(391.638 274.587)" fill="none" stroke="#1d1e1c" stroke-linecap="round" stroke-linejoin="round" stroke-width="0.5"/>
    <path id="Path_61" data-name="Path 61" d="M352.6,267.782h-3.5a.784.784,0,0,1-.784-.783v-1.661h5.064V267a.782.782,0,0,1-.782.783" fill="#e41e46"/>
    <path id="Path_62" data-name="Path 62" d="M352.6,267.782h-3.5a.784.784,0,0,1-.784-.783v-1.661h5.064V267A.782.782,0,0,1,352.6,267.782Z" fill="none" stroke="#1d1e1c" stroke-linecap="round" stroke-linejoin="round" stroke-width="0.5"/>
    <path id="Path_63" data-name="Path 63" d="M425.439,267.782h-3.5a.783.783,0,0,1-.783-.783v-1.661h5.064V267a.783.783,0,0,1-.783.783" fill="#b2bedb"/>
    <path id="Path_64" data-name="Path 64" d="M425.439,267.782h-3.5a.783.783,0,0,1-.783-.783v-1.661h5.064V267A.783.783,0,0,1,425.439,267.782Z" fill="none" stroke="#1d1e1c" stroke-linecap="round" stroke-linejoin="round" stroke-width="0.5"/>
    <path id="Path_65" data-name="Path 65" d="M426.891,261.351h-5.282a45.825,45.825,0,0,1-11.894-2.089A64.463,64.463,0,0,0,388.06,255.7h-.168c-6.3.017-14.836.809-22.37,3.564a45.825,45.825,0,0,1-11.894,2.089h-5.282c-.778,0-1.41,1.092-1.41,1.911v.65c0,.829.646,1.925,1.434,1.911,1.5-.028,4.513.033,5.258.033,2.558,0,9.416,2.275,13.648,3.245.421.1.712.991.79,1.436a7.184,7.184,0,0,1,.129,1.837.973.973,0,0,0,.731,1.059L372.5,274.5a1.571,1.571,0,0,0,1.379-.74c.483-.713,1.033-1.337,1.678-1.084a14.415,14.415,0,0,1,2.849,2.128h18.419a14.415,14.415,0,0,1,2.849-2.128c.643-.253,1.2.371,1.677,1.084a1.571,1.571,0,0,0,1.379.74l3.578-1.068a.973.973,0,0,0,.731-1.059,7.184,7.184,0,0,1,.127-1.837c.078-.445.371-1.34.792-1.436,4.232-.97,11.09-3.245,13.648-3.245.744,0,3.757-.061,5.258-.033.788.014,1.434-1.082,1.434-1.911v-.65c0-.819-.632-1.911-1.41-1.911" fill="#fff"/>
    <path id="Path_66" data-name="Path 66" d="M426.891,261.351h-5.282a45.825,45.825,0,0,1-11.894-2.089A64.463,64.463,0,0,0,388.06,255.7h-.168c-6.3.017-14.836.809-22.37,3.564a45.825,45.825,0,0,1-11.894,2.089h-5.282c-.778,0-1.41,1.092-1.41,1.911v.65c0,.829.646,1.925,1.434,1.911,1.5-.028,4.513.033,5.258.033,2.558,0,9.416,2.275,13.648,3.245.421.1.712.991.79,1.436a7.184,7.184,0,0,1,.129,1.837.973.973,0,0,0,.731,1.059L372.5,274.5a1.571,1.571,0,0,0,1.379-.74c.483-.713,1.033-1.337,1.678-1.084a14.415,14.415,0,0,1,2.849,2.128h18.419a14.415,14.415,0,0,1,2.849-2.128c.643-.253,1.2.371,1.677,1.084a1.571,1.571,0,0,0,1.379.74l3.578-1.068a.973.973,0,0,0,.731-1.059,7.184,7.184,0,0,1,.127-1.837c.078-.445.371-1.34.792-1.436,4.232-.97,11.09-3.245,13.648-3.245.744,0,3.757-.061,5.258-.033.788.014,1.434-1.082,1.434-1.911v-.65C428.3,262.443,427.669,261.351,426.891,261.351Z" fill="none" stroke="#1d1e1c" stroke-linecap="round" stroke-linejoin="round" stroke-width="0.5"/>
    <path id="Path_67" data-name="Path 67" d="M395.232,271.266H380.005a2.035,2.035,0,0,1-2.035-2.035v-8.642a2.035,2.035,0,0,1,2.035-2.035h15.227a2.035,2.035,0,0,1,2.035,2.035v8.642a2.035,2.035,0,0,1-2.035,2.035" fill="#a6fcf6"/>
    <rect id="Rectangle_34" data-name="Rectangle 34" width="19.297" height="12.712" rx="2.035" transform="translate(377.97 258.554)" fill="none" stroke="#1d1e1c" stroke-linecap="round" stroke-linejoin="round" stroke-width="0.5"/>
    <path id="Path_68" data-name="Path 68" d="M391.988,262.465a2.2,2.2,0,1,0,2.2,2.2,2.2,2.2,0,0,0-2.2-2.2m0,3.481a1.278,1.278,0,1,1,1.278-1.278,1.278,1.278,0,0,1-1.278,1.278" fill="#c6d216"/>
    <path id="Path_69" data-name="Path 69" d="M382.271,266.5h-.586a.138.138,0,0,1-.138-.138v-3.388a.138.138,0,0,1,.138-.138h.586a.138.138,0,0,1,.138.138v3.388a.138.138,0,0,1-.138.138" fill="#c6d216"/>
    <path id="Path_70" data-name="Path 70" d="M384.378,266.5h-.586a.138.138,0,0,1-.138-.138v-3.388a.138.138,0,0,1,.138-.138h.586a.138.138,0,0,1,.138.138v3.388a.138.138,0,0,1-.138.138" fill="#c6d216"/>
    <path id="Path_71" data-name="Path 71" d="M386.486,266.5H385.9a.138.138,0,0,1-.138-.138v-3.388a.138.138,0,0,1,.138-.138h.586a.138.138,0,0,1,.138.138v3.388a.138.138,0,0,1-.138.138" fill="#c6d216"/>
    <path id="Path_72" data-name="Path 72" d="M388.593,266.5h-.586a.138.138,0,0,1-.138-.138v-3.388a.138.138,0,0,1,.138-.138h.586a.138.138,0,0,1,.138.138v3.388a.138.138,0,0,1-.138.138" fill="#c6d216"/>
  </g>
</svg>
