<svg id="Group_129" data-name="Group 129" xmlns="http://www.w3.org/2000/svg" xmlns:xlink="http://www.w3.org/1999/xlink" width="440.084" height="593.282" viewBox="0 0 440.084 593.282">
  <defs>
    <clipPath id="clip-path">
      <rect id="Rectangle_63" data-name="Rectangle 63" width="440.084" height="593.282" fill="none"/>
    </clipPath>
  </defs>
  <g id="Group_61" data-name="Group 61">
    <g id="Group_60" data-name="Group 60" clip-path="url(#clip-path)">
      <path id="Path_146" data-name="Path 146" d="M308.83,328.923a2.6,2.6,0,0,1,0,3.554,2.321,2.321,0,0,1-3.391,0,2.6,2.6,0,0,1,0-3.554A2.321,2.321,0,0,1,308.83,328.923Z" fill="none" stroke="#b2c1f3" stroke-linecap="round" stroke-linejoin="round" stroke-width="0.5"/>
      <path id="Path_147" data-name="Path 147" d="M294.037,323.065a15.636,15.636,0,0,1,2.5-3.471,14.52,14.52,0,0,1,21.193,0,15.6,15.6,0,0,1,2.5,3.471" fill="none" stroke="#b2c1f3" stroke-linecap="round" stroke-linejoin="round" stroke-width="0.5"/>
      <path id="Path_148" data-name="Path 148" d="M296.587,325.738a12.115,12.115,0,0,1,2.373-3.606,11.2,11.2,0,0,1,16.348,0,12.1,12.1,0,0,1,2.373,3.606" fill="none" stroke="#b2c1f3" stroke-linecap="round" stroke-linejoin="round" stroke-width="0.5"/>
      <path id="Path_149" data-name="Path 149" d="M299.263,328.543a8.589,8.589,0,0,1,2.119-3.872,7.874,7.874,0,0,1,11.505,0,8.589,8.589,0,0,1,2.119,3.872" fill="none" stroke="#b2c1f3" stroke-linecap="round" stroke-linejoin="round" stroke-width="0.5"/>
      <line id="Line_3" data-name="Line 3" y2="16.788" transform="translate(307.27 336.978)" fill="none" stroke="#b2c1f3" stroke-linecap="round" stroke-linejoin="round" stroke-width="0.5"/>
      <rect id="Rectangle_47" data-name="Rectangle 47" width="9.722" height="22.918" transform="translate(260.823 337.648)" fill="#3faac8"/>
      <rect id="Rectangle_48" data-name="Rectangle 48" width="9.722" height="22.918" transform="translate(260.823 337.648)" fill="none" stroke="#000" stroke-miterlimit="10" stroke-width="0.5"/>
      <rect id="Rectangle_49" data-name="Rectangle 49" width="29.732" height="2.744" transform="translate(230.525 400.439)" fill="#91cbd7"/>
      <rect id="Rectangle_50" data-name="Rectangle 50" width="29.732" height="2.744" transform="translate(230.525 400.439)" fill="none" stroke="#000" stroke-miterlimit="10" stroke-width="0.5"/>
      <rect id="Rectangle_51" data-name="Rectangle 51" width="1.404" height="9.06" transform="translate(238.244 394.761)" fill="#b7dade"/>
      <rect id="Rectangle_52" data-name="Rectangle 52" width="1.404" height="9.06" transform="translate(238.244 394.761)" fill="none" stroke="#000" stroke-miterlimit="10" stroke-width="0.5"/>
      <path id="Path_150" data-name="Path 150" d="M244.114,391.826a5.232,5.232,0,1,1-5.232-5.232,5.232,5.232,0,0,1,5.232,5.232" fill="#91cbd7"/>
      <circle id="Ellipse_3" data-name="Ellipse 3" cx="5.232" cy="5.232" r="5.232" transform="translate(233.65 386.594)" fill="none" stroke="#000" stroke-miterlimit="10" stroke-width="0.5"/>
      <path id="Path_151" data-name="Path 151" d="M235.182,391.826a3.7,3.7,0,1,0,3.7-3.7,3.7,3.7,0,0,0-3.7,3.7" fill="#b7dade"/>
      <path id="Path_152" data-name="Path 152" d="M235.182,391.826a3.7,3.7,0,1,0,3.7-3.7A3.7,3.7,0,0,0,235.182,391.826Z" fill="none" stroke="#000" stroke-miterlimit="10" stroke-width="0.5"/>
      <path id="Path_153" data-name="Path 153" d="M238.883,389.019v3.063l1.914-1.915" fill="#b7dade"/>
      <path id="Path_154" data-name="Path 154" d="M238.883,389.019v3.063l1.914-1.915" fill="none" stroke="#000" stroke-miterlimit="10" stroke-width="0.5"/>
      <path id="Path_155" data-name="Path 155" d="M243,369.24l-.058-13.526h12.633v2.265h6.812c7.8-7.661,25.012-13,45-13s37.2,5.339,45,13h6.94v-2.265h12.633V369.24Z" fill="#28aaba"/>
      <path id="Path_156" data-name="Path 156" d="M243,369.24l-.058-13.526h12.633v2.265h6.812c7.8-7.661,25.012-13,45-13s37.2,5.339,45,13h6.94v-2.265h12.633V369.24Z" fill="none" stroke="#000" stroke-miterlimit="10" stroke-width="0.5"/>
      <path id="Path_157" data-name="Path 157" d="M351.706,369.24c-7.554-8.505-24.313-14.419-43.774-14.419s-36.218,5.914-43.772,14.419H250.1v68.291H364.8V369.24Z" fill="#83cae0"/>
      <path id="Path_158" data-name="Path 158" d="M351.706,369.24c-7.554-8.505-24.313-14.419-43.774-14.419s-36.218,5.914-43.772,14.419H250.1v68.291H364.8V369.24Z" fill="none" stroke="#000" stroke-miterlimit="10" stroke-width="0.5"/>
      <rect id="Rectangle_53" data-name="Rectangle 53" width="39.067" height="18.25" transform="translate(287.917 419.323)" fill="#79b7c2"/>
      <rect id="Rectangle_54" data-name="Rectangle 54" width="39.067" height="18.25" transform="translate(287.917 419.323)" fill="none" stroke="#000" stroke-miterlimit="10" stroke-width="0.5"/>
      <rect id="Rectangle_55" data-name="Rectangle 55" width="33.99" height="16.062" transform="translate(290.376 421.511)" fill="#b7dade"/>
      <rect id="Rectangle_56" data-name="Rectangle 56" width="33.99" height="16.062" transform="translate(290.376 421.511)" fill="none" stroke="#000" stroke-miterlimit="10" stroke-width="0.5"/>
      <line id="Line_4" data-name="Line 4" x2="33.824" transform="translate(290.401 424.269)" fill="none" stroke="#000" stroke-miterlimit="10" stroke-width="0.5"/>
      <line id="Line_5" data-name="Line 5" x2="33.824" transform="translate(290.419 427.78)" fill="none" stroke="#000" stroke-miterlimit="10" stroke-width="0.5"/>
      <line id="Line_6" data-name="Line 6" x2="33.824" transform="translate(290.436 431.292)" fill="none" stroke="#000" stroke-miterlimit="10" stroke-width="0.5"/>
      <line id="Line_7" data-name="Line 7" x2="33.824" transform="translate(290.454 434.803)" fill="none" stroke="#000" stroke-miterlimit="10" stroke-width="0.5"/>
      <path id="Path_159" data-name="Path 159" d="M271.645,412.2H285.6V394.676a1.594,1.594,0,0,0-1.593-1.594H273.238a1.594,1.594,0,0,0-1.593,1.594Z" fill="#5aa3aa"/>
      <path id="Path_160" data-name="Path 160" d="M271.645,412.2H285.6V394.676a1.594,1.594,0,0,0-1.593-1.594H273.238a1.594,1.594,0,0,0-1.593,1.594Z" fill="none" stroke="#000" stroke-miterlimit="10" stroke-width="0.5"/>
      <path id="Path_161" data-name="Path 161" d="M290.567,412.2h13.957V394.676a1.594,1.594,0,0,0-1.593-1.594H292.16a1.594,1.594,0,0,0-1.593,1.594Z" fill="#5aa3aa"/>
      <path id="Path_162" data-name="Path 162" d="M290.567,412.2h13.957V394.676a1.594,1.594,0,0,0-1.593-1.594H292.16a1.594,1.594,0,0,0-1.593,1.594Z" fill="none" stroke="#000" stroke-miterlimit="10" stroke-width="0.5"/>
      <path id="Path_163" data-name="Path 163" d="M309.488,412.2h13.957V394.676a1.594,1.594,0,0,0-1.593-1.594H311.081a1.594,1.594,0,0,0-1.593,1.594Z" fill="#5aa3aa"/>
      <path id="Path_164" data-name="Path 164" d="M309.488,412.2h13.957V394.676a1.594,1.594,0,0,0-1.593-1.594H311.081a1.594,1.594,0,0,0-1.593,1.594Z" fill="none" stroke="#000" stroke-miterlimit="10" stroke-width="0.5"/>
      <path id="Path_165" data-name="Path 165" d="M328.409,412.2h13.957V394.676a1.594,1.594,0,0,0-1.593-1.594H330a1.594,1.594,0,0,0-1.593,1.594Z" fill="#5aa3aa"/>
      <path id="Path_166" data-name="Path 166" d="M328.409,412.2h13.957V394.676a1.594,1.594,0,0,0-1.593-1.594H330a1.594,1.594,0,0,0-1.593,1.594Z" fill="none" stroke="#000" stroke-miterlimit="10" stroke-width="0.5"/>
      <rect id="Rectangle_57" data-name="Rectangle 57" width="12.505" height="58.188" transform="translate(349.432 375.982)" fill="#3faac8"/>
      <rect id="Rectangle_58" data-name="Rectangle 58" width="12.505" height="58.188" transform="translate(349.432 375.982)" fill="none" stroke="#000" stroke-miterlimit="10" stroke-width="0.5"/>
      <line id="Line_8" data-name="Line 8" x2="12.378" transform="translate(349.496 382.809)" fill="none" stroke="#000" stroke-miterlimit="10" stroke-width="0.5"/>
      <line id="Line_9" data-name="Line 9" x2="12.378" transform="translate(349.496 391.716)" fill="none" stroke="#000" stroke-miterlimit="10" stroke-width="0.5"/>
      <line id="Line_10" data-name="Line 10" x2="12.378" transform="translate(349.496 400.622)" fill="none" stroke="#000" stroke-miterlimit="10" stroke-width="0.5"/>
      <line id="Line_11" data-name="Line 11" x2="12.378" transform="translate(349.496 409.529)" fill="none" stroke="#000" stroke-miterlimit="10" stroke-width="0.5"/>
      <line id="Line_12" data-name="Line 12" x2="12.378" transform="translate(349.496 418.436)" fill="none" stroke="#000" stroke-miterlimit="10" stroke-width="0.5"/>
      <line id="Line_13" data-name="Line 13" x2="12.378" transform="translate(349.496 427.343)" fill="none" stroke="#000" stroke-miterlimit="10" stroke-width="0.5"/>
      <line id="Line_14" data-name="Line 14" y2="58.188" transform="translate(355.684 375.982)" fill="none" stroke="#000" stroke-miterlimit="10" stroke-width="0.5"/>
      <rect id="Rectangle_59" data-name="Rectangle 59" width="12.505" height="58.188" transform="translate(253.697 375.982)" fill="#3faac8"/>
      <rect id="Rectangle_60" data-name="Rectangle 60" width="12.505" height="58.188" transform="translate(253.697 375.982)" fill="none" stroke="#000" stroke-miterlimit="10" stroke-width="0.5"/>
      <line id="Line_15" data-name="Line 15" x2="12.378" transform="translate(253.761 382.809)" fill="none" stroke="#000" stroke-miterlimit="10" stroke-width="0.5"/>
      <line id="Line_16" data-name="Line 16" x2="12.378" transform="translate(253.761 391.716)" fill="none" stroke="#000" stroke-miterlimit="10" stroke-width="0.5"/>
      <line id="Line_17" data-name="Line 17" x2="12.378" transform="translate(253.761 400.622)" fill="none" stroke="#000" stroke-miterlimit="10" stroke-width="0.5"/>
      <line id="Line_18" data-name="Line 18" x2="12.378" transform="translate(253.761 409.529)" fill="none" stroke="#000" stroke-miterlimit="10" stroke-width="0.5"/>
      <line id="Line_19" data-name="Line 19" x2="12.378" transform="translate(253.761 418.436)" fill="none" stroke="#000" stroke-miterlimit="10" stroke-width="0.5"/>
      <line id="Line_20" data-name="Line 20" x2="12.378" transform="translate(253.761 427.343)" fill="none" stroke="#000" stroke-miterlimit="10" stroke-width="0.5"/>
      <line id="Line_21" data-name="Line 21" y2="58.188" transform="translate(259.95 375.982)" fill="none" stroke="#000" stroke-miterlimit="10" stroke-width="0.5"/>
      <rect id="Rectangle_61" data-name="Rectangle 61" width="71.147" height="11.409" transform="translate(271.877 376.438)" fill="#edf2f2"/>
      <rect id="Rectangle_62" data-name="Rectangle 62" width="71.147" height="11.409" transform="translate(271.877 376.438)" fill="none" stroke="#000" stroke-miterlimit="10" stroke-width="0.5"/>
    </g>
  </g>
  <text id="SMART_FACTORY" data-name="SMART FACTORY" transform="translate(281.262 384.333)" font-size="6.378" font-family="Roboto-Medium, Roboto" font-weight="500"><tspan x="0" y="0" letter-spacing="0.03em">S</tspan><tspan y="0" letter-spacing="0.038em">M</tspan><tspan y="0" letter-spacing="0.029em">A</tspan><tspan y="0" letter-spacing="0.005em">R</tspan><tspan y="0">T</tspan><tspan y="0" letter-spacing="0.029em"> </tspan><tspan y="0" letter-spacing="-0.063em">F</tspan><tspan y="0" letter-spacing="0.019em">A</tspan><tspan y="0" letter-spacing="0.015em">C</tspan><tspan y="0" letter-spacing="0.016em">T</tspan><tspan y="0" letter-spacing="0.029em">O</tspan><tspan y="0" letter-spacing="0.006em">R</tspan><tspan y="0">Y</tspan></text>
  <g id="Group_63" data-name="Group 63">
    <g id="Group_62" data-name="Group 62" clip-path="url(#clip-path)">
      <path id="Path_167" data-name="Path 167" d="M327.342,362.938a70.017,70.017,0,0,0-39.783,0,42.7,42.7,0,0,0-4.354,1.66v4.579H331.7V364.6a42.788,42.788,0,0,0-4.354-1.66" fill="#5aa3aa"/>
      <path id="Path_168" data-name="Path 168" d="M327.342,362.938a70.017,70.017,0,0,0-39.783,0,42.7,42.7,0,0,0-4.354,1.66v4.579H331.7V364.6A42.788,42.788,0,0,0,327.342,362.938Z" fill="none" stroke="#000" stroke-miterlimit="10" stroke-width="0.5"/>
      <line id="Line_22" data-name="Line 22" x2="48.107" transform="translate(283.22 364.646)" fill="none" stroke="#000" stroke-miterlimit="10" stroke-width="0.5"/>
      <line id="Line_23" data-name="Line 23" y2="7.21" transform="translate(291.642 361.903)" fill="none" stroke="#000" stroke-miterlimit="10" stroke-width="0.5"/>
      <line id="Line_24" data-name="Line 24" y2="8.677" transform="translate(299.235 360.499)" fill="none" stroke="#000" stroke-miterlimit="10" stroke-width="0.5"/>
      <line id="Line_25" data-name="Line 25" y2="9.188" transform="translate(306.827 359.989)" fill="none" stroke="#000" stroke-miterlimit="10" stroke-width="0.5"/>
      <line id="Line_26" data-name="Line 26" y2="8.805" transform="translate(314.42 360.371)" fill="none" stroke="#000" stroke-miterlimit="10" stroke-width="0.5"/>
      <line id="Line_27" data-name="Line 27" y2="7.656" transform="translate(322.012 361.52)" fill="none" stroke="#000" stroke-miterlimit="10" stroke-width="0.5"/>
    </g>
  </g>
</svg>
