<svg width="52" height="49" viewBox="0 0 52 49" fill="none" xmlns="http://www.w3.org/2000/svg">
<path d="M26.0002 0C11.7194 0 0 10.8598 0 24.0931C0 35.3856 8.55115 45.6436 19.9064 48.1861V40.2151C18.7813 40.4434 17.7458 40.4501 16.6004 40.1372C15.0639 39.717 13.8154 38.7685 12.8886 37.3223C12.2979 36.3988 11.2509 35.3973 10.1587 35.4709L9.89091 32.6585C12.2527 32.471 14.2958 33.9919 15.5086 35.88C16.0474 36.7197 16.6675 37.212 17.4633 37.4296C18.2326 37.6395 19.0586 37.5388 20.0211 37.2237C20.2627 35.4381 21.1454 34.7698 21.8123 33.8287V33.8272C15.0401 32.8912 12.3411 29.5619 11.27 26.9341C9.85045 23.4449 10.6122 19.0859 13.1223 16.3313C13.1711 16.2776 13.2592 16.1372 13.225 16.039C12.0741 12.8175 13.4766 10.1525 13.5281 9.86979C14.8564 10.2337 15.0722 9.50363 19.2978 11.8826L20.0282 12.2892C20.3337 12.4579 20.2377 12.3616 20.5432 12.3403C22.3074 11.8962 24.1673 11.651 25.9998 11.6289C27.8462 11.651 29.6942 11.8962 31.5314 12.3583L31.7679 12.3803C31.7473 12.3774 31.8322 12.3664 31.9746 12.2877C37.2531 9.32496 37.0635 10.2933 38.479 9.86685C38.5302 10.1499 39.914 12.8583 38.7754 16.039C38.6218 16.4772 43.3517 20.4906 40.73 26.933C39.6589 29.5619 36.9603 32.8912 30.1881 33.8272V33.8287C31.0561 35.0547 32.0992 35.7069 32.0936 38.2362V48.1861C43.4492 45.6436 52 35.3856 52 24.0931C52.0004 10.8598 40.2809 0 26.0002 0Z" fill="#2949D3"/>
</svg>
