<svg xmlns="http://www.w3.org/2000/svg" width="95.249" height="163.573" viewBox="0 0 95.249 163.573">
  <g id="Group_4338" data-name="Group 4338" transform="translate(1 1)">
    <g id="Group_4333" data-name="Group 4333" transform="translate(0 0)">
      <path id="Path_7600" data-name="Path 7600" d="M1345.5,307.058c-25.71,0-46.625,20.5-46.625,45.708,0,.754.024,1.513.062,2.272.01.207.026.414.039.621q.054.874.14,1.749c.02.2.04.4.062.6q.116,1.037.276,2.077c.011.07.019.14.03.21q.19,1.191.439,2.383c.021.1.047.206.069.309q.212.982.462,1.965c.055.213.113.427.17.641q.227.846.484,1.69c.065.213.127.426.195.64.04.123.073.246.113.369.194.594.4,1.185.613,1.772.029.08.06.16.089.239q.415,1.127.875,2.236l.013.03c.324.777.668,1.545,1.026,2.306l.061.128a56.818,56.818,0,0,0,3.788,6.76l.034.053q1.392,2.121,2.965,4.108l.155.2q.742.928,1.523,1.822c.085.1.173.195.258.293.53.6,1.068,1.189,1.623,1.762a34.374,34.374,0,0,1,4.325,5.559.925.925,0,0,0,.105.127,34.22,34.22,0,0,1,5.154,16.6l.566,12.814a4.008,4.008,0,0,0,2.837,3.664s-.775,24.659,0,25.031v.525a.954.954,0,0,0,.138.495,13.5,13.5,0,0,0,2.657,3.05c1.138.924,6.427,5.383,8.649,7.258a4.337,4.337,0,0,0,1.923.931,2.718,2.718,0,0,0,2.712,2.579h3.987a2.718,2.718,0,0,0,2.712-2.579,4.346,4.346,0,0,0,1.923-.931c1.731-1.46,7.471-6.3,8.648-7.258a13.487,13.487,0,0,0,2.658-3.05.953.953,0,0,0,.139-.495V428.762a4.01,4.01,0,0,0,2.837-3.664l.566-12.814a34.207,34.207,0,0,1,5.153-16.6,1.026,1.026,0,0,0,.106-.129,34.242,34.242,0,0,1,4.324-5.558c.553-.572,1.09-1.161,1.619-1.758.088-.1.176-.2.264-.3q.777-.89,1.517-1.815l.164-.209q1.564-1.974,2.95-4.088l.05-.077a56.97,56.97,0,0,0,3.773-6.732l.078-.163c.354-.751.693-1.51,1.014-2.276.01-.024.019-.049.03-.073q.45-1.083.854-2.183c.034-.091.069-.181.1-.272.211-.584.416-1.17.608-1.761.04-.12.072-.24.11-.36.07-.222.136-.443.2-.665q.252-.831.477-1.663c.059-.22.118-.439.174-.659q.249-.972.459-1.944c.023-.109.05-.218.073-.327q.248-1.189.438-2.377c.012-.075.02-.149.032-.223q.159-1.034.274-2.064c.022-.2.042-.4.062-.6q.087-.874.14-1.745c.013-.208.029-.415.039-.622.038-.76.062-1.517.062-2.272C1392.122,327.563,1371.207,307.058,1345.5,307.058Z" transform="translate(-1298.873 -307.058)" fill="#f1f1f1" stroke="#000" stroke-miterlimit="10" stroke-width="2"/>
    </g>
    <path id="Path_7601" data-name="Path 7601" d="M1329.767,439.2c-.081,2.687-.718,24.409.009,24.758v.525a.957.957,0,0,0,.138.495,13.5,13.5,0,0,0,2.657,3.05c1.138.924,6.427,5.383,8.649,7.258a4.337,4.337,0,0,0,1.923.931,2.718,2.718,0,0,0,2.712,2.579h3.987a2.718,2.718,0,0,0,2.712-2.579,4.346,4.346,0,0,0,1.923-.931c1.731-1.461,7.471-6.3,8.648-7.258a13.487,13.487,0,0,0,2.658-3.05.956.956,0,0,0,.139-.495V439.2Z" transform="translate(-1301.224 -317.227)" fill="gray" stroke="#262627" stroke-miterlimit="10" stroke-width="2"/>
    <path id="Path_7602" data-name="Path 7602" d="M1298.974,355.659q.054.874.14,1.749c.02.2.04.4.062.6q.116,1.037.276,2.077c.011.07.019.14.03.21q.19,1.191.439,2.383c.021.1.047.206.069.309q.212.982.462,1.965c.055.213.113.427.17.641q.227.846.484,1.69c.065.213.127.426.195.64.04.123.073.246.113.369.009.028.019.054.029.081h88.108c.009-.028.019-.054.028-.081.04-.12.072-.24.11-.36.07-.222.136-.443.2-.665q.252-.831.477-1.663c.059-.22.118-.439.174-.659q.249-.972.459-1.944c.023-.109.05-.218.073-.327q.248-1.189.438-2.377c.012-.075.02-.149.032-.224q.159-1.033.274-2.063c.022-.2.042-.4.062-.6q.087-.874.14-1.745c.013-.208.029-.415.039-.622.038-.76.062-1.517.062-2.272,0-25.2-20.915-45.708-46.624-45.708s-46.625,20.5-46.625,45.708c0,.754.024,1.513.062,2.272C1298.945,355.245,1298.961,355.453,1298.974,355.659Z" transform="translate(-1298.873 -307.058)" fill="#fffdcb" stroke="#262627" stroke-miterlimit="10" stroke-width="2"/>
    <g id="Group_4334" data-name="Group 4334" transform="translate(25.618 124.436)">
      <path id="Path_7603" data-name="Path 7603" d="M1328.264,447.607a1.64,1.64,0,0,1-.1-3.276l39.35-2.46a1.64,1.64,0,0,1,.2,3.273l-39.35,2.459C1328.334,447.606,1328.3,447.607,1328.264,447.607Z" transform="translate(-1326.626 -441.867)" fill="#989898" stroke="#262627" stroke-miterlimit="10" stroke-width="2"/>
    </g>
    <g id="Group_4335" data-name="Group 4335" transform="translate(25.618 130.447)">
      <path id="Path_7604" data-name="Path 7604" d="M1328.264,454.119a1.64,1.64,0,0,1-.1-3.276l39.35-2.459a1.639,1.639,0,1,1,.2,3.272l-39.35,2.46Z" transform="translate(-1326.626 -448.38)" fill="#989898" stroke="#262627" stroke-miterlimit="10" stroke-width="2"/>
    </g>
    <g id="Group_4336" data-name="Group 4336" transform="translate(25.618 136.459)">
      <path id="Path_7605" data-name="Path 7605" d="M1328.264,460.633a1.64,1.64,0,0,1-.1-3.276l39.35-2.46a1.64,1.64,0,0,1,.2,3.273l-39.35,2.459C1328.334,460.632,1328.3,460.633,1328.264,460.633Z" transform="translate(-1326.626 -454.893)" fill="#989898" stroke="#262627" stroke-miterlimit="10" stroke-width="2"/>
    </g>
    <g id="Group_4337" data-name="Group 4337" transform="translate(25.618 142.471)">
      <path id="Path_7606" data-name="Path 7606" d="M1328.264,467.145a1.64,1.64,0,0,1-.1-3.276l39.35-2.459a1.639,1.639,0,1,1,.2,3.272l-39.35,2.46Z" transform="translate(-1326.626 -461.407)" fill="#989898" stroke="#262627" stroke-miterlimit="10" stroke-width="2"/>
    </g>
  </g>
</svg>
