<svg xmlns="http://www.w3.org/2000/svg" viewBox="0 0 511.44 329.51"><defs><style>.cls-1,.cls-12,.cls-13,.cls-14,.cls-15,.cls-16,.cls-17,.cls-18,.cls-19,.cls-20,.cls-23,.cls-35,.cls-5,.cls-9{fill:none;}.cls-1,.cls-10,.cls-11,.cls-12,.cls-13,.cls-14,.cls-15,.cls-16,.cls-17,.cls-18,.cls-19,.cls-2,.cls-20,.cls-21,.cls-30,.cls-31,.cls-32,.cls-33,.cls-35,.cls-36,.cls-37,.cls-38,.cls-39,.cls-40,.cls-41,.cls-42,.cls-43,.cls-44,.cls-5,.cls-6,.cls-7,.cls-8{stroke:#000;}.cls-1,.cls-10,.cls-11,.cls-12,.cls-13,.cls-14,.cls-15,.cls-16,.cls-17,.cls-18,.cls-19,.cls-2,.cls-20,.cls-21,.cls-32,.cls-5,.cls-6,.cls-7,.cls-8{stroke-miterlimit:10;}.cls-1{stroke-width:0.5px;}.cls-2{fill:#5fce05;}.cls-10,.cls-11,.cls-12,.cls-13,.cls-14,.cls-15,.cls-16,.cls-17,.cls-18,.cls-19,.cls-2,.cls-20,.cls-21,.cls-30,.cls-31,.cls-32,.cls-33,.cls-35,.cls-36,.cls-37,.cls-38,.cls-39,.cls-40,.cls-41,.cls-42,.cls-43,.cls-44,.cls-6,.cls-7,.cls-8,.cls-9{stroke-width:0.75px;}.cls-3{fill:#0d0c0d;}.cls-4{fill:#1d1d1b;}.cls-5{stroke-width:0.25px;}.cls-6{fill:#fbb03b;}.cls-7{fill:#a6fcf6;}.cls-31,.cls-8{fill:#b5c0f1;}.cls-22,.cls-23,.cls-9{stroke:#1d1d1b;}.cls-22,.cls-23,.cls-30,.cls-31,.cls-33,.cls-35,.cls-36,.cls-37,.cls-38,.cls-39,.cls-40,.cls-41,.cls-42,.cls-43,.cls-44,.cls-9{stroke-linecap:round;stroke-linejoin:round;}.cls-10{fill:#b2b2b2;}.cls-11{fill:#03a5ed;}.cls-13{stroke-dasharray:3.01 2;}.cls-14{stroke-dasharray:3.14 2.1;}.cls-15{stroke-dasharray:3.19 2.12;}.cls-16{stroke-dasharray:2.96 1.97;}.cls-17{stroke-dasharray:3.22 2.15;}.cls-18{stroke-dasharray:3.03 2.02;}.cls-19{stroke-dasharray:2.05 1.37;}.cls-20{stroke-dasharray:2.89 1.92;}.cls-21,.cls-22,.cls-34,.cls-41{fill:#fff;}.cls-24{font-size:9.6px;font-family:MyriadPro-Regular, Myriad Pro;letter-spacing:0.03em;}.cls-25{letter-spacing:-0.04em;}.cls-26{letter-spacing:-0.04em;}.cls-27{letter-spacing:0.04em;}.cls-28{letter-spacing:0em;}.cls-29{font-size:3.19px;fill:#3c3c70;font-family:Roboto-Thin, Roboto Thin;font-weight:200;letter-spacing:0.02em;}.cls-30{fill:#99e0ff;}.cls-32,.cls-39{fill:#2d2d69;}.cls-33{fill:#4d4d4d;}.cls-36{fill:#1717b0;}.cls-38{fill:#6f85b5;}.cls-40{fill:#b3d9ff;}.cls-42{fill:#8cc63f;}.cls-43{fill:#666;}.cls-44{fill:#999;}</style></defs><g id="Layer_2" data-name="Layer 2"><g id="pic"><polyline class="cls-1" points="76.67 285.82 76.67 279.77 71.78 274.88 71.78 262.24"/><line class="cls-1" x1="105.34" y1="300.42" x2="112.47" y2="300.42"/><polyline class="cls-1" points="79.8 284.25 79.8 274.36 78.64 273.2 78.64 267.42"/><line class="cls-1" x1="82.92" y1="284.77" x2="82.92" y2="271.39"/><polyline class="cls-1" points="86.05 284.77 86.05 278.69 84.87 277.51 84.87 274.26"/><line class="cls-1" x1="89.17" y1="284.77" x2="89.17" y2="278.69"/><line class="cls-1" x1="92.29" y1="284.77" x2="92.29" y2="278.69"/><line class="cls-1" x1="95.42" y1="284.77" x2="95.42" y2="278.69"/><line class="cls-1" x1="105.34" y1="297.3" x2="110.51" y2="297.3"/><line class="cls-1" x1="105.34" y1="303.57" x2="110.51" y2="303.57"/><line class="cls-1" x1="105.34" y1="309.84" x2="116.05" y2="309.84"/><line class="cls-1" x1="105.34" y1="312.92" x2="110.51" y2="312.92"/><polyline class="cls-1" points="105.34 306.65 113.35 306.65 119.69 300.31 124.3 300.31"/><rect x="100.92" y="315.02" width="1.49" height="3.13" transform="translate(203.34 633.18) rotate(180)"/><rect x="97.8" y="315.02" width="1.49" height="3.13" transform="translate(197.09 633.18) rotate(180)"/><rect x="94.67" y="315.02" width="1.49" height="3.13" transform="translate(190.84 633.18) rotate(180)"/><rect x="91.55" y="315.02" width="1.49" height="3.13" transform="translate(184.59 633.18) rotate(180)"/><rect x="88.42" y="315.02" width="1.49" height="3.13" transform="translate(178.34 633.18) rotate(180)"/><rect x="85.3" y="315.02" width="1.49" height="3.13" transform="translate(172.09 633.18) rotate(180)"/><rect x="82.17" y="315.02" width="1.49" height="3.13" transform="translate(165.84 633.18) rotate(180)"/><rect x="79.05" y="315.02" width="1.49" height="3.13" transform="translate(159.59 633.18) rotate(180)"/><rect x="75.92" y="315.02" width="1.49" height="3.13" transform="translate(153.34 633.18) rotate(180)"/><rect x="94.67" y="282.69" width="1.49" height="3.13" transform="translate(190.84 568.51) rotate(180)"/><rect x="91.55" y="282.69" width="1.49" height="3.13" transform="translate(184.59 568.51) rotate(180)"/><rect x="88.42" y="282.69" width="1.49" height="3.13" transform="translate(178.34 568.51) rotate(180)"/><rect x="85.3" y="282.69" width="1.49" height="3.13" transform="translate(172.09 568.51) rotate(180)"/><rect x="82.17" y="282.69" width="1.49" height="3.13" transform="translate(165.84 568.51) rotate(180)"/><rect x="79.05" y="282.69" width="1.49" height="3.13" transform="translate(159.59 568.51) rotate(180)"/><rect x="75.92" y="282.69" width="1.49" height="3.13" transform="translate(153.34 568.51) rotate(180)"/><rect x="72.26" y="311.35" width="1.49" height="3.13" transform="translate(-239.92 385.92) rotate(-90)"/><rect x="72.26" y="308.23" width="1.49" height="3.13" transform="translate(-236.79 382.8) rotate(-90)"/><rect x="72.26" y="305.1" width="1.49" height="3.13" transform="translate(-233.67 379.67) rotate(-90)"/><rect x="72.26" y="301.98" width="1.49" height="3.13" transform="translate(-230.54 376.55) rotate(-90)"/><rect x="72.26" y="298.86" width="1.49" height="3.13" transform="translate(-227.42 373.42) rotate(-90)"/><rect x="72.26" y="295.73" width="1.49" height="3.13" transform="translate(-224.29 370.3) rotate(-90)"/><rect x="72.26" y="292.61" width="1.49" height="3.13" transform="translate(-221.17 367.17) rotate(-90)"/><rect x="72.26" y="289.48" width="1.49" height="3.13" transform="translate(-218.04 364.05) rotate(-90)"/><rect x="72.26" y="286.36" width="1.49" height="3.13" transform="translate(-214.92 360.92) rotate(-90)"/><rect x="104.59" y="311.35" width="1.49" height="3.13" transform="translate(-207.58 418.26) rotate(-90)"/><rect x="104.59" y="308.23" width="1.49" height="3.13" transform="translate(-204.46 415.13) rotate(-90)"/><rect x="104.59" y="305.1" width="1.49" height="3.13" transform="translate(-201.33 412.01) rotate(-90)"/><rect x="104.59" y="301.98" width="1.49" height="3.13" transform="translate(-198.21 408.88) rotate(-90)"/><rect x="104.59" y="298.86" width="1.49" height="3.13" transform="translate(-195.08 405.76) rotate(-90)"/><rect x="104.59" y="295.73" width="1.49" height="3.13" transform="translate(-191.96 402.63) rotate(-90)"/><rect x="104.59" y="292.61" width="1.49" height="3.13" transform="translate(-188.84 399.51) rotate(-90)"/><rect class="cls-2" x="74.57" y="285.82" width="29.2" height="29.2" rx="1.34" transform="translate(178.34 600.84) rotate(180)"/><polyline class="cls-1" points="105.34 294.17 113.92 294.17 122.3 285.79"/><polyline class="cls-1" points="73 294.17 64.11 294.17 62.01 292.07 51.87 292.07"/><polyline class="cls-1" points="73 291.03 64.11 291.03 62.01 288.93 59.12 288.93"/><polyline class="cls-1" points="73.28 287.89 69.7 287.89 67.6 285.79 64.71 285.79"/><line class="cls-1" x1="92.29" y1="316.59" x2="92.29" y2="326.8"/><line class="cls-1" x1="98.54" y1="316.59" x2="98.54" y2="326.8"/><circle cx="69.08" cy="301.61" r="0.62"/><circle cx="122.66" cy="289.83" r="0.62"/><circle cx="124.35" cy="291.52" r="0.62"/><circle cx="120.94" cy="291.56" r="0.62"/><circle cx="122.62" cy="293.25" r="0.62"/><circle cx="117.7" cy="294.8" r="0.62"/><circle cx="119.39" cy="296.49" r="0.62"/><circle cx="115.97" cy="296.53" r="0.62"/><circle cx="117.66" cy="298.22" r="0.62"/><circle cx="69.08" cy="296.92" r="0.62"/><circle cx="67.06" cy="301.61" r="0.62"/><circle cx="67.06" cy="298.7" r="0.62"/><circle class="cls-1" cx="113.78" cy="300.46" r="1.23"/><circle class="cls-1" cx="98.54" cy="328.03" r="1.23"/><circle class="cls-1" cx="111.51" cy="303.55" r="1.23"/><circle class="cls-1" cx="78.64" cy="266.19" r="1.23"/><circle class="cls-3" cx="92.29" cy="326.8" r="0.75"/><circle class="cls-3" cx="64.71" cy="285.79" r="0.75"/><circle class="cls-3" cx="59.12" cy="288.93" r="0.75"/><circle class="cls-3" cx="51.87" cy="292.07" r="0.75"/><circle class="cls-3" cx="110.28" cy="297.31" r="0.75"/><circle class="cls-3" cx="116.05" cy="309.84" r="0.75"/><circle class="cls-3" cx="110.51" cy="312.92" r="0.75"/><circle class="cls-3" cx="84.87" cy="274.26" r="0.75"/><circle class="cls-3" cx="82.92" cy="271.39" r="0.75"/><circle class="cls-3" cx="71.78" cy="262.02" r="0.75"/><circle class="cls-3" cx="92.29" cy="278.69" r="0.75"/><circle class="cls-3" cx="95.42" cy="278.69" r="0.75"/><circle class="cls-3" cx="89.17" cy="278.69" r="0.75"/><path class="cls-4" d="M108.48,287.27l1.79-.19c0-.2,0-.41,0-.62l-1.79-.19c0-.1,0-.21,0-.32s0-.22-.07-.33l1.62-.79a5.71,5.71,0,0,0-.21-.58l-1.75.44a3.64,3.64,0,0,0-.33-.58l1.25-1.3c-.13-.16-.26-.32-.4-.47l-1.49,1a4.15,4.15,0,0,0-.51-.43l.73-1.64a5.64,5.64,0,0,0-.53-.31l-1.06,1.45a6.56,6.56,0,0,0-.62-.23l.12-1.79a6,6,0,0,0-.61-.11l-.5,1.73h-.66l-.5-1.73-.3,0-.3.06.12,1.8a4.13,4.13,0,0,0-.62.22L100.74,281a5.54,5.54,0,0,0-.53.3l.73,1.65a4.15,4.15,0,0,0-.51.43l-1.49-1a5.84,5.84,0,0,0-.39.48l1.24,1.29a6.65,6.65,0,0,0-.33.58l-1.74-.44c-.08.19-.15.39-.22.58l1.62.79a4.78,4.78,0,0,0-.11.66l-1.79.19c0,.2,0,.41,0,.61l1.79.19c0,.11,0,.22,0,.33s0,.22.07.33l-1.61.79c.06.19.13.39.21.58l1.74-.44a6.65,6.65,0,0,0,.33.58l-1.24,1.29a4.42,4.42,0,0,0,.39.47l1.5-1a5.15,5.15,0,0,0,.5.43l-.73,1.64.54.31,1.06-1.45a4.57,4.57,0,0,0,.62.22l-.12,1.8.6.11.5-1.73c.22,0,.44,0,.67,0l.49,1.72.31,0,.3-.06-.12-1.8a4.62,4.62,0,0,0,.62-.23l1.06,1.46a5.64,5.64,0,0,0,.53-.31l-.73-1.64a5.27,5.27,0,0,0,.51-.43l1.49,1a5.85,5.85,0,0,0,.4-.47l-1.25-1.29a4.79,4.79,0,0,0,.33-.58l1.75.43a5.54,5.54,0,0,0,.21-.57l-1.62-.8A3.55,3.55,0,0,0,108.48,287.27Zm-8.1,1a3.65,3.65,0,0,1,2.75-5.05l.05,2.05a1.66,1.66,0,0,0-1.05,1.92Zm3.45,2.22a3.66,3.66,0,0,1-2.9-1.32l1.76-1.08a1.6,1.6,0,0,0,1.09.39,1.66,1.66,0,0,0,1.08-.43l1.8,1A3.65,3.65,0,0,1,103.83,290.46Zm3.34-2.38-1.8-1a1.84,1.84,0,0,0,0-.33,1.66,1.66,0,0,0-1.16-1.54l0-2.06a3.68,3.68,0,0,1,3.22,3.55A3.62,3.62,0,0,1,107.17,288.08Z"/><path class="cls-4" d="M104.53,286.78a.79.79,0,1,1-.8-.77A.78.78,0,0,1,104.53,286.78Z"/><path class="cls-4" d="M79.73,314.17l1.79-.19c0-.21,0-.41,0-.62l-1.79-.19c0-.11,0-.22,0-.33a3,3,0,0,0-.08-.32l1.62-.79a5.71,5.71,0,0,0-.21-.58l-1.75.43a3.25,3.25,0,0,0-.33-.57l1.25-1.3a5.85,5.85,0,0,0-.4-.47l-1.49,1a5.17,5.17,0,0,0-.51-.42l.73-1.65c-.17-.11-.35-.21-.53-.31l-1.06,1.46a4.62,4.62,0,0,0-.62-.23l.12-1.8a6,6,0,0,0-.61-.1l-.49,1.73a3.75,3.75,0,0,0-.67,0l-.5-1.73-.3.05a1.59,1.59,0,0,0-.3.06l.12,1.79a4.62,4.62,0,0,0-.62.23L72,307.86l-.54.31.73,1.65a4.11,4.11,0,0,0-.5.42l-1.5-1a5.71,5.71,0,0,0-.39.47l1.25,1.3a4.08,4.08,0,0,0-.34.57L69,311.15a5.71,5.71,0,0,0-.21.58l1.61.79a4.64,4.64,0,0,0-.11.65l-1.79.19c0,.21,0,.41,0,.62l1.79.19c0,.11,0,.22,0,.33s0,.21.07.32l-1.61.79a5.71,5.71,0,0,0,.21.58l1.74-.43a4.08,4.08,0,0,0,.34.57l-1.25,1.3c.12.16.26.32.39.47l1.5-1a5.17,5.17,0,0,0,.51.42l-.73,1.65a5.54,5.54,0,0,0,.53.3L73.06,318a4.62,4.62,0,0,0,.62.23L73.56,320a4.21,4.21,0,0,0,.6.11l.5-1.73a3.75,3.75,0,0,0,.67,0l.5,1.73.3,0,.3-.06-.12-1.79a4.62,4.62,0,0,0,.62-.23L78,319.48l.54-.31-.74-1.65a5.17,5.17,0,0,0,.51-.42l1.5,1a5.71,5.71,0,0,0,.39-.47l-1.25-1.3a3.25,3.25,0,0,0,.33-.57l1.75.43a5.71,5.71,0,0,0,.21-.58l-1.61-.79A4.64,4.64,0,0,0,79.73,314.17Zm-8.1,1a3.6,3.6,0,0,1-.3-1.36,3.67,3.67,0,0,1,3.06-3.69l0,2.06a1.66,1.66,0,0,0-1.09,1.59c0,.11,0,.22,0,.33Zm3.45,2.22a3.64,3.64,0,0,1-2.9-1.32L73.94,315a1.61,1.61,0,0,0,1.09.38,1.66,1.66,0,0,0,1.08-.43l1.8,1A3.64,3.64,0,0,1,75.08,317.35ZM78.42,315l-1.8-1a1.84,1.84,0,0,0,0-.33,1.65,1.65,0,0,0-1.16-1.54l0-2.06a3.64,3.64,0,0,1,3,4.92Z"/><path class="cls-4" d="M75.78,313.67a.79.79,0,1,1-.8-.77A.8.8,0,0,1,75.78,313.67Z"/><polyline class="cls-5" points="95.33 295.96 96.48 297.11 96.48 297.93 97.44 298.89 97.47 301.06 98.48 301.85 98.48 303.63 97.86 304.35 97.83 305.5 95.85 307.48 95.85 308.28 94.19 310.23 90.95 310.23 89.84 309.12 89.89 295.97 89.84 291.69 90.9 290.73 92.5 290.73 95.33 293.56 95.33 295.96"/><polyline class="cls-5" points="91.75 307.69 91.75 302.63 89.91 300.78"/><polyline class="cls-5" points="89.88 307.11 91.95 309.18 93.04 308.1 92.29 307.34"/><line class="cls-5" x1="92.18" y1="308.18" x2="90.78" y2="306.78"/><polyline class="cls-5" points="90.37 302.65 90.37 305.96 90.82 306.41 90.82 303.06 91.28 303.06 91.28 307.33"/><line class="cls-5" x1="89.84" y1="308.18" x2="91.12" y2="309.46"/><polyline class="cls-5" points="93.52 308.62 92.49 309.64 93.66 309.64 96.16 307.14"/><polyline class="cls-5" points="94.16 305.89 94.16 305.11 92.32 303.36 92.32 306.67 93.87 308.22 97.19 304.9 97.19 303.62 97.9 302.91 97.6 302.61 96.7 303.51 96.7 304.6 93.94 307.36 92.92 306.34 92.92 304.48 93.57 305.13 93.57 305.92"/><polyline class="cls-5" points="94.91 305.28 92.33 302.71 92.33 300.38"/><polyline class="cls-5" points="91.5 299.82 91.5 300.82 90.82 300.82 90.82 299.24 91.75 299.24 92.74 300.23 92.74 302.45 94.78 304.49 96.16 304.49 96.16 302.99 97.83 301.32"/><polyline class="cls-5" points="97.25 298.73 96.05 299.92 96.05 298.95 95.55 298.45 93.25 300.75 93.25 301.99 94.81 303.55 94.81 301.48 95.02 301.27 95.02 300.5"/><polyline class="cls-5" points="97.47 299.29 95.64 301.03 95.64 299.24 93.88 301.01 93.88 301.86 94.37 302.36 94.37 301.21"/><polyline class="cls-5" points="97.47 301.06 95.75 302.7 95.75 304.49"/><polyline class="cls-5" points="95.21 303.96 95.21 302.36 97.48 300.09"/><polyline class="cls-5" points="89.91 299.16 91.65 297.42 93.31 299.09 95.1 297.29 93.6 295.79 92.72 296.67 93.59 297.54 93.93 297.2 93.5 296.77"/><polyline class="cls-5" points="91.23 298.73 91.72 298.23 93.34 299.85 95.91 297.29 93.76 295.15"/><polyline class="cls-5" points="94.86 293.07 94.86 294.7 93.06 294.7 93.06 293.78 92.17 292.9 90.9 292.9"/><polyline class="cls-5" points="94.44 292.67 94.44 294.14 93.47 294.14 93.47 293.4 92.28 292.21 90.95 292.21"/><polyline class="cls-5" points="90.88 293.61 91.75 293.61 91.75 294.46 89.87 296.25"/><polyline class="cls-5" points="89.89 295.39 91.12 294.16 90.37 294.16 90.37 291.92 90.88 291.34 92.41 291.34 93.82 292.75 93.82 293.31"/><polyline class="cls-5" points="89.88 297.84 92.55 295.18 94.54 295.18 95.41 296.05"/><polyline class="cls-5" points="92.55 295.18 92.55 293.97 92.23 293.97 92.23 294.8 90.75 296.28"/><polyline class="cls-5" points="83.97 295.96 82.83 297.11 82.83 297.93 81.86 298.89 81.83 301.06 80.82 301.85 80.82 303.63 81.44 304.35 81.47 305.5 83.45 307.48 83.45 308.28 85.11 310.23 88.35 310.23 89.46 309.12 89.41 295.97 89.46 291.69 88.41 290.73 86.8 290.73 83.97 293.56 83.97 295.96"/><polyline class="cls-5" points="87.55 307.69 87.55 302.63 89.39 300.78"/><polyline class="cls-5" points="89.42 307.11 87.35 309.18 86.26 308.1 87.02 307.34"/><line class="cls-5" x1="87.13" y1="308.18" x2="88.53" y2="306.78"/><polyline class="cls-5" points="88.93 302.65 88.93 305.96 88.48 306.41 88.48 303.06 88.03 303.06 88.03 307.33"/><line class="cls-5" x1="89.46" y1="308.18" x2="88.18" y2="309.46"/><polyline class="cls-5" points="85.79 308.62 86.81 309.64 85.64 309.64 83.14 307.14"/><polyline class="cls-5" points="85.14 305.89 85.14 305.11 86.98 303.36 86.98 306.67 85.43 308.22 82.12 304.9 82.12 303.62 81.41 302.91 81.7 302.61 82.61 303.51 82.61 304.6 85.36 307.36 86.38 306.34 86.38 304.48 85.73 305.13 85.73 305.92"/><polyline class="cls-5" points="84.4 305.28 86.97 302.71 86.97 300.38"/><polyline class="cls-5" points="87.81 299.82 87.81 300.82 88.48 300.82 88.48 299.24 87.55 299.24 86.56 300.23 86.56 302.45 84.53 304.49 83.14 304.49 83.14 302.99 81.48 301.32"/><polyline class="cls-5" points="82.06 298.73 83.25 299.92 83.25 298.95 83.75 298.45 86.05 300.75 86.05 301.99 84.49 303.55 84.49 301.48 84.29 301.27 84.29 300.5"/><polyline class="cls-5" points="81.84 299.29 83.66 301.03 83.66 299.24 85.43 301.01 85.43 301.86 84.93 302.36 84.93 301.21"/><polyline class="cls-5" points="81.83 301.06 83.55 302.7 83.55 304.49"/><polyline class="cls-5" points="84.09 303.96 84.09 302.36 81.82 300.09"/><polyline class="cls-5" points="89.39 299.16 87.66 297.42 85.99 299.09 84.2 297.29 85.7 295.79 86.58 296.67 85.71 297.54 85.37 297.2 85.8 296.77"/><polyline class="cls-5" points="88.08 298.73 87.58 298.23 85.96 299.85 83.39 297.29 85.54 295.15"/><polyline class="cls-5" points="84.45 293.07 84.45 294.7 86.25 294.7 86.25 293.78 87.13 292.9 88.41 292.9"/><polyline class="cls-5" points="84.87 292.67 84.87 294.14 85.83 294.14 85.83 293.4 87.02 292.21 88.35 292.21"/><polyline class="cls-5" points="88.43 293.61 87.55 293.61 87.55 294.46 89.43 296.25"/><polyline class="cls-5" points="89.41 295.39 88.18 294.16 88.93 294.16 88.93 291.92 88.43 291.34 86.89 291.34 85.48 292.75 85.48 293.31"/><polyline class="cls-5" points="89.42 297.84 86.75 295.18 84.76 295.18 83.89 296.05"/><polyline class="cls-5" points="86.75 295.18 86.75 293.97 87.08 293.97 87.08 294.8 88.56 296.28"/><polyline class="cls-1" points="25.55 216.79 25.55 210.75 20.66 205.86 20.66 193.21"/><line class="cls-1" x1="54.22" y1="231.39" x2="61.36" y2="231.39"/><polyline class="cls-1" points="28.68 215.23 28.68 205.33 27.52 204.18 27.52 198.4"/><line class="cls-1" x1="31.8" y1="215.75" x2="31.8" y2="202.37"/><polyline class="cls-1" points="34.93 215.75 34.93 209.66 33.75 208.49 33.75 205.24"/><line class="cls-1" x1="38.05" y1="215.75" x2="38.05" y2="209.66"/><line class="cls-1" x1="41.18" y1="215.75" x2="41.18" y2="209.66"/><line class="cls-1" x1="44.3" y1="215.75" x2="44.3" y2="209.66"/><line class="cls-1" x1="54.22" y1="228.27" x2="59.4" y2="228.27"/><line class="cls-1" x1="54.22" y1="234.54" x2="59.4" y2="234.54"/><line class="cls-1" x1="54.22" y1="240.81" x2="64.94" y2="240.81"/><line class="cls-1" x1="54.22" y1="243.89" x2="59.4" y2="243.89"/><polyline class="cls-1" points="54.22 237.62 62.23 237.62 68.58 231.28 73.18 231.28"/><rect x="49.81" y="246" width="1.49" height="3.13" transform="translate(101.1 495.12) rotate(180)"/><rect x="46.68" y="246" width="1.49" height="3.13" transform="translate(94.85 495.12) rotate(180)"/><rect x="43.56" y="246" width="1.49" height="3.13" transform="translate(88.61 495.12) rotate(180)"/><rect x="40.43" y="246" width="1.49" height="3.13" transform="translate(82.36 495.12) rotate(180)"/><rect x="37.31" y="246" width="1.49" height="3.13" transform="translate(76.11 495.12) rotate(180)"/><rect x="34.18" y="246" width="1.49" height="3.13" transform="translate(69.86 495.12) rotate(180)"/><rect x="31.06" y="246" width="1.49" height="3.13" transform="translate(63.61 495.12) rotate(180)"/><rect x="27.93" y="246" width="1.49" height="3.13" transform="translate(57.36 495.12) rotate(180)"/><rect x="24.81" y="246" width="1.49" height="3.13" transform="translate(51.11 495.12) rotate(180)"/><rect x="43.56" y="213.66" width="1.49" height="3.13" transform="translate(88.61 430.46) rotate(180)"/><rect x="40.43" y="213.66" width="1.49" height="3.13" transform="translate(82.36 430.46) rotate(180)"/><rect x="37.31" y="213.66" width="1.49" height="3.13" transform="translate(76.11 430.46) rotate(180)"/><rect x="34.18" y="213.66" width="1.49" height="3.13" transform="translate(69.86 430.46) rotate(180)"/><rect x="31.06" y="213.66" width="1.49" height="3.13" transform="translate(63.61 430.46) rotate(180)"/><rect x="27.93" y="213.66" width="1.49" height="3.13" transform="translate(57.36 430.46) rotate(180)"/><rect x="24.81" y="213.66" width="1.49" height="3.13" transform="translate(51.11 430.46) rotate(180)"/><rect x="21.14" y="242.33" width="1.49" height="3.13" transform="translate(-222.01 265.78) rotate(-90)"/><rect x="21.14" y="239.2" width="1.49" height="3.13" transform="translate(-218.88 262.66) rotate(-90)"/><rect x="21.14" y="236.08" width="1.49" height="3.13" transform="translate(-215.76 259.53) rotate(-90)"/><rect x="21.14" y="232.95" width="1.49" height="3.13" transform="translate(-212.63 256.41) rotate(-90)"/><rect x="21.14" y="229.83" width="1.49" height="3.13" transform="translate(-209.51 253.28) rotate(-90)"/><rect x="21.14" y="226.7" width="1.49" height="3.13" transform="translate(-206.38 250.16) rotate(-90)"/><rect x="21.14" y="223.58" width="1.49" height="3.13" transform="translate(-203.26 247.03) rotate(-90)"/><rect x="21.14" y="220.45" width="1.49" height="3.13" transform="translate(-200.13 243.91) rotate(-90)"/><rect x="21.14" y="217.33" width="1.49" height="3.13" transform="translate(-197.01 240.78) rotate(-90)"/><rect x="53.47" y="242.33" width="1.49" height="3.13" transform="translate(-189.67 298.11) rotate(-90)"/><rect x="53.47" y="239.2" width="1.49" height="3.13" transform="translate(-186.55 294.99) rotate(-90)"/><rect x="53.47" y="236.08" width="1.49" height="3.13" transform="translate(-183.42 291.86) rotate(-90)"/><rect x="53.47" y="232.95" width="1.49" height="3.13" transform="translate(-180.3 288.74) rotate(-90)"/><rect x="53.47" y="229.83" width="1.49" height="3.13" transform="translate(-177.18 285.61) rotate(-90)"/><rect x="53.47" y="226.7" width="1.49" height="3.13" transform="translate(-174.05 282.49) rotate(-90)"/><rect x="53.47" y="223.58" width="1.49" height="3.13" transform="translate(-170.93 279.37) rotate(-90)"/><rect class="cls-6" x="23.45" y="216.79" width="29.2" height="29.2" rx="1.34" transform="translate(76.11 462.79) rotate(180)"/><polyline class="cls-1" points="54.22 225.15 62.8 225.15 71.18 216.76"/><polyline class="cls-1" points="21.89 225.15 12.99 225.15 10.89 223.04 0.75 223.04"/><polyline class="cls-1" points="21.89 222 12.99 222 10.89 219.9 8 219.9"/><polyline class="cls-1" points="22.17 218.87 18.59 218.87 16.49 216.76 13.6 216.76"/><line class="cls-1" x1="41.18" y1="247.56" x2="41.18" y2="257.77"/><line class="cls-1" x1="47.43" y1="247.56" x2="47.43" y2="257.77"/><circle cx="17.96" cy="232.59" r="0.62"/><circle cx="71.55" cy="220.81" r="0.62"/><circle cx="73.24" cy="222.5" r="0.62"/><circle cx="69.82" cy="222.54" r="0.62"/><circle cx="71.51" cy="224.23" r="0.62"/><circle cx="66.58" cy="225.78" r="0.62"/><circle cx="68.27" cy="227.46" r="0.62"/><circle cx="64.85" cy="227.5" r="0.62"/><circle cx="66.54" cy="229.19" r="0.62"/><circle cx="17.96" cy="227.89" r="0.62"/><circle cx="15.94" cy="232.59" r="0.62"/><circle cx="15.94" cy="229.67" r="0.62"/><circle class="cls-1" cx="62.66" cy="231.43" r="1.23"/><circle class="cls-1" cx="47.43" cy="259" r="1.23"/><circle class="cls-1" cx="60.39" cy="234.52" r="1.23"/><circle class="cls-1" cx="27.52" cy="197.17" r="1.23"/><circle class="cls-3" cx="41.18" cy="257.77" r="0.75"/><circle class="cls-3" cx="13.59" cy="216.76" r="0.75"/><circle class="cls-3" cx="8" cy="219.9" r="0.75"/><circle class="cls-3" cx="0.75" cy="223.04" r="0.75"/><circle class="cls-3" cx="59.16" cy="228.28" r="0.75"/><circle class="cls-3" cx="64.94" cy="240.81" r="0.75"/><circle class="cls-3" cx="59.4" cy="243.89" r="0.75"/><circle class="cls-3" cx="33.75" cy="205.24" r="0.75"/><circle class="cls-3" cx="31.8" cy="202.37" r="0.75"/><circle class="cls-3" cx="20.66" cy="192.99" r="0.75"/><circle class="cls-3" cx="41.17" cy="209.66" r="0.75"/><circle class="cls-3" cx="44.3" cy="209.66" r="0.75"/><circle class="cls-3" cx="38.05" cy="209.66" r="0.75"/><path class="cls-4" d="M57.36,218.25l1.79-.2c0-.2,0-.4,0-.61l-1.79-.19c0-.11,0-.22,0-.33s0-.22-.07-.32l1.61-.8a5.54,5.54,0,0,0-.21-.57l-1.74.43a4.88,4.88,0,0,0-.34-.58l1.25-1.29a4.42,4.42,0,0,0-.39-.47l-1.5,1a5.17,5.17,0,0,0-.51-.42l.73-1.65c-.17-.11-.35-.21-.53-.31l-1.06,1.46a4.62,4.62,0,0,0-.62-.23l.12-1.8-.6-.11L53,213a3.75,3.75,0,0,0-.67,0l-.49-1.73-.31,0-.3.06.12,1.8a4.62,4.62,0,0,0-.62.23l-1.06-1.46a4.6,4.6,0,0,0-.53.31l.73,1.64c-.18.14-.35.28-.51.43l-1.5-1c-.13.15-.27.31-.39.47l1.25,1.3a3.25,3.25,0,0,0-.33.57l-1.75-.43a5.71,5.71,0,0,0-.21.58l1.61.79a4.64,4.64,0,0,0-.11.65l-1.79.19c0,.2,0,.41,0,.62l1.79.19a3.06,3.06,0,0,0,0,.32c0,.11,0,.22.07.33l-1.62.79a5.71,5.71,0,0,0,.21.58l1.75-.43a3.25,3.25,0,0,0,.33.57l-1.25,1.3a5.85,5.85,0,0,0,.4.47l1.49-1a4.15,4.15,0,0,0,.51.43l-.73,1.64a4.07,4.07,0,0,0,.53.31l1.06-1.45a6.56,6.56,0,0,0,.62.23l-.12,1.79a6,6,0,0,0,.61.11l.49-1.73H53l.5,1.73.3,0,.3-.06-.12-1.79a5.67,5.67,0,0,0,.62-.23l1.06,1.45a5.7,5.7,0,0,0,.54-.3l-.73-1.65a4.15,4.15,0,0,0,.51-.43l1.49,1a5.71,5.71,0,0,0,.39-.47l-1.25-1.3a4.76,4.76,0,0,0,.34-.57l1.74.43a5.71,5.71,0,0,0,.21-.58l-1.61-.79A4.64,4.64,0,0,0,57.36,218.25Zm-8.1,1A3.67,3.67,0,0,1,52,214.16l0,2.06A1.64,1.64,0,0,0,51,217.81a1.24,1.24,0,0,0,0,.33Zm3.45,2.22a3.64,3.64,0,0,1-2.9-1.32L51.57,219a1.68,1.68,0,0,0,1.09.38,1.66,1.66,0,0,0,1.08-.43l1.8,1A3.62,3.62,0,0,1,52.71,221.43Zm3.35-2.37-1.81-1a1.69,1.69,0,0,0,0-.33,1.65,1.65,0,0,0-1.16-1.53l0-2.06a3.67,3.67,0,0,1,3,4.92Z"/><path class="cls-4" d="M53.41,217.75a.79.79,0,1,1-.8-.77A.79.79,0,0,1,53.41,217.75Z"/><path class="cls-4" d="M28.61,245.14,30.4,245c0-.2,0-.41,0-.62l-1.79-.19c0-.1,0-.21,0-.32s-.05-.22-.07-.33l1.61-.79a5.71,5.71,0,0,0-.21-.58l-1.74.43a5.3,5.3,0,0,0-.33-.57l1.24-1.3a5.71,5.71,0,0,0-.39-.47l-1.49,1a4.15,4.15,0,0,0-.51-.43l.73-1.64a4.17,4.17,0,0,0-.54-.31l-1.06,1.45a6.56,6.56,0,0,0-.62-.23l.12-1.79c-.2-.05-.4-.08-.6-.11l-.5,1.73h-.66l-.5-1.73-.31.05-.3.06.12,1.79a6.56,6.56,0,0,0-.62.23l-1.06-1.45a5.54,5.54,0,0,0-.53.3l.73,1.65a4.15,4.15,0,0,0-.51.43l-1.49-1c-.14.15-.27.31-.4.48L19.93,242a5.45,5.45,0,0,0-.33.58l-1.75-.44a5.71,5.71,0,0,0-.21.58l1.62.79a3.65,3.65,0,0,0-.12.66l-1.79.19c0,.2,0,.41,0,.61l1.79.19c0,.11,0,.22.05.33a3,3,0,0,0,.07.32l-1.62.8c.06.19.13.39.21.58l1.75-.44a6.65,6.65,0,0,0,.33.58l-1.25,1.29c.13.17.26.32.4.47l1.49-1a5.27,5.27,0,0,0,.51.43l-.73,1.64c.17.11.35.21.53.31L21.94,249a4.29,4.29,0,0,0,.63.23l-.13,1.8.61.11.5-1.74a3.64,3.64,0,0,0,.66,0l.5,1.73.3,0,.3-.06-.12-1.8a4.29,4.29,0,0,0,.63-.23l1.06,1.46a5.64,5.64,0,0,0,.53-.31l-.73-1.64a5.27,5.27,0,0,0,.51-.43l1.49,1a5.71,5.71,0,0,0,.39-.47l-1.24-1.3a5.3,5.3,0,0,0,.33-.57l1.74.43c.08-.19.15-.38.22-.57l-1.62-.8A4.64,4.64,0,0,0,28.61,245.14Zm-8.1,1a3.68,3.68,0,0,1,2.76-5.06l.05,2.06a1.66,1.66,0,0,0-1.09,1.59,1.15,1.15,0,0,0,0,.33ZM24,248.33a3.68,3.68,0,0,1-2.9-1.32l1.76-1.08a1.64,1.64,0,0,0,2.17,0l1.81,1A3.69,3.69,0,0,1,24,248.33ZM27.31,246l-1.81-1a1.84,1.84,0,0,0,0-.33,1.66,1.66,0,0,0-1.16-1.54l0-2.06a3.67,3.67,0,0,1,3.21,3.55A3.62,3.62,0,0,1,27.31,246Z"/><path class="cls-4" d="M24.67,244.65a.79.79,0,1,1-.81-.77A.79.79,0,0,1,24.67,244.65Z"/><polyline class="cls-5" points="44.21 226.93 45.36 228.08 45.36 228.9 46.32 229.86 46.36 232.04 47.36 232.82 47.36 234.61 46.75 235.32 46.71 236.47 44.73 238.46 44.73 239.25 43.08 241.2 39.83 241.2 38.72 240.09 38.77 226.95 38.72 222.66 39.78 221.71 41.39 221.71 44.21 224.53 44.21 226.93"/><polyline class="cls-5" points="40.64 238.67 40.64 233.6 38.79 231.75"/><polyline class="cls-5" points="38.76 238.08 40.84 240.16 41.92 239.07 41.17 238.31"/><line class="cls-5" x1="41.06" y1="239.16" x2="39.66" y2="237.75"/><polyline class="cls-5" points="39.26 233.62 39.26 236.94 39.7 237.38 39.7 234.04 40.16 234.04 40.16 238.3"/><line class="cls-5" x1="38.73" y1="239.16" x2="40" y2="240.43"/><polyline class="cls-5" points="42.4 239.59 41.38 240.61 42.55 240.61 45.04 238.12"/><polyline class="cls-5" points="43.04 236.86 43.04 236.08 41.21 234.33 41.21 237.64 42.76 239.19 46.07 235.88 46.07 234.6 46.78 233.88 46.48 233.59 45.58 234.49 45.58 235.57 42.82 238.33 41.8 237.31 41.8 235.45 42.46 236.1 42.46 236.89"/><polyline class="cls-5" points="43.79 236.25 41.22 233.68 41.22 231.36"/><polyline class="cls-5" points="40.38 230.8 40.38 231.8 39.7 231.8 39.7 230.21 40.64 230.21 41.63 231.2 41.63 233.43 43.66 235.46 45.04 235.46 45.04 233.96 46.71 232.3"/><polyline class="cls-5" points="46.13 229.7 44.94 230.89 44.94 229.93 44.44 229.43 42.14 231.73 42.14 232.97 43.69 234.52 43.69 232.45 43.9 232.25 43.9 231.48"/><polyline class="cls-5" points="46.35 230.26 44.53 232.01 44.53 230.21 42.76 231.98 42.76 232.84 43.26 233.33 43.26 232.19"/><polyline class="cls-5" points="46.36 232.04 44.64 233.68 44.64 235.46"/><polyline class="cls-5" points="44.1 234.94 44.1 233.33 46.36 231.06"/><polyline class="cls-5" points="38.79 230.13 40.53 228.4 42.19 230.06 43.99 228.26 42.49 226.76 41.61 227.64 42.48 228.51 42.82 228.17 42.39 227.74"/><polyline class="cls-5" points="40.11 229.7 40.61 229.2 42.23 230.83 44.79 228.26 42.65 226.12"/><polyline class="cls-5" points="43.74 224.05 43.74 225.68 41.94 225.68 41.94 224.75 41.06 223.87 39.78 223.87"/><polyline class="cls-5" points="43.32 223.64 43.32 225.12 42.35 225.12 42.35 224.37 41.17 223.19 39.83 223.19"/><polyline class="cls-5" points="39.76 224.58 40.64 224.58 40.64 225.44 38.76 227.22"/><polyline class="cls-5" points="38.77 226.36 40 225.13 39.26 225.13 39.26 222.89 39.76 222.31 41.29 222.31 42.7 223.73 42.7 224.29"/><polyline class="cls-5" points="38.77 228.82 41.43 226.15 43.42 226.15 44.29 227.02"/><polyline class="cls-5" points="41.43 226.15 41.43 224.95 41.11 224.95 41.11 225.78 39.63 227.25"/><polyline class="cls-5" points="32.86 226.93 31.71 228.08 31.71 228.9 30.75 229.86 30.71 232.04 29.71 232.82 29.71 234.61 30.32 235.32 30.36 236.47 32.34 238.46 32.34 239.25 33.99 241.2 37.24 241.2 38.34 240.09 38.3 226.95 38.34 222.66 37.29 221.71 35.68 221.71 32.86 224.53 32.86 226.93"/><polyline class="cls-5" points="36.43 238.67 36.43 233.6 38.28 231.75"/><polyline class="cls-5" points="38.31 238.08 36.23 240.16 35.15 239.07 35.9 238.31"/><line class="cls-5" x1="36.01" y1="239.16" x2="37.41" y2="237.75"/><polyline class="cls-5" points="37.81 233.62 37.81 236.94 37.37 237.38 37.37 234.04 36.91 234.04 36.91 238.3"/><line class="cls-5" x1="38.34" y1="239.16" x2="37.07" y2="240.43"/><polyline class="cls-5" points="34.67 239.59 35.69 240.61 34.52 240.61 32.03 238.12"/><polyline class="cls-5" points="34.02 236.86 34.02 236.08 35.86 234.33 35.86 237.64 34.31 239.19 31 235.88 31 234.6 30.29 233.88 30.59 233.59 31.49 234.49 31.49 235.57 34.25 238.33 35.27 237.31 35.27 235.45 34.61 236.1 34.61 236.89"/><polyline class="cls-5" points="33.28 236.25 35.85 233.68 35.85 231.36"/><polyline class="cls-5" points="36.69 230.8 36.69 231.8 37.37 231.8 37.37 230.21 36.43 230.21 35.44 231.2 35.44 233.43 33.41 235.46 32.03 235.46 32.03 233.96 30.36 232.3"/><polyline class="cls-5" points="30.94 229.7 32.13 230.89 32.13 229.93 32.63 229.43 34.93 231.73 34.93 232.97 33.38 234.52 33.38 232.45 33.17 232.25 33.17 231.48"/><polyline class="cls-5" points="30.72 230.26 32.54 232.01 32.54 230.21 34.31 231.98 34.31 232.84 33.81 233.33 33.81 232.19"/><polyline class="cls-5" points="30.71 232.04 32.43 233.68 32.43 235.46"/><polyline class="cls-5" points="32.97 234.94 32.97 233.33 30.71 231.06"/><polyline class="cls-5" points="38.28 230.13 36.54 228.4 34.88 230.06 33.08 228.26 34.58 226.76 35.46 227.64 34.59 228.51 34.25 228.17 34.68 227.74"/><polyline class="cls-5" points="36.96 229.7 36.46 229.2 34.84 230.83 32.28 228.26 34.42 226.12"/><polyline class="cls-5" points="33.33 224.05 33.33 225.68 35.13 225.68 35.13 224.75 36.01 223.87 37.29 223.87"/><polyline class="cls-5" points="33.75 223.64 33.75 225.12 34.72 225.12 34.72 224.37 35.9 223.19 37.24 223.19"/><polyline class="cls-5" points="37.31 224.58 36.43 224.58 36.43 225.44 38.31 227.22"/><polyline class="cls-5" points="38.3 226.36 37.07 225.13 37.81 225.13 37.81 222.89 37.31 222.31 35.78 222.31 34.37 223.73 34.37 224.29"/><polyline class="cls-5" points="38.3 228.82 35.64 226.15 33.65 226.15 32.78 227.02"/><polyline class="cls-5" points="35.64 226.15 35.64 224.95 35.96 224.95 35.96 225.78 37.44 227.25"/><polyline class="cls-1" points="208.42 216.79 208.42 210.75 203.53 205.86 203.53 193.21"/><line class="cls-1" x1="237.08" y1="231.39" x2="244.22" y2="231.39"/><polyline class="cls-1" points="211.54 215.23 211.54 205.33 210.39 204.18 210.39 198.4"/><line class="cls-1" x1="214.67" y1="215.75" x2="214.67" y2="202.37"/><polyline class="cls-1" points="217.79 215.75 217.79 209.66 216.62 208.49 216.62 205.24"/><line class="cls-1" x1="220.92" y1="215.75" x2="220.92" y2="209.66"/><line class="cls-1" x1="224.04" y1="215.75" x2="224.04" y2="209.66"/><line class="cls-1" x1="227.17" y1="215.75" x2="227.17" y2="209.66"/><line class="cls-1" x1="237.08" y1="228.27" x2="242.26" y2="228.27"/><line class="cls-1" x1="237.08" y1="234.54" x2="242.26" y2="234.54"/><line class="cls-1" x1="237.08" y1="240.81" x2="247.8" y2="240.81"/><line class="cls-1" x1="237.08" y1="243.89" x2="242.26" y2="243.89"/><polyline class="cls-1" points="237.09 237.62 245.1 237.62 251.44 231.28 256.05 231.28"/><rect x="232.67" y="246" width="1.49" height="3.13" transform="translate(466.83 495.12) rotate(180)"/><rect x="229.55" y="246" width="1.49" height="3.13" transform="translate(460.59 495.12) rotate(180)"/><rect x="226.42" y="246" width="1.49" height="3.13" transform="translate(454.34 495.12) rotate(180)"/><rect x="223.3" y="246" width="1.49" height="3.13" transform="translate(448.09 495.12) rotate(180)"/><rect x="220.17" y="246" width="1.49" height="3.13" transform="translate(441.84 495.12) rotate(180)"/><rect x="217.05" y="246" width="1.49" height="3.13" transform="translate(435.59 495.12) rotate(180)"/><rect x="213.92" y="246" width="1.49" height="3.13" transform="translate(429.34 495.12) rotate(180)"/><rect x="210.8" y="246" width="1.49" height="3.13" transform="translate(423.09 495.12) rotate(180)"/><rect x="207.67" y="246" width="1.49" height="3.13" transform="translate(416.84 495.12) rotate(180)"/><rect x="226.42" y="213.66" width="1.49" height="3.13" transform="translate(454.34 430.46) rotate(180)"/><rect x="223.3" y="213.66" width="1.49" height="3.13" transform="translate(448.09 430.46) rotate(180)"/><rect x="220.17" y="213.66" width="1.49" height="3.13" transform="translate(441.84 430.46) rotate(180)"/><rect x="217.05" y="213.66" width="1.49" height="3.13" transform="translate(435.59 430.46) rotate(180)"/><rect x="213.92" y="213.66" width="1.49" height="3.13" transform="translate(429.34 430.46) rotate(180)"/><rect x="210.8" y="213.66" width="1.49" height="3.13" transform="translate(423.09 430.46) rotate(180)"/><rect x="207.67" y="213.66" width="1.49" height="3.13" transform="translate(416.84 430.46) rotate(180)"/><rect x="204.01" y="242.33" width="1.49" height="3.13" transform="translate(-39.14 448.65) rotate(-90)"/><rect x="204.01" y="239.2" width="1.49" height="3.13" transform="translate(-36.02 445.52) rotate(-90)"/><rect x="204.01" y="236.08" width="1.49" height="3.13" transform="translate(-32.89 442.4) rotate(-90)"/><rect x="204.01" y="232.95" width="1.49" height="3.13" transform="translate(-29.77 439.27) rotate(-90)"/><rect x="204.01" y="229.83" width="1.49" height="3.13" transform="translate(-26.64 436.15) rotate(-90)"/><rect x="204.01" y="226.7" width="1.49" height="3.13" transform="translate(-23.52 433.02) rotate(-90)"/><rect x="204.01" y="223.58" width="1.49" height="3.13" transform="translate(-20.39 429.9) rotate(-90)"/><rect x="204.01" y="220.45" width="1.49" height="3.13" transform="translate(-17.27 426.77) rotate(-90)"/><rect x="204.01" y="217.33" width="1.49" height="3.13" transform="translate(-14.14 423.65) rotate(-90)"/><rect x="236.34" y="242.33" width="1.49" height="3.13" transform="translate(-6.81 480.98) rotate(-90)"/><rect x="236.34" y="239.2" width="1.49" height="3.13" transform="translate(-3.68 477.85) rotate(-90)"/><rect x="236.34" y="236.08" width="1.49" height="3.13" transform="translate(-0.56 474.73) rotate(-90)"/><rect x="236.34" y="232.95" width="1.49" height="3.13" transform="translate(2.57 471.6) rotate(-90)"/><rect x="236.34" y="229.83" width="1.49" height="3.13" transform="translate(5.69 468.48) rotate(-90)"/><rect x="236.34" y="226.7" width="1.49" height="3.13" transform="translate(8.81 465.36) rotate(-90)"/><rect x="236.34" y="223.58" width="1.49" height="3.13" transform="translate(11.94 462.23) rotate(-90)"/><rect class="cls-7" x="206.32" y="216.79" width="29.2" height="29.2" rx="1.34" transform="translate(441.84 462.79) rotate(180)"/><polyline class="cls-1" points="237.09 225.15 245.67 225.15 254.05 216.76"/><polyline class="cls-1" points="204.75 225.15 195.86 225.15 193.76 223.04 183.61 223.04"/><polyline class="cls-1" points="204.75 222 195.86 222 193.76 219.9 190.87 219.9"/><polyline class="cls-1" points="205.03 218.87 201.45 218.87 199.35 216.76 196.46 216.76"/><line class="cls-1" x1="224.04" y1="247.56" x2="224.04" y2="257.77"/><line class="cls-1" x1="230.29" y1="247.56" x2="230.29" y2="257.77"/><circle cx="200.83" cy="232.59" r="0.62"/><circle cx="254.41" cy="220.81" r="0.62"/><circle cx="256.1" cy="222.5" r="0.62"/><circle cx="252.68" cy="222.54" r="0.62"/><circle cx="254.37" cy="224.23" r="0.62"/><circle cx="249.45" cy="225.78" r="0.62"/><circle cx="251.13" cy="227.46" r="0.62"/><circle cx="247.72" cy="227.5" r="0.62"/><circle cx="249.41" cy="229.19" r="0.62"/><circle cx="200.83" cy="227.89" r="0.62"/><circle cx="198.8" cy="232.59" r="0.62"/><circle cx="198.8" cy="229.67" r="0.62"/><circle class="cls-1" cx="245.53" cy="231.43" r="1.23"/><circle class="cls-1" cx="230.29" cy="259" r="1.23"/><circle class="cls-1" cx="243.25" cy="234.52" r="1.23"/><circle class="cls-1" cx="210.39" cy="197.17" r="1.23"/><circle class="cls-3" cx="224.04" cy="257.77" r="0.75"/><circle class="cls-3" cx="196.46" cy="216.76" r="0.75"/><circle class="cls-3" cx="190.87" cy="219.9" r="0.75"/><circle class="cls-3" cx="183.61" cy="223.04" r="0.75"/><circle class="cls-3" cx="242.02" cy="228.28" r="0.75"/><circle class="cls-3" cx="247.8" cy="240.81" r="0.75"/><circle class="cls-3" cx="242.26" cy="243.89" r="0.75"/><circle class="cls-3" cx="216.61" cy="205.24" r="0.75"/><circle class="cls-3" cx="214.67" cy="202.37" r="0.75"/><circle class="cls-3" cx="203.53" cy="192.99" r="0.75"/><circle class="cls-3" cx="224.04" cy="209.66" r="0.75"/><circle class="cls-3" cx="227.16" cy="209.66" r="0.75"/><circle class="cls-3" cx="220.92" cy="209.66" r="0.75"/><path class="cls-4" d="M240.23,218.25l1.79-.2c0-.2,0-.4,0-.61l-1.79-.19c0-.11,0-.22,0-.33a3,3,0,0,0-.07-.32l1.62-.8a5.54,5.54,0,0,0-.21-.57l-1.75.43a6.65,6.65,0,0,0-.33-.58l1.25-1.29c-.13-.17-.26-.32-.4-.47l-1.49,1a5.17,5.17,0,0,0-.51-.42l.73-1.65c-.17-.11-.35-.21-.53-.31l-1.06,1.46a4.29,4.29,0,0,0-.63-.23l.13-1.8-.61-.11-.5,1.74a3.64,3.64,0,0,0-.66,0l-.5-1.73-.3,0-.31.06.13,1.8a4.29,4.29,0,0,0-.63.23l-1.06-1.46a5.64,5.64,0,0,0-.53.31l.73,1.64c-.18.14-.35.28-.51.43l-1.49-1c-.14.15-.27.31-.4.47l1.25,1.3a5.3,5.3,0,0,0-.33.57l-1.75-.43c-.07.19-.15.38-.21.58l1.62.79c-.05.21-.09.43-.12.65l-1.78.19c0,.2,0,.41,0,.62l1.79.19a3.11,3.11,0,0,0,0,.32c0,.11,0,.22.07.33l-1.62.79.21.58,1.75-.43a5.3,5.3,0,0,0,.33.57l-1.25,1.3c.13.16.26.32.4.47l1.49-1a4.15,4.15,0,0,0,.51.43l-.73,1.64a4.17,4.17,0,0,0,.54.31l1.05-1.45c.21.09.41.16.63.23l-.12,1.79a5.78,5.78,0,0,0,.6.11l.5-1.73h.66l.5,1.73.31,0,.3-.06-.13-1.79a5.85,5.85,0,0,0,.63-.23l1.06,1.45a5.54,5.54,0,0,0,.53-.3l-.73-1.65a4.15,4.15,0,0,0,.51-.43l1.49,1c.14-.15.27-.31.4-.47l-1.25-1.3a6.48,6.48,0,0,0,.33-.57l1.75.43a5.71,5.71,0,0,0,.21-.58l-1.62-.79A4.66,4.66,0,0,0,240.23,218.25Zm-8.11,1a3.85,3.85,0,0,1-.29-1.36,3.66,3.66,0,0,1,3-3.69l.05,2.06a1.64,1.64,0,0,0-1.09,1.59,1.86,1.86,0,0,0,0,.33Zm3.45,2.22a3.62,3.62,0,0,1-2.89-1.32l1.76-1.07a1.64,1.64,0,0,0,2.16,0l1.81,1A3.64,3.64,0,0,1,235.57,221.43Zm3.35-2.37-1.8-1a1.17,1.17,0,0,0,0-.33A1.64,1.64,0,0,0,236,216.2l-.05-2.06a3.65,3.65,0,0,1,3.21,3.55A3.69,3.69,0,0,1,238.92,219.06Z"/><path class="cls-4" d="M236.28,217.75a.79.79,0,1,1-.81-.77A.79.79,0,0,1,236.28,217.75Z"/><path class="cls-4" d="M211.48,245.14l1.79-.19c0-.2,0-.41,0-.62l-1.79-.19c0-.1,0-.21,0-.32s0-.22-.07-.33l1.62-.79a5.71,5.71,0,0,0-.21-.58l-1.75.43a4,4,0,0,0-.33-.57l1.25-1.3c-.13-.16-.26-.32-.4-.47l-1.49,1a4.15,4.15,0,0,0-.51-.43l.73-1.64a4.07,4.07,0,0,0-.53-.31l-1.06,1.45a6.56,6.56,0,0,0-.62-.23l.12-1.79a6,6,0,0,0-.61-.11l-.5,1.73h-.66l-.5-1.73-.3.05-.3.06.12,1.79a5.67,5.67,0,0,0-.62.23l-1.06-1.45a4.68,4.68,0,0,0-.54.3l.73,1.65a4.15,4.15,0,0,0-.51.43l-1.49-1a4.54,4.54,0,0,0-.39.48L202.8,242a4.19,4.19,0,0,0-.34.58l-1.74-.44a5.71,5.71,0,0,0-.21.58l1.61.79a4.78,4.78,0,0,0-.11.66l-1.79.19c0,.2,0,.41,0,.61l1.79.19c0,.11,0,.22,0,.33s0,.22.07.32l-1.61.8c.06.19.13.39.21.58l1.74-.44a6.65,6.65,0,0,0,.33.58l-1.24,1.29a4.42,4.42,0,0,0,.39.47l1.5-1c.16.15.33.3.5.43l-.73,1.64.54.31,1.06-1.46a4.62,4.62,0,0,0,.62.23l-.12,1.8.6.11.5-1.74a3.75,3.75,0,0,0,.67,0l.49,1.73.31,0,.3-.06-.12-1.8a4.62,4.62,0,0,0,.62-.23l1.06,1.46a5.64,5.64,0,0,0,.53-.31l-.73-1.64a5.27,5.27,0,0,0,.51-.43l1.49,1a5.85,5.85,0,0,0,.4-.47l-1.25-1.3a4,4,0,0,0,.33-.57l1.75.43q.12-.28.21-.57l-1.62-.8A3.55,3.55,0,0,0,211.48,245.14Zm-8.1,1a3.66,3.66,0,0,1,2.75-5.06l.05,2.06a1.67,1.67,0,0,0-1.09,1.59,3,3,0,0,0,0,.33Zm3.45,2.22a3.68,3.68,0,0,1-2.9-1.32l1.76-1.08a1.62,1.62,0,0,0,1.09.39,1.66,1.66,0,0,0,1.08-.43l1.8,1A3.65,3.65,0,0,1,206.83,248.33Zm3.34-2.38-1.8-1a1.84,1.84,0,0,0,0-.33,1.66,1.66,0,0,0-1.16-1.54l-.05-2.06a3.68,3.68,0,0,1,3.22,3.55A3.62,3.62,0,0,1,210.17,246Z"/><path class="cls-4" d="M207.53,244.65a.79.79,0,1,1-.8-.77A.78.78,0,0,1,207.53,244.65Z"/><polyline class="cls-5" points="227.08 226.93 228.23 228.08 228.23 228.9 229.19 229.86 229.22 232.04 230.23 232.82 230.23 234.61 229.61 235.32 229.58 236.47 227.6 238.46 227.6 239.25 225.94 241.2 222.7 241.2 221.59 240.09 221.64 226.95 221.59 222.66 222.65 221.71 224.25 221.71 227.08 224.53 227.08 226.93"/><polyline class="cls-5" points="223.5 238.67 223.5 233.6 221.66 231.75"/><polyline class="cls-5" points="221.63 238.08 223.7 240.16 224.79 239.07 224.03 238.31"/><line class="cls-5" x1="223.93" y1="239.16" x2="222.52" y2="237.75"/><polyline class="cls-5" points="222.12 233.62 222.12 236.94 222.57 237.38 222.57 234.04 223.02 234.04 223.02 238.3"/><line class="cls-5" x1="221.59" y1="239.16" x2="222.87" y2="240.43"/><polyline class="cls-5" points="225.27 239.59 224.24 240.61 225.41 240.61 227.91 238.12"/><polyline class="cls-5" points="225.91 236.86 225.91 236.08 224.07 234.33 224.07 237.64 225.62 239.19 228.93 235.88 228.93 234.6 229.65 233.88 229.35 233.59 228.45 234.49 228.45 235.57 225.69 238.33 224.67 237.31 224.67 235.45 225.32 236.1 225.32 236.89"/><polyline class="cls-5" points="226.66 236.25 224.08 233.68 224.08 231.36"/><polyline class="cls-5" points="223.25 230.8 223.25 231.8 222.57 231.8 222.57 230.21 223.5 230.21 224.49 231.2 224.49 233.43 226.52 235.46 227.91 235.46 227.91 233.96 229.57 232.3"/><polyline class="cls-5" points="229 229.7 227.8 230.89 227.8 229.93 227.3 229.43 225 231.73 225 232.97 226.56 234.52 226.56 232.45 226.77 232.25 226.77 231.48"/><polyline class="cls-5" points="229.22 230.26 227.39 232.01 227.39 230.21 225.63 231.98 225.63 232.84 226.12 233.33 226.12 232.19"/><polyline class="cls-5" points="229.22 232.04 227.5 233.68 227.5 235.46"/><polyline class="cls-5" points="226.96 234.94 226.96 233.33 229.23 231.06"/><polyline class="cls-5" points="221.66 230.13 223.4 228.4 225.06 230.06 226.85 228.26 225.35 226.76 224.47 227.64 225.34 228.51 225.68 228.17 225.25 227.74"/><polyline class="cls-5" points="222.97 229.7 223.47 229.2 225.09 230.83 227.66 228.26 225.51 226.12"/><polyline class="cls-5" points="226.6 224.05 226.6 225.68 224.8 225.68 224.8 224.75 223.92 223.87 222.65 223.87"/><polyline class="cls-5" points="226.19 223.64 226.19 225.12 225.22 225.12 225.22 224.37 224.03 223.19 222.7 223.19"/><polyline class="cls-5" points="222.62 224.58 223.5 224.58 223.5 225.44 221.62 227.22"/><polyline class="cls-5" points="221.64 226.36 222.87 225.13 222.12 225.13 222.12 222.89 222.63 222.31 224.16 222.31 225.57 223.73 225.57 224.29"/><polyline class="cls-5" points="221.63 228.82 224.3 226.15 226.29 226.15 227.16 227.02"/><polyline class="cls-5" points="224.3 226.15 224.3 224.95 223.97 224.95 223.97 225.78 222.5 227.25"/><polyline class="cls-5" points="215.72 226.93 214.57 228.08 214.57 228.9 213.61 229.86 213.58 232.04 212.57 232.82 212.57 234.61 213.19 235.32 213.22 236.47 215.2 238.46 215.2 239.25 216.86 241.2 220.1 241.2 221.21 240.09 221.16 226.95 221.21 222.66 220.15 221.71 218.55 221.71 215.72 224.53 215.72 226.93"/><polyline class="cls-5" points="219.3 238.67 219.3 233.6 221.14 231.75"/><polyline class="cls-5" points="221.17 238.08 219.1 240.16 218.01 239.07 218.77 238.31"/><line class="cls-5" x1="218.87" y1="239.16" x2="220.28" y2="237.75"/><polyline class="cls-5" points="220.68 233.62 220.68 236.94 220.23 237.38 220.23 234.04 219.78 234.04 219.78 238.3"/><line class="cls-5" x1="221.21" y1="239.16" x2="219.93" y2="240.43"/><polyline class="cls-5" points="217.53 239.59 218.56 240.61 217.39 240.61 214.89 238.12"/><polyline class="cls-5" points="216.89 236.86 216.89 236.08 218.73 234.33 218.73 237.64 217.18 239.19 213.87 235.88 213.87 234.6 213.15 233.88 213.45 233.59 214.35 234.49 214.35 235.57 217.11 238.33 218.13 237.31 218.13 235.45 217.48 236.1 217.48 236.89"/><polyline class="cls-5" points="216.15 236.25 218.72 233.68 218.72 231.36"/><polyline class="cls-5" points="219.55 230.8 219.55 231.8 220.23 231.8 220.23 230.21 219.3 230.21 218.31 231.2 218.31 233.43 216.28 235.46 214.89 235.46 214.89 233.96 213.23 232.3"/><polyline class="cls-5" points="213.81 229.7 215 230.89 215 229.93 215.5 229.43 217.8 231.73 217.8 232.97 216.24 234.52 216.24 232.45 216.03 232.25 216.03 231.48"/><polyline class="cls-5" points="213.59 230.26 215.41 232.01 215.41 230.21 217.18 231.98 217.18 232.84 216.68 233.33 216.68 232.19"/><polyline class="cls-5" points="213.58 232.04 215.3 233.68 215.3 235.46"/><polyline class="cls-5" points="215.84 234.94 215.84 233.33 213.57 231.06"/><polyline class="cls-5" points="221.14 230.13 219.41 228.4 217.74 230.06 215.95 228.26 217.45 226.76 218.33 227.64 217.46 228.51 217.12 228.17 217.55 227.74"/><polyline class="cls-5" points="219.82 229.7 219.33 229.2 217.71 230.83 215.14 228.26 217.29 226.12"/><polyline class="cls-5" points="216.19 224.05 216.19 225.68 218 225.68 218 224.75 218.88 223.87 220.15 223.87"/><polyline class="cls-5" points="216.62 223.64 216.62 225.12 217.58 225.12 217.58 224.37 218.77 223.19 220.1 223.19"/><polyline class="cls-5" points="220.18 224.58 219.3 224.58 219.3 225.44 221.18 227.22"/><polyline class="cls-5" points="221.16 226.36 219.93 225.13 220.68 225.13 220.68 222.89 220.18 222.31 218.64 222.31 217.23 223.73 217.23 224.29"/><polyline class="cls-5" points="221.17 228.82 218.5 226.15 216.51 226.15 215.64 227.02"/><polyline class="cls-5" points="218.5 226.15 218.5 224.95 218.83 224.95 218.83 225.78 220.3 227.25"/><polyline class="cls-1" points="161.48 285.82 161.48 279.77 156.59 274.88 156.59 262.24"/><line class="cls-1" x1="190.15" y1="300.42" x2="197.28" y2="300.42"/><polyline class="cls-1" points="164.61 284.25 164.61 274.36 163.45 273.2 163.45 267.42"/><line class="cls-1" x1="167.73" y1="284.77" x2="167.73" y2="271.39"/><polyline class="cls-1" points="170.86 284.77 170.86 278.69 169.68 277.51 169.68 274.26"/><line class="cls-1" x1="173.98" y1="284.77" x2="173.98" y2="278.69"/><line class="cls-1" x1="177.11" y1="284.77" x2="177.11" y2="278.69"/><line class="cls-1" x1="180.23" y1="284.77" x2="180.23" y2="278.69"/><line class="cls-1" x1="190.15" y1="297.3" x2="195.32" y2="297.3"/><line class="cls-1" x1="190.15" y1="303.57" x2="195.32" y2="303.57"/><line class="cls-1" x1="190.15" y1="309.84" x2="200.86" y2="309.84"/><line class="cls-1" x1="190.15" y1="312.92" x2="195.32" y2="312.92"/><polyline class="cls-1" points="190.15 306.65 198.16 306.65 204.5 300.31 209.11 300.31"/><rect x="185.73" y="315.02" width="1.49" height="3.13" transform="translate(372.96 633.18) rotate(180)"/><rect x="182.61" y="315.02" width="1.49" height="3.13" transform="translate(366.71 633.18) rotate(180)"/><rect x="179.48" y="315.02" width="1.49" height="3.13" transform="translate(360.46 633.18) rotate(180)"/><rect x="176.36" y="315.02" width="1.49" height="3.13" transform="translate(354.21 633.18) rotate(180)"/><rect x="173.23" y="315.02" width="1.49" height="3.13" transform="translate(347.96 633.18) rotate(180)"/><rect x="170.11" y="315.02" width="1.49" height="3.13" transform="translate(341.71 633.18) rotate(180)"/><rect x="166.99" y="315.02" width="1.49" height="3.13" transform="translate(335.46 633.18) rotate(180)"/><rect x="163.86" y="315.02" width="1.49" height="3.13" transform="translate(329.21 633.18) rotate(180)"/><rect x="160.74" y="315.02" width="1.49" height="3.13" transform="translate(322.96 633.18) rotate(180)"/><rect x="179.48" y="282.69" width="1.49" height="3.13" transform="translate(360.46 568.51) rotate(180)"/><rect x="176.36" y="282.69" width="1.49" height="3.13" transform="translate(354.21 568.51) rotate(180)"/><rect x="173.23" y="282.69" width="1.49" height="3.13" transform="translate(347.96 568.51) rotate(180)"/><rect x="170.11" y="282.69" width="1.49" height="3.13" transform="translate(341.71 568.51) rotate(180)"/><rect x="166.99" y="282.69" width="1.49" height="3.13" transform="translate(335.46 568.51) rotate(180)"/><rect x="163.86" y="282.69" width="1.49" height="3.13" transform="translate(329.21 568.51) rotate(180)"/><rect x="160.74" y="282.69" width="1.49" height="3.13" transform="translate(322.96 568.51) rotate(180)"/><rect x="157.07" y="311.35" width="1.49" height="3.13" transform="translate(-155.11 470.73) rotate(-90)"/><rect x="157.07" y="308.23" width="1.49" height="3.13" transform="translate(-151.98 467.61) rotate(-90)"/><rect x="157.07" y="305.1" width="1.49" height="3.13" transform="translate(-148.86 464.48) rotate(-90)"/><rect x="157.07" y="301.98" width="1.49" height="3.13" transform="translate(-145.73 461.36) rotate(-90)"/><rect x="157.07" y="298.86" width="1.49" height="3.13" transform="translate(-142.61 458.24) rotate(-90)"/><rect x="157.07" y="295.73" width="1.49" height="3.13" transform="translate(-139.48 455.11) rotate(-90)"/><rect x="157.07" y="292.61" width="1.49" height="3.13" transform="translate(-136.36 451.99) rotate(-90)"/><rect x="157.07" y="289.48" width="1.49" height="3.13" transform="translate(-133.23 448.86) rotate(-90)"/><rect x="157.07" y="286.36" width="1.49" height="3.13" transform="translate(-130.11 445.74) rotate(-90)"/><rect x="189.4" y="311.35" width="1.49" height="3.13" transform="translate(-122.77 503.07) rotate(-90)"/><rect x="189.4" y="308.23" width="1.49" height="3.13" transform="translate(-119.65 499.94) rotate(-90)"/><rect x="189.4" y="305.1" width="1.49" height="3.13" transform="translate(-116.52 496.82) rotate(-90)"/><rect x="189.4" y="301.98" width="1.49" height="3.13" transform="translate(-113.4 493.69) rotate(-90)"/><rect x="189.4" y="298.86" width="1.49" height="3.13" transform="translate(-110.27 490.57) rotate(-90)"/><rect x="189.4" y="295.73" width="1.49" height="3.13" transform="translate(-107.15 487.44) rotate(-90)"/><rect x="189.4" y="292.61" width="1.49" height="3.13" transform="translate(-104.02 484.32) rotate(-90)"/><rect class="cls-8" x="159.38" y="285.82" width="29.2" height="29.2" rx="1.34" transform="translate(347.96 600.84) rotate(180)"/><polyline class="cls-1" points="190.15 294.17 198.73 294.17 207.11 285.79"/><polyline class="cls-1" points="157.81 294.17 148.92 294.17 146.82 292.07 136.68 292.07"/><polyline class="cls-1" points="157.81 291.03 148.92 291.03 146.82 288.93 143.93 288.93"/><polyline class="cls-1" points="158.09 287.89 154.51 287.89 152.41 285.79 149.52 285.79"/><line class="cls-1" x1="177.11" y1="316.59" x2="177.11" y2="326.8"/><line class="cls-1" x1="183.36" y1="316.59" x2="183.36" y2="326.8"/><circle cx="153.89" cy="301.61" r="0.62"/><circle cx="207.48" cy="289.83" r="0.62"/><circle cx="209.16" cy="291.52" r="0.62"/><circle cx="205.75" cy="291.56" r="0.62"/><circle cx="207.44" cy="293.25" r="0.62"/><circle cx="202.51" cy="294.8" r="0.62"/><circle cx="204.2" cy="296.49" r="0.62"/><circle cx="200.78" cy="296.53" r="0.62"/><circle cx="202.47" cy="298.22" r="0.62"/><circle cx="153.89" cy="296.92" r="0.62"/><circle cx="151.87" cy="301.61" r="0.62"/><circle cx="151.87" cy="298.7" r="0.62"/><circle class="cls-1" cx="198.59" cy="300.46" r="1.23"/><circle class="cls-1" cx="183.36" cy="328.03" r="1.23"/><circle class="cls-1" cx="196.32" cy="303.55" r="1.23"/><circle class="cls-1" cx="163.45" cy="266.19" r="1.23"/><circle class="cls-3" cx="177.11" cy="326.8" r="0.75"/><circle class="cls-3" cx="149.52" cy="285.79" r="0.75"/><circle class="cls-3" cx="143.93" cy="288.93" r="0.75"/><circle class="cls-3" cx="136.68" cy="292.07" r="0.75"/><circle class="cls-3" cx="195.09" cy="297.31" r="0.75"/><circle class="cls-3" cx="200.86" cy="309.84" r="0.75"/><circle class="cls-3" cx="195.32" cy="312.92" r="0.75"/><circle class="cls-3" cx="169.68" cy="274.26" r="0.75"/><circle class="cls-3" cx="167.73" cy="271.39" r="0.75"/><circle class="cls-3" cx="156.59" cy="262.02" r="0.75"/><circle class="cls-3" cx="177.1" cy="278.69" r="0.75"/><circle class="cls-3" cx="180.23" cy="278.69" r="0.75"/><circle class="cls-3" cx="173.98" cy="278.69" r="0.75"/><path class="cls-4" d="M193.29,287.27l1.79-.19c0-.2,0-.41,0-.62l-1.79-.19c0-.1,0-.21,0-.32s0-.22-.07-.33l1.62-.79a5.71,5.71,0,0,0-.21-.58l-1.75.44a3,3,0,0,0-.33-.58l1.25-1.3a5.85,5.85,0,0,0-.4-.47l-1.49,1a4.15,4.15,0,0,0-.51-.43l.73-1.64a5.64,5.64,0,0,0-.53-.31l-1.06,1.45a6.56,6.56,0,0,0-.62-.23l.12-1.79a6,6,0,0,0-.61-.11l-.49,1.73h-.67l-.5-1.73-.3,0-.3.06.12,1.8a4.57,4.57,0,0,0-.62.22L185.56,281a4.68,4.68,0,0,0-.54.3l.73,1.65a3.43,3.43,0,0,0-.5.43l-1.5-1a5.84,5.84,0,0,0-.39.48l1.25,1.29a4.88,4.88,0,0,0-.34.58l-1.74-.44c-.08.19-.15.39-.21.58l1.61.79a4.78,4.78,0,0,0-.11.66l-1.79.19c0,.2,0,.41,0,.61l1.79.19c0,.11,0,.22,0,.33s0,.22.07.33l-1.61.79c.06.19.13.39.21.58l1.74-.44a4.88,4.88,0,0,0,.34.58l-1.25,1.29a4.42,4.42,0,0,0,.39.47l1.5-1a5.27,5.27,0,0,0,.51.43l-.73,1.64c.17.11.35.21.53.31l1.06-1.45a4.57,4.57,0,0,0,.62.22l-.12,1.8.6.11.5-1.73c.22,0,.44,0,.67,0l.49,1.72.31,0,.3-.06-.12-1.8a4.62,4.62,0,0,0,.62-.23l1.06,1.46a5.79,5.79,0,0,0,.54-.31l-.74-1.64a5.27,5.27,0,0,0,.51-.43l1.5,1c.13-.15.27-.31.39-.47l-1.25-1.29a3.74,3.74,0,0,0,.33-.58l1.75.43a5.54,5.54,0,0,0,.21-.57l-1.61-.8A4.64,4.64,0,0,0,193.29,287.27Zm-8.1,1a3.65,3.65,0,0,1,2.76-5.05l0,2.05a1.67,1.67,0,0,0-1.09,1.59,3,3,0,0,0,0,.33Zm3.45,2.22a3.68,3.68,0,0,1-2.9-1.32l1.76-1.08a1.62,1.62,0,0,0,1.09.39,1.66,1.66,0,0,0,1.08-.43l1.8,1A3.65,3.65,0,0,1,188.64,290.46Zm3.34-2.38-1.8-1a1.84,1.84,0,0,0,0-.33,1.66,1.66,0,0,0-1.16-1.54l-.05-2.06a3.67,3.67,0,0,1,3.22,3.55A3.62,3.62,0,0,1,192,288.08Z"/><path class="cls-4" d="M189.34,286.78a.79.79,0,1,1-.8-.77A.78.78,0,0,1,189.34,286.78Z"/><path class="cls-4" d="M164.54,314.17l1.79-.19c0-.21,0-.41,0-.62l-1.79-.19c0-.11,0-.22,0-.33s-.05-.22-.07-.32l1.61-.79a5.71,5.71,0,0,0-.21-.58l-1.74.43a4.08,4.08,0,0,0-.34-.57l1.25-1.3a5.71,5.71,0,0,0-.39-.47l-1.5,1a5.17,5.17,0,0,0-.51-.42l.73-1.65c-.17-.11-.35-.21-.53-.31l-1.06,1.46a4.62,4.62,0,0,0-.62-.23l.12-1.8c-.2,0-.4-.08-.6-.1l-.5,1.73a3.75,3.75,0,0,0-.67,0l-.49-1.73-.31.05a1.59,1.59,0,0,0-.3.06l.12,1.79a4.62,4.62,0,0,0-.62.23l-1.06-1.46c-.19.1-.36.2-.53.31l.73,1.65a5.17,5.17,0,0,0-.51.42l-1.5-1c-.13.15-.27.31-.39.47l1.25,1.3a3.25,3.25,0,0,0-.33.57l-1.75-.43a5.71,5.71,0,0,0-.21.58l1.61.79a4.64,4.64,0,0,0-.11.65l-1.79.19c0,.21,0,.41,0,.62l1.79.19c0,.11,0,.22.05.33s0,.21.07.32l-1.62.79a5.71,5.71,0,0,0,.21.58l1.75-.43a3.25,3.25,0,0,0,.33.57l-1.25,1.3a5.85,5.85,0,0,0,.4.47l1.49-1a5.17,5.17,0,0,0,.51.42l-.73,1.65a5.54,5.54,0,0,0,.53.3l1.06-1.45a4.62,4.62,0,0,0,.62.23l-.12,1.79a4.1,4.1,0,0,0,.61.11l.49-1.73a3.75,3.75,0,0,0,.67,0l.5,1.73.3,0,.3-.06-.12-1.79a4.16,4.16,0,0,0,.62-.23l1.06,1.46.54-.31-.73-1.65a4.11,4.11,0,0,0,.5-.42l1.5,1a5.71,5.71,0,0,0,.39-.47l-1.25-1.3a4.08,4.08,0,0,0,.34-.57l1.74.43a5.71,5.71,0,0,0,.21-.58l-1.61-.79A4.64,4.64,0,0,0,164.54,314.17Zm-8.1,1a3.6,3.6,0,0,1-.29-1.36,3.65,3.65,0,0,1,3-3.69l0,2.06a1.65,1.65,0,0,0-1.08,1.59,1.24,1.24,0,0,0,0,.33Zm3.45,2.22A3.64,3.64,0,0,1,157,316l1.76-1.07a1.63,1.63,0,0,0,1.09.38,1.66,1.66,0,0,0,1.08-.43l1.8,1A3.64,3.64,0,0,1,159.89,317.35Zm3.35-2.37-1.81-1a1.84,1.84,0,0,0,0-.33,1.65,1.65,0,0,0-1.16-1.54l0-2.06a3.67,3.67,0,0,1,3,4.92Z"/><path class="cls-4" d="M160.59,313.67a.79.79,0,1,1-.8-.77A.8.8,0,0,1,160.59,313.67Z"/><polyline class="cls-5" points="180.14 295.96 181.29 297.11 181.29 297.93 182.25 298.89 182.28 301.06 183.29 301.85 183.29 303.63 182.68 304.35 182.64 305.5 180.66 307.48 180.66 308.28 179 310.23 175.76 310.23 174.65 309.12 174.7 295.97 174.65 291.69 175.71 290.73 177.31 290.73 180.14 293.56 180.14 295.96"/><polyline class="cls-5" points="176.57 307.69 176.57 302.63 174.72 300.78"/><polyline class="cls-5" points="174.69 307.11 176.77 309.18 177.85 308.1 177.1 307.34"/><line class="cls-5" x1="176.99" y1="308.18" x2="175.59" y2="306.78"/><polyline class="cls-5" points="175.19 302.65 175.19 305.96 175.63 306.41 175.63 303.06 176.09 303.06 176.09 307.33"/><line class="cls-5" x1="174.66" y1="308.18" x2="175.93" y2="309.46"/><polyline class="cls-5" points="178.33 308.62 177.31 309.64 178.47 309.64 180.97 307.14"/><polyline class="cls-5" points="178.97 305.89 178.97 305.11 177.13 303.36 177.13 306.67 178.68 308.22 182 304.9 182 303.62 182.71 302.91 182.41 302.61 181.51 303.51 181.51 304.6 178.75 307.36 177.73 306.34 177.73 304.48 178.38 305.13 178.38 305.92"/><polyline class="cls-5" points="179.72 305.28 177.15 302.71 177.15 300.38"/><polyline class="cls-5" points="176.31 299.82 176.31 300.82 175.63 300.82 175.63 299.24 176.57 299.24 177.55 300.23 177.55 302.45 179.59 304.49 180.97 304.49 180.97 302.99 182.64 301.32"/><polyline class="cls-5" points="182.06 298.73 180.86 299.92 180.86 298.95 180.36 298.45 178.06 300.75 178.06 301.99 179.62 303.55 179.62 301.48 179.83 301.27 179.83 300.5"/><polyline class="cls-5" points="182.28 299.29 180.46 301.03 180.46 299.24 178.69 301.01 178.69 301.86 179.19 302.36 179.19 301.21"/><polyline class="cls-5" points="182.28 301.06 180.56 302.7 180.56 304.49"/><polyline class="cls-5" points="180.03 303.96 180.03 302.36 182.29 300.09"/><polyline class="cls-5" points="174.72 299.16 176.46 297.42 178.12 299.09 179.92 297.29 178.41 295.79 177.53 296.67 178.41 297.54 178.75 297.2 178.32 296.77"/><polyline class="cls-5" points="176.04 298.73 176.53 298.23 178.16 299.85 180.72 297.29 178.58 295.15"/><polyline class="cls-5" points="179.67 293.07 179.67 294.7 177.87 294.7 177.87 293.78 176.98 292.9 175.71 292.9"/><polyline class="cls-5" points="179.25 292.67 179.25 294.14 178.28 294.14 178.28 293.4 177.09 292.21 175.76 292.21"/><polyline class="cls-5" points="175.69 293.61 176.57 293.61 176.57 294.46 174.68 296.25"/><polyline class="cls-5" points="174.7 295.39 175.93 294.16 175.19 294.16 175.19 291.92 175.69 291.34 177.22 291.34 178.63 292.75 178.63 293.31"/><polyline class="cls-5" points="174.69 297.84 177.36 295.18 179.35 295.18 180.22 296.05"/><polyline class="cls-5" points="177.36 295.18 177.36 293.97 177.04 293.97 177.04 294.8 175.56 296.28"/><polyline class="cls-5" points="168.78 295.96 167.64 297.11 167.64 297.93 166.67 298.89 166.64 301.06 165.63 301.85 165.63 303.63 166.25 304.35 166.28 305.5 168.26 307.48 168.26 308.28 169.92 310.23 173.16 310.23 174.27 309.12 174.23 295.97 174.27 291.69 173.22 290.73 171.61 290.73 168.78 293.56 168.78 295.96"/><polyline class="cls-5" points="172.36 307.69 172.36 302.63 174.21 300.78"/><polyline class="cls-5" points="174.24 307.11 172.16 309.18 171.07 308.1 171.83 307.34"/><line class="cls-5" x1="171.94" y1="308.18" x2="173.34" y2="306.78"/><polyline class="cls-5" points="173.74 302.65 173.74 305.96 173.29 306.41 173.29 303.06 172.84 303.06 172.84 307.33"/><line class="cls-5" x1="174.27" y1="308.18" x2="172.99" y2="309.46"/><polyline class="cls-5" points="170.6 308.62 171.62 309.64 170.45 309.64 167.95 307.14"/><polyline class="cls-5" points="169.95 305.89 169.95 305.11 171.79 303.36 171.79 306.67 170.24 308.22 166.93 304.9 166.93 303.62 166.22 302.91 166.51 302.61 167.42 303.51 167.42 304.6 170.18 307.36 171.19 306.34 171.19 304.48 170.54 305.13 170.54 305.92"/><polyline class="cls-5" points="169.21 305.28 171.78 302.71 171.78 300.38"/><polyline class="cls-5" points="172.62 299.82 172.62 300.82 173.29 300.82 173.29 299.24 172.36 299.24 171.37 300.23 171.37 302.45 169.34 304.49 167.95 304.49 167.95 302.99 166.29 301.32"/><polyline class="cls-5" points="166.87 298.73 168.06 299.92 168.06 298.95 168.56 298.45 170.86 300.75 170.86 301.99 169.3 303.55 169.3 301.48 169.1 301.27 169.1 300.5"/><polyline class="cls-5" points="166.65 299.29 168.47 301.03 168.47 299.24 170.24 301.01 170.24 301.86 169.74 302.36 169.74 301.21"/><polyline class="cls-5" points="166.64 301.06 168.36 302.7 168.36 304.49"/><polyline class="cls-5" points="168.9 303.96 168.9 302.36 166.63 300.09"/><polyline class="cls-5" points="174.21 299.16 172.47 297.42 170.81 299.09 169.01 297.29 170.51 295.79 171.39 296.67 170.52 297.54 170.18 297.2 170.61 296.77"/><polyline class="cls-5" points="172.89 298.73 172.39 298.23 170.77 299.85 168.21 297.29 170.35 295.15"/><polyline class="cls-5" points="169.26 293.07 169.26 294.7 171.06 294.7 171.06 293.78 171.94 292.9 173.22 292.9"/><polyline class="cls-5" points="169.68 292.67 169.68 294.14 170.65 294.14 170.65 293.4 171.83 292.21 173.16 292.21"/><polyline class="cls-5" points="173.24 293.61 172.36 293.61 172.36 294.46 174.24 296.25"/><polyline class="cls-5" points="174.22 295.39 173 294.16 173.74 294.16 173.74 291.92 173.24 291.34 171.71 291.34 170.29 292.75 170.29 293.31"/><polyline class="cls-5" points="174.23 297.84 171.56 295.18 169.57 295.18 168.7 296.05"/><polyline class="cls-5" points="171.56 295.18 171.56 293.97 171.89 293.97 171.89 294.8 173.37 296.28"/><ellipse class="cls-9" cx="129.31" cy="117.75" rx="1.67" ry="1.57"/><path class="cls-9" d="M138.43,113a10.07,10.07,0,0,0-1.74-2.16,11,11,0,0,0-14.75,0A10.07,10.07,0,0,0,120.2,113"/><path class="cls-9" d="M136.65,114.66a7.67,7.67,0,0,0-1.65-2.25,8.43,8.43,0,0,0-11.37,0,7.54,7.54,0,0,0-1.66,2.25"/><path class="cls-9" d="M134.79,116.41a5.26,5.26,0,0,0-1.47-2.41,5.92,5.92,0,0,0-8,0,5.1,5.1,0,0,0-1.47,2.41"/><line class="cls-9" x1="129.22" y1="121.66" x2="129.22" y2="154.32"/><rect class="cls-10" x="107.28" y="138.1" width="44.07" height="26.5"/><rect class="cls-11" x="104.34" y="130.64" width="49.94" height="9.97"/><circle class="cls-3" cx="109.25" cy="135.62" r="1.42"/><circle class="cls-3" cx="114.27" cy="135.62" r="1.42"/><circle class="cls-3" cx="119.29" cy="135.62" r="1.42"/><line class="cls-12" x1="123.96" y1="135.62" x2="147.45" y2="135.62"/><rect class="cls-11" x="104.34" y="145.94" width="49.94" height="9.97"/><circle class="cls-3" cx="109.25" cy="150.93" r="1.42"/><circle class="cls-3" cx="114.27" cy="150.93" r="1.42"/><circle class="cls-3" cx="119.29" cy="150.93" r="1.42"/><line class="cls-12" x1="123.96" y1="150.93" x2="147.45" y2="150.93"/><rect class="cls-11" x="104.34" y="161.25" width="49.94" height="9.97"/><circle class="cls-3" cx="109.25" cy="166.23" r="1.42"/><circle class="cls-3" cx="114.27" cy="166.23" r="1.42"/><circle class="cls-3" cx="119.29" cy="166.23" r="1.42"/><line class="cls-12" x1="123.96" y1="166.23" x2="147.45" y2="166.23"/><line class="cls-12" x1="135.5" y1="171.82" x2="135.5" y2="173.32"/><line class="cls-13" x1="135.5" y1="175.32" x2="135.5" y2="289.57"/><line class="cls-12" x1="135.5" y1="290.57" x2="135.5" y2="292.07"/><line class="cls-12" x1="148.21" y1="172.44" x2="148.21" y2="173.94"/><polyline class="cls-14" points="148.21 176.04 148.21 180.99 151.93 184.72 151.93 220.61"/><polyline class="cls-12" points="151.93 221.65 151.93 223.15 153.43 223.15"/><line class="cls-15" x1="155.56" y1="223.15" x2="181.05" y2="223.15"/><line class="cls-12" x1="182.11" y1="223.15" x2="183.61" y2="223.15"/><line class="cls-12" x1="110.58" y1="172.44" x2="110.58" y2="173.94"/><line class="cls-16" x1="110.58" y1="175.91" x2="110.58" y2="229.16"/><polyline class="cls-12" points="110.58 230.14 110.58 231.64 109.08 231.64"/><line class="cls-17" x1="106.93" y1="231.64" x2="75.75" y2="231.64"/><line class="cls-12" x1="74.68" y1="231.64" x2="73.18" y2="231.64"/><line class="cls-12" x1="123.12" y1="171.82" x2="123.12" y2="173.32"/><polyline class="cls-18" points="123.12 175.34 123.12 180.52 118.58 185.06 118.58 258.42"/><polyline class="cls-12" points="118.58 259.43 118.58 260.93 119.64 261.99"/><line class="cls-19" x1="120.61" y1="262.96" x2="122.54" y2="264.89"/><polyline class="cls-12" points="123.02 265.37 124.08 266.44 124.08 267.94"/><line class="cls-20" x1="124.08" y1="269.86" x2="124.08" y2="283.33"/><line class="cls-12" x1="124.08" y1="284.29" x2="124.08" y2="285.79"/><circle class="cls-21" cx="135.66" cy="171.82" r="2.67"/><circle class="cls-21" cx="148.21" cy="171.82" r="2.67"/><circle class="cls-21" cx="110.58" cy="171.82" r="2.67"/><circle class="cls-21" cx="123.12" cy="171.82" r="2.67"/><path class="cls-21" d="M205.5,99.59l113.41-.28s20.72-2.86,24.34-19.72-3.73-29.5-18.38-36.2a23.7,23.7,0,0,0-10.42-19.93c-11.29-7.84-19.83-6.41-19.83-6.41S293.7,2.35,273.24.53c-20.06-1.8-26.79,13-26.79,13S230.88,3.72,213.53,13s-15.79,25.89-15.79,25.89S174,44.32,172.5,65.11,188.43,99.63,205.5,99.59Z"/><line class="cls-22" x1="251.98" y1="84.86" x2="255.47" y2="88.68"/><line class="cls-22" x1="255.63" y1="85.03" x2="251.81" y2="88.52"/><line class="cls-22" x1="292.86" y1="83.18" x2="296.35" y2="87"/><line class="cls-22" x1="296.51" y1="83.34" x2="292.69" y2="86.84"/><line class="cls-22" x1="221.42" y1="87.28" x2="222.03" y2="87.93"/><line class="cls-22" x1="223.55" y1="87.38" x2="222.88" y2="87.97"/><line class="cls-22" x1="221.32" y1="89.43" x2="221.99" y2="88.83"/><line class="cls-22" x1="223.45" y1="89.52" x2="222.84" y2="88.87"/><line class="cls-22" x1="282.88" y1="23.21" x2="283.49" y2="23.86"/><line class="cls-22" x1="285.01" y1="23.31" x2="284.35" y2="23.9"/><line class="cls-22" x1="282.79" y1="25.36" x2="283.45" y2="24.77"/><line class="cls-22" x1="284.92" y1="25.45" x2="284.3" y2="24.8"/><line class="cls-22" x1="275.71" y1="67.32" x2="276.32" y2="67.97"/><line class="cls-22" x1="277.84" y1="67.42" x2="277.17" y2="68.01"/><line class="cls-22" x1="275.61" y1="69.47" x2="276.28" y2="68.87"/><line class="cls-22" x1="277.74" y1="69.56" x2="277.13" y2="68.91"/><circle class="cls-23" cx="199.61" cy="52.64" r="1.53"/><circle class="cls-23" cx="313.16" cy="60.53" r="1.53"/><line class="cls-23" x1="207.21" y1="37.65" x2="211.86" y2="37.86"/><line class="cls-23" x1="214.01" y1="37.96" x2="212.76" y2="37.9"/><line class="cls-23" x1="207.14" y1="39.12" x2="210.18" y2="39.26"/><line class="cls-23" x1="213.94" y1="39.43" x2="211.08" y2="39.3"/><line class="cls-23" x1="207.08" y1="40.65" x2="211.19" y2="40.84"/><line class="cls-23" x1="202.88" y1="86.61" x2="207.53" y2="86.82"/><line class="cls-23" x1="209.67" y1="86.92" x2="208.43" y2="86.86"/><line class="cls-23" x1="202.81" y1="88.09" x2="205.85" y2="88.22"/><line class="cls-23" x1="209.61" y1="88.39" x2="206.75" y2="88.26"/><line class="cls-23" x1="202.74" y1="89.62" x2="206.86" y2="89.8"/><polyline class="cls-23" points="219.25 31.25 217.34 29.55 215.27 31.07"/><polyline class="cls-23" points="223.24 31.43 221.32 29.73 219.25 31.25"/><polyline class="cls-23" points="227.26 31.61 225.34 29.91 223.27 31.43"/><line class="cls-23" x1="309.22" y1="36.38" x2="309.14" y2="38.27"/><line class="cls-23" x1="308.9" y1="43.54" x2="308.63" y2="49.49"/><line class="cls-23" x1="309.07" y1="39.69" x2="308.96" y2="42.24"/><rect class="cls-23" x="245.66" y="70.96" width="4.77" height="4.77" transform="translate(3.53 -11.03) rotate(2.57)"/><rect class="cls-23" x="292.54" y="32.31" width="2.86" height="2.86" transform="matrix(1, 0.04, -0.04, 1, 1.81, -13.13)"/><rect class="cls-23" x="237.14" y="25.49" width="2.86" height="2.86" transform="translate(1.44 -10.66) rotate(2.57)"/><polygon class="cls-23" points="210.46 77.09 205.96 76.11 209.07 72.7 210.46 77.09"/><polygon class="cls-23" points="258.12 30.2 255.03 33.62 253.61 29.23 258.12 30.2"/><polygon class="cls-23" points="273.63 84.29 270.55 87.71 269.13 83.33 273.63 84.29"/><text class="cls-24" transform="translate(228.59 59.85) rotate(-0.45)">D<tspan class="cls-25" x="6.64" y="0">A</tspan><tspan class="cls-26" x="12.16" y="0">T</tspan><tspan class="cls-27" x="16.59" y="0">A C</tspan><tspan class="cls-28" x="31.21" y="0">L</tspan><tspan class="cls-27" x="35.75" y="0">OUD</tspan></text><rect class="cls-23" x="299.19" y="67.17" width="8.03" height="11.04" transform="translate(3.56 -13.51) rotate(2.57)"/><line class="cls-23" x1="300.82" y1="68.92" x2="305.93" y2="69.15"/><line class="cls-23" x1="300.73" y1="70.74" x2="305.84" y2="70.97"/><line class="cls-23" x1="300.65" y1="72.55" x2="305.76" y2="72.78"/><rect class="cls-23" x="267.78" y="16.86" width="5.14" height="7.07" transform="translate(1.18 -12.09) rotate(2.57)"/><line class="cls-23" x1="268.82" y1="17.98" x2="272.09" y2="18.13"/><line class="cls-23" x1="268.76" y1="19.14" x2="272.04" y2="19.29"/><line class="cls-23" x1="268.71" y1="20.31" x2="271.98" y2="20.45"/><rect class="cls-23" x="243.6" y="32.26" width="4.74" height="6.51" transform="matrix(1, 0.04, -0.04, 1, 1.84, -10.98)"/><line class="cls-23" x1="244.56" y1="33.3" x2="247.57" y2="33.43"/><line class="cls-23" x1="244.51" y1="34.37" x2="247.53" y2="34.5"/><line class="cls-23" x1="244.46" y1="35.44" x2="247.48" y2="35.57"/><rect class="cls-23" x="190.59" y="61.83" width="7.47" height="10.27" transform="translate(3.19 -8.63) rotate(2.57)"/><line class="cls-23" x1="192.1" y1="63.46" x2="196.85" y2="63.67"/><line class="cls-23" x1="192.02" y1="65.15" x2="196.78" y2="65.36"/><line class="cls-23" x1="191.95" y1="66.83" x2="196.7" y2="67.05"/><text class="cls-29" transform="matrix(1, 0.04, -0.04, 1, 265.15, 77.58)">1010101010101101</text><text class="cls-29" transform="matrix(1, 0.04, -0.04, 1, 221.04, 24.51)">1010101</text><text class="cls-29" transform="matrix(1, 0.04, -0.04, 1, 222.46, 77.2)">1010101</text><text class="cls-29" transform="matrix(1, 0.04, -0.04, 1, 266.4, 38.26)">1010101</text><polyline class="cls-9" points="129.65 99.53 129.65 59.12 173.72 59.12"/><circle class="cls-4" cx="129.64" cy="99.53" r="2.82"/><circle class="cls-4" cx="173.72" cy="59.12" r="2.82"/><polyline class="cls-9" points="391.16 133.53 391.16 59.12 341.09 59.12"/><circle class="cls-4" cx="391.16" cy="133.53" r="2.82"/><circle class="cls-4" cx="341.09" cy="59.12" r="2.82"/><rect class="cls-30" x="463.32" y="200.11" width="7.78" height="35.16" transform="translate(934.42 435.39) rotate(180)"/><path class="cls-31" d="M465.07,226.83h4.27a8.2,8.2,0,0,1,8.2,8.2v13.51a0,0,0,0,1,0,0H456.88a0,0,0,0,1,0,0V235A8.2,8.2,0,0,1,465.07,226.83Z"/><path class="cls-31" d="M463.49,230.55h7.44a9.8,9.8,0,0,1,9.8,9.8v14.12a0,0,0,0,1,0,0h-27a0,0,0,0,1,0,0V240.35A9.8,9.8,0,0,1,463.49,230.55Z"/><path class="cls-30" d="M462.65,179.25h12.71v21.32H462.65A10.66,10.66,0,0,1,452,189.91h0A10.66,10.66,0,0,1,462.65,179.25Z"/><ellipse class="cls-32" cx="475.36" cy="189.91" rx="10.66" ry="10.66"/><circle class="cls-33" cx="475.25" cy="190.02" r="8.13"/><circle cx="475.25" cy="190.02" r="4.78"/><circle class="cls-34" cx="479.01" cy="187.13" r="1.44"/><circle class="cls-35" cx="390.81" cy="153" r="1.55"/><path class="cls-35" d="M382.33,148.29a10,10,0,0,1,1.62-2.15,9.67,9.67,0,0,1,15.33,2.15"/><path class="cls-35" d="M384,149.94a7.47,7.47,0,0,1,13.65,0"/><path class="cls-35" d="M385.71,151.67a5.19,5.19,0,0,1,1.38-2.39,5.25,5.25,0,0,1,7.44,0,5.17,5.17,0,0,1,1.37,2.39"/><line class="cls-35" x1="390.9" y1="156.88" x2="390.9" y2="226.7"/><rect class="cls-30" x="370.37" y="219" width="40.89" height="27.01"/><rect class="cls-35" x="346.08" y="167.45" width="37.4" height="24.2"/><line class="cls-35" x1="351.42" y1="167.45" x2="351.42" y2="191.65"/><line class="cls-35" x1="356.76" y1="167.45" x2="356.76" y2="191.65"/><line class="cls-35" x1="362.1" y1="167.45" x2="362.1" y2="191.65"/><line class="cls-35" x1="367.45" y1="167.45" x2="367.45" y2="191.65"/><line class="cls-35" x1="372.79" y1="167.45" x2="372.79" y2="191.65"/><line class="cls-35" x1="378.13" y1="167.45" x2="378.13" y2="191.65"/><line class="cls-35" x1="346.08" y1="172.29" x2="383.48" y2="172.29"/><line class="cls-35" x1="346.08" y1="177.13" x2="383.48" y2="177.13"/><line class="cls-35" x1="346.08" y1="181.97" x2="383.48" y2="181.97"/><line class="cls-35" x1="346.08" y1="186.81" x2="383.48" y2="186.81"/><rect class="cls-35" x="398.14" y="167.45" width="37.4" height="24.2"/><line class="cls-35" x1="403.48" y1="167.45" x2="403.48" y2="191.65"/><line class="cls-35" x1="408.83" y1="167.45" x2="408.83" y2="191.65"/><line class="cls-35" x1="414.17" y1="167.45" x2="414.17" y2="191.65"/><line class="cls-35" x1="419.51" y1="167.45" x2="419.51" y2="191.65"/><line class="cls-35" x1="424.85" y1="167.45" x2="424.85" y2="191.65"/><line class="cls-35" x1="430.2" y1="167.45" x2="430.2" y2="191.65"/><line class="cls-35" x1="398.14" y1="172.29" x2="435.54" y2="172.29"/><line class="cls-35" x1="398.14" y1="177.13" x2="435.54" y2="177.13"/><line class="cls-35" x1="398.14" y1="181.97" x2="435.54" y2="181.97"/><line class="cls-35" x1="398.14" y1="186.81" x2="435.54" y2="186.81"/><line class="cls-35" x1="383.48" y1="179.18" x2="398.14" y2="179.18"/><rect class="cls-31" x="366.49" y="225.39" width="48.65" height="27.01"/><rect class="cls-36" x="356.55" y="248.23" width="131.07" height="41.61"/><line class="cls-35" x1="356.75" y1="254.47" x2="487.82" y2="254.47"/><polyline class="cls-35" points="426.26 226.97 433.54 239.91 437.59 225.35"/><path class="cls-6" d="M425.22,243a8.32,8.32,0,0,1,16.64,0"/><circle class="cls-37" cx="426.26" cy="227.43" r="2.08"/><circle class="cls-37" cx="437.7" cy="225.35" r="2.08"/><line class="cls-30" x1="356.19" y1="206.98" x2="356.19" y2="233.9"/><path class="cls-38" d="M357.53,234.43a1.79,1.79,0,0,0-1.43-.69h0a1.83,1.83,0,0,0-1.82,1.82v7.83h3.69v-7.83A1.81,1.81,0,0,0,357.53,234.43Z"/><rect class="cls-30" x="353.27" y="200.37" width="5.63" height="6.83" rx="1.95"/><path class="cls-39" d="M359.77,240.1a1.61,1.61,0,0,0-1.52-1h-4.33a1.63,1.63,0,0,0-1.63,1.62v5h7.59v-5A1.56,1.56,0,0,0,359.77,240.1Z"/><rect class="cls-40" x="348.33" y="243.03" width="147.71" height="6.24"/><rect class="cls-41" x="445.17" y="258.71" width="18.71" height="8.78" rx="4.39"/><rect class="cls-42" x="447.68" y="261" width="13.69" height="4.2" rx="2.1"/><path d="M358.75,310.36a26,26,0,0,1-3.19-.2,3,3,0,0,1,.73-5.89,20,20,0,0,0,5.94-.15,3,3,0,0,1,1,5.84A26.17,26.17,0,0,1,358.75,310.36Zm-11.42-3.05a2.91,2.91,0,0,1-1.48-.4,26.08,26.08,0,0,1-6-4.79,3,3,0,1,1,4.34-4,20,20,0,0,0,4.65,3.69,3,3,0,0,1-1.48,5.54Zm23.85-.62a3,3,0,0,1-1.62-5.46A19.84,19.84,0,0,0,374,297.3a3,3,0,0,1,4.55,3.81,26.18,26.18,0,0,1-5.77,5.1A3,3,0,0,1,371.18,306.69Zm-33.93-11.35a3,3,0,0,1-2.79-1.95,25.87,25.87,0,0,1-1.53-7.55,3,3,0,1,1,5.92-.3,19.76,19.76,0,0,0,1.18,5.81,3,3,0,0,1-1.76,3.81A3,3,0,0,1,337.25,295.34Zm43.37-1.13a2.91,2.91,0,0,1-.87-.13,3,3,0,0,1-2-3.71,20,20,0,0,0,.87-5.87v-.07a3,3,0,0,1,2.95-3h0a3,3,0,0,1,3,2.94v.11a26.1,26.1,0,0,1-1.14,7.62A3,3,0,0,1,380.62,294.21Zm-43.4-14.52a3,3,0,0,1-2.79-4,26,26,0,0,1,3.67-6.77,3,3,0,1,1,4.74,3.58,19.38,19.38,0,0,0-2.83,5.21A3,3,0,0,1,337.22,279.69Zm42.59-1.19a3,3,0,0,1-2.73-1.8,19.79,19.79,0,0,0-3.12-5.05,3,3,0,0,1,4.53-3.83,25.73,25.73,0,0,1,4,6.55,3,3,0,0,1-1.56,3.89A3,3,0,0,1,379.81,278.5Zm-32.56-10.82a3,3,0,0,1-1.49-5.53,25.62,25.62,0,0,1,7.16-2.84,3,3,0,1,1,1.33,5.78,19.71,19.71,0,0,0-5.51,2.19A3,3,0,0,1,347.25,267.68Zm21.87-.61a3,3,0,0,1-1.35-.33,19.89,19.89,0,0,0-5.62-1.87,3,3,0,0,1,1-5.84,25.64,25.64,0,0,1,7.32,2.43,3,3,0,0,1-1.35,5.61Z"/><circle class="cls-43" cx="358.75" cy="284.5" r="22.89"/><circle class="cls-44" cx="358.75" cy="284.5" r="16.64"/><circle class="cls-37" cx="358.75" cy="284.5" r="3.12"/><path d="M422.17,310.36a26,26,0,0,1-3.18-.2,3,3,0,0,1,.72-5.89,20,20,0,0,0,5.94-.15,3,3,0,1,1,1,5.84A26.17,26.17,0,0,1,422.17,310.36Zm-11.42-3.05a3,3,0,0,1-1.48-.4,26,26,0,0,1-6-4.79,3,3,0,1,1,4.34-4,19.75,19.75,0,0,0,4.65,3.69,3,3,0,0,1-1.49,5.54Zm23.85-.62a3,3,0,0,1-1.61-5.46,20.06,20.06,0,0,0,4.45-3.93,3,3,0,0,1,4.54,3.81,25.74,25.74,0,0,1-5.77,5.1A3,3,0,0,1,434.6,306.69Zm-33.93-11.35a3,3,0,0,1-2.78-1.95,25.89,25.89,0,0,1-1.54-7.55,3,3,0,0,1,5.93-.3,19.76,19.76,0,0,0,1.18,5.81,3,3,0,0,1-2.79,4Zm43.38-1.13a3,3,0,0,1-2.84-3.84,20,20,0,0,0,.88-5.87v-.07a3,3,0,0,1,2.94-3h0a3,3,0,0,1,3,2.94v.11a25.77,25.77,0,0,1-1.14,7.62A3,3,0,0,1,444.05,294.21Zm-43.41-14.52a3,3,0,0,1-1-.18,3,3,0,0,1-1.78-3.8,26,26,0,0,1,3.68-6.77,3,3,0,1,1,4.73,3.58,20,20,0,0,0-2.83,5.21A3,3,0,0,1,400.64,279.69Zm42.59-1.19a3,3,0,0,1-2.73-1.8,19.79,19.79,0,0,0-3.12-5.05,3,3,0,0,1,4.53-3.83,25.76,25.76,0,0,1,4,6.55,3,3,0,0,1-2.73,4.13Zm-32.55-10.82a3,3,0,0,1-1.5-5.53,25.81,25.81,0,0,1,7.17-2.84,3,3,0,0,1,1.33,5.78,19.59,19.59,0,0,0-5.51,2.19A3,3,0,0,1,410.68,267.68Zm21.86-.61a3,3,0,0,1-1.34-.33,20,20,0,0,0-5.63-1.87,3,3,0,1,1,1-5.84,25.57,25.57,0,0,1,7.31,2.43,3,3,0,0,1-1.35,5.61Z"/><circle class="cls-43" cx="422.17" cy="284.5" r="22.89"/><circle class="cls-44" cx="422.17" cy="284.5" r="16.64"/><circle class="cls-37" cx="422.17" cy="284.5" r="3.12"/><path d="M485.59,310.36a26,26,0,0,1-3.18-.2,3,3,0,0,1,.73-5.89,20,20,0,0,0,5.93-.15,3,3,0,1,1,1,5.84A26,26,0,0,1,485.59,310.36Zm-11.41-3.05a2.91,2.91,0,0,1-1.48-.4,25.87,25.87,0,0,1-6-4.79,3,3,0,1,1,4.34-4,20,20,0,0,0,4.65,3.69,3,3,0,0,1-1.48,5.54Zm23.85-.62a3,3,0,0,1-1.62-5.46,19.84,19.84,0,0,0,4.45-3.93,3,3,0,0,1,4.54,3.81,25.91,25.91,0,0,1-5.76,5.1A3,3,0,0,1,498,306.69ZM464.1,295.34a3,3,0,0,1-2.79-1.95,25.87,25.87,0,0,1-1.53-7.55,3,3,0,1,1,5.92-.3,19.76,19.76,0,0,0,1.18,5.81,3,3,0,0,1-1.76,3.81A3,3,0,0,1,464.1,295.34Zm43.37-1.13a2.91,2.91,0,0,1-.87-.13,3,3,0,0,1-2-3.71,19.64,19.64,0,0,0,.88-5.87v-.07a3,3,0,0,1,2.95-3h0a3,3,0,0,1,3,2.94v.11a25.77,25.77,0,0,1-1.14,7.62A3,3,0,0,1,507.47,294.21Zm-43.4-14.52a3,3,0,0,1-2.79-4,25.7,25.7,0,0,1,3.67-6.77,3,3,0,1,1,4.73,3.58,19.63,19.63,0,0,0-2.82,5.21A3,3,0,0,1,464.07,279.69Zm42.58-1.19a3,3,0,0,1-2.72-1.8,19.79,19.79,0,0,0-3.12-5.05,3,3,0,0,1,4.53-3.83,25.73,25.73,0,0,1,4,6.55,3,3,0,0,1-1.56,3.89A3,3,0,0,1,506.65,278.5ZM474.1,267.68a3,3,0,0,1-1.49-5.53,25.62,25.62,0,0,1,7.16-2.84,3,3,0,1,1,1.33,5.78,19.71,19.71,0,0,0-5.51,2.19A3,3,0,0,1,474.1,267.68Zm21.87-.61a3,3,0,0,1-1.35-.33,19.89,19.89,0,0,0-5.62-1.87,3,3,0,1,1,1-5.84,25.47,25.47,0,0,1,7.31,2.43,3,3,0,0,1-1.34,5.61Z"/><circle class="cls-43" cx="485.59" cy="284.5" r="22.89"/><circle class="cls-44" cx="485.59" cy="284.5" r="16.64"/><circle class="cls-37" cx="485.59" cy="284.5" r="3.12"/></g></g></svg>