<svg width="99" height="137" viewBox="0 0 99 137" fill="none" xmlns="http://www.w3.org/2000/svg">
<g clip-path="url(#clip0_966_3904)">
<path d="M50.1804 2.99304L3.21875 84.3344H97.142L50.1804 2.99304Z" stroke="#03A5ED" stroke-width="2" stroke-linecap="round" stroke-linejoin="round"/>
<path d="M50.6719 31.2512V58.1203L72.9724 69.8777L50.6719 31.2512Z" fill="#B5C0F1"/>
<path d="M50.6716 58.1204L28.3711 69.8777H72.9722L50.6716 58.1204Z" fill="#221363"/>
<path d="M50.6716 31.2512L28.3711 69.8777L50.7112 58.1203L50.6716 31.2512Z" fill="#03A5ED"/>
<path d="M95.6962 87.0732C97.5207 87.0732 98.9997 85.5942 98.9997 83.7696C98.9997 81.9451 97.5207 80.4661 95.6962 80.4661C93.8716 80.4661 92.3926 81.9451 92.3926 83.7696C92.3926 85.5942 93.8716 87.0732 95.6962 87.0732Z" fill="#03A5ED"/>
<path d="M50.243 6.60715C52.0675 6.60715 53.5466 5.12809 53.5466 3.30358C53.5466 1.47906 52.0675 0 50.243 0C48.4185 0 46.9395 1.47906 46.9395 3.30358C46.9395 5.12809 48.4185 6.60715 50.243 6.60715Z" fill="#03A5ED"/>
<path d="M3.30358 87.1184C5.12809 87.1184 6.60715 85.6393 6.60715 83.8148C6.60715 81.9903 5.12809 80.5112 3.30358 80.5112C1.47906 80.5112 0 81.9903 0 83.8148C0 85.6393 1.47906 87.1184 3.30358 87.1184Z" fill="#03A5ED"/>
<path d="M29.2407 122.266L34.9161 113.191H38.5924L31.1099 124.937L38.7731 136.875H35.0629L29.2407 127.637L23.3846 136.875H19.6914L27.3659 124.937L19.8665 113.191H23.5258L29.2351 122.266H29.2407Z" fill="#221363"/>
<path d="M51.7501 127.292H46.1877V136.87H43.0479V113.186H50.8861C53.5515 113.186 55.6071 113.796 57.0415 115.01C58.4758 116.224 59.1987 117.991 59.1987 120.312C59.1987 121.786 58.7977 123.074 58.0015 124.169C57.2052 125.265 56.0927 126.084 54.6753 126.626L60.2377 136.678V136.875H56.889L51.7501 127.298V127.292ZM46.1877 124.74H50.9877C52.5407 124.74 53.7718 124.339 54.6866 123.537C55.6014 122.735 56.0589 121.656 56.0589 120.312C56.0589 118.844 55.624 117.72 54.7487 116.941C53.8734 116.156 52.6141 115.761 50.9651 115.749H46.182V124.745L46.1877 124.74Z" fill="#221363"/>
<path d="M79.3029 115.744H71.6906V136.87H68.5847V115.744H60.9893V113.191H79.3029V115.744Z" fill="#221363"/>
</g>
<defs>
<clipPath id="clip0_966_3904">
<rect width="99" height="136.87" fill="white"/>
</clipPath>
</defs>
</svg>
