<svg width="115" height="14" viewBox="0 0 115 14" fill="none" xmlns="http://www.w3.org/2000/svg">
  <path d="M4.71692 8.7097H2.22593V13.668H-0.0090332V0.777832H4.51287C5.99611 0.777832 7.1415 1.11166 7.94809 1.77933C8.75468 2.44699 9.15797 3.41278 9.15797 4.67671C9.15797 5.53927 8.95006 6.26096 8.53522 6.84276C8.12038 7.42455 7.54191 7.87223 6.79981 8.18484L9.68736 13.5522V13.667H7.29454L4.71499 8.70874L4.71692 8.7097ZM2.22593 6.90354H4.52249C5.27614 6.90354 5.8652 6.71347 6.28871 6.33236C6.71222 5.95125 6.92493 5.43121 6.92493 4.76934C6.92493 4.10746 6.72858 3.54497 6.3378 3.16675C5.94606 2.7895 5.36181 2.59461 4.58409 2.58206H2.22593V6.90258V6.90354Z" fill="black"/>
  <path d="M21.5418 7.55847C21.5418 8.82143 21.3243 9.93002 20.8882 10.8833C20.4522 11.8365 19.8295 12.5688 19.02 13.0792C18.2096 13.5896 17.2778 13.8453 16.2239 13.8453C15.1699 13.8453 14.2527 13.5906 13.4374 13.0792C12.6222 12.5688 11.9917 11.8413 11.547 10.8968C11.1023 9.95221 10.8771 8.86388 10.8713 7.62986V6.90431C10.8713 5.64714 11.0937 4.53758 11.5384 3.57565C11.983 2.61371 12.6096 1.87754 13.4201 1.36715C14.2296 0.856755 15.1584 0.601074 16.2066 0.601074C17.2547 0.601074 18.1836 0.852896 18.993 1.35847C19.8025 1.86307 20.4282 2.58862 20.87 3.53609C21.3117 4.48355 21.5351 5.58539 21.5418 6.84256V7.55943V7.55847ZM19.3068 6.88598C19.3068 5.45707 19.0373 4.36295 18.4993 3.60073C17.9603 2.83948 17.197 2.45837 16.2075 2.45837C15.2181 2.45837 14.4866 2.83755 13.9418 3.59591C13.397 4.35426 13.1188 5.42716 13.1073 6.81458V7.55847C13.1073 8.97484 13.3825 10.0699 13.9331 10.8437C14.4837 11.6165 15.2479 12.0034 16.2249 12.0034C17.2018 12.0034 17.9747 11.6262 18.5079 10.8707C19.0412 10.1153 19.3068 9.0115 19.3068 7.55943V6.88694V6.88598Z" fill="black"/>
  <path d="M23.7681 13.667V0.776855H28.1754C29.6298 0.776855 30.7367 1.0692 31.4961 1.65292C32.2555 2.23761 32.6357 3.10789 32.6357 4.26472C32.6357 4.85519 32.4769 5.38585 32.1583 5.85862C31.8407 6.33042 31.3748 6.69705 30.7627 6.95659C31.4576 7.1457 31.9947 7.50076 32.3749 8.02273C32.7551 8.54567 32.9447 9.17281 32.9447 9.90415C32.9447 11.114 32.5578 12.0432 31.7839 12.6925C31.0091 13.3418 29.9012 13.666 28.4584 13.666H23.769L23.7681 13.667ZM26.003 6.20403H28.1937C28.8886 6.20403 29.4315 6.0458 29.8233 5.7303C30.215 5.4148 30.4104 4.96711 30.4104 4.38918C30.4104 3.75143 30.2294 3.2912 29.8675 3.00754C29.5056 2.72388 28.9416 2.58302 28.1764 2.58302H26.004V6.20403H26.003ZM26.003 7.85099V11.8792H28.4854C29.1861 11.8792 29.7337 11.7055 30.1284 11.3562C30.523 11.0079 30.7203 10.5245 30.7203 9.90415C30.7203 8.564 30.0369 7.87994 28.6711 7.85003H26.004L26.003 7.85099Z" fill="black"/>
  <path d="M45.441 7.55847C45.441 8.82143 45.2234 9.93002 44.7874 10.8833C44.3514 11.8365 43.7287 12.5688 42.9192 13.0792C42.1097 13.5896 41.178 13.8453 40.124 13.8453C39.0701 13.8453 38.1528 13.5906 37.3375 13.0792C36.5223 12.5688 35.8919 11.8413 35.4472 10.8968C35.0025 9.95221 34.7773 8.86388 34.7715 7.62986V6.90431C34.7715 5.64714 34.9938 4.53758 35.4385 3.57565C35.8832 2.61371 36.5098 1.87754 37.3202 1.36715C38.1297 0.856755 39.0585 0.601074 40.1067 0.601074C41.1549 0.601074 42.0837 0.852896 42.8932 1.35847C43.7027 1.86307 44.3283 2.58862 44.7701 3.53609C45.2119 4.48355 45.4352 5.58539 45.441 6.84256V7.55943V7.55847ZM43.207 6.88598C43.207 5.45707 42.9375 4.36295 42.3985 3.60073C41.8595 2.83948 41.0962 2.45837 40.1067 2.45837C39.1172 2.45837 38.3857 2.83755 37.8409 3.59591C37.2962 4.35426 37.018 5.42716 37.0064 6.81458V7.55847C37.0064 8.97484 37.2817 10.0699 37.8323 10.8437C38.3828 11.6165 39.1471 12.0034 40.124 12.0034C41.101 12.0034 41.8739 11.6262 42.4071 10.8707C42.9404 10.1153 43.207 9.0115 43.207 7.55943V6.88694V6.88598Z" fill="black"/>
  <path d="M57.868 13.667H55.633L49.9012 4.52136V13.667H47.6663V0.776855H49.9012L55.6513 9.95722V0.776855H57.868V13.667Z" fill="black"/>
  <path d="M70.7725 7.55847C70.7725 8.82143 70.555 9.93002 70.119 10.8833C69.683 11.8365 69.0602 12.5688 68.2507 13.0792C67.4403 13.5896 66.5086 13.8453 65.4546 13.8453C64.4007 13.8453 63.4834 13.5906 62.6681 13.0792C61.8529 12.5688 61.2224 11.8413 60.7787 10.8968C60.334 9.95221 60.1088 8.86388 60.103 7.62986V6.90431C60.103 5.64714 60.3254 4.53758 60.7701 3.57565C61.2147 2.61371 61.8413 1.87754 62.6518 1.36715C63.4612 0.856755 64.3901 0.601074 65.4383 0.601074C66.4864 0.601074 67.4153 0.852896 68.2247 1.35847C69.0342 1.86307 69.6598 2.58862 70.1016 3.53609C70.5434 4.48355 70.7667 5.58539 70.7735 6.84256V7.55943L70.7725 7.55847ZM68.5376 6.88598C68.5376 5.45707 68.268 4.36295 67.73 3.60073C67.191 2.83948 66.4277 2.45837 65.4383 2.45837C64.4488 2.45837 63.7173 2.83755 63.1725 3.59591C62.6277 4.35426 62.3495 5.42716 62.338 6.81458V7.55847C62.338 8.97484 62.6133 10.0699 63.1638 10.8437C63.7144 11.6165 64.4786 12.0034 65.4556 12.0034C66.4325 12.0034 67.2054 11.6262 67.7387 10.8707C68.2719 10.1153 68.5376 9.0115 68.5376 7.55943V6.88694V6.88598Z" fill="black"/>
  <path d="M75.895 0.776855L79.6045 10.6567L83.3054 0.776855H86.1939V13.667H83.9686V9.41788L84.189 3.73406L80.3909 13.668H78.7922L75.0037 3.74371L75.2241 9.41884V13.668H72.9988V0.777821H75.896L75.895 0.776855Z" fill="black"/>
  <path d="M91.1914 13.667H88.9661V0.776855H91.1914V13.667Z" fill="black"/>
  <path d="M103.751 9.47074C103.622 10.8466 103.115 11.9185 102.232 12.6894C101.349 13.4593 100.175 13.8443 98.7086 13.8443C97.6845 13.8443 96.7817 13.6012 96.0011 13.1139C95.2205 12.6267 94.6189 11.9349 94.1954 11.0376C93.7719 10.1403 93.5505 9.09928 93.5332 7.91254V6.70843C93.5332 5.49274 93.7478 4.42178 94.1781 3.49458C94.6074 2.56834 95.2243 1.8534 96.028 1.35169C96.8317 0.849977 97.7606 0.599121 98.8145 0.599121C100.233 0.599121 101.376 0.984089 102.241 1.75402C103.107 2.52396 103.61 3.61422 103.751 5.02576H101.526C101.42 4.09953 101.151 3.4309 100.718 3.02085C100.286 2.61079 99.6509 2.40528 98.8155 2.40528C97.8433 2.40528 97.0974 2.76131 96.5767 3.47335C96.056 4.1854 95.7893 5.22934 95.7778 6.60616V7.74948C95.7778 9.14366 96.0261 10.2069 96.5237 10.9402C97.0214 11.6725 97.75 12.0391 98.7096 12.0391C99.5874 12.0391 100.247 11.8413 100.688 11.4457C101.129 11.0502 101.409 10.3922 101.527 9.4717H103.752L103.751 9.47074Z" fill="black"/>
  <path d="M112.468 10.3468C112.468 9.78045 112.27 9.34338 111.872 9.03656C111.475 8.72975 110.757 8.42004 109.722 8.10647C108.685 7.79386 107.861 7.44556 107.248 7.06155C106.077 6.32346 105.491 5.36153 105.491 4.17575C105.491 3.13663 105.913 2.28082 106.758 1.60833C107.603 0.935848 108.7 0.599121 110.048 0.599121C110.943 0.599121 111.741 0.764107 112.442 1.09504C113.143 1.42598 113.693 1.89682 114.094 2.50756C114.494 3.11829 114.694 3.7956 114.694 4.53949H112.469C112.469 3.867 112.258 3.3402 111.837 2.9591C111.417 2.57799 110.814 2.38792 110.032 2.38792C109.302 2.38792 108.735 2.54422 108.332 2.85683C107.929 3.16943 107.726 3.6065 107.726 4.16706C107.726 4.63887 107.944 5.03348 108.38 5.34898C108.816 5.66448 109.534 5.97226 110.535 6.26943C111.536 6.56756 112.34 6.90718 112.946 7.28733C113.553 7.66843 113.997 8.1055 114.28 8.59757C114.562 9.09059 114.704 9.66756 114.704 10.3285C114.704 11.4033 114.293 12.2572 113.472 12.892C112.651 13.5269 111.536 13.8433 110.129 13.8433C109.199 13.8433 108.343 13.6706 107.564 13.3252C106.783 12.9798 106.177 12.5032 105.745 11.8954C105.312 11.2875 105.095 10.5793 105.095 9.7708H107.33C107.33 10.5031 107.572 11.0695 108.055 11.4708C108.537 11.8722 109.229 12.0729 110.13 12.0729C110.908 12.0729 111.492 11.9147 111.884 11.5992C112.275 11.2837 112.471 10.8659 112.471 10.3458L112.468 10.3468Z" fill="black"/>
</svg>
  