<svg width="177" height="37" viewBox="0 0 177 37" fill="none" xmlns="http://www.w3.org/2000/svg">
<g clip-path="url(#clip0_882_1675)">
<path d="M171.6 9.50001V7.80001H172C172.8 7.80001 173.1 8.00001 173.1 8.60001C173.1 9.20002 172.7 9.50001 171.8 9.50001H171.6ZM170.7 7.20001L170.6 7.30001V10.6C170.6 11 170.6 11.4 170.5 12.2L170.6 12.3H171.4L171.5 12.2V10.2H172C172.5 11.1 172.9 11.8 173.2 12.2L173.3 12.3H174.2L174.3 12.2C174.1 11.9 173.9 11.7 172.9 10.1C173.7 9.80001 174 9.40001 174 8.70001C174 7.60001 173.2 7.30001 172.2 7.30001L170.7 7.20001ZM176.1 9.90001C176 11.9 174.3 13.5 172.3 13.4C170.3 13.5 168.6 11.9 168.5 9.90001V9.80001C168.6 7.70002 170.4 6.10001 172.4 6.20001C174.4 6.10001 176 7.60001 176.1 9.60001C176.1 9.70002 176.1 9.80001 176.1 9.90001ZM176.8 9.80001C176.8 7.50002 174.9 5.60001 172.6 5.70001H172.4C170 5.60001 167.9 7.40001 167.7 9.90001C167.7 12.3 169.6 14.1 172.3 14.1C174.7 14.2 176.7 12.4 176.8 10V9.80001Z" fill="#00629B"/>
<path d="M155.4 17.1C155.8 15.8 157.1 12.1 161.1 12.1C162.9 11.9 164.5 13.2 164.7 15V15.5C164.7 16 164.6 16.5 164.5 17C162.3 17.1 155.4 17.1 155.4 17.1ZM165.2 27C165.4 25.9 165.7 24.9 166.1 23.9L165.8 23.7C164.2 25.1 162.2 25.8 160.1 25.8C158.8 25.8 154.9 25.7 154.9 21.1C154.9 20.6 154.9 20.1 155 19.6C156.6 19.5 157.7 19.5 159.3 19.5H167.4L167.6 19.3C167.9 18.3 168 17.2 168 16.1C168 11.5 165.1 9.6 161 9.6C155 9.6 151.3 14.8 151.3 20.9C151.3 24.9 153.4 28.4 159.4 28.4C161.4 28.5 163.3 28 165.1 27H165.2ZM142.6 27.9C142.9 25.7 144.3 19.7 144.6 18.4C145.7 13.9 147.8 13.4 148.8 13.4C149.3 13.4 149.8 13.6 150.3 13.9L150.6 13.8C151.1 12.5 151.4 11.6 152 10.4L151.9 10.1C151.4 9.8 150.9 9.7 150.3 9.7C147.8 9.7 146.3 12.3 145.8 13.1C146.1 12 146.3 11 146.6 10L146.4 9.8C145 10.1 144 10.2 142.6 10.4L142.4 10.6C142.1 13.6 140.1 22.5 138.6 28L138.8 28.2C140.1 28.2 141.1 28.1 142.4 28.1L142.6 27.9ZM124.1 21.9C124.1 19.4 125.4 12.3 130.2 12.3C131.8 12.3 133.8 13 133.8 16.4C133.8 17.6 132.9 26.1 127.7 26.1C125.1 26 124.1 24.1 124.1 21.9ZM120.4 21.6C120.4 28 125.4 28.5 127.6 28.5C135.8 28.5 137.5 20.1 137.5 16.4C137.5 11.8 134.4 9.6 130.1 9.6C123.4 9.7 120.4 16 120.4 21.6ZM115.6 28C116.1 24.8 119.6 8.2 121.3 0.7L121.1 0.5C119.7 0.8 118.7 1 117.3 1.2L117.1 1.4C115.9 10.1 112.2 25.3 111.6 28.1L111.7 28.3C113 28.2 114 28.2 115.2 28.2L115.6 28ZM98.5 14.4C99.6 13.3 101 12.7 102.5 12.7C104.2 12.7 106.5 13.6 106.5 17.2C106.5 19.6 104.8 25.6 97.2 25.6C96.8 25.6 96.4 25.6 95.9 25.5L98.5 14.4ZM93.7 36.3C94.3 33.6 94.7 30.9 95.4 28.2H97.4C109.6 28.2 110.3 18.4 110.3 16.8C110.3 13.3 108.3 9.7 103.9 9.7C102.1 9.8 100.5 10.3 99 11.4L99.3 10L99.1 9.8C97.7 10 96.8 10.2 95.4 10.4L95.2 10.6C94.1 18 91.1 29.9 89.5 36.3L89.7 36.5H93.3L93.7 36.3ZM89.7 27.9C88.7 25.2 87.6 22.3 85.1 15.5C91.1 8.1 91.7 7.5 94.7 3.9L94.5 3.6H90.8L90.5 3.8C88.2 6.9 86.5 9 83.9 12.4C82.2 7.8 82.2 7.1 81.1 3.7L80.9 3.5C79.7 3.6 78.9 3.6 77.6 3.6H77L76.8 3.9C77.6 6.1 78.2 7.7 81.1 15.4C73.5 24.7 72.3 26 70.8 27.9L70.9 28.2C71.5 28.2 72.3 28.1 73 28.1H74.8L75.1 28C76.6 25.8 77.6 24.7 82.3 18.7C84 23.9 84.3 24.8 85.3 28L85.5 28.2H89.4L89.7 27.9ZM64.9 23.5C61.7 23.7 58.6 23.7 55.4 23.7C55.4 21.7 55.3 19.7 55.3 17.6H63.4L63.6 17.4C63.7 16.1 63.7 14.8 63.8 13.5L63.6 13.3C60.8 13.4 58 13.4 55.2 13.4V7.8C58.2 7.8 61.1 7.8 64.1 7.9L64.3 7.7C64.3 6.3 64.4 5.1 64.5 3.7L64.3 3.5C62 3.5 52.8 3.6 49 3.6L48.8 3.8C49 6.2 49 8.7 49 11.1V18.3C49 21.5 49 24.7 48.8 27.9L49 28.1C54.1 28.1 59.2 28 64.3 28L64.6 27.8C64.7 26.5 64.7 25 64.8 23.6L64.9 23.5ZM45.9 23.5C42.7 23.7 39.6 23.7 36.4 23.7C36.4 21.7 36.3 19.7 36.3 17.6H44.4L44.6 17.4C44.7 16.1 44.7 14.8 44.8 13.5L44.6 13.3C41.8 13.4 39 13.4 36.2 13.4V7.8C39.2 7.8 42.1 7.8 45.1 7.9L45.3 7.7C45.3 6.3 45.4 5.1 45.5 3.7L45.3 3.5C43 3.5 33.8 3.6 30 3.6L29.8 3.8C30 6.2 30 8.7 30 11.1V18.3C30 21.5 30 24.7 29.8 27.9L30 28.1C35.1 28.1 40.2 28 45.3 28L45.6 27.8C45.7 26.5 45.7 25 45.8 23.6L45.9 23.5ZM26.9 23.5C23.7 23.7 20.6 23.7 17.4 23.7C17.4 21.7 17.3 19.7 17.3 17.6H25.4L25.6 17.4C25.7 16.1 25.7 14.8 25.8 13.5L25.6 13.3C22.8 13.4 20 13.4 17.2 13.4V7.8C20.2 7.8 23.1 7.8 26.1 7.9L26.3 7.7C26.3 6.3 26.4 5.1 26.5 3.7L26.3 3.5C24 3.5 14.8 3.6 11 3.6L10.8 3.8C11 6.2 11 8.7 11 11.1V18.3C11 21.5 11 24.7 10.8 27.9L11 28.1C16.1 28.1 21.2 28 26.3 28L26.6 27.8C26.7 26.5 26.7 25 26.8 23.6L26.9 23.5ZM7.2 28C7 24.7 7 21.4 7 18.1C7 13.3 7.1 8.5 7.2 3.7L7.1 3.5C6.4 3.5 4.4 3.6 3.2 3.6H0.7L0.5 3.8C0.8 7.8 0.8 11.9 0.8 15.9V18.3C0.8 21.5 0.7 24.7 0.6 28L0.8 28.2C0.8 28.2 3.5 28.1 4.1 28.1H6.9L7.2 28Z" fill="#00629B"/>
</g>
<defs>
<clipPath id="clip0_882_1675">
<rect width="176.3" height="36" fill="white" transform="translate(0.5 0.5)"/>
</clipPath>
</defs>
</svg>
