<svg width="137" height="120" viewBox="0 0 137 120" fill="none" xmlns="http://www.w3.org/2000/svg">
<path d="M69.1202 4.1228L4.43359 116.165H133.807L69.1202 4.1228Z" stroke="#03A5ED" stroke-width="1.55571" stroke-linecap="round" stroke-linejoin="round"/>
<path d="M69.7979 43.0466V80.0571L100.515 96.252L69.7979 43.0466Z" fill="#B5C0F1"/>
<path d="M69.7967 80.057L39.0791 96.252H69.7967H100.514L69.7967 80.057Z" fill="#221363"/>
<path d="M69.7967 43.0466L39.0791 96.252L69.8511 80.0571L69.7967 43.0466Z" fill="#03A5ED"/>
<path d="M131.816 119.938C134.329 119.938 136.367 117.901 136.367 115.387C136.367 112.874 134.329 110.837 131.816 110.837C129.303 110.837 127.266 112.874 127.266 115.387C127.266 117.901 129.303 119.938 131.816 119.938Z" fill="#03A5ED"/>
<path d="M69.2057 9.10093C71.7189 9.10093 73.7562 7.06361 73.7562 4.55046C73.7562 2.03731 71.7189 0 69.2057 0C66.6926 0 64.6553 2.03731 64.6553 4.55046C64.6553 7.06361 66.6926 9.10093 69.2057 9.10093Z" fill="#03A5ED"/>
<path d="M4.55046 120C7.06361 120 9.10093 117.963 9.10093 115.45C9.10093 112.936 7.06361 110.899 4.55046 110.899C2.03731 110.899 0 112.936 0 115.45C0 117.963 2.03731 120 4.55046 120Z" fill="#03A5ED"/>
</svg>
