<svg width="40" height="31" viewBox="0 0 40 31" fill="none" xmlns="http://www.w3.org/2000/svg">
<path d="M36.9846 17.6786C36.8528 17.6786 36.7248 17.6921 36.5996 17.7152C36.129 16.5401 35.2723 15.7547 34.2935 15.7547C34.2444 15.7547 34.1962 15.7566 34.1491 15.7605V11.8346C34.1491 10.0564 32.6976 8.60049 30.9227 8.60049H22.8694V8.50497C22.8694 7.93089 22.4054 7.46585 21.8327 7.46585H19.9491V4.17577C20.8673 3.94421 21.5488 3.1135 21.5488 2.12069C21.5488 0.949381 20.6017 -0.000976562 19.4322 -0.000976562C18.2628 -0.000976562 17.3156 0.948417 17.3156 2.12069C17.3156 3.1135 17.9971 3.94421 18.9153 4.17577V7.46585H17.0317C16.459 7.46585 15.9951 7.93089 15.9951 8.50497V8.60049H7.94169C6.16777 8.60049 4.71534 10.0555 4.71534 11.8346V15.7576C3.774 15.8039 2.95586 16.5767 2.49963 17.7152C2.3745 17.6921 2.24648 17.6786 2.11462 17.6786C0.946125 17.6786 -0.00195312 18.628 -0.00195312 19.8002C-0.00195312 20.9725 0.945163 21.9219 2.11462 21.9219C2.24648 21.9219 2.3745 21.9084 2.49963 21.8852C2.95586 23.0237 3.77496 23.7956 4.71534 23.8429V27.7668C4.71534 29.545 6.16681 31.001 7.94169 31.001H30.9227C32.6966 31.001 34.1491 29.546 34.1491 27.7668V23.8409C34.1972 23.8448 34.2453 23.8467 34.2935 23.8467C35.2723 23.8467 36.129 23.0604 36.5996 21.8862C36.7248 21.9094 36.8528 21.9229 36.9846 21.9229C38.1531 21.9229 39.1012 20.9735 39.1012 19.8012C39.1012 18.6289 38.1541 17.6795 36.9846 17.6795V17.6786ZM19.5506 11.056C22.8193 11.056 25.4797 13.7218 25.4797 16.9993C25.4797 20.2769 22.8203 22.9427 19.5506 22.9427C16.2809 22.9427 13.6215 20.2769 13.6215 16.9993C13.6215 13.7218 16.2809 11.056 19.5506 11.056ZM28.939 24.1352C28.7965 24.3031 25.3767 28.2522 19.182 28.2522C12.9872 28.2522 10.1834 24.1844 10.0708 24.0117C9.70983 23.456 9.86769 22.7111 10.4221 22.3503C10.9746 21.9904 11.7138 22.1457 12.0757 22.6967C12.1719 22.8404 14.2548 25.8497 19.182 25.8497C24.1091 25.8497 27.0005 22.7092 27.116 22.5751C27.5481 22.0753 28.3028 22.0174 28.8042 22.4468C29.3047 22.8771 29.3663 23.6306 28.939 24.1343V24.1352Z" fill="black"/>
</svg>
