<svg width="178" height="38" viewBox="0 0 178 38" fill="none" xmlns="http://www.w3.org/2000/svg">
<g clip-path="url(#clip0_177_498)">
<path d="M31.5256 11.6145C30.7547 11.1314 29.7541 11.1314 28.9053 11.6145L22.8979 15.3083L18.8096 17.7153L12.8022 21.4091C12.0312 21.8922 11.0307 21.8922 10.1819 21.4091L5.40463 18.519C4.63371 18.0359 4.09653 17.1531 4.09653 16.1911V10.4859C4.09653 9.52395 4.5599 8.63693 5.40463 8.15803L10.1039 5.34707C10.8749 4.864 11.8754 4.864 12.7242 5.34707L17.4236 8.15803C18.1945 8.6411 18.7317 9.52395 18.7317 10.4859V14.1797L22.82 11.6936V7.99978C22.82 7.03781 22.3566 6.15079 21.5119 5.67189L12.794 0.362301C12.023 -0.120767 11.0225 -0.120767 10.1737 0.362301L1.3081 5.66356C0.45927 6.14663 0 7.02948 0 7.99978V18.6856C0 19.6476 0.463371 20.5346 1.3081 21.0135L10.1737 26.3147C10.9446 26.7978 11.9451 26.7978 12.794 26.3147L18.8014 22.7001L22.8897 20.2139L28.8971 16.5992C29.668 16.1162 30.6686 16.1162 31.5174 16.5992L36.2167 19.4102C36.9877 19.8933 37.5248 20.7761 37.5248 21.7381V27.4433C37.5248 28.4053 37.0615 29.2923 36.2167 29.7712L31.5174 32.6613C30.7465 33.1443 29.7459 33.1443 28.8971 32.6613L24.1978 29.8503C23.4269 29.3672 22.8897 28.4844 22.8897 27.5224V23.8286L18.8014 26.3147V30.0085C18.8014 30.9705 19.2647 31.8575 20.1095 32.3364L28.975 37.6377C29.746 38.1208 30.7465 38.1208 31.5953 37.6377L40.4609 32.3364C41.2318 31.8534 41.769 30.9705 41.769 30.0085V19.3227C41.769 18.3608 41.3056 17.4738 40.4609 16.9949L31.5256 11.6145Z" fill="black"/>
<path d="M58.0487 34.5852V25.7151C58.9877 26.9228 60.6977 27.6015 62.6783 27.6015C67.7262 27.6015 71.1379 23.9369 71.1379 18.34C71.1379 12.743 68.005 9.07837 63.1007 9.07837C60.8371 9.07837 59.0985 9.93207 58.0528 11.3188V9.35738H53.21V34.5852H58.0528H58.0487ZM62.0919 23.3289C59.4798 23.3289 57.7781 21.3342 57.7781 18.34C57.7781 15.3458 59.488 13.3135 62.0919 13.3135C64.6958 13.3135 66.3689 15.3083 66.3689 18.34C66.3689 21.3342 64.6302 23.3289 62.0919 23.3289Z" fill="black"/>
<path d="M82.1276 27.6057C87.524 27.6057 91.3909 23.687 91.3909 18.3441C91.3909 13.0012 87.524 9.08252 82.1276 9.08252C76.7311 9.08252 72.8643 13.0012 72.8643 18.3441C72.8725 23.687 76.7311 27.6057 82.1276 27.6057ZM82.1276 23.3247C79.5155 23.3247 77.7399 21.2925 77.7399 18.3358C77.7399 15.3791 79.5114 13.3094 82.1276 13.3094C84.7438 13.3094 86.5152 15.3416 86.5152 18.3358C86.5152 21.33 84.7438 23.3247 82.1276 23.3247Z" fill="black"/>
<path d="M99.1573 27.3182V1.56152H94.3145V27.3182H99.1573Z" fill="black"/>
<path d="M113.702 9.36572L110.04 20.9427L106.354 9.36572H101.413L107.777 27.1726L105.206 34.5852H109.835L112.304 27.2476L118.676 9.36572H113.702Z" fill="black"/>
<path d="M132.27 11.1439C131.294 9.89877 129.555 9.07422 127.427 9.07422C122.31 9.07422 119.209 12.7472 119.209 18.3358C119.209 23.9244 122.305 27.6057 127.497 27.6057C129.555 27.6057 131.397 26.8228 132.303 25.5027V27.8514C132.303 29.5297 131.22 30.6999 129.76 30.6999H121.686V34.5811H130.527C134.493 34.5811 137.142 32.1241 137.142 28.3845V9.36573H132.266V11.1439H132.27ZM128.26 23.3289C125.68 23.3289 123.983 21.3675 123.983 18.34C123.983 15.3125 125.693 13.3136 128.26 13.3136C130.827 13.3136 132.573 15.3083 132.573 18.34C132.582 21.3675 130.872 23.3289 128.26 23.3289Z" fill="black"/>
<path d="M149.341 27.6057C154.737 27.6057 158.604 23.687 158.604 18.3441C158.604 13.0012 154.737 9.08252 149.341 9.08252C143.945 9.08252 140.078 13.0012 140.078 18.3441C140.078 23.687 143.945 27.6057 149.341 27.6057ZM149.341 23.3247C146.729 23.3247 144.953 21.2925 144.953 18.3358C144.953 15.3791 146.725 13.3094 149.341 13.3094C151.957 13.3094 153.729 15.3416 153.729 18.3358C153.729 21.2925 151.949 23.3247 149.341 23.3247Z" fill="black"/>
<path d="M166.124 27.3184V17.4863C166.124 15.1709 167.621 13.4968 169.749 13.4968C171.878 13.4968 173.124 15.0668 173.124 17.2364V27.3225H178V16.137C178 12.0018 175.421 9.07837 171.455 9.07837C169.056 9.07837 167.105 10.1111 166.129 11.856V9.36155H161.253V27.3225H166.124V27.3184Z" fill="black"/>
</g>
<defs>
<clipPath id="clip0_177_498">
<rect width="178" height="38" fill="white"/>
</clipPath>
</defs>
</svg>
