<svg width="140" height="33" viewBox="0 0 140 33" fill="none" xmlns="http://www.w3.org/2000/svg">
<g clip-path="url(#clip0_224_632)">
<path d="M32.0366 16.0183C32.0366 24.8636 24.8636 32.0366 16.0183 32.0366C7.173 32.0366 0 24.8636 0 16.0183C0 7.173 7.173 0 16.0183 0C24.8636 0 32.0366 7.173 32.0366 16.0183Z" fill="#2081E2"/>
<path d="M7.90376 16.5565L7.97424 16.4476L12.1422 9.92816C12.2031 9.83205 12.3472 9.84166 12.3921 9.94738C13.0873 11.5076 13.6896 13.449 13.4076 14.6568C13.2859 15.1533 12.9591 15.8261 12.5875 16.4476C12.5395 16.5373 12.4882 16.627 12.4305 16.7135C12.4049 16.752 12.3601 16.7776 12.312 16.7776H8.0255C7.91017 16.7776 7.84289 16.6526 7.90376 16.5597V16.5565Z" fill="white"/>
<path d="M26.4752 17.7675V18.7991C26.4752 18.8568 26.4399 18.9112 26.3855 18.9337C26.0619 19.0714 24.9599 19.5776 24.4985 20.2183C23.326 21.849 22.4322 24.1813 20.4299 24.1813H12.0811C9.12095 24.1813 6.72461 21.7753 6.72461 18.8055V18.7094C6.72461 18.6293 6.78868 18.5652 6.86877 18.5652H11.5237C11.6166 18.5652 11.6839 18.6517 11.6743 18.7414C11.6422 19.0458 11.6967 19.3533 11.8409 19.6353C12.1164 20.1959 12.6898 20.5483 13.3081 20.5483H15.6116V18.7511H13.3338C13.2184 18.7511 13.148 18.6165 13.2152 18.5204C13.2409 18.4819 13.2665 18.4435 13.2985 18.3987C13.5132 18.0911 13.8207 17.617 14.1283 17.0755C14.3365 16.7103 14.5383 16.3195 14.7017 15.9286C14.7338 15.8582 14.7594 15.7845 14.7882 15.714C14.8331 15.589 14.8779 15.4705 14.9132 15.3552C14.9452 15.2559 14.9708 15.1533 14.9997 15.054C15.0766 14.7209 15.1086 14.3684 15.1086 14.0032C15.1086 13.8591 15.1022 13.7117 15.0894 13.5675C15.083 13.4106 15.0637 13.2536 15.0445 13.0998C15.0317 12.962 15.0061 12.8243 14.9804 12.6833C14.9484 12.4751 14.9004 12.2668 14.8491 12.0586L14.8299 11.9785C14.7914 11.8344 14.7562 11.6998 14.7113 11.5556C14.58 11.1071 14.4326 10.6682 14.2724 10.2581C14.2148 10.0948 14.1475 9.93778 14.0834 9.78401C13.9873 9.55014 13.888 9.3355 13.7983 9.13366C13.7534 9.04076 13.7118 8.95746 13.6734 8.87096C13.6285 8.77485 13.5836 8.67554 13.5356 8.58584C13.5036 8.51536 13.4651 8.44808 13.4395 8.38401L13.1576 7.86501C13.1191 7.79453 13.1832 7.71124 13.2601 7.73046L15.0221 8.20781H15.0285H15.0349L15.2656 8.27188L15.5219 8.34556L15.6148 8.37119V7.3236C15.6148 6.81742 16.0184 6.40735 16.5214 6.40735C16.7713 6.40735 16.9988 6.50987 17.1621 6.67646C17.3255 6.84305 17.428 7.07051 17.428 7.3236V8.87737L17.6171 8.92863C17.6171 8.92863 17.6459 8.94145 17.6587 8.95106C17.7036 8.9863 17.7708 9.03755 17.8541 9.09842C17.9214 9.14968 17.9919 9.21376 18.0752 9.28103C18.245 9.41879 18.4468 9.59499 18.6679 9.79682C18.7255 9.84808 18.7832 9.89934 18.8377 9.9538C19.1228 10.2197 19.4464 10.5337 19.7507 10.8797C19.8372 10.9758 19.9205 11.0751 20.007 11.1776C20.0935 11.2833 20.1832 11.3858 20.2633 11.4916C20.3658 11.6293 20.4779 11.7735 20.5772 11.9241C20.6221 11.9945 20.6766 12.0682 20.7214 12.1387C20.8463 12.3277 20.9553 12.5231 21.061 12.7186C21.1058 12.8083 21.1507 12.9076 21.1923 13.0037C21.3077 13.2664 21.4006 13.5323 21.4615 13.7982C21.4807 13.8559 21.4935 13.9199 21.4999 13.9744V13.9872C21.5191 14.0673 21.5255 14.1506 21.5319 14.2371C21.5576 14.5094 21.5447 14.7849 21.4871 15.0572C21.4615 15.1726 21.4294 15.2847 21.391 15.4C21.3525 15.5122 21.3109 15.6275 21.2596 15.7396C21.1603 15.9671 21.045 16.1977 20.9072 16.4124C20.8624 16.4925 20.8111 16.5758 20.7566 16.6559C20.699 16.7392 20.6413 16.8192 20.5869 16.8961C20.5132 16.9955 20.4363 17.098 20.3594 17.1909C20.2889 17.287 20.2152 17.3863 20.1383 17.4696C20.0294 17.6009 19.9237 17.7227 19.8116 17.8412C19.7443 17.9181 19.6738 17.9982 19.6033 18.0687C19.5328 18.1488 19.4592 18.2192 19.3951 18.2833C19.2862 18.3922 19.1933 18.4787 19.1164 18.5492L18.9338 18.7158C18.9081 18.7382 18.8729 18.7511 18.8377 18.7511H17.4345V20.5483H19.1997C19.5937 20.5483 19.9685 20.4073 20.2729 20.1511C20.3754 20.0614 20.8303 19.6673 21.3653 19.0778C21.3846 19.0586 21.407 19.0426 21.4326 19.0362L26.3054 17.6266C26.3951 17.6009 26.488 17.6682 26.488 17.7643L26.4752 17.7675Z" fill="white"/>
<path d="M47.645 23.707C46.197 23.707 44.8643 23.3835 43.6533 22.7331C42.4551 22.0828 41.494 21.1826 40.7796 20.0228C40.078 18.8503 39.7256 17.54 39.7256 16.0855C39.7256 14.6311 40.078 13.3272 40.7796 12.1707C41.4972 11.0141 42.4551 10.1107 43.6533 9.46036C44.8675 8.81002 46.197 8.48645 47.645 8.48645C49.0931 8.48645 50.4162 8.81002 51.6176 9.46036C52.8318 10.1107 53.7833 11.0109 54.4688 12.1707C55.1704 13.3272 55.5228 14.6311 55.5228 16.0855C55.5228 17.54 55.1704 18.8503 54.4688 20.0228C53.7672 21.1794 52.8157 22.0828 51.6176 22.7331C50.4194 23.3835 49.0931 23.707 47.645 23.707ZM47.645 20.4041C48.872 20.4041 49.8524 20.01 50.586 19.2187C51.3324 18.4274 51.7041 17.383 51.7041 16.0855C51.7041 14.7881 51.3324 13.7308 50.586 12.9524C49.8556 12.161 48.8752 11.767 47.645 11.767C46.4148 11.767 45.4057 12.1546 44.6624 12.9299C43.932 13.7052 43.5668 14.756 43.5668 16.0823C43.5668 17.4086 43.932 18.4466 44.6624 19.2347C45.4089 20.01 46.402 20.3977 47.645 20.3977V20.4041Z" fill="#04111D"/>
<path d="M61.3628 13.4201C61.728 12.8691 62.2342 12.427 62.8781 12.0874C63.5221 11.7478 64.2749 11.578 65.1367 11.578C66.1459 11.578 67.0589 11.8247 67.8791 12.318C68.6992 12.8114 69.3399 13.5162 69.8109 14.4357C70.2946 15.3519 70.5349 16.4187 70.5349 17.6329C70.5349 18.8471 70.2946 19.9171 69.8109 20.8494C69.3431 21.7656 68.6992 22.4801 67.8791 22.9862C67.0589 23.4796 66.1459 23.7263 65.1367 23.7263C64.2878 23.7263 63.5349 23.5565 62.8781 23.2169C62.2342 22.8773 61.7312 22.4416 61.3628 21.9034V27.0677H57.6113V11.7446H61.3628V13.4169V13.4201ZM66.7161 17.6329C66.7161 16.7295 66.4534 16.0247 65.9248 15.5153C65.4122 14.9931 64.7779 14.7336 64.0154 14.7336C63.253 14.7336 62.6347 14.9931 62.1061 15.5153C61.5935 16.0375 61.3372 16.7487 61.3372 17.6521C61.3372 18.5556 61.5935 19.2668 62.1061 19.789C62.6315 20.3112 63.269 20.5707 64.0154 20.5707C64.7619 20.5707 65.3962 20.3112 65.9248 19.789C66.4502 19.254 66.7161 18.5332 66.7161 17.6297V17.6329Z" fill="#04111D"/>
<path d="M84.0416 17.4632C84.0416 17.8027 84.0192 18.1551 83.9743 18.5204H75.4846C75.5423 19.254 75.7858 19.8179 76.2087 20.2119C76.6476 20.5931 77.1826 20.7822 77.8105 20.7822C78.746 20.7822 79.3963 20.4009 79.7647 19.6384H83.7565C83.5515 20.4137 83.1798 21.1121 82.6384 21.7336C82.113 22.3551 81.4467 22.8421 80.6425 23.1945C79.8384 23.5469 78.9382 23.7231 77.9451 23.7231C76.7469 23.7231 75.6769 23.4764 74.7414 22.9831C73.8059 22.4897 73.0723 21.7849 72.5469 20.8654C72.0215 19.9492 71.7588 18.876 71.7588 17.649C71.7588 16.422 72.0151 15.3487 72.5277 14.4325C73.0531 13.5162 73.7867 12.8114 74.7222 12.3149C75.6576 11.8215 76.7341 11.5748 77.9483 11.5748C79.1624 11.5748 80.1876 11.8151 81.1071 12.2957C82.0297 12.7762 82.7441 13.4586 83.2567 14.3492C83.7821 15.2366 84.0448 16.2746 84.0448 17.46L84.0416 17.4632ZM80.2036 16.5117C80.2036 15.8902 79.9858 15.3968 79.5437 15.0316C79.1048 14.6632 78.557 14.4805 77.897 14.4805C77.237 14.4805 76.7341 14.6568 76.2952 15.0092C75.8723 15.3616 75.6064 15.8613 75.5039 16.5117H80.2004H80.2036Z" fill="#04111D"/>
<path d="M93.4799 11.6229C94.9119 11.6229 96.0556 12.0746 96.9014 12.9781C97.7632 13.8655 98.1957 15.0957 98.1957 16.6591V23.5598H94.4666V17.146C94.4666 16.3547 94.2552 15.7428 93.8291 15.3039C93.4062 14.865 92.8359 14.6472 92.1183 14.6472C91.4007 14.6472 90.8305 14.865 90.4076 15.3039C89.9847 15.7428 89.77 16.3547 89.77 17.146V23.5598H86.0186V11.7511H89.77V13.3177C90.1513 12.7955 90.6639 12.3854 91.3046 12.0907C91.9485 11.7799 92.6726 11.6261 93.4767 11.6261L93.4799 11.6229Z" fill="#04111D"/>
<path d="M106.378 23.707C105.253 23.707 104.241 23.5308 103.35 23.1784C102.46 22.826 101.742 22.3038 101.201 21.6119C100.675 20.9199 100.397 20.0869 100.368 19.113H104.359C104.417 19.664 104.616 20.0869 104.952 20.3816C105.288 20.6636 105.727 20.8045 106.269 20.8045C106.81 20.8045 107.262 20.686 107.586 20.4457C107.906 20.1926 108.069 19.8466 108.069 19.4077C108.069 19.0393 107.938 18.7382 107.675 18.4979C107.425 18.2576 107.111 18.059 106.73 17.9052C106.365 17.7514 105.836 17.5752 105.151 17.3766C104.154 17.0819 103.344 16.7839 102.716 16.4892C102.088 16.1945 101.547 15.7556 101.092 15.1757C100.637 14.5958 100.413 13.843 100.413 12.9107C100.413 11.5267 100.932 10.4503 101.97 9.67181C103.007 8.8805 104.359 8.48645 106.029 8.48645C107.698 8.48645 109.094 8.8805 110.132 9.67181C111.17 10.4471 111.728 11.5331 111.802 12.9299H107.743C107.714 12.4494 107.531 12.0778 107.195 11.8086C106.858 11.5267 106.426 11.3858 105.9 11.3858C105.445 11.3858 105.08 11.5043 104.805 11.7446C104.526 11.9688 104.388 12.302 104.388 12.7377C104.388 13.2183 104.622 13.5899 105.09 13.859C105.558 14.1281 106.288 14.4164 107.284 14.7272C108.281 15.0508 109.085 15.3615 109.697 15.6594C110.325 15.9542 110.866 16.3867 111.321 16.9505C111.776 17.5144 112 18.2416 112 19.129C112 20.0164 111.773 20.7437 111.321 21.4357C110.882 22.1276 110.238 22.6787 109.389 23.0855C108.54 23.4956 107.537 23.7006 106.384 23.7006L106.378 23.707Z" fill="#04111D"/>
<path d="M125.843 17.4632C125.843 17.8027 125.821 18.1551 125.776 18.5204H117.286C117.344 19.254 117.588 19.8179 118.01 20.2119C118.449 20.5931 118.984 20.7822 119.612 20.7822C120.548 20.7822 121.198 20.4009 121.566 19.6384H125.558C125.353 20.4137 124.982 21.1121 124.44 21.7336C123.915 22.3551 123.248 22.8421 122.444 23.1945C121.64 23.5469 120.74 23.7231 119.747 23.7231C118.549 23.7231 117.479 23.4764 116.543 22.9831C115.608 22.4897 114.877 21.7849 114.349 20.8654C113.823 19.9492 113.561 18.876 113.561 17.649C113.561 16.422 113.817 15.3487 114.329 14.4325C114.855 13.5162 115.588 12.8114 116.524 12.3149C117.459 11.8183 118.536 11.5748 119.75 11.5748C120.964 11.5748 121.989 11.8151 122.909 12.2957C123.831 12.7762 124.546 13.4586 125.058 14.3492C125.584 15.2366 125.85 16.2746 125.85 17.46L125.843 17.4632ZM122.005 16.5117C122.005 15.8902 121.788 15.3968 121.349 15.0316C120.91 14.6664 120.362 14.4805 119.702 14.4805C119.042 14.4805 118.539 14.6568 118.1 15.0092C117.677 15.3616 117.411 15.8613 117.312 16.5117H122.009H122.005Z" fill="#04111D"/>
<path d="M127.077 17.6329C127.077 16.4187 127.311 15.3551 127.778 14.4357C128.262 13.5194 128.912 12.8146 129.732 12.318C130.553 11.8215 131.466 11.578 132.475 11.578C133.337 11.578 134.089 11.7478 134.733 12.0874C135.39 12.427 135.896 12.8691 136.249 13.4201V11.7478H140V23.5565H136.249V21.8842C135.884 22.4352 135.371 22.8773 134.714 23.2169C134.07 23.5565 133.317 23.7263 132.456 23.7263C131.459 23.7263 130.556 23.4796 129.736 22.9862C128.916 22.4769 128.265 21.7656 127.781 20.8494C127.314 19.9171 127.08 18.8471 127.08 17.6329H127.077ZM136.249 17.6553C136.249 16.7519 135.986 16.0407 135.461 15.5185C134.948 14.9963 134.32 14.7368 133.574 14.7368C132.827 14.7368 132.19 14.9963 131.664 15.5185C131.152 16.0279 130.895 16.7327 130.895 17.6361C130.895 18.5396 131.152 19.2572 131.664 19.7954C132.19 20.3176 132.827 20.5771 133.574 20.5771C134.32 20.5771 134.948 20.3176 135.461 19.7954C135.986 19.2732 136.249 18.562 136.249 17.6586V17.6553Z" fill="#04111D"/>
</g>
<defs>
<clipPath id="clip0_224_632">
<rect width="140" height="32.0366" fill="white"/>
</clipPath>
</defs>
</svg>
