<svg id="Group_126" data-name="Group 126" xmlns="http://www.w3.org/2000/svg" xmlns:xlink="http://www.w3.org/1999/xlink" width="393.714" height="629.766" viewBox="0 0 393.714 629.766">
  <defs>
    <clipPath id="clip-path">
      <rect id="Rectangle_86" data-name="Rectangle 86" width="393.714" height="629.766" fill="none"/>
    </clipPath>
  </defs>
  <rect id="Rectangle_82" data-name="Rectangle 82" width="3.44" height="117.1" transform="translate(235.932 506.529)" fill="#a6fcf6"/>
  <rect id="Rectangle_83" data-name="Rectangle 83" width="3.44" height="117.1" transform="translate(235.932 506.529)" fill="none" stroke="#131320" stroke-miterlimit="10" stroke-width="0.5"/>
  <rect id="Rectangle_84" data-name="Rectangle 84" width="48.021" height="2.828" transform="translate(213.641 614.243)" fill="#a6fcf6"/>
  <rect id="Rectangle_85" data-name="Rectangle 85" width="48.021" height="2.828" transform="translate(213.641 614.243)" fill="none" stroke="#332761" stroke-miterlimit="10" stroke-width="0.5"/>
  <path id="Path_228" data-name="Path 228" d="M240.305,506.444l16.9,123.066,3.948-.1-16.9-123.067Z" fill="#a6fcf6"/>
  <g id="Group_89" data-name="Group 89">
    <g id="Group_88" data-name="Group 88" clip-path="url(#clip-path)">
      <path id="Path_229" data-name="Path 229" d="M257.208,629.511l-16.9-123.066,3.949-.1,16.9,123.066Z" fill="none" stroke="#131320" stroke-miterlimit="10" stroke-width="0.5"/>
    </g>
  </g>
  <path id="Path_230" data-name="Path 230" d="M214.147,629.414l3.948.1L235,506.444l-3.948-.1Z" fill="#a6fcf6"/>
  <g id="Group_91" data-name="Group 91">
    <g id="Group_90" data-name="Group 90" clip-path="url(#clip-path)">
      <path id="Path_231" data-name="Path 231" d="M218.1,629.511,235,506.445l-3.949-.1-16.9,123.066Z" fill="none" stroke="#131320" stroke-miterlimit="10" stroke-width="0.5"/>
    </g>
  </g>
  <rect id="Rectangle_88" data-name="Rectangle 88" width="28.482" height="4.326" transform="translate(223.411 511.981)" fill="#a6fcf6"/>
  <rect id="Rectangle_89" data-name="Rectangle 89" width="28.482" height="4.326" transform="translate(223.411 511.981)" fill="none" stroke="#131320" stroke-miterlimit="10" stroke-width="0.5"/>
  <rect id="Rectangle_90" data-name="Rectangle 90" width="31.509" height="3.74" transform="translate(221.897 596.73)" fill="#4a96c4"/>
  <rect id="Rectangle_91" data-name="Rectangle 91" width="31.509" height="3.74" transform="translate(221.897 596.73)" fill="none" stroke="#131320" stroke-miterlimit="10" stroke-width="0.5"/>
  <rect id="Rectangle_92" data-name="Rectangle 92" width="50.02" height="4.567" transform="translate(212.642 599.827)" fill="#a6fcf6"/>
  <rect id="Rectangle_93" data-name="Rectangle 93" width="50.02" height="4.567" transform="translate(212.642 599.827)" fill="none" stroke="#131320" stroke-miterlimit="10" stroke-width="0.5"/>
  <rect id="Rectangle_94" data-name="Rectangle 94" width="8.068" height="10.078" transform="translate(272.469 616.503)" fill="#cfc5fb"/>
  <rect id="Rectangle_95" data-name="Rectangle 95" width="8.068" height="10.078" transform="translate(272.469 616.503)" fill="none" stroke="#131320" stroke-miterlimit="10" stroke-width="0.5"/>
  <rect id="Rectangle_96" data-name="Rectangle 96" width="11.171" height="10.078" transform="translate(270.917 619.283)" fill="#cfc5fb"/>
  <g id="Group_93" data-name="Group 93">
    <g id="Group_92" data-name="Group 92" clip-path="url(#clip-path)">
      <rect id="Rectangle_97" data-name="Rectangle 97" width="11.171" height="10.078" transform="translate(270.917 619.283)" fill="none" stroke="#131320" stroke-miterlimit="10" stroke-width="0.5"/>
    </g>
  </g>
  <rect id="Rectangle_99" data-name="Rectangle 99" width="11.171" height="4.865" transform="translate(270.917 621.021)" fill="#47496e"/>
  <rect id="Rectangle_100" data-name="Rectangle 100" width="11.171" height="4.865" transform="translate(270.917 621.021)" fill="none" stroke="#131320" stroke-miterlimit="10" stroke-width="0.5"/>
  <rect id="Rectangle_101" data-name="Rectangle 101" width="9.93" height="2.085" transform="translate(271.538 615.46)" fill="#80cfd8"/>
  <rect id="Rectangle_102" data-name="Rectangle 102" width="9.93" height="2.085" transform="translate(271.538 615.46)" fill="none" stroke="#131320" stroke-miterlimit="10" stroke-width="0.5"/>
  <path id="Path_232" data-name="Path 232" d="M272.314,617.546v0Z" fill="#e1e0da"/>
  <line id="Line_28" data-name="Line 28" y2="2.085" transform="translate(272.314 615.46)" fill="none" stroke="#131320" stroke-miterlimit="10" stroke-width="0.5"/>
  <path id="Path_233" data-name="Path 233" d="M273.5,617.546v0Z" fill="#e1e0da"/>
  <line id="Line_29" data-name="Line 29" y2="2.085" transform="translate(273.496 615.46)" fill="none" stroke="#131320" stroke-miterlimit="10" stroke-width="0.5"/>
  <path id="Path_234" data-name="Path 234" d="M274.678,617.546v0Z" fill="#e1e0da"/>
  <line id="Line_30" data-name="Line 30" y2="2.085" transform="translate(274.678 615.46)" fill="none" stroke="#131320" stroke-miterlimit="10" stroke-width="0.5"/>
  <path id="Path_235" data-name="Path 235" d="M275.86,617.546v0Z" fill="#e1e0da"/>
  <line id="Line_31" data-name="Line 31" y2="2.085" transform="translate(275.86 615.46)" fill="none" stroke="#131320" stroke-miterlimit="10" stroke-width="0.5"/>
  <path id="Path_236" data-name="Path 236" d="M277.042,617.546v0Z" fill="#e1e0da"/>
  <line id="Line_32" data-name="Line 32" y2="2.085" transform="translate(277.042 615.46)" fill="none" stroke="#131320" stroke-miterlimit="10" stroke-width="0.5"/>
  <path id="Path_237" data-name="Path 237" d="M278.224,617.546v0Z" fill="#e1e0da"/>
  <line id="Line_33" data-name="Line 33" y2="2.085" transform="translate(278.224 615.46)" fill="none" stroke="#131320" stroke-miterlimit="10" stroke-width="0.5"/>
  <path id="Path_238" data-name="Path 238" d="M279.406,617.546v0Z" fill="#e1e0da"/>
  <line id="Line_34" data-name="Line 34" y2="2.085" transform="translate(279.406 615.46)" fill="none" stroke="#131320" stroke-miterlimit="10" stroke-width="0.5"/>
  <path id="Path_239" data-name="Path 239" d="M280.589,617.546v0Z" fill="#e1e0da"/>
  <line id="Line_35" data-name="Line 35" y2="2.085" transform="translate(280.588 615.46)" fill="none" stroke="#131320" stroke-miterlimit="10" stroke-width="0.5"/>
  <rect id="Rectangle_103" data-name="Rectangle 103" width="106.805" height="78.593" transform="translate(184.611 518.611)" fill="#fff"/>
  <path id="Path_240" data-name="Path 240" d="M288.916,594.7h-101.8V521.111h101.8Zm5-78.593h-111.8V599.7h111.8Z" fill="#81a8f8"/>
  <path id="Path_241" data-name="Path 241" d="M293.416,599.2h-110.8V516.611h110.8Zm.5-83.093h-111.8V599.7h111.8Z" fill="#1717b0"/>
  <rect id="Rectangle_104" data-name="Rectangle 104" width="9.795" height="12.768" transform="translate(216.427 583.207)" fill="#cfc5fb"/>
  <rect id="Rectangle_105" data-name="Rectangle 105" width="9.795" height="12.768" transform="translate(216.427 583.207)" fill="none" stroke="#131320" stroke-miterlimit="10" stroke-width="0.5"/>
  <rect id="Rectangle_106" data-name="Rectangle 106" width="13.562" height="14.243" transform="translate(214.544 585.661)" fill="#cfc5fb"/>
  <rect id="Rectangle_107" data-name="Rectangle 107" width="13.562" height="14.243" transform="translate(214.544 585.661)" fill="none" stroke="#131320" stroke-miterlimit="10" stroke-width="0.5"/>
  <rect id="Rectangle_108" data-name="Rectangle 108" width="13.562" height="6.876" transform="translate(214.544 588.117)" fill="#47496e"/>
  <rect id="Rectangle_109" data-name="Rectangle 109" width="13.562" height="6.876" transform="translate(214.544 588.117)" fill="none" stroke="#131320" stroke-miterlimit="10" stroke-width="0.5"/>
  <rect id="Rectangle_110" data-name="Rectangle 110" width="12.032" height="2.714" transform="translate(226.344 595.802)" fill="#80cfd8"/>
  <rect id="Rectangle_111" data-name="Rectangle 111" width="12.032" height="2.714" transform="translate(226.344 595.802)" fill="none" stroke="#131320" stroke-miterlimit="10" stroke-width="0.5"/>
  <rect id="Rectangle_112" data-name="Rectangle 112" width="14.808" height="2.777" transform="translate(224.956 597.128)" fill="#80cfd8"/>
  <rect id="Rectangle_113" data-name="Rectangle 113" width="14.808" height="2.777" transform="translate(224.956 597.128)" fill="none" stroke="#131320" stroke-miterlimit="10" stroke-width="0.5"/>
  <path id="Path_242" data-name="Path 242" d="M238.607,599.9v0Z" fill="#e1e0da"/>
  <line id="Line_36" data-name="Line 36" y1="2.777" transform="translate(238.607 597.127)" fill="none" stroke="#131320" stroke-miterlimit="10" stroke-width="0.5"/>
  <path id="Path_243" data-name="Path 243" d="M236.844,599.9v0Z" fill="#e1e0da"/>
  <line id="Line_37" data-name="Line 37" y1="2.777" transform="translate(236.844 597.127)" fill="none" stroke="#131320" stroke-miterlimit="10" stroke-width="0.5"/>
  <path id="Path_244" data-name="Path 244" d="M235.081,599.9v0Z" fill="#e1e0da"/>
  <line id="Line_38" data-name="Line 38" y1="2.777" transform="translate(235.081 597.127)" fill="none" stroke="#131320" stroke-miterlimit="10" stroke-width="0.5"/>
  <path id="Path_245" data-name="Path 245" d="M233.318,599.9v0Z" fill="#e1e0da"/>
  <line id="Line_39" data-name="Line 39" y1="2.777" transform="translate(233.318 597.127)" fill="none" stroke="#131320" stroke-miterlimit="10" stroke-width="0.5"/>
  <path id="Path_246" data-name="Path 246" d="M231.556,599.9v0Z" fill="#e1e0da"/>
  <line id="Line_40" data-name="Line 40" y1="2.777" transform="translate(231.555 597.127)" fill="none" stroke="#131320" stroke-miterlimit="10" stroke-width="0.5"/>
  <path id="Path_247" data-name="Path 247" d="M229.792,599.9v0Z" fill="#e1e0da"/>
  <line id="Line_41" data-name="Line 41" y1="2.777" transform="translate(229.792 597.127)" fill="none" stroke="#131320" stroke-miterlimit="10" stroke-width="0.5"/>
  <path id="Path_248" data-name="Path 248" d="M228.029,599.9v0Z" fill="#e1e0da"/>
  <line id="Line_42" data-name="Line 42" y1="2.777" transform="translate(228.03 597.127)" fill="none" stroke="#131320" stroke-miterlimit="10" stroke-width="0.5"/>
  <path id="Path_249" data-name="Path 249" d="M226.266,599.9v0Z" fill="#e1e0da"/>
  <line id="Line_43" data-name="Line 43" y1="2.777" transform="translate(226.267 597.127)" fill="none" stroke="#131320" stroke-miterlimit="10" stroke-width="0.5"/>
  <line id="Line_44" data-name="Line 44" x1="22.988" y1="39.816" transform="translate(238.779 535.218)" fill="none" stroke="#000" stroke-linecap="round" stroke-linejoin="round" stroke-width="0.5"/>
  <line id="Line_45" data-name="Line 45" x2="45.981" transform="translate(214.44 577.062)" fill="none" stroke="#000" stroke-linecap="round" stroke-linejoin="round" stroke-width="0.5"/>
  <line id="Line_46" data-name="Line 46" x1="23.184" y2="40.156" transform="translate(213.664 535.148)" fill="none" stroke="#000" stroke-linecap="round" stroke-linejoin="round" stroke-width="0.5"/>
  <path id="Path_250" data-name="Path 250" d="M250,569.319l-11.939-6.295-11.94,6.295" fill="none" stroke="#000" stroke-linecap="round" stroke-linejoin="round" stroke-width="0.5"/>
  <line id="Line_47" data-name="Line 47" x1="11.939" y2="20.68" transform="translate(226.118 548.639)" fill="none" stroke="#000" stroke-linecap="round" stroke-linejoin="round" stroke-width="0.5"/>
  <path id="Path_251" data-name="Path 251" d="M250,569.319l-11.939-6.295-11.94,6.295" fill="none" stroke="#000" stroke-linecap="round" stroke-linejoin="round" stroke-width="0.5"/>
  <path id="Path_252" data-name="Path 252" d="M250,569.319H226.117l11.94-20.68Z" fill="none" stroke="#000" stroke-linecap="round" stroke-linejoin="round" stroke-width="0.5"/>
</svg>
