<svg width="303" height="26" viewBox="0 0 303 26" fill="none" xmlns="http://www.w3.org/2000/svg">
<path d="M2.275 6.975C1.59167 6.975 1.10833 6.94167 0.825 6.875C0.541667 6.79167 0.366667 6.68333 0.3 6.55C0.25 6.41667 0.225 6.28333 0.225 6.15C0.225 5.96667 0.316667 5.8 0.5 5.65C0.7 5.48333 1.1 5.35 1.7 5.25C2.46667 5.08333 3.36667 4.91667 4.4 4.75C5.45 4.56667 6.56667 4.4 7.75 4.25C8.93333 4.08333 10.1167 3.93333 11.3 3.8C12.5 3.66667 13.6417 3.56667 14.725 3.5C15.825 3.41667 16.8 3.375 17.65 3.375C18.7833 3.375 19.55 3.475 19.95 3.675C20.3667 3.875 20.575 4.09167 20.575 4.325C20.575 4.54167 20.4583 4.74167 20.225 4.925C20.0083 5.10833 19.6333 5.2 19.1 5.2C18.8833 5.2 18.3833 5.25 17.6 5.35C16.8167 5.43333 15.8583 5.55 14.725 5.7C13.6083 5.83333 12.425 5.98333 11.175 6.15C11.0917 6.71667 10.9667 7.46667 10.8 8.4C10.6333 9.31667 10.4417 10.325 10.225 11.425C10.025 12.525 9.81667 13.6333 9.6 14.75C9.4 15.85 9.20833 16.875 9.025 17.825C8.85833 18.775 8.71667 19.5583 8.6 20.175C8.48333 20.7917 8.41667 21.1583 8.4 21.275C8.33333 21.7917 8.18333 22.1833 7.95 22.45C7.73333 22.7 7.49167 22.825 7.225 22.825C6.90833 22.825 6.64167 22.6917 6.425 22.425C6.225 22.1417 6.125 21.65 6.125 20.95C6.125 20.7167 6.175 20.2667 6.275 19.6C6.375 18.9167 6.50833 18.1083 6.675 17.175C6.84167 16.2417 7.025 15.25 7.225 14.2C7.425 13.15 7.625 12.125 7.825 11.125C8.025 10.1083 8.20833 9.19167 8.375 8.375C8.54167 7.54167 8.66667 6.89167 8.75 6.425C7.43333 6.575 6.19167 6.70833 5.025 6.825C3.875 6.925 2.95833 6.975 2.275 6.975ZM20.348 23.125C20.0314 23.125 19.748 23.0083 19.498 22.775C19.248 22.525 19.123 22.1417 19.123 21.625C19.123 21.2583 19.173 20.75 19.273 20.1C19.373 19.4333 19.5064 18.7083 19.673 17.925C19.8397 17.1417 20.0147 16.3667 20.198 15.6C20.398 14.8167 20.598 14.1167 20.798 13.5C20.998 12.8833 21.173 12.425 21.323 12.125C21.4564 11.8917 21.5814 11.7417 21.698 11.675C21.8314 11.6083 21.9564 11.575 22.073 11.575C22.3064 11.575 22.5064 11.65 22.673 11.8C22.8564 11.95 22.948 12.2417 22.948 12.675C22.948 12.925 22.898 13.3417 22.798 13.925C22.7147 14.4917 22.598 15.1583 22.448 15.925C22.3147 16.675 22.1647 17.45 21.998 18.25C21.848 19.0333 21.698 19.7833 21.548 20.5C21.398 21.2167 21.2814 21.8167 21.198 22.3C21.1314 22.5667 21.0147 22.775 20.848 22.925C20.698 23.0583 20.5314 23.125 20.348 23.125ZM22.798 9.3C22.4147 9.3 22.048 9.18333 21.698 8.95C21.3647 8.71667 21.198 8.34167 21.198 7.825C21.198 7.39167 21.298 7.04167 21.498 6.775C21.7147 6.50833 21.9647 6.31667 22.248 6.2C22.548 6.06667 22.8064 6 23.023 6C23.2397 6 23.4814 6.05 23.748 6.15C24.0314 6.23333 24.273 6.4 24.473 6.65C24.673 6.88333 24.773 7.23333 24.773 7.7C24.773 8.01667 24.6647 8.3 24.448 8.55C24.2314 8.78333 23.9647 8.96667 23.648 9.1C23.348 9.23333 23.0647 9.3 22.798 9.3ZM45.7742 22.25C45.7576 22.5167 45.6492 22.7333 45.4492 22.9C45.2492 23.0667 45.0159 23.15 44.7492 23.15C44.4492 23.15 44.1992 23.05 43.9992 22.85C43.7992 22.65 43.6992 22.3417 43.6992 21.925C43.6992 20.8417 43.7492 19.6667 43.8492 18.4C43.9492 17.1167 44.0742 15.85 44.2242 14.6C44.3742 13.3333 44.5242 12.1667 44.6742 11.1C44.1242 11.8833 43.5242 12.75 42.8742 13.7C42.2409 14.65 41.5909 15.5917 40.9242 16.525C40.2576 17.4583 39.6076 18.3167 38.9742 19.1C38.3409 19.8667 37.7659 20.4917 37.2492 20.975C36.7326 21.4417 36.3076 21.675 35.9742 21.675C35.3576 21.675 34.8242 21.4333 34.3742 20.95C33.9242 20.45 33.6992 19.825 33.6992 19.075C33.6992 18.775 33.7326 18.3667 33.7992 17.85C33.8659 17.3167 33.9409 16.7583 34.0242 16.175C34.1076 15.5917 34.1826 15.05 34.2492 14.55C34.3159 14.0333 34.3492 13.65 34.3492 13.4C34.3492 13.1667 34.3242 12.9667 34.2742 12.8C34.2409 12.6167 34.1576 12.525 34.0242 12.525C33.8242 12.525 33.5492 12.75 33.1992 13.2C32.8492 13.6333 32.4576 14.1917 32.0242 14.875C31.6076 15.5583 31.1742 16.2833 30.7242 17.05C30.2909 17.8167 29.8826 18.5417 29.4992 19.225C29.1159 19.8917 28.7909 20.4167 28.5242 20.8C28.3076 21.1667 28.1076 21.4333 27.9242 21.6C27.7409 21.7667 27.5159 21.85 27.2492 21.85C26.9326 21.85 26.6409 21.6833 26.3742 21.35C26.1242 21.0167 25.9992 20.6083 25.9992 20.125C25.9992 19.8417 26.0492 19.4 26.1492 18.8C26.2492 18.1833 26.3742 17.5083 26.5242 16.775C26.6909 16.0417 26.8492 15.325 26.9992 14.625C27.1659 13.9083 27.3076 13.3 27.4242 12.8C27.5576 12.2333 27.7242 11.85 27.9242 11.65C28.1242 11.45 28.3409 11.35 28.5742 11.35C28.8909 11.35 29.1409 11.4667 29.3242 11.7C29.5242 11.9167 29.6242 12.2583 29.6242 12.725C29.6242 12.8083 29.5742 13.0333 29.4742 13.4C29.3742 13.75 29.2492 14.1833 29.0992 14.7C28.9659 15.2 28.8159 15.725 28.6492 16.275C28.4992 16.825 28.3742 17.3333 28.2742 17.8C28.6409 17.1833 29.0242 16.5167 29.4242 15.8C29.8409 15.0833 30.2576 14.375 30.6742 13.675C31.0909 12.9583 31.5076 12.3083 31.9242 11.725C32.3409 11.125 32.7492 10.65 33.1492 10.3C33.5492 9.95 33.9326 9.775 34.2992 9.775C34.7326 9.775 35.1326 9.90833 35.4992 10.175C35.8826 10.4417 36.1909 10.8 36.4242 11.25C36.6576 11.7 36.7742 12.2 36.7742 12.75C36.7742 13.1333 36.7076 13.675 36.5742 14.375C36.4409 15.0583 36.2992 15.8 36.1492 16.6C36.0159 17.4 35.9326 18.1583 35.8992 18.875C35.8992 19.0417 35.9492 19.125 36.0492 19.125C36.1326 19.125 36.2326 19.0667 36.3492 18.95C36.8326 18.4167 37.3659 17.775 37.9492 17.025C38.5326 16.2583 39.1242 15.45 39.7242 14.6C40.3409 13.75 40.9492 12.9167 41.5492 12.1C42.1492 11.2667 42.7076 10.5167 43.2242 9.85C43.7576 9.16667 44.2242 8.625 44.6242 8.225C45.0409 7.825 45.3659 7.625 45.5992 7.625C46.0992 7.625 46.4826 7.76667 46.7492 8.05C47.0159 8.33333 47.1492 8.80833 47.1492 9.475C47.1492 10.0083 47.1076 10.7 47.0242 11.55C46.9576 12.4 46.8659 13.325 46.7492 14.325C46.6492 15.325 46.5326 16.3333 46.3992 17.35C46.2826 18.35 46.1659 19.2833 46.0492 20.15C45.9326 21 45.8409 21.7 45.7742 22.25ZM60.7912 12.225C60.7912 12.7583 60.6245 13.2833 60.2912 13.8C59.9579 14.3 59.5162 14.7833 58.9662 15.25C58.4162 15.7 57.8079 16.125 57.1412 16.525C56.4745 16.925 55.8079 17.275 55.1412 17.575C54.4745 17.875 53.8662 18.1167 53.3162 18.3C53.1829 18.95 53.1162 19.525 53.1162 20.025C53.1162 20.3417 53.1912 20.5667 53.3412 20.7C53.4912 20.8333 53.7245 20.9 54.0412 20.9C54.7412 20.9 55.4829 20.775 56.2662 20.525C57.0495 20.275 57.8495 19.95 58.6662 19.55C59.4829 19.15 60.2662 18.725 61.0162 18.275C61.7662 17.825 62.4495 17.4 63.0662 17C63.6995 16.6 64.2245 16.275 64.6412 16.025C65.0579 15.775 65.3329 15.65 65.4662 15.65C65.6662 15.65 65.8162 15.7167 65.9162 15.85C66.0329 15.9667 66.0912 16.1083 66.0912 16.275C66.0912 16.4083 65.8829 16.6667 65.4662 17.05C65.0662 17.4333 64.5245 17.8833 63.8412 18.4C63.1579 18.9 62.3912 19.4167 61.5412 19.95C60.6912 20.4833 59.8079 20.9833 58.8912 21.45C57.9912 21.9167 57.1162 22.2917 56.2662 22.575C55.4329 22.8583 54.6829 23 54.0162 23C53.1495 23 52.4745 22.675 51.9912 22.025C51.5079 21.375 51.2662 20.3667 51.2662 19C51.2662 18.0833 51.3829 17.1583 51.6162 16.225C51.8662 15.2917 52.1995 14.4 52.6162 13.55C53.0495 12.6833 53.5245 11.9167 54.0412 11.25C54.5745 10.5667 55.1329 10.0333 55.7162 9.65C56.2995 9.25 56.8662 9.05 57.4162 9.05C58.4662 9.05 59.2912 9.34167 59.8912 9.925C60.4912 10.5083 60.7912 11.275 60.7912 12.225ZM53.8412 16.375C54.3579 16.0583 54.8912 15.725 55.4412 15.375C55.9912 15.025 56.4995 14.6667 56.9662 14.3C57.4329 13.9333 57.8079 13.55 58.0912 13.15C58.3912 12.7333 58.5412 12.3083 58.5412 11.875C58.5412 11.2583 58.2079 10.95 57.5412 10.95C57.1245 10.95 56.6829 11.2167 56.2162 11.75C55.7662 12.2667 55.3329 12.9417 54.9162 13.775C54.4995 14.6083 54.1412 15.475 53.8412 16.375ZM77.0545 25.225C76.7712 25.225 76.5462 25.125 76.3795 24.925C76.2128 24.725 76.1295 24.3917 76.1295 23.925C76.1295 23.0917 76.1712 22.2333 76.2545 21.35C76.3545 20.45 76.4045 19.6167 76.4045 18.85C76.4045 17.1 76.2462 15.6583 75.9295 14.525C75.6295 13.375 74.9712 12.6 73.9545 12.2C73.7212 12.1167 73.5545 12.025 73.4545 11.925C73.3378 11.825 73.2795 11.6667 73.2795 11.45C73.2795 11.2167 73.3712 11.025 73.5545 10.875C73.7212 10.725 74.0378 10.65 74.5045 10.65C74.8878 10.65 75.3962 10.6667 76.0295 10.7C76.6628 10.7333 77.3462 10.7667 78.0795 10.8C78.5962 8.95 79.1795 7.41667 79.8295 6.2C80.4795 4.98333 81.1878 4.025 81.9545 3.325C82.7378 2.625 83.5628 2.125 84.4295 1.825C85.3128 1.525 86.2295 1.375 87.1795 1.375C87.5962 1.375 87.8628 1.43333 87.9795 1.55C88.0962 1.65 88.1545 1.80833 88.1545 2.025C88.1545 2.29167 88.0712 2.575 87.9045 2.875C87.7378 3.15833 87.3962 3.34167 86.8795 3.425C85.7462 3.625 84.7378 3.99167 83.8545 4.525C82.9712 5.05833 82.2045 5.83333 81.5545 6.85C80.9045 7.85 80.3628 9.16667 79.9295 10.8C81.5295 10.7667 82.9045 10.6833 84.0545 10.55C85.2045 10.4 86.1628 10.2417 86.9295 10.075C87.7128 9.89167 88.3378 9.74167 88.8045 9.625C89.2712 9.49167 89.6295 9.425 89.8795 9.425C90.1628 9.425 90.3378 9.5 90.4045 9.65C90.4712 9.8 90.5045 9.95833 90.5045 10.125C90.5045 10.4417 90.2045 10.75 89.6045 11.05C89.0045 11.3333 88.2128 11.5917 87.2295 11.825C86.2628 12.0417 85.1962 12.2167 84.0295 12.35C82.8628 12.4833 81.7128 12.55 80.5795 12.55C80.3962 12.55 80.2128 12.55 80.0295 12.55C79.8628 12.55 79.6878 12.55 79.5045 12.55C79.4712 12.6667 79.4462 12.7917 79.4295 12.925C79.2628 13.8917 79.0962 14.9167 78.9295 16C78.7795 17.0667 78.6378 18.1167 78.5045 19.15C78.3878 20.1667 78.2962 21.0917 78.2295 21.925C78.1628 22.7583 78.1295 23.425 78.1295 23.925C78.1295 24.3417 78.0295 24.6583 77.8295 24.875C77.6295 25.1083 77.3712 25.225 77.0545 25.225ZM77.6545 12.45C77.1712 12.4 76.7212 12.3333 76.3045 12.25C76.5212 12.5 76.7045 12.7917 76.8545 13.125C77.0212 13.4583 77.1628 13.8167 77.2795 14.2C77.3962 13.5833 77.5212 13 77.6545 12.45ZM89.8414 23.25C88.8581 23.25 88.0831 22.875 87.5164 22.125C86.9497 21.375 86.6664 20.4 86.6664 19.2C86.6664 18.7667 86.7247 18.3083 86.8414 17.825C86.9747 17.325 87.1414 16.875 87.3414 16.475C87.2247 16.3583 87.1331 16.2 87.0664 16C86.9997 15.7833 86.9664 15.5167 86.9664 15.2C86.9664 14.2167 87.1331 13.3167 87.4664 12.5C87.7997 11.6833 88.2414 10.975 88.7914 10.375C89.3414 9.75833 89.9497 9.28333 90.6164 8.95C91.2997 8.61667 91.9914 8.45 92.6914 8.45C93.8414 8.45 94.7747 8.86667 95.4914 9.7C96.2081 10.5167 96.5664 11.7667 96.5664 13.45C96.5664 14.3333 96.4331 15.2333 96.1664 16.15C95.9164 17.0667 95.5664 17.95 95.1164 18.8C94.6831 19.65 94.1747 20.4083 93.5914 21.075C93.0247 21.7417 92.4164 22.275 91.7664 22.675C91.1331 23.0583 90.4914 23.25 89.8414 23.25ZM88.9914 15.625C89.0914 15.7583 89.1414 15.9333 89.1414 16.15C89.1414 16.4 89.0914 16.65 88.9914 16.9C88.9081 17.15 88.8164 17.4917 88.7164 17.925C88.6164 18.3583 88.5664 18.975 88.5664 19.775C88.5664 20.575 88.8831 20.975 89.5164 20.975C90.2164 20.975 90.8664 20.7 91.4664 20.15C92.0664 19.5833 92.5997 18.8583 93.0664 17.975C93.5331 17.0917 93.8914 16.15 94.1414 15.15C94.4081 14.1333 94.5414 13.175 94.5414 12.275C94.5414 11.6917 94.4331 11.2833 94.2164 11.05C93.9997 10.8 93.6081 10.675 93.0414 10.675C92.4581 10.675 91.8497 10.875 91.2164 11.275C90.5997 11.6583 90.0831 12.1833 89.6664 12.85C89.2497 13.5167 89.0414 14.2667 89.0414 15.1C89.0414 15.2833 89.0247 15.4583 88.9914 15.625ZM100.168 23.475C99.9009 23.475 99.6759 23.3667 99.4926 23.15C99.3092 22.9333 99.2176 22.6333 99.2176 22.25C99.2176 21.9667 99.2759 21.5 99.3926 20.85C99.5259 20.1833 99.6676 19.4083 99.8176 18.525C99.9842 17.6417 100.126 16.725 100.243 15.775C100.359 14.8083 100.418 13.8833 100.418 13C100.418 12.5667 100.526 12.25 100.743 12.05C100.976 11.8333 101.234 11.725 101.518 11.725C101.784 11.725 101.984 11.8917 102.118 12.225C102.251 12.5583 102.276 13.225 102.193 14.225C102.959 12.525 103.801 11.1583 104.718 10.125C105.651 9.075 106.576 8.325 107.493 7.875C108.409 7.40833 109.234 7.175 109.968 7.175C110.451 7.175 110.801 7.275 111.018 7.475C111.251 7.65833 111.368 7.86667 111.368 8.1C111.368 8.41667 111.234 8.66667 110.968 8.85C110.718 9.01667 110.276 9.21667 109.643 9.45C108.909 9.73333 108.234 10.0667 107.618 10.45C107.018 10.8167 106.443 11.3 105.893 11.9C105.359 12.5 104.834 13.2667 104.318 14.2C103.801 15.1167 103.284 16.25 102.768 17.6C102.251 18.95 101.701 20.575 101.118 22.475C101.018 22.8417 100.884 23.1 100.718 23.25C100.568 23.4 100.384 23.475 100.168 23.475ZM127.045 23.55C126.678 23.55 126.395 23.4417 126.195 23.225C126.012 23.025 125.92 22.7917 125.92 22.525C125.92 22.2917 126.02 22.075 126.22 21.875C126.437 21.6583 126.728 21.4667 127.095 21.3C127.762 20.95 128.387 20.6 128.97 20.25C129.57 19.9 130.053 19.525 130.42 19.125C130.787 18.725 130.97 18.3 130.97 17.85C130.97 17.4667 130.845 17.175 130.595 16.975C130.345 16.7583 130.003 16.65 129.57 16.65C129.32 16.65 128.97 16.7 128.52 16.8C128.07 16.8833 127.578 16.9833 127.045 17.1C126.528 17.2 126.02 17.3 125.52 17.4C125.02 17.4833 124.595 17.525 124.245 17.525C123.612 17.525 123.137 17.375 122.82 17.075C122.503 16.7583 122.345 16.3333 122.345 15.8C122.345 15.5333 122.503 15.1333 122.82 14.6C123.137 14.0667 123.553 13.475 124.07 12.825C124.603 12.1583 125.187 11.4917 125.82 10.825C126.453 10.1583 127.095 9.54167 127.745 8.975C128.412 8.40833 129.028 7.95 129.595 7.6C130.178 7.25 130.662 7.075 131.045 7.075C131.428 7.075 131.72 7.2 131.92 7.45C132.12 7.7 132.22 8.01667 132.22 8.4C132.22 8.7 132.17 8.95833 132.07 9.175C131.97 9.375 131.762 9.53333 131.445 9.65C131.145 9.76667 130.678 9.83333 130.045 9.85C129.395 10.3667 128.703 10.9583 127.97 11.625C127.253 12.275 126.595 12.95 125.995 13.65C125.412 14.3333 124.987 14.9917 124.72 15.625C125.27 15.4417 125.937 15.2833 126.72 15.15C127.52 15 128.328 14.925 129.145 14.925C130.428 14.925 131.378 15.2167 131.995 15.8C132.628 16.3667 132.945 17.1167 132.945 18.05C132.945 18.65 132.753 19.275 132.37 19.925C132.003 20.5583 131.52 21.15 130.92 21.7C130.32 22.25 129.678 22.6917 128.995 23.025C128.312 23.375 127.662 23.55 127.045 23.55ZM139.133 23.25C138.15 23.25 137.375 22.875 136.808 22.125C136.242 21.375 135.958 20.4 135.958 19.2C135.958 18.7667 136.017 18.3083 136.133 17.825C136.267 17.325 136.433 16.875 136.633 16.475C136.517 16.3583 136.425 16.2 136.358 16C136.292 15.7833 136.258 15.5167 136.258 15.2C136.258 14.2167 136.425 13.3167 136.758 12.5C137.092 11.6833 137.533 10.975 138.083 10.375C138.633 9.75833 139.242 9.28333 139.908 8.95C140.592 8.61667 141.283 8.45 141.983 8.45C143.133 8.45 144.067 8.86667 144.783 9.7C145.5 10.5167 145.858 11.7667 145.858 13.45C145.858 14.3333 145.725 15.2333 145.458 16.15C145.208 17.0667 144.858 17.95 144.408 18.8C143.975 19.65 143.467 20.4083 142.883 21.075C142.317 21.7417 141.708 22.275 141.058 22.675C140.425 23.0583 139.783 23.25 139.133 23.25ZM138.283 15.625C138.383 15.7583 138.433 15.9333 138.433 16.15C138.433 16.4 138.383 16.65 138.283 16.9C138.2 17.15 138.108 17.4917 138.008 17.925C137.908 18.3583 137.858 18.975 137.858 19.775C137.858 20.575 138.175 20.975 138.808 20.975C139.508 20.975 140.158 20.7 140.758 20.15C141.358 19.5833 141.892 18.8583 142.358 17.975C142.825 17.0917 143.183 16.15 143.433 15.15C143.7 14.1333 143.833 13.175 143.833 12.275C143.833 11.6917 143.725 11.2833 143.508 11.05C143.292 10.8 142.9 10.675 142.333 10.675C141.75 10.675 141.142 10.875 140.508 11.275C139.892 11.6583 139.375 12.1833 138.958 12.85C138.542 13.5167 138.333 14.2667 138.333 15.1C138.333 15.2833 138.317 15.4583 138.283 15.625ZM168.26 22.25C168.243 22.5167 168.135 22.7333 167.935 22.9C167.735 23.0667 167.501 23.15 167.235 23.15C166.935 23.15 166.685 23.05 166.485 22.85C166.285 22.65 166.185 22.3417 166.185 21.925C166.185 20.8417 166.235 19.6667 166.335 18.4C166.435 17.1167 166.56 15.85 166.71 14.6C166.86 13.3333 167.01 12.1667 167.16 11.1C166.61 11.8833 166.01 12.75 165.36 13.7C164.726 14.65 164.076 15.5917 163.41 16.525C162.743 17.4583 162.093 18.3167 161.46 19.1C160.826 19.8667 160.251 20.4917 159.735 20.975C159.218 21.4417 158.793 21.675 158.46 21.675C157.843 21.675 157.31 21.4333 156.86 20.95C156.41 20.45 156.185 19.825 156.185 19.075C156.185 18.775 156.218 18.3667 156.285 17.85C156.351 17.3167 156.426 16.7583 156.51 16.175C156.593 15.5917 156.668 15.05 156.735 14.55C156.801 14.0333 156.835 13.65 156.835 13.4C156.835 13.1667 156.81 12.9667 156.76 12.8C156.726 12.6167 156.643 12.525 156.51 12.525C156.31 12.525 156.035 12.75 155.685 13.2C155.335 13.6333 154.943 14.1917 154.51 14.875C154.093 15.5583 153.66 16.2833 153.21 17.05C152.776 17.8167 152.368 18.5417 151.985 19.225C151.601 19.8917 151.276 20.4167 151.01 20.8C150.793 21.1667 150.593 21.4333 150.41 21.6C150.226 21.7667 150.001 21.85 149.735 21.85C149.418 21.85 149.126 21.6833 148.86 21.35C148.61 21.0167 148.485 20.6083 148.485 20.125C148.485 19.8417 148.535 19.4 148.635 18.8C148.735 18.1833 148.86 17.5083 149.01 16.775C149.176 16.0417 149.335 15.325 149.485 14.625C149.651 13.9083 149.793 13.3 149.91 12.8C150.043 12.2333 150.21 11.85 150.41 11.65C150.61 11.45 150.826 11.35 151.06 11.35C151.376 11.35 151.626 11.4667 151.81 11.7C152.01 11.9167 152.11 12.2583 152.11 12.725C152.11 12.8083 152.06 13.0333 151.96 13.4C151.86 13.75 151.735 14.1833 151.585 14.7C151.451 15.2 151.301 15.725 151.135 16.275C150.985 16.825 150.86 17.3333 150.76 17.8C151.126 17.1833 151.51 16.5167 151.91 15.8C152.326 15.0833 152.743 14.375 153.16 13.675C153.576 12.9583 153.993 12.3083 154.41 11.725C154.826 11.125 155.235 10.65 155.635 10.3C156.035 9.95 156.418 9.775 156.785 9.775C157.218 9.775 157.618 9.90833 157.985 10.175C158.368 10.4417 158.676 10.8 158.91 11.25C159.143 11.7 159.26 12.2 159.26 12.75C159.26 13.1333 159.193 13.675 159.06 14.375C158.926 15.0583 158.785 15.8 158.635 16.6C158.501 17.4 158.418 18.1583 158.385 18.875C158.385 19.0417 158.435 19.125 158.535 19.125C158.618 19.125 158.718 19.0667 158.835 18.95C159.318 18.4167 159.851 17.775 160.435 17.025C161.018 16.2583 161.61 15.45 162.21 14.6C162.826 13.75 163.435 12.9167 164.035 12.1C164.635 11.2667 165.193 10.5167 165.71 9.85C166.243 9.16667 166.71 8.625 167.11 8.225C167.526 7.825 167.851 7.625 168.085 7.625C168.585 7.625 168.968 7.76667 169.235 8.05C169.501 8.33333 169.635 8.80833 169.635 9.475C169.635 10.0083 169.593 10.7 169.51 11.55C169.443 12.4 169.351 13.325 169.235 14.325C169.135 15.325 169.018 16.3333 168.885 17.35C168.768 18.35 168.651 19.2833 168.535 20.15C168.418 21 168.326 21.7 168.26 22.25ZM183.277 12.225C183.277 12.7583 183.11 13.2833 182.777 13.8C182.443 14.3 182.002 14.7833 181.452 15.25C180.902 15.7 180.293 16.125 179.627 16.525C178.96 16.925 178.293 17.275 177.627 17.575C176.96 17.875 176.352 18.1167 175.802 18.3C175.668 18.95 175.602 19.525 175.602 20.025C175.602 20.3417 175.677 20.5667 175.827 20.7C175.977 20.8333 176.21 20.9 176.527 20.9C177.227 20.9 177.968 20.775 178.752 20.525C179.535 20.275 180.335 19.95 181.152 19.55C181.968 19.15 182.752 18.725 183.502 18.275C184.252 17.825 184.935 17.4 185.552 17C186.185 16.6 186.71 16.275 187.127 16.025C187.543 15.775 187.818 15.65 187.952 15.65C188.152 15.65 188.302 15.7167 188.402 15.85C188.518 15.9667 188.577 16.1083 188.577 16.275C188.577 16.4083 188.368 16.6667 187.952 17.05C187.552 17.4333 187.01 17.8833 186.327 18.4C185.643 18.9 184.877 19.4167 184.027 19.95C183.177 20.4833 182.293 20.9833 181.377 21.45C180.477 21.9167 179.602 22.2917 178.752 22.575C177.918 22.8583 177.168 23 176.502 23C175.635 23 174.96 22.675 174.477 22.025C173.993 21.375 173.752 20.3667 173.752 19C173.752 18.0833 173.868 17.1583 174.102 16.225C174.352 15.2917 174.685 14.4 175.102 13.55C175.535 12.6833 176.01 11.9167 176.527 11.25C177.06 10.5667 177.618 10.0333 178.202 9.65C178.785 9.25 179.352 9.05 179.902 9.05C180.952 9.05 181.777 9.34167 182.377 9.925C182.977 10.5083 183.277 11.275 183.277 12.225ZM176.327 16.375C176.843 16.0583 177.377 15.725 177.927 15.375C178.477 15.025 178.985 14.6667 179.452 14.3C179.918 13.9333 180.293 13.55 180.577 13.15C180.877 12.7333 181.027 12.3083 181.027 11.875C181.027 11.2583 180.693 10.95 180.027 10.95C179.61 10.95 179.168 11.2167 178.702 11.75C178.252 12.2667 177.818 12.9417 177.402 13.775C176.985 14.6083 176.627 15.475 176.327 16.375ZM202.265 23.55C201.898 23.55 201.615 23.4417 201.415 23.225C201.232 23.025 201.14 22.7917 201.14 22.525C201.14 22.2917 201.24 22.075 201.44 21.875C201.657 21.6583 201.948 21.4667 202.315 21.3C202.982 20.95 203.607 20.6 204.19 20.25C204.79 19.9 205.273 19.525 205.64 19.125C206.007 18.725 206.19 18.3 206.19 17.85C206.19 17.4667 206.065 17.175 205.815 16.975C205.565 16.7583 205.223 16.65 204.79 16.65C204.54 16.65 204.19 16.7 203.74 16.8C203.29 16.8833 202.798 16.9833 202.265 17.1C201.748 17.2 201.24 17.3 200.74 17.4C200.24 17.4833 199.815 17.525 199.465 17.525C198.832 17.525 198.357 17.375 198.04 17.075C197.723 16.7583 197.565 16.3333 197.565 15.8C197.565 15.5333 197.723 15.1333 198.04 14.6C198.357 14.0667 198.773 13.475 199.29 12.825C199.823 12.1583 200.407 11.4917 201.04 10.825C201.673 10.1583 202.315 9.54167 202.965 8.975C203.632 8.40833 204.248 7.95 204.815 7.6C205.398 7.25 205.882 7.075 206.265 7.075C206.648 7.075 206.94 7.2 207.14 7.45C207.34 7.7 207.44 8.01667 207.44 8.4C207.44 8.7 207.39 8.95833 207.29 9.175C207.19 9.375 206.982 9.53333 206.665 9.65C206.365 9.76667 205.898 9.83333 205.265 9.85C204.615 10.3667 203.923 10.9583 203.19 11.625C202.473 12.275 201.815 12.95 201.215 13.65C200.632 14.3333 200.207 14.9917 199.94 15.625C200.49 15.4417 201.157 15.2833 201.94 15.15C202.74 15 203.548 14.925 204.365 14.925C205.648 14.925 206.598 15.2167 207.215 15.8C207.848 16.3667 208.165 17.1167 208.165 18.05C208.165 18.65 207.973 19.275 207.59 19.925C207.223 20.5583 206.74 21.15 206.14 21.7C205.54 22.25 204.898 22.6917 204.215 23.025C203.532 23.375 202.882 23.55 202.265 23.55ZM214.977 23.35C214.16 23.35 213.452 23.1667 212.852 22.8C212.269 22.4167 211.819 21.925 211.502 21.325C211.185 20.725 211.027 20.1083 211.027 19.475C211.027 18.1417 211.26 16.925 211.727 15.825C212.194 14.7083 212.777 13.725 213.477 12.875C214.194 12.0083 214.927 11.275 215.677 10.675C216.444 10.075 217.135 9.625 217.752 9.325C218.385 9.00833 218.835 8.85 219.102 8.85C219.635 8.85 219.902 9.11667 219.902 9.65C219.902 9.9 219.735 10.1917 219.402 10.525C219.069 10.8417 218.644 11.2167 218.127 11.65C217.61 12.0833 217.06 12.575 216.477 13.125C215.894 13.6583 215.344 14.2667 214.827 14.95C214.31 15.6167 213.885 16.3667 213.552 17.2C213.219 18.0167 213.052 18.9167 213.052 19.9C213.052 20.9 213.46 21.4 214.277 21.4C215.027 21.4 215.794 21.2583 216.577 20.975C217.377 20.6917 218.16 20.325 218.927 19.875C219.71 19.4083 220.46 18.925 221.177 18.425C221.894 17.925 222.544 17.45 223.127 17C223.71 16.5333 224.202 16.1583 224.602 15.875C225.002 15.5917 225.285 15.45 225.452 15.45C225.785 15.45 225.952 15.6333 225.952 16C225.952 16.2833 225.76 16.6583 225.377 17.125C224.994 17.5917 224.477 18.1 223.827 18.65C223.177 19.2 222.452 19.7583 221.652 20.325C220.852 20.875 220.044 21.3833 219.227 21.85C218.41 22.3 217.627 22.6667 216.877 22.95C216.144 23.2167 215.51 23.35 214.977 23.35ZM225.792 23.125C225.476 23.125 225.192 23.0083 224.942 22.775C224.692 22.525 224.567 22.1417 224.567 21.625C224.567 21.2583 224.617 20.75 224.717 20.1C224.817 19.4333 224.951 18.7083 225.117 17.925C225.284 17.1417 225.459 16.3667 225.642 15.6C225.842 14.8167 226.042 14.1167 226.242 13.5C226.442 12.8833 226.617 12.425 226.767 12.125C226.901 11.8917 227.026 11.7417 227.142 11.675C227.276 11.6083 227.401 11.575 227.517 11.575C227.751 11.575 227.951 11.65 228.117 11.8C228.301 11.95 228.392 12.2417 228.392 12.675C228.392 12.925 228.342 13.3417 228.242 13.925C228.159 14.4917 228.042 15.1583 227.892 15.925C227.759 16.675 227.609 17.45 227.442 18.25C227.292 19.0333 227.142 19.7833 226.992 20.5C226.842 21.2167 226.726 21.8167 226.642 22.3C226.576 22.5667 226.459 22.775 226.292 22.925C226.142 23.0583 225.976 23.125 225.792 23.125ZM228.242 9.3C227.859 9.3 227.492 9.18333 227.142 8.95C226.809 8.71667 226.642 8.34167 226.642 7.825C226.642 7.39167 226.742 7.04167 226.942 6.775C227.159 6.50833 227.409 6.31667 227.692 6.2C227.992 6.06667 228.251 6 228.467 6C228.684 6 228.926 6.05 229.192 6.15C229.476 6.23333 229.717 6.4 229.917 6.65C230.117 6.88333 230.217 7.23333 230.217 7.7C230.217 8.01667 230.109 8.3 229.892 8.55C229.676 8.78333 229.409 8.96667 229.092 9.1C228.792 9.23333 228.509 9.3 228.242 9.3ZM241.699 12.225C241.699 12.7583 241.533 13.2833 241.199 13.8C240.866 14.3 240.424 14.7833 239.874 15.25C239.324 15.7 238.716 16.125 238.049 16.525C237.383 16.925 236.716 17.275 236.049 17.575C235.383 17.875 234.774 18.1167 234.224 18.3C234.091 18.95 234.024 19.525 234.024 20.025C234.024 20.3417 234.099 20.5667 234.249 20.7C234.399 20.8333 234.633 20.9 234.949 20.9C235.649 20.9 236.391 20.775 237.174 20.525C237.958 20.275 238.758 19.95 239.574 19.55C240.391 19.15 241.174 18.725 241.924 18.275C242.674 17.825 243.358 17.4 243.974 17C244.608 16.6 245.133 16.275 245.549 16.025C245.966 15.775 246.241 15.65 246.374 15.65C246.574 15.65 246.724 15.7167 246.824 15.85C246.941 15.9667 246.999 16.1083 246.999 16.275C246.999 16.4083 246.791 16.6667 246.374 17.05C245.974 17.4333 245.433 17.8833 244.749 18.4C244.066 18.9 243.299 19.4167 242.449 19.95C241.599 20.4833 240.716 20.9833 239.799 21.45C238.899 21.9167 238.024 22.2917 237.174 22.575C236.341 22.8583 235.591 23 234.924 23C234.058 23 233.383 22.675 232.899 22.025C232.416 21.375 232.174 20.3667 232.174 19C232.174 18.0833 232.291 17.1583 232.524 16.225C232.774 15.2917 233.108 14.4 233.524 13.55C233.958 12.6833 234.433 11.9167 234.949 11.25C235.483 10.5667 236.041 10.0333 236.624 9.65C237.208 9.25 237.774 9.05 238.324 9.05C239.374 9.05 240.199 9.34167 240.799 9.925C241.399 10.5083 241.699 11.275 241.699 12.225ZM234.749 16.375C235.266 16.0583 235.799 15.725 236.349 15.375C236.899 15.025 237.408 14.6667 237.874 14.3C238.341 13.9333 238.716 13.55 238.999 13.15C239.299 12.7333 239.449 12.3083 239.449 11.875C239.449 11.2583 239.116 10.95 238.449 10.95C238.033 10.95 237.591 11.2167 237.124 11.75C236.674 12.2667 236.241 12.9417 235.824 13.775C235.408 14.6083 235.049 15.475 234.749 16.375ZM247.355 22.425C246.872 22.425 246.438 22.15 246.055 21.6C245.672 21.05 245.48 20.3417 245.48 19.475C245.48 18.525 245.605 17.5083 245.855 16.425C246.122 15.3417 246.447 14.2417 246.83 13.125C247.213 11.9917 247.588 10.9 247.955 9.85C248.038 9.63333 248.155 9.475 248.305 9.375C248.472 9.25833 248.722 9.2 249.055 9.2C249.655 9.2 249.955 9.49167 249.955 10.075C249.955 10.2083 249.888 10.5083 249.755 10.975C249.622 11.4417 249.447 12.0167 249.23 12.7C249.03 13.3833 248.822 14.125 248.605 14.925C248.388 15.7083 248.197 16.5 248.03 17.3C247.863 18.1 247.747 18.8417 247.68 19.525C247.947 19.2417 248.247 18.8083 248.58 18.225C248.93 17.6417 249.305 16.9833 249.705 16.25C250.105 15.5 250.522 14.75 250.955 14C251.388 13.2333 251.822 12.5333 252.255 11.9C252.705 11.25 253.138 10.7333 253.555 10.35C253.988 9.95 254.388 9.75 254.755 9.75C255.288 9.75 255.738 9.91667 256.105 10.25C256.488 10.5667 256.78 11.1333 256.98 11.95C257.197 12.75 257.305 13.8833 257.305 15.35C257.305 16.1333 257.38 16.8667 257.53 17.55C257.697 18.2333 257.955 18.7833 258.305 19.2C258.672 19.6 259.138 19.8 259.705 19.8C260.555 19.8 261.313 19.65 261.98 19.35C262.647 19.0333 263.222 18.6833 263.705 18.3C264.205 17.9 264.622 17.55 264.955 17.25C265.288 16.9333 265.547 16.775 265.73 16.775C266.113 16.775 266.305 16.975 266.305 17.375C266.305 17.5417 266.18 17.8083 265.93 18.175C265.697 18.525 265.363 18.925 264.93 19.375C264.513 19.8083 264.03 20.2333 263.48 20.65C262.947 21.05 262.372 21.3833 261.755 21.65C261.155 21.9167 260.547 22.05 259.93 22.05C258.78 22.05 257.838 21.825 257.105 21.375C256.388 20.925 255.855 20.1833 255.505 19.15C255.172 18.1167 255.005 16.7333 255.005 15C255.005 14.05 254.947 13.3583 254.83 12.925C254.73 12.475 254.538 12.175 254.255 12.025C254.055 12.375 253.797 12.875 253.48 13.525C253.163 14.1583 252.797 14.8667 252.38 15.65C251.98 16.4333 251.555 17.225 251.105 18.025C250.672 18.8083 250.23 19.5333 249.78 20.2C249.33 20.8667 248.897 21.4083 248.48 21.825C248.063 22.225 247.688 22.425 247.355 22.425ZM269.176 23.35C268.36 23.35 267.651 23.1667 267.051 22.8C266.468 22.4167 266.018 21.925 265.701 21.325C265.385 20.725 265.226 20.1083 265.226 19.475C265.226 18.1417 265.46 16.925 265.926 15.825C266.393 14.7083 266.976 13.725 267.676 12.875C268.393 12.0083 269.126 11.275 269.876 10.675C270.643 10.075 271.335 9.625 271.951 9.325C272.585 9.00833 273.035 8.85 273.301 8.85C273.835 8.85 274.101 9.11667 274.101 9.65C274.101 9.9 273.935 10.1917 273.601 10.525C273.268 10.8417 272.843 11.2167 272.326 11.65C271.81 12.0833 271.26 12.575 270.676 13.125C270.093 13.6583 269.543 14.2667 269.026 14.95C268.51 15.6167 268.085 16.3667 267.751 17.2C267.418 18.0167 267.251 18.9167 267.251 19.9C267.251 20.9 267.66 21.4 268.476 21.4C269.226 21.4 269.993 21.2583 270.776 20.975C271.576 20.6917 272.36 20.325 273.126 19.875C273.91 19.4083 274.66 18.925 275.376 18.425C276.093 17.925 276.743 17.45 277.326 17C277.91 16.5333 278.401 16.1583 278.801 15.875C279.201 15.5917 279.485 15.45 279.651 15.45C279.985 15.45 280.151 15.6333 280.151 16C280.151 16.2833 279.96 16.6583 279.576 17.125C279.193 17.5917 278.676 18.1 278.026 18.65C277.376 19.2 276.651 19.7583 275.851 20.325C275.051 20.875 274.243 21.3833 273.426 21.85C272.61 22.3 271.826 22.6667 271.076 22.95C270.343 23.2167 269.71 23.35 269.176 23.35ZM289.185 12.225C289.185 12.7583 289.018 13.2833 288.685 13.8C288.351 14.3 287.91 14.7833 287.36 15.25C286.81 15.7 286.201 16.125 285.535 16.525C284.868 16.925 284.201 17.275 283.535 17.575C282.868 17.875 282.26 18.1167 281.71 18.3C281.576 18.95 281.51 19.525 281.51 20.025C281.51 20.3417 281.585 20.5667 281.735 20.7C281.885 20.8333 282.118 20.9 282.435 20.9C283.135 20.9 283.876 20.775 284.66 20.525C285.443 20.275 286.243 19.95 287.06 19.55C287.876 19.15 288.66 18.725 289.41 18.275C290.16 17.825 290.843 17.4 291.46 17C292.093 16.6 292.618 16.275 293.035 16.025C293.451 15.775 293.726 15.65 293.86 15.65C294.06 15.65 294.21 15.7167 294.31 15.85C294.426 15.9667 294.485 16.1083 294.485 16.275C294.485 16.4083 294.276 16.6667 293.86 17.05C293.46 17.4333 292.918 17.8833 292.235 18.4C291.551 18.9 290.785 19.4167 289.935 19.95C289.085 20.4833 288.201 20.9833 287.285 21.45C286.385 21.9167 285.51 22.2917 284.66 22.575C283.826 22.8583 283.076 23 282.41 23C281.543 23 280.868 22.675 280.385 22.025C279.901 21.375 279.66 20.3667 279.66 19C279.66 18.0833 279.776 17.1583 280.01 16.225C280.26 15.2917 280.593 14.4 281.01 13.55C281.443 12.6833 281.918 11.9167 282.435 11.25C282.968 10.5667 283.526 10.0333 284.11 9.65C284.693 9.25 285.26 9.05 285.81 9.05C286.86 9.05 287.685 9.34167 288.285 9.925C288.885 10.5083 289.185 11.275 289.185 12.225ZM282.235 16.375C282.751 16.0583 283.285 15.725 283.835 15.375C284.385 15.025 284.893 14.6667 285.36 14.3C285.826 13.9333 286.201 13.55 286.485 13.15C286.785 12.7333 286.935 12.3083 286.935 11.875C286.935 11.2583 286.601 10.95 285.935 10.95C285.518 10.95 285.076 11.2167 284.61 11.75C284.16 12.2667 283.726 12.9417 283.31 13.775C282.893 14.6083 282.535 15.475 282.235 16.375ZM296.689 16.825C296.539 16.825 296.406 16.75 296.289 16.6C296.189 16.4333 296.139 16.2167 296.139 15.95C296.139 15.5833 296.206 15.0083 296.339 14.225C296.489 13.425 296.681 12.5 296.914 11.45C297.164 10.3833 297.448 9.275 297.764 8.125C298.098 6.975 298.448 5.85 298.814 4.75C299.181 3.63333 299.548 2.64167 299.914 1.775C300.164 1.19167 300.473 0.899998 300.839 0.899998C301.223 0.899998 301.573 1.08333 301.889 1.45C302.206 1.81667 302.364 2.26667 302.364 2.8C302.364 3 302.264 3.375 302.064 3.925C301.881 4.475 301.631 5.14167 301.314 5.925C301.014 6.70833 300.681 7.55 300.314 8.45C299.948 9.35 299.573 10.2667 299.189 11.2C298.823 12.1167 298.481 12.9833 298.164 13.8C297.848 14.6167 297.598 15.325 297.414 15.925C297.298 16.2917 297.189 16.5333 297.089 16.65C296.989 16.7667 296.856 16.825 296.689 16.825ZM295.214 24.275C294.964 24.275 294.706 24.1333 294.439 23.85C294.173 23.5667 294.039 22.9917 294.039 22.125C294.039 21.6417 294.198 21.2833 294.514 21.05C294.831 20.8 295.239 20.675 295.739 20.675C296.589 20.675 297.014 21.1167 297.014 22C297.014 22.4167 296.914 22.7917 296.714 23.125C296.514 23.475 296.273 23.75 295.989 23.95C295.723 24.1667 295.464 24.275 295.214 24.275Z" fill="white"/>
</svg>
