<svg xmlns="http://www.w3.org/2000/svg" width="58.2" height="76.297" viewBox="0 0 58.2 76.297">
  <g id="Group_522" data-name="Group 522" transform="translate(-1220.098 -328.252)">
    <path id="Path_494" data-name="Path 494" d="M1249.236,328.252a29.164,29.164,0,0,0-29.138,29.139,30.526,30.526,0,0,0,1.541,9.481,4.071,4.071,0,0,0,7.709-2.621,20.521,20.521,0,0,1-1.156-7.477,21.048,21.048,0,1,1,22.278,21.584s-4.086.231-6.09.54c-1,.154-1.773.308-2.313.385a.309.309,0,0,1-.385-.385l.694-3.392,3.7-17.344a4.022,4.022,0,1,0-7.863-1.7s-9.1,42.4-9.173,42.86a4.021,4.021,0,1,0,7.862,1.7c.078-.463,1.311-6.09,1.311-6.09a10.238,10.238,0,0,1,8.634-8.017c.925-.154,4.548-.386,4.548-.386a29.183,29.183,0,0,0-2.159-58.277Z" fill="#1d1d1b"/>
    <path id="Path_495" data-name="Path 495" d="M1257.871,394.025a5.319,5.319,0,1,0-2.183,10.412,5.246,5.246,0,0,0,6.3-4.115A5.371,5.371,0,0,0,1257.871,394.025Z" fill="#1d1d1b"/>
  </g>
</svg>
