<svg id="Group_67" data-name="Group 67" xmlns="http://www.w3.org/2000/svg" xmlns:xlink="http://www.w3.org/1999/xlink" width="440.084" height="593.282" viewBox="0 0 440.084 593.282">
  <defs>
    <clipPath id="clip-path">
      <rect id="Rectangle_73" data-name="Rectangle 73" width="440.084" height="593.282" fill="none"/>
    </clipPath>
  </defs>
  <g id="Group_66" data-name="Group 66" clip-path="url(#clip-path)">
    <path id="Path_203" data-name="Path 203" d="M114.157,135.983c.434-.277.867-1.554,1.389-1.887-1.9-2.817-5.9-3.687-5.9-7.579l-4.469-.427,1.546-.944c-.267-.128-.42-.263-.576-.267-5.652-.153-10.9,1.7-16.183,3.323-3.543,1.092-6.977,2.542-10.528,3.605a54.8,54.8,0,0,1-6.387,1.151q-.111-.262-.224-.524l2.191-1.9-1.34-.427L93.609,119.8c0-.1-.005-.2-.007-.3H90.307c.076-.354.062-.529.131-.572,8.217-5.16,16.323-10.51,24.714-15.37a72.555,72.555,0,0,0,10.9-7.069c4.3-3.632,7.088-3.381,11.451.238,1.044.866,2.072,1.751,3.311,2.8a9.287,9.287,0,0,1-1,.439,9.945,9.945,0,0,0-7.367,7.591c-1.609,6.412-5.809,10.412-11.717,12.931a31.437,31.437,0,0,0-4.14,2.191c-3.016,1.863-3.617,5.163-1.172,7.755,1.428,1.515,3.076,3.067,5.076,3.067a3.008,3.008,0,0,1,2,1c-1.263-.109-2.738,1.993-4,2-1.222.007-2.778.874-4,1-.066-.137-.277-1.38-.343-1.517"/>
    <path id="Path_204" data-name="Path 204" d="M114.157,135.983c.434-.277.867-1.554,1.389-1.887-1.9-2.817-5.9-3.687-5.9-7.579l-4.469-.427,1.546-.944c-.267-.128-.42-.263-.576-.267-5.652-.153-10.9,1.7-16.183,3.323-3.543,1.092-6.977,2.542-10.528,3.605a54.8,54.8,0,0,1-6.387,1.151q-.111-.262-.224-.524l2.191-1.9-1.34-.427L93.609,119.8c0-.1-.005-.2-.007-.3H90.307c.076-.354.062-.529.131-.572,8.217-5.16,16.323-10.51,24.714-15.37a72.555,72.555,0,0,0,10.9-7.069c4.3-3.632,7.088-3.381,11.451.238,1.044.866,2.072,1.751,3.311,2.8a9.287,9.287,0,0,1-1,.439,9.945,9.945,0,0,0-7.367,7.591c-1.609,6.412-5.809,10.412-11.717,12.931a31.437,31.437,0,0,0-4.14,2.191c-3.016,1.863-3.617,5.163-1.172,7.755,1.428,1.515,3.076,3.067,5.076,3.067a3.008,3.008,0,0,1,2,1c-1.263-.109-2.738,1.993-4,2-1.222.007-2.778.874-4,1C114.434,137.363,114.223,136.12,114.157,135.983Z" fill="none" stroke="#000" stroke-linecap="round" stroke-linejoin="round" stroke-width="0.5"/>
    <path id="Path_205" data-name="Path 205" d="M144.951,131.1a83.041,83.041,0,0,0-82.967,82.967,86.939,86.939,0,0,0,4.389,27A11.592,11.592,0,0,0,88.322,233.6a58.459,58.459,0,0,1-3.292-21.29c.878-30.949,25.9-56.41,56.848-57.946a59.792,59.792,0,0,1,6.585,119.4s-11.633.658-17.34,1.536c-2.853.439-5.048.878-6.585,1.1a.88.88,0,0,1-1.1-1.1l1.975-9.657,10.536-49.386a11.451,11.451,0,1,0-22.388-4.828s-25.9,120.719-26.12,122.036a11.452,11.452,0,1,0,22.389,4.829c.219-1.317,3.731-17.34,3.731-17.34a29.155,29.155,0,0,1,24.583-22.827c2.634-.439,12.95-1.1,12.95-1.1A83.095,83.095,0,0,0,144.951,131.1Z" fill="#fff"/>
    <path id="Path_206" data-name="Path 206" d="M169.536,318.373a15.145,15.145,0,1,0-6.216,29.645A14.934,14.934,0,0,0,181.251,336.3c1.434-8.368-3.586-16.257-11.715-17.931" fill="#fff"/>
  </g>
</svg>
