<?xml version="1.0" encoding="utf-8"?>
<!-- Generator: Adobe Illustrator 24.0.1, SVG Export Plug-In . SVG Version: 6.00 Build 0)  -->
<svg version="1.1" id="Layer_1" xmlns="http://www.w3.org/2000/svg" xmlns:xlink="http://www.w3.org/1999/xlink" x="0px" y="0px"
	 width="195px" height="168.3px" viewBox="0 0 195 168.3" style="enable-background:new 0 0 195 168.3;" xml:space="preserve">
<style type="text/css">
	.st0{fill:#FFFFFF;stroke:#1D1D1B;stroke-miterlimit:10;}
</style>
<path class="st0" d="M3.3,102.9L155.3,5.7c0.3-0.2,0.7-0.4,1.1-0.6c11.7-6.8,26.7-2.7,33.5,9c7.1,12.2,3.3,28.4-8.5,36L3.3,164.6
	V102.9z"/>
<path class="st0" d="M169.4,13.1c-8.1-1.1-15.5,4.7-16.7,13.1s4.4,16,12.5,17.1s15.5-4.7,16.7-13.1S177.4,14.3,169.4,13.1z"/>
<path class="st0" d="M174.8,29.3c-0.6,4.3-4.5,7.3-8.6,6.8s-7.1-4.5-6.5-8.8s4.5-7.3,8.6-6.8C172.5,21,175.4,25,174.8,29.3z"/>
</svg>
