<?xml version="1.0" encoding="utf-8"?>
<!-- Generator: Adobe Illustrator 24.0.1, SVG Export Plug-In . SVG Version: 6.00 Build 0)  -->
<svg version="1.1" id="Layer_1" xmlns="http://www.w3.org/2000/svg" xmlns:xlink="http://www.w3.org/1999/xlink" x="0px" y="0px"
	 width="28.7px" height="14.5px" viewBox="0 0 28.7 14.5" style="enable-background:new 0 0 28.7 14.5;" xml:space="preserve">
<style type="text/css">
	.st0{fill:#FFFFFF;stroke:#1D1D1B;stroke-linecap:round;stroke-miterlimit:10;}
	.st1{fill:none;stroke:#1D1D1B;stroke-linecap:round;stroke-miterlimit:10;}
</style>
<g id="Group_2258" transform="translate(-42.543 -6.861)">
	<path id="Path_1831" class="st0" d="M70.5,12.9L70.5,12.9c-0.3-3.2-3.1-5.6-6.3-5.3c0,0,0,0,0,0L48.6,8.9c-3.2,0.3-5.6,3.1-5.3,6.3
		c0,0,0,0,0,0l0,0c0.3,3.2,3.1,5.6,6.3,5.3c0,0,0,0,0,0l15.5-1.3C68.3,19,70.7,16.2,70.5,12.9z"/>
	<line id="Line_418" class="st1" x1="53.1" y1="14.5" x2="62.3" y2="13.7"/>
</g>
</svg>
