<?xml version="1.0" encoding="utf-8"?>
<!-- Generator: Adobe Illustrator 24.0.1, SVG Export Plug-In . SVG Version: 6.00 Build 0)  -->
<svg version="1.1" id="Layer_1" xmlns="http://www.w3.org/2000/svg" xmlns:xlink="http://www.w3.org/1999/xlink" x="0px" y="0px"
	 width="28.3px" height="16.1px" viewBox="0 0 28.3 16.1" style="enable-background:new 0 0 28.3 16.1;" xml:space="preserve">
<style type="text/css">
	.st0{fill:#FFFFFF;stroke:#1D1D1B;stroke-linecap:round;stroke-linejoin:round;stroke-miterlimit:10;}
	.st1{fill:none;stroke:#1D1D1B;stroke-linecap:round;stroke-linejoin:round;stroke-miterlimit:10;}
</style>
<g id="Group_2237" transform="translate(0.51 0.51)">
	<path id="Path_1827" class="st0" d="M26.9,5L26.9,5c-0.6-3.1-3.7-5.2-6.8-4.6c0,0,0,0-0.1,0L4.9,3.3C1.7,3.9-0.3,7,0.3,10.1
		c0,0,0,0,0,0.1l0,0c0.6,3.1,3.7,5.2,6.8,4.6c0,0,0,0,0.1,0l15.2-2.9C25.5,11.1,27.5,8.1,26.9,5z"/>
	<line id="Line_416" class="st1" x1="7.4" y1="8.6" x2="19.8" y2="6.2"/>
</g>
</svg>
