<?xml version="1.0" encoding="utf-8"?>
<!-- Generator: Adobe Illustrator 26.5.0, SVG Export Plug-In . SVG Version: 6.00 Build 0)  -->
<svg version="1.1" id="Слой_1" xmlns="http://www.w3.org/2000/svg" xmlns:xlink="http://www.w3.org/1999/xlink" x="0px" y="0px"
	 viewBox="0 0 215.6 29.2" style="enable-background:new 0 0 215.6 29.2;" xml:space="preserve">
<style type="text/css">
	.st0{clip-path:url(#SVGID_00000130613281182509305280000012417157691004433843_);}
	.st1{enable-background:new    ;}
</style>
<g id="Сгруппировать_25" transform="translate(22.2 18.523)">
	<g id="Контур_31">
		<path d="M10.6,9.9h-32l0.1-0.2l15.9-27.5l0.1,0.2L10.6,9.9z M-20.9,9.6h31L-5.4-17.3L-20.9,9.6z"/>
	</g>
	<g id="Сгруппировать_24">
		<g id="Сгруппировать_4318">
			<g>
				<defs>
					<rect id="SVGID_1_" x="-22.2" y="-18.5" width="33.2" height="29.2"/>
				</defs>
				<clipPath id="SVGID_00000018921753843871472030000005621423403071598480_">
					<use xlink:href="#SVGID_1_"  style="overflow:visible;"/>
				</clipPath>
				<g id="Сгруппировать_4317" style="clip-path:url(#SVGID_00000018921753843871472030000005621423403071598480_);">
					<g id="Сгруппировать_23" transform="translate(0 -0.001)">
						<g id="Контур_32">
							<path d="M9.4,8.6c0.6-0.3,1.2,0,1.5,0.5c0.3,0.6,0,1.2-0.5,1.5c-0.6,0.3-1.2,0-1.5-0.5C8.6,9.5,8.9,8.8,9.4,8.6
								C9.4,8.6,9.4,8.6,9.4,8.6L9.4,8.6"/>
						</g>
						<g id="Контур_33">
							<path d="M-5.3-18.5c0.6,0,1.1,0.5,1.1,1.1c0,0.6-0.5,1.1-1.1,1.1c-0.6,0-1.1-0.5-1.1-1.1c0,0,0,0,0,0l0,0
								C-6.5-18-6-18.5-5.3-18.5"/>
						</g>
						<g id="Контур_34">
							<path d="M-21.1,8.5c0.6,0,1.1,0.5,1.1,1.1c0,0.6-0.5,1.1-1.1,1.1c-0.6,0-1.1-0.5-1.1-1.1C-22.2,9-21.7,8.5-21.1,8.5
								C-21.1,8.5-21.1,8.5-21.1,8.5"/>
						</g>
						<g id="Контур_35">
							<path d="M-12.1,4.9H1.6l-6.9-3.6L-12.1,4.9z"/>
						</g>
						<g id="Контур_36">
							<path d="M-5.5-7.6l-7,12.1l7-3.7L-5.5-7.6z"/>
						</g>
						<g id="Контур_37">
							<path d="M2,4.5L-5-7.6l0.1,8.3L2,4.5z"/>
						</g>
					</g>
				</g>
			</g>
		</g>
	</g>
</g>
<g class="st1">
	<path d="M42.5,16.9H40v4.3h-1.4V10.6h3.5c1.2,0,2.1,0.3,2.8,0.8c0.6,0.5,1,1.3,1,2.4c0,0.7-0.2,1.2-0.5,1.7
		c-0.4,0.5-0.9,0.9-1.5,1.1l2.5,4.5v0.1h-1.5L42.5,16.9z M40,15.8h2.2c0.7,0,1.3-0.2,1.7-0.5s0.6-0.8,0.6-1.5c0-0.7-0.2-1.2-0.6-1.5
		s-1-0.5-1.7-0.5H40V15.8z"/>
	<path d="M56.5,16.3c0,1-0.2,2-0.5,2.7c-0.4,0.8-0.8,1.4-1.5,1.8s-1.4,0.6-2.3,0.6c-0.8,0-1.6-0.2-2.2-0.6c-0.6-0.4-1.2-1-1.5-1.8
		c-0.4-0.8-0.5-1.6-0.6-2.7v-0.8c0-1,0.2-1.9,0.5-2.7s0.9-1.4,1.5-1.8c0.7-0.4,1.4-0.6,2.2-0.6c0.9,0,1.6,0.2,2.3,0.6
		c0.7,0.4,1.2,1,1.5,1.8c0.4,0.8,0.5,1.7,0.5,2.7V16.3z M55.1,15.6c0-1.3-0.3-2.2-0.8-2.9c-0.5-0.7-1.2-1-2.1-1
		c-0.9,0-1.6,0.3-2.1,1c-0.5,0.7-0.8,1.6-0.8,2.8v0.8c0,1.2,0.3,2.2,0.8,2.9c0.5,0.7,1.2,1.1,2.1,1.1c0.9,0,1.6-0.3,2.1-1
		c0.5-0.7,0.8-1.6,0.8-2.8V15.6z"/>
	<path d="M59,21.2V10.6h3.5c1.2,0,2,0.2,2.6,0.7s0.9,1.2,0.9,2.1c0,0.5-0.1,0.9-0.4,1.3c-0.3,0.4-0.7,0.7-1.2,0.9
		c0.6,0.2,1,0.5,1.4,0.9c0.3,0.5,0.5,1,0.5,1.6c0,1-0.3,1.7-0.9,2.3s-1.5,0.8-2.6,0.8H59z M60.4,15.1h2.1c0.6,0,1.1-0.2,1.5-0.5
		c0.4-0.3,0.6-0.7,0.6-1.3c0-0.6-0.2-1-0.5-1.3c-0.3-0.3-0.9-0.4-1.6-0.4h-2.1V15.1z M60.4,16.3v3.8h2.3c0.7,0,1.2-0.2,1.5-0.5
		c0.4-0.3,0.6-0.8,0.6-1.4c0-1.3-0.7-1.9-2.1-1.9H60.4z"/>
	<path d="M77,16.3c0,1-0.2,2-0.5,2.7c-0.4,0.8-0.8,1.4-1.5,1.8s-1.4,0.6-2.3,0.6c-0.8,0-1.6-0.2-2.2-0.6c-0.6-0.4-1.2-1-1.5-1.8
		c-0.4-0.8-0.5-1.6-0.6-2.7v-0.8c0-1,0.2-1.9,0.5-2.7s0.9-1.4,1.5-1.8c0.7-0.4,1.4-0.6,2.2-0.6c0.9,0,1.6,0.2,2.3,0.6
		c0.7,0.4,1.2,1,1.5,1.8c0.4,0.8,0.5,1.7,0.5,2.7V16.3z M75.6,15.6c0-1.3-0.3-2.2-0.8-2.9c-0.5-0.7-1.2-1-2.1-1
		c-0.9,0-1.6,0.3-2.1,1c-0.5,0.7-0.8,1.6-0.8,2.8v0.8c0,1.2,0.3,2.2,0.8,2.9c0.5,0.7,1.2,1.1,2.1,1.1c0.9,0,1.6-0.3,2.1-1
		c0.5-0.7,0.8-1.6,0.8-2.8V15.6z"/>
	<path d="M87.7,21.2h-1.4L80.9,13v8.2h-1.4V10.6h1.4l5.4,8.3v-8.3h1.4V21.2z"/>
	<path d="M98.9,16.3c0,1-0.2,2-0.5,2.7c-0.4,0.8-0.8,1.4-1.5,1.8s-1.4,0.6-2.3,0.6c-0.8,0-1.6-0.2-2.2-0.6c-0.6-0.4-1.2-1-1.5-1.8
		c-0.4-0.8-0.5-1.6-0.6-2.7v-0.8c0-1,0.2-1.9,0.5-2.7s0.9-1.4,1.5-1.8c0.7-0.4,1.4-0.6,2.2-0.6c0.9,0,1.6,0.2,2.3,0.6
		c0.7,0.4,1.2,1,1.5,1.8c0.4,0.8,0.5,1.7,0.5,2.7V16.3z M97.5,15.6c0-1.3-0.3-2.2-0.8-2.9c-0.5-0.7-1.2-1-2.1-1
		c-0.9,0-1.6,0.3-2.1,1c-0.5,0.7-0.8,1.6-0.8,2.8v0.8c0,1.2,0.3,2.2,0.8,2.9c0.5,0.7,1.2,1.1,2.1,1.1c0.9,0,1.6-0.3,2.1-1
		c0.5-0.7,0.8-1.6,0.8-2.8V15.6z"/>
	<path d="M103.2,10.6l3.5,8.7l3.5-8.7h1.8v10.7h-1.4v-4.2l0.1-4.5l-3.5,8.6h-1.1l-3.5-8.6l0.1,4.5v4.2h-1.4V10.6H103.2z"/>
	<path d="M116.4,21.2H115V10.6h1.4V21.2z"/>
	<path d="M127.3,17.9c-0.1,1.1-0.5,2-1.2,2.6c-0.7,0.6-1.6,0.9-2.8,0.9c-1.3,0-2.3-0.5-3-1.4c-0.8-0.9-1.1-2.1-1.1-3.6v-1
		c0-1,0.2-1.9,0.5-2.6c0.4-0.8,0.9-1.3,1.5-1.7c0.6-0.4,1.4-0.6,2.3-0.6c1.1,0,2,0.3,2.7,0.9c0.7,0.6,1.1,1.5,1.2,2.6h-1.4
		c-0.1-0.9-0.4-1.5-0.8-1.9c-0.4-0.4-1-0.6-1.7-0.6c-0.9,0-1.6,0.3-2.1,1c-0.5,0.7-0.8,1.6-0.8,2.8v1c0,1.2,0.2,2.1,0.7,2.8
		c0.5,0.7,1.2,1,2,1c0.8,0,1.4-0.2,1.8-0.5c0.4-0.4,0.7-1,0.8-1.8H127.3z"/>
	<path d="M132.8,16.5c-1.2-0.3-2.1-0.8-2.6-1.3c-0.5-0.5-0.8-1.1-0.8-1.9c0-0.8,0.3-1.5,1-2.1c0.7-0.5,1.5-0.8,2.6-0.8
		c0.7,0,1.4,0.1,2,0.4c0.6,0.3,1,0.7,1.3,1.2c0.3,0.5,0.5,1,0.5,1.6h-1.4c0-0.6-0.2-1.2-0.6-1.5s-1-0.6-1.7-0.6
		c-0.7,0-1.2,0.2-1.6,0.5c-0.4,0.3-0.6,0.7-0.6,1.3c0,0.4,0.2,0.8,0.6,1.1s1,0.6,1.9,0.8c0.9,0.2,1.6,0.5,2.1,0.8
		c0.5,0.3,0.9,0.7,1.1,1.1c0.2,0.4,0.4,0.9,0.4,1.4c0,0.9-0.3,1.6-1,2.1c-0.7,0.5-1.6,0.8-2.7,0.8c-0.7,0-1.4-0.1-2.1-0.4
		c-0.6-0.3-1.1-0.7-1.5-1.2c-0.3-0.5-0.5-1-0.5-1.7h1.4c0,0.6,0.2,1.2,0.7,1.5c0.5,0.4,1.1,0.6,1.9,0.6c0.7,0,1.3-0.2,1.7-0.5
		s0.6-0.7,0.6-1.2s-0.2-0.9-0.5-1.2C134.4,17,133.8,16.8,132.8,16.5z"/>
	<!-- <path d="M151.3,21.2h-1.4l-5.4-8.2v8.2h-1.4V10.6h1.4l5.4,8.3v-8.3h1.4V21.2z"/> -->
	<!-- <path d="M160.3,16.3h-4.6v3.8h5.4v1.2h-6.8V10.6h6.7v1.2h-5.3v3.4h4.6V16.3z"/>
	<path d="M170.7,11.7h-3.4v9.5h-1.4v-9.5h-3.4v-1.2h8.2V11.7z"/>
	<path d="M175.2,17.9l0.2,1.4l0.3-1.3l2.1-7.4h1.2L181,18l0.3,1.3l0.2-1.4l1.7-7.3h1.4L182,21.2h-1.3l-2.2-7.8l-0.2-0.8l-0.2,0.8
		l-2.3,7.8h-1.3l-2.6-10.7h1.4L175.2,17.9z"/>
	<path d="M194.8,16.3c0,1-0.2,2-0.5,2.7c-0.4,0.8-0.8,1.4-1.5,1.8s-1.4,0.6-2.3,0.6c-0.8,0-1.6-0.2-2.2-0.6c-0.6-0.4-1.2-1-1.5-1.8
		c-0.4-0.8-0.5-1.6-0.6-2.7v-0.8c0-1,0.2-1.9,0.5-2.7s0.9-1.4,1.5-1.8c0.7-0.4,1.4-0.6,2.2-0.6c0.9,0,1.6,0.2,2.3,0.6
		c0.7,0.4,1.2,1,1.5,1.8c0.4,0.8,0.5,1.7,0.5,2.7V16.3z M193.4,15.6c0-1.3-0.3-2.2-0.8-2.9c-0.5-0.7-1.2-1-2.1-1
		c-0.9,0-1.6,0.3-2.1,1c-0.5,0.7-0.8,1.6-0.8,2.8v0.8c0,1.2,0.3,2.2,0.8,2.9c0.5,0.7,1.2,1.1,2.1,1.1c0.9,0,1.6-0.3,2.1-1
		c0.5-0.7,0.8-1.6,0.8-2.8V15.6z"/> -->
	<!-- <path d="M201.3,16.9h-2.5v4.3h-1.4V10.6h3.5c1.2,0,2.1,0.3,2.8,0.8c0.6,0.5,1,1.3,1,2.4c0,0.7-0.2,1.2-0.5,1.7
		c-0.4,0.5-0.9,0.9-1.5,1.1l2.5,4.5v0.1h-1.5L201.3,16.9z M198.8,15.8h2.2c0.7,0,1.3-0.2,1.7-0.5s0.6-0.8,0.6-1.5
		c0-0.7-0.2-1.2-0.6-1.5s-1-0.5-1.7-0.5h-2.2V15.8z"/>
	<path d="M209.7,16.3l-1.3,1.4v3.6H207V10.6h1.4v5.3l4.7-5.3h1.7l-4.2,4.7l4.5,6h-1.7L209.7,16.3z"/> -->
</g>
</svg>
