<svg id="Group_98" data-name="Group 98" xmlns="http://www.w3.org/2000/svg" width="393.714" height="629.766" viewBox="0 0 393.714 629.766">
  <path id="Path_299" data-name="Path 299" d="M57.888,402.21a1.993,1.993,0,1,1-2.819,0A1.994,1.994,0,0,1,57.888,402.21Z" fill="none" stroke="#fff" stroke-linecap="round" stroke-linejoin="round" stroke-width="0.5"/>
  <path id="Path_300" data-name="Path 300" d="M45.59,397.564a12.463,12.463,0,0,1,21.776,0" fill="none" stroke="#fff" stroke-linecap="round" stroke-linejoin="round" stroke-width="0.5"/>
  <path id="Path_301" data-name="Path 301" d="M47.711,399.684a9.61,9.61,0,0,1,17.535,0" fill="none" stroke="#fff" stroke-linecap="round" stroke-linejoin="round" stroke-width="0.5"/>
  <path id="Path_302" data-name="Path 302" d="M49.935,401.909a6.763,6.763,0,0,1,13.086,0" fill="none" stroke="#fff" stroke-linecap="round" stroke-linejoin="round" stroke-width="0.5"/>
  <line id="Line_71" data-name="Line 71" y2="13.314" transform="translate(56.591 408.599)" fill="none" stroke="#fff" stroke-linecap="round" stroke-linejoin="round" stroke-width="0.5"/>
  <path id="Path_303" data-name="Path 303" d="M30.894,464.3a7.884,7.884,0,1,1-7.879-7.889,7.884,7.884,0,0,1,7.879,7.889" fill="#71acaf"/>
  <path id="Path_304" data-name="Path 304" d="M30.894,464.3a7.884,7.884,0,1,1-7.879-7.889A7.884,7.884,0,0,1,30.894,464.3Z" fill="none" stroke="#000" stroke-miterlimit="10" stroke-width="0.5"/>
  <path id="Path_305" data-name="Path 305" d="M23.008,473.369A9.218,9.218,0,0,1,13.8,464.1a9.247,9.247,0,1,1,18.494.119,9.159,9.159,0,0,1-9.286,9.152m.048-15.847a6.537,6.537,0,0,0-6.662,6.753,6.758,6.758,0,0,0,6.679,6.628,6.878,6.878,0,0,0,6.715-6.847,6.68,6.68,0,0,0-6.732-6.534" fill="#577c7c"/>
  <path id="Path_306" data-name="Path 306" d="M23.008,473.369A9.218,9.218,0,0,1,13.8,464.1a9.247,9.247,0,1,1,18.494.119A9.159,9.159,0,0,1,23.008,473.369Zm.048-15.847a6.537,6.537,0,0,0-6.662,6.753,6.758,6.758,0,0,0,6.679,6.628,6.878,6.878,0,0,0,6.715-6.847A6.68,6.68,0,0,0,23.056,457.522Z" fill="none" stroke="#000" stroke-miterlimit="10" stroke-width="0.5"/>
  <path id="Path_307" data-name="Path 307" d="M36.013,421.694l-9.663,1.895s-1.023.454-.72,3.9.417,15.157,1.288,15.726,5.8,1.705,5.8,1.705Z" fill="#25bfe8"/>
  <path id="Path_308" data-name="Path 308" d="M36.013,421.694l-9.663,1.895s-1.023.454-.72,3.9.417,15.157,1.288,15.726,5.8,1.705,5.8,1.705Z" fill="none" stroke="#000" stroke-miterlimit="10" stroke-width="0.5"/>
  <path id="Path_309" data-name="Path 309" d="M35.71,452.729,22.6,459.36a5.126,5.126,0,0,0-1.44,6.063c1.591,3.752,6.48,2.577,6.48,2.577l14.854-4.623Z" fill="#f2f2f2"/>
  <path id="Path_310" data-name="Path 310" d="M35.71,452.729,22.6,459.36a5.126,5.126,0,0,0-1.44,6.063c1.591,3.752,6.48,2.577,6.48,2.577l14.854-4.623Z" fill="none" stroke="#000" stroke-miterlimit="10" stroke-width="0.5"/>
  <path id="Path_311" data-name="Path 311" d="M31.39,455.874s-3.259-.531-4.585-1.7-1.743-1.705-3.486-2.009-4.586-.189-6.177-1.477-2.5-2.312-2.2-2.88.872-1.44,1.9-1.137,20.188,4.9,20.188,4.9l.865,3.75Z" fill="#25bfe8"/>
  <path id="Path_312" data-name="Path 312" d="M31.39,455.874s-3.259-.531-4.585-1.7-1.743-1.705-3.486-2.009-4.586-.189-6.177-1.477-2.5-2.312-2.2-2.88.872-1.44,1.9-1.137,20.188,4.9,20.188,4.9l.865,3.75Z" fill="none" stroke="#000" stroke-miterlimit="10" stroke-width="0.5"/>
  <path id="Path_313" data-name="Path 313" d="M110.285,453.3s.3-3.183-.417-3.9-10.534-4.32-10.534-4.32a5.29,5.29,0,0,0-.72-4.32c-1.44-2.16-8.034-14.438-29.406-21.789s-29.444-2.425-31.6-.568-7.351,6.479-8.223,8.943.3,15.877.872,17.014S39.2,454.738,39.2,454.738l10.534,9.511L84.9,465.992l19.629-13.982Z" fill="#f2f2f2"/>
  <path id="Path_314" data-name="Path 314" d="M110.285,453.3s.3-3.183-.417-3.9-10.534-4.32-10.534-4.32a5.29,5.29,0,0,0-.72-4.32c-1.44-2.16-8.034-14.438-29.406-21.789s-29.444-2.425-31.6-.568-7.351,6.479-8.223,8.943.3,15.877.872,17.014S39.2,454.738,39.2,454.738l10.534,9.511L84.9,465.992l19.629-13.982Z" fill="none" stroke="#000" stroke-miterlimit="10" stroke-width="0.5"/>
  <path id="Path_315" data-name="Path 315" d="M32.83,440.6s-1.819,3.562-.834,5.608,8.337,20.349,9.777,21.221,4.888.606,6.063.3,2.463-1.554,3.752-1.44,17.014,2.728,28.42,1.857,9.928-2.615,13.111-1.592c0,0,3.6-11.292,8.943-12.126s5.59,3.354,6.31,4.945,6.84.4,6.84.4,1.4-1.819.985-2.425-.834-2.2-1.705-2.766-4.472-2.577-4.472-2.577-16.749-5.343-18.037-4.471S82.32,464.249,80.16,465.12s-23.912.417-25.238-.72-17.892-21.184-18.76-22.642-.49-4.982-1.551-4.149A7.825,7.825,0,0,0,32.83,440.6" fill="#ccc"/>
  <path id="Path_316" data-name="Path 316" d="M32.83,440.6s-1.819,3.562-.834,5.608,8.337,20.349,9.777,21.221,4.888.606,6.063.3,2.463-1.554,3.752-1.44,17.014,2.728,28.42,1.857,9.928-2.615,13.111-1.592c0,0,3.6-11.292,8.943-12.126s5.59,3.354,6.31,4.945,6.84.4,6.84.4,1.4-1.819.985-2.425-.834-2.2-1.705-2.766-4.472-2.577-4.472-2.577-16.749-5.343-18.037-4.471S82.32,464.249,80.16,465.12s-23.912.417-25.238-.72-17.892-21.184-18.76-22.642-.49-4.982-1.551-4.149A7.825,7.825,0,0,0,32.83,440.6Z" fill="none" stroke="#000" stroke-miterlimit="10" stroke-width="0.5"/>
  <path id="Path_317" data-name="Path 317" d="M53.482,421.277s-9.095,2.653-11.975,7.086-5.343,8.6-.719,15.688,14.1,18.341,15.271,19.629,22.509,3.032,24.1,1.44,11.482-16.6,11.369-19.326-7.617-14.7-15.12-18.454-19.44-6.063-22.926-6.063" fill="#25bfe8"/>
  <path id="Path_318" data-name="Path 318" d="M53.482,421.277s-9.095,2.653-11.975,7.086-5.343,8.6-.719,15.688,14.1,18.341,15.271,19.629,22.509,3.032,24.1,1.44,11.482-16.6,11.369-19.326-7.617-14.7-15.12-18.454S56.968,421.277,53.482,421.277Z" fill="none" stroke="#000" stroke-linecap="round" stroke-linejoin="round" stroke-width="0.5"/>
  <path id="Path_319" data-name="Path 319" d="M92.683,440.167c-6.66-9.514-15.271-17.886-27.662-20.614s-17.47-1.023-24.4,5.343-6.025,12.694-6.025,12.694c.151,5.343,17.431,27.1,19.742,28.383s24.669,1.44,26.526.872,12.846-19.592,12.846-19.592,1.895-2.917-1.023-7.086M88.345,447.9s-7.981,15.312-9.512,15.78-19.836.643-21.743-.419S39.95,442.9,39.825,438.492c0,0-.75-5.219,4.968-10.469s9.573-6.116,19.792-3.866,17.424,10.054,22.916,17.9c2.406,3.437.844,5.843.844,5.843" fill="#1b9bb9"/>
  <path id="Path_320" data-name="Path 320" d="M92.683,440.167c-6.66-9.514-15.271-17.886-27.662-20.614s-17.47-1.023-24.4,5.343-6.025,12.694-6.025,12.694c.151,5.343,17.431,27.1,19.742,28.383s24.669,1.44,26.526.872,12.846-19.592,12.846-19.592S95.6,444.336,92.683,440.167ZM88.345,447.9s-7.981,15.312-9.512,15.78-19.836.643-21.743-.419S39.95,442.9,39.825,438.492c0,0-.75-5.219,4.968-10.469s9.573-6.116,19.792-3.866,17.424,10.054,22.916,17.9C89.907,445.494,88.345,447.9,88.345,447.9Z" fill="none" stroke="#000" stroke-miterlimit="10" stroke-width="0.5"/>
  <path id="Path_321" data-name="Path 321" d="M96.3,440.035s-.189,3.335-1.023,4.623,1.175,1.251,2.046,1.554a1.608,1.608,0,0,0,2.009-1.137c.3-.872,1.023-1.857-.72-4.32s-2.312-.72-2.312-.72" fill="#f0d283"/>
  <path id="Path_322" data-name="Path 322" d="M96.3,440.035s-.189,3.335-1.023,4.623,1.175,1.251,2.046,1.554a1.608,1.608,0,0,0,2.009-1.137c.3-.872,1.023-1.857-.72-4.32S96.3,440.035,96.3,440.035Z" fill="none" stroke="#000" stroke-miterlimit="10" stroke-width="0.5"/>
  <path id="Path_323" data-name="Path 323" d="M72.562,420.2s14.812,4.5,24.063,17.507c0,0-1.042.853-3.2-.284s-7.458-7.89-10.63-10.061-11.358-6.428-10.231-7.162" fill="#25bfe8"/>
  <path id="Path_324" data-name="Path 324" d="M72.562,420.2s14.812,4.5,24.063,17.507c0,0-1.042.853-3.2-.284s-7.458-7.89-10.63-10.061S71.435,420.931,72.562,420.2Z" fill="none" stroke="#000" stroke-linecap="round" stroke-linejoin="round" stroke-width="0.5"/>
  <path id="Path_325" data-name="Path 325" d="M53.539,415.271a64.137,64.137,0,0,1,15.669,3.7,7.241,7.241,0,0,1-3.047-.141c-1.841-.428-9.8-1.11-11.239-1.716a2.02,2.02,0,0,1-1.383-1.838" fill="#25bfe8"/>
  <path id="Path_326" data-name="Path 326" d="M53.539,415.271a64.137,64.137,0,0,1,15.669,3.7,7.241,7.241,0,0,1-3.047-.141c-1.841-.428-9.8-1.11-11.239-1.716A2.02,2.02,0,0,1,53.539,415.271Z" fill="none" stroke="#000" stroke-linecap="round" stroke-linejoin="round" stroke-width="0.5"/>
  <path id="Path_327" data-name="Path 327" d="M33.742,451.181a1.668,1.668,0,0,0,1.731-1.923c-.18-1.948-1.166-3.464-.976-5.965s-1.023-2.122-1.667-2.69-3.329,4.634.912,10.578" fill="#ef5a23"/>
  <path id="Path_328" data-name="Path 328" d="M33.742,451.181a1.668,1.668,0,0,0,1.731-1.923c-.18-1.948-1.166-3.464-.976-5.965s-1.023-2.122-1.667-2.69S29.5,445.237,33.742,451.181Z" fill="none" stroke="#000" stroke-miterlimit="10" stroke-width="0.5"/>
  <path id="Path_329" data-name="Path 329" d="M113.882,464.335A7.884,7.884,0,1,1,106,456.446a7.884,7.884,0,0,1,7.879,7.889" fill="#71acaf"/>
  <path id="Path_330" data-name="Path 330" d="M113.882,464.335A7.884,7.884,0,1,1,106,456.446,7.884,7.884,0,0,1,113.882,464.335Z" fill="none" stroke="#000" stroke-miterlimit="10" stroke-width="0.5"/>
  <path id="Path_331" data-name="Path 331" d="M106,473.407a9.218,9.218,0,0,1-9.208-9.271,9.247,9.247,0,1,1,18.494.119A9.159,9.159,0,0,1,106,473.407m.048-15.847a6.537,6.537,0,0,0-6.662,6.753,6.758,6.758,0,0,0,6.679,6.628,6.878,6.878,0,0,0,6.715-6.847,6.68,6.68,0,0,0-6.732-6.534" fill="#577c7c"/>
  <path id="Path_332" data-name="Path 332" d="M106,473.407a9.218,9.218,0,0,1-9.208-9.271,9.247,9.247,0,1,1,18.494.119A9.159,9.159,0,0,1,106,473.407Zm.048-15.847a6.537,6.537,0,0,0-6.662,6.753,6.758,6.758,0,0,0,6.679,6.628,6.878,6.878,0,0,0,6.715-6.847A6.68,6.68,0,0,0,106.044,457.56Z" fill="none" stroke="#000" stroke-miterlimit="10" stroke-width="0.5"/>
  <path id="Path_333" data-name="Path 333" d="M93.271,468.152c.455.3,1.44,1.023,3.183-.72s1.857-2.5,2.008-3.335-.113-4.32,2.615-7.048,7.011-1.857,7.617-2.008,3.3-1.743,1.591-1.743-7.162-3.032-13.528,2.16-3.486,12.694-3.486,12.694" fill="#25bfe8"/>
  <path id="Path_334" data-name="Path 334" d="M93.271,468.152c.455.3,1.44,1.023,3.183-.72s1.857-2.5,2.008-3.335-.113-4.32,2.615-7.048,7.011-1.857,7.617-2.008,3.3-1.743,1.591-1.743-7.162-3.032-13.528,2.16S93.271,468.152,93.271,468.152Z" fill="none" stroke="#000" stroke-miterlimit="10" stroke-width="0.5"/>
  <path id="Path_335" data-name="Path 335" d="M174.507,273.069a1.25,1.25,0,0,0-1.359,1.035,1.116,1.116,0,0,0,.988,1.3,1.25,1.25,0,0,0,1.359-1.036A1.115,1.115,0,0,0,174.507,273.069Z" fill="none" stroke="#fff" stroke-linecap="round" stroke-linejoin="round" stroke-width="0.5"/>
  <path id="Path_336" data-name="Path 336" d="M181.056,277.018a7.49,7.49,0,0,0,.6-1.968,6.978,6.978,0,0,0-6.173-8.1,7.506,7.506,0,0,0-2.056.055" fill="none" stroke="#fff" stroke-linecap="round" stroke-linejoin="round" stroke-width="0.5"/>
  <path id="Path_337" data-name="Path 337" d="M179.291,276.822a5.824,5.824,0,0,0,.687-1.958,5.383,5.383,0,0,0-4.762-6.25,5.821,5.821,0,0,0-2.07.143" fill="none" stroke="#fff" stroke-linecap="round" stroke-linejoin="round" stroke-width="0.5"/>
  <path id="Path_338" data-name="Path 338" d="M177.439,276.616a4.128,4.128,0,0,0,.863-1.938,3.785,3.785,0,0,0-3.351-4.4,4.123,4.123,0,0,0-2.1.318" fill="none" stroke="#fff" stroke-linecap="round" stroke-linejoin="round" stroke-width="0.5"/>
  <line id="Line_72" data-name="Line 72" x1="6.418" y2="4.891" transform="translate(165.463 276.012)" fill="none" stroke="#fff" stroke-linecap="round" stroke-linejoin="round" stroke-width="0.5"/>
  <path id="Path_339" data-name="Path 339" d="M137.271,275.95a21.195,21.195,0,1,0,29.7,4.013,21.195,21.195,0,0,0-29.7-4.013" fill="#008fd1"/>
  <path id="Path_340" data-name="Path 340" d="M137.271,275.95a21.195,21.195,0,1,0,29.7,4.013A21.195,21.195,0,0,0,137.271,275.95Z" fill="none" stroke="#1d1d1b" stroke-linecap="round" stroke-linejoin="round" stroke-width="0.5"/>
  <rect id="Rectangle_145" data-name="Rectangle 145" width="3.261" height="46.302" transform="matrix(0.795, -0.606, 0.606, 0.795, 135.048, 275.184)" fill="#47496e"/>
  <rect id="Rectangle_146" data-name="Rectangle 146" width="3.261" height="46.302" transform="matrix(0.795, -0.606, 0.606, 0.795, 135.048, 275.184)" fill="none" stroke="#1d1d1b" stroke-linecap="round" stroke-linejoin="round" stroke-width="0.5"/>
  <path id="Path_341" data-name="Path 341" d="M161.158,281.474a2.283,2.283,0,1,0,3.2.432,2.282,2.282,0,0,0-3.2-.432" fill="#eb1b24"/>
  <path id="Path_342" data-name="Path 342" d="M161.158,281.474a2.283,2.283,0,1,0,3.2.432A2.282,2.282,0,0,0,161.158,281.474Z" fill="none" stroke="#1d1d1b" stroke-linecap="round" stroke-linejoin="round" stroke-width="0.5"/>
  <path id="Path_343" data-name="Path 343" d="M164.914,300.393a1.2,1.2,0,1,0,1.684.227,1.2,1.2,0,0,0-1.684-.227" fill="#169133"/>
  <path id="Path_344" data-name="Path 344" d="M164.914,300.393a1.2,1.2,0,1,0,1.684.227A1.2,1.2,0,0,0,164.914,300.393Z" fill="none" stroke="#1d1d1b" stroke-linecap="round" stroke-linejoin="round" stroke-width="0.5"/>
  <path id="Path_345" data-name="Path 345" d="M161.7,296.172a1.2,1.2,0,1,0,1.684.227,1.2,1.2,0,0,0-1.684-.227" fill="#169133"/>
  <path id="Path_346" data-name="Path 346" d="M161.7,296.172a1.2,1.2,0,1,0,1.684.227A1.2,1.2,0,0,0,161.7,296.172Z" fill="none" stroke="#1d1d1b" stroke-linecap="round" stroke-linejoin="round" stroke-width="0.5"/>
  <path id="Path_347" data-name="Path 347" d="M158.483,291.952a1.2,1.2,0,1,0,1.684.227,1.2,1.2,0,0,0-1.684-.227" fill="#169133"/>
  <path id="Path_348" data-name="Path 348" d="M158.483,291.952a1.2,1.2,0,1,0,1.684.227A1.2,1.2,0,0,0,158.483,291.952Z" fill="none" stroke="#1d1d1b" stroke-linecap="round" stroke-linejoin="round" stroke-width="0.5"/>
  <path id="Path_349" data-name="Path 349" d="M155.267,287.732a1.2,1.2,0,1,0,1.684.227,1.2,1.2,0,0,0-1.684-.227" fill="#169133"/>
  <path id="Path_350" data-name="Path 350" d="M155.267,287.732a1.2,1.2,0,1,0,1.684.227A1.2,1.2,0,0,0,155.267,287.732Z" fill="none" stroke="#1d1d1b" stroke-linecap="round" stroke-linejoin="round" stroke-width="0.5"/>
  <path id="Path_351" data-name="Path 351" d="M152.051,283.512a1.2,1.2,0,1,0,1.685.227,1.2,1.2,0,0,0-1.685-.227" fill="#169133"/>
  <path id="Path_352" data-name="Path 352" d="M152.051,283.512a1.2,1.2,0,1,0,1.685.227A1.2,1.2,0,0,0,152.051,283.512Z" fill="none" stroke="#1d1d1b" stroke-linecap="round" stroke-linejoin="round" stroke-width="0.5"/>
  <path id="Path_353" data-name="Path 353" d="M148.836,279.291a1.2,1.2,0,1,0,1.684.227,1.2,1.2,0,0,0-1.684-.227" fill="#169133"/>
  <path id="Path_354" data-name="Path 354" d="M148.836,279.291a1.2,1.2,0,1,0,1.684.227A1.2,1.2,0,0,0,148.836,279.291Z" fill="none" stroke="#1d1d1b" stroke-linecap="round" stroke-linejoin="round" stroke-width="0.5"/>
  <path id="Path_355" data-name="Path 355" d="M145.62,275.071a1.2,1.2,0,1,0,1.684.227,1.2,1.2,0,0,0-1.684-.227" fill="#169133"/>
  <path id="Path_356" data-name="Path 356" d="M145.62,275.071a1.2,1.2,0,1,0,1.684.227A1.2,1.2,0,0,0,145.62,275.071Z" fill="none" stroke="#1d1d1b" stroke-linecap="round" stroke-linejoin="round" stroke-width="0.5"/>
  <path id="Path_357" data-name="Path 357" d="M171.267,291.6l-3.256-4.274s-4.247,2.416-1.937,5.985a70.462,70.462,0,0,0,4.258,5.936,24.189,24.189,0,0,0,.935-7.647" fill="#22a9cc"/>
  <path id="Path_358" data-name="Path 358" d="M171.267,291.6l-3.256-4.274s-4.247,2.416-1.937,5.985a70.462,70.462,0,0,0,4.258,5.936A24.189,24.189,0,0,0,171.267,291.6Z" fill="none" stroke="#1d1d1b" stroke-linecap="round" stroke-linejoin="round" stroke-width="0.5"/>
  <path id="Path_359" data-name="Path 359" d="M156.944,272.717l3.256,4.274s-3.456,3.453-6.284.279a70.537,70.537,0,0,1-4.593-5.681,24.191,24.191,0,0,1,7.621,1.128" fill="#22a9cc"/>
  <path id="Path_360" data-name="Path 360" d="M156.944,272.717l3.256,4.274s-3.456,3.453-6.284.279a70.537,70.537,0,0,1-4.593-5.681A24.191,24.191,0,0,1,156.944,272.717Z" fill="none" stroke="#1d1d1b" stroke-linecap="round" stroke-linejoin="round" stroke-width="0.5"/>
  <path id="Path_361" data-name="Path 361" d="M153.114,303.736l-2.738-3.593-5.239,8.962,4.577.417Z" fill="none" stroke="#1d1d1b" stroke-linecap="round" stroke-linejoin="round" stroke-width="0.5"/>
  <path id="Path_362" data-name="Path 362" d="M156.878,308.676l-2.738-3.593-2.673,4.876,4.577.417Z" fill="none" stroke="#1d1d1b" stroke-linecap="round" stroke-linejoin="round" stroke-width="0.5"/>
  <path id="Path_363" data-name="Path 363" d="M141.018,287.861l2.738,3.593-10.031,2.674.813-4.524Z" fill="none" stroke="#1d1d1b" stroke-linecap="round" stroke-linejoin="round" stroke-width="0.5"/>
  <path id="Path_364" data-name="Path 364" d="M137.253,282.921l2.738,3.593L134.58,287.8l.812-4.524Z" fill="none" stroke="#1d1d1b" stroke-linecap="round" stroke-linejoin="round" stroke-width="0.5"/>
  <path id="Path_365" data-name="Path 365" d="M93.058,336.285l57.43-41.376-2.3-3.016Z" fill="#f8b03b"/>
  <path id="Path_366" data-name="Path 366" d="M93.058,336.285l57.43-41.376-2.3-3.016Z" fill="none" stroke="#1d1d1b" stroke-linecap="round" stroke-linejoin="round" stroke-width="0.5"/>
  <path id="Path_367" data-name="Path 367" d="M148.659,289.819a3.26,3.26,0,1,0,4.57.617,3.261,3.261,0,0,0-4.57-.617" fill="#e9510e"/>
  <path id="Path_368" data-name="Path 368" d="M148.659,289.819a3.26,3.26,0,1,0,4.57.617A3.261,3.261,0,0,0,148.659,289.819Z" fill="none" stroke="#1d1d1b" stroke-linecap="round" stroke-linejoin="round" stroke-width="0.5"/>
  <path id="Path_369" data-name="Path 369" d="M73.85,309.427l63.491-31.29-1.766-3.354Z" fill="#f8b03b"/>
  <path id="Path_370" data-name="Path 370" d="M73.85,309.427l63.491-31.29-1.766-3.354Z" fill="none" stroke="#1d1d1b" stroke-linecap="round" stroke-linejoin="round" stroke-width="0.5"/>
  <path id="Path_371" data-name="Path 371" d="M136.381,272.815a3.26,3.26,0,1,0,4.4,1.366,3.261,3.261,0,0,0-4.4-1.366" fill="#e9510e"/>
  <path id="Path_372" data-name="Path 372" d="M136.381,272.815a3.26,3.26,0,1,0,4.4,1.366A3.261,3.261,0,0,0,136.381,272.815Z" fill="none" stroke="#1d1d1b" stroke-linecap="round" stroke-linejoin="round" stroke-width="0.5"/>
  <path id="Path_373" data-name="Path 373" d="M114.27,362.068l47.016-52.912,2.765,2.593Z" fill="#f8b03b"/>
  <path id="Path_374" data-name="Path 374" d="M114.27,362.068l47.016-52.912,2.765,2.593Z" fill="none" stroke="#1d1d1b" stroke-linecap="round" stroke-linejoin="round" stroke-width="0.5"/>
  <path id="Path_375" data-name="Path 375" d="M166.162,311.493a3.261,3.261,0,1,1-.148-4.609,3.26,3.26,0,0,1,.148,4.609" fill="#e9510e"/>
  <path id="Path_376" data-name="Path 376" d="M166.162,311.493a3.261,3.261,0,1,1-.148-4.609A3.26,3.26,0,0,1,166.162,311.493Z" fill="none" stroke="#1d1d1b" stroke-linecap="round" stroke-linejoin="round" stroke-width="0.5"/>
  <rect id="Rectangle_147" data-name="Rectangle 147" width="393.714" height="629.766" fill="none"/>
</svg>
