<?xml version="1.0" encoding="utf-8"?>
<!-- Generator: Adobe Illustrator 24.0.1, SVG Export Plug-In . SVG Version: 6.00 Build 0)  -->
<svg version="1.1" id="Layer_1" xmlns="http://www.w3.org/2000/svg" xmlns:xlink="http://www.w3.org/1999/xlink" x="0px" y="0px"
	 width="72.6px" height="30.2px" viewBox="0 0 72.6 30.2" style="enable-background:new 0 0 72.6 30.2;" xml:space="preserve">
<style type="text/css">
	.st0{fill:#FFFFFF;stroke:#1D1D1B;stroke-linecap:round;stroke-linejoin:round;stroke-miterlimit:10;}
	.st1{fill:none;stroke:#1D1D1B;stroke-linecap:round;stroke-linejoin:round;stroke-miterlimit:10;}
</style>
<path class="st0" d="M59.1,13.4c-0.4-3-2.6-5.5-5.7-5.9L9.8,1C6.1,0.5,2.6,3,2.1,6.7L0.8,15c-0.5,3.7,2,7.2,5.7,7.7l43.6,6.5
	c3.1,0.5,6.2-1.3,7.3-4.1"/>
<path class="st0" d="M71.5,21.3L71.5,21.3c0.4-3.2-1.8-6.1-5-6.6l-15.3-2.3c-3.2-0.4-6.1,1.8-6.6,5l0,0c-0.4,3.2,1.8,6.1,5,6.6
	L65,26.3C68,26.6,70.9,24.4,71.5,21.3z"/>
<line id="Line_417" class="st1" x1="51.7" y1="18.4" x2="64.2" y2="20.1"/>
</svg>
