<svg xmlns="http://www.w3.org/2000/svg" xmlns:xlink="http://www.w3.org/1999/xlink" width="40" height="35.196" viewBox="0 0 40 35.196">
  <rect id="Rectangle_8" data-name="Rectangle 8" width="40" height="35.196" transform="translate(0 0.001)" fill="none"/>
  <path id="Path_31" data-name="Path 31" d="M20.272,1.211,1.3,34.071H39.247Z" fill="none" stroke="#201600" stroke-miterlimit="10" stroke-width="0.4"/>
  <path id="Path_32" data-name="Path 32" d="M38.087,32.636a1.337,1.337,0,1,1-.631,1.783,1.337,1.337,0,0,1,.631-1.783" fill="#201600"/>
  <path id="Path_33" data-name="Path 33" d="M20.3,0a1.337,1.337,0,1,1-1.337,1.337A1.338,1.338,0,0,1,20.3,0" fill="#201600"/>
  <path id="Path_34" data-name="Path 34" d="M1.337,32.523A1.337,1.337,0,1,1,0,33.86a1.338,1.338,0,0,1,1.337-1.337" fill="#201600"/>
  <path id="Path_35" data-name="Path 35" d="M12.182,28.232H28.706l-8.262-4.36Z"/>
  <path id="Path_36" data-name="Path 36" d="M20.118,13.176l-8.4,14.564,8.422-4.434Z"/>
  <path id="Path_37" data-name="Path 37" d="M29.169,27.723l-8.388-14.53.069,10.056Z"/>
</svg>
