<svg xmlns="http://www.w3.org/2000/svg" width="394.001" height="245.884" viewBox="0 0 233.001 245.884">
  <g id="Group_127" data-name="Group 127" transform="translate(-116.361 -383.877)">
    <path id="Path_253" data-name="Path 253" d="M263.932,576.757a1.768,1.768,0,1,1-1.769-1.769A1.768,1.768,0,0,1,263.932,576.757Z" fill="none" stroke="#000" stroke-linecap="round" stroke-linejoin="round" stroke-width="0.5"/>
    <path id="Path_254" data-name="Path 254" d="M239.594,533.674a1.768,1.768,0,1,1-1.768-1.769A1.769,1.769,0,0,1,239.594,533.674Z" fill="none" stroke="#000" stroke-linecap="round" stroke-linejoin="round" stroke-width="0.5"/>
    <path id="Path_255" data-name="Path 255" d="M214.463,576.783a1.769,1.769,0,1,1-1.769-1.769A1.769,1.769,0,0,1,214.463,576.783Z" fill="none" stroke="#000" stroke-linecap="round" stroke-linejoin="round" stroke-width="0.5"/>
    <line id="Line_48" data-name="Line 48" y2="14.385" transform="translate(238.057 548.639)" fill="none" stroke="#000" stroke-linecap="round" stroke-linejoin="round" stroke-width="0.5"/>
    <path id="Path_256" data-name="Path 256" d="M192.6,546.916l.249-.2.124-.1.249-.2s14.352,16.026,15.809,19.36l-.373.3-.124.1-.373.3c-2.949-2.133-15.561-19.561-15.561-19.561" fill="#131320"/>
    <path id="Path_257" data-name="Path 257" d="M192.6,546.916l.249-.2.124-.1.249-.2s14.352,16.026,15.809,19.36l-.373.3-.124.1-.373.3C205.208,564.344,192.6,546.916,192.6,546.916Z" fill="none" stroke="#020203" stroke-miterlimit="10" stroke-width="0.5"/>
    <path id="Path_258" data-name="Path 258" d="M208.151,566.505a2.867,2.867,0,0,0,1.391,3.575c2.329,1.5,3.01,1.9,4.476,3.757,1.05,1.327-.547-4.032-1.963-6.169s-2.119-2.2-2.792-2.191-1.112,1.028-1.112,1.028" fill="#81a8f8"/>
    <path id="Path_259" data-name="Path 259" d="M208.151,566.505a2.867,2.867,0,0,0,1.391,3.575c2.329,1.5,3.01,1.9,4.476,3.757,1.05,1.327-.547-4.032-1.963-6.169s-2.119-2.2-2.792-2.191S208.151,566.505,208.151,566.505Z" fill="none" stroke="#020203" stroke-miterlimit="10" stroke-width="0.5"/>
    <rect id="Rectangle_114" data-name="Rectangle 114" width="2.668" height="2.668" transform="translate(206.198 565.306) rotate(-39.693)" fill="#3f5780"/>
    <rect id="Rectangle_115" data-name="Rectangle 115" width="2.668" height="2.668" transform="translate(206.198 565.306) rotate(-39.693)" fill="none" stroke="#020203" stroke-miterlimit="10" stroke-width="0.5"/>
    <rect id="Rectangle_116" data-name="Rectangle 116" width="10.904" height="6.331" transform="translate(181.812 556.992) rotate(-38.869)" fill="#fe511a"/>
    <rect id="Rectangle_117" data-name="Rectangle 117" width="10.904" height="6.331" transform="translate(181.812 556.992) rotate(-38.869)" fill="none" stroke="#020203" stroke-miterlimit="10" stroke-width="0.5"/>
    <path id="Path_260" data-name="Path 260" d="M189.536,558.447c-2.118-8.232-22.6-29.444-22.6-29.444l-2.3,1.92-.028-.044-6.573,5.3s16.763,25.283,25.236,28.226c2.331.81,4.9-1.385,6.091-3.361a2.5,2.5,0,0,0,.177-2.595" fill="#fe5118"/>
    <path id="Path_261" data-name="Path 261" d="M189.536,558.447c-2.118-8.232-22.6-29.444-22.6-29.444l-2.3,1.92-.028-.044-6.573,5.3s16.763,25.283,25.236,28.226c2.331.81,4.9-1.385,6.091-3.361A2.5,2.5,0,0,0,189.536,558.447Z" fill="none" stroke="#020203" stroke-miterlimit="10" stroke-width="0.5"/>
    <rect id="Rectangle_118" data-name="Rectangle 118" width="1.231" height="6.331" transform="matrix(0.779, -0.628, 0.628, 0.779, 189.891, 550.481)" fill="#86817b"/>
    <rect id="Rectangle_119" data-name="Rectangle 119" width="1.231" height="6.331" transform="matrix(0.779, -0.628, 0.628, 0.779, 189.891, 550.481)" fill="none" stroke="#020203" stroke-miterlimit="10" stroke-width="0.5"/>
    <rect id="Rectangle_120" data-name="Rectangle 120" width="1.582" height="2.11" transform="translate(192.037 551.462) rotate(-38.869)" fill="#4d4948"/>
    <rect id="Rectangle_121" data-name="Rectangle 121" width="1.582" height="2.11" transform="translate(192.037 551.462) rotate(-38.869)" fill="none" stroke="#020203" stroke-miterlimit="10" stroke-width="0.5"/>
    <rect id="Rectangle_122" data-name="Rectangle 122" width="3.797" height="12.34" transform="translate(190.334 546.265) rotate(-38.863)" fill="#ecdc16"/>
    <rect id="Rectangle_123" data-name="Rectangle 123" width="3.797" height="12.34" transform="translate(190.334 546.265) rotate(-38.863)" fill="none" stroke="#020203" stroke-miterlimit="10" stroke-width="0.5"/>
    <rect id="Rectangle_124" data-name="Rectangle 124" width="2.462" height="4.573" transform="matrix(0.779, -0.628, 0.628, 0.779, 192.223, 549.73)" fill="#ecdc16"/>
    <rect id="Rectangle_125" data-name="Rectangle 125" width="2.462" height="4.573" transform="matrix(0.779, -0.628, 0.628, 0.779, 192.223, 549.73)" fill="none" stroke="#020203" stroke-miterlimit="10" stroke-width="0.5"/>
    <rect id="Rectangle_126" data-name="Rectangle 126" width="3.518" height="2.286" transform="matrix(0.779, -0.627, 0.627, 0.779, 162.115, 526.109)" fill="#fe511a"/>
    <rect id="Rectangle_127" data-name="Rectangle 127" width="3.518" height="2.286" transform="matrix(0.779, -0.627, 0.627, 0.779, 162.115, 526.109)" fill="none" stroke="#020203" stroke-miterlimit="10" stroke-width="0.5"/>
    <rect id="Rectangle_128" data-name="Rectangle 128" width="11.432" height="8.618" transform="matrix(0.779, -0.628, 0.628, 0.779, 152.734, 529.604)" fill="#fe5118"/>
    <rect id="Rectangle_129" data-name="Rectangle 129" width="11.432" height="8.618" transform="matrix(0.779, -0.628, 0.628, 0.779, 152.734, 529.604)" fill="none" stroke="#020203" stroke-miterlimit="10" stroke-width="0.5"/>
    <rect id="Rectangle_130" data-name="Rectangle 130" width="1.232" height="2.638" transform="matrix(0.779, -0.628, 0.628, 0.779, 164.332, 524.096)" fill="#fc7348"/>
    <rect id="Rectangle_131" data-name="Rectangle 131" width="1.232" height="2.638" transform="matrix(0.779, -0.628, 0.628, 0.779, 164.332, 524.096)" fill="none" stroke="#020203" stroke-miterlimit="10" stroke-width="0.5"/>
    <rect id="Rectangle_132" data-name="Rectangle 132" width="7.738" height="10.904" transform="matrix(0.779, -0.628, 0.628, 0.779, 173.295, 557.285)" fill="#ecdc16"/>
    <rect id="Rectangle_133" data-name="Rectangle 133" width="7.738" height="10.904" transform="matrix(0.779, -0.628, 0.628, 0.779, 173.295, 557.285)" fill="none" stroke="#020203" stroke-miterlimit="10" stroke-width="0.5"/>
    <path id="Path_262" data-name="Path 262" d="M151.174,499.172a2.213,2.213,0,0,0,0,3.27,2.577,2.577,0,0,0,3.484,0,2.212,2.212,0,0,0,0-3.27A2.579,2.579,0,0,0,151.174,499.172Z" fill="none" stroke="#b3d9ff" stroke-linecap="round" stroke-linejoin="round" stroke-width="0.5"/>
    <path id="Path_263" data-name="Path 263" d="M166.375,493.781a14.513,14.513,0,0,0-2.57-3.194,16.139,16.139,0,0,0-21.778,0,14.49,14.49,0,0,0-2.571,3.194" fill="none" stroke="#b3d9ff" stroke-linecap="round" stroke-linejoin="round" stroke-width="0.5"/>
    <path id="Path_264" data-name="Path 264" d="M163.754,496.241a11.11,11.11,0,0,0-2.438-3.318,12.449,12.449,0,0,0-16.8,0,11.1,11.1,0,0,0-2.439,3.318" fill="none" stroke="#b3d9ff" stroke-linecap="round" stroke-linejoin="round" stroke-width="0.5"/>
    <path id="Path_265" data-name="Path 265" d="M161.005,498.823a7.7,7.7,0,0,0-2.178-3.563,8.749,8.749,0,0,0-11.822,0,7.7,7.7,0,0,0-2.178,3.563" fill="none" stroke="#b3d9ff" stroke-linecap="round" stroke-linejoin="round" stroke-width="0.5"/>
    <line id="Line_49" data-name="Line 49" y2="15.448" transform="translate(152.776 506.584)" fill="none" stroke="#b3d9ff" stroke-linecap="round" stroke-linejoin="round" stroke-width="0.5"/>
    <path id="Path_266" data-name="Path 266" d="M163.578,531.655a11.145,11.145,0,0,0-21.045-7.332c-.026.067-.051.136-.075.208h0c-.052.149-.1.3-.146.45-3.329,10.35-3.361,17.633-7.642,30.526l-.533,1.53-.2.575c-4.658,12.761-9.158,18.487-12.981,28.665q-.087.219-.165.444c-.026.07-.049.139-.07.206a11.145,11.145,0,0,0,21.045,7.332c.026-.065.051-.134.074-.205q.078-.223.146-.45c3.329-10.35,3.362-17.633,7.642-30.526l.2-.574.533-1.531c4.658-12.761,9.158-18.487,12.981-28.665q.087-.219.165-.444c.027-.071.05-.141.071-.21" fill="#fe511a"/>
    <path id="Path_267" data-name="Path 267" d="M163.578,531.655a11.145,11.145,0,0,0-21.045-7.332c-.026.067-.051.136-.075.208h0c-.052.149-.1.3-.146.45-3.329,10.35-3.361,17.633-7.642,30.526l-.533,1.53-.2.575c-4.658,12.761-9.158,18.487-12.981,28.665q-.087.219-.165.444c-.026.07-.049.139-.07.206a11.145,11.145,0,0,0,21.045,7.332c.026-.065.051-.134.074-.205q.078-.223.146-.45c3.329-10.35,3.362-17.633,7.642-30.526l.2-.574.533-1.531c4.658-12.761,9.158-18.487,12.981-28.665q.087-.219.165-.444C163.534,531.794,163.557,531.724,163.578,531.655Z" fill="none" stroke="#020203" stroke-miterlimit="10" stroke-width="0.5"/>
    <path id="Path_268" data-name="Path 268" d="M144.113,525.322a9.322,9.322,0,1,0,11.869-5.736,9.321,9.321,0,0,0-11.869,5.736" fill="#050506"/>
    <path id="Path_269" data-name="Path 269" d="M144.113,525.322a9.322,9.322,0,1,0,11.869-5.736A9.321,9.321,0,0,0,144.113,525.322Z" fill="none" stroke="#020203" stroke-miterlimit="10" stroke-width="0.5"/>
    <path id="Path_270" data-name="Path 270" d="M143.106,543c-.331.951,1.285,2.379,3.61,3.189s4.478.7,4.81-.256-1.285-2.378-3.61-3.188-4.479-.7-4.81.255" fill="#fc7348"/>
    <path id="Path_271" data-name="Path 271" d="M134.506,567.681c-.331.951,1.285,2.379,3.61,3.189s4.478.7,4.81-.256-1.285-2.378-3.61-3.188-4.479-.7-4.81.255" fill="#fc7348"/>
    <path id="Path_272" data-name="Path 272" d="M116.517,602.864c2.432-1.621.577-9.016,1.331-14.732a10.592,10.592,0,0,1,.236-1.429c.016-.084.031-.168.049-.253a6.533,6.533,0,0,1,.592-1.651,13.4,13.4,0,0,1,12.412-7.568c7.37,0,13.344,5.352,13.344,11.955a10.873,10.873,0,0,1-.13,1.653c-.534,5.165-9.191,17.5-9.191,17.5H117.733l-1.013-5.471" fill="#fc7348"/>
    <path id="Path_273" data-name="Path 273" d="M116.517,602.864c2.432-1.621.577-9.016,1.331-14.732a10.592,10.592,0,0,1,.236-1.429c.016-.084.031-.168.049-.253a6.533,6.533,0,0,1,.592-1.651,13.4,13.4,0,0,1,12.412-7.568c7.37,0,13.344,5.352,13.344,11.955a10.873,10.873,0,0,1-.13,1.653c-.534,5.165-9.191,17.5-9.191,17.5H117.733l-1.013-5.471" fill="none" stroke="#020203" stroke-miterlimit="10" stroke-width="0.5"/>
    <path id="Path_274" data-name="Path 274" d="M119.759,601.243c.647-1.386-.627-5.672.049-11.388a11.738,11.738,0,0,1,.211-1.429c.015-.085.028-.168.044-.253a7.04,7.04,0,0,1,.53-1.651,11.955,11.955,0,0,1,23.077,4.387,12.182,12.182,0,0,1-.116,1.653c-.479,5.164-3.932,8.836-3.194,10.915.454,1.282,3.209,1.436,3.209,1.436l-.608,5.145h-26.14l-.2-7.194c1.925,0,2.432-.1,3.141-1.621" fill="#fe511a"/>
    <path id="Path_275" data-name="Path 275" d="M119.759,601.243c.647-1.386-.627-5.672.049-11.388a11.738,11.738,0,0,1,.211-1.429c.015-.085.028-.168.044-.253a7.04,7.04,0,0,1,.53-1.651,11.955,11.955,0,0,1,23.077,4.387,12.182,12.182,0,0,1-.116,1.653c-.479,5.164-3.932,8.836-3.194,10.915.454,1.282,3.209,1.436,3.209,1.436l-.608,5.145h-26.14l-.2-7.194C118.543,602.864,119.05,602.763,119.759,601.243Z" fill="none" stroke="#020203" stroke-miterlimit="10" stroke-width="0.5"/>
    <path id="Path_276" data-name="Path 276" d="M117.429,629.511h24.316l1.216-19.453h-26.14Z"/>
    <path id="Path_277" data-name="Path 277" d="M117.429,629.511h24.316l1.216-19.453h-26.14Z" fill="none" stroke="#020203" stroke-miterlimit="10" stroke-width="0.5"/>
    <path id="Path_278" data-name="Path 278" d="M122.394,590.908a9.322,9.322,0,1,0,9.321-9.321,9.321,9.321,0,0,0-9.321,9.321" fill="#050506"/>
    <path id="Path_279" data-name="Path 279" d="M122.394,590.908a9.322,9.322,0,1,0,9.321-9.321A9.321,9.321,0,0,0,122.394,590.908Z" fill="none" stroke="#020203" stroke-miterlimit="10" stroke-width="0.5"/>
    <path id="Path_280" data-name="Path 280" d="M125.23,604.89c0,1.007,2,1.824,4.459,1.824s4.457-.817,4.457-1.824-2-1.824-4.457-1.824-4.459.817-4.459,1.824" fill="#fc7348"/>
  </g>
</svg>
