<?xml version="1.0" encoding="utf-8"?>
<!-- Generator: Adobe Illustrator 24.0.1, SVG Export Plug-In . SVG Version: 6.00 Build 0)  -->
<svg version="1.1" id="Layer_1" xmlns="http://www.w3.org/2000/svg" xmlns:xlink="http://www.w3.org/1999/xlink" x="0px" y="0px"
	 width="65.8px" height="26.7px" viewBox="0 0 65.8 26.7" style="enable-background:new 0 0 65.8 26.7;" xml:space="preserve">
<style type="text/css">
	.st0{fill:#FFFFFF;stroke:#1D1D1B;stroke-linecap:round;stroke-miterlimit:10;}
	.st1{fill:none;stroke:#1D1D1B;stroke-linecap:round;stroke-miterlimit:10;}
</style>
<path class="st0" d="M51,4.2c-1.3-2.1-3.7-3.5-6.4-3.3L7,4c-3.7,0.4-6.5,3.6-6.2,7.4l0.8,8.3c0.4,3.7,3.6,6.5,7.4,6.2l37.6-3.2
	c3.5-0.4,6.1-3.2,6.2-6.7 M64.9,9L64.9,9c-0.3-3.2-3.1-5.6-6.3-5.3c0,0,0,0,0,0L43.1,4.9c-3.2,0.3-5.6,3.1-5.3,6.3c0,0,0,0,0,0l0,0
	c0.3,3.2,3.1,5.6,6.3,5.3c0,0,0,0,0,0l15.5-1.3c3.2-0.2,5.6-3,5.4-6.1C64.9,9.1,64.9,9.1,64.9,9z"/>
<line id="Line_419" class="st1" x1="47.7" y1="10.5" x2="56.8" y2="9.8"/>
</svg>
