<svg width="853" height="308" viewBox="0 0 853 308" fill="none" xmlns="http://www.w3.org/2000/svg">
<g clip-path="url(#clip0_657_2808)">
<path d="M606.049 153.018C618.147 153.018 627.954 143.213 627.954 131.118C627.954 119.024 618.147 109.219 606.049 109.219C593.951 109.219 584.144 119.024 584.144 131.118C584.144 143.213 593.951 153.018 606.049 153.018Z" fill="white"/>
<path d="M276.626 194.197C285.105 194.197 291.978 187.325 291.978 178.849C291.978 170.372 285.105 163.5 276.626 163.5C268.147 163.5 261.273 170.372 261.273 178.849C261.273 187.325 268.147 194.197 276.626 194.197Z" fill="white"/>
<path d="M421.538 178.847C421.538 166.774 411.709 156.947 399.633 156.947C387.557 156.947 377.728 166.774 377.728 178.847C377.728 190.92 387.557 200.747 399.633 200.747C411.709 200.747 421.538 190.92 421.538 178.847Z" fill="white"/>
<path d="M841.86 0H739.822C733.55 0 728.495 5.05378 728.495 11.3242V38.1841C728.495 44.4546 733.55 49.5084 739.822 49.5084H763.413L731.678 64.8569H609.419C608.39 64.8569 607.547 65.6992 607.547 66.7287V87.131L550.35 108.095V93.8693C550.35 92.8399 549.507 91.9976 548.478 91.9976H547.541C546.512 91.9976 545.669 92.8399 545.669 93.8693V128.871H449.061V115.675C449.061 114.646 448.218 113.804 447.188 113.804H351.984C350.954 113.804 350.112 114.646 350.112 115.675V128.871H282.711V116.05C282.711 115.02 281.868 114.178 280.838 114.178H279.902C278.873 114.178 278.03 115.02 278.03 116.05V127.655L269.137 122.507C268.575 122.133 267.826 122.133 267.265 122.507C266.703 122.882 266.328 123.443 266.328 124.098V128.778H161.388L117.765 106.504H157.176C164.29 106.504 170.094 100.701 170.094 93.5886V70.0978C170.094 62.9851 164.29 57.1826 157.176 57.1826H12.9186C5.804 57.1826 0 62.9851 0 70.0978V93.7757C0 100.888 5.804 106.691 12.9186 106.691H107.468L159.797 133.364L159.891 133.457C160.172 133.551 160.452 133.645 160.733 133.645H266.328V138.324C266.328 138.979 266.703 139.634 267.265 139.915C267.826 140.196 268.575 140.289 269.137 139.915L278.03 134.768V146.373C278.03 147.402 278.873 148.244 279.902 148.244H280.838C281.868 148.244 282.711 147.402 282.711 146.373V133.551H350.112V146.934C350.112 147.964 350.954 148.806 351.984 148.806H447.282C448.312 148.806 449.154 147.964 449.154 146.934V133.738H545.763V168.366C545.763 169.395 546.605 170.238 547.635 170.238H548.571C549.601 170.238 550.443 169.395 550.443 168.366V155.357L592.008 174.168L590.042 178.38C589.761 179.035 589.854 179.69 590.229 180.252C590.603 180.813 591.259 181.094 591.914 181L604.364 179.784L607.547 181.094V266.072C606.424 266.634 605.488 267.57 604.926 268.786H156.333C155.585 266.727 153.619 265.136 151.278 265.136C150.436 265.136 149.593 265.324 148.938 265.698L128.53 245.296H142.011C148.376 245.296 153.619 240.055 153.619 233.691V207.299C153.619 200.935 148.376 195.694 142.011 195.694H33.9815C27.6158 195.694 22.3735 200.935 22.3735 207.299V233.691C22.3735 240.055 27.6158 245.296 33.9815 245.296H121.79L145.942 269.441C145.849 269.816 145.849 270.19 145.849 270.565C145.849 272.624 147.066 274.495 148.938 275.431V296.395H130.964C129.935 296.395 129.092 297.237 129.092 298.267V299.203C129.092 300.232 129.935 301.074 130.964 301.074H171.592C172.622 301.074 173.465 300.232 173.465 299.203V298.267C173.465 297.237 172.622 296.395 171.592 296.395H153.619V275.431C154.461 274.963 155.304 274.308 155.772 273.466H605.113C606.049 275.15 607.828 276.367 609.888 276.367C611.947 276.367 613.726 275.244 614.662 273.466H716.513C716.981 273.466 717.355 273.279 717.729 272.998L751.711 245.296H801.887C808.159 245.296 813.215 240.242 813.215 233.971V207.112C813.215 200.841 808.159 195.787 801.887 195.787H699.756C693.484 195.787 688.429 200.841 688.429 207.112V233.971C688.429 240.242 693.484 245.296 699.756 245.296H744.222L715.483 268.693H614.849C614.381 267.476 613.445 266.54 612.228 265.979V179.129C612.228 178.38 611.76 177.725 611.104 177.444L606.33 175.479L599.028 165.277C598.654 164.716 597.999 164.435 597.343 164.529C596.688 164.622 596.126 164.997 595.846 165.652L593.88 169.863L550.35 150.21V113.242L610.636 91.0617L610.917 90.9681C611.666 90.6873 612.134 90.0322 612.134 89.1899V69.6299H732.24C732.52 69.6299 732.801 69.5363 733.082 69.4427L774.178 49.6019H841.766C848.039 49.6019 853.094 44.5482 853.094 38.2777V11.3242C853.187 5.05378 848.132 0 841.86 0Z" fill="white"/>
<path d="M163.823 303.32H138.641C137.611 303.32 136.769 304.163 136.769 305.192V306.128C136.769 307.157 137.611 308 138.641 308H163.823C164.852 308 165.695 307.157 165.695 306.128V305.192C165.695 304.163 164.852 303.32 163.823 303.32Z" fill="white"/>
<path d="M625.24 131.212C625.24 141.787 616.628 150.304 606.143 150.304C595.565 150.304 587.046 141.694 587.046 131.212C587.046 120.636 595.658 112.12 606.143 112.12C616.628 112.026 625.24 120.636 625.24 131.212Z" fill="white"/>
<path d="M606.143 111.09C595.096 111.09 586.109 120.074 586.109 131.118C586.109 142.161 595.096 151.146 606.143 151.146C617.189 151.146 626.176 142.161 626.176 131.118C626.176 120.074 617.189 111.09 606.143 111.09ZM606.143 150.303C595.564 150.303 587.046 141.693 587.046 131.211C587.046 120.636 595.658 112.119 606.143 112.119C616.721 112.119 625.24 120.729 625.24 131.211C625.24 141.693 616.627 150.303 606.143 150.303Z" fill="black"/>
<path d="M167.379 70.0978V93.7757C167.379 99.391 162.792 103.883 157.269 103.883H12.9183C7.30152 103.883 2.80811 99.2974 2.80811 93.7757V70.0978C2.80811 64.4825 7.30152 59.9902 12.9183 59.9902H157.176C162.792 59.9902 167.379 64.4825 167.379 70.0978Z" fill="white"/>
<path d="M35.5725 83.2942H32.2961V88.9095H30.4238V74.9648H35.0109C36.6023 74.9648 37.8192 75.3392 38.6618 75.9943C39.5043 76.743 39.9723 77.7725 39.9723 79.0827C39.9723 79.925 39.6915 80.6737 39.2234 81.3289C38.7554 81.984 38.1001 82.4519 37.2576 82.7327L40.534 88.6288V88.9095H38.5681L35.5725 83.2942ZM32.2961 81.7968H35.1045C36.0406 81.7968 36.7895 81.516 37.2576 81.0481C37.8192 80.5802 38.1001 79.925 38.1001 79.1763C38.1001 78.334 37.8192 77.6789 37.3512 77.211C36.7895 76.743 36.1342 76.5558 35.1045 76.4623H32.2961V81.7968Z" fill="black"/>
<path d="M44.3723 83.4814V88.9095H42.5V74.9648H47.6487C49.1465 74.9648 50.3635 75.3392 51.206 76.1815C52.0485 76.9302 52.5166 77.9597 52.5166 79.2699C52.5166 80.5802 52.0485 81.7032 51.206 82.3583C50.3635 83.1071 49.1465 83.4814 47.5551 83.4814H44.3723ZM44.3723 81.984H47.6487C48.6784 81.984 49.4273 81.7968 49.8954 81.3289C50.4571 80.8609 50.6443 80.2058 50.6443 79.2699C50.6443 78.4276 50.3635 77.7725 49.8954 77.3046C49.4273 76.8366 48.6784 76.5559 47.7423 76.5559H44.2786V81.984H44.3723Z" fill="black"/>
<path d="M56.9162 88.9095H55.0439V74.9648H56.9162V88.9095Z" fill="black"/>
<path d="M75.4515 87.131C74.9834 87.7862 74.3282 88.3477 73.4856 88.6284C72.6431 89.0028 71.6134 89.0964 70.49 89.0964C69.3667 89.0964 68.3369 88.8156 67.4944 88.2541C66.6519 87.6926 65.903 86.9439 65.4349 86.008C64.9669 84.9785 64.686 83.8554 64.686 82.5452V81.4221C64.686 79.3632 65.1541 77.6786 66.1838 76.5555C67.12 75.4325 68.5242 74.7773 70.3028 74.7773C71.8006 74.7773 72.924 75.1517 73.8601 75.9004C74.7962 76.6491 75.2643 77.6786 75.4515 79.0824H73.5793C73.2048 77.2106 72.1751 76.2748 70.3028 76.2748C69.0858 76.2748 68.1497 76.7427 67.4944 77.585C66.8391 78.4273 66.5583 79.7375 66.5583 81.3285V82.4516C66.5583 84.0426 66.9327 85.2593 67.588 86.1951C68.3369 87.131 69.2731 87.599 70.49 87.599C71.1453 87.599 71.8006 87.5054 72.2687 87.4118C72.8303 87.2246 73.2048 87.0374 73.5793 86.6631V83.5747H70.3028V82.0772H75.3579V87.131H75.4515Z" fill="black"/>
<path d="M80.4133 83.4814V88.9095H78.541V74.9648H83.6897C85.1875 74.9648 86.4045 75.3392 87.247 76.1815C88.0895 76.9302 88.5576 77.9597 88.5576 79.2699C88.5576 80.5802 88.0895 81.7032 87.247 82.3583C86.4045 83.1071 85.1875 83.4814 83.5961 83.4814H80.4133ZM80.4133 81.984H83.6897C84.7195 81.984 85.4684 81.7968 85.9364 81.3289C86.4981 80.8609 86.6853 80.2058 86.6853 79.2699C86.6853 78.4276 86.4045 77.7725 85.9364 77.3046C85.4684 76.8366 84.7195 76.5559 83.7833 76.5559H80.3197V81.984H80.4133Z" fill="black"/>
<path d="M92.9572 88.9095H91.085V74.9648H92.9572V88.9095Z" fill="black"/>
<path d="M106.999 82.4516C106.999 83.8554 106.812 84.9785 106.344 86.008C105.876 87.0374 105.221 87.7862 104.378 88.3477C103.535 88.9092 102.506 89.19 101.382 89.19C100.259 89.19 99.3229 88.9092 98.4804 88.3477C97.6379 87.7862 96.9826 87.0374 96.5145 86.008C96.0465 84.9785 95.7656 83.8554 95.7656 82.5452V81.5157C95.7656 80.2055 95.9528 78.9888 96.4209 77.9594C96.889 76.9299 97.5443 76.1812 98.3868 75.6196C99.2293 75.0581 100.259 74.7773 101.289 74.7773C102.412 74.7773 103.348 75.0581 104.284 75.6196C105.127 76.1812 105.782 76.9299 106.25 77.9594C106.718 78.9888 106.906 80.2055 106.906 81.5157V82.4516H106.999ZM105.221 81.5157C105.221 79.8311 104.846 78.6145 104.191 77.6786C103.535 76.8363 102.599 76.3683 101.382 76.3683C100.259 76.3683 99.3229 76.8363 98.6676 77.6786C98.0123 78.5209 97.6379 79.8311 97.6379 81.3285V82.358C97.6379 83.949 98.0123 85.2593 98.6676 86.1016C99.3229 87.0374 100.259 87.5054 101.476 87.5054C102.693 87.5054 103.629 87.0374 104.284 86.1951C104.94 85.3528 105.314 84.0426 105.314 82.4516V81.5157H105.221Z" fill="black"/>
<path d="M116.548 83.4814V88.9095H114.675V74.9648H119.824C121.322 74.9648 122.539 75.3392 123.381 76.1815C124.224 76.9302 124.692 77.9597 124.692 79.2699C124.692 80.5802 124.224 81.7032 123.381 82.3583C122.539 83.1071 121.322 83.4814 119.73 83.4814H116.548ZM116.548 81.984H119.824C120.854 81.984 121.603 81.7968 122.071 81.3289C122.632 80.8609 122.82 80.2058 122.82 79.2699C122.82 78.4276 122.539 77.7725 122.071 77.3046C121.603 76.8366 120.854 76.5559 119.918 76.5559H116.454V81.984H116.548Z" fill="black"/>
<path d="M126.845 75.8068C126.845 75.5261 126.939 75.2453 127.126 75.0581C127.313 74.8709 127.594 74.7773 127.875 74.7773C128.156 74.7773 128.437 74.8709 128.624 75.0581C128.811 75.2453 128.905 75.5261 128.905 75.8068C128.905 76.0876 128.811 76.3684 128.624 76.5555C128.437 76.7427 128.156 76.8363 127.875 76.8363C127.594 76.8363 127.313 76.7427 127.126 76.5555C126.845 76.3684 126.845 76.0876 126.845 75.8068ZM128.717 88.9092H126.939V78.5209H128.717V88.9092Z" fill="black"/>
<path d="M133.211 78.5212L133.305 79.8314C134.053 78.8019 135.177 78.334 136.394 78.334C138.547 78.334 139.67 79.5506 139.67 82.0775V88.9095H137.892V82.0775C137.892 81.3288 137.704 80.7673 137.423 80.3929C137.049 80.0186 136.581 79.8314 135.832 79.8314C135.27 79.8314 134.709 80.0186 134.334 80.2994C133.866 80.5801 133.585 81.0481 133.305 81.516V88.9095H131.526V78.5212H133.211Z" fill="black"/>
<path d="M289.264 178.848C289.264 185.773 283.647 191.388 276.719 191.388C269.792 191.388 264.175 185.773 264.175 178.848C264.175 171.922 269.792 166.307 276.719 166.307C283.647 166.307 289.264 171.828 289.264 178.848Z" fill="white"/>
<path d="M276.626 165.277C269.137 165.277 263.146 171.361 263.146 178.754C263.146 186.148 269.23 192.231 276.626 192.231C284.021 192.231 290.2 186.241 290.2 178.848C290.2 171.454 284.115 165.277 276.626 165.277ZM276.626 191.389C269.698 191.389 264.082 185.773 264.082 178.848C264.082 171.922 269.698 166.307 276.626 166.307C283.553 166.307 289.17 171.922 289.17 178.848C289.263 185.773 283.553 191.389 276.626 191.389Z" fill="black"/>
<path d="M272.694 185.492V172.016H276.532C277.655 172.016 278.779 172.296 279.621 172.764C280.557 173.326 281.213 173.981 281.681 175.01C282.149 175.946 282.43 177.069 282.43 178.286V179.128C282.43 180.439 282.149 181.468 281.681 182.498C281.213 183.433 280.464 184.182 279.621 184.65C278.685 185.118 277.655 185.399 276.438 185.399H272.694V185.492ZM274.473 173.513V184.089H276.345C277.749 184.089 278.779 183.621 279.528 182.778C280.277 181.936 280.651 180.719 280.651 179.128V178.38C280.651 176.882 280.277 175.666 279.621 174.823C278.872 173.981 277.843 173.513 276.532 173.513H274.473Z" fill="black"/>
<path d="M418.729 178.846C418.729 189.421 410.117 197.938 399.632 197.938C389.148 197.938 380.535 189.328 380.535 178.846C380.535 168.364 389.148 159.754 399.632 159.754C410.117 159.754 418.729 168.27 418.729 178.846Z" fill="white"/>
<path d="M399.539 158.725C388.493 158.725 379.506 167.709 379.506 178.753C379.506 189.796 388.493 198.781 399.539 198.781C410.585 198.781 419.572 189.796 419.572 178.753C419.666 167.709 410.679 158.725 399.539 158.725ZM399.539 197.938C388.961 197.938 380.442 189.328 380.442 178.846C380.442 168.364 389.054 159.754 399.539 159.754C410.024 159.754 418.636 168.364 418.636 178.846C418.636 189.328 410.117 197.938 399.539 197.938Z" fill="black"/>
<path d="M396.076 180.156H392.893V185.584H391.114V172.107H395.608C397.105 172.107 398.322 172.482 399.071 173.137C399.914 173.792 400.288 174.821 400.288 176.132C400.288 176.974 400.101 177.723 399.633 178.284C399.165 178.939 398.51 179.407 397.761 179.688L400.944 185.397V185.491H399.071L396.076 180.156ZM392.987 178.659H395.701C396.544 178.659 397.293 178.471 397.761 178.004C398.322 177.536 398.51 176.974 398.51 176.132C398.51 175.289 398.229 174.634 397.761 174.26C397.293 173.886 396.544 173.605 395.608 173.605H392.893V178.659H392.987Z" fill="black"/>
<path d="M407.964 185.584H406.279V174.166L402.815 175.476V173.885L407.683 172.014H407.964V185.584Z" fill="black"/>
<path d="M606.985 131.491C606.985 132.802 606.798 133.925 606.33 134.861C605.955 135.797 605.3 136.545 604.551 137.107L606.985 138.979L605.768 140.102L602.96 137.855C602.492 137.949 602.024 138.043 601.556 138.043C600.526 138.043 599.59 137.762 598.747 137.294C597.905 136.732 597.249 136.077 596.875 135.048C596.407 134.112 596.22 132.989 596.22 131.679V130.743C596.22 129.433 596.407 128.309 596.875 127.28C597.343 126.251 597.998 125.502 598.747 125.034C599.59 124.472 600.526 124.285 601.556 124.285C602.679 124.285 603.615 124.566 604.458 125.034C605.3 125.595 605.955 126.344 606.33 127.28C606.798 128.216 606.985 129.433 606.985 130.743V131.491ZM605.207 130.649C605.207 129.058 604.926 127.842 604.27 126.999C603.615 126.157 602.773 125.689 601.556 125.689C600.432 125.689 599.59 126.157 598.934 126.999C598.279 127.842 597.998 129.058 597.905 130.556V131.585C597.905 133.082 598.186 134.299 598.841 135.235C599.496 136.077 600.339 136.545 601.556 136.545C602.773 136.545 603.615 136.171 604.177 135.329C604.832 134.486 605.113 133.27 605.113 131.772V130.649H605.207Z" fill="black"/>
<path d="M614.849 137.762H613.164V126.344L609.7 127.654V126.063L614.568 124.191H614.849V137.762Z" fill="black"/>
<path d="M810.313 207.017V233.876C810.313 238.649 806.475 242.487 801.794 242.487H699.756C695.075 242.487 691.237 238.649 691.237 233.876V207.017C691.237 202.337 695.075 198.5 699.756 198.5H801.7C806.475 198.5 810.313 202.337 810.313 207.017Z" fill="white"/>
<path d="M721.381 227.139V213.662H725.5C726.81 213.662 727.84 213.943 728.589 214.598C729.244 215.16 729.619 216.095 729.619 217.312C729.619 217.967 729.432 218.529 729.151 218.997C728.776 219.465 728.402 219.839 727.84 220.12C728.495 220.307 729.057 220.681 729.432 221.243C729.806 221.804 729.993 222.459 729.993 223.302C729.993 224.518 729.619 225.454 728.87 226.109C728.121 226.765 727.091 227.139 725.781 227.139H721.381ZM722.972 219.371H725.5C726.249 219.371 726.81 219.184 727.185 218.809C727.653 218.435 727.84 217.874 727.84 217.218C727.84 216.47 727.653 215.908 727.279 215.627C726.904 215.253 726.249 215.16 725.5 215.16H723.066V219.371H722.972ZM722.972 220.775V225.641H725.687C726.436 225.641 727.091 225.454 727.466 224.986C727.84 224.518 728.121 223.957 728.121 223.208C728.121 221.617 727.279 220.775 725.687 220.775H722.972Z" fill="black"/>
<path d="M737.763 226.11C737.108 226.858 736.265 227.326 735.048 227.326C734.019 227.326 733.27 227.045 732.802 226.39C732.334 225.735 732.053 224.893 732.053 223.676V217.125H733.644V223.583C733.644 225.08 734.206 225.829 735.329 225.829C736.546 225.829 737.389 225.361 737.763 224.331V217.125H739.355V227.139H737.857L737.763 226.11Z" fill="black"/>
<path d="M743.848 214.691V217.125H745.533V218.435H743.848V224.612C743.848 224.986 743.941 225.267 744.035 225.548C744.222 225.735 744.409 225.828 744.784 225.828C744.971 225.828 745.252 225.828 745.533 225.735V227.139C745.158 227.232 744.69 227.326 744.316 227.326C743.567 227.326 743.099 227.139 742.724 226.671C742.35 226.203 742.163 225.548 742.163 224.705V218.529H740.478V217.125H742.163V214.691H743.848Z" fill="black"/>
<path d="M749.559 214.691V217.125H751.244V218.435H749.559V224.612C749.559 224.986 749.652 225.267 749.746 225.548C749.933 225.735 750.12 225.828 750.495 225.828C750.682 225.828 750.963 225.828 751.244 225.735V227.139C750.869 227.232 750.401 227.326 750.027 227.326C749.278 227.326 748.81 227.139 748.435 226.671C748.061 226.203 747.874 225.548 747.874 224.705V218.529H746.188V217.125H747.874V214.691H749.559Z" fill="black"/>
<path d="M752.461 221.991C752.461 221.055 752.648 220.12 753.022 219.371C753.397 218.622 753.865 217.967 754.52 217.593C755.176 217.125 755.924 216.938 756.673 216.938C757.89 216.938 758.92 217.405 759.763 218.341C760.511 219.277 760.886 220.494 760.886 222.085V222.178C760.886 223.114 760.699 224.05 760.324 224.799C759.95 225.548 759.482 226.203 758.826 226.577C758.171 227.045 757.422 227.232 756.58 227.232C755.363 227.232 754.333 226.764 753.491 225.828C752.742 224.893 752.367 223.676 752.367 222.085V221.991H752.461ZM754.052 222.178C754.052 223.302 754.333 224.144 754.801 224.799C755.269 225.454 755.924 225.828 756.673 225.828C757.516 225.828 758.078 225.454 758.546 224.799C759.014 224.144 759.295 223.208 759.295 221.898C759.295 220.775 759.014 219.932 758.546 219.277C758.078 218.622 757.422 218.248 756.58 218.248C755.831 218.248 755.176 218.622 754.708 219.277C754.333 220.026 754.052 220.962 754.052 222.178Z" fill="black"/>
<path d="M764.349 217.125L764.443 218.341C765.192 217.405 766.034 216.938 767.251 216.938C769.217 216.938 770.153 218.154 770.247 220.494V227.045H768.562V220.4C768.562 219.652 768.375 219.184 768.094 218.809C767.813 218.435 767.345 218.248 766.69 218.248C766.222 218.248 765.754 218.435 765.379 218.716C765.005 218.996 764.724 219.371 764.443 219.839V226.951H762.852V217.125H764.349Z" fill="black"/>
<path d="M780.17 222.085H776.051V220.682H780.263V222.085H780.17Z" fill="black"/>
<path d="M150.81 207.297V233.689C150.81 238.556 146.878 242.487 142.011 242.487H34.075C29.2071 242.487 25.2754 238.556 25.2754 233.689V207.297C25.2754 202.431 29.2071 198.5 34.075 198.5H142.011C146.878 198.5 150.81 202.431 150.81 207.297Z" fill="white"/>
<path d="M58.2271 221.804H55.0443V227.233H53.2656V213.756H57.759C59.2568 213.756 60.4738 214.13 61.2227 214.785C62.0652 215.44 62.4397 216.47 62.4397 217.78C62.4397 218.622 62.2525 219.371 61.7844 219.933C61.3163 220.588 60.661 221.056 59.9121 221.337L63.095 227.045V227.139H61.2227L58.2271 221.804ZM55.0443 220.307H57.759C58.6016 220.307 59.3505 220.12 59.8185 219.652C60.3802 219.184 60.5674 218.622 60.5674 217.78C60.5674 216.938 60.2866 216.283 59.8185 215.908C59.3505 215.44 58.6016 215.253 57.6654 215.253H54.9507V220.307H55.0443Z" fill="black"/>
<path d="M66.6522 221.898V227.139H64.8735V213.662H69.835C71.3328 213.662 72.4562 214.036 73.2987 214.785C74.1412 215.534 74.5157 216.563 74.5157 217.78C74.5157 219.09 74.1412 220.12 73.2987 220.775C72.4562 221.43 71.3328 221.804 69.835 221.804H66.6522V221.898ZM66.6522 220.494H69.835C70.7711 220.494 71.52 220.307 71.9881 219.839C72.4562 219.371 72.737 218.716 72.737 217.874C72.737 217.031 72.4562 216.47 71.9881 215.908C71.52 215.347 70.7711 215.16 69.9286 215.16H66.6522V220.494Z" fill="black"/>
<path d="M78.7284 227.233H76.9497V213.756H78.7284V227.233Z" fill="black"/>
<path d="M96.6084 225.454C96.1404 226.109 95.4851 226.577 94.7362 226.952C93.8937 227.232 92.9575 227.419 91.9278 227.419C90.8045 227.419 89.8683 227.139 89.0258 226.671C88.1833 226.203 87.528 225.454 87.0599 224.518C86.5919 223.582 86.311 222.459 86.311 221.243V219.932C86.311 217.873 86.7791 216.376 87.7152 215.253C88.6514 214.13 89.9619 213.568 91.7406 213.568C93.1448 213.568 94.2681 213.943 95.1106 214.598C95.9532 215.253 96.5148 216.376 96.7021 217.686H94.9234C94.549 215.908 93.5192 214.972 91.7406 214.972C90.5236 214.972 89.6811 215.347 89.0258 216.189C88.3705 217.031 88.0897 218.248 88.0897 219.839V220.962C88.0897 222.459 88.4641 223.676 89.1194 224.518C89.7747 225.454 90.7108 225.828 91.9278 225.828C92.5831 225.828 93.1448 225.735 93.7064 225.641C94.2681 225.548 94.6426 225.267 94.9234 224.893V221.898H91.8342V220.494H96.7021V225.454H96.6084Z" fill="black"/>
<path d="M109.808 227.233H108.029L101.289 216.844V227.233H99.5103V213.756H101.289L108.029 224.144V213.756H109.808V227.233Z" fill="black"/>
<path d="M112.991 227.233V213.756H116.829C117.952 213.756 119.076 214.037 119.918 214.505C120.761 214.973 121.509 215.721 121.978 216.751C122.446 217.687 122.726 218.81 122.726 220.026V220.869C122.726 222.179 122.446 223.208 121.978 224.238C121.509 225.267 120.761 225.922 119.918 226.39C118.982 226.858 117.952 227.139 116.735 227.139H112.991V227.233ZM114.769 215.253V225.829H116.642C118.046 225.829 119.076 225.361 119.824 224.519C120.573 223.676 120.948 222.46 120.948 220.869V220.12C120.948 218.622 120.573 217.406 119.918 216.564C119.169 215.721 118.139 215.253 116.829 215.253H114.769Z" fill="black"/>
<path d="M841.86 1.87109H739.822C734.58 1.87109 730.367 6.08258 730.367 11.4171V38.277C730.367 43.518 734.58 47.7295 739.822 47.7295H771.557L732.052 66.8216H609.419V88.5341L548.477 110.902V94.0558H547.541V130.93H447.188V115.862H351.984V130.93H280.838V116.236H279.902V131.117L268.201 124.379V130.93H161.014L109.995 104.912H157.269C163.354 104.912 168.316 99.9519 168.316 93.8687V70.0972C168.316 64.0139 163.354 59.0537 157.269 59.0537H12.9184C6.83355 59.0537 1.87207 64.0139 1.87207 70.0972V93.7751C1.87207 99.8583 6.83355 104.819 12.9184 104.819H107.935L160.639 131.772L160.733 131.866H268.201V138.417L279.902 131.678V146.559H280.838V131.866H351.984V146.933H447.282V131.866H547.635V168.272H548.571V152.455L594.441 173.232L591.726 179.128L604.645 177.818L609.419 179.783V267.382C607.828 267.569 606.517 268.879 606.424 270.564H154.742V270.47C154.742 268.505 153.15 266.914 151.185 266.914C150.155 266.914 149.219 267.382 148.563 268.037L123.85 243.33H141.917C147.253 243.33 151.653 238.931 151.653 233.596V207.204C151.653 201.87 147.253 197.471 141.917 197.471H34.0749C28.739 197.471 24.3391 201.87 24.3391 207.204V233.596C24.3391 238.931 28.739 243.33 34.0749 243.33H122.82L148.095 268.786C147.814 269.254 147.721 269.815 147.721 270.377C147.721 272.155 149.031 273.652 150.81 273.839V298.079H130.964V299.015H171.592V298.079H151.746V273.839C153.15 273.652 154.18 272.716 154.648 271.406H606.517C606.798 272.997 608.296 274.307 609.981 274.307C611.666 274.307 613.164 273.091 613.445 271.406H716.606L751.055 243.236H801.887C807.13 243.236 811.342 238.931 811.342 233.69V206.83C811.342 201.589 807.13 197.378 801.887 197.378H699.756C694.513 197.378 690.301 201.683 690.301 206.83V233.69C690.301 238.931 694.607 243.236 699.756 243.236H749.464L716.138 270.564H613.351C613.257 268.879 611.947 267.569 610.355 267.382V179.221L605.113 177.069L597.437 166.4L594.722 172.389L548.477 151.426V111.931L610.075 89.3764L610.355 89.2828V67.7574H732.333L773.803 47.7295H841.86C847.102 47.7295 851.315 43.518 851.315 38.277V11.4171C851.315 6.17617 847.102 1.87109 841.86 1.87109ZM12.9184 103.976C7.30161 103.976 2.8082 99.3904 2.8082 93.8687V70.0972C2.8082 64.4818 7.30161 59.9896 12.9184 59.9896H157.176C162.792 59.9896 167.286 64.5754 167.286 70.0972V93.7751C167.286 99.3904 162.699 103.883 157.176 103.883H12.9184V103.976ZM446.252 145.997H352.92V116.798H446.346V145.997H446.252ZM34.0749 242.487C29.207 242.487 25.2753 238.557 25.2753 233.69V207.298C25.2753 202.431 29.207 198.501 34.0749 198.501H142.01C146.878 198.501 150.81 202.431 150.81 207.298V233.69C150.81 238.557 146.878 242.487 142.01 242.487H34.0749ZM699.756 242.487C695.075 242.487 691.237 238.65 691.237 233.877V207.017C691.237 202.338 695.075 198.501 699.756 198.501H801.7C806.381 198.501 810.219 202.338 810.219 207.017V233.877C810.219 238.65 806.381 242.487 801.7 242.487H699.756ZM850.379 38.277C850.379 43.0501 846.541 46.7936 841.86 46.7936H739.822C735.141 46.7936 731.303 42.9565 731.303 38.277V11.4171C731.303 6.64411 735.141 2.80698 739.822 2.80698H841.766C846.447 2.80698 850.285 6.64411 850.285 11.4171V38.277H850.379Z" fill="black"/>
<path d="M850.378 11.4168V38.2767C850.378 43.0497 846.54 46.7933 841.859 46.7933H739.821C735.141 46.7933 731.303 42.9561 731.303 38.2767V11.4168C731.303 6.64377 735.141 2.80664 739.821 2.80664H841.766C846.54 2.80664 850.378 6.64377 850.378 11.4168Z" fill="white"/>
<path d="M766.97 25.5494C766.595 24.9879 766.033 24.6135 765.378 24.4264C765.94 24.1456 766.408 23.7712 766.689 23.3033C767.063 22.8354 767.157 22.2738 767.157 21.6187C767.157 20.4021 766.782 19.5598 766.127 18.9046C765.472 18.2495 764.442 17.9688 763.038 17.9688H758.919V31.4455H763.225C764.536 31.4455 765.565 31.0711 766.314 30.416C767.063 29.7609 767.438 28.7314 767.438 27.6084C767.531 26.7661 767.344 26.111 766.97 25.5494ZM760.698 19.4662H763.132C763.974 19.4662 764.536 19.6533 765.004 19.9341C765.378 20.3085 765.565 20.7764 765.565 21.5251C765.565 22.1802 765.378 22.7418 764.91 23.1161C764.442 23.4905 763.88 23.6777 763.132 23.6777H760.698V19.4662ZM765.191 29.293C764.723 29.7609 764.161 29.9481 763.412 29.9481H760.698V25.0815H763.412C765.004 25.0815 765.846 25.9238 765.846 27.5148C765.94 28.3571 765.659 28.9186 765.191 29.293Z" fill="black"/>
<path d="M775.395 21.4316V28.7316C775.02 29.6674 774.178 30.229 772.961 30.229C771.838 30.229 771.276 29.4803 771.276 27.9828V21.5252H769.685V27.9828C769.685 29.1995 769.965 30.1354 770.433 30.6969C770.995 31.352 771.744 31.6328 772.68 31.6328C773.897 31.6328 774.74 31.2584 775.395 30.5097V31.5392H776.893V21.4316H775.395Z" fill="black"/>
<path d="M782.603 30.1351C782.229 30.1351 781.948 30.0415 781.854 29.8543C781.667 29.6671 781.667 29.3864 781.667 28.9184V22.7416H783.446V21.4314H781.667V18.998H780.076V21.4314H778.391V22.7416H780.076V28.9184C780.076 29.7607 780.263 30.4159 780.637 30.8838C781.012 31.3517 781.573 31.5389 782.229 31.5389C782.603 31.5389 783.071 31.4453 783.446 31.3517V29.9479C782.978 30.1351 782.79 30.1351 782.603 30.1351Z" fill="black"/>
<path d="M788.313 30.1351C787.939 30.1351 787.658 30.0415 787.564 29.8543C787.377 29.6671 787.377 29.3864 787.377 28.9184V22.7416H789.156V21.4314H787.283V18.998H785.692V21.4314H784.007V22.7416H785.692V28.9184C785.692 29.7607 785.879 30.4159 786.254 30.8838C786.628 31.3517 787.19 31.5389 787.845 31.5389C788.219 31.5389 788.688 31.4453 789.062 31.3517V29.9479C788.688 30.1351 788.5 30.1351 788.313 30.1351Z" fill="black"/>
<path d="M797.487 22.648C796.738 21.7121 795.709 21.2441 794.398 21.2441C793.556 21.2441 792.9 21.4313 792.245 21.8993C791.59 22.3672 791.122 22.9287 790.747 23.6774C790.373 24.4262 790.186 25.362 790.186 26.2979V26.3915C790.186 27.9825 790.56 29.1992 791.309 30.1351C792.058 31.0709 793.088 31.5389 794.398 31.5389C795.241 31.5389 795.99 31.3517 796.645 30.8838C797.3 30.4158 797.768 29.8543 798.143 29.1056C798.517 28.3569 798.704 27.421 798.704 26.4851V26.3915C798.611 24.8941 798.236 23.5839 797.487 22.648ZM796.364 29.1992C795.896 29.8543 795.241 30.2286 794.492 30.2286C793.649 30.2286 793.088 29.8543 792.62 29.1992C792.151 28.544 791.871 27.6082 791.871 26.5787C791.871 25.362 792.151 24.3326 792.62 23.6774C793.088 23.0223 793.743 22.648 794.492 22.648C795.334 22.648 795.896 23.0223 796.458 23.6774C796.926 24.3326 797.207 25.2684 797.207 26.2979C797.019 27.6082 796.832 28.544 796.364 29.1992Z" fill="black"/>
<path d="M804.976 21.2441C803.853 21.2441 802.917 21.7121 802.168 22.648L802.074 21.4313H800.576V31.4453H802.168V24.3326C802.355 23.8646 802.729 23.4903 803.104 23.2095C803.478 22.9287 803.946 22.7416 804.414 22.7416C805.07 22.7416 805.538 22.9287 805.818 23.3031C806.099 23.6774 806.287 24.1454 806.287 24.8941V31.5389H807.878V24.8941C807.878 22.4608 806.848 21.2441 804.976 21.2441Z" fill="black"/>
<path d="M819.205 24.2393V20.3086H817.614V24.2393H814.15V25.8303H817.614V30.0418H819.205V25.8303H822.669V24.2393H819.205Z" fill="black"/>
<path d="M163.822 305.191H138.641V306.127H163.822V305.191Z" fill="black"/>
<path d="M446.346 116.799H352.92V145.998H446.346V116.799Z" fill="white"/>
</g>
<defs>
<clipPath id="clip0_657_2808">
<rect width="853" height="308" fill="white"/>
</clipPath>
</defs>
</svg>
