<svg xmlns="http://www.w3.org/2000/svg" xmlns:xlink="http://www.w3.org/1999/xlink" width="162.562" height="162.78" viewBox="0 0 162.562 162.78">
  <defs>
    <clipPath id="clip-path">
      <rect id="Rectangle_1706" data-name="Rectangle 1706" width="114.202" height="116.411" transform="translate(0 0)" fill="none"/>
    </clipPath>
  </defs>
  <g id="Group_4821" data-name="Group 4821" transform="matrix(0.755, 0.656, -0.656, 0.755, 76.372, 0)">
    <g id="Group_4820" data-name="Group 4820" clip-path="url(#clip-path)">
      <path id="Path_8308" data-name="Path 8308" d="M110.161,79.306c.674-11.545,1.317-23.09,2.012-34.633q.53-8.8,1.058-17.6c.321-5.413,1.58-11.842.61-17.2a.581.581,0,0,0-.778-.486.942.942,0,0,0-.933-.066c-9.877,4.286-20.2,7.726-30.364,11.273q-3.822,1.333-7.656,2.638c-1.9.644-2.109.641-3.688-.526a34.233,34.233,0,0,1-2.777-2.585q-6.019-5.6-12.065-11.167c-1.861-1.713-3.721-3.426-5.6-5.117-1.25-1.124-2.61-2.658-4.239-3.387A.845.845,0,0,0,44.686.114c-1.925-.383-3.986.3-5.861.628q-4.031.71-8.1,1.17c-2.953.335-5.918.558-8.886.694q-4.635.174-9.276.08c-2.392-.1-4.81-.265-7.208-.315-1.317-.088-2.634-.188-3.95-.308a.482.482,0,0,0-.417-.23A.7.7,0,0,0,.6,1.789a.641.641,0,0,0-.517.359c-.26.684.139,1.468.327,2.137l.052.187a.637.637,0,0,0,.029.16C.6,4.988.7,5.346.81,5.7q.225.8.449,1.6l0,.007q.656,2.439,1.16,4.9c.326,2.584.6,5.182.719,7.851.314,6.8.493,13.6.574,20.409.164,13.7-.234,27.4-1.111,41.072a1.357,1.357,0,0,0,1.773,1.493c13.179-4,26.33-8.3,39.085-13.521,3.074,4.553,9.311,7.4,13.533,10.722C61.815,84.031,65.7,88.5,69.789,93.014a1.407,1.407,0,0,0,.248.594,1.193,1.193,0,0,0,1.364.858c6.5-1.6,12.782-4.276,19.1-6.477,6.347-2.21,12.739-4.283,19.109-6.424a1.369,1.369,0,0,0,.552-2.259m2.059-67.644a63.8,63.8,0,0,0-.556,6.875q-.3,4.392-.6,8.784-.594,8.787-1.179,17.573c-.694,10.343-1.429,20.682-2.145,31.023a.683.683,0,0,0-.794-.24c.532-8.957-.041-18.09.026-27.058q.052-6.931.173-13.863c.083-4.832.612-9.874.155-14.693l.51-.2c1.284-.5.486-2.567-.725-1.985a253.715,253.715,0,0,1-26.105,10.6,48.629,48.629,0,0,1-6.971,2.332c-.413.074-.723.145-1,.182-.066-1.647-.17-3.287-.357-4.907,13.267-4.594,26.3-9.858,39.573-14.421m-16.236,33.5a9.132,9.132,0,0,0,1.045,4.567c.511.937,1.623,1.627.847,2.9-.453.742-3.472,1.494-4.306,1.829a1.29,1.29,0,0,0-.816,1.287c.08,1.631-3.869,2.186-4.95,2.846a8.591,8.591,0,0,0-2.78,2.888c-1.94,3.157-1.867,6.852-2.65,10.355C81.267,76.789,81,71.773,80.629,69.8a19.851,19.851,0,0,0-1.33-4.726c-1.392-3.023-3.662-3.773-6.025-5.267,0-.372.006-.743.007-1.115q.009-8.355-.137-16.71c-.015-.874-.016-1.76-.02-2.642a25.524,25.524,0,0,1,7.949-1.595,31.793,31.793,0,0,0,6.085-.243c2.434-.517,4.684-1.722,7.137-2.163,1.048-.189,3.475-.539,3.768,1.087.125.69-.8,2.452-1.036,3.217a19.8,19.8,0,0,0-1.043,5.517M70.877,57.675c0,.108,0,.215,0,.323-1.461-1.176-3.044-2.172-4.885-.859-1.124.8-1.082,2-1.885,2.958-3.078,3.683-4.9-1.163-6.276-2.991a5.775,5.775,0,0,0-2.981-2.138c-1.271-.423-2.773-.46-3.852-1.369a9.564,9.564,0,0,1-2.032-3.368c-1.039-2.143-1.9-4.226-3.8-5.329q.123-5.339.256-10.675.178-6.828.335-13.656c.834,1.469,1.694,2.924,2.558,4.374,1.328,2.229,2.348,4.629,4.813,5.736a7.413,7.413,0,0,1,3.768,2.93,16.156,16.156,0,0,0,1.847,2.761,5.029,5.029,0,0,0,4.554,1.81l1.488,3.364a1.169,1.169,0,0,0,1.482.689c1.507-.691,3.028-1.388,4.571-2.02.005.246.012.492.016.737q.113,8.363.023,16.723M70.6,32.916c.051,1.661.12,3.321.176,4.976-1.421.5-2.851,1.082-4.319,1.731l-1.438-3.25a1.171,1.171,0,0,0-1.482-.689c-3.123,1.419-4.627-3.248-6.255-4.941-1.177-1.224-2.721-1.472-4.049-2.429-1.9-1.371-2.945-4.145-4.129-6.141-1.053-1.777-2.121-3.551-3.254-5.281.059-1.756.177-3.567.28-5.4,1.268,1.061,2.474,2.378,3.637,3.386L60.72,24.375q2.62,2.271,5.26,4.515c1.086.921,3.047,3.121,4.62,4.026M47.593,4.685q3.708,3.441,7.438,6.858,7.811,7.173,15.574,14.4c-.063,1.306-.078,2.619-.068,3.934-.7-.633-1.347-1.395-2.031-2-3.627-3.192-7.293-6.339-10.954-9.491-3.491-3.005-6.893-6.191-10.529-9.019-.256-.2-.511-.372-.766-.535A48.945,48.945,0,0,0,46.2,3.557a12.222,12.222,0,0,1,1.394,1.128m-4.18,12.7q-.24,8.216-.424,16.431-.1,4.449-.229,8.9a10.2,10.2,0,0,0-6.131-.566,3.587,3.587,0,0,0-2.178,1.287c-.57.748-.393,1.742-.85,2.459-.977,1.531-3.176.053-4.724,1.34-1.447,1.2-2.44,3.327-3.337,5.291a12.081,12.081,0,0,1-.869-2.967c-.329-2.383.868-3.618,1.52-5.681.383-1.214-.157-1.462-.212-2.557-.167-3.355,2.22-1.681,3.788-2.487a2.09,2.09,0,0,0,.856-3.073c-.851-1.047-2.281-.4-1.479-2.506a7.152,7.152,0,0,1,4.537-3.817,1.1,1.1,0,0,0,.606-1.9c-.956-.79,1.636-3.486,1.721-4.575a2.73,2.73,0,0,0-1.248-2.486c-.59-.5-1.321-.777-1.891-1.32-1.849-1.762-1.047-3.893,1.167-4.6,2.967-.955,5.928.04,8.747.933a.387.387,0,0,0,.313-.031.735.735,0,0,0,.066.222c.086.179.181.353.269.53,0,.4-.007.792-.018,1.18m.027-2.594a.785.785,0,0,0-.076.052.4.4,0,0,0-.159-.247c-3.079-2.176-13.383-3.634-13.192,2.524.085,2.753,4.759,4.093,3.608,6.8-.6,1.405-1.822,2.465-1.653,3.717a9.536,9.536,0,0,0-5.144,5.18,3.71,3.71,0,0,0-.137,3.349c.192.316.955.7,1.047.927.228.559-.653-.362-1.359-.309a3.263,3.263,0,0,0-2.59,2,4.261,4.261,0,0,0-.245,1.938c-.094,1.443.526,1.509-.252,3.669-.091.253-.183.49-.273.719a.206.206,0,0,0-.083-.073,5.678,5.678,0,0,0-2.693-.151,27.872,27.872,0,0,0-3.363.518c-.613.13-.528,1.116.089.981a28.916,28.916,0,0,1,3.149-.522,9.72,9.72,0,0,0,2.755-.389,7.4,7.4,0,0,0-.753,3.822,19.27,19.27,0,0,0,2.223,6.616,1.505,1.505,0,0,0,.2.3c-2.081.334-4.155.913-6.253,1.125a.428.428,0,0,0,.077.852,25.263,25.263,0,0,0,7.3-1.491,1.243,1.243,0,0,0,1.012-.676c.941-1.718,1.908-4.659,3.305-6.034,1.557-1.533,2.792,0,4.451-.725a3.09,3.09,0,0,0,1.648-2.135c.375-1.239,0-1.252,1.227-2.116,1.47-1.035,3.26-.484,4.8.248a1.166,1.166,0,0,0,.567,1.2q-.18,6.748-.341,13.495c-9.636,3.383-19.349,6.7-28.824,10.519-.434-9.976-.976-19.925-1.715-29.887-.753-10.157-1.175-20.732-3.138-30.758,8.72.683,17.777-.318,26.5-.344,2.5-.007,5.74-.425,8.264.4,0,1.649.024,3.293.026,4.906M5.655,79.831q.321-10.524.415-21.054.1-7.074.01-14.152c-.009-1.441-.008-2.883-.025-4.325-.065-5.586-.227-11.184-.73-16.738Q5.2,21.416,5.06,19.271C4.721,14.19,4.736,8.154,2.447,3.422l.231.02C7.428,4.529,12.73,4.487,17.472,4.473A134.363,134.363,0,0,0,36.691,3.036c1.526-.226,3.078-.636,4.611-.765a7.553,7.553,0,0,1,2.574.2,41.063,41.063,0,0,0-.427,5.19c-2.225-.5-4.551-.181-7.211-.057-4.6.214-9.2.339-13.8.483-4.638.146-15.357.028-15.332.839C6.928,9.138,9.15,30.4,9.8,40.769c.665,10.62.967,21.323.878,31.965a1.474,1.474,0,0,0,1.958,1.241C22.642,70.469,32.467,66.334,42.276,62.3c-.033,1.594-.07,3.188-.1,4.782C30.061,71.507,17.96,75.939,5.655,79.831M44.768,60.919q.186-6.593.33-13.187c2.185,2.231,2.155,6.853,5.2,8.583,2.424,1.376,4.405.988,6.023,3.8a8.306,8.306,0,0,0,2.964,3.233,5.183,5.183,0,0,0,6.879-1.335c.556-.806,1.211-2.623,2.631-2.3.63.142,1.442,1.344,2.023,1.864q-.161,10.344-.587,20.681c-4.218-3.235-8.431-6.46-12.5-9.9C53.416,68.7,49.4,64.18,44.768,60.919m14.151,17.9c-2.473-1.935-5.089-3.661-7.687-5.422-2.19-1.484-4.207-3.319-6.451-4.721a1.451,1.451,0,0,0-.195-1.646c.045-1.358.081-2.716.121-4.074,3.256,3.876,7.643,7.186,11.406,10.4,4.53,3.868,9.172,7.666,14.022,11.133-.07,1.61-.137,3.22-.216,4.83a67.332,67.332,0,0,0-11-10.5M73.256,63.048a6.274,6.274,0,0,1,3.218,3.06c1.477,3.224.449,8.948,3.243,11.5,2.623,2.4,4.618-1.521,5.239-3.564,1.2-3.956.389-10.569,4.534-13.026,2.286-1.356,5.783-1.486,5.823-4.58,1.9-.717,4.641-1.5,5.407-3.262.943-2.172-1.559-4.04-2.118-5.927-.858-2.893.392-6.14,1.2-8.912.482-1.655.955-3.36-.655-4.562-1.552-1.159-4.042-.764-5.769-.356-3.271.773-6.137,2.215-9.581,2.2a36.309,36.309,0,0,0-10.691,1.512c-.005-1.306-.01-2.616-.036-3.926.493-.147,1-.377,1.6-.592,2.306-.828,4.6-1.689,6.895-2.542,8.079-3,16.062-6.229,24.084-9.363a116.769,116.769,0,0,0-.555,12.345q-.238,7.254-.4,14.511c-.216,9.575-.984,19.463-.235,29.015l0,.018c-5.065,1.77-10.429,2.867-15.6,4.186-3.159.8-6.326,1.578-9.488,2.37a44.248,44.248,0,0,0-6.563,1.8q.372-10.95.451-21.908M88.9,85.4a162.881,162.881,0,0,0-16.347,6.248c.073-1.746.131-3.492.193-5.238A30.544,30.544,0,0,0,78.86,85.3c3.373-.782,6.721-1.664,10.068-2.549,6.182-1.633,12.641-2.947,18.495-5.568a.835.835,0,0,0,.236-.159q-.075,1.087-.151,2.175c-6.249,1.916-12.438,4.03-18.6,6.2" fill="#231f20"/>
      <path id="Path_8309" data-name="Path 8309" d="M18.253,17.359c-1.484-.82-3.375-.278-4.965-.216-.426.016-.472.731-.034.763,1.593.114,3.46.723,4.974-.044a.277.277,0,0,0,.025-.5" fill="#231f20"/>
      <path id="Path_8310" data-name="Path 8310" d="M25.741,15.648a9.176,9.176,0,0,0-3.636.971.225.225,0,0,0,.037.43c.092.021.182.038.273.057-.015.016-.019.043.01.048s.034-.02.026-.04a8.706,8.706,0,0,0,3.435.133.8.8,0,0,0-.145-1.6" fill="#231f20"/>
      <path id="Path_8311" data-name="Path 8311" d="M22.829,20.8a2.9,2.9,0,0,0-1.6-.137c-.631.052-1.26.12-1.889.181-.781.074-.669,1.313.11,1.213.627-.081,1.256-.154,1.883-.242a2.972,2.972,0,0,0,1.54-.48.316.316,0,0,0-.043-.535" fill="#231f20"/>
      <path id="Path_8312" data-name="Path 8312" d="M26.423,20.075a.032.032,0,0,0-.011.063.032.032,0,0,0,.011-.063" fill="#231f20"/>
      <path id="Path_8313" data-name="Path 8313" d="M13.707,23.536a.941.941,0,0,0-1.054-.413c-.292.046-.769.2-.865.511-.042.053-.086.1-.134.155-.174.188.116.416.294.252l.1-.066a6.385,6.385,0,0,0,.668-.137,3.532,3.532,0,0,0,.854-.009.23.23,0,0,0,.136-.293" fill="#231f20"/>
      <path id="Path_8314" data-name="Path 8314" d="M18.548,26.088a.032.032,0,0,0-.011.063.032.032,0,0,0,.011-.063" fill="#231f20"/>
      <path id="Path_8315" data-name="Path 8315" d="M20.412,26.527a4.754,4.754,0,0,0-2.4.062c-.888.15-1.771.322-2.654.5-.618.124-.564,1.083.091,1,.95-.119,1.9-.246,2.843-.393a4.533,4.533,0,0,0,2.224-.7.262.262,0,0,0-.1-.467" fill="#231f20"/>
      <path id="Path_8316" data-name="Path 8316" d="M27.753,24.265c-.545-.368-1.124-.11-1.719.042a12,12,0,0,0-2.322.805.33.33,0,0,0,.142.635,11.862,11.862,0,0,0,2.292-.337c.606-.138,1.37-.187,1.683-.783a.3.3,0,0,0-.076-.362" fill="#231f20"/>
      <path id="Path_8317" data-name="Path 8317" d="M28.245,20.727a.032.032,0,0,0-.011.063.032.032,0,0,0,.011-.063" fill="#231f20"/>
      <path id="Path_8318" data-name="Path 8318" d="M31.056,20.079a2.464,2.464,0,0,0-1.767.345c-.3.124-.6.255-.9.4a3.453,3.453,0,0,0-.765.593c-.11.094-.111.338.076.35a4.617,4.617,0,0,0,.8.052,7.956,7.956,0,0,0,.983-.218c.56-.142,1.394-.236,1.734-.743.159-.236.175-.663-.164-.779" fill="#231f20"/>
      <path id="Path_8319" data-name="Path 8319" d="M23.013,31.9a21.993,21.993,0,0,0-4.458.492,43.844,43.844,0,0,0-4.456.828c-.409.11-.239.725.157.7a45.642,45.642,0,0,0,4.694-.659,20.476,20.476,0,0,0,4.1-.885c.21-.081.22-.466-.041-.478" fill="#231f20"/>
      <path id="Path_8320" data-name="Path 8320" d="M23.986,35.183a5.445,5.445,0,0,0-2.094.256l-2.326.465c-.51.1-.44.919.073.812l2.479-.518a5.309,5.309,0,0,0,1.965-.575.247.247,0,0,0-.1-.44" fill="#231f20"/>
      <path id="Path_8321" data-name="Path 8321" d="M18.991,39.907c-1.542-.177-3.328.477-4.83.794-.58.123-.505,1.055.085.931,1.546-.326,3.469-.441,4.849-1.249a.266.266,0,0,0-.1-.476" fill="#231f20"/>
      <path id="Path_8322" data-name="Path 8322" d="M21.959,51.049a3.124,3.124,0,0,0-2.438,0A11.491,11.491,0,0,0,16.653,52.2c-.627.347.012,1.263.634.915a10.032,10.032,0,0,1,2.468-1c.685-.172,1.622-.114,2.179-.578a.312.312,0,0,0,.025-.488" fill="#231f20"/>
      <path id="Path_8323" data-name="Path 8323" d="M38.217,58.788c-6.513.5-13.155,2.9-19.5,4.424-.442.107-.195.765.242.663,6.313-1.466,13.325-2.309,19.33-4.76a.17.17,0,0,0-.073-.327" fill="#231f20"/>
      <path id="Path_8324" data-name="Path 8324" d="M35.057,54.61a.032.032,0,0,0-.011.063.032.032,0,0,0,.011-.063" fill="#231f20"/>
      <path id="Path_8325" data-name="Path 8325" d="M64.255,74.534c-5.294-5.132-10.69-10.282-16.3-15.067a.358.358,0,0,0-.546.116l-.216.335a.3.3,0,0,0,.073.351l.246.242a.1.1,0,0,0,.154-.055,47.972,47.972,0,0,0,3.849,3.381q2.034,1.887,4.067,3.775C58.3,70.121,61,72.651,63.77,75.1c.363.32.827-.236.485-.567" fill="#231f20"/>
      <path id="Path_8326" data-name="Path 8326" d="M65.963,70.845l-5.2-3.5c-.442-.3-.989.336-.543.635l5.205,3.491c.436.293.976-.331.536-.627" fill="#231f20"/>
      <path id="Path_8327" data-name="Path 8327" d="M67.756,67.965a7.69,7.69,0,0,0-1.551-.971L64.474,66c-.478-.275-.843.5-.37.771l1.728,1a7.559,7.559,0,0,0,1.619.837c.379.108.543-.413.305-.642" fill="#231f20"/>
      <path id="Path_8328" data-name="Path 8328" d="M67.541,65.207a.294.294,0,0,0-.224-.189,2.833,2.833,0,0,0-.575-.038.24.24,0,0,0-.082.453,2.824,2.824,0,0,0,.552.165.293.293,0,0,0,.276-.1.281.281,0,0,0,.053-.293" fill="#231f20"/>
      <path id="Path_8329" data-name="Path 8329" d="M102.739,24.619c-7,3.158-14.236,5.212-21.4,7.89-.147.055-.1.312.063.279,7.344-1.5,14.663-4.718,21.5-7.73.274-.121.114-.563-.16-.439" fill="#231f20"/>
      <path id="Path_8330" data-name="Path 8330" d="M102.071,27.934c-2.69.719-5.283,1.551-8.041,2.022-.544.093-.474.952.078.862a37.015,37.015,0,0,0,8.253-2.09.423.423,0,0,0-.29-.794" fill="#231f20"/>
      <path id="Path_8331" data-name="Path 8331" d="M101.6,59.694c-3.994,1.3-8.137,2.388-12.058,3.883-.243.092-.172.513.1.461a72.114,72.114,0,0,0,12.16-3.784.3.3,0,0,0-.205-.56" fill="#231f20"/>
      <path id="Path_8332" data-name="Path 8332" d="M102.325,62.209c-1.963.534-3.894,1.239-5.83,1.865-.523.169-.23.975.294.8,1.931-.635,3.906-1.2,5.806-1.93a.393.393,0,0,0-.27-.738" fill="#231f20"/>
      <path id="Path_8333" data-name="Path 8333" d="M103.687,66.516c-5.341.955-10.778,1.63-16.074,2.8-.375.083-.353.652.055.614a124.984,124.984,0,0,0,16.183-2.682c.413-.1.258-.806-.164-.731" fill="#231f20"/>
      <path id="Path_8334" data-name="Path 8334" d="M99.734,70.332c-3.611.487-7.32,2.273-10.774,3.427-.408.136-.18.759.228.626,3.462-1.134,7.494-1.914,10.684-3.673.185-.1.061-.407-.138-.38" fill="#231f20"/>
      <path id="Path_8335" data-name="Path 8335" d="M97.109,75.55a21.984,21.984,0,0,0-4.471,1.516l-4.971,1.91a.413.413,0,0,0,.283.775l4.973-1.9a22.054,22.054,0,0,0,4.344-1.863.241.241,0,0,0-.158-.434" fill="#231f20"/>
    </g>
  </g>
</svg>
