<svg xmlns="http://www.w3.org/2000/svg" xmlns:xlink="http://www.w3.org/1999/xlink" width="261.226" height="50.609" viewBox="0 0 261.226 50.609">
  <defs>
    <clipPath id="clip-path">
      <rect id="Rectangle_1708" data-name="Rectangle 1708" width="261.226" height="50.609" fill="#2949d3"/>
    </clipPath>
  </defs>
  <g id="Group_4825" data-name="Group 4825" transform="translate(0 0)">
    <g id="Group_4824" data-name="Group 4824" transform="translate(0 0)" clip-path="url(#clip-path)">
      <path id="Path_8343" data-name="Path 8343" d="M0,14.128H6.922v3.258H6.99a9.154,9.154,0,0,1,2.886-2.613,8.39,8.39,0,0,1,4.581-1.257,12.709,12.709,0,0,1,4.919.917,10.569,10.569,0,0,1,3.768,2.613,11.914,11.914,0,0,1,2.409,4,14.434,14.434,0,0,1,.846,5.021,15.218,15.218,0,0,1-.78,4.853,13.461,13.461,0,0,1-2.205,4.14,10.9,10.9,0,0,1-3.46,2.884,9.719,9.719,0,0,1-4.615,1.087,13.3,13.3,0,0,1-4.413-.712A6.835,6.835,0,0,1,7.6,35.844H7.534v13.98H0ZM8.523,26.275a6.385,6.385,0,0,0,1.561,4.478,5.714,5.714,0,0,0,4.41,1.7,5.806,5.806,0,0,0,4.447-1.7,6.27,6.27,0,0,0,1.595-4.478,6.178,6.178,0,0,0-1.595-4.41,5.806,5.806,0,0,0-4.447-1.7,5.714,5.714,0,0,0-4.41,1.7,6.287,6.287,0,0,0-1.561,4.41m22.22-12.147h7.464v3.936h.136a9.813,9.813,0,0,1,2.852-3.394,6.981,6.981,0,0,1,4.138-1.155q.612,0,1.291.068a9,9,0,0,1,1.221.2v6.854c-.542-.134-1.074-.242-1.595-.338a9.209,9.209,0,0,0-1.595-.136,8.34,8.34,0,0,0-3.426.576,4.332,4.332,0,0,0-1.935,1.663,6.46,6.46,0,0,0-.883,2.579,24.678,24.678,0,0,0-.2,3.326V38.424H30.743Zm20.427,0h7.464v24.3H51.17Zm12.893,0h7.194v3.324h.136A7.849,7.849,0,0,1,73.9,14.779a7.612,7.612,0,0,1,4.546-1.257,10.342,10.342,0,0,1,4.615.883,6.54,6.54,0,0,1,2.72,2.443,10.075,10.075,0,0,1,1.291,3.664,28.7,28.7,0,0,1,.338,4.546V38.424H79.951V26.547c0-.678-.023-1.4-.068-2.171A6.509,6.509,0,0,0,79.44,22.3a3.64,3.64,0,0,0-1.153-1.527,3.515,3.515,0,0,0-2.205-.61,4.758,4.758,0,0,0-2.375.508,3.494,3.494,0,0,0-1.359,1.393,6.083,6.083,0,0,0-.644,1.967,14.988,14.988,0,0,0-.17,2.307V38.424h-7.47Zm45.131,6.039h-6.577v8.077a8.2,8.2,0,0,0,.542,3.224c.362.829,1.335,1.255,2.918,1.255a15.582,15.582,0,0,0,1.629-.1,2.633,2.633,0,0,0,1.493-.576v6.243a13.464,13.464,0,0,1-2.577.576,21.959,21.959,0,0,1-2.716.17,13.943,13.943,0,0,1-3.439-.408,7.72,7.72,0,0,1-2.794-1.289,6.223,6.223,0,0,1-1.854-2.273,7.783,7.783,0,0,1-.668-3.36V20.167H90.332V14.128h4.819V7h7.466v7.126H109.2Zm29.316,18.256h-6.854v-3.19h-.136a8.955,8.955,0,0,1-2.85,2.577,8.446,8.446,0,0,1-4.549,1.223,12.709,12.709,0,0,1-4.919-.917,10.65,10.65,0,0,1-3.766-2.613,11.957,11.957,0,0,1-2.409-3.97,14.355,14.355,0,0,1-.848-5.055,15.16,15.16,0,0,1,.78-4.846,13.34,13.34,0,0,1,2.205-4.14,10.9,10.9,0,0,1,3.462-2.884,9.633,9.633,0,0,1,4.615-1.087,12.718,12.718,0,0,1,4.41.746,7.05,7.05,0,0,1,3.326,2.511h.068V.7h7.464Zm-7.979-12.149a6.261,6.261,0,0,0-1.561-4.41,5.7,5.7,0,0,0-4.413-1.7,5.8,5.8,0,0,0-4.444,1.7,6.2,6.2,0,0,0-1.595,4.41,6.291,6.291,0,0,0,1.595,4.478,5.819,5.819,0,0,0,4.444,1.7,5.688,5.688,0,0,0,4.413-1.7,6.355,6.355,0,0,0,1.561-4.478M144.55,14.128h7.464v24.3H144.55Zm-.61-7.6a4.145,4.145,0,0,1,1.289-3.088,4.239,4.239,0,0,1,3.056-1.255,4.319,4.319,0,0,1,3.122,1.255,4.145,4.145,0,0,1,1.289,3.088,4.179,4.179,0,0,1-1.289,3.056,4.257,4.257,0,0,1-3.122,1.289,4.179,4.179,0,0,1-3.056-1.289,4.179,4.179,0,0,1-1.289-3.056m13.506,7.6h7.464v3.936h.136A9.813,9.813,0,0,1,167.9,14.67a6.981,6.981,0,0,1,4.138-1.155q.612,0,1.291.068a9,9,0,0,1,1.221.2v6.854c-.542-.134-1.074-.242-1.595-.338a9.209,9.209,0,0,0-1.595-.136,8.357,8.357,0,0,0-3.428.576A4.337,4.337,0,0,0,166,22.407a6.46,6.46,0,0,0-.883,2.579,24.679,24.679,0,0,0-.2,3.326V38.424h-7.464Zm42.484,20.087a12.266,12.266,0,0,1-4.583,3.562,13.579,13.579,0,0,1-5.665,1.257,14.973,14.973,0,0,1-5.3-.917,11.812,11.812,0,0,1-3.953-2.579,11.918,11.918,0,0,1-2.884-4,12.765,12.765,0,0,1-1.05-5.259,14.956,14.956,0,0,1,1.05-5.259,11.667,11.667,0,0,1,6.52-6.584,14.973,14.973,0,0,1,5.3-.917,10.478,10.478,0,0,1,8.313,3.462,13.724,13.724,0,0,1,3.183,9.3V28.65H183.646a5.967,5.967,0,0,0,1.969,3.428,5.5,5.5,0,0,0,3.664,1.255,5.717,5.717,0,0,0,3.122-.814,8.236,8.236,0,0,0,2.239-2.1ZM193.87,23.493a4.191,4.191,0,0,0-1.255-3.19,4.5,4.5,0,0,0-3.36-1.357,5.067,5.067,0,0,0-3.8,1.391,4.976,4.976,0,0,0-1.493,3.156ZM220.7,22a4.638,4.638,0,0,0-1.527-1.291,4.35,4.35,0,0,0-2.137-.542,5.8,5.8,0,0,0-4.444,1.7A6.2,6.2,0,0,0,211,26.275a6.281,6.281,0,0,0,1.595,4.478,5.816,5.816,0,0,0,4.444,1.7,3.92,3.92,0,0,0,2.137-.576,6.343,6.343,0,0,0,1.527-1.323l4.955,5.225a10.036,10.036,0,0,1-4.106,2.511,14.9,14.9,0,0,1-9.805-.17,13.2,13.2,0,0,1-4.276-2.579,11.98,11.98,0,0,1-2.89-4,12.765,12.765,0,0,1-1.051-5.259,12.786,12.786,0,0,1,1.051-5.259,11.937,11.937,0,0,1,2.89-4,13.3,13.3,0,0,1,4.276-2.579,14.878,14.878,0,0,1,9.805-.168,9.981,9.981,0,0,1,4.106,2.509Zm25.761-1.833h-6.584v8.077a8.238,8.238,0,0,0,.544,3.224c.362.829,1.333,1.255,2.918,1.255a15.582,15.582,0,0,0,1.629-.1,2.633,2.633,0,0,0,1.493-.576v6.243a13.45,13.45,0,0,1-2.579.576,21.926,21.926,0,0,1-2.713.17,13.931,13.931,0,0,1-3.439-.408,7.776,7.776,0,0,1-2.794-1.289,6.211,6.211,0,0,1-1.854-2.273,7.739,7.739,0,0,1-.668-3.36V20.167H227.6V14.128h4.819V7h7.464v7.126h6.584v6.039" transform="translate(0 0.785)" fill="#2949d3" fill-rule="evenodd"/>
      <path id="Path_8344" data-name="Path 8344" d="M22.935,4.468l3.953-.327L29.008,0l2.122,4.14,4.094.327L32.109,7.5l.893,4L29.083,9.246l-3.864,2.246L26.05,7.5l-3.109-3.03" transform="translate(25.837 -0.001)" fill="#2949d3" fill-rule="evenodd"/>
      <path id="Path_8345" data-name="Path 8345" d="M119.429,10.033V4.976h-1.922V4.1h4.863v.88h-1.956v5.057Zm3.592,0V4.1h1.448l1.493,4.744L127.421,4.1h1.431v5.937h-.91V5.051l-1.533,4.982h-.893l-1.578-5.057v5.057h-.91" transform="translate(132.374 4.614)" fill="#2949d3" fill-rule="evenodd"/>
    </g>
  </g>
</svg>
