<svg xmlns="http://www.w3.org/2000/svg" xmlns:xlink="http://www.w3.org/1999/xlink" width="88.87" height="101.969" viewBox="0 0 88.87 101.969">
  <defs>
    <clipPath id="clip-path">
      <rect id="Rectangle_38" data-name="Rectangle 38" width="88.87" height="101.969" transform="translate(263.443 77.587)" fill="none"/>
    </clipPath>
  </defs>
  <g id="Group_41" data-name="Group 41" transform="translate(-263.443 -77.587)" opacity="0.58">
    <g id="Group_40" data-name="Group 40">
      <g id="Group_39" data-name="Group 39" clip-path="url(#clip-path)">
        <path id="Path_135" data-name="Path 135" d="M307.9,178.04l-1.335.768.241.14,1.094-.632v1.24l44.41-25.641v-2.77l-44.41,25.64Z" fill="#fff"/>
        <path id="Path_136" data-name="Path 136" d="M307.9,169.614l-8.632,4.984.421.24L307.9,170.1v1.044l44.41-25.641V142.93L307.9,168.57Z" fill="#fff"/>
        <path id="Path_137" data-name="Path 137" d="M307.9,161.193l-15.924,9.194.6.346,15.322-8.847v.833l44.41-25.641v-2.363l-44.41,25.64Z" fill="#fff"/>
        <path id="Path_138" data-name="Path 138" d="M352.308,102.615l-.652-.376L316.089,122.77l-4.613-2.665,10.806-6.248v-1.566l23.4-13.51-1.145-.658-22.257,12.848v-1.33l-14.454,8.341-5.019-2.881,35.577-20.516-.948-.572-35.562,20.531-4.853-2.8,7.884-4.552-1.475-.853,27.677-15.98-.782-.451-27.678,15.979-1.406-.808-7.919,4.562v1.631l-7.412,4.276-.538-.311L263.443,127.9v2.158l23.808-13.751-.542-.316,6.615-3.84v1.682l4.878,2.815-5.164,2.976-.356-.206L263.443,136.3v1.947l30.925-17.856-.361-.211,5.159-2.976,4.988,2.876-10.83,6.268v1.134l-29.881,17.254v1.742l29.881-17.264v1.33l4.637,2.675-34.518,19.934v.747l.672.392L299.3,134l4.8,2.77-10.77,6.153v1.41l-23.236,13.42,1.144.657,22.082-12.757v1.631l14.514-8.361,4.376,2.509-4.3,2.479v.422l-30.513,17.615.963.557,29.55-17.063v.417l5.982-3.453,4.748,2.74-7.749,4.472.683.391-3.664,2.118v.627l-23.216,13.4.783.452,22.433-12.953v.652l5.521-3.192,1.114.643,7.739-4.477v-1.3l30.026-17.334V126.5l-30.026,17.334v-.788l-4.743-2.74,34.769-20.075v-1.947l-36.45,21.048-4.377-2.509,10.806-6.238v-1.425l30.026-17.335v-1.736L322.282,127.4v-1.064l-4.864-2.81,34.89-20.145Zm-55.3,25.846,10.82-6.248,4.617,2.665-5.149,2.971-5.656,3.267Zm21.615,0-10.86,6.208-4.813-2.78,4.968-2.866,5.837-3.367Z" fill="#fff"/>
        <path id="Path_139" data-name="Path 139" d="M279.392,111.789l44.41-25.64-.6-.347-44.41,25.641-.723-.417-14.624,8.442v2.368l16.677-9.63Z" fill="#fff"/>
        <path id="Path_140" data-name="Path 140" d="M272.085,107.583,316.5,81.939l-.422-.246-44.42,25.645-.9-.517-7.317,4.226v2.574l9.55-5.515Z" fill="#fff"/>
        <path id="Path_141" data-name="Path 141" d="M264.783,103.378l44.425-25.65-.236-.141-44.435,25.65-1.084-.622-.01.005v2.786l2.424-1.4Z" fill="#fff"/>
      </g>
    </g>
  </g>
</svg>
