<svg width="21" height="31" viewBox="0 0 21 31" fill="none" xmlns="http://www.w3.org/2000/svg">
<path d="M0.933594 25.7324V27.5185C0.933594 29.4382 2.49534 30.9999 4.41504 30.9999H16.585C18.5047 30.9999 20.0664 29.4382 20.0664 27.5185V25.7324H0.933594ZM9.5918 28.0938C9.5918 27.5922 9.99843 27.1856 10.5 27.1856C11.0016 27.1856 11.4082 27.5922 11.4082 28.0938V28.2149C11.4082 28.7165 11.0016 29.1231 10.5 29.1231C9.99843 29.1231 9.5918 28.7165 9.5918 28.2149V28.0938Z" fill="black"/>
<path d="M20.0667 23.916V3.48145C20.0667 1.56175 18.5049 0 16.5852 0H4.41528C2.49564 0 0.933838 1.56175 0.933838 3.48145V23.916H20.0667Z" fill="black"/>
</svg>
