<svg width="128" height="128" viewBox="0 0 128 128" fill="none" xmlns="http://www.w3.org/2000/svg">
<g clip-path="url(#clip0_758_11105)">
<path d="M123.65 16.7663H4.34975C1.9475 16.7663 0 18.7137 0 21.116V85.9587C0 88.361 1.9475 90.3085 4.34975 90.3085H123.65C126.053 90.3085 128 88.361 128 85.9587V21.116C128 18.7137 126.053 16.7663 123.65 16.7663Z" fill="black"/>
<path d="M88.8556 103.688H74.0884V97.8548H53.9114V103.688H39.1439C37.0601 103.688 35.3706 105.377 35.3706 107.461C35.3706 109.544 37.0599 111.234 39.1439 111.234H88.8556C90.9394 111.234 92.6289 109.545 92.6289 107.461C92.6289 105.377 90.9396 103.688 88.8556 103.688Z" fill="black"/>
<path d="M156.533 -28H99.4668C94.7125 -28 90.8213 -24.1125 90.8213 -19.3545V91.3509C90.8213 96.1088 94.7125 100 99.4668 100H156.533C161.287 100 165.178 96.1161 165.178 91.3545V-19.3545C165.178 -24.1125 161.287 -28 156.533 -28ZM118.872 -21.7682H137.128C137.706 -21.7682 138.174 -21.3001 138.174 -20.7186C138.174 -20.1408 137.706 -19.6727 137.128 -19.6727H118.872C118.294 -19.6727 117.826 -20.1408 117.826 -20.7186C117.826 -21.3001 118.294 -21.7682 118.872 -21.7682ZM128 95.6773C125.612 95.6773 123.677 93.7426 123.677 91.3509C123.677 88.9591 125.612 87.0281 128 87.0281C130.388 87.0281 132.323 88.9591 132.323 91.3509C132.323 93.7426 130.388 95.6773 128 95.6773ZM159.162 84H96.8373V-14.2894H159.162V84Z" fill="black"/>
</g>
<defs>
<clipPath id="clip0_758_11105">
<rect width="128" height="128" fill="white"/>
</clipPath>
</defs>
</svg>
