<svg xmlns="http://www.w3.org/2000/svg" xmlns:xlink="http://www.w3.org/1999/xlink" width="155.686" height="41.177" viewBox="0 0 155.686 41.177">
  <defs>
    <clipPath id="clip-path">
      <rect id="Rectangle_144" data-name="Rectangle 144" width="155.686" height="41.177" transform="translate(25.248 177.36)" fill="none"/>
    </clipPath>
  </defs>
  <g id="Group_96" data-name="Group 96" transform="translate(-25.248 -177.36)" opacity="0.78">
    <g id="Group_95" data-name="Group 95">
      <g id="Group_94" data-name="Group 94" clip-path="url(#clip-path)">
        <path id="Path_287" data-name="Path 287" d="M34.056,182.44a4.406,4.406,0,1,1-4.4-4.551,4.48,4.48,0,0,1,4.4,4.551" fill="#efefef"/>
        <path id="Path_288" data-name="Path 288" d="M34.056,197.949a4.406,4.406,0,1,1-4.4-4.551,4.48,4.48,0,0,1,4.4,4.551" fill="#efefef"/>
        <path id="Path_289" data-name="Path 289" d="M34.056,213.458a4.406,4.406,0,1,1-4.4-4.551,4.48,4.48,0,0,1,4.4,4.551" fill="#efefef"/>
        <path id="Path_290" data-name="Path 290" d="M49.424,197.949a4.406,4.406,0,1,1-4.4-4.551,4.48,4.48,0,0,1,4.4,4.551" fill="#efefef"/>
        <path id="Path_291" data-name="Path 291" d="M49.424,182.44a4.406,4.406,0,1,1-4.4-4.551,4.48,4.48,0,0,1,4.4,4.551" fill="#efefef"/>
        <path id="Path_292" data-name="Path 292" d="M64.791,197.949a4.406,4.406,0,1,1-4.4-4.551,4.48,4.48,0,0,1,4.4,4.551" fill="#efefef"/>
        <path id="Path_293" data-name="Path 293" d="M64.791,182.44a4.406,4.406,0,1,1-4.4-4.551,4.48,4.48,0,0,1,4.4,4.551" fill="#efefef"/>
        <path id="Path_294" data-name="Path 294" d="M64.791,213.458a4.406,4.406,0,1,1-4.4-4.551,4.48,4.48,0,0,1,4.4,4.551" fill="#efefef"/>
        <path id="Path_295" data-name="Path 295" d="M49.424,213.458a4.406,4.406,0,1,1-4.4-4.551,4.48,4.48,0,0,1,4.4,4.551" fill="#efefef"/>
        <path id="Path_296" data-name="Path 296" d="M98.374,201.6l7.892,16.311H99.588l-7.67-15.8H83.2v15.8H77.514V177.988H94.456c6.733,0,12.417,3.707,12.417,11.919,0,6.388-3.256,10.323-8.5,11.692m-3.918-17.965H83.2v12.832H94.456c3.863,0,6.567-2.053,6.567-6.387,0-4.164-2.649-6.445-6.567-6.445" fill="#efefef"/>
        <path id="Path_297" data-name="Path 297" d="M130.328,218.538c-9.988,0-16.335-8.5-16.335-20.589s6.347-20.588,16.335-20.588c10.044,0,16.39,8.5,16.39,20.588s-6.346,20.589-16.39,20.589m0-35.189c-6.732,0-10.43,5.646-10.43,14.6s3.7,14.6,10.43,14.6c6.788,0,10.485-5.646,10.485-14.6s-3.7-14.6-10.485-14.6" fill="#efefef"/>
        <path id="Path_298" data-name="Path 298" d="M166.642,218.537a17.646,17.646,0,0,1-13.741-6.445l4.139-4.163a13.92,13.92,0,0,0,10.043,4.734c5.408,0,8-1.94,8-5.818,0-3.079-2.262-4.619-8.719-6.615-8.168-2.51-12.085-4.62-12.085-11.749,0-6.9,5.628-11.121,12.747-11.121a17.032,17.032,0,0,1,12.637,5.418l-4.083,4.278a11.512,11.512,0,0,0-8.995-3.822c-4.526,0-6.457,2.282-6.457,4.962,0,2.795,1.766,4.163,8.443,6.216,7.615,2.4,12.362,4.9,12.362,12.034,0,7.186-4.415,12.091-14.293,12.091" fill="#efefef"/>
      </g>
    </g>
  </g>
</svg>
