<svg width="48" height="40" viewBox="0 0 48 40" fill="none" xmlns="http://www.w3.org/2000/svg">
<path d="M11.4847 22.6954L16.6422 36.9232C16.6422 36.9232 17.2869 38.2523 17.9758 38.2523C18.6646 38.2523 28.9353 27.6044 28.9353 27.6044L40.3554 5.61835L11.6689 19.0237L11.4847 22.6954Z" fill="#C8DAEA"/>
<path d="M18.3256 26.345L17.3346 36.8314C17.3346 36.8314 16.922 40.0441 20.1417 36.8314C23.3615 33.6186 26.4486 31.1403 26.4486 31.1403" fill="#A9C6D8"/>
<path d="M11.5806 23.2021L0.970954 19.7581C0.970954 19.7581 -0.296305 19.2441 0.112607 18.0838C0.197336 17.8451 0.366796 17.6395 0.871489 17.287C3.22181 15.6531 44.3819 0.911314 44.3819 0.911314C44.3819 0.911314 45.5461 0.522115 46.2313 0.779133C46.5444 0.896627 46.747 1.03248 46.9128 1.52081C46.9754 1.69706 47.0086 2.07891 47.0049 2.45342C47.0049 2.72513 46.968 2.9748 46.9422 3.37135C46.6917 7.40286 39.1913 37.4887 39.1913 37.4887C39.1913 37.4887 38.7419 39.2474 37.1357 39.3098C36.55 39.3319 35.839 39.2144 34.988 38.4837C31.8309 35.7777 20.9266 28.471 18.5173 26.8665C18.381 26.7747 18.3442 26.6572 18.3184 26.5434C18.2852 26.3745 18.4694 26.1652 18.4694 26.1652C18.4694 26.1652 37.4599 9.34151 37.9646 7.57543C38.0051 7.43958 37.8578 7.36981 37.6588 7.42856C36.3989 7.89119 14.5314 21.6527 12.1184 23.1728C11.9784 23.2609 11.5806 23.2058 11.5806 23.2058V23.2021Z" fill="white"/>
</svg>
