<svg xmlns="http://www.w3.org/2000/svg" viewBox="0 0 141.84 130.96"><defs><style>.cls-1,.cls-6{fill:none;}.cls-1,.cls-2,.cls-4,.cls-5,.cls-6{stroke:#000;}.cls-1,.cls-2,.cls-4,.cls-5{stroke-miterlimit:10;stroke-width:0.75px;}.cls-2{fill:#03a5ed;}.cls-3{fill:#0d0c0d;}.cls-4{fill:#ccc;}.cls-5{fill:#fbb03b;}.cls-6{stroke-linecap:round;stroke-linejoin:round;stroke-width:0.5px;}</style></defs><g id="Layer_2" data-name="Layer 2"><g id="pic"><polyline class="cls-1" points="49.08 47.15 49.08 35.54 39.69 26.15 39.69 1.86"/><line class="cls-1" x1="104.14" y1="75.2" x2="117.84" y2="75.2"/><polyline class="cls-1" points="55.08 44.15 55.08 25.14 52.87 22.92 52.87 11.82"/><line class="cls-1" x1="61.08" y1="45.14" x2="61.08" y2="19.44"/><polyline class="cls-1" points="67.08 45.14 67.08 33.46 64.82 31.2 64.82 24.96"/><line class="cls-1" x1="73.09" y1="45.14" x2="73.09" y2="33.46"/><line class="cls-1" x1="79.09" y1="45.14" x2="79.09" y2="33.46"/><line class="cls-1" x1="85.09" y1="45.14" x2="85.09" y2="33.46"/><line class="cls-1" x1="104.14" y1="69.2" x2="114.08" y2="69.2"/><line class="cls-1" x1="104.14" y1="81.24" x2="114.08" y2="81.24"/><line class="cls-1" x1="104.14" y1="93.28" x2="124.72" y2="93.28"/><line class="cls-1" x1="104.14" y1="99.2" x2="114.08" y2="99.2"/><polyline class="cls-1" points="104.14 87.16 119.53 87.16 131.71 74.97 140.55 74.97"/><rect x="95.66" y="103.24" width="2.87" height="6.02" transform="translate(194.18 212.49) rotate(180)"/><rect x="89.66" y="103.24" width="2.87" height="6.02" transform="translate(182.18 212.49) rotate(180)"/><rect x="83.66" y="103.24" width="2.87" height="6.02" transform="translate(170.18 212.49) rotate(180)"/><rect x="77.65" y="103.24" width="2.87" height="6.02" transform="translate(158.17 212.49) rotate(180)"/><rect x="71.65" y="103.24" width="2.87" height="6.02" transform="translate(146.17 212.49) rotate(180)"/><rect x="65.65" y="103.24" width="2.87" height="6.02" transform="translate(134.17 212.49) rotate(180)"/><rect x="59.65" y="103.24" width="2.87" height="6.02" transform="translate(122.17 212.49) rotate(180)"/><rect x="53.65" y="103.24" width="2.87" height="6.02" transform="translate(110.16 212.49) rotate(180)"/><rect x="47.65" y="103.24" width="2.87" height="6.02" transform="translate(98.16 212.49) rotate(180)"/><rect x="83.66" y="41.14" width="2.87" height="6.02" transform="translate(170.18 88.29) rotate(180)"/><rect x="77.65" y="41.14" width="2.87" height="6.02" transform="translate(158.17 88.29) rotate(180)"/><rect x="71.65" y="41.14" width="2.87" height="6.02" transform="translate(146.17 88.29) rotate(180)"/><rect x="65.65" y="41.14" width="2.87" height="6.02" transform="translate(134.17 88.29) rotate(180)"/><rect x="59.65" y="41.14" width="2.87" height="6.02" transform="translate(122.17 88.29) rotate(180)"/><rect x="53.65" y="41.14" width="2.87" height="6.02" transform="translate(110.16 88.29) rotate(180)"/><rect x="47.65" y="41.14" width="2.87" height="6.02" transform="translate(98.16 88.29) rotate(180)"/><rect x="40.6" y="96.19" width="2.87" height="6.02" transform="translate(-57.17 141.24) rotate(-90)"/><rect x="40.6" y="90.19" width="2.87" height="6.02" transform="translate(-51.17 135.24) rotate(-90)"/><rect x="40.6" y="84.19" width="2.87" height="6.02" transform="translate(-45.16 129.24) rotate(-90)"/><rect x="40.6" y="78.19" width="2.87" height="6.02" transform="translate(-39.16 123.23) rotate(-90)"/><rect x="40.6" y="72.19" width="2.87" height="6.02" transform="translate(-33.16 117.23) rotate(-90)"/><rect x="40.6" y="66.19" width="2.87" height="6.02" transform="translate(-27.16 111.23) rotate(-90)"/><rect x="40.6" y="60.19" width="2.87" height="6.02" transform="translate(-21.16 105.23) rotate(-90)"/><rect x="40.6" y="54.18" width="2.87" height="6.02" transform="translate(-15.16 99.23) rotate(-90)"/><rect x="40.6" y="48.18" width="2.87" height="6.02" transform="translate(-9.16 93.23) rotate(-90)"/><rect x="102.7" y="96.19" width="2.87" height="6.02" transform="translate(4.93 203.34) rotate(-90)"/><rect x="102.7" y="90.19" width="2.87" height="6.02" transform="translate(10.93 197.34) rotate(-90)"/><rect x="102.7" y="84.19" width="2.87" height="6.02" transform="translate(16.94 191.34) rotate(-90)"/><rect x="102.7" y="78.19" width="2.87" height="6.02" transform="translate(22.94 185.33) rotate(-90)"/><rect x="102.7" y="72.19" width="2.87" height="6.02" transform="translate(28.94 179.33) rotate(-90)"/><rect x="102.7" y="66.19" width="2.87" height="6.02" transform="translate(34.94 173.33) rotate(-90)"/><rect x="102.7" y="60.19" width="2.87" height="6.02" transform="translate(40.94 167.33) rotate(-90)"/><rect class="cls-2" x="45.04" y="47.15" width="56.08" height="56.08" rx="3.98" transform="translate(146.17 150.39) rotate(180)"/><polyline class="cls-1" points="104.14 63.19 120.62 63.19 136.72 47.09"/><polyline class="cls-1" points="42.03 63.19 24.96 63.19 20.92 59.16 1.44 59.16"/><polyline class="cls-1" points="42.03 57.16 24.96 57.16 20.92 53.13 15.37 53.13"/><polyline class="cls-1" points="42.57 51.13 35.7 51.13 31.66 47.09 26.11 47.09"/><line class="cls-1" x1="79.09" y1="106.25" x2="79.09" y2="125.86"/><line class="cls-1" x1="91.09" y1="106.25" x2="91.09" y2="125.86"/><circle cx="34.5" cy="77.49" r="1.19"/><circle cx="137.42" cy="54.86" r="1.19"/><circle cx="140.66" cy="58.11" r="1.19"/><circle cx="134.1" cy="58.18" r="1.19"/><circle cx="137.34" cy="61.43" r="1.19"/><circle cx="127.88" cy="64.4" r="1.19"/><circle cx="131.12" cy="67.65" r="1.19"/><circle cx="124.56" cy="67.72" r="1.19"/><circle cx="127.8" cy="70.97" r="1.19"/><circle cx="34.5" cy="68.46" r="1.19"/><circle cx="30.61" cy="77.49" r="1.19"/><circle cx="30.61" cy="71.89" r="1.19"/><circle class="cls-1" cx="120.35" cy="75.26" r="2.36"/><circle class="cls-1" cx="91.09" cy="128.22" r="2.36"/><circle class="cls-1" cx="115.98" cy="81.2" r="2.36"/><circle class="cls-1" cx="52.87" cy="9.46" r="2.36"/><circle class="cls-3" cx="79.09" cy="125.86" r="1.44"/><circle class="cls-3" cx="26.11" cy="47.1" r="1.44"/><circle class="cls-3" cx="15.37" cy="53.13" r="1.44"/><circle class="cls-3" cx="1.44" cy="59.16" r="1.44"/><circle class="cls-3" cx="113.62" cy="69.21" r="1.44"/><circle class="cls-3" cx="124.72" cy="93.28" r="1.44"/><circle class="cls-3" cx="114.08" cy="99.2" r="1.44"/><circle class="cls-3" cx="64.82" cy="24.96" r="1.44"/><circle class="cls-3" cx="61.08" cy="19.44" r="1.44"/><circle class="cls-3" cx="39.69" cy="1.44" r="1.44"/><circle class="cls-3" cx="79.08" cy="33.46" r="1.44"/><circle class="cls-3" cx="85.08" cy="33.46" r="1.44"/><circle class="cls-3" cx="73.09" cy="33.46" r="1.44"/><path class="cls-4" d="M110.17,49.94l3.44-.36a11.81,11.81,0,0,0,0-1.19L110.17,48q0-.31-.09-.63a6.39,6.39,0,0,0-.13-.63l3.1-1.52a10.46,10.46,0,0,0-.4-1.11L109.3,45a9.27,9.27,0,0,0-.64-1.1l2.4-2.49a11.06,11.06,0,0,0-.77-.9l-2.86,1.92a10.8,10.8,0,0,0-1-.81l1.4-3.16c-.33-.22-.67-.41-1-.6l-2,2.8a8.63,8.63,0,0,0-1.2-.44l.23-3.45a11.27,11.27,0,0,0-1.16-.21l-1,3.33a9,9,0,0,0-1.27,0l-1-3.32-.59.09-.57.11.23,3.45a10.13,10.13,0,0,0-1.2.44l-2-2.8a11.48,11.48,0,0,0-1,.59l1.41,3.16a9.89,9.89,0,0,0-1,.82l-2.87-1.92c-.26.29-.52.59-.76.9l2.4,2.49A11,11,0,0,0,92.85,45l-3.35-.84c-.15.37-.29.74-.41,1.12l3.11,1.51A8.73,8.73,0,0,0,92,48l-3.44.36a11.81,11.81,0,0,0,0,1.19l3.44.36q0,.31.09.63a6.39,6.39,0,0,0,.13.63l-3.1,1.52c.12.38.25.75.4,1.11L92.86,53a9.2,9.2,0,0,0,.63,1.1L91.1,56.59a9.28,9.28,0,0,0,.76.9l2.86-1.92a10.8,10.8,0,0,0,1,.81l-1.4,3.16a10.38,10.38,0,0,0,1,.59l2-2.79a8.06,8.06,0,0,0,1.19.44l-.23,3.45a11.24,11.24,0,0,0,1.16.2l1-3.32a9,9,0,0,0,1.27,0l1,3.32c.2,0,.39,0,.59-.09l.58-.12-.24-3.44a10.13,10.13,0,0,0,1.2-.44l2,2.8a11.48,11.48,0,0,0,1-.59l-1.41-3.17a8.61,8.61,0,0,0,1-.81l2.87,1.92c.26-.29.52-.59.76-.9l-2.4-2.49A9.4,9.4,0,0,0,109.3,53l3.35.84c.15-.37.29-.74.41-1.12L110,51.2A8.73,8.73,0,0,0,110.17,49.94ZM94.61,51.79a7.25,7.25,0,0,1-.57-2.6,7.05,7.05,0,0,1,5.87-7.1l.08,4a3.15,3.15,0,0,0-2.08,3.05,3.2,3.2,0,0,0,.07.63Zm6.62,4.27a7,7,0,0,1-5.56-2.53l3.38-2.07a3.15,3.15,0,0,0,4.16-.09l3.47,1.91A7,7,0,0,1,101.23,56.06Zm6.43-4.56-3.46-1.91a3.22,3.22,0,0,0,0-.63A3.18,3.18,0,0,0,102,46l-.09-4a7,7,0,0,1,6.17,6.82A6.93,6.93,0,0,1,107.66,51.5Z"/><path class="cls-5" d="M102.59,49A1.51,1.51,0,1,1,101,47.52,1.51,1.51,0,0,1,102.59,49Z"/><path class="cls-4" d="M55,101.6l3.43-.37a11.61,11.61,0,0,0,0-1.18L55,99.68c0-.21-.05-.42-.09-.63s-.09-.42-.14-.62l3.11-1.52c-.12-.38-.25-.75-.4-1.11l-3.36.83a8.54,8.54,0,0,0-.64-1.1L55.84,93a11.1,11.1,0,0,0-.76-.91l-2.87,1.93a9.55,9.55,0,0,0-1-.82l1.4-3.16a11.48,11.48,0,0,0-1-.59l-2,2.79a10.07,10.07,0,0,0-1.2-.43l.24-3.45a11,11,0,0,0-1.17-.21l-1,3.33a9.11,9.11,0,0,0-1.28,0l-.95-3.32-.59.08-.58.12.24,3.45a9,9,0,0,0-1.2.43l-2-2.79c-.35.18-.69.38-1,.59l1.4,3.16a9.55,9.55,0,0,0-1,.82l-2.87-1.93c-.27.29-.52.6-.76.91l2.4,2.49a9.27,9.27,0,0,0-.64,1.1l-3.35-.83a10.51,10.51,0,0,0-.41,1.11L37,98.43a10.36,10.36,0,0,0-.22,1.26l-3.43.36a11.61,11.61,0,0,0,0,1.18l3.44.37c0,.21,0,.42.08.63s.09.42.14.62l-3.11,1.52a11.57,11.57,0,0,0,.41,1.12l3.35-.84a8.66,8.66,0,0,0,.64,1.11l-2.4,2.49c.24.31.49.61.76.9l2.87-1.93a8.51,8.51,0,0,0,1,.82l-1.41,3.16c.33.21.68.41,1,.59l2-2.79a10.13,10.13,0,0,0,1.2.44l-.24,3.45c.39.08.77.15,1.17.2l.95-3.32a9.11,9.11,0,0,0,1.28,0l1,3.32L48,113l.58-.12-.24-3.45a7.75,7.75,0,0,0,1.2-.43l2,2.79c.35-.18.69-.38,1-.59L51.24,108a9.46,9.46,0,0,0,1-.82l2.86,1.93a11.1,11.1,0,0,0,.76-.91l-2.4-2.49a9.27,9.27,0,0,0,.64-1.1l3.36.83c.15-.36.28-.73.4-1.11l-3.1-1.52A10.54,10.54,0,0,0,55,101.6Zm-15.57,1.85a7,7,0,0,1,5.3-9.7l.09,4a3.17,3.17,0,0,0-2.09,3.05,3.4,3.4,0,0,0,.08.63ZM46,107.72a7,7,0,0,1-5.56-2.54l3.37-2.06A3.16,3.16,0,0,0,48,103l3.46,1.91A7,7,0,0,1,46,107.72Zm6.43-4.56L49,101.25a3.39,3.39,0,0,0,0-.64,3.17,3.17,0,0,0-2.22-3l-.09-4a7,7,0,0,1,6.18,6.83A7,7,0,0,1,52.45,103.16Z"/><path class="cls-5" d="M47.38,100.65a1.52,1.52,0,1,1-1.55-1.48A1.52,1.52,0,0,1,47.38,100.65Z"/><polyline class="cls-6" points="87.94 64.21 90.76 67.03 90.76 69.05 93.12 71.41 93.2 76.75 95.67 78.66 95.67 83.04 94.16 84.8 94.08 87.62 89.22 92.49 89.22 94.44 85.15 99.22 77.19 99.22 74.48 96.5 74.59 64.25 74.48 53.75 77.07 51.4 81.01 51.4 87.94 58.33 87.94 64.21"/><polyline class="cls-6" points="79.17 93.01 79.17 80.57 74.64 76.04"/><polyline class="cls-6" points="74.57 91.57 79.66 96.66 82.33 93.99 80.81 92.47"/><rect x="80.33" y="92" width="0.99" height="0.99" transform="translate(-41.73 84.24) rotate(-45)"/><line class="cls-6" x1="79.87" y1="93.87" x2="77.1" y2="91.1"/><rect x="79.36" y="93.36" width="0.99" height="0.99" transform="translate(-42.98 83.96) rotate(-45)"/><rect x="76.62" y="90.62" width="0.99" height="0.99" transform="translate(-41.84 81.22) rotate(-45)"/><polyline class="cls-6" points="75.78 81.1 75.78 88.76 76.88 89.86 76.88 81.65 77.99 81.65 77.99 92.11"/><rect x="75.29" y="80.63" width="0.99" height="0.99"/><line class="cls-6" x1="74.48" y1="94.21" x2="77.28" y2="97"/><rect x="76.77" y="96.49" width="0.99" height="0.99" transform="translate(-45.95 83.04) rotate(-45)"/><polyline class="cls-6" points="83.16 95.6 80.98 97.78 83.85 97.78 89.98 91.65"/><rect x="82.65" y="95.12" width="0.99" height="0.99" transform="translate(-43.26 86.8) rotate(-45)"/><polyline class="cls-6" points="85.07 88.11 85.07 86.67 80.57 82.36 80.57 90.5 84.36 94.29 92.5 86.16 92.5 83.02 94.24 81.27 93.51 80.54 91.3 82.75 91.3 85.41 84.53 92.18 82.03 89.69 82.03 85.11 83.63 86.71 83.63 88.17"/><rect x="84.58" y="87.59" width="0.99" height="0.99"/><rect x="83.13" y="87.65" width="0.99" height="0.99"/><polyline class="cls-6" points="86.57 86.76 80.59 80.78 80.59 75.54"/><rect x="86.06" y="86.24" width="0.99" height="0.99" transform="translate(-35.98 86.61) rotate(-45)"/><rect x="80.1" y="75.07" width="0.99" height="0.99"/><polyline class="cls-6" points="78.54 74.17 78.54 76.15 76.88 76.15 76.88 72.26 79.17 72.26 81.59 74.68 81.59 80.15 86.58 85.14 89.98 85.14 89.98 81.47 94.06 77.38"/><rect x="78.04" y="73.7" width="0.99" height="0.99"/><polyline class="cls-6" points="92.64 71 89.71 73.94 89.71 71.56 88.49 70.34 82.85 75.98 82.85 79.02 86.67 82.84 86.67 77.76 87.17 77.25 87.17 75.84"/><rect x="86.68" y="75.37" width="0.99" height="0.99"/><polyline class="cls-6" points="93.18 72.38 88.72 76.67 88.72 72.26 84.38 76.6 84.38 78.7 85.6 79.92 85.6 77.57"/><rect x="85.1" y="77.1" width="0.99" height="0.99"/><polyline class="cls-6" points="93.2 76.75 88.98 80.77 88.98 85.14"/><polyline class="cls-6" points="87.66 83.39 87.66 79.92 93.22 74.36"/><rect x="87.16" y="82.87" width="0.99" height="0.99"/><polyline class="cls-6" points="74.64 72.07 78.9 67.81 82.98 71.89 87.39 67.48 83.7 63.8 81.55 65.96 83.68 68.09 84.52 67.26 83.8 66.54"/><rect x="83.32" y="66.06" width="0.99" height="0.99" transform="translate(-22.51 78.76) rotate(-45)"/><polyline class="cls-6" points="78.21 70.67 79.09 69.79 83.07 73.77 89.36 67.48 84.1 62.23"/><rect x="77.73" y="70.16" width="0.99" height="0.99" transform="translate(-27.05 76.01) rotate(-45)"/><polyline class="cls-6" points="86.78 57.14 86.78 61.14 82.36 61.14 82.36 58.87 80.2 56.71 77.54 56.71"/><rect x="77.07" y="56.21" width="0.99" height="0.99"/><polyline class="cls-6" points="85.75 56.14 85.75 59.77 83.38 59.77 83.38 57.93 80.47 55.02 77.67 55.02"/><rect x="77.19" y="54.53" width="0.99" height="0.99"/><polyline class="cls-6" points="77.48 58.45 79.17 58.45 79.17 60.54 74.55 64.92"/><rect x="77.01" y="57.96" width="0.99" height="0.99"/><polyline class="cls-6" points="74.6 62.81 77.61 59.8 75.78 59.8 75.78 54.3 77.02 52.89 80.78 52.89 84.24 56.35 84.24 57.26"/><rect x="83.74" y="56.74" width="0.99" height="0.99"/><polyline class="cls-6" points="74.58 68.84 81.12 62.3 86.01 62.3 88.14 64.43"/><polyline class="cls-6" points="81.12 62.3 81.12 59.35 80.33 59.35 80.33 61.38 77.03 64.67"/><rect x="76.56" y="64.16" width="0.99" height="0.99" transform="translate(-23.15 73.42) rotate(-45)"/><polyline class="cls-6" points="60.08 64.21 57.27 67.03 57.27 69.05 54.91 71.41 54.82 76.75 52.35 78.66 52.35 83.04 53.87 84.8 53.95 87.62 58.81 92.49 58.81 94.44 62.87 99.22 70.83 99.22 73.55 96.5 73.43 64.25 73.55 53.75 70.95 51.4 67.02 51.4 60.08 58.33 60.08 64.21"/><polyline class="cls-6" points="68.85 93.01 68.85 80.57 73.38 76.04"/><polyline class="cls-6" points="73.45 91.57 68.36 96.66 65.69 93.99 67.22 92.47"/><rect x="66.7" y="92" width="0.99" height="0.99" transform="translate(-45.72 74.61) rotate(-45)"/><line class="cls-6" x1="68.15" y1="93.87" x2="70.92" y2="91.1"/><rect x="67.67" y="93.36" width="0.99" height="0.99" transform="translate(-46.4 75.69) rotate(-45)"/><rect x="70.41" y="90.62" width="0.99" height="0.99" transform="translate(-43.66 76.82) rotate(-45)"/><polyline class="cls-6" points="72.24 81.1 72.24 88.76 71.15 89.86 71.15 81.65 70.03 81.65 70.03 92.11"/><rect x="71.74" y="80.63" width="0.99" height="0.99"/><line class="cls-6" x1="73.54" y1="94.21" x2="70.74" y2="97"/><rect x="70.26" y="96.49" width="0.99" height="0.99" transform="translate(-47.85 78.44) rotate(-45)"/><polyline class="cls-6" points="64.86 95.6 67.04 97.78 64.17 97.78 58.04 91.65"/><rect x="64.38" y="95.12" width="0.99" height="0.99" transform="translate(-48.61 73.88) rotate(-45)"/><polyline class="cls-6" points="62.95 88.11 62.95 86.67 67.46 82.36 67.46 90.5 63.66 94.29 55.53 86.16 55.53 83.02 53.78 81.27 54.51 80.54 56.73 82.75 56.73 85.41 63.5 92.18 65.99 89.69 65.99 85.11 64.39 86.71 64.39 88.17"/><rect x="62.45" y="87.59" width="0.99" height="0.99"/><rect x="63.9" y="87.65" width="0.99" height="0.99"/><polyline class="cls-6" points="61.45 86.76 67.43 80.78 67.43 75.54"/><rect x="60.98" y="86.24" width="0.99" height="0.99" transform="translate(-43.33 68.87) rotate(-45)"/><rect x="66.93" y="75.07" width="0.99" height="0.99"/><polyline class="cls-6" points="69.48 74.17 69.48 76.15 71.14 76.15 71.14 72.26 68.85 72.26 66.43 74.68 66.43 80.15 61.44 85.14 58.04 85.14 58.04 81.47 53.96 77.38"/><rect x="68.99" y="73.7" width="0.99" height="0.99"/><polyline class="cls-6" points="55.38 71 58.31 73.94 58.31 71.56 59.53 70.34 65.17 75.98 65.17 79.02 61.35 82.84 61.35 77.76 60.85 77.25 60.85 75.84"/><rect x="60.35" y="75.37" width="0.99" height="0.99"/><polyline class="cls-6" points="54.84 72.38 59.31 76.67 59.31 72.26 63.65 76.6 63.65 78.7 62.43 79.92 62.43 77.57"/><rect x="61.93" y="77.1" width="0.99" height="0.99"/><polyline class="cls-6" points="54.82 76.75 59.04 80.77 59.04 85.14"/><polyline class="cls-6" points="60.37 83.39 60.37 79.92 54.8 74.36"/><rect x="59.87" y="82.87" width="0.99" height="0.99"/><polyline class="cls-6" points="73.38 72.07 69.12 67.81 65.04 71.89 60.63 67.48 64.32 63.8 66.47 65.96 64.34 68.09 63.51 67.26 64.23 66.54"/><rect x="63.71" y="66.06" width="0.99" height="0.99" transform="translate(-28.26 64.9) rotate(-45)"/><polyline class="cls-6" points="69.81 70.67 68.93 69.79 64.95 73.77 58.66 67.48 63.92 62.23"/><rect x="69.3" y="70.16" width="0.99" height="0.99" transform="translate(-29.52 70.05) rotate(-45)"/><polyline class="cls-6" points="61.24 57.14 61.24 61.14 65.66 61.14 65.66 58.87 67.83 56.71 70.48 56.71"/><rect x="69.96" y="56.21" width="0.99" height="0.99"/><polyline class="cls-6" points="62.27 56.14 62.27 59.77 64.65 59.77 64.65 57.93 67.56 55.02 70.36 55.02"/><rect x="69.84" y="54.53" width="0.99" height="0.99"/><polyline class="cls-6" points="70.54 58.45 68.85 58.45 68.85 60.54 73.47 64.92"/><rect x="70.02" y="57.96" width="0.99" height="0.99"/><polyline class="cls-6" points="73.42 62.81 70.41 59.8 72.24 59.8 72.24 54.3 71 52.89 67.25 52.89 63.78 56.35 63.78 57.26"/><rect x="63.29" y="56.74" width="0.99" height="0.99"/><polyline class="cls-6" points="73.44 68.84 66.9 62.3 62.02 62.3 59.88 64.43"/><polyline class="cls-6" points="66.9 62.3 66.9 59.35 67.7 59.35 67.7 61.38 70.99 64.67"/><rect x="70.48" y="64.16" width="0.99" height="0.99" transform="translate(-24.93 69.12) rotate(-45)"/></g></g></svg>