<svg xmlns="http://www.w3.org/2000/svg" viewBox="0 0 147.15 120.4"><defs><style>.cls-1,.cls-17,.cls-2,.cls-20,.cls-24,.cls-4,.cls-5{fill:none;}.cls-1,.cls-2{stroke:#1d1d1b;}.cls-1,.cls-20,.cls-21,.cls-24,.cls-4{stroke-miterlimit:10;}.cls-1,.cls-17,.cls-18,.cls-19,.cls-2,.cls-20,.cls-21,.cls-24,.cls-25,.cls-3,.cls-4,.cls-5,.cls-8{stroke-width:0.5px;}.cls-17,.cls-18,.cls-19,.cls-2,.cls-25,.cls-3,.cls-5,.cls-8{stroke-linecap:round;stroke-linejoin:round;}.cls-3{fill:#b5c0f1;}.cls-17,.cls-18,.cls-19,.cls-20,.cls-21,.cls-25,.cls-3{stroke:#000;}.cls-4,.cls-5{stroke:#b2c1f3;}.cls-6{fill:#333744;}.cls-7{fill:#e9510e;}.cls-14,.cls-21,.cls-8{fill:#fff;}.cls-8{stroke:#1d1e1c;}.cls-9{fill:#282b38;}.cls-10{fill:#62687c;}.cls-11{fill:#f4d242;}.cls-12{fill:#1d1d1b;}.cls-13{fill:#808183;}.cls-15{fill:#08aed6;}.cls-16{fill:#cc2f88;}.cls-18{fill:#ccf4ff;}.cls-19{fill:#4f5976;}.cls-22{fill:#0d0c0d;}.cls-23{fill:#535974;}.cls-24{stroke:#7a84aa;stroke-dasharray:3 2;}.cls-25{fill:#5c6daa;}</style></defs><g id="Layer_2" data-name="Layer 2"><g id="pic"><circle class="cls-1" cx="74.45" cy="35.41" r="2.31"/><path class="cls-2" d="M61.83,28.39a14.63,14.63,0,0,1,2.41-3.19,14.46,14.46,0,0,1,20.42,0,14.63,14.63,0,0,1,2.41,3.19"/><path class="cls-2" d="M64.29,30.85a11.14,11.14,0,0,1,20.32,0"/><path class="cls-2" d="M66.87,33.43a7.83,7.83,0,0,1,15.16,0"/><line class="cls-2" x1="74.58" y1="41.18" x2="74.58" y2="67.43"/><polygon class="cls-3" points="112.65 81.02 74.45 49.99 36.25 81.02 45.85 81.02 45.85 119.26 103.05 119.26 103.05 81.02 112.65 81.02"/><circle class="cls-4" cx="10.32" cy="42.49" r="0.82"/><path class="cls-5" d="M5.84,40a5.1,5.1,0,0,1,9,0"/><path class="cls-5" d="M6.71,40.87a3.89,3.89,0,0,1,.81-1.18,4,4,0,0,1,5.59,0,3.89,3.89,0,0,1,.81,1.18"/><path class="cls-5" d="M7.63,41.78a2.77,2.77,0,0,1,4.65-1.26A2.7,2.7,0,0,1,13,41.78"/><line class="cls-5" x1="10.36" y1="44.53" x2="10.36" y2="53.85"/><path class="cls-6" d="M10.26,55.72h0c-.32,0-.87-.26-.87-.58l.29-5.67a.58.58,0,0,1,.58-.58h0a.58.58,0,0,1,.58.58l.29,5.67C11.13,55.46,10.58,55.72,10.26,55.72Z"/><path class="cls-7" d="M10.09,68.06h0c.32,0,.88.35.88.77l-.29,7.51a.7.7,0,0,1-.59.76h0a.69.69,0,0,1-.58-.76l-.29-7.51C9.22,68.41,9.77,68.06,10.09,68.06Z"/><path class="cls-7" d="M12.57,66.41h0c.32,0,.88.35.88.77l-.29,7.5a.7.7,0,0,1-.59.77h0c-.32,0-.58-.34-.58-.77l-.29-7.5C11.7,66.76,12.25,66.41,12.57,66.41Z"/><path class="cls-7" d="M7.62,66.41h0c.31,0,.87.35.87.77l-.29,7.5a.7.7,0,0,1-.58.77h0A.7.7,0,0,1,7,74.68l-.29-7.5C6.74,66.76,7.3,66.41,7.62,66.41Z"/><circle class="cls-8" cx="10.26" cy="63.17" r="8.57"/><rect class="cls-9" y="62.34" width="1.81" height="1.66" rx="0.4" transform="translate(1.81 126.34) rotate(-180)"/><rect class="cls-10" x="0.9" y="61.29" width="1.81" height="3.77" rx="0.44" transform="translate(3.62 126.34) rotate(180)"/><rect class="cls-9" x="18.73" y="62.34" width="1.81" height="1.66" rx="0.4"/><rect class="cls-10" x="17.82" y="61.29" width="1.81" height="3.77" rx="0.44"/><path d="M11.93,64.94H8.56a.09.09,0,0,1-.09-.09V61.49a.09.09,0,0,1,.09-.09h3.37a.09.09,0,0,1,.08.09v3.36A.09.09,0,0,1,11.93,64.94Zm-3.29-.17h3.2v-3.2H8.64Z"/><path d="M10.24,64.35a.09.09,0,0,1-.06,0L9.09,63.23a.09.09,0,0,1,0-.12L10.18,62a.07.07,0,0,1,.12,0l1.09,1.09a.08.08,0,0,1,0,.12L10.3,64.32A.07.07,0,0,1,10.24,64.35Zm-1-1.18,1,1,1-1-1-1Z"/><path d="M13.5,60.41a.5.5,0,0,1-.5-.5.51.51,0,1,1,1,0A.5.5,0,0,1,13.5,60.41Zm0-.84a.34.34,0,1,0,.34.34A.34.34,0,0,0,13.5,59.57Z"/><path d="M11.93,61.57l-.06,0a.07.07,0,0,1,0-.12l1.28-1.29a.08.08,0,0,1,.12.12L12,61.55Z"/><path d="M7,60.41a.5.5,0,0,1-.51-.5.51.51,0,1,1,1,0A.5.5,0,0,1,7,60.41Zm0-.84a.34.34,0,1,0,0,.67.34.34,0,0,0,0-.67Z"/><path d="M8.59,61.57l-.06,0L7.25,60.26a.08.08,0,0,1,.12-.12l1.28,1.29a.07.07,0,0,1,0,.12Z"/><path d="M13.5,66.94a.51.51,0,0,1-.5-.51.51.51,0,0,1,1,0A.51.51,0,0,1,13.5,66.94Zm0-.84a.34.34,0,0,0,0,.67.34.34,0,1,0,0-.67Z"/><path d="M13.21,66.22l-.06,0-1.28-1.29a.07.07,0,0,1,0-.12.09.09,0,0,1,.12,0l1.28,1.29a.09.09,0,0,1,0,.12Z"/><path d="M7,66.94a.51.51,0,0,1-.51-.51.51.51,0,0,1,1,0A.51.51,0,0,1,7,66.94Zm0-.84a.34.34,0,1,0,.33.33A.34.34,0,0,0,7,66.1Z"/><path d="M7.31,66.22l-.06,0a.09.09,0,0,1,0-.12l1.28-1.29a.09.09,0,0,1,.12,0,.07.07,0,0,1,0,.12L7.37,66.2Z"/><path d="M9.54,60.64l0,0a.08.08,0,0,1,0-.12,1.08,1.08,0,0,1,.86-.42,1.1,1.1,0,0,1,.83.38.09.09,0,0,1,0,.12.08.08,0,0,1-.12,0,.94.94,0,0,0-.7-.32.91.91,0,0,0-.72.35A.09.09,0,0,1,9.54,60.64Z"/><path d="M9.18,60.32l0,0a.08.08,0,0,1,0-.12,1.54,1.54,0,0,1,2.39-.06.09.09,0,1,1-.13.11,1.38,1.38,0,0,0-2.13.05A.1.1,0,0,1,9.18,60.32Z"/><path d="M7.67,64.06l0,0a1.09,1.09,0,0,1,0-1.69.09.09,0,0,1,.12,0,.08.08,0,0,1,0,.12.94.94,0,0,0-.32.7.9.9,0,0,0,.36.72.09.09,0,0,1,0,.12A.08.08,0,0,1,7.67,64.06Z"/><path d="M7.35,64.41s0,0,0,0A1.56,1.56,0,0,1,7.24,62a.09.09,0,0,1,.13,0,.09.09,0,0,1,0,.12,1.35,1.35,0,0,0-.48,1,1.38,1.38,0,0,0,.52,1.09.08.08,0,0,1,0,.12A.09.09,0,0,1,7.35,64.41Z"/><path d="M10.3,66.31a1.1,1.1,0,0,1-.83-.38.09.09,0,0,1,0-.12.08.08,0,0,1,.12,0,.94.94,0,0,0,.7.32.91.91,0,0,0,.73-.36.09.09,0,0,1,.13.11A1.08,1.08,0,0,1,10.3,66.31Z"/><path d="M10.3,66.81a1.55,1.55,0,0,1-1.18-.54.09.09,0,0,1,.13-.12,1.35,1.35,0,0,0,1.05.48,1.37,1.37,0,0,0,1.08-.52.08.08,0,0,1,.12,0,.09.09,0,0,1,0,.12A1.56,1.56,0,0,1,10.3,66.81Z"/><path d="M13,64.06a.09.09,0,0,1-.06,0,.08.08,0,0,1,0-.12.93.93,0,0,0,0-1.43.08.08,0,0,1,0-.12.09.09,0,0,1,.12,0,1.08,1.08,0,0,1,.42.86,1.1,1.1,0,0,1-.38.83Z"/><path d="M13.33,64.41a.07.07,0,0,1-.06,0,.08.08,0,0,1,0-.12,1.38,1.38,0,0,0,0-2.13.08.08,0,1,1,.1-.13,1.54,1.54,0,0,1,.06,2.39Z"/><circle class="cls-4" cx="107.05" cy="11.49" r="0.82"/><path class="cls-5" d="M102.57,9a5.37,5.37,0,0,1,.86-1.13,5.12,5.12,0,0,1,7.24,0A5.37,5.37,0,0,1,111.53,9"/><path class="cls-5" d="M103.45,9.87a4,4,0,0,1,7.21,0"/><path class="cls-5" d="M104.36,10.79a2.78,2.78,0,0,1,5.38,0"/><line class="cls-5" x1="107.1" y1="13.54" x2="107.1" y2="22.86"/><path class="cls-11" d="M114.28,26.76a7.23,7.23,0,1,0-12.35,5.1,8.25,8.25,0,0,1,2.13,3.65l.58,2.15h4.74l.55-2a8.18,8.18,0,0,1,2.19-3.71A7.2,7.2,0,0,0,114.28,26.76Z"/><path class="cls-12" d="M108.15,40.19h-2.31a1.24,1.24,0,0,1-1.26-1.1l-.19-2.37,5.23,0-.22,2.4A1.23,1.23,0,0,1,108.15,40.19Z"/><path class="cls-13" d="M109.15,37.72c-1.46.06-2.93,0-4.39.05a.1.1,0,0,0,0,.2c1.46.05,2.93,0,4.39,0A.13.13,0,0,0,109.15,37.72Z"/><path class="cls-13" d="M109.15,38.36c-1.46.06-2.93,0-4.39,0a.1.1,0,0,0,0,.2c1.46,0,2.93,0,4.39,0C109.32,38.62,109.32,38.35,109.15,38.36Z"/><path class="cls-11" d="M107.64,15.86c0,.47-.25,2.14-.55,2.14s-.56-1.67-.56-2.14.25-.84.56-.84S107.64,15.39,107.64,15.86Z"/><path class="cls-11" d="M114.53,18.43c-.35.3-1.46,1.58-1.26,1.81s1.63-.67,2-1,.48-.74.28-1S114.88,18.13,114.53,18.43Z"/><path class="cls-11" d="M117.22,25.9c-.47.06-2.16,0-2.2-.28s1.6-.76,2.06-.82.87.14.9.45S117.68,25.84,117.22,25.9Z"/><path class="cls-11" d="M100.28,17.87c.36.29,1.53,1.52,1.34,1.76s-1.66-.6-2-.88-.51-.72-.32-1S99.91,17.59,100.28,17.87Z"/><path class="cls-11" d="M96.78,24.7c.46.06,2.15,0,2.19-.27s-1.59-.76-2-.82-.87.14-.91.44S96.31,24.65,96.78,24.7Z"/><path class="cls-14" d="M110.17,30.44a1.85,1.85,0,0,1-.54-.64,2.33,2.33,0,0,0,.42-1.17,6,6,0,0,0,0-.74.61.61,0,0,0-.23-.59c-.18-.14-.42,0-.56.11a1.36,1.36,0,0,0-.3.6,2.73,2.73,0,0,0,0,1.27,1.73,1.73,0,0,0,.12.43,1.16,1.16,0,0,1-.35.18.73.73,0,0,1-.88-.44.89.89,0,0,1-.08-.17l.09-.25a5.79,5.79,0,0,0,.24-1.24c0-.35,0-.76-.3-1a.22.22,0,0,0-.3.08,2.6,2.6,0,0,0-.19,2.35,6.54,6.54,0,0,1-.3.59c-.12.21-.36.54-.64.5s-.48-.37-.61-.58a2.65,2.65,0,0,1-.23-.48,2,2,0,0,0,.09-.26,4.65,4.65,0,0,0,.21-1.1c0-.31,0-.75-.3-.9a.23.23,0,0,0-.3.08,3.07,3.07,0,0,0-.17,2.09.25.25,0,0,1,0,.07,4.54,4.54,0,0,1-.89,1.42.19.19,0,0,0,.27.28,4.77,4.77,0,0,0,.84-1.16c.07.12.14.24.22.35a1.22,1.22,0,0,0,.9.61,1.13,1.13,0,0,0,.87-.56,2.26,2.26,0,0,0,.26-.42,1.15,1.15,0,0,0,.8.57,1.31,1.31,0,0,0,.92-.24,2.94,2.94,0,0,0,.6.71A.24.24,0,1,0,110.17,30.44Zm-2.49-3a2.38,2.38,0,0,1,0,.49,3.78,3.78,0,0,1-.1.57A2.08,2.08,0,0,1,107.68,27.43Zm1.69,1.08a1.87,1.87,0,0,1,.12-.52.91.91,0,0,1,.11-.22l0,0a.43.43,0,0,1,0,.05,4,4,0,0,1-.15,1.33l-.06.15A2.36,2.36,0,0,1,109.37,28.51Z"/><path class="cls-14" d="M110.58,29.38c-.77,2.34-1.58,4.68-2.45,7a.23.23,0,0,0,.43.16c.87-2.31,1.67-4.64,2.39-7C111,29.28,110.66,29.13,110.58,29.38Z"/><path class="cls-14" d="M103.59,29.23q.93,3.58,1.7,7.21a.23.23,0,0,0,.45-.09c-.52-2.42-1.09-4.82-1.76-7.2C103.92,28.91,103.53,29,103.59,29.23Z"/><circle class="cls-4" cx="42.22" cy="5.37" r="0.82"/><path class="cls-5" d="M37.74,2.88a4.9,4.9,0,0,1,.86-1.13,5.12,5.12,0,0,1,7.24,0,4.9,4.9,0,0,1,.86,1.13"/><path class="cls-5" d="M38.61,3.75a4.17,4.17,0,0,1,.81-1.17,4,4,0,0,1,6.4,1.17"/><path class="cls-5" d="M39.53,4.67a2.78,2.78,0,0,1,5.38,0"/><line class="cls-5" x1="42.27" y1="7.42" x2="42.27" y2="16.73"/><rect class="cls-8" x="34.6" y="11.74" width="15.23" height="31.51"/><path class="cls-15" d="M44,33.27V14.92c0-.75-.81-1.35-1.8-1.35s-1.8.6-1.8,1.35V33.27a4.27,4.27,0,1,0,3.6,0Z"/><path class="cls-16" d="M43,34.75V15.93a.74.74,0,1,0-1.48,0V34.75a2.68,2.68,0,0,0-1.88,2.56,2.62,2.62,0,1,0,5.24,0A2.68,2.68,0,0,0,43,34.75Z"/><rect class="cls-15" x="36.6" y="16.73" width="2.69" height="0.55"/><rect class="cls-15" x="36.6" y="19.48" width="2.69" height="0.55"/><rect class="cls-15" x="36.6" y="22.23" width="2.69" height="0.55"/><rect class="cls-15" x="36.6" y="24.98" width="2.69" height="0.55"/><rect class="cls-15" x="36.6" y="27.73" width="2.69" height="0.55"/><rect class="cls-15" x="36.6" y="30.48" width="2.69" height="0.55"/><rect class="cls-15" x="44.99" y="16.73" width="2.69" height="0.55"/><rect class="cls-15" x="44.99" y="19.48" width="2.69" height="0.55"/><rect class="cls-15" x="44.99" y="22.23" width="2.69" height="0.55"/><rect class="cls-15" x="44.99" y="24.98" width="2.69" height="0.55"/><rect class="cls-15" x="44.99" y="27.73" width="2.69" height="0.55"/><rect class="cls-15" x="44.99" y="30.48" width="2.69" height="0.55"/><path class="cls-17" d="M132.86,60.9V54.77a3.89,3.89,0,0,1,3.87-3.87h2.91a3.88,3.88,0,0,1,3.87,3.87V60.9"/><rect class="cls-18" x="129.48" y="60.9" width="17.42" height="15.48" rx="1.23"/><path class="cls-19" d="M140,66.08a1.94,1.94,0,1,0-3,1.62l-.4,4.31h2.91l-.4-4.31A1.92,1.92,0,0,0,140,66.08Z"/><circle class="cls-4" cx="138.19" cy="43.21" r="0.82"/><path class="cls-5" d="M133.71,40.72a4.86,4.86,0,0,1,.85-1.13,5.13,5.13,0,0,1,7.25,0,4.86,4.86,0,0,1,.85,1.13"/><path class="cls-5" d="M134.58,41.59a4,4,0,0,1,7.21,0"/><path class="cls-5" d="M135.5,42.51a2.78,2.78,0,0,1,5.38,0"/><line class="cls-5" x1="138.23" y1="45.26" x2="138.23" y2="50.57"/><polyline class="cls-20" points="66.99 83.84 66.99 80.38 64.19 77.57 64.19 70.32"/><line class="cls-20" x1="83.43" y1="92.22" x2="87.52" y2="92.22"/><polyline class="cls-20" points="68.78 82.95 68.78 77.27 68.12 76.61 68.12 73.3"/><line class="cls-20" x1="70.57" y1="83.24" x2="70.57" y2="75.57"/><polyline class="cls-20" points="72.36 83.24 72.36 79.76 71.69 79.08 71.69 77.22"/><line class="cls-20" x1="74.16" y1="83.24" x2="74.16" y2="79.76"/><line class="cls-20" x1="75.95" y1="83.24" x2="75.95" y2="79.76"/><line class="cls-20" x1="77.74" y1="83.24" x2="77.74" y2="79.76"/><line class="cls-20" x1="83.43" y1="90.42" x2="86.39" y2="90.42"/><line class="cls-20" x1="83.43" y1="94.02" x2="86.39" y2="94.02"/><line class="cls-20" x1="83.43" y1="97.61" x2="89.57" y2="97.61"/><line class="cls-20" x1="83.43" y1="99.38" x2="86.39" y2="99.38"/><polyline class="cls-20" points="83.42 95.78 88.02 95.78 91.66 92.15 94.3 92.15"/><rect x="80.89" y="100.59" width="0.86" height="1.8" transform="translate(162.64 202.97) rotate(180)"/><rect x="79.1" y="100.59" width="0.86" height="1.8" transform="translate(159.06 202.97) rotate(180)"/><rect x="77.31" y="100.59" width="0.86" height="1.8" transform="translate(155.48 202.97) rotate(180)"/><rect x="75.52" y="100.59" width="0.86" height="1.8" transform="translate(151.9 202.97) rotate(180)"/><rect x="73.73" y="100.59" width="0.86" height="1.8" transform="translate(148.31 202.97) rotate(180)"/><rect x="71.94" y="100.59" width="0.86" height="1.8" transform="translate(144.73 202.97) rotate(180)"/><rect x="70.15" y="100.59" width="0.86" height="1.8" transform="translate(141.15 202.97) rotate(180)"/><rect x="68.35" y="100.59" width="0.86" height="1.8" transform="translate(137.56 202.97) rotate(180)"/><rect x="66.56" y="100.59" width="0.86" height="1.8" transform="translate(133.98 202.97) rotate(180)"/><rect x="77.31" y="82.05" width="0.86" height="1.8" transform="translate(155.48 165.89) rotate(180)"/><rect x="75.52" y="82.05" width="0.86" height="1.8" transform="translate(151.9 165.89) rotate(180)"/><rect x="73.73" y="82.05" width="0.86" height="1.8" transform="translate(148.31 165.89) rotate(180)"/><rect x="71.94" y="82.05" width="0.86" height="1.8" transform="translate(144.73 165.89) rotate(180)"/><rect x="70.15" y="82.05" width="0.86" height="1.8" transform="translate(141.15 165.89) rotate(180)"/><rect x="68.35" y="82.05" width="0.86" height="1.8" transform="translate(137.56 165.89) rotate(180)"/><rect x="66.56" y="82.05" width="0.86" height="1.8" transform="translate(133.98 165.89) rotate(180)"/><rect x="64.46" y="98.48" width="0.86" height="1.8" transform="translate(-34.49 164.27) rotate(-90)"/><rect x="64.46" y="96.69" width="0.86" height="1.8" transform="translate(-32.7 162.48) rotate(-90)"/><rect x="64.46" y="94.9" width="0.86" height="1.8" transform="translate(-30.91 160.69) rotate(-90)"/><rect x="64.46" y="93.11" width="0.86" height="1.8" transform="translate(-29.12 158.89) rotate(-90)"/><rect x="64.46" y="91.32" width="0.86" height="1.8" transform="translate(-27.33 157.1) rotate(-90)"/><rect x="64.46" y="89.53" width="0.86" height="1.8" transform="translate(-25.54 155.31) rotate(-90)"/><rect x="64.46" y="87.73" width="0.86" height="1.8" transform="translate(-23.74 153.52) rotate(-90)"/><rect x="64.46" y="85.94" width="0.86" height="1.8" transform="translate(-21.95 151.73) rotate(-90)"/><rect x="64.46" y="84.15" width="0.86" height="1.8" transform="translate(-20.16 149.94) rotate(-90)"/><rect x="83" y="98.48" width="0.86" height="1.8" transform="translate(-15.96 182.81) rotate(-90)"/><rect x="83" y="96.69" width="0.86" height="1.8" transform="translate(-14.16 181.01) rotate(-90)"/><rect x="83" y="94.9" width="0.86" height="1.8" transform="translate(-12.37 179.22) rotate(-90)"/><rect x="83" y="93.11" width="0.86" height="1.8" transform="translate(-10.58 177.43) rotate(-90)"/><rect x="83" y="91.32" width="0.86" height="1.8" transform="translate(-8.79 175.64) rotate(-90)"/><rect x="83" y="89.53" width="0.86" height="1.8" transform="translate(-7 173.85) rotate(-90)"/><rect x="83" y="87.73" width="0.86" height="1.8" transform="translate(-5.21 172.06) rotate(-90)"/><rect class="cls-21" x="65.79" y="83.84" width="16.74" height="16.74" rx="0.72" transform="translate(148.31 184.43) rotate(180)"/><polyline class="cls-20" points="83.42 88.63 88.35 88.63 93.15 83.83"/><polyline class="cls-20" points="64.89 88.63 59.79 88.63 58.59 87.43 52.77 87.43"/><polyline class="cls-20" points="64.89 86.83 59.79 86.83 58.59 85.63 56.93 85.63"/><polyline class="cls-20" points="65.05 85.03 63 85.03 61.79 83.83 60.13 83.83"/><line class="cls-20" x1="75.95" y1="101.48" x2="75.95" y2="107.34"/><line class="cls-20" x1="79.53" y1="101.48" x2="79.53" y2="107.34"/><circle cx="62.64" cy="92.9" r="0.35"/><circle cx="93.36" cy="86.15" r="0.35"/><circle cx="94.33" cy="87.11" r="0.35"/><circle cx="92.37" cy="87.14" r="0.35"/><circle cx="93.34" cy="88.1" r="0.35"/><circle cx="90.51" cy="88.99" r="0.35"/><circle cx="91.48" cy="89.96" r="0.35"/><circle cx="89.52" cy="89.98" r="0.35"/><circle cx="90.49" cy="90.95" r="0.35"/><circle cx="62.64" cy="90.21" r="0.35"/><circle cx="61.48" cy="92.9" r="0.35"/><circle cx="61.48" cy="91.23" r="0.35"/><circle class="cls-20" cx="88.27" cy="92.23" r="0.71"/><circle class="cls-20" cx="79.53" cy="108.04" r="0.71"/><circle class="cls-20" cx="86.96" cy="94.01" r="0.71"/><circle class="cls-20" cx="68.12" cy="72.59" r="0.71"/><circle class="cls-22" cx="75.95" cy="107.34" r="0.43"/><circle class="cls-22" cx="60.13" cy="83.83" r="0.43"/><circle class="cls-22" cx="56.93" cy="85.63" r="0.43"/><circle class="cls-22" cx="52.77" cy="87.43" r="0.43"/><circle class="cls-22" cx="86.26" cy="90.43" r="0.43"/><circle class="cls-22" cx="89.57" cy="97.61" r="0.43"/><circle class="cls-22" cx="86.39" cy="99.38" r="0.43"/><circle class="cls-22" cx="71.69" cy="77.22" r="0.43"/><circle class="cls-22" cx="70.57" cy="75.57" r="0.43"/><circle class="cls-22" cx="64.19" cy="70.2" r="0.43"/><circle class="cls-22" cx="75.95" cy="79.76" r="0.43"/><circle class="cls-22" cx="77.74" cy="79.76" r="0.43"/><circle class="cls-22" cx="74.16" cy="79.76" r="0.43"/><path class="cls-23" d="M77.7,92.35,79,92.21a3.53,3.53,0,0,0,0-.46l-1.32-.14a2,2,0,0,0,0-.24,2,2,0,0,0,0-.24l1.2-.59c0-.14-.1-.29-.16-.43l-1.29.33a2.3,2.3,0,0,0-.25-.43l.93-1a3.27,3.27,0,0,0-.3-.35l-1.1.75a2.92,2.92,0,0,0-.38-.32l.54-1.22a3.61,3.61,0,0,0-.39-.22l-.78,1.07a4.28,4.28,0,0,0-.46-.17l.09-1.32a2.36,2.36,0,0,0-.45-.08l-.37,1.28a2,2,0,0,0-.49,0l-.37-1.28-.22,0-.23,0,.09,1.32-.46.17L72,87.69a3.11,3.11,0,0,0-.4.22l.54,1.22a2.83,2.83,0,0,0-.37.32l-1.11-.75c-.1.12-.2.23-.29.35l.92,1a3.62,3.62,0,0,0-.24.43l-1.29-.32c-.06.14-.11.28-.16.42l1.2.59a4,4,0,0,0-.09.48l-1.32.14a3.53,3.53,0,0,0,0,.46l1.32.14a2,2,0,0,0,0,.24,2,2,0,0,0,0,.24l-1.2.59c0,.14.1.29.16.43L71,93.52a3,3,0,0,0,.24.43l-.92,1c.09.12.19.24.29.35l1.11-.75a3.68,3.68,0,0,0,.37.32l-.54,1.22.4.22.78-1.07.46.17-.09,1.32a3.54,3.54,0,0,0,.45.08L74,95.49a2,2,0,0,0,.49,0l.37,1.28.22,0,.23,0-.09-1.32.46-.17.78,1.07.4-.22-.54-1.22a3.68,3.68,0,0,0,.37-.32l1.11.75c.1-.12.2-.23.29-.35l-.93-1a2.67,2.67,0,0,0,.25-.43l1.29.32c.06-.14.11-.28.16-.42l-1.2-.59A4,4,0,0,0,77.7,92.35Zm-6,.71a2.79,2.79,0,0,1-.21-1,2.7,2.7,0,0,1,2.25-2.73l0,1.52A1.22,1.22,0,0,0,73,92l0,.25Zm2.56,1.65a2.76,2.76,0,0,1-2.15-1l1.3-.8a1.19,1.19,0,0,0,.81.29,1.25,1.25,0,0,0,.8-.32l1.33.73A2.69,2.69,0,0,1,74.26,94.71ZM76.73,93l-1.33-.74a1.94,1.94,0,0,0,0-.24,1.22,1.22,0,0,0-.86-1.14l0-1.52a2.7,2.7,0,0,1,2.37,2.63A2.62,2.62,0,0,1,76.73,93Z"/><path class="cls-23" d="M74.78,92a.58.58,0,0,1-.57.6.59.59,0,0,1-.6-.57.59.59,0,0,1,1.17,0Z"/><line class="cls-24" x1="60.56" y1="55.9" x2="50.35" y2="45.68"/><line class="cls-24" x1="44.84" y1="70.2" x2="25.04" y2="64.77"/><line class="cls-24" x1="88.77" y1="55.9" x2="98.99" y2="45.68"/><line class="cls-24" x1="104.5" y1="70.2" x2="124.3" y2="64.77"/><rect class="cls-25" x="42.2" y="115.93" width="64.5" height="4.22"/></g></g></svg>