<svg xmlns="http://www.w3.org/2000/svg" viewBox="0 0 52.69 69.07"><defs><style>.cls-1{fill:#fff;}</style></defs><g id="Layer_2" data-name="Layer 2"><g id="pic"><path class="cls-1" d="M26.38,0A26.4,26.4,0,0,0,0,26.38,27.54,27.54,0,0,0,1.4,35a3.72,3.72,0,0,0,4.67,2.31,3.72,3.72,0,0,0,2.3-4.68,18.74,18.74,0,0,1-1-6.77A19.05,19.05,0,1,1,27.5,45.36s-3.7.21-5.52.49c-.9.14-1.6.28-2.09.35a.28.28,0,0,1-.35-.35l.63-3.07,3.35-15.7a3.64,3.64,0,0,0-7.12-1.54S8.17,63.93,8.1,64.34a3.64,3.64,0,1,0,7.11,1.54c.07-.42,1.19-5.51,1.19-5.51a9.28,9.28,0,0,1,7.82-7.26c.83-.14,4.11-.35,4.11-.35A26.42,26.42,0,0,0,26.38,0Z"/><path class="cls-1" d="M34.2,59.54a4.82,4.82,0,0,0-2,9.43,4.75,4.75,0,0,0,5.7-3.72A4.87,4.87,0,0,0,34.2,59.54Z"/></g></g></svg>