<svg xmlns="http://www.w3.org/2000/svg" viewBox="0 0 131.79 129.1"><defs><style>.cls-1{fill:#ffd86c;}.cls-1,.cls-10,.cls-14,.cls-2,.cls-3,.cls-4,.cls-7,.cls-8,.cls-9{stroke:#000;}.cls-1,.cls-2,.cls-3,.cls-4,.cls-6{stroke-linecap:round;stroke-linejoin:round;}.cls-1,.cls-10,.cls-13,.cls-14,.cls-2,.cls-3,.cls-4,.cls-5,.cls-6,.cls-7,.cls-8,.cls-9{stroke-width:0.5px;}.cls-2{fill:#ccc;}.cls-13,.cls-3,.cls-5,.cls-6,.cls-9{fill:none;}.cls-4,.cls-7{fill:#b3b3b3;}.cls-5{stroke:#7a84aa;stroke-dasharray:3 2;}.cls-10,.cls-13,.cls-14,.cls-5,.cls-7,.cls-8,.cls-9{stroke-miterlimit:10;}.cls-6{stroke:#7a779f;}.cls-8{fill:#008fd1;}.cls-10{fill:#fff;}.cls-11{fill:#ed1b23;}.cls-12{fill:#221e1f;}.cls-13{stroke:red;}</style></defs><g id="Layer_2" data-name="Layer 2"><g id="pic"><polygon class="cls-1" points="29.97 11.28 27.37 24.36 31.27 24.36 21.13 37.21 23.6 24.24 19.95 24.24 29.97 11.28"/><rect class="cls-2" x="0.25" y="71.87" width="21.12" height="21.12"/><circle class="cls-3" cx="10.62" cy="74.84" r="1.11"/><circle class="cls-3" cx="3.29" cy="74.84" r="1.11"/><circle class="cls-3" cx="15" cy="74.84" r="1.11"/><circle class="cls-3" cx="10.62" cy="89.95" r="1.11"/><circle class="cls-3" cx="6.83" cy="89.95" r="1.11"/><circle class="cls-3" cx="18.49" cy="89.95" r="1.11"/><line class="cls-3" x1="10.62" y1="75.95" x2="10.62" y2="88.84"/><polyline class="cls-3" points="15.22 75.95 15.22 85.81 17.9 88.99"/><polyline class="cls-3" points="3.29 75.95 3.29 79.88 6.83 84.32 6.83 88.84"/><path class="cls-4" d="M131.54,69.6V65.94h-2.12A9.16,9.16,0,0,0,128,62.63l1.51-1.51L127,58.53l-1.52,1.52a9.22,9.22,0,0,0-3.28-1.35V56.54H118.5v2.17a9.08,9.08,0,0,0-3.28,1.37l-1.53-1.53-2.59,2.58,1.54,1.54a9.17,9.17,0,0,0-1.35,3.27h-2.16V69.6h2.16a9.12,9.12,0,0,0,1.35,3.26l-1.52,1.52L113.7,77l1.51-1.51a9.14,9.14,0,0,0,3.29,1.38V79h3.66V76.84a9.21,9.21,0,0,0,3.29-1.36L127,77l2.58-2.59L128,72.91a9.24,9.24,0,0,0,1.38-3.31Zm-11.19,3a4.8,4.8,0,1,1,4.8-4.8A4.8,4.8,0,0,1,120.35,72.57Z"/><line class="cls-5" x1="48.72" y1="42.22" x2="35.08" y2="30.23"/><line class="cls-5" x1="43.89" y1="77.26" x2="25.98" y2="82.47"/><line class="cls-5" x1="83.56" y1="80.91" x2="104" y2="70.59"/><circle class="cls-6" cx="89.94" cy="10.6" r="1.66"/><path class="cls-6" d="M80.89,5.57A10.36,10.36,0,0,1,97.27,3.28,10.78,10.78,0,0,1,99,5.57"/><path class="cls-6" d="M82.65,7.33A8.24,8.24,0,0,1,84.29,5a8,8,0,0,1,11.3,0,7.87,7.87,0,0,1,1.64,2.38"/><path class="cls-6" d="M84.5,9.18A5.55,5.55,0,0,1,86,6.63a5.61,5.61,0,0,1,8,0,5.53,5.53,0,0,1,1.46,2.55"/><line class="cls-6" x1="90.04" y1="14.74" x2="90.04" y2="25.81"/><rect class="cls-7" x="95.53" y="33.59" width="1.17" height="4.66" transform="translate(-3.71 59.64) rotate(-33.85)"/><rect class="cls-8" x="96.53" y="36.53" width="1.97" height="2.95" transform="translate(-4.64 60.77) rotate(-33.85)"/><rect class="cls-7" x="91.38" y="28.41" width="2.52" height="4.66" transform="matrix(0.83, -0.56, 0.56, 0.83, -1.42, 56.82)"/><rect class="cls-7" x="92.59" y="31.14" width="3.45" height="4.21" transform="translate(-2.53 58.18) rotate(-33.85)"/><line class="cls-9" x1="91.56" y1="31.38" x2="93.65" y2="29.98"/><path class="cls-10" d="M81,88.33,67.37,98.58,51,75.65a3.29,3.29,0,0,1,.37-4.44l4.13-3.41a3.28,3.28,0,0,1,4.47.56Z"/><rect class="cls-10" x="63.82" y="104.48" width="16.17" height="6.8"/><path class="cls-10" d="M92.75,29.06,48.46,59.72l-6-9L87.05,20.78a4.84,4.84,0,0,1,6.65,1.59h0A4.85,4.85,0,0,1,92.75,29.06Z"/><path class="cls-10" d="M52.23,57l-9.38,9.3a3.36,3.36,0,0,1-4.72-.88l-2-3a6.27,6.27,0,0,1,1.71-8.71l8.4-5.66Z"/><rect class="cls-10" x="62.31" y="109.6" width="19.18" height="19.25"/><rect class="cls-10" x="58.92" y="127.07" width="25.97" height="1.78"/><g id="layer1"><g id="g3706"><path id="path3708" class="cls-11" d="M69.87,40.93,68,42.22l-.15-2.3,1.91-1.29Z"/></g><g id="g3710"><path id="path3712" class="cls-11" d="M71.78,39.65l1.92-1.29-2.07-1-1.92,1.28Z"/></g><g id="g3714"><path id="path3716" class="cls-11" d="M69.56,36.33l-2.07-1,.15,2.31,2.07,1Z"/></g><g id="g3718"><path id="path3720" class="cls-12" d="M74.09,37.08l.76-.52-.18-.27-.77.51-.23-.34.86-.58-.18-.28-.87.58-.32.22.19.28.7,1,.19.27.32-.21.89-.6-.19-.28-.89.6Z"/></g><g id="g3722"><path id="path3724" class="cls-12" d="M72.48,34.73l1.14,1h0l.28-.19h0l-.46-1.42.8,1.19.3-.2L73.5,33.45l-.16.11-.15.1-.15.1.42,1.36-1.09-.91-.16.11-.14.09-.17.12L73,36.13l.3-.2Z"/></g><path id="path3726" class="cls-12" d="M79.6,29.36l-.33.22,1.08,1.61.32-.22Z"/><path id="path3728" class="cls-12" d="M81.12,31.06l-.33.22,1.08,1.6.32-.21Z"/><path id="path3730" class="cls-12" d="M82.79,27.22l-.32.22L83.55,29l.32-.22Z"/><path id="path3732" class="cls-12" d="M74,33.15l-.32.22L74.71,35l.32-.22Z"/><g id="g3734"><path id="path3736" class="cls-12" d="M82.44,28.37l-.64.43-.42-.63-.32.21L82.13,30l.32-.21L82,29.07l.65-.43.47.7.31-.21-1.07-1.6-.32.21Z"/></g><g id="g3738"><path id="path3740" class="cls-12" d="M75.51,34.43l.33-.22L75,32.88l.39-.26-.18-.28-.4.27-.33.22-.39.26.19.28.39-.26Z"/></g><g id="g3742"><path id="path3744" class="cls-12" d="M79.72,34.33l.33-.22-.89-1.33.39-.26-.19-.28L79,32.5l-.33.22-.39.27.18.27.4-.26Z"/></g><g id="g3746"><path id="path3748" class="cls-12" d="M78.27,32.65c.41-.28.51-.62.27-1l-.74-1.1-.32.21.76,1.14a.33.33,0,0,1-.15.46c-.24.17-.4.08-.48,0l-.76-1.13-.32.21.74,1.11c.26.38.61.38,1,.12"/></g><g id="g3750"><path id="path3752" class="cls-12" d="M76.58,35.41l.77-.52-.19-.27-.77.51-.23-.34.86-.58-.18-.28-.87.58-.32.22.19.28.7,1.05.19.27.32-.21.89-.6-.19-.28-.89.6Z"/></g><g id="g3754"><path id="path3756" class="cls-12" d="M78.81,30.26a.25.25,0,0,1,.32.06.25.25,0,0,1-.07.34l-.39.26-.26-.39Zm.72,1.12-.38.26-.31-.47.38-.25a.27.27,0,0,1,.4.07.27.27,0,0,1-.09.39m-.2.49.46-.31a.53.53,0,0,0-.4-1,.45.45,0,0,0,0-.53c-.16-.23-.44-.27-.77,0l-.39.26-.33.22h0L79,32.1h0Z"/></g><g id="g3758"><path id="path3760" class="cls-12" d="M80.24,32.68,80,32.24l.39-.26a.25.25,0,0,1,.37.07.27.27,0,0,1-.06.36Zm.73-.31a.47.47,0,0,0,0-.58.54.54,0,0,0-.83-.1l-.41.27-.32.22h0l1.08,1.61.32-.22-.42-.63.27-.19a.33.33,0,0,1,.42,0c.12.11.24.3.35.4l.32-.22a3.28,3.28,0,0,1-.34-.39.4.4,0,0,0-.47-.18"/></g><g id="g3762"><path id="path3764" class="cls-12" d="M74.8,35.3l-.33.22.89,1.32.19.28.33-.22.75-.5-.18-.28-.76.5Z"/></g><g id="g3766"><path id="path3768" class="cls-12" d="M76.32,32.91c.29-.13.47-.18.58,0s0,.28-.19.42a.33.33,0,0,1-.5,0l-.32.21c.19.28.54.41,1,.1s.48-.67.3-.94a.58.58,0,0,0-.78-.17c-.32.14-.53.26-.65.08s0-.28.16-.39.35-.11.45,0l.32-.21a.65.65,0,0,0-1-.1.66.66,0,0,0-.27.89.64.64,0,0,0,.85.14"/></g><g id="g3770"><path id="path3772" class="cls-12" d="M80.85,29.87c.29-.13.47-.18.57,0s0,.28-.18.42a.34.34,0,0,1-.51,0l-.31.2c.19.28.54.42,1,.1s.49-.67.3-.94a.57.57,0,0,0-.77-.16c-.33.13-.53.25-.65.07s0-.27.15-.39.36-.1.46,0l.31-.21a.74.74,0,0,0-1.23.79c.18.27.48.3.85.14"/></g><g id="g3774"><path id="path3776" class="cls-12" d="M78.5,34.78c-.26.18-.58,0-.79-.28s-.23-.66,0-.84a.42.42,0,0,1,.53,0l.34-.22a.79.79,0,0,0-1.06-.09,1,1,0,0,0,1.12,1.68A.78.78,0,0,0,79,34l-.34.23a.41.41,0,0,1-.16.51"/></g><g id="g3778"><path id="path3780" class="cls-12" d="M82.85,31.86c-.26.18-.58,0-.79-.28s-.23-.66,0-.84a.42.42,0,0,1,.53,0l.34-.22a.79.79,0,0,0-1.06-.09A1,1,0,0,0,83,32.15a.78.78,0,0,0,.32-1l-.34.23a.41.41,0,0,1-.16.51"/></g></g><line class="cls-13" x1="65.44" y1="45.79" x2="90.32" y2="29.1"/><path class="cls-10" d="M81.5,89.43a9.6,9.6,0,1,0-19.19,0,9.16,9.16,0,0,0,.16,1.74,14.64,14.64,0,0,0,.43,3.12l2.3,9a6.84,6.84,0,0,0,13.4,0l2.3-9a14.05,14.05,0,0,0,.44-3.12A10.05,10.05,0,0,0,81.5,89.43Z"/><path class="cls-10" d="M61,69.24s-5.49-10.13-5.75-10.65c-1.62-3.3-4.42-6-8.29-6a8.74,8.74,0,0,0-2.06.25,5.35,5.35,0,0,0-1.6.56,8.79,8.79,0,0,0-3.09,2.38,4.92,4.92,0,0,0-.44.58,8.67,8.67,0,0,0-1.55,5c0,3.05,1.82,5.4,3.93,7.29C42.5,69,50.5,77,50.5,77c3,3,7,3.65,9.45,1.8h0C62.44,77,62.94,73,61,69.24Z"/><circle class="cls-14" cx="71.9" cy="81.27" r="0.35"/><circle class="cls-14" cx="56.49" cy="47.58" r="0.35"/><circle class="cls-14" cx="42.42" cy="56" r="0.35"/><circle class="cls-14" cx="58.71" cy="77.61" r="0.35"/><circle class="cls-14" cx="53.55" cy="59.1" r="0.35"/><circle class="cls-14" cx="42.07" cy="66.95" r="0.35"/><circle class="cls-14" cx="49.49" cy="74.01" r="0.35"/><circle class="cls-14" cx="58.36" cy="67.75" r="0.35"/><circle class="cls-14" cx="63.82" cy="88.51" r="0.35"/><circle class="cls-14" cx="65.31" cy="98.97" r="0.35"/><circle class="cls-14" cx="78.67" cy="98.97" r="0.35"/><circle class="cls-14" cx="80.34" cy="88.51" r="0.35"/><circle class="cls-14" cx="71.9" cy="107.53" r="0.35"/><line class="cls-9" x1="52.23" y1="43.9" x2="58.31" y2="52.91"/></g></g></svg>