<svg xmlns="http://www.w3.org/2000/svg" viewBox="0 0 91.86 116.27"><defs><style>.cls-1{fill:#b2b2b2;}.cls-1,.cls-10,.cls-11,.cls-12,.cls-13,.cls-14,.cls-15,.cls-16,.cls-17,.cls-18,.cls-2,.cls-4,.cls-5,.cls-6,.cls-7,.cls-8,.cls-9{stroke:#000;stroke-miterlimit:10;stroke-width:0.75px;}.cls-2{fill:#03a5ed;}.cls-3{fill:#0d0c0d;}.cls-10,.cls-11,.cls-12,.cls-13,.cls-4,.cls-5,.cls-6,.cls-7,.cls-8,.cls-9{fill:none;}.cls-5{stroke-dasharray:2.93 1.96;}.cls-6{stroke-dasharray:3.16 2.11;}.cls-7{stroke-dasharray:3.22 2.15;}.cls-8{stroke-dasharray:3.83 2.55;}.cls-9{stroke-dasharray:2.89 1.93;}.cls-10{stroke-dasharray:3.11 2.07;}.cls-11{stroke-dasharray:3.43 2.29;}.cls-12{stroke-dasharray:2.2 1.46;}.cls-13{stroke-dasharray:2.84 1.89;}.cls-14{fill:#fff;}.cls-15{fill:#95c11f;}.cls-16{fill:#fbb03b;}.cls-17{fill:#e30078;}.cls-18{fill:#cfc5fb;}</style></defs><g id="Layer_2" data-name="Layer 2"><g id="pic"><rect class="cls-1" x="19.66" y="16" width="55.78" height="33.54"/><rect class="cls-2" x="15.94" y="6.55" width="63.21" height="12.62"/><circle class="cls-3" cx="22.16" cy="12.86" r="1.8"/><circle class="cls-3" cx="28.51" cy="12.86" r="1.8"/><circle class="cls-3" cx="34.86" cy="12.86" r="1.8"/><line class="cls-4" x1="40.77" y1="12.86" x2="70.5" y2="12.86"/><rect class="cls-2" x="15.94" y="25.92" width="63.21" height="12.62"/><circle class="cls-3" cx="22.16" cy="32.23" r="1.8"/><circle class="cls-3" cx="28.51" cy="32.23" r="1.8"/><circle class="cls-3" cx="34.86" cy="32.23" r="1.8"/><line class="cls-4" x1="40.77" y1="32.23" x2="70.5" y2="32.23"/><rect class="cls-2" x="15.94" y="45.3" width="63.21" height="12.62"/><circle class="cls-3" cx="22.16" cy="51.61" r="1.8"/><circle class="cls-3" cx="28.51" cy="51.61" r="1.8"/><circle class="cls-3" cx="34.86" cy="51.61" r="1.8"/><line class="cls-4" x1="40.77" y1="51.61" x2="70.5" y2="51.61"/><line class="cls-4" x1="55.38" y1="58.68" x2="55.38" y2="60.18"/><line class="cls-5" x1="55.38" y1="62.13" x2="55.38" y2="110.04"/><polyline class="cls-4" points="55.38 111.01 55.38 112.51 56.88 112.51"/><line class="cls-6" x1="58.99" y1="112.51" x2="73.74" y2="112.51"/><line class="cls-4" x1="74.8" y1="112.51" x2="76.3" y2="112.51"/><line class="cls-4" x1="71.46" y1="59.46" x2="71.46" y2="60.96"/><polyline class="cls-7" points="71.46 63.11 71.46 70.28 76.18 75 76.18 86.94"/><polyline class="cls-4" points="76.18 88.02 76.18 89.52 77.68 89.52"/><line class="cls-8" x1="80.23" y1="89.52" x2="85.33" y2="89.52"/><line class="cls-4" x1="86.61" y1="89.52" x2="88.11" y2="89.52"/><line class="cls-4" x1="23.83" y1="59.46" x2="23.83" y2="60.96"/><line class="cls-9" x1="23.83" y1="62.89" x2="23.83" y2="90.81"/><polyline class="cls-4" points="23.83 91.78 23.83 93.28 22.33 93.28"/><line class="cls-10" x1="20.26" y1="93.28" x2="5.73" y2="93.28"/><line class="cls-4" x1="4.7" y1="93.28" x2="3.2" y2="93.28"/><line class="cls-4" x1="39.71" y1="58.68" x2="39.71" y2="60.18"/><line class="cls-11" x1="39.71" y1="62.46" x2="39.71" y2="67.04"/><polyline class="cls-4" points="39.71 68.18 39.71 69.68 38.65 70.74"/><line class="cls-12" x1="37.61" y1="71.78" x2="35.54" y2="73.85"/><polyline class="cls-4" points="35.02 74.37 33.96 75.43 33.96 76.93"/><line class="cls-13" x1="33.96" y1="78.82" x2="33.96" y2="101.5"/><line class="cls-4" x1="33.96" y1="102.45" x2="33.96" y2="103.95"/><circle class="cls-14" cx="55.59" cy="58.68" r="3.38"/><circle class="cls-14" cx="71.46" cy="58.68" r="3.38"/><circle class="cls-14" cx="23.83" cy="58.68" r="3.38"/><circle class="cls-14" cx="39.71" cy="58.68" r="3.38"/><circle class="cls-15" cx="33.96" cy="103.31" r="3.38"/><circle class="cls-16" cx="3.76" cy="93.28" r="3.38"/><circle class="cls-17" cx="88.11" cy="89.52" r="3.38"/><circle class="cls-18" cx="75.77" cy="112.51" r="3.38"/><path class="cls-14" d="M73.81,3.59h.26a4.79,4.79,0,0,1,9.31,1.56,2.39,2.39,0,0,1,0,4.77H83.2v0H73.81a3.18,3.18,0,1,1,0-6.35Z"/></g></g></svg>