<svg xmlns="http://www.w3.org/2000/svg" viewBox="0 0 608.98 457.49"><defs><style>.cls-1,.cls-14,.cls-16,.cls-39,.cls-41,.cls-43,.cls-46{fill:none;}.cls-1{stroke:#1d1d1b;stroke-dasharray:2 2;}.cls-1,.cls-14,.cls-15,.cls-16,.cls-17,.cls-18,.cls-19,.cls-29,.cls-30,.cls-39,.cls-40,.cls-41,.cls-43{stroke-linecap:round;stroke-linejoin:round;}.cls-1,.cls-14,.cls-15,.cls-16,.cls-17,.cls-18,.cls-19,.cls-29,.cls-3,.cls-30{stroke-width:0.4px;}.cls-2{fill:#1d1d1b;}.cls-3{fill:#f6df8c;}.cls-15,.cls-16,.cls-17,.cls-18,.cls-19,.cls-29,.cls-3,.cls-30,.cls-40,.cls-41{stroke:#000;}.cls-3,.cls-46{stroke-miterlimit:10;}.cls-4{fill:#666;}.cls-5{font-size:0.79px;fill:#b3b3b3;font-family:MyriadPro-Regular, Myriad Pro;}.cls-6{letter-spacing:-0.01em;}.cls-7{letter-spacing:-0.01em;}.cls-8{letter-spacing:0.01em;}.cls-9{letter-spacing:0.05em;}.cls-10{letter-spacing:0.01em;}.cls-11{letter-spacing:0em;}.cls-12{letter-spacing:0.01em;}.cls-13{font-size:21.51px;fill:#2d4072;letter-spacing:0.01em;}.cls-13,.cls-28{font-family:Roboto-Regular, Roboto;}.cls-14,.cls-39,.cls-46{stroke:#03a5ed;}.cls-15,.cls-40{fill:#fff;}.cls-17{fill:#83c0e5;}.cls-18{fill:#fdef9a;}.cls-19{fill:#8c6239;}.cls-20{font-size:3.19px;letter-spacing:0.03em;}.cls-20,.cls-31,.cls-36{font-family:Roboto-Medium, Roboto;font-weight:500;}.cls-21{letter-spacing:0.01em;}.cls-22{letter-spacing:0em;}.cls-23{letter-spacing:0.03em;}.cls-24{letter-spacing:-0.06em;}.cls-25{letter-spacing:0.03em;}.cls-26{letter-spacing:0.02em;}.cls-27{letter-spacing:0.01em;}.cls-28{font-size:4.96px;letter-spacing:0.05em;}.cls-29{fill:#c69c6d;}.cls-30{fill:#42210b;}.cls-31{font-size:3.68px;letter-spacing:0.05em;}.cls-32{letter-spacing:0.01em;}.cls-33{letter-spacing:-0.08em;}.cls-34{letter-spacing:0.05em;}.cls-35{letter-spacing:0.02em;}.cls-36{font-size:3.89px;letter-spacing:0.04em;}.cls-37{letter-spacing:0.04em;}.cls-38{letter-spacing:0.05em;}.cls-39,.cls-40,.cls-41{stroke-width:0.5px;}.cls-42{fill:#221363;}.cls-43{stroke:#fff;}.cls-44{fill:#b5c0f1;}.cls-45{fill:#03a5ed;}</style></defs><g id="Layer_2" data-name="Layer 2"><g id="pic"><line class="cls-1" x1="38.11" y1="74.27" x2="38.11" y2="126.55"/><polygon class="cls-2" points="36.11 74.85 38.11 71.4 40.1 74.85 36.11 74.85"/><polygon class="cls-2" points="36.11 125.97 38.11 129.42 40.1 125.97 36.11 125.97"/><line class="cls-1" x1="541.88" y1="23.95" x2="467.99" y2="23.95"/><polygon class="cls-2" points="541.3 21.96 544.75 23.95 541.3 25.95 541.3 21.96"/><polygon class="cls-2" points="468.57 21.96 465.12 23.95 468.57 25.95 468.57 21.96"/><line class="cls-1" x1="413.29" y1="23.95" x2="339.39" y2="23.95"/><polygon class="cls-2" points="412.71 21.96 416.16 23.95 412.71 25.95 412.71 21.96"/><polygon class="cls-2" points="339.98 21.96 336.52 23.95 339.98 25.95 339.98 21.96"/><line class="cls-1" x1="280.37" y1="23.95" x2="206.48" y2="23.95"/><polygon class="cls-2" points="279.79 21.96 283.24 23.95 279.79 25.95 279.79 21.96"/><polygon class="cls-2" points="207.06 21.96 203.61 23.95 207.06 25.95 207.06 21.96"/><line class="cls-1" x1="145.29" y1="23.95" x2="71.4" y2="23.95"/><polygon class="cls-2" points="144.71 21.96 148.16 23.95 144.71 25.95 144.71 21.96"/><polygon class="cls-2" points="71.98 21.96 68.53 23.95 71.98 25.95 71.98 21.96"/><line class="cls-1" x1="541.88" y1="160.11" x2="467.99" y2="160.11"/><polygon class="cls-2" points="541.3 158.12 544.75 160.11 541.3 162.11 541.3 158.12"/><polygon class="cls-2" points="468.57 158.12 465.12 160.11 468.57 162.11 468.57 158.12"/><line class="cls-1" x1="145.29" y1="160.11" x2="71.4" y2="160.11"/><polygon class="cls-2" points="144.71 158.12 148.16 160.11 144.71 162.11 144.71 158.12"/><polygon class="cls-2" points="71.98 158.12 68.53 160.11 71.98 162.11 71.98 158.12"/><line class="cls-1" x1="541.88" y1="296.27" x2="467.99" y2="296.27"/><polygon class="cls-2" points="541.3 294.28 544.75 296.27 541.3 298.27 541.3 294.28"/><polygon class="cls-2" points="468.57 294.28 465.12 296.27 468.57 298.27 468.57 294.28"/><line class="cls-1" x1="145.29" y1="296.27" x2="71.4" y2="296.27"/><polygon class="cls-2" points="144.71 294.28 148.16 296.27 144.71 298.27 144.71 294.28"/><polygon class="cls-2" points="71.98 294.28 68.53 296.27 71.98 298.27 71.98 294.28"/><line class="cls-1" x1="541.88" y1="432.43" x2="467.99" y2="432.43"/><polygon class="cls-2" points="541.3 430.44 544.75 432.43 541.3 434.43 541.3 430.44"/><polygon class="cls-2" points="468.57 430.44 465.12 432.43 468.57 434.43 468.57 430.44"/><line class="cls-1" x1="413.29" y1="432.43" x2="339.39" y2="432.43"/><polygon class="cls-2" points="412.71 430.44 416.16 432.43 412.71 434.43 412.71 430.44"/><polygon class="cls-2" points="339.98 430.44 336.52 432.43 339.98 434.43 339.98 430.44"/><line class="cls-1" x1="280.37" y1="432.43" x2="206.48" y2="432.43"/><polygon class="cls-2" points="279.79 430.44 283.24 432.43 279.79 434.43 279.79 430.44"/><polygon class="cls-2" points="207.06 430.44 203.61 432.43 207.06 434.43 207.06 430.44"/><line class="cls-1" x1="145.29" y1="432.43" x2="71.4" y2="432.43"/><polygon class="cls-2" points="144.71 430.44 148.16 432.43 144.71 434.43 144.71 430.44"/><polygon class="cls-2" points="71.98 430.44 68.53 432.43 71.98 434.43 71.98 430.44"/><line class="cls-1" x1="172.1" y1="74.27" x2="172.1" y2="126.55"/><polygon class="cls-2" points="170.11 74.85 172.1 71.4 174.1 74.85 170.11 74.85"/><polygon class="cls-2" points="170.11 125.97 172.1 129.42 174.1 125.97 170.11 125.97"/><line class="cls-1" x1="440.1" y1="74.27" x2="440.1" y2="126.55"/><polygon class="cls-2" points="438.1 74.85 440.1 71.4 442.09 74.85 438.1 74.85"/><polygon class="cls-2" points="438.1 125.97 440.1 129.42 442.09 125.97 438.1 125.97"/><line class="cls-1" x1="573.02" y1="74.27" x2="573.02" y2="126.55"/><polygon class="cls-2" points="571.02 74.85 573.02 71.4 575.01 74.85 571.02 74.85"/><polygon class="cls-2" points="571.02 125.97 573.02 129.42 575.01 125.97 571.02 125.97"/><line class="cls-1" x1="38.11" y1="205.29" x2="38.11" y2="257.57"/><polygon class="cls-2" points="36.11 205.88 38.11 202.42 40.1 205.88 36.11 205.88"/><polygon class="cls-2" points="36.11 256.99 38.11 260.44 40.1 256.99 36.11 256.99"/><line class="cls-1" x1="172.1" y1="205.29" x2="172.1" y2="257.57"/><polygon class="cls-2" points="170.11 205.88 172.1 202.42 174.1 205.88 170.11 205.88"/><polygon class="cls-2" points="170.11 256.99 172.1 260.44 174.1 256.99 170.11 256.99"/><line class="cls-1" x1="439.02" y1="205.29" x2="439.02" y2="257.57"/><polygon class="cls-2" points="437.02 205.88 439.02 202.42 441.01 205.88 437.02 205.88"/><polygon class="cls-2" points="437.02 256.99 439.02 260.44 441.01 256.99 437.02 256.99"/><line class="cls-1" x1="573.02" y1="205.29" x2="573.02" y2="257.57"/><polygon class="cls-2" points="571.02 205.88 573.02 202.42 575.01 205.88 571.02 205.88"/><polygon class="cls-2" points="571.02 256.99 573.02 260.44 575.01 256.99 571.02 256.99"/><line class="cls-1" x1="38.11" y1="340.64" x2="38.11" y2="392.92"/><polygon class="cls-2" points="36.11 341.23 38.11 337.77 40.1 341.23 36.11 341.23"/><polygon class="cls-2" points="36.11 392.34 38.11 395.79 40.1 392.34 36.11 392.34"/><line class="cls-1" x1="172.1" y1="340.64" x2="172.1" y2="392.92"/><polygon class="cls-2" points="170.11 341.23 172.1 337.77 174.1 341.23 170.11 341.23"/><polygon class="cls-2" points="170.11 392.34 172.1 395.79 174.1 392.34 170.11 392.34"/><line class="cls-1" x1="436.86" y1="340.64" x2="436.86" y2="392.92"/><polygon class="cls-2" points="434.86 341.23 436.86 337.77 438.85 341.23 434.86 341.23"/><polygon class="cls-2" points="434.86 392.34 436.86 395.79 438.85 392.34 434.86 392.34"/><line class="cls-1" x1="573.02" y1="340.64" x2="573.02" y2="392.92"/><polygon class="cls-2" points="571.02 341.23 573.02 337.77 575.01 341.23 571.02 341.23"/><polygon class="cls-2" points="571.02 392.34 573.02 395.79 575.01 392.34 571.02 392.34"/><circle class="cls-3" cx="572.97" cy="219.5" r="5.81"/><circle class="cls-3" cx="572.97" cy="219.5" r="4.39"/><path d="M573.75,222.1h-.81v-3.91l-1.19.41v-.68l1.9-.7h.1Z"/><circle class="cls-3" cx="438.97" cy="244.35" r="5.81"/><circle class="cls-3" cx="438.97" cy="244.35" r="4.39"/><path d="M439.75,247h-.81v-3.91l-1.19.41v-.69l1.9-.7h.1Z"/><circle class="cls-3" cx="440.06" cy="112.52" r="5.81"/><circle class="cls-3" cx="440.06" cy="112.52" r="4.39"/><path d="M440.83,115.12H440v-3.91l-1.19.41v-.68l1.9-.7h.1Z"/><circle class="cls-3" cx="572.97" cy="112.52" r="5.81"/><circle class="cls-3" cx="572.97" cy="112.52" r="4.39"/><path d="M573.75,115.12h-.81v-3.91l-1.19.41v-.68l1.9-.7h.1Z"/><circle class="cls-3" cx="38.06" cy="88.74" r="5.81"/><circle class="cls-3" cx="38.06" cy="88.74" r="4.39"/><path d="M38.84,91.35H38V87.44l-1.19.4v-.68l1.9-.7h.1Z"/><circle class="cls-3" cx="38.06" cy="242.19" r="5.81"/><circle class="cls-3" cx="38.06" cy="242.19" r="4.39"/><path d="M38.84,244.8H38v-3.91l-1.19.4v-.68l1.9-.7h.1Z"/><circle class="cls-3" cx="172.06" cy="217.34" r="5.81"/><circle class="cls-3" cx="172.06" cy="217.34" r="4.39"/><path d="M172.84,219.94H172V216l-1.2.41v-.68l1.9-.7h.11Z"/><circle class="cls-3" cx="172.06" cy="114.68" r="5.81"/><circle class="cls-3" cx="172.06" cy="114.68" r="4.39"/><path d="M172.84,117.28H172v-3.91l-1.2.41v-.68l1.9-.7h.11Z"/><rect x="561.61" y="230.19" width="24.27" height="15.55"/><rect class="cls-4" x="561.61" y="229.89" width="24.27" height="1.34"/><text class="cls-5" transform="translate(564.11 234.64)"># get <tspan class="cls-6" x="1.83" y="0">r</tspan><tspan x="2.08" y="0">obot&apos;s ID</tspan><tspan x="0" y="1.58">$</tspan><tspan class="cls-7" x="0.41" y="1.58">p</tspan><tspan x="0.85" y="1.58">ython3 -m bosdyn.client 192.168.80.3 id</tspan><tspan x="0" y="3.16">beta-B</tspan><tspan class="cls-8" x="2.16" y="3.16">D</tspan><tspan x="2.7" y="3.16" xml:space="preserve">-90490007     02-19904-9903   beta29     spot </tspan><tspan class="cls-9" x="17.24" y="3.16">(</tspan><tspan x="17.5" y="3.16">V3)</tspan><tspan class="cls-10"><tspan x="0" y="4.74">Soft</tspan><tspan class="cls-11" x="1.34" y="4.74">ware: 2.3.3 (b11205d698e 2020-12-11 11:53:12)</tspan></tspan><tspan class="cls-12" x="0" y="6.32">I</tspan><tspan x="0.2" y="6.32">nstalled: 2020-12-11 15:06:57</tspan></text><circle class="cls-3" cx="525.23" cy="25.04" r="5.81"/><circle class="cls-3" cx="525.23" cy="25.04" r="4.39"/><path d="M526,27.64h-.81V23.73l-1.2.41v-.68l1.9-.7H526Z"/><rect x="487.17" y="16.64" width="24.27" height="15.55"/><rect class="cls-4" x="487.17" y="16.35" width="24.27" height="1.34"/><text class="cls-5" transform="translate(489.67 21.1)"># get <tspan class="cls-6" x="1.83" y="0">r</tspan><tspan x="2.08" y="0">obot&apos;s ID</tspan><tspan x="0" y="1.58">$</tspan><tspan class="cls-7" x="0.41" y="1.58">p</tspan><tspan x="0.85" y="1.58">ython3 -m bosdyn.client 192.168.80.3 id</tspan><tspan x="0" y="3.16">beta-B</tspan><tspan class="cls-8" x="2.16" y="3.16">D</tspan><tspan x="2.7" y="3.16" xml:space="preserve">-90490007     02-19904-9903   beta29     spot </tspan><tspan class="cls-9" x="17.24" y="3.16">(</tspan><tspan x="17.5" y="3.16">V3)</tspan><tspan class="cls-10"><tspan x="0" y="4.74">Soft</tspan><tspan class="cls-11" x="1.34" y="4.74">ware: 2.3.3 (b11205d698e 2020-12-11 11:53:12)</tspan></tspan><tspan class="cls-12" x="0" y="6.32">I</tspan><tspan x="0.2" y="6.32">nstalled: 2020-12-11 15:06:57</tspan></text><circle class="cls-3" cx="525.23" cy="162.28" r="5.81"/><circle class="cls-3" cx="525.23" cy="162.28" r="4.39"/><path d="M526,164.88h-.81V161l-1.2.41v-.68l1.9-.7H526Z"/><rect x="487.17" y="153.88" width="24.27" height="15.55"/><rect class="cls-4" x="487.17" y="153.58" width="24.27" height="1.34"/><text class="cls-5" transform="translate(489.67 158.34)"># get <tspan class="cls-6" x="1.83" y="0">r</tspan><tspan x="2.08" y="0">obot&apos;s ID</tspan><tspan x="0" y="1.58">$</tspan><tspan class="cls-7" x="0.41" y="1.58">p</tspan><tspan x="0.85" y="1.58">ython3 -m bosdyn.client 192.168.80.3 id</tspan><tspan x="0" y="3.16">beta-B</tspan><tspan class="cls-8" x="2.16" y="3.16">D</tspan><tspan x="2.7" y="3.16" xml:space="preserve">-90490007     02-19904-9903   beta29     spot </tspan><tspan class="cls-9" x="17.24" y="3.16">(</tspan><tspan x="17.5" y="3.16">V3)</tspan><tspan class="cls-10"><tspan x="0" y="4.74">Soft</tspan><tspan class="cls-11" x="1.34" y="4.74">ware: 2.3.3 (b11205d698e 2020-12-11 11:53:12)</tspan></tspan><tspan class="cls-12" x="0" y="6.32">I</tspan><tspan x="0.2" y="6.32">nstalled: 2020-12-11 15:06:57</tspan></text><circle class="cls-3" cx="264.8" cy="25.04" r="5.81"/><circle class="cls-3" cx="264.8" cy="25.04" r="4.39"/><path d="M265.57,27.64h-.8V23.73l-1.2.41v-.68l1.9-.7h.1Z"/><circle class="cls-3" cx="86.49" cy="25.04" r="5.81"/><circle class="cls-3" cx="86.49" cy="25.04" r="4.39"/><path d="M87.27,27.64h-.81V23.73l-1.19.41v-.68l1.9-.7h.1Z"/><rect x="226.74" y="16.64" width="24.27" height="15.55"/><rect class="cls-4" x="226.74" y="16.35" width="24.27" height="1.34"/><text class="cls-5" transform="translate(229.24 21.1)"># get <tspan class="cls-6" x="1.83" y="0">r</tspan><tspan x="2.08" y="0">obot&apos;s ID</tspan><tspan x="0" y="1.58">$</tspan><tspan class="cls-7" x="0.41" y="1.58">p</tspan><tspan x="0.85" y="1.58">ython3 -m bosdyn.client 192.168.80.3 id</tspan><tspan x="0" y="3.16">beta-B</tspan><tspan class="cls-8" x="2.16" y="3.16">D</tspan><tspan x="2.7" y="3.16" xml:space="preserve">-90490007     02-19904-9903   beta29     spot </tspan><tspan class="cls-9" x="17.24" y="3.16">(</tspan><tspan x="17.5" y="3.16">V3)</tspan><tspan class="cls-10"><tspan x="0" y="4.74">Soft</tspan><tspan class="cls-11" x="1.34" y="4.74">ware: 2.3.3 (b11205d698e 2020-12-11 11:53:12)</tspan></tspan><tspan class="cls-12" x="0" y="6.32">I</tspan><tspan x="0.2" y="6.32">nstalled: 2020-12-11 15:06:57</tspan></text><rect x="102.47" y="16.64" width="24.27" height="15.55"/><rect class="cls-4" x="102.47" y="16.35" width="24.27" height="1.34"/><text class="cls-5" transform="translate(104.97 21.1)"># get <tspan class="cls-6" x="1.83" y="0">r</tspan><tspan x="2.08" y="0">obot&apos;s ID</tspan><tspan x="0" y="1.58">$</tspan><tspan class="cls-7" x="0.41" y="1.58">p</tspan><tspan x="0.85" y="1.58">ython3 -m bosdyn.client 192.168.80.3 id</tspan><tspan x="0" y="3.16">beta-B</tspan><tspan class="cls-8" x="2.16" y="3.16">D</tspan><tspan x="2.7" y="3.16" xml:space="preserve">-90490007     02-19904-9903   beta29     spot </tspan><tspan class="cls-9" x="17.24" y="3.16">(</tspan><tspan x="17.5" y="3.16">V3)</tspan><tspan class="cls-10"><tspan x="0" y="4.74">Soft</tspan><tspan class="cls-11" x="1.34" y="4.74">ware: 2.3.3 (b11205d698e 2020-12-11 11:53:12)</tspan></tspan><tspan class="cls-12" x="0" y="6.32">I</tspan><tspan x="0.2" y="6.32">nstalled: 2020-12-11 15:06:57</tspan></text><circle class="cls-3" cx="395.55" cy="25.04" r="5.81"/><circle class="cls-3" cx="395.55" cy="25.04" r="4.39"/><path d="M396.33,27.64h-.81V23.73l-1.19.41v-.68l1.9-.7h.1Z"/><rect x="357.5" y="16.64" width="24.27" height="15.55"/><rect class="cls-4" x="357.5" y="16.35" width="24.27" height="1.34"/><text class="cls-5" transform="translate(359.99 21.1)"># get <tspan class="cls-6" x="1.83" y="0">r</tspan><tspan x="2.08" y="0">obot&apos;s ID</tspan><tspan x="0" y="1.58">$</tspan><tspan class="cls-7" x="0.41" y="1.58">p</tspan><tspan x="0.85" y="1.58">ython3 -m bosdyn.client 192.168.80.3 id</tspan><tspan x="0" y="3.16">beta-B</tspan><tspan class="cls-8" x="2.16" y="3.16">D</tspan><tspan x="2.7" y="3.16" xml:space="preserve">-90490007     02-19904-9903   beta29     spot </tspan><tspan class="cls-9" x="17.24" y="3.16">(</tspan><tspan x="17.5" y="3.16">V3)</tspan><tspan class="cls-10"><tspan x="0" y="4.74">Soft</tspan><tspan class="cls-11" x="1.34" y="4.74">ware: 2.3.3 (b11205d698e 2020-12-11 11:53:12)</tspan></tspan><tspan class="cls-12" x="0" y="6.32">I</tspan><tspan x="0.2" y="6.32">nstalled: 2020-12-11 15:06:57</tspan></text><circle class="cls-3" cx="528.47" cy="296.27" r="5.81"/><circle class="cls-3" cx="528.47" cy="296.27" r="4.39"/><path d="M529.25,298.88h-.81V295l-1.2.41v-.69l1.9-.69h.11Z"/><circle class="cls-3" cx="479.84" cy="296.27" r="5.81"/><circle class="cls-3" cx="479.84" cy="296.27" r="4.39"/><path d="M480.62,298.88h-.81V295l-1.19.41v-.69l1.9-.69h.1Z"/><rect x="493.66" y="287.88" width="24.27" height="15.55"/><rect class="cls-4" x="493.66" y="287.58" width="24.27" height="1.34"/><text class="cls-5" transform="translate(496.15 292.33)"># get <tspan class="cls-6" x="1.83" y="0">r</tspan><tspan x="2.08" y="0">obot&apos;s ID</tspan><tspan x="0" y="1.58">$</tspan><tspan class="cls-7" x="0.41" y="1.58">p</tspan><tspan x="0.85" y="1.58">ython3 -m bosdyn.client 192.168.80.3 id</tspan><tspan x="0" y="3.16">beta-B</tspan><tspan class="cls-8" x="2.16" y="3.16">D</tspan><tspan x="2.7" y="3.16" xml:space="preserve">-90490007     02-19904-9903   beta29     spot </tspan><tspan class="cls-9" x="17.24" y="3.16">(</tspan><tspan x="17.5" y="3.16">V3)</tspan><tspan class="cls-10"><tspan x="0" y="4.74">Soft</tspan><tspan class="cls-11" x="1.34" y="4.74">ware: 2.3.3 (b11205d698e 2020-12-11 11:53:12)</tspan></tspan><tspan class="cls-12" x="0" y="6.32">I</tspan><tspan x="0.2" y="6.32">nstalled: 2020-12-11 15:06:57</tspan></text><rect x="562.82" y="357.04" width="24.27" height="15.55"/><rect class="cls-4" x="562.82" y="356.74" width="24.27" height="1.34"/><text class="cls-5" transform="translate(565.31 361.49)"># get <tspan class="cls-6" x="1.83" y="0">r</tspan><tspan x="2.08" y="0">obot&apos;s ID</tspan><tspan x="0" y="1.58">$</tspan><tspan class="cls-7" x="0.41" y="1.58">p</tspan><tspan x="0.85" y="1.58">ython3 -m bosdyn.client 192.168.80.3 id</tspan><tspan x="0" y="3.16">beta-B</tspan><tspan class="cls-8" x="2.16" y="3.16">D</tspan><tspan x="2.7" y="3.16" xml:space="preserve">-90490007     02-19904-9903   beta29     spot </tspan><tspan class="cls-9" x="17.24" y="3.16">(</tspan><tspan x="17.5" y="3.16">V3)</tspan><tspan class="cls-10"><tspan x="0" y="4.74">Soft</tspan><tspan class="cls-11" x="1.34" y="4.74">ware: 2.3.3 (b11205d698e 2020-12-11 11:53:12)</tspan></tspan><tspan class="cls-12" x="0" y="6.32">I</tspan><tspan x="0.2" y="6.32">nstalled: 2020-12-11 15:06:57</tspan></text><rect x="424.5" y="357.04" width="24.27" height="15.55"/><rect class="cls-4" x="424.5" y="356.74" width="24.27" height="1.34"/><text class="cls-5" transform="translate(426.99 361.49)"># get <tspan class="cls-6" x="1.83" y="0">r</tspan><tspan x="2.08" y="0">obot&apos;s ID</tspan><tspan x="0" y="1.58">$</tspan><tspan class="cls-7" x="0.41" y="1.58">p</tspan><tspan x="0.85" y="1.58">ython3 -m bosdyn.client 192.168.80.3 id</tspan><tspan x="0" y="3.16">beta-B</tspan><tspan class="cls-8" x="2.16" y="3.16">D</tspan><tspan x="2.7" y="3.16" xml:space="preserve">-90490007     02-19904-9903   beta29     spot </tspan><tspan class="cls-9" x="17.24" y="3.16">(</tspan><tspan x="17.5" y="3.16">V3)</tspan><tspan class="cls-10"><tspan x="0" y="4.74">Soft</tspan><tspan class="cls-11" x="1.34" y="4.74">ware: 2.3.3 (b11205d698e 2020-12-11 11:53:12)</tspan></tspan><tspan class="cls-12" x="0" y="6.32">I</tspan><tspan x="0.2" y="6.32">nstalled: 2020-12-11 15:06:57</tspan></text><rect x="160.82" y="357.04" width="24.27" height="15.55"/><rect class="cls-4" x="160.82" y="356.74" width="24.27" height="1.34"/><text class="cls-5" transform="translate(163.32 361.49)"># get <tspan class="cls-6" x="1.83" y="0">r</tspan><tspan x="2.08" y="0">obot&apos;s ID</tspan><tspan x="0" y="1.58">$</tspan><tspan class="cls-7" x="0.41" y="1.58">p</tspan><tspan x="0.85" y="1.58">ython3 -m bosdyn.client 192.168.80.3 id</tspan><tspan x="0" y="3.16">beta-B</tspan><tspan class="cls-8" x="2.16" y="3.16">D</tspan><tspan x="2.7" y="3.16" xml:space="preserve">-90490007     02-19904-9903   beta29     spot </tspan><tspan class="cls-9" x="17.24" y="3.16">(</tspan><tspan x="17.5" y="3.16">V3)</tspan><tspan class="cls-10"><tspan x="0" y="4.74">Soft</tspan><tspan class="cls-11" x="1.34" y="4.74">ware: 2.3.3 (b11205d698e 2020-12-11 11:53:12)</tspan></tspan><tspan class="cls-12" x="0" y="6.32">I</tspan><tspan x="0.2" y="6.32">nstalled: 2020-12-11 15:06:57</tspan></text><rect x="25.75" y="357.04" width="24.27" height="15.55"/><rect class="cls-4" x="25.75" y="356.74" width="24.27" height="1.34"/><text class="cls-5" transform="translate(28.24 361.49)"># get <tspan class="cls-6" x="1.83" y="0">r</tspan><tspan x="2.08" y="0">obot&apos;s ID</tspan><tspan x="0" y="1.58">$</tspan><tspan class="cls-7" x="0.41" y="1.58">p</tspan><tspan x="0.85" y="1.58">ython3 -m bosdyn.client 192.168.80.3 id</tspan><tspan x="0" y="3.16">beta-B</tspan><tspan class="cls-8" x="2.16" y="3.16">D</tspan><tspan x="2.7" y="3.16" xml:space="preserve">-90490007     02-19904-9903   beta29     spot </tspan><tspan class="cls-9" x="17.24" y="3.16">(</tspan><tspan x="17.5" y="3.16">V3)</tspan><tspan class="cls-10"><tspan x="0" y="4.74">Soft</tspan><tspan class="cls-11" x="1.34" y="4.74">ware: 2.3.3 (b11205d698e 2020-12-11 11:53:12)</tspan></tspan><tspan class="cls-12" x="0" y="6.32">I</tspan><tspan x="0.2" y="6.32">nstalled: 2020-12-11 15:06:57</tspan></text><circle class="cls-3" cx="524.15" cy="433.51" r="5.81"/><circle class="cls-3" cx="524.15" cy="433.51" r="4.39"/><path d="M524.92,436.12h-.8v-3.91l-1.2.41v-.69l1.9-.69h.1Z"/><rect x="489.33" y="425.12" width="24.27" height="15.55"/><rect class="cls-4" x="489.33" y="424.82" width="24.27" height="1.34"/><text class="cls-5" transform="translate(491.83 429.57)"># get <tspan class="cls-6" x="1.83" y="0">r</tspan><tspan x="2.08" y="0">obot&apos;s ID</tspan><tspan x="0" y="1.58">$</tspan><tspan class="cls-7" x="0.41" y="1.58">p</tspan><tspan x="0.85" y="1.58">ython3 -m bosdyn.client 192.168.80.3 id</tspan><tspan x="0" y="3.16">beta-B</tspan><tspan class="cls-8" x="2.16" y="3.16">D</tspan><tspan x="2.7" y="3.16" xml:space="preserve">-90490007     02-19904-9903   beta29     spot </tspan><tspan class="cls-9" x="17.24" y="3.16">(</tspan><tspan x="17.5" y="3.16">V3)</tspan><tspan class="cls-10"><tspan x="0" y="4.74">Soft</tspan><tspan class="cls-11" x="1.34" y="4.74">ware: 2.3.3 (b11205d698e 2020-12-11 11:53:12)</tspan></tspan><tspan class="cls-12" x="0" y="6.32">I</tspan><tspan x="0.2" y="6.32">nstalled: 2020-12-11 15:06:57</tspan></text><rect x="77.62" y="287.88" width="24.27" height="15.55"/><rect class="cls-4" x="77.62" y="287.58" width="24.27" height="1.34"/><text class="cls-5" transform="translate(80.11 292.33)"># get <tspan class="cls-6" x="1.83" y="0">r</tspan><tspan x="2.08" y="0">obot&apos;s ID</tspan><tspan x="0" y="1.58">$</tspan><tspan class="cls-7" x="0.41" y="1.58">p</tspan><tspan x="0.85" y="1.58">ython3 -m bosdyn.client 192.168.80.3 id</tspan><tspan x="0" y="3.16">beta-B</tspan><tspan class="cls-8" x="2.16" y="3.16">D</tspan><tspan x="2.7" y="3.16" xml:space="preserve">-90490007     02-19904-9903   beta29     spot </tspan><tspan class="cls-9" x="17.24" y="3.16">(</tspan><tspan x="17.5" y="3.16">V3)</tspan><tspan class="cls-10"><tspan x="0" y="4.74">Soft</tspan><tspan class="cls-11" x="1.34" y="4.74">ware: 2.3.3 (b11205d698e 2020-12-11 11:53:12)</tspan></tspan><tspan class="cls-12" x="0" y="6.32">I</tspan><tspan x="0.2" y="6.32">nstalled: 2020-12-11 15:06:57</tspan></text><rect x="83.02" y="152.8" width="24.27" height="15.55"/><rect class="cls-4" x="83.02" y="152.5" width="24.27" height="1.34"/><text class="cls-5" transform="translate(85.51 157.26)"># get <tspan class="cls-6" x="1.83" y="0">r</tspan><tspan x="2.08" y="0">obot&apos;s ID</tspan><tspan x="0" y="1.58">$</tspan><tspan class="cls-7" x="0.41" y="1.58">p</tspan><tspan x="0.85" y="1.58">ython3 -m bosdyn.client 192.168.80.3 id</tspan><tspan x="0" y="3.16">beta-B</tspan><tspan class="cls-8" x="2.16" y="3.16">D</tspan><tspan x="2.7" y="3.16" xml:space="preserve">-90490007     02-19904-9903   beta29     spot </tspan><tspan class="cls-9" x="17.24" y="3.16">(</tspan><tspan x="17.5" y="3.16">V3)</tspan><tspan class="cls-10"><tspan x="0" y="4.74">Soft</tspan><tspan class="cls-11" x="1.34" y="4.74">ware: 2.3.3 (b11205d698e 2020-12-11 11:53:12)</tspan></tspan><tspan class="cls-12" x="0" y="6.32">I</tspan><tspan x="0.2" y="6.32">nstalled: 2020-12-11 15:06:57</tspan></text><rect x="26.83" y="216.56" width="24.27" height="15.55"/><rect class="cls-4" x="26.83" y="216.26" width="24.27" height="1.34"/><text class="cls-5" transform="translate(29.32 221.01)"># get <tspan class="cls-6" x="1.83" y="0">r</tspan><tspan x="2.08" y="0">obot&apos;s ID</tspan><tspan x="0" y="1.58">$</tspan><tspan class="cls-7" x="0.41" y="1.58">p</tspan><tspan x="0.85" y="1.58">ython3 -m bosdyn.client 192.168.80.3 id</tspan><tspan x="0" y="3.16">beta-B</tspan><tspan class="cls-8" x="2.16" y="3.16">D</tspan><tspan x="2.7" y="3.16" xml:space="preserve">-90490007     02-19904-9903   beta29     spot </tspan><tspan class="cls-9" x="17.24" y="3.16">(</tspan><tspan x="17.5" y="3.16">V3)</tspan><tspan class="cls-10"><tspan x="0" y="4.74">Soft</tspan><tspan class="cls-11" x="1.34" y="4.74">ware: 2.3.3 (b11205d698e 2020-12-11 11:53:12)</tspan></tspan><tspan class="cls-12" x="0" y="6.32">I</tspan><tspan x="0.2" y="6.32">nstalled: 2020-12-11 15:06:57</tspan></text><rect x="428.82" y="216.56" width="24.27" height="15.55"/><rect class="cls-4" x="428.82" y="216.26" width="24.27" height="1.34"/><text class="cls-5" transform="translate(431.32 221.01)"># get <tspan class="cls-6" x="1.83" y="0">r</tspan><tspan x="2.08" y="0">obot&apos;s ID</tspan><tspan x="0" y="1.58">$</tspan><tspan class="cls-7" x="0.41" y="1.58">p</tspan><tspan x="0.85" y="1.58">ython3 -m bosdyn.client 192.168.80.3 id</tspan><tspan x="0" y="3.16">beta-B</tspan><tspan class="cls-8" x="2.16" y="3.16">D</tspan><tspan x="2.7" y="3.16" xml:space="preserve">-90490007     02-19904-9903   beta29     spot </tspan><tspan class="cls-9" x="17.24" y="3.16">(</tspan><tspan x="17.5" y="3.16">V3)</tspan><tspan class="cls-10"><tspan x="0" y="4.74">Soft</tspan><tspan class="cls-11" x="1.34" y="4.74">ware: 2.3.3 (b11205d698e 2020-12-11 11:53:12)</tspan></tspan><tspan class="cls-12" x="0" y="6.32">I</tspan><tspan x="0.2" y="6.32">nstalled: 2020-12-11 15:06:57</tspan></text><rect x="159.74" y="227.37" width="24.27" height="15.55"/><rect class="cls-4" x="159.74" y="227.07" width="24.27" height="1.34"/><text class="cls-5" transform="translate(162.24 231.82)"># get <tspan class="cls-6" x="1.83" y="0">r</tspan><tspan x="2.08" y="0">obot&apos;s ID</tspan><tspan x="0" y="1.58">$</tspan><tspan class="cls-7" x="0.41" y="1.58">p</tspan><tspan x="0.85" y="1.58">ython3 -m bosdyn.client 192.168.80.3 id</tspan><tspan x="0" y="3.16">beta-B</tspan><tspan class="cls-8" x="2.16" y="3.16">D</tspan><tspan x="2.7" y="3.16" xml:space="preserve">-90490007     02-19904-9903   beta29     spot </tspan><tspan class="cls-9" x="17.24" y="3.16">(</tspan><tspan x="17.5" y="3.16">V3)</tspan><tspan class="cls-10"><tspan x="0" y="4.74">Soft</tspan><tspan class="cls-11" x="1.34" y="4.74">ware: 2.3.3 (b11205d698e 2020-12-11 11:53:12)</tspan></tspan><tspan class="cls-12" x="0" y="6.32">I</tspan><tspan x="0.2" y="6.32">nstalled: 2020-12-11 15:06:57</tspan></text><rect x="26.83" y="100.93" width="24.27" height="15.55"/><rect class="cls-4" x="26.83" y="100.63" width="24.27" height="1.34"/><text class="cls-5" transform="translate(29.32 105.39)"># get <tspan class="cls-6" x="1.83" y="0">r</tspan><tspan x="2.08" y="0">obot&apos;s ID</tspan><tspan x="0" y="1.58">$</tspan><tspan class="cls-7" x="0.41" y="1.58">p</tspan><tspan x="0.85" y="1.58">ython3 -m bosdyn.client 192.168.80.3 id</tspan><tspan x="0" y="3.16">beta-B</tspan><tspan class="cls-8" x="2.16" y="3.16">D</tspan><tspan x="2.7" y="3.16" xml:space="preserve">-90490007     02-19904-9903   beta29     spot </tspan><tspan class="cls-9" x="17.24" y="3.16">(</tspan><tspan x="17.5" y="3.16">V3)</tspan><tspan class="cls-10"><tspan x="0" y="4.74">Soft</tspan><tspan class="cls-11" x="1.34" y="4.74">ware: 2.3.3 (b11205d698e 2020-12-11 11:53:12)</tspan></tspan><tspan class="cls-12" x="0" y="6.32">I</tspan><tspan x="0.2" y="6.32">nstalled: 2020-12-11 15:06:57</tspan></text><rect x="159.74" y="90.13" width="24.27" height="15.55"/><rect class="cls-4" x="159.74" y="89.83" width="24.27" height="1.34"/><text class="cls-5" transform="translate(162.24 94.58)"># get <tspan class="cls-6" x="1.83" y="0">r</tspan><tspan x="2.08" y="0">obot&apos;s ID</tspan><tspan x="0" y="1.58">$</tspan><tspan class="cls-7" x="0.41" y="1.58">p</tspan><tspan x="0.85" y="1.58">ython3 -m bosdyn.client 192.168.80.3 id</tspan><tspan x="0" y="3.16">beta-B</tspan><tspan class="cls-8" x="2.16" y="3.16">D</tspan><tspan x="2.7" y="3.16" xml:space="preserve">-90490007     02-19904-9903   beta29     spot </tspan><tspan class="cls-9" x="17.24" y="3.16">(</tspan><tspan x="17.5" y="3.16">V3)</tspan><tspan class="cls-10"><tspan x="0" y="4.74">Soft</tspan><tspan class="cls-11" x="1.34" y="4.74">ware: 2.3.3 (b11205d698e 2020-12-11 11:53:12)</tspan></tspan><tspan class="cls-12" x="0" y="6.32">I</tspan><tspan x="0.2" y="6.32">nstalled: 2020-12-11 15:06:57</tspan></text><rect x="428.82" y="85.8" width="24.27" height="15.55"/><rect class="cls-4" x="428.82" y="85.51" width="24.27" height="1.34"/><text class="cls-5" transform="translate(431.32 90.26)"># get <tspan class="cls-6" x="1.83" y="0">r</tspan><tspan x="2.08" y="0">obot&apos;s ID</tspan><tspan x="0" y="1.58">$</tspan><tspan class="cls-7" x="0.41" y="1.58">p</tspan><tspan x="0.85" y="1.58">ython3 -m bosdyn.client 192.168.80.3 id</tspan><tspan x="0" y="3.16">beta-B</tspan><tspan class="cls-8" x="2.16" y="3.16">D</tspan><tspan x="2.7" y="3.16" xml:space="preserve">-90490007     02-19904-9903   beta29     spot </tspan><tspan class="cls-9" x="17.24" y="3.16">(</tspan><tspan x="17.5" y="3.16">V3)</tspan><tspan class="cls-10"><tspan x="0" y="4.74">Soft</tspan><tspan class="cls-11" x="1.34" y="4.74">ware: 2.3.3 (b11205d698e 2020-12-11 11:53:12)</tspan></tspan><tspan class="cls-12" x="0" y="6.32">I</tspan><tspan x="0.2" y="6.32">nstalled: 2020-12-11 15:06:57</tspan></text><rect x="559.58" y="80.4" width="24.27" height="15.55"/><rect class="cls-4" x="559.58" y="80.1" width="24.27" height="1.34"/><text class="cls-5" transform="translate(562.07 84.85)"># get <tspan class="cls-6" x="1.83" y="0">r</tspan><tspan x="2.08" y="0">obot&apos;s ID</tspan><tspan x="0" y="1.58">$</tspan><tspan class="cls-7" x="0.41" y="1.58">p</tspan><tspan x="0.85" y="1.58">ython3 -m bosdyn.client 192.168.80.3 id</tspan><tspan x="0" y="3.16">beta-B</tspan><tspan class="cls-8" x="2.16" y="3.16">D</tspan><tspan x="2.7" y="3.16" xml:space="preserve">-90490007     02-19904-9903   beta29     spot </tspan><tspan class="cls-9" x="17.24" y="3.16">(</tspan><tspan x="17.5" y="3.16">V3)</tspan><tspan class="cls-10"><tspan x="0" y="4.74">Soft</tspan><tspan class="cls-11" x="1.34" y="4.74">ware: 2.3.3 (b11205d698e 2020-12-11 11:53:12)</tspan></tspan><tspan class="cls-12" x="0" y="6.32">I</tspan><tspan x="0.2" y="6.32">nstalled: 2020-12-11 15:06:57</tspan></text><circle class="cls-3" cx="113.51" cy="296.27" r="5.81"/><circle class="cls-3" cx="113.51" cy="296.27" r="4.39"/><path d="M114.29,298.88h-.81V295l-1.2.41v-.69l1.9-.69h.11Z"/><circle class="cls-3" cx="125.86" cy="161.2" r="5.81"/><circle class="cls-3" cx="125.86" cy="161.2" r="4.39"/><path d="M126.63,163.8h-.81v-3.91l-1.19.41v-.68l1.9-.7h.1Z"/><rect x="83.02" y="424.04" width="24.27" height="15.55"/><rect class="cls-4" x="83.02" y="423.74" width="24.27" height="1.34"/><text class="cls-5" transform="translate(85.51 428.49)"># get <tspan class="cls-6" x="1.83" y="0">r</tspan><tspan x="2.08" y="0">obot&apos;s ID</tspan><tspan x="0" y="1.58">$</tspan><tspan class="cls-7" x="0.41" y="1.58">p</tspan><tspan x="0.85" y="1.58">ython3 -m bosdyn.client 192.168.80.3 id</tspan><tspan x="0" y="3.16">beta-B</tspan><tspan class="cls-8" x="2.16" y="3.16">D</tspan><tspan x="2.7" y="3.16" xml:space="preserve">-90490007     02-19904-9903   beta29     spot </tspan><tspan class="cls-9" x="17.24" y="3.16">(</tspan><tspan x="17.5" y="3.16">V3)</tspan><tspan class="cls-10"><tspan x="0" y="4.74">Soft</tspan><tspan class="cls-11" x="1.34" y="4.74">ware: 2.3.3 (b11205d698e 2020-12-11 11:53:12)</tspan></tspan><tspan class="cls-12" x="0" y="6.32">I</tspan><tspan x="0.2" y="6.32">nstalled: 2020-12-11 15:06:57</tspan></text><circle class="cls-3" cx="122.83" cy="432.43" r="5.81"/><circle class="cls-3" cx="122.83" cy="432.43" r="4.39"/><path d="M123.61,435h-.81v-3.91l-1.19.4v-.68l1.9-.7h.1Z"/><rect x="215.94" y="424.04" width="24.27" height="15.55"/><rect class="cls-4" x="215.94" y="423.74" width="24.27" height="1.34"/><text class="cls-5" transform="translate(218.43 428.49)"># get <tspan class="cls-6" x="1.83" y="0">r</tspan><tspan x="2.08" y="0">obot&apos;s ID</tspan><tspan x="0" y="1.58">$</tspan><tspan class="cls-7" x="0.41" y="1.58">p</tspan><tspan x="0.85" y="1.58">ython3 -m bosdyn.client 192.168.80.3 id</tspan><tspan x="0" y="3.16">beta-B</tspan><tspan class="cls-8" x="2.16" y="3.16">D</tspan><tspan x="2.7" y="3.16" xml:space="preserve">-90490007     02-19904-9903   beta29     spot </tspan><tspan class="cls-9" x="17.24" y="3.16">(</tspan><tspan x="17.5" y="3.16">V3)</tspan><tspan class="cls-10"><tspan x="0" y="4.74">Soft</tspan><tspan class="cls-11" x="1.34" y="4.74">ware: 2.3.3 (b11205d698e 2020-12-11 11:53:12)</tspan></tspan><tspan class="cls-12" x="0" y="6.32">I</tspan><tspan x="0.2" y="6.32">nstalled: 2020-12-11 15:06:57</tspan></text><circle class="cls-3" cx="250.75" cy="432.43" r="5.81"/><circle class="cls-3" cx="250.75" cy="432.43" r="4.39"/><path d="M251.53,435h-.81v-3.91l-1.2.4v-.68l1.9-.7h.11Z"/><rect x="361.82" y="424.04" width="24.27" height="15.55"/><rect class="cls-4" x="361.82" y="423.74" width="24.27" height="1.34"/><text class="cls-5" transform="translate(364.32 428.49)"># get <tspan class="cls-6" x="1.83" y="0">r</tspan><tspan x="2.08" y="0">obot&apos;s ID</tspan><tspan x="0" y="1.58">$</tspan><tspan class="cls-7" x="0.41" y="1.58">p</tspan><tspan x="0.85" y="1.58">ython3 -m bosdyn.client 192.168.80.3 id</tspan><tspan x="0" y="3.16">beta-B</tspan><tspan class="cls-8" x="2.16" y="3.16">D</tspan><tspan x="2.7" y="3.16" xml:space="preserve">-90490007     02-19904-9903   beta29     spot </tspan><tspan class="cls-9" x="17.24" y="3.16">(</tspan><tspan x="17.5" y="3.16">V3)</tspan><tspan class="cls-10"><tspan x="0" y="4.74">Soft</tspan><tspan class="cls-11" x="1.34" y="4.74">ware: 2.3.3 (b11205d698e 2020-12-11 11:53:12)</tspan></tspan><tspan class="cls-12" x="0" y="6.32">I</tspan><tspan x="0.2" y="6.32">nstalled: 2020-12-11 15:06:57</tspan></text><circle class="cls-3" cx="396.63" cy="432.43" r="5.81"/><circle class="cls-3" cx="396.63" cy="432.43" r="4.39"/><path d="M397.41,435h-.81v-3.91l-1.19.4v-.68l1.9-.7h.1Z"/><circle class="cls-3" cx="265.88" cy="432.43" r="5.81"/><circle class="cls-3" cx="265.88" cy="432.43" r="4.39"/><path d="M266.66,435h-.81v-3.91l-1.2.4v-.68l1.9-.7h.1Z"/><circle class="cls-3" cx="129.72" cy="296.27" r="5.81"/><circle class="cls-3" cx="129.72" cy="296.27" r="4.39"/><path d="M130.5,298.88h-.81V295l-1.2.41v-.69l1.9-.69h.11Z"/><text class="cls-13" transform="translate(238.65 207.6)">ROBONOMICS</text><circle class="cls-14" cx="171.97" cy="146.6" r="0.95"/><path class="cls-14" d="M166.76,143.7a6,6,0,0,1,9.43-1.32,6.29,6.29,0,0,1,1,1.32"/><path class="cls-14" d="M167.77,144.71a4.82,4.82,0,0,1,.95-1.37,4.62,4.62,0,0,1,6.51,0,4.79,4.79,0,0,1,.94,1.37"/><path class="cls-14" d="M168.84,145.78a3.23,3.23,0,0,1,5.42-1.47,3.15,3.15,0,0,1,.85,1.47"/><line class="cls-14" x1="172.03" y1="148.98" x2="172.03" y2="158.78"/><rect class="cls-15" x="159.57" y="155.9" width="25.31" height="3.53"/><rect class="cls-16" x="180.76" y="152.85" width="2.73" height="3.03"/><rect class="cls-16" x="181.59" y="150.36" width="1.08" height="2.49"/><rect class="cls-15" x="165.84" y="154.12" width="12.78" height="1.76"/><rect class="cls-15" x="169.56" y="159.43" width="5.98" height="4.32"/><polygon class="cls-15" points="176.37 170.55 169 170.55 167.38 163.75 177.98 163.75 176.37 170.55"/><line class="cls-16" x1="177.59" y1="151.23" x2="180.76" y2="151.23"/><line class="cls-16" x1="183.36" y1="151.23" x2="186.53" y2="151.23"/><rect class="cls-16" x="161.09" y="152.85" width="2.73" height="3.03"/><rect class="cls-16" x="161.92" y="150.36" width="1.08" height="2.49"/><line class="cls-16" x1="157.92" y1="151.23" x2="161.09" y2="151.23"/><line class="cls-16" x1="163.69" y1="151.23" x2="166.86" y2="151.23"/><line class="cls-15" x1="175.56" y1="159.44" x2="183.3" y2="161.85"/><line class="cls-15" x1="169.59" y1="159.44" x2="161.85" y2="161.85"/><path class="cls-17" d="M170.48,176.29h0l0-.06s0,0,0,0l2-3.09,1.88,3h0a2.19,2.19,0,0,1,.3,1.11,2.24,2.24,0,1,1-4.24-1Z"/><path class="cls-17" d="M170.48,185.9h0l0-.06,0-.05,2-3.09,1.88,3.06h0a2.24,2.24,0,1,1-3.94.14Z"/><circle class="cls-14" cx="440.18" cy="140.61" r="0.95"/><path class="cls-14" d="M435,137.71a5.92,5.92,0,0,1,1-1.32,6,6,0,0,1,9.44,1.32"/><path class="cls-14" d="M436,138.73a4.61,4.61,0,0,1,7.46-1.37,4.35,4.35,0,0,1,.94,1.37"/><path class="cls-14" d="M437.05,139.79a3.21,3.21,0,0,1,.84-1.47,3.25,3.25,0,0,1,4.58,0,3.15,3.15,0,0,1,.85,1.47"/><line class="cls-14" x1="440.24" y1="143" x2="440.24" y2="152.79"/><path class="cls-15" d="M426.28,181.42l3.31-1.63a1.6,1.6,0,0,1-.64,2.37A1.93,1.93,0,0,1,426.28,181.42Z"/><path class="cls-15" d="M418.21,171.13c-4-1.09-4.3-2.73-4.3-2.73l-2.06-1.33s-2-.12-1.48,1.8,7.17,3.71,9.14,4.47,5.72,3,6.08,5,.69,3.12.69,3.12l3.31-1.63C429.5,179.45,422.2,172.22,418.21,171.13Zm8.41,9.41-.39-1.78a.48.48,0,0,1,.78-.47l1.56,1.34Z"/><circle class="cls-15" cx="428.08" cy="180.82" r="0.27"/><path class="cls-15" d="M424.7,155.07l-10.46,12.48-.1,1.49a1.38,1.38,0,0,1-1.39,1.3h0a1.39,1.39,0,0,1-1.39-1.44l.09-2.77,7.56-11Z"/><path class="cls-15" d="M444.74,180.08l3.66.49a1.61,1.61,0,0,1-1.86,1.61A1.93,1.93,0,0,1,444.74,180.08Z"/><path class="cls-15" d="M443.76,167c-2.72-3.13-2.06-4.65-2.06-4.65l-1-2.26a1.35,1.35,0,0,0-2.23.67c-.66,1.86,3.9,7.08,5.11,8.8s3.1,5.65,2.29,7.51-1.16,3-1.16,3l3.66.49C448.51,180.24,446.47,170.17,443.76,167Zm1.75,12.51.67-1.71a.48.48,0,0,1,.9,0l.55,2Z"/><circle class="cls-15" cx="446.57" cy="180.58" r="0.27"/><path class="cls-15" d="M454.51,158l-11.73,3.22-.92,1.16a1.4,1.4,0,0,1-1.89.27h0a1.39,1.39,0,0,1-.32-2l1.66-2.21,8.92-3.39Z"/><polygon class="cls-15" points="414.25 150.07 416.02 149.15 419.38 148.96 448.34 149.51 451.75 148.75 459.46 148.96 460.96 150.07 461.51 154.59 459.05 158.64 454.73 158.9 447.58 157.93 423.14 157.8 419.78 157.99 412.75 157.22 414.25 150.07"/><path class="cls-15" d="M422.64,151.8h11.53a1.17,1.17,0,0,1,.52.12l3,1.4a2.15,2.15,0,0,0,.9.2h12.54l-.36,2.51,1.69.4-1.38,1.66a1.53,1.53,0,0,1-1.18.55h-4.28a1.53,1.53,0,0,1-1.06.39l-12-.33a1.9,1.9,0,0,1-.41,0l-4-.68a1.27,1.27,0,0,0-.34,0l-6.66.25V158l.64-.07a1,1,0,0,0,.85-.94Z"/><rect class="cls-15" x="425.59" y="151.1" width="7.56" height="1.99" rx="0.65"/><path class="cls-15" d="M421.12,147.7h1.44a.81.81,0,0,1,.81.81V149a0,0,0,0,1,0,0h-3.06a0,0,0,0,1,0,0v-.44A.81.81,0,0,1,421.12,147.7Z"/><path class="cls-15" d="M436.09,147.7h1.44a.81.81,0,0,1,.81.81V149a0,0,0,0,1,0,0h-3.06a0,0,0,0,1,0,0v-.44a.81.81,0,0,1,.81-.81Z"/><path class="cls-15" d="M412,155.68l-.66-3a1.72,1.72,0,0,1,0-.39l.09-1.63a.69.69,0,0,1,.55-.65l5.35-1.24H461V149h-9l-.21,2.77a.54.54,0,0,1-.53.49H436.5l-3.7-1.85a.63.63,0,0,0-.3-.07h-6.4a.7.7,0,0,0-.37.11l-1,.82a1,1,0,0,1-.54.16H422.7l-.52-1.84a.58.58,0,0,0-.56-.43h-4.56a.78.78,0,0,0-.44.13l-1,.63a.84.84,0,0,0-.39.76l.24,4.08Z"/><path class="cls-15" d="M445.34,148.75h-28.1L411.89,150a.69.69,0,0,0-.55.65l0,.42,3.9-.42a.84.84,0,0,1,.39-.76l1-.63a.78.78,0,0,1,.44-.13h4.56a.58.58,0,0,1,.56.43l.52,1.84h1.52a1,1,0,0,0,.54-.16l1-.82a.7.7,0,0,1,.37-.11h6.4s.07-.67,1.16-.91C435.18,149.05,438.58,148.83,445.34,148.75Z"/><rect class="cls-15" x="429.6" y="151.51" width="2.78" height="1.03" rx="0.34"/><rect class="cls-15" x="427.98" y="151.51" width="1.19" height="1.03" rx="0.34"/><rect class="cls-15" x="426.29" y="151.51" width="1.19" height="1.03" rx="0.34"/><path class="cls-15" d="M459.42,149.15l4.52.73a.7.7,0,0,1,.6.66l0,.73a.66.66,0,0,1-.06.34l-3.35,7.28h-4.08s1.57,0,2.11-1.09c.39-.78,1-2,1.29-2.64a2,2,0,0,0,.2-.87v-3.78a1,1,0,0,0-.57-.92l-.72-.37S459.38,149.14,459.42,149.15Z"/><path class="cls-15" d="M463.64,153.52l-2.47,5.37h-5.81s3.3,0,3.84-1.09c.39-.78,1-2,1.29-2.64a2,2,0,0,0,.2-.87v-2.07Z"/><path class="cls-15" d="M460,158.89h1.18l3.35-7.28a.66.66,0,0,0,.06-.34l0-.73a.7.7,0,0,0-.6-.66,5.73,5.73,0,0,1-.56,2.21l-3.39,6.8"/><path class="cls-15" d="M402.17,164.89l4.31,5.21s4.81,10.29,5.17,10.89.73,1.78.52,1.82h-.8s-.77-2.7-1.46-2.46-1.09,2.46-1.09,2.46H408a28.17,28.17,0,0,1,1.26-2.9c.43-.69-1.47-4.73-4.49-8.2s-6.9-8.11-5.53-9.28S402.17,164.89,402.17,164.89Z"/><path class="cls-15" d="M408,182.81h4.15s.25,1.94-2.08,2A1.79,1.79,0,0,1,408,182.81Z"/><circle class="cls-15" cx="410.01" cy="183.66" r="0.29"/><path class="cls-16" d="M414,155.63s0,.57.42.27.51-5.38,2.45-5.5,2.7,1.69,3,1.65.24-.52.24-.52"/><path class="cls-16" d="M416.13,154.55l.11-.52s-.48-3.67,1-4.07,2.37,2.46,2.37,2.46l.23-.37"/><path class="cls-15" d="M412.29,155.49s0-1.69.76-2.14,1.21-.88,1.36-.63a17.08,17.08,0,0,1,.6,1.6Z"/><polygon class="cls-15" points="416.5 158.44 416.88 159.24 421.66 157.11 421.23 156.2 416.5 158.44"/><path class="cls-15" d="M398.82,165.47l4.12-5.81a.69.69,0,0,1,.18-.16l6.82-3.79a.54.54,0,0,1,.62.06h0a.56.56,0,0,0,.61.07l8.68-4.47a1.65,1.65,0,0,1,2.23.72l.91,1.82a1.65,1.65,0,0,1-.8,2.24l-19,8.51a.61.61,0,0,0-.24.21l-1.35,2.18a.54.54,0,0,1-.71.19l-1.89-1A.53.53,0,0,1,398.82,165.47Z"/><path class="cls-15" d="M419.85,151.37l-8.68,4.47a.56.56,0,0,1-.61-.07h0a.54.54,0,0,0-.62-.06l-6.82,3.79a.69.69,0,0,0-.18.16l-4.12,5.81a.53.53,0,0,0,.19.8,28.15,28.15,0,0,1,2.58-3.88c.55-.44,12.53-6,16.43-7.82a2.75,2.75,0,0,0,1.52-1.87Z"/><path class="cls-15" d="M460.08,183.63l3.55-1.82a1.74,1.74,0,0,1-.65,2.58A2.1,2.1,0,0,1,460.08,183.63Z"/><path class="cls-15" d="M451.3,172.39c-4.26-1.38-4.8-2.59-4.8-2.59l-2.24-1.4s-2.13-.1-1.57,2,7.81,3.88,9.94,4.67,6.23,3.1,6.66,5.25.79,3.35.79,3.35l3.55-1.82C463.52,181.45,456.28,174,451.3,172.39Zm9.14,10.29-.46-1.92a.52.52,0,0,1,.84-.52l1.71,1.42Z"/><circle class="cls-15" cx="462.22" cy="183.26" r="0.29"/><path class="cls-15" d="M456.18,150.06l-5.54,8a.88.88,0,0,1-1.12.28h0a.35.35,0,0,0-.46.12L445,164.85a2,2,0,0,0-.29.78l-.77,5.55a1.43,1.43,0,0,0,1.33,1.64h0a1.43,1.43,0,0,0,1.53-1.3l.13-1.35a2.58,2.58,0,0,1,.6-1.42l13-15.5a1.18,1.18,0,0,0-.22-1.72l-2.46-1.76A1.17,1.17,0,0,0,456.18,150.06Z"/><path class="cls-15" d="M444.4,172.47a1.42,1.42,0,0,1-.48-1.29l.77-5.55a2,2,0,0,1,.29-.78l4.08-6.39a.35.35,0,0,1,.46-.12h0a.88.88,0,0,0,1.12-.28l5.54-8s1.16,1.15-.2,3.14-10.53,13.26-10.8,14.35S444.4,172.47,444.4,172.47Z"/><path class="cls-15" d="M587.74,176.72h-.82c0-5.26-5.28-9.54-11.77-9.54s-11.78,4.28-11.78,9.54h-.81c0-5.71,5.65-10.35,12.59-10.35S587.74,171,587.74,176.72Z"/><circle class="cls-14" cx="574.91" cy="149.82" r="0.72"/><path class="cls-14" d="M578.85,147.62a4.7,4.7,0,0,0-.75-1,4.5,4.5,0,0,0-6.37,0,4.43,4.43,0,0,0-.76,1"/><path class="cls-14" d="M578.08,148.39a3.23,3.23,0,0,0-.71-1,3.48,3.48,0,0,0-4.92,0,3.58,3.58,0,0,0-.71,1"/><path class="cls-14" d="M577.28,149.2a2.4,2.4,0,0,0-.64-1.11,2.44,2.44,0,0,0-3.46,0,2.4,2.4,0,0,0-.64,1.11"/><line class="cls-14" x1="574.87" y1="151.62" x2="574.87" y2="157.51"/><path class="cls-18" d="M581,168.77a10,10,0,0,0,1.48-5.31c0-5-3.4-9-7.59-9s-7.59,4-7.59,9a10,10,0,0,0,1.48,5.31Z"/><rect class="cls-15" x="551.98" y="153.66" width="1.46" height="1.4"/><path class="cls-15" d="M551.8,154.76c0,.38-1.77.83-1.77.83a28.86,28.86,0,0,1-3.87-.83C546.37,154.62,551.8,154.76,551.8,154.76Z"/><path class="cls-15" d="M553.62,154.81c0-.38,1.76-.83,1.76-.83a28.53,28.53,0,0,1,3.87.83C559,155,553.62,154.81,553.62,154.81Z"/><rect class="cls-15" x="551.74" y="154.27" width="1.94" height="1.16"/><rect class="cls-15" x="551.59" y="157.26" width="2.24" height="1.06"/><rect class="cls-15" x="551.49" y="155.43" width="2.42" height="1.83"/><path class="cls-15" d="M551.67,159.75h2.06a0,0,0,0,1,0,0V160a.78.78,0,0,1-.78.78h-.5a.78.78,0,0,1-.78-.78v-.21A0,0,0,0,1,551.67,159.75Z"/><path class="cls-15" d="M551.76,159.24h4.11a3.37,3.37,0,0,1,1,.16l3.85,1.23a2.51,2.51,0,0,0,.82.13h10.8v4.94H561.9a1.72,1.72,0,0,1-1.11-.4l-3.44-2.89a3.39,3.39,0,0,0-2.2-.81H552a.77.77,0,0,1-.78-.77v-1.07A.52.52,0,0,1,551.76,159.24Z"/><ellipse class="cls-15" cx="552.71" cy="160.58" rx="2.12" ry="2.5"/><rect class="cls-15" x="596.08" y="153.66" width="1.46" height="1.4" transform="translate(1193.62 308.72) rotate(180)"/><path class="cls-15" d="M597.72,154.76c0,.38,1.76.83,1.76.83a29,29,0,0,0,3.88-.83C603.15,154.62,597.72,154.76,597.72,154.76Z"/><path class="cls-15" d="M595.9,154.81c0-.38-1.76-.83-1.76-.83a29,29,0,0,0-3.88.83C590.47,155,595.9,154.81,595.9,154.81Z"/><rect class="cls-15" x="595.84" y="154.27" width="1.94" height="1.16" transform="translate(1193.62 309.7) rotate(180)"/><rect class="cls-15" x="595.69" y="157.26" width="2.24" height="1.06" transform="translate(1193.62 315.57) rotate(180)"/><rect class="cls-15" x="595.6" y="155.43" width="2.42" height="1.83" transform="translate(1193.62 312.68) rotate(180)"/><path class="cls-15" d="M596.56,159.75h.5a.78.78,0,0,1,.78.78v.21a0,0,0,0,1,0,0h-2.06a0,0,0,0,1,0,0v-.21a.78.78,0,0,1,.78-.78Z" transform="translate(1193.62 320.5) rotate(-180)"/><path class="cls-15" d="M597.75,159.24h-4.1a3.28,3.28,0,0,0-1,.16l-3.85,1.23a2.56,2.56,0,0,1-.82.13h-10.8v4.94h10.48a1.71,1.71,0,0,0,1.1-.4l3.44-2.89a3.43,3.43,0,0,1,2.2-.81h3.14a.77.77,0,0,0,.78-.77v-1.07A.52.52,0,0,0,597.75,159.24Z"/><ellipse class="cls-15" cx="596.81" cy="160.58" rx="2.12" ry="2.5"/><path class="cls-15" d="M567.81,157.93a11.66,11.66,0,0,0-1.72,6.18c0,5.75,3.95,10.41,8.82,10.41s8.83-4.66,8.83-10.41a11.66,11.66,0,0,0-1.72-6.18Z"/><path class="cls-15" d="M572.39,170.1a.15.15,0,0,1-.14-.16v-3.68a.15.15,0,0,1,.14-.16.15.15,0,0,1,.15.16v3.68A.15.15,0,0,1,572.39,170.1Z"/><path class="cls-15" d="M573.65,170.1a.16.16,0,0,1-.15-.16v-3.68a.15.15,0,1,1,.3,0v3.68A.16.16,0,0,1,573.65,170.1Z"/><path class="cls-15" d="M574.91,170.1a.16.16,0,0,1-.15-.16v-3.68a.15.15,0,1,1,.3,0v3.68A.16.16,0,0,1,574.91,170.1Z"/><path class="cls-15" d="M576.17,170.1a.16.16,0,0,1-.15-.16v-3.68a.15.15,0,1,1,.3,0v3.68A.16.16,0,0,1,576.17,170.1Z"/><path class="cls-15" d="M577.43,170.1a.16.16,0,0,1-.15-.16v-3.68a.15.15,0,1,1,.3,0v3.68A.16.16,0,0,1,577.43,170.1Z"/><path class="cls-15" d="M574.91,160.46a1.76,1.76,0,1,0,1.76,1.76A1.75,1.75,0,0,0,574.91,160.46Zm0,2.78a1,1,0,1,1,1-1A1,1,0,0,1,574.91,163.24Z"/><circle class="cls-15" cx="562.97" cy="176.92" r="1.22"/><circle class="cls-15" cx="587.33" cy="176.92" r="1.22"/><circle class="cls-14" cx="40.99" cy="147.68" r="0.95"/><path class="cls-14" d="M35.77,144.78a6.29,6.29,0,0,1,1-1.32,6,6,0,0,1,9.43,1.32"/><path class="cls-14" d="M36.79,145.79a4.6,4.6,0,0,1,7.45-1.36,4.46,4.46,0,0,1,.95,1.36"/><path class="cls-14" d="M37.85,146.86a3.24,3.24,0,0,1,6.27,0"/><line class="cls-14" x1="41.04" y1="150.06" x2="41.04" y2="159.86"/><ellipse class="cls-19" cx="46.41" cy="181.63" rx="3.72" ry="4.95" transform="translate(-61.79 28.55) rotate(-20.92)"/><path class="cls-19" d="M47.52,184.79c1.19-3.08-1.46-3.4-2.1-4.62a2.23,2.23,0,0,1-.24-1.51,2.55,2.55,0,0,0-.27,2.21C45.73,183,48,182.34,47.52,184.79Z"/><ellipse class="cls-19" cx="38.06" cy="175.48" rx="4.95" ry="3.72" transform="translate(-140.13 153.4) rotate(-70.7)"/><path class="cls-19" d="M36.86,178.6c2.9-1.57,1.09-3.53,1.39-4.87a2.2,2.2,0,0,1,.79-1.31,2.52,2.52,0,0,0-1.64,1.51C36.63,176.12,38.78,177,36.86,178.6Z"/><rect class="cls-15" x="49.53" y="153.12" width="2.74" height="3.27"/><rect class="cls-16" x="50.36" y="150.43" width="1.08" height="2.69"/><rect class="cls-15" x="29.82" y="153.12" width="2.74" height="3.27"/><rect class="cls-16" x="30.65" y="150.43" width="1.08" height="2.69"/><rect class="cls-15" x="34.78" y="154.22" width="12.8" height="2.49"/><rect class="cls-15" x="28.49" y="156" width="25.37" height="3.54"/><rect class="cls-15" x="38.18" y="159.54" width="5.99" height="4.33"/><polygon class="cls-15" points="50.73 167.75 31.63 167.75 34.4 163.13 47.95 163.13 50.73 167.75"/><line class="cls-16" x1="46.36" y1="151.32" x2="49.53" y2="151.32"/><line class="cls-16" x1="52.14" y1="151.32" x2="55.32" y2="151.32"/><line class="cls-16" x1="26.64" y1="151.32" x2="29.82" y2="151.32"/><line class="cls-16" x1="32.43" y1="151.32" x2="35.61" y2="151.32"/><line class="cls-15" x1="44.32" y1="159.54" x2="52.08" y2="161.96"/><line class="cls-15" x1="38.34" y1="159.54" x2="30.59" y2="161.96"/><circle class="cls-14" cx="304.99" cy="410.51" r="1.11"/><path class="cls-14" d="M298.93,407.14a6.92,6.92,0,0,1,11-1.53,6.72,6.72,0,0,1,1.16,1.53"/><path class="cls-14" d="M300.11,408.32a5.28,5.28,0,0,1,1.1-1.59,5.34,5.34,0,0,1,7.56,0,5.28,5.28,0,0,1,1.1,1.59"/><path class="cls-14" d="M301.35,409.56a3.76,3.76,0,0,1,7.28,0"/><line class="cls-14" x1="305.05" y1="413.29" x2="305.05" y2="424.68"/><circle class="cls-15" cx="289.77" cy="445.33" r="4.24"/><path class="cls-15" d="M289.76,450.21a5,5,0,0,1-4.95-5,5,5,0,1,1,9.95.06A4.92,4.92,0,0,1,289.76,450.21Zm0-8.52a3.51,3.51,0,0,0-3.58,3.63,3.64,3.64,0,0,0,3.59,3.57,3.7,3.7,0,0,0,3.61-3.69A3.6,3.6,0,0,0,289.79,441.69Z"/><path class="cls-15" d="M296.76,422.42l-5.2,1s-.55.24-.39,2.1.23,8.15.7,8.46a22.2,22.2,0,0,0,3.12.91Z"/><path class="cls-15" d="M296.6,439.11l-7.06,3.57a2.75,2.75,0,0,0-.77,3.26c.86,2,3.48,1.39,3.48,1.39l8-2.49Z"/><path class="cls-15" d="M294.27,440.8a6.3,6.3,0,0,1-2.46-.91,3.08,3.08,0,0,0-1.88-1.08c-.94-.17-2.47-.11-3.32-.8s-1.35-1.24-1.18-1.55.47-.77,1-.61,10.85,2.64,10.85,2.64l.47,2Z"/><path class="cls-15" d="M336.71,439.42s.16-1.71-.23-2.1a57.37,57.37,0,0,0-5.66-2.32,2.89,2.89,0,0,0-.39-2.33c-.78-1.16-4.32-7.76-15.82-11.72s-15.83-1.3-17-.3-3.95,3.48-4.42,4.81.17,8.54.47,9.15,4.81,5.58,4.81,5.58l5.67,5.12,18.91.94,10.56-7.53Z"/><path class="cls-15" d="M295.05,432.59s-1,1.92-.45,3,4.48,10.94,5.26,11.41a5.73,5.73,0,0,0,3.26.16c.63-.16,1.32-.83,2-.77s9.15,1.47,15.28,1,5.34-1.41,7.05-.86c0,0,1.94-6.07,4.81-6.52s3,1.8,3.4,2.66,3.68.21,3.68.21.75-1,.53-1.3-.45-1.18-.92-1.49-2.41-1.39-2.41-1.39-9-2.87-9.7-2.4-5.19,9-6.36,9.46-12.86.22-13.57-.39-9.62-11.39-10.09-12.18-.26-2.68-.84-2.23A4.17,4.17,0,0,0,295.05,432.59Z"/><path class="cls-15" d="M306.15,422.2s-4.89,1.42-6.44,3.81-2.87,4.62-.38,8.43A124.27,124.27,0,0,0,307.54,445c.63.7,12.11,1.63,13,.78s6.18-8.93,6.12-10.4-4.1-7.91-8.13-9.92A38.12,38.12,0,0,0,306.15,422.2Z"/><path class="cls-15" d="M327.24,432.36c-3.58-5.12-8.21-9.62-14.88-11.09s-9.39-.55-13.12,2.87S296,431,296,431c.09,2.87,9.38,14.57,10.62,15.27s13.27.77,14.27.46,6.91-10.53,6.91-10.53S328.81,434.6,327.24,432.36Zm-2.33,4.15s-4.3,8.24-5.12,8.49-10.67.35-11.69-.22-9.22-11-9.29-13.33c0,0-.4-2.8,2.67-5.63s5.15-3.29,10.65-2.08,9.37,5.41,12.32,9.63C325.75,435.22,324.91,436.51,324.91,436.51Z"/><path class="cls-15" d="M329.19,432.28a7.38,7.38,0,0,1-.55,2.49c-.45.69.63.67,1.1.84a.87.87,0,0,0,1.08-.61c.16-.47.55-1-.39-2.33S329.19,432.28,329.19,432.28Z"/><path class="cls-15" d="M316.42,421.61A27.42,27.42,0,0,1,329.36,431s-.56.46-1.72-.15-4-4.25-5.72-5.41S315.81,422,316.42,421.61Z"/><path class="cls-15" d="M306.19,419a34.5,34.5,0,0,1,8.42,2,3.83,3.83,0,0,1-1.64-.07c-1-.23-5.27-.6-6-.93A1.07,1.07,0,0,1,306.19,419Z"/><path class="cls-15" d="M295.54,438.28a.9.9,0,0,0,.93-1c-.1-1.05-.63-1.87-.53-3.21s-.55-1.14-.89-1.45S293.26,435.08,295.54,438.28Z"/><circle class="cls-15" cx="334.4" cy="445.35" r="4.24"/><path class="cls-15" d="M334.4,450.23a5,5,0,0,1-4.95-5,5,5,0,1,1,9.94.06A4.92,4.92,0,0,1,334.4,450.23Zm0-8.52a3.52,3.52,0,0,0-3.59,3.63,3.65,3.65,0,0,0,3.59,3.57,3.71,3.71,0,0,0,3.62-3.69A3.6,3.6,0,0,0,334.43,441.71Z"/><path class="cls-15" d="M327.56,447.41c.24.16.77.55,1.71-.39s1-1.34,1.08-1.79a5.56,5.56,0,0,1,1.4-3.79c1.47-1.47,3.77-1,4.1-1.08s1.77-.94.86-.94-3.86-1.63-7.28,1.16A6.21,6.21,0,0,0,327.56,447.41Z"/><rect class="cls-15" x="553.25" y="406.12" width="5.68" height="11.86"/><rect class="cls-15" x="595.04" y="437" width="13.74" height="1.27" transform="translate(1203.81 875.27) rotate(180)"/><rect class="cls-15" x="604.56" y="434.38" width="0.65" height="4.19" transform="translate(1209.77 872.94) rotate(180)"/><circle class="cls-15" cx="604.91" cy="433.02" r="2.42"/><polyline class="cls-15" points="604.91 431.73 604.91 433.14 604.03 432.26"/><ellipse class="cls-14" cx="573.3" cy="405.88" rx="1.1" ry="1.14"/><path class="cls-14" d="M579.29,402.41a6.88,6.88,0,0,0-1.15-1.57,6.66,6.66,0,0,0-9.68,0,7.14,7.14,0,0,0-1.14,1.57"/><path class="cls-14" d="M578.12,403.63A5.31,5.31,0,0,0,577,402a5.13,5.13,0,0,0-7.47,0,5.31,5.31,0,0,0-1.08,1.64"/><path class="cls-14" d="M576.9,404.9a3.89,3.89,0,0,0-1-1.76,3.61,3.61,0,0,0-5.25,0,3.89,3.89,0,0,0-1,1.76"/><line class="cls-14" x1="573.24" y1="408.74" x2="573.24" y2="416.36"/><path class="cls-15" d="M543.53,422.59l0-6.25h5.84v1.05h3.15c3.6-3.54,11.55-6,20.78-6s17.19,2.47,20.79,6h3.21v-1.05h5.83v6.25Z"/><path class="cls-15" d="M593.75,422.59c-3.49-3.93-11.23-6.66-20.22-6.66s-16.74,2.73-20.22,6.66h-6.5v31.55h53V422.59Z"/><rect class="cls-15" x="565.08" y="444.43" width="16.45" height="9.73"/><rect class="cls-15" x="565.9" y="445.2" width="14.74" height="8.95"/><line class="cls-15" x1="565.91" y1="446.74" x2="580.58" y2="446.74"/><line class="cls-15" x1="565.92" y1="448.7" x2="580.59" y2="448.7"/><line class="cls-15" x1="565.93" y1="450.66" x2="580.59" y2="450.66"/><line class="cls-15" x1="565.94" y1="452.61" x2="580.6" y2="452.61"/><path class="cls-15" d="M555.9,431.55h7a0,0,0,0,1,0,0V439a3.23,3.23,0,0,1-3.23,3.23h-.52A3.23,3.23,0,0,1,555.9,439v-7.47A0,0,0,0,1,555.9,431.55Z" transform="translate(1118.78 873.8) rotate(180)"/><path class="cls-15" d="M565.18,431.55h7a0,0,0,0,1,0,0V439a3.23,3.23,0,0,1-3.23,3.23h-.52a3.23,3.23,0,0,1-3.23-3.23v-7.47A0,0,0,0,1,565.18,431.55Z" transform="translate(1137.33 873.8) rotate(180)"/><path class="cls-15" d="M574.45,431.55h7a0,0,0,0,1,0,0V439a3.23,3.23,0,0,1-3.23,3.23h-.52a3.23,3.23,0,0,1-3.23-3.23v-7.47a0,0,0,0,1,0,0Z" transform="translate(1155.88 873.8) rotate(180)"/><path class="cls-15" d="M583.73,431.55h7a0,0,0,0,1,0,0V439a3.23,3.23,0,0,1-3.23,3.23H587a3.23,3.23,0,0,1-3.23-3.23v-7.47A0,0,0,0,1,583.73,431.55Z" transform="translate(1174.43 873.8) rotate(180)"/><rect class="cls-15" x="548.54" y="425.7" width="5.78" height="26.88"/><line class="cls-15" x1="551.43" y1="425.7" x2="551.43" y2="452.58"/><line class="cls-15" x1="548.57" y1="428.86" x2="554.29" y2="428.86"/><line class="cls-15" x1="548.57" y1="432.97" x2="554.29" y2="432.97"/><line class="cls-15" x1="548.57" y1="437.09" x2="554.29" y2="437.09"/><line class="cls-15" x1="548.57" y1="441.2" x2="554.29" y2="441.2"/><line class="cls-15" x1="548.57" y1="445.32" x2="554.29" y2="445.32"/><line class="cls-15" x1="548.57" y1="449.43" x2="554.29" y2="449.43"/><rect class="cls-15" x="592.7" y="425.7" width="5.78" height="26.88"/><line class="cls-15" x1="595.59" y1="425.7" x2="595.59" y2="452.58"/><line class="cls-15" x1="592.73" y1="428.86" x2="598.45" y2="428.86"/><line class="cls-15" x1="592.73" y1="432.97" x2="598.45" y2="432.97"/><line class="cls-15" x1="592.73" y1="437.09" x2="598.45" y2="437.09"/><line class="cls-15" x1="592.73" y1="441.2" x2="598.45" y2="441.2"/><line class="cls-15" x1="592.73" y1="445.32" x2="598.45" y2="445.32"/><line class="cls-15" x1="592.73" y1="449.43" x2="598.45" y2="449.43"/><rect class="cls-15" x="558.65" y="424.71" width="29.32" height="4.7"/><text class="cls-20" transform="translate(560.21 428.24)">SMA<tspan class="cls-21" x="7.13" y="0">R</tspan><tspan class="cls-22" x="9.14" y="0">T</tspan><tspan class="cls-23" x="11.07" y="0"> </tspan><tspan class="cls-24" x="11.96" y="0">F</tspan><tspan class="cls-25" x="13.51" y="0">A</tspan><tspan class="cls-26" x="15.73" y="0">CT</tspan><tspan x="19.85" y="0">O</tspan><tspan class="cls-27" x="22.15" y="0">R</tspan><tspan x="24.16" y="0">Y</tspan></text><path class="cls-15" d="M582.49,419.68a32.18,32.18,0,0,0-18.38,0,20.51,20.51,0,0,0-2,.76v2.12h22.4v-2.12A18.74,18.74,0,0,0,582.49,419.68Z"/><line class="cls-15" x1="562.11" y1="420.47" x2="584.34" y2="420.47"/><line class="cls-15" x1="566" y1="419.2" x2="566" y2="422.53"/><line class="cls-15" x1="569.51" y1="418.55" x2="569.51" y2="422.56"/><line class="cls-15" x1="573.02" y1="418.31" x2="573.02" y2="422.56"/><line class="cls-15" x1="576.52" y1="418.49" x2="576.52" y2="422.56"/><line class="cls-15" x1="580.03" y1="419.02" x2="580.03" y2="422.56"/><circle class="cls-14" cx="171.85" cy="408.17" r="0.95"/><path class="cls-14" d="M166.63,405.27a6.21,6.21,0,0,1,1-1.32,6,6,0,0,1,8.43,0,5.89,5.89,0,0,1,1,1.32"/><path class="cls-14" d="M167.65,406.29a4.47,4.47,0,0,1,.94-1.37,4.6,4.6,0,0,1,6.51,0,4.47,4.47,0,0,1,.94,1.37"/><path class="cls-14" d="M168.71,407.35a3.25,3.25,0,0,1,5.43-1.47,3.32,3.32,0,0,1,.84,1.47"/><line class="cls-14" x1="171.9" y1="410.56" x2="171.9" y2="420.36"/><circle class="cls-15" cx="174.54" cy="442.11" r="3.46"/><circle class="cls-15" cx="174.54" cy="442.11" r="2.05"/><circle class="cls-15" cx="187.13" cy="442.11" r="3.46"/><circle class="cls-15" cx="187.13" cy="442.11" r="2.05"/><rect class="cls-15" x="162.76" y="423.53" width="6.6" height="2.74"/><rect class="cls-15" x="150.58" y="423.58" width="11" height="2.64" transform="translate(-268.82 580.99) rotate(-90)"/><path class="cls-15" d="M152.31,424.94h.13a.78.78,0,0,1,.78.78v4a0,0,0,0,1,0,0h-1.69a0,0,0,0,1,0,0v-4a.78.78,0,0,1,.78-.78Z" transform="translate(-274.95 579.71) rotate(-90)"/><path class="cls-15" d="M152.31,419.87h.13a.78.78,0,0,1,.78.78v4a0,0,0,0,1,0,0h-1.69a0,0,0,0,1,0,0v-4A.78.78,0,0,1,152.31,419.87Z" transform="translate(-269.88 574.63) rotate(-90)"/><path class="cls-15" d="M156.32,421.5h8.77a0,0,0,0,1,0,0V424A4.06,4.06,0,0,1,161,428.1h-.65a4.06,4.06,0,0,1-4.06-4.06V421.5A0,0,0,0,1,156.32,421.5Z" transform="translate(-264.1 585.5) rotate(-90)"/><rect class="cls-15" x="167.94" y="414.75" width="26.52" height="27.36"/><polygon class="cls-18" points="183.19 421.65 181.63 429.53 183.98 429.53 177.88 437.26 179.37 429.45 177.17 429.45 183.19 421.65"/><circle class="cls-14" cx="438.62" cy="412.59" r="0.92"/><path class="cls-14" d="M433.57,409.79a6.21,6.21,0,0,1,1-1.28,5.79,5.79,0,0,1,8.17,0,6.21,6.21,0,0,1,1,1.28"/><path class="cls-14" d="M434.55,410.77a4.54,4.54,0,0,1,.92-1.33,4.46,4.46,0,0,1,6.29,0,4.54,4.54,0,0,1,.92,1.33"/><path class="cls-14" d="M435.58,411.8a3.14,3.14,0,0,1,6.07,0"/><line class="cls-14" x1="438.67" y1="414.9" x2="438.67" y2="419.54"/><rect class="cls-15" x="417.29" y="440.12" width="2.67" height="5.37"/><rect class="cls-15" x="457.26" y="440.12" width="2.67" height="5.37"/><rect class="cls-15" x="421.09" y="418.67" width="35.23" height="19.46"/><rect class="cls-15" x="417.29" y="433.93" width="42.65" height="8.64"/><rect class="cls-15" x="427.73" y="425.37" width="22.5" height="4.97"/><line class="cls-15" x1="429.02" y1="426.46" x2="448.75" y2="426.46"/><line class="cls-15" x1="429.02" y1="429.48" x2="448.75" y2="429.48"/><rect class="cls-15" x="427.73" y="420.62" width="4.06" height="1.51" rx="0.7"/><rect class="cls-15" x="422.38" y="420.62" width="4.06" height="1.51" rx="0.7"/><rect class="cls-15" x="433.81" y="420.62" width="4.06" height="1.51" rx="0.7"/><rect class="cls-15" x="439.9" y="420.62" width="4.06" height="1.51" rx="0.7"/><rect class="cls-15" x="445.99" y="420.62" width="4.06" height="1.51" rx="0.7"/><rect class="cls-15" x="451.27" y="420.62" width="4.06" height="1.51" rx="0.7"/><ellipse class="cls-15" cx="424.41" cy="427.75" rx="1.84" ry="2.16"/><text class="cls-28" transform="translate(421.98 439.86)">CONTROLLER</text><path class="cls-15" d="M434.58,279l.72,3.84c-.06.22.18.46.13.68-.22,1.2-.48,2.08-.72,3.34-.11.56-.34,1.31-.44,1.86a16.87,16.87,0,0,0-.61,1.94,13.44,13.44,0,0,0-.76,3,12.19,12.19,0,0,0-.1,2.69c.14.9.61,1.82.31,2.69-.15.43-.21,1.21-.43.89a4.22,4.22,0,0,1-.14-1.71s-.23-.09-.4.28a2,2,0,0,0-.1,1.86c.29.48.34,1,.1,1.24s-.82-.37-1-.51a4.6,4.6,0,0,1-.59-.73,2,2,0,0,1-.35-1.42c.07-.73.16-1.46.26-2.19.15-1,.46-2.12.52-3.1s.39-1.52.58-2.95.7-3,.91-4.56c.15-1.13,1.44-6.66,2.09-7.1"/><path class="cls-15" d="M444.66,266.74c1.27,2.33.58,3.12.21,4.43s-1.42,1.75-1.63,2.27a14.74,14.74,0,0,0,.32,3.41c0,.14-.17.4-1.17.91s-3.08-.3-3-.68a7.09,7.09,0,0,0,.39-2.06c-.1-.45.26-.93-.36-.83a4.81,4.81,0,0,1-2,0c-.31-.17-.21-.79-.35-1s-.27-.18-.31-.31.13-.18.11-.27-.15-.15-.17-.21.1-.18.13-.38-.13-.22-.34-.34c-.48-.28-.14-.59,0-.79a8,8,0,0,0,.62-1.14c0-.2-.13-.62-.1-1.44a2.61,2.61,0,0,1,.62-1.48.69.69,0,0,1,.24-.72c.38-.38,1.17-1.3,4.15-1.3a4.29,4.29,0,0,1,2.13.72,3.57,3.57,0,0,1,.72-1.65,1.78,1.78,0,0,1,2.84.32,1.56,1.56,0,0,1-1.35,2.26A10.85,10.85,0,0,0,444.66,266.74Z"/><path class="cls-15" d="M443.76,275.9s.13-.83-.19-1-1,.65-1.74.65c-1.81,0-2.27-.65-2.27-.65-.45,0-.25,1.42-.25,1.42s.17,1.6,1.24,1.45,3.34-.48,3.47-.74S443.76,275.9,443.76,275.9Z"/><path class="cls-15" d="M447.45,282.84c.06.22-.18.46-.13.68.22,1.2.48,2.08.72,3.34.11.56.34,1.31.44,1.86a16.85,16.85,0,0,1,.6,1.94,13,13,0,0,1,.77,3,12.19,12.19,0,0,1,.1,2.69c-.14.9-.61,1.82-.31,2.69.14.43.21,1.21.42.89a4,4,0,0,0,.15-1.71s.23-.09.4.28a2,2,0,0,1,.09,1.86c-.28.48-.33,1-.09,1.24s.82-.37,1-.51a4.6,4.6,0,0,0,.59-.73,2,2,0,0,0,.35-1.42c-.08-.73-.16-1.46-.26-2.19-.15-1-.46-2.12-.52-3.1s-.39-1.52-.59-2.95-.69-3-.9-4.56c-.16-1.13-1.44-6.66-2.09-7.1Z"/><path class="cls-15" d="M438.29,330.41c-.32.4-1.65.12-2.15.11-.09,0-.36-1.37,0-1.73.72-.78.55-1.11,1.1-2a3.47,3.47,0,0,0,.26-.81,14.65,14.65,0,0,0,.4-2.47,56,56,0,0,1-.77-11.17,18.91,18.91,0,0,0-.61-3.92c-.25-1.69.39-.78.05-2.46-.27-1.35,7.69-12.94,7.74-12.72.12.56,3.41,14.77,3.39,16a7.46,7.46,0,0,0,.33,3.28c.16.79.64,7.56.67,8.36.06,1.46.38,2.93.39,4.39a1.48,1.48,0,0,0,.2.47c.44.73.15.58.62,1.29.36.54.38,1.12.79,1.62a1.42,1.42,0,0,1-.31,1.71c.07.08-.66.2-1.53.21-.15,0-.61,0-.68-.17a3,3,0,0,1-1.3-1.36,8.59,8.59,0,0,1-.78-3.55c-.17-1.4-.28-3.14-.52-4.25s-.75-3.53-1-5.05c0-.16,0-2.64,0-2.79-.17-.52,0-1-.06-1.56-.41-2-.78-2-1.16-3.95-.17-.87-.07-1.76-.31-2.62-.19-.67-1-4.93-1.33-5.61-.09.41-.4,4.06-.48,4.45a39.5,39.5,0,0,0-.16,5.51,8.12,8.12,0,0,1-.25,2.2,1.71,1.71,0,0,0-.12.71c0,.94.57,4.92.2,6.75,0,.81-.49,3.67-.48,3.93.12,1.57.81,2.78.46,4.33a5.35,5.35,0,0,1-1,1.61A4.83,4.83,0,0,1,438.29,330.41Z"/><path class="cls-16" d="M436.72,327.78s-.39.71,1,.71,3-2.41,3.23-2.46"/><path class="cls-16" d="M449.9,327.07s-.29,1.19-1.29,1-2.33-1.67-2.33-1.67"/><path class="cls-15" d="M439.29,276.14a1.63,1.63,0,0,0,1,.75,4.15,4.15,0,0,0,2.69-.23c.93-.52.79-.76.79-.76s2.86,1,3.1,1,.92.56,2,2.13a7.58,7.58,0,0,1,1,2.78l-2.52,2.45-.71-1.22s-.52,5.07-.43,7.05a25.69,25.69,0,0,0,.51,3.82L449.77,312s-6.78.65-7,.71-3.49.09-5.24,0c-.76,0-3.05-.39-3.05-.39s2.13-19.44,2-22-.67-6.51-.67-6.51l-.45.9-2.46-3.29a11.36,11.36,0,0,1,1.34-2.3,6.22,6.22,0,0,1,2.73-2Z"/><circle class="cls-14" cx="183.96" cy="263.75" r="0.78"/><path class="cls-14" d="M179.68,261.37a5.22,5.22,0,0,1,.82-1.08,4.89,4.89,0,0,1,6.92,0,5.22,5.22,0,0,1,.82,1.08"/><path class="cls-14" d="M180.52,262.21a3.84,3.84,0,0,1,.77-1.13,3.78,3.78,0,0,1,5.34,0,4.08,4.08,0,0,1,.78,1.13"/><path class="cls-14" d="M181.39,263.08a2.79,2.79,0,0,1,.69-1.21,2.67,2.67,0,0,1,3.76,0,2.6,2.6,0,0,1,.69,1.21"/><line class="cls-14" x1="184.01" y1="265.71" x2="184.01" y2="273.74"/><rect class="cls-15" x="158.88" y="271.53" width="27.95" height="55.49" transform="translate(345.71 598.55) rotate(180)"/><rect class="cls-16" x="166.44" y="269.8" width="12.83" height="1.72" transform="translate(345.71 541.33) rotate(180)"/><polygon class="cls-16" points="165.32 269.8 180.39 269.8 181.49 266.92 164.22 266.92 165.32 269.8"/><rect class="cls-16" x="152.58" y="277.47" width="6.31" height="26.06" transform="translate(311.46 581) rotate(180)"/><path class="cls-16" d="M158.84,282.49a1.21,1.21,0,0,1-1-.83,1.16,1.16,0,0,1-1,.83c-.75,0-1-.83-1-.83s-.25.83-1,.83a1.21,1.21,0,0,1-1-.83,1.16,1.16,0,0,1-1,.83"/><path class="cls-16" d="M158.84,284a1.21,1.21,0,0,1-1-.82,1.15,1.15,0,0,1-1,.82,1.23,1.23,0,0,1-1-.82,1.15,1.15,0,0,1-1,.82,1.21,1.21,0,0,1-1-.82,1.15,1.15,0,0,1-1,.82"/><rect class="cls-16" x="174.67" y="288.12" width="8.33" height="13.85" transform="translate(357.67 590.08) rotate(180)"/><rect class="cls-16" x="174.67" y="299.64" width="8.33" height="1.23" transform="translate(357.67 600.51) rotate(180)"/><rect class="cls-16" x="178.31" y="288.12" width="1.05" height="2.26" transform="translate(357.67 578.5) rotate(180)"/><rect class="cls-16" x="174.02" y="285.41" width="9.65" height="1.85" transform="translate(357.68 572.68) rotate(180)"/><rect class="cls-29" x="163.71" y="291.87" width="6.32" height="0.99" transform="translate(333.73 584.72) rotate(180)"/><polygon class="cls-19" points="164.85 299.66 168.89 299.66 169.62 292.86 164.11 292.86 164.85 299.66"/><rect class="cls-16" x="162.7" y="288.12" width="8.33" height="13.85" transform="translate(333.73 590.08) rotate(180)"/><rect class="cls-16" x="162.7" y="299.64" width="8.33" height="1.23" transform="translate(333.73 600.51) rotate(180)"/><rect class="cls-16" x="166.34" y="288.12" width="1.05" height="2.26" transform="translate(333.73 578.5) rotate(180)"/><ellipse class="cls-30" cx="166.83" cy="295.9" rx="1.12" ry="1.49"/><path class="cls-16" d="M166.87,296.73c-.55-.6,0-.91.07-1.24a.52.52,0,0,0-.08-.37.61.61,0,0,1,.26.48C167.12,296.17,166.55,296.2,166.87,296.73Z"/><rect class="cls-16" x="162.05" y="285.41" width="9.65" height="1.85" transform="translate(333.74 572.68) rotate(180)"/><ellipse class="cls-16" cx="172.85" cy="313.41" rx="4.39" ry="5.84"/><path class="cls-16" d="M173,318.44c-3.33-3.69.22-5.58.46-7.63a3.36,3.36,0,0,0-.47-2.27,3.87,3.87,0,0,1,1.58,3C174.53,315,171,315.23,173,318.44Z"/><ellipse class="cls-16" cx="182.05" cy="278.39" rx="1.7" ry="2.26"/><path class="cls-16" d="M182.09,279.93c-1-1.12.07-1.7.14-2.32a1.05,1.05,0,0,0-.14-.69,1.19,1.19,0,0,1,.48.91C182.57,278.89,181.51,279,182.09,279.93Z"/><ellipse class="cls-16" cx="177.48" cy="278.39" rx="1.7" ry="2.26"/><path class="cls-16" d="M177.52,279.93c-1-1.12.07-1.7.14-2.32a1.05,1.05,0,0,0-.14-.69,1.22,1.22,0,0,1,.48.91C178,278.89,176.94,279,177.52,279.93Z"/><ellipse class="cls-16" cx="172.91" cy="278.39" rx="1.7" ry="2.26"/><path class="cls-16" d="M173,279.93c-1-1.12.07-1.7.14-2.32a1.05,1.05,0,0,0-.14-.69,1.22,1.22,0,0,1,.48.91C173.43,278.89,172.37,279,173,279.93Z"/><ellipse class="cls-16" cx="168.34" cy="278.39" rx="1.7" ry="2.26"/><path class="cls-16" d="M168.38,279.93c-1-1.12.06-1.7.14-2.32a1.05,1.05,0,0,0-.14-.69,1.19,1.19,0,0,1,.47.91C168.86,278.89,167.79,279,168.38,279.93Z"/><ellipse class="cls-16" cx="163.77" cy="278.39" rx="1.7" ry="2.26"/><path class="cls-16" d="M163.81,279.93c-1-1.12.06-1.7.14-2.32a1.05,1.05,0,0,0-.14-.69,1.19,1.19,0,0,1,.47.91C164.29,278.89,163.22,279,163.81,279.93Z"/><path class="cls-15" d="M46.61,284.59c.06.21-.16.43-.12.65.21,1.12.45,2,.68,3.15.1.52.32,1.23.42,1.74a17.71,17.71,0,0,1,.57,1.83,12.52,12.52,0,0,1,.71,2.8,10.77,10.77,0,0,1,.1,2.53c-.13.85-.57,1.71-.29,2.53.14.41.2,1.14.4.84a3.91,3.91,0,0,0,.14-1.61s.21-.09.38.27a1.87,1.87,0,0,1,.08,1.74c-.26.46-.31,1-.08,1.18s.76-.35.92-.49a3.56,3.56,0,0,0,.55-.68,1.85,1.85,0,0,0,.33-1.34q-.1-1-.24-2.07c-.14-1-.44-2-.49-2.91s-.37-1.44-.55-2.78-.66-2.87-.86-4.3c-.14-1.07-1.35-6.28-2-6.7Z"/><path class="cls-15" d="M35.35,284.59c-.06.21.16.43.12.65-.21,1.12-.45,2-.68,3.15-.1.52-.32,1.23-.41,1.74a15.57,15.57,0,0,0-.57,1.83,12.56,12.56,0,0,0-.72,2.8,11.34,11.34,0,0,0-.1,2.53c.13.85.58,1.71.3,2.53-.14.41-.2,1.14-.41.84a3.91,3.91,0,0,1-.13-1.61s-.22-.09-.38.27a1.84,1.84,0,0,0-.09,1.74c.27.46.32,1,.09,1.18s-.77-.35-.93-.49a4.54,4.54,0,0,1-.55-.68,1.9,1.9,0,0,1-.33-1.34c.07-.69.15-1.38.25-2.07.14-1,.43-2,.49-2.91s.36-1.44.55-2.78.65-2.87.85-4.3c.15-1.07,1.36-6.28,2-6.7Z"/><path class="cls-15" d="M44,329.42c.3.38,1.55.12,2,.11.08,0,.33-1.3,0-1.63-.68-.74-.52-1-1-1.9a3.12,3.12,0,0,1-.24-.77,12.92,12.92,0,0,1-.38-2.33,52.2,52.2,0,0,0,.72-10.53,18.15,18.15,0,0,1,.58-3.69c.23-1.59-.37-.74-.05-2.31.25-1.28-7.25-12.2-7.29-12-.12.53-1.33,1.23-1.4,1.77-.19,1.23-1.44,2.31-1.62,3.55-.12.89-.18,1.77-.24,2.67-.08,1.18,0,2.36,0,3.55s0,2.39,0,3.59a7.06,7.06,0,0,1-.31,3.09c-.15.74-.61,7.12-.63,7.87-.06,1.38-.36,2.76-.37,4.14a1.43,1.43,0,0,1-.19.44c-.41.69-.14.55-.59,1.22-.33.5-.35,1.05-.74,1.53a1.32,1.32,0,0,0,.3,1.6c-.07.08.62.19,1.44.2.14,0,.57,0,.64-.16A3,3,0,0,0,36,328.16a8.26,8.26,0,0,0,.73-3.35c.16-1.32.26-3,.49-4s.7-3.32.95-4.75c0-.15,0-2.49,0-2.64.16-.49,0-1,.05-1.46.39-1.85.74-1.88,1.1-3.73.16-.82.07-1.66.29-2.47.18-.63,1-4.65,1.25-5.29.09.39.38,3.83.46,4.2a38,38,0,0,1,.15,5.19,7.69,7.69,0,0,0,.24,2.08,1.64,1.64,0,0,1,.11.66c0,.88-.53,4.64-.19,6.36,0,.77.46,3.46.45,3.71-.11,1.48-.76,2.62-.43,4.08a5.23,5.23,0,0,0,1,1.52A4.82,4.82,0,0,0,44,329.42Z"/><path class="cls-16" d="M45.52,326.94s.55,1.16-.73,1.16-3-2.76-3.23-2.8"/><path class="cls-16" d="M33.1,326.27s.09,1.49,1,1.34a6.61,6.61,0,0,0,2.32-1.27"/><path class="cls-15" d="M45.51,293.89s2.39,10.95,2.5,12.23-2,1.59-2.74,1.83-2.77.2-3.83.43-3.86-.67-4-.67-2.3-.61-2.68-.67a2.89,2.89,0,0,1-1.26-1.34c0-.25,1.84-9.2,3-11.23s1.74-3.93,3-3.38S44.36,291.15,45.51,293.89Z"/><path class="cls-15" d="M38,269.42c-1.2,2.2-.55,2.95-.2,4.18s1.34,1.65,1.53,2.13a13.25,13.25,0,0,1-.3,3.22c0,.13.17.37,1.11.86s2.9-.29,2.8-.65a6.54,6.54,0,0,1-.36-1.94c.1-.42-.24-.87.34-.78a4.63,4.63,0,0,0,1.88,0c.29-.17.19-.75.32-1s.26-.17.29-.3-.11-.16-.1-.25.14-.14.17-.2-.1-.16-.13-.36.12-.2.32-.32c.45-.26.13-.55,0-.74a8.7,8.7,0,0,1-.58-1.07,13.11,13.11,0,0,0,.1-1.36,2.53,2.53,0,0,0-.59-1.39.66.66,0,0,0-.22-.68c-.36-.36-1.1-1.23-3.92-1.23a4,4,0,0,0-2,.68s-.22-1.59-1.55-1.78-3.4.51-3,2.65,1.87,2.91,1.49,4.14-.59,1-.59,1a1.87,1.87,0,0,0,1.72-1.13c.39-1.14,0-2.83.29-3.43C37.42,268.71,38,269.42,38,269.42Z"/><path class="cls-15" d="M43.1,278.1a8.55,8.55,0,0,1-1.05.83,3.25,3.25,0,0,1-2.42-.16c-.88-.49-.75-.71-.75-.71s-2.27,1-2.49,1-1,.35-2,1.83a14.54,14.54,0,0,0-1.28,3.65l2.43,1,.31-.79s1.34,4.29,1.25,6.16a11.32,11.32,0,0,1-.66,3.3L36,295.34a10.85,10.85,0,0,0,3.82.73,25.23,25.23,0,0,0,4.94-.16,2.42,2.42,0,0,0,1.11-.49,11.68,11.68,0,0,1-.52-4.05,43.41,43.41,0,0,1,.76-5.7l.48.91,2.5-1.95a14.35,14.35,0,0,0-1.38-3.5,6,6,0,0,0-2.46-1.84Z"/><circle class="cls-14" cx="574.76" cy="281.79" r="1.08"/><path class="cls-14" d="M568.84,278.5A6.71,6.71,0,0,1,570,277a6.78,6.78,0,0,1,9.58,0,7,7,0,0,1,1.13,1.5"/><path class="cls-14" d="M570,279.65a5.23,5.23,0,0,1,9.53,0"/><path class="cls-14" d="M571.2,280.86a3.68,3.68,0,0,1,6.16-1.67,3.57,3.57,0,0,1,.95,1.67"/><line class="cls-14" x1="574.82" y1="284.5" x2="574.82" y2="295.61"/><circle class="cls-15" cx="562.19" cy="316.02" r="2.9"/><circle class="cls-15" cx="562.19" cy="316.02" r="1.8"/><circle class="cls-15" cx="587.02" cy="316.02" r="2.9"/><circle class="cls-15" cx="587.02" cy="316.02" r="1.8"/><rect class="cls-15" x="554.69" y="287.83" width="40.13" height="13.04"/><rect class="cls-15" x="553" y="300.56" width="43.51" height="4.42"/><rect class="cls-15" x="551.89" y="303.82" width="45.73" height="12.02"/><rect class="cls-15" x="554.25" y="305.55" width="41.01" height="8.14"/><text class="cls-31" transform="translate(557.86 310.69)">ROB<tspan class="cls-32" x="7.71" y="0">O</tspan><tspan class="cls-33" x="10.28" y="0">T</tspan><tspan class="cls-34" x="12.21" y="0">-</tspan><tspan class="cls-35" x="13.6" y="0">L</tspan><tspan x="15.66" y="0">OGISTICS</tspan></text><rect class="cls-15" x="557.42" y="301.71" width="3.16" height="1.01" rx="0.47"/><rect class="cls-15" x="562.89" y="301.71" width="3.16" height="1.01" rx="0.47"/><rect class="cls-15" x="568.35" y="301.71" width="3.16" height="1.01" rx="0.47"/><rect class="cls-15" x="573.81" y="301.71" width="3.16" height="1.01" rx="0.47"/><rect class="cls-15" x="556.88" y="289.44" width="7.88" height="4.09"/><rect class="cls-15" x="566.34" y="289.44" width="7.88" height="4.09"/><rect class="cls-15" x="575.81" y="289.44" width="7.88" height="4.09"/><rect class="cls-15" x="585.27" y="289.44" width="7.88" height="4.09"/><rect class="cls-15" x="556.88" y="295.04" width="7.88" height="4.09"/><rect class="cls-15" x="566.34" y="295.04" width="7.88" height="4.09"/><rect class="cls-15" x="575.81" y="295.04" width="7.88" height="4.09"/><rect class="cls-15" x="585.27" y="295.04" width="7.88" height="4.09"/><path class="cls-15" d="M170.23,64.63c-.31.39-2.19.2-3.37.18-.09,0-.35-.24-.44-.24.11-.4-.11-1.22.22-1.57a15.34,15.34,0,0,0,2.06-2.21c.06-.09.46-.23.44-.33-.22-1,.18-2-.08-2.94a33,33,0,0,1-.47-9.2c.08-.68,0-11.47,2.82-17.4,1.68-3.52,6.91-3.62,6.92-3.54.13.56.21,1.13.29,1.69.19,1.31.38,2.61.56,3.92.14.94.33,1.87.39,2.82.09,1.25.1,2.5.11,3.75s0,2.53-.05,3.79a57.68,57.68,0,0,0,.52,9.2,14.93,14.93,0,0,1,.33,2.39c.05,1.46,0,2.92,0,4.37,0,.12.52.24.58.34.44.73.61,1,1.08,1.67.36.54.7,1.12,1.1,1.62a1.09,1.09,0,0,1,.27.93c.08.08,0,.61-.42.81a11.6,11.6,0,0,1-2.9.45,1.35,1.35,0,0,1-.68-.32,4.06,4.06,0,0,1-1.29-1.74,8.54,8.54,0,0,1-.78-3.54c-.16-1.39.08-2.73-.45-4a7,7,0,0,1-.5-3.2c0-.16,0-2.73-.06-2.88-.16-.52-.39-1-.5-1.55-.41-1.95-.78-3.91-1.17-5.87-.17-.87-.28-1.75-.52-2.6-.19-.67-.81-4.08-1.1-4.76-.1.41-.4,3.21-.48,3.6a28,28,0,0,0-.36,4.39c0,1.22.21,2.45.2,3.67a4.32,4.32,0,0,1-.26,1.55,1.87,1.87,0,0,0-.11.7c0,.94-.17,5.29-.17,5.35,0,.82-.07,2.75,0,3,.12,1.57,1.13,3.52.78,5.06-.1.45-.91.84-1,1.29C171.5,63.91,170.32,64.63,170.23,64.63Z"/><path class="cls-15" d="M168.13,27.38c-.21.87-.65,1.74-.9,2.6a18.47,18.47,0,0,0-.37,3.87c-.05.71.18,1.42.13,2.13a89,89,0,0,0,1,9.09,12.75,12.75,0,0,1,.3,3.25c-.26,2.3-.45,7,.15,9.2.26,1,.14,1.85.36,2.83,0,.1,4.18.37,4.12-.25-.08-.94.19-2.25.13-3.2,0-.25-.28-8.12-.35-8.92a14.61,14.61,0,0,1-.12-1.68c0-1.22-.29-2.45-.25-3.67a29.79,29.79,0,0,1,.35-4.63c.08-.39.39-3,.48-3.36a42.76,42.76,0,0,1,.93,4.76c.24.85.53,3,.7,3.87s.38,3.4.86,7.19c.54,4.14,1.06,8.47,1.14,9.19.18,1.48,4.45-.22,4.45-.34,0-1.45-.71-2.91-.76-4.37a14.93,14.93,0,0,0-.33-2.39c0-2.78-.4-6.91-.36-9.2,0-1.26-.1-2.53-.11-3.79s0-2.5-.11-3.75c-.06-1-.25-1.88-.39-2.82-.19-1.37-.14-2.67-.32-3.92-.09-.56-.4-1.13-.53-1.69l-7.28,1.83Z"/><path class="cls-15" d="M181.35,26.28c.06,1.1-.45,2.21-.43,3.31a12,12,0,0,1-.12,2.68,4.28,4.28,0,0,0-.27,2.33c.12.43.08,1.38.39,1.15s.07-1,.38-1.31a7.23,7.23,0,0,1,.08,1.54c-.07.7-.39,1.31.17,1.63.3.16.58-.18.75-.32a5.12,5.12,0,0,0,.7-.77,2.59,2.59,0,0,0,.28-1.54c0-.74.09-1.65,0-2.39a11,11,0,0,1,.28-2.91,16.91,16.91,0,0,0,.22-4.26l-2.46.86"/><path class="cls-15" d="M165.08,26.28c-.06,1.1.45,2.21.42,3.31a12,12,0,0,0,.13,2.68,4.27,4.27,0,0,1,.26,2.33c-.12.43-.07,1.38-.38,1.15s-.08-1-.39-1.31a8.25,8.25,0,0,0-.07,1.54c.07.7.38,1.31-.18,1.63-.29.16-.57-.18-.75-.32a5.65,5.65,0,0,1-.69-.77,2.52,2.52,0,0,1-.29-1.54c0-.74-.08-1.65,0-2.39a10.58,10.58,0,0,0-.28-2.91,16.46,16.46,0,0,1-.21-4.26l2.46.86"/><path class="cls-15" d="M176.9,3.24a6.7,6.7,0,0,1-.08,1.33,8.67,8.67,0,0,1-.2,1.62,5.28,5.28,0,0,0-.79,1.45,2.83,2.83,0,0,0,.08,2.36,8,8,0,0,1,.73,2.62h-5.38c0-.12-.56-1.88-.63-2.12s.19-1.45.07-1.59-.07,0-.67,0-.5-.42-.49-.6a.6.6,0,0,0-.13-.49.33.33,0,0,1-.06-.35c0-.1-.17-.14-.19-.22s.3-.51,0-.69-.46-.3-.49-.41a6.21,6.21,0,0,1,.61-1.21c.13-.21,0-.5,0-.71s0-.92-.08-.9-1.09-.92-.36-1.31,1-1,1.49-1.23a3.14,3.14,0,0,1,1.37-.4,4.59,4.59,0,0,1,3.65.51A2.68,2.68,0,0,1,176.9,3.24Z"/><path class="cls-15" d="M166.12,24.3l1.52-4-.36,5.28-.12,2.52L167,30.62s3.42.43,4.92.42a33.14,33.14,0,0,0,5.22-.48,16.18,16.18,0,0,0,2-.54l-.06-10.13,1,2.8.74,2.84-.17,5.52,3,.65s.62-1.85.74-2.1,0-4.69,0-4.69-1.82-11.06-2.41-11.86c-1-1.32-4.08-2.52-4.08-2.52l-2-.6A13.7,13.7,0,0,1,174.06,11c-.24,0-1.74.72-2.52,0s-1-.72-1-.72-3.78,1.14-4,1.2-1,.3-2.1,1.86c-.74,1.06-2.35,9.84-2.35,9.84v3.2l.62,4.07h3.21Z"/><polyline class="cls-16" points="177.04 10.24 173.71 13.13 172.41 11.44 171.18 13.07 169.44 10.61"/><polygon class="cls-15" points="183.39 32.99 183.76 31.7 180.8 31.08 180.56 32.49 183.39 32.99"/><polyline class="cls-16" points="173.31 12.61 172.66 14.06 171.92 14.06 171.43 12.7"/><path class="cls-16" d="M166.45,63.86a10.59,10.59,0,0,0,3.18.23c1.16-.23,1.93-1.85,1.93-1.85s1-1.15,1.22-1.19"/><path class="cls-16" d="M183.42,63.71a7.33,7.33,0,0,1-2.78.53,2.79,2.79,0,0,1-2.15-1.61,8.13,8.13,0,0,0-.81-1.47"/><polygon class="cls-15" points="162.98 32.01 165.88 31.95 165.88 30.46 162.79 30.46 162.98 32.01"/><rect class="cls-18" x="162.15" y="26.23" width="22.32" height="14.24" rx="2.57"/><rect class="cls-16" x="175.36" y="27.99" width="6.17" height="3.52"/><line class="cls-16" x1="173.31" y1="26.23" x2="173.31" y2="40.47"/><line class="cls-16" x1="162.15" y1="33.42" x2="184.47" y2="33.42"/><circle class="cls-14" cx="41.47" cy="8.41" r="0.75"/><path class="cls-14" d="M37.39,6.14a5.08,5.08,0,0,1,.78-1,4.67,4.67,0,0,1,6.6,0,5.08,5.08,0,0,1,.78,1"/><path class="cls-14" d="M38.19,6.94a3.49,3.49,0,0,1,.74-1.07,3.59,3.59,0,0,1,5.09,0,3.63,3.63,0,0,1,.73,1.07"/><path class="cls-14" d="M39,7.77a2.53,2.53,0,0,1,4.9,0"/><line class="cls-14" x1="41.51" y1="10.28" x2="41.51" y2="17.93"/><polygon class="cls-15" points="55.35 49.04 26.61 49.04 26.61 18.2 31.42 13.06 50.54 13.06 55.35 18.2 55.35 49.04"/><rect class="cls-18" x="31.53" y="32.98" width="18.8" height="11.99" rx="1.9"/><rect class="cls-16" x="42.66" y="34.46" width="5.19" height="2.97"/><line class="cls-16" x1="40.93" y1="32.98" x2="40.93" y2="44.97"/><line class="cls-16" x1="31.53" y1="39.04" x2="50.33" y2="39.04"/><rect class="cls-15" x="30.91" y="49.04" width="20.14" height="2.23"/><rect class="cls-15" x="26.59" y="51.26" width="28.78" height="4.83"/><polygon class="cls-16" points="53.1 46.99 28.86 46.99 28.86 19.25 32.92 14.91 49.05 14.91 53.1 19.25 53.1 46.99"/><circle class="cls-15" cx="33.79" cy="56.17" r="3.36"/><circle class="cls-15" cx="33.79" cy="56.17" r="2.14"/><circle class="cls-15" cx="48.18" cy="56.17" r="3.36"/><circle class="cls-15" cx="48.18" cy="56.17" r="2.14"/><path class="cls-15" d="M432.5,19c-.06.21.16.44.12.65-.21,1.13-.45,2-.68,3.15-.1.53-.31,1.23-.41,1.75a16,16,0,0,0-.57,1.82,12.56,12.56,0,0,0-.72,2.8,11.34,11.34,0,0,0-.1,2.53c.13.85.58,1.71.3,2.54-.14.4-.2,1.13-.41.83a3.89,3.89,0,0,1-.13-1.61s-.22-.08-.38.27a1.86,1.86,0,0,0-.09,1.75c.27.45.32,1,.09,1.17s-.77-.35-.93-.48a4.63,4.63,0,0,1-.55-.69,1.88,1.88,0,0,1-.33-1.33c.07-.7.15-1.39.25-2.07.14-1,.43-2,.49-2.92s.36-1.44.55-2.78.66-2.86.85-4.3c.15-1.06,1.36-6.27,2-6.69Z"/><path class="cls-15" d="M443.76,19c.06.21-.16.44-.12.65.21,1.13.45,2,.68,3.15.1.53.32,1.23.42,1.75a18.32,18.32,0,0,1,.57,1.82,13.13,13.13,0,0,1,.72,2.8,11.33,11.33,0,0,1,.09,2.53c-.13.85-.57,1.71-.29,2.54.14.4.2,1.13.4.83a3.89,3.89,0,0,0,.14-1.61s.21-.08.38.27a1.86,1.86,0,0,1,.08,1.75c-.26.45-.31,1-.08,1.17s.77-.35.92-.48a3.63,3.63,0,0,0,.55-.69,1.83,1.83,0,0,0,.33-1.33q-.1-1-.24-2.07c-.14-1-.44-2-.49-2.92s-.37-1.44-.55-2.78-.66-2.86-.86-4.3c-.14-1.06-1.35-6.27-2-6.69Z"/><path class="cls-15" d="M435.08,63.84c-.31.38-1.56.11-2,.1-.08,0-.33-1.29,0-1.63.68-.74.53-1,1-1.9a2.67,2.67,0,0,0,.25-.77,13.77,13.77,0,0,0,.38-2.32A52.36,52.36,0,0,1,434,46.79a17.37,17.37,0,0,0-.57-3.69c-.24-1.59.36-.74.05-2.32-.26-1.27,7.24-12.2,7.29-12,.11.53,1.32,1.23,1.4,1.76.18,1.24,1.43,2.32,1.61,3.55.13.89.18,1.78.25,2.67.08,1.18,0,2.37,0,3.55s0,2.39,0,3.59a7.07,7.07,0,0,0,.32,3.09c.14.75.6,7.12.63,7.88.05,1.38.35,2.76.36,4.13a1.43,1.43,0,0,0,.19.44c.41.69.15.55.59,1.22.34.51.36,1,.74,1.53a1.35,1.35,0,0,1-.29,1.61A3.25,3.25,0,0,1,445,64c-.13,0-.57-.05-.64-.16a3,3,0,0,1-1.22-1.28,8.21,8.21,0,0,1-.74-3.35c-.15-1.32-.26-3-.48-4s-.71-3.33-1-4.76c0-.15,0-2.49,0-2.64-.15-.49.06-1,0-1.46-.39-1.85-.74-1.87-1.1-3.73-.16-.82-.06-1.66-.29-2.46-.18-.64-1-4.65-1.25-5.29-.09.38-.38,3.83-.45,4.2a35,35,0,0,0-.15,5.19,8,8,0,0,1-.24,2.07,1.72,1.72,0,0,0-.11.67c0,.88.53,4.64.18,6.36,0,.76-.46,3.46-.44,3.7.1,1.49.76,2.63.43,4.08a5.27,5.27,0,0,1-1,1.52A4.77,4.77,0,0,1,435.08,63.84Z"/><path class="cls-16" d="M433.6,61.36s-.55,1.16.73,1.16,3-2.77,3.22-2.8"/><path class="cls-16" d="M446,60.69s-.09,1.48-1,1.34a6.7,6.7,0,0,1-2.31-1.27"/><path class="cls-15" d="M433.61,28.3s-2.4,11-2.51,12.24,2,1.58,2.74,1.82,2.77.2,3.84.44,3.86-.68,4-.68,2.3-.61,2.68-.67a2.79,2.79,0,0,0,1.26-1.34c0-.24-1.83-9.19-3-11.23s-1.74-3.93-3.06-3.38S434.76,25.56,433.61,28.3Z"/><path class="cls-15" d="M441.08,3.83c1.19,2.21.55,3,.19,4.18s-1.34,1.65-1.53,2.14a13.83,13.83,0,0,0,.3,3.22c0,.13-.16.37-1.1.85s-2.91-.29-2.81-.64a6.61,6.61,0,0,0,.37-1.94c-.1-.43.24-.88-.34-.78a4.6,4.6,0,0,1-1.88,0c-.29-.16-.2-.74-.33-1s-.25-.16-.29-.29.12-.17.11-.26-.15-.14-.17-.19.1-.17.13-.36-.12-.21-.33-.32c-.45-.26-.12-.55,0-.75A7.46,7.46,0,0,0,434,6.68c0-.19-.12-.58-.09-1.36a2.51,2.51,0,0,1,.58-1.39.65.65,0,0,1,.23-.68C435,2.9,435.77,2,438.58,2a4,4,0,0,1,2,.68s.23-1.59,1.55-1.78,3.4.52,3.05,2.66-1.88,2.91-1.49,4.14.58,1,.58,1a1.86,1.86,0,0,1-1.71-1.13c-.39-1.13,0-2.83-.3-3.43C441.69,3.12,441.08,3.83,441.08,3.83Z"/><path class="cls-15" d="M436,12.51a8.11,8.11,0,0,0,1.06.83,3.2,3.2,0,0,0,2.42-.16c.87-.49.74-.71.74-.71s2.27,1,2.5,1,1,.35,2,1.82A15,15,0,0,1,446,19l-2.44,1-.3-.79s-1.35,4.29-1.25,6.16a11.22,11.22,0,0,0,.66,3.3l.4,1.07a10.91,10.91,0,0,1-3.82.72,26.21,26.21,0,0,1-4.94-.15,2.49,2.49,0,0,1-1.11-.49,11.46,11.46,0,0,0,.52-4.05,42.31,42.31,0,0,0-.75-5.71l-.49.92L430,19.05a15,15,0,0,1,1.38-3.51,6.14,6.14,0,0,1,2.46-1.84Z"/><ellipse class="cls-14" cx="309.6" cy="7.49" rx="0.98" ry="0.92"/><path class="cls-14" d="M315,4.7a5.58,5.58,0,0,0-1-1.27,6.42,6.42,0,0,0-8.66,0,5.58,5.58,0,0,0-1,1.27"/><path class="cls-14" d="M313.91,5.68a4.37,4.37,0,0,0-1-1.32,5,5,0,0,0-6.68,0,4.37,4.37,0,0,0-1,1.32"/><path class="cls-14" d="M312.82,6.7A3.17,3.17,0,0,0,312,5.28a3.5,3.5,0,0,0-4.7,0,3.17,3.17,0,0,0-.87,1.42"/><line class="cls-14" x1="309.54" y1="9.79" x2="309.54" y2="15.93"/><path class="cls-15" d="M315.73,48.37,315.94,38h-.77v1.94h-.8V38h-.77l.22,10.39h.55v2.52a.87.87,0,0,0,0,1.54v.2a.87.87,0,0,0-.47.77.85.85,0,0,0,.47.76v.21a.86.86,0,0,0,0,1.53v.21a.85.85,0,0,0-.47.76.87.87,0,0,0,.47.77v.2a.87.87,0,0,0,0,1.54v.2a.87.87,0,0,0-.47.77.85.85,0,0,0,.47.76v.21a.87.87,0,0,0-.47.77.85.85,0,0,0,.47.76v.41a3.61,3.61,0,0,0-.47,1.63c0,.61,1.74.61,1.74,0a3.61,3.61,0,0,0-.47-1.63v-.41a.85.85,0,0,0,.47-.76.87.87,0,0,0-.47-.77v-.21a.85.85,0,0,0,.47-.76.87.87,0,0,0-.47-.77v-.2a.87.87,0,0,0,0-1.54v-.2a.87.87,0,0,0,.47-.77.85.85,0,0,0-.47-.76V55.9a.86.86,0,0,0,0-1.53v-.21a.85.85,0,0,0,.47-.76.87.87,0,0,0-.47-.77v-.2a.87.87,0,0,0,0-1.54V48.37Z"/><path class="cls-15" d="M305.35,48.37,305.57,38h-.77v1.94H304V38h-.77l.22,10.39H304v2.52a.87.87,0,0,0,0,1.54v.2a.88.88,0,0,0-.46.77.86.86,0,0,0,.46.76v.21a.87.87,0,0,0,0,1.53v.21a.86.86,0,0,0-.46.76.88.88,0,0,0,.46.77v.2a.87.87,0,0,0,0,1.54v.2a.88.88,0,0,0-.46.77.86.86,0,0,0,.46.76v.21a.88.88,0,0,0-.46.77.86.86,0,0,0,.46.76v.41a3.72,3.72,0,0,0-.46,1.63c0,.61,1.73.61,1.73,0a3.59,3.59,0,0,0-.46-1.63v-.41a.86.86,0,0,0,.46-.76.88.88,0,0,0-.46-.77v-.21a.86.86,0,0,0,.46-.76.88.88,0,0,0-.46-.77v-.2a.87.87,0,0,0,0-1.54v-.2a.88.88,0,0,0,.46-.77.86.86,0,0,0-.46-.76V55.9a.87.87,0,0,0,0-1.53v-.21a.86.86,0,0,0,.46-.76.88.88,0,0,0-.46-.77v-.2a.87.87,0,0,0,0-1.54V48.37Z"/><path class="cls-15" d="M310.55,48.37,310.77,38H310v1.94h-.8V38h-.78l.22,10.39h.56v2.52a.87.87,0,0,0,0,1.54v.2a.87.87,0,0,0-.47.77.85.85,0,0,0,.47.76v.21a.86.86,0,0,0,0,1.53v.21a.85.85,0,0,0-.47.76.87.87,0,0,0,.47.77v.2a.87.87,0,0,0,0,1.54v.2a.87.87,0,0,0-.47.77.85.85,0,0,0,.47.76v.21a.87.87,0,0,0-.47.77.85.85,0,0,0,.47.76v.41a3.61,3.61,0,0,0-.47,1.63c0,.61,1.74.61,1.74,0a3.61,3.61,0,0,0-.47-1.63v-.41a.85.85,0,0,0,.47-.76.87.87,0,0,0-.47-.77v-.21a.85.85,0,0,0,.47-.76.87.87,0,0,0-.47-.77v-.2a.87.87,0,0,0,0-1.54v-.2a.87.87,0,0,0,.47-.77.85.85,0,0,0-.47-.76V55.9a.86.86,0,0,0,0-1.53v-.21a.85.85,0,0,0,.47-.76.87.87,0,0,0-.47-.77v-.2a.87.87,0,0,0,0-1.54V48.37Z"/><rect class="cls-15" x="308.28" y="50.8" width="2.6" height="11.9"/><rect class="cls-15" x="299.99" y="39.02" width="19.19" height="3.97"/><rect class="cls-15" x="309.86" y="34.05" width="2.73" height="1.25"/><path class="cls-15" d="M310.56,24.79a33.2,33.2,0,0,0-.38-3.77l-.19-7.5a.44.44,0,0,0-.45-.44h0a.44.44,0,0,0-.45.44L309,21.28a34.73,34.73,0,0,0-.34,3.51v11.1h2Z"/><rect class="cls-15" x="307.78" y="16.42" width="3.28" height="4.64" transform="translate(291.25 328.19) rotate(-90.11)"/><rect class="cls-15" x="320.05" y="24.05" width="3.28" height="1.37" transform="translate(-0.05 0.6) rotate(-0.11)"/><rect class="cls-15" x="318.96" y="22.42" width="3.28" height="4.64" transform="translate(-0.05 0.59) rotate(-0.11)"/><rect class="cls-15" x="295.61" y="24.05" width="3.28" height="1.37" transform="translate(594.53 48.92) rotate(179.89)"/><rect class="cls-15" x="296.7" y="22.41" width="3.28" height="4.64" transform="translate(596.72 48.92) rotate(179.89)"/><rect class="cls-15" x="298.22" y="18.26" width="22.73" height="21.63" rx="2.88" transform="translate(619.17 58.15) rotate(-180)"/><rect class="cls-15" x="300.59" y="20.17" width="17.98" height="17.81" rx="2.41" transform="translate(619.17 58.15) rotate(-180)"/><rect class="cls-16" x="307.19" y="26.71" width="4.85" height="4.85"/><rect class="cls-16" x="308.5" y="28.02" width="2.22" height="2.22" transform="translate(507.94 268.67) rotate(-135)"/><circle class="cls-16" cx="314.31" cy="24.44" r="0.61"/><line class="cls-16" x1="312.04" y1="26.71" x2="313.89" y2="24.86"/><circle class="cls-16" cx="304.96" cy="24.44" r="0.61"/><line class="cls-16" x1="307.24" y1="26.71" x2="305.39" y2="24.86"/><circle class="cls-16" cx="314.31" cy="33.84" r="0.61"/><line class="cls-16" x1="312.04" y1="31.56" x2="313.89" y2="33.41"/><circle class="cls-16" cx="304.96" cy="33.84" r="0.61"/><line class="cls-16" x1="307.24" y1="31.56" x2="305.39" y2="33.41"/><path class="cls-16" d="M308.6,25.36a1.46,1.46,0,0,1,2.24-.05"/><path class="cls-16" d="M308.09,24.9a2.1,2.1,0,0,1,3.26-.07"/><path class="cls-16" d="M305.91,30.29a1.46,1.46,0,0,1-.55-1.14,1.45,1.45,0,0,1,.5-1.1"/><path class="cls-16" d="M305.45,30.8a2.1,2.1,0,0,1-.07-3.26"/><path class="cls-16" d="M310.84,33a1.46,1.46,0,0,1-2.24.05"/><path class="cls-16" d="M311.35,33.44a2.11,2.11,0,0,1-3.26.08"/><path class="cls-16" d="M313.53,28.05a1.45,1.45,0,0,1,.55,1.14,1.43,1.43,0,0,1-.5,1.1"/><path class="cls-16" d="M314,27.54a2.12,2.12,0,0,1,.81,1.66,2.09,2.09,0,0,1-.73,1.6"/><circle class="cls-14" cx="572.05" cy="17.51" r="0.95"/><path class="cls-14" d="M566.83,14.61a6.56,6.56,0,0,1,1-1.32,6,6,0,0,1,8.44,0,6.16,6.16,0,0,1,1,1.32"/><path class="cls-14" d="M567.85,15.63a4.65,4.65,0,0,1,.94-1.37,4.6,4.6,0,0,1,6.51,0,4.5,4.5,0,0,1,1,1.37"/><path class="cls-14" d="M568.91,16.69a3.44,3.44,0,0,1,.85-1.47,3.25,3.25,0,0,1,4.58,0,3.32,3.32,0,0,1,.84,1.47"/><line class="cls-14" x1="572.1" y1="19.9" x2="572.1" y2="29.69"/><path class="cls-18" d="M560.26,25.42v2.27a.86.86,0,0,0,.86.86h0a.44.44,0,0,1,.44.43V32.7h21.92V29a.43.43,0,0,1,.43-.43h0a.86.86,0,0,0,.86-.86V25.42a1,1,0,0,0-1-1H561.28A1,1,0,0,0,560.26,25.42Z"/><circle class="cls-15" cx="563.89" cy="27.25" r="0.39"/><circle class="cls-15" cx="569.6" cy="29.71" r="0.26"/><circle class="cls-15" cx="573.36" cy="27.9" r="0.26"/><circle class="cls-15" cx="577.51" cy="30.36" r="0.26"/><circle class="cls-15" cx="580.1" cy="27.9" r="0.26"/><rect class="cls-15" x="555.66" y="30.44" width="34.52" height="22.52"/><rect class="cls-15" x="555.66" y="50.82" width="34.52" height="2.14"/><rect class="cls-15" x="557.94" y="38.62" width="29.95" height="6.9"/><rect class="cls-15" x="558.47" y="32.75" width="5.71" height="3.05"/><rect class="cls-15" x="567.12" y="32.75" width="5.71" height="3.05"/><text class="cls-36" transform="translate(563.94 43.52)">T<tspan class="cls-37" x="2.5" y="0">O</tspan><tspan class="cls-38" x="5.35" y="0">ASTER</tspan></text><circle class="cls-15" cx="584.18" cy="34.48" r="2.65"/><rect class="cls-15" x="590.2" y="32.77" width="4.36" height="2.96"/><rect class="cls-15" x="559.34" y="53" width="2.49" height="1.56"/><rect class="cls-15" x="583.98" y="53" width="2.49" height="1.56"/><circle class="cls-39" cx="37.88" cy="411.52" r="0.86"/><path class="cls-39" d="M42.59,408.9a5.92,5.92,0,0,0-.9-1.19,5.4,5.4,0,0,0-7.62,0,5.92,5.92,0,0,0-.9,1.19"/><path class="cls-39" d="M41.67,409.82a4.1,4.1,0,0,0-.85-1.24,4.16,4.16,0,0,0-5.88,0,4.1,4.1,0,0,0-.85,1.24"/><path class="cls-39" d="M40.71,410.78a3,3,0,0,0-.76-1.33,2.93,2.93,0,0,0-4.14,0,3,3,0,0,0-.76,1.33"/><line class="cls-39" x1="37.83" y1="413.68" x2="37.83" y2="425.4"/><polygon class="cls-40" points="24.1 410.42 24.1 408.73 21.92 408.73 21.65 408.73 21.16 408.73 21.16 414.97 20.48 414.97 20.48 416.55 21.16 416.55 21.16 422.32 21.92 422.32 21.92 416.55 22.72 416.55 22.72 414.97 21.92 414.97 21.92 410.42 24.1 410.42"/><rect class="cls-40" x="36.49" y="420.11" width="3.22" height="2.1" transform="translate(-383.05 459.26) rotate(-90)"/><path class="cls-41" d="M21.35,421.17s-6.26-3.69-11.44-.62c-4.14,2.46-4.53,7.89-4.47,11.3l-.48,21"/><rect class="cls-40" x="25.76" y="419.73" width="4.6" height="0.57" transform="translate(-391.96 448.08) rotate(-90)"/><rect class="cls-40" x="24.35" y="417.08" width="1.58" height="8.99" transform="translate(-396.44 446.71) rotate(-90)"/><rect class="cls-40" x="26.71" y="416.65" width="3.22" height="2.38" transform="translate(-389.52 446.16) rotate(-90)"/><rect class="cls-40" x="27.18" y="417.34" width="4.44" height="0.99" transform="translate(-388.43 447.24) rotate(-90)"/><rect class="cls-40" x="13.73" y="421.62" width="47.06" height="1.24"/><rect class="cls-40" x="11.42" y="422.61" width="51.68" height="1.24"/><path class="cls-40" d="M27.2,439.78a12.1,12.1,0,0,1-9.08,4.2.43.43,0,0,1-.35-.69L18,443a.42.42,0,0,1,.36-.17c.37,0,1.07-.06.93-1s-.38-2.19-.52-2.93a.43.43,0,0,1,.46-.52l7.68.71A.43.43,0,0,1,27.2,439.78Z"/><polygon class="cls-40" points="57.55 423.82 15.9 423.82 15.9 428.23 53.14 428.23 57.55 423.82"/><path class="cls-40" d="M63.19,425.37h-49a1.27,1.27,0,0,0-1.3,1.22v12a1.27,1.27,0,0,0,1.3,1.22l47.39-.17a1.26,1.26,0,0,0,1.3-1.22l1.6-11.87A1.26,1.26,0,0,0,63.19,425.37Z"/><path class="cls-40" d="M14.38,423.23h4.83a0,0,0,0,1,0,0v3a2,2,0,0,1-2,2H16.4a2,2,0,0,1-2-2v-3a0,0,0,0,1,0,0Z"/><circle class="cls-40" cx="16.79" cy="425.69" r="1.63"/><circle class="cls-40" cx="16.79" cy="425.69" r="0.36"/><path class="cls-40" d="M46.87,423.23H51.7a0,0,0,0,1,0,0v3a2,2,0,0,1-2,2h-.79a2,2,0,0,1-2-2v-3A0,0,0,0,1,46.87,423.23Z"/><circle class="cls-40" cx="49.29" cy="425.69" r="1.63"/><circle class="cls-40" cx="49.29" cy="425.69" r="0.36"/><rect x="0.03" y="447.88" width="10.55" height="1.68" transform="translate(-6.89 897.3) rotate(-177.77)"/><rect x="4.72" y="445.73" width="0.85" height="0.44" transform="translate(-7.11 891.76) rotate(-177.77)"/><rect x="4.4" y="446.09" width="1.45" height="0.44" transform="translate(-7.15 892.47) rotate(-177.77)"/><polygon points="4.17 457.33 5.22 457.37 6.09 446.53 4.15 446.46 4.17 457.33"/><rect x="3.91" y="448.49" width="2.25" height="0.38" transform="matrix(-1, -0.04, 0.04, -1, -7.43, 897.21)"/><rect x="1.68" y="445.61" width="0.85" height="0.44" transform="translate(-13.18 891.41) rotate(-177.77)"/><rect x="1.36" y="445.97" width="1.45" height="0.44" transform="translate(-13.22 892.12) rotate(-177.77)"/><polygon points="1.13 457.21 2.19 457.25 3.05 446.42 1.11 446.34 1.13 457.21"/><rect x="0.87" y="448.37" width="2.25" height="0.38" transform="translate(-13.5 896.86) rotate(-177.77)"/><rect x="7.81" y="445.85" width="0.85" height="0.44" transform="matrix(-1, -0.04, 0.04, -1, -0.92, 892.12)"/><rect x="7.5" y="446.21" width="1.45" height="0.44" transform="translate(-0.96 892.83) rotate(-177.77)"/><polygon points="7.26 457.45 8.32 457.49 9.19 446.65 7.24 446.58 7.26 457.45"/><rect x="7" y="448.61" width="2.25" height="0.38" transform="matrix(-1, -0.04, 0.04, -1, -1.24, 897.58)"/><rect class="cls-42" x="215.33" y="225.08" width="186.51" height="154.77"/><rect class="cls-43" x="386.09" y="229.76" width="11.32" height="11.32"/><line class="cls-43" x1="388.74" y1="232.24" x2="394.9" y2="238.39"/><line class="cls-43" x1="394.9" y1="232.24" x2="388.74" y2="238.39"/><line class="cls-43" x1="215.33" y1="245.17" x2="401.84" y2="245.17"/><polygon class="cls-44" points="308.28 117.18 308.28 143.89 330.45 155.58 308.28 117.18"/><polygon class="cls-42" points="308.28 143.89 286.11 155.58 330.45 155.58 308.28 143.89"/><polygon class="cls-45" points="308.28 117.18 286.11 155.58 308.32 143.89 308.28 117.18"/><polygon class="cls-46" points="308.28 89.09 261.59 169.96 354.98 169.96 308.28 89.09"/><circle class="cls-45" cx="308.28" cy="89.39" r="3.28"/><circle class="cls-45" cx="354.21" cy="169.4" r="3.28"/><circle class="cls-45" cx="262.35" cy="169.44" r="3.28"/></g></g></svg>