<svg xmlns="http://www.w3.org/2000/svg" viewBox="0 0 237.87 416.32"><defs><style>.cls-1,.cls-13,.cls-20,.cls-37,.cls-5,.cls-6{fill:none;}.cls-1,.cls-37{stroke:#7a84aa;}.cls-1,.cls-2,.cls-3,.cls-36,.cls-37,.cls-5{stroke-miterlimit:10;}.cls-1,.cls-12,.cls-13,.cls-14,.cls-15,.cls-16,.cls-17,.cls-18,.cls-19,.cls-20,.cls-27,.cls-28,.cls-29,.cls-30,.cls-31,.cls-32,.cls-33,.cls-34,.cls-35,.cls-37,.cls-5,.cls-6,.cls-9{stroke-width:0.5px;}.cls-17,.cls-2{fill:#03a5ed;}.cls-12,.cls-13,.cls-14,.cls-15,.cls-16,.cls-2,.cls-27,.cls-28,.cls-29,.cls-3,.cls-30,.cls-31,.cls-32,.cls-33,.cls-34,.cls-35,.cls-36{stroke:#000;}.cls-2,.cls-3,.cls-36{stroke-width:0.75px;}.cls-3{fill:#b2b2b2;}.cls-4{font-size:9px;}.cls-5,.cls-6{stroke:#b2c1f3;}.cls-12,.cls-13,.cls-14,.cls-15,.cls-16,.cls-17,.cls-18,.cls-19,.cls-20,.cls-27,.cls-28,.cls-29,.cls-30,.cls-31,.cls-32,.cls-33,.cls-34,.cls-35,.cls-6,.cls-9{stroke-linecap:round;stroke-linejoin:round;}.cls-7{fill:#333744;}.cls-8{fill:#e9510e;}.cls-12,.cls-18,.cls-24,.cls-36,.cls-9{fill:#fff;}.cls-9{stroke:#1d1e1c;}.cls-10{fill:#282b38;}.cls-11{fill:#62687c;}.cls-14{fill:#333a7f;}.cls-15{fill:#414c9e;}.cls-16{fill:#09121a;}.cls-17,.cls-18,.cls-19,.cls-20{stroke:#020203;}.cls-19{fill:#e64c80;}.cls-21{fill:#f4d242;}.cls-22{fill:#1d1d1b;}.cls-23{fill:#808183;}.cls-25{fill:#08aed6;}.cls-26{fill:#cc2f88;}.cls-27{fill:#faaf3b;}.cls-28{fill:#b3b3b3;}.cls-29{fill:gray;}.cls-30{fill:#c69c6d;}.cls-31{fill:#8c6239;}.cls-32{fill:#999;}.cls-33{fill:#42210b;}.cls-34{fill:#ccf4ff;}.cls-35{fill:#4f5976;}.cls-37{stroke-dasharray:3 2;}.cls-38{fill:#7a84aa;}</style></defs><g id="Layer_2" data-name="Layer 2"><g id="pic"><line class="cls-1" x1="118.82" y1="151.44" x2="118.82" y2="193.39"/><rect class="cls-2" x="88.92" y="360" width="59.33" height="39.21"/><rect class="cls-2" x="85" y="357.25" width="67.16" height="3.41"/><rect class="cls-3" x="93.59" y="363.68" width="11.98" height="8.05"/><rect class="cls-3" x="112.6" y="363.68" width="11.98" height="8.05"/><rect class="cls-3" x="131.6" y="363.68" width="11.98" height="8.05"/><rect class="cls-3" x="93.59" y="374.87" width="11.98" height="8.05"/><rect class="cls-3" x="112.6" y="374.87" width="11.98" height="8.05"/><rect class="cls-3" x="131.6" y="374.87" width="11.98" height="8.05"/><rect class="cls-3" x="93.59" y="386.05" width="11.98" height="8.05"/><rect class="cls-3" x="112.6" y="386.05" width="11.98" height="13.16"/><rect class="cls-3" x="131.6" y="386.05" width="11.98" height="8.05"/><text class="cls-4" transform="translate(43.21 413.88)">IoT Access Network Providers</text><circle class="cls-5" cx="29.97" cy="41.04" r="0.82"/><path class="cls-6" d="M25.5,38.55a5.31,5.31,0,0,1,.85-1.13,5.13,5.13,0,0,1,7.25,0,5.31,5.31,0,0,1,.85,1.13"/><path class="cls-6" d="M26.37,39.43a3.89,3.89,0,0,1,.81-1.18,4,4,0,0,1,5.59,0,3.89,3.89,0,0,1,.81,1.18"/><path class="cls-6" d="M27.28,40.34a2.79,2.79,0,0,1,5.39,0"/><line class="cls-6" x1="30.02" y1="43.09" x2="30.02" y2="52.41"/><path class="cls-7" d="M29.92,54.28h0c-.32,0-.87-.27-.87-.59L29.34,48a.58.58,0,0,1,.58-.58h0a.58.58,0,0,1,.58.58l.29,5.67C30.79,54,30.24,54.28,29.92,54.28Z"/><path class="cls-8" d="M29.75,66.62h0c.32,0,.88.35.88.77l-.3,7.5c0,.43-.26.77-.58.77h0c-.32,0-.58-.34-.58-.77l-.29-7.5C28.88,67,29.43,66.62,29.75,66.62Z"/><path class="cls-8" d="M32.23,65h0c.32,0,.88.34.88.77l-.3,7.5c0,.42-.26.77-.58.77h0c-.32,0-.58-.35-.58-.77l-.29-7.5C31.36,65.31,31.91,65,32.23,65Z"/><path class="cls-8" d="M27.27,65h0c.32,0,.88.34.88.77l-.29,7.5a.71.71,0,0,1-.59.77h0c-.32,0-.58-.35-.58-.77l-.29-7.5C26.4,65.31,27,65,27.27,65Z"/><circle class="cls-9" cx="29.92" cy="61.73" r="8.57"/><rect class="cls-10" x="19.66" y="60.9" width="1.81" height="1.66" rx="0.4" transform="translate(41.13 123.45) rotate(-180)"/><rect class="cls-11" x="20.56" y="59.84" width="1.81" height="3.77" rx="0.44" transform="translate(42.94 123.45) rotate(180)"/><rect class="cls-10" x="38.39" y="60.9" width="1.81" height="1.66" rx="0.4"/><rect class="cls-11" x="37.48" y="59.84" width="1.81" height="3.77" rx="0.44"/><path d="M31.58,63.5H28.22a.09.09,0,0,1-.09-.09V60a.09.09,0,0,1,.09-.08h3.36a.09.09,0,0,1,.09.08v3.37A.09.09,0,0,1,31.58,63.5Zm-3.28-.18h3.2V60.13H28.3Z"/><path d="M29.9,62.9l-.06,0-1.09-1.09a.09.09,0,0,1,0-.12l1.09-1.1a.09.09,0,0,1,.12,0l1.09,1.1a.07.07,0,0,1,0,.12L30,62.88Zm-1-1.17,1,1,1-1-1-1Z"/><path d="M33.16,59a.51.51,0,0,1,0-1,.51.51,0,1,1,0,1Zm0-.84a.34.34,0,0,0,0,.67.34.34,0,1,0,0-.67Z"/><path d="M31.58,60.13l-.06,0a.09.09,0,0,1,0-.12l1.29-1.28a.08.08,0,0,1,.12.12L31.64,60.1A.06.06,0,0,1,31.58,60.13Z"/><path d="M26.67,59a.51.51,0,0,1,0-1,.51.51,0,1,1,0,1Zm0-.84a.34.34,0,0,0,0,.67.34.34,0,1,0,0-.67Z"/><path d="M28.25,60.13l-.06,0-1.28-1.28A.08.08,0,0,1,27,58.7L28.31,60a.07.07,0,0,1,0,.12A.07.07,0,0,1,28.25,60.13Z"/><path d="M33.16,65.49a.5.5,0,0,1-.5-.5.5.5,0,0,1,.5-.51.51.51,0,0,1,.51.51A.5.5,0,0,1,33.16,65.49Zm0-.84a.34.34,0,1,0,.34.34A.34.34,0,0,0,33.16,64.65Z"/><path d="M32.87,64.78a.07.07,0,0,1-.06,0l-1.29-1.28a.08.08,0,1,1,.12-.12l1.29,1.28a.09.09,0,0,1,0,.12A.09.09,0,0,1,32.87,64.78Z"/><path d="M26.67,65.49a.5.5,0,0,1-.5-.5.5.5,0,0,1,.5-.51.51.51,0,0,1,.51.51A.5.5,0,0,1,26.67,65.49Zm0-.84A.34.34,0,1,0,27,65,.34.34,0,0,0,26.67,64.65Z"/><path d="M27,64.78a.09.09,0,0,1-.06,0,.09.09,0,0,1,0-.12l1.28-1.28a.09.09,0,0,1,.12,0,.07.07,0,0,1,0,.12L27,64.75A.09.09,0,0,1,27,64.78Z"/><path d="M29.2,59.19h-.06a.09.09,0,0,1,0-.12,1.08,1.08,0,0,1,.86-.42,1.1,1.1,0,0,1,.83.38.09.09,0,0,1,0,.12.09.09,0,0,1-.12,0,.93.93,0,0,0-1.43,0A.07.07,0,0,1,29.2,59.19Z"/><path d="M28.84,58.87a.06.06,0,0,1-.05,0,.08.08,0,0,1,0-.12,1.55,1.55,0,0,1,2.39,0,.09.09,0,1,1-.13.11,1.38,1.38,0,0,0-1-.48,1.36,1.36,0,0,0-1.09.53A.09.09,0,0,1,28.84,58.87Z"/><path d="M27.33,62.61h0a1.09,1.09,0,0,1-.42-.86,1.1,1.1,0,0,1,.38-.83.09.09,0,0,1,.11.13.93.93,0,0,0-.32.7.91.91,0,0,0,.35.72.08.08,0,0,1,0,.12A.09.09,0,0,1,27.33,62.61Z"/><path d="M27,63,27,63a1.54,1.54,0,0,1-.6-1.22,1.58,1.58,0,0,1,.54-1.18.09.09,0,0,1,.12,0,.08.08,0,0,1,0,.12,1.42,1.42,0,0,0-.48,1,1.4,1.4,0,0,0,.53,1.09.08.08,0,0,1,0,.12A.09.09,0,0,1,27,63Z"/><path d="M30,64.86a1.07,1.07,0,0,1-.83-.38.09.09,0,0,1,0-.12.09.09,0,0,1,.12,0,.91.91,0,0,0,.7.32.89.89,0,0,0,.72-.35.09.09,0,0,1,.14.11A1.1,1.1,0,0,1,30,64.86Z"/><path d="M30,65.36a1.51,1.51,0,0,1-1.17-.54.08.08,0,0,1,0-.12.09.09,0,0,1,.12,0,1.38,1.38,0,0,0,2.13,0,.09.09,0,0,1,.12,0,.08.08,0,0,1,0,.12A1.52,1.52,0,0,1,30,65.36Z"/><path d="M32.65,62.61a.07.07,0,0,1-.06,0,.08.08,0,0,1,0-.12.91.91,0,0,0,0-1.42.09.09,0,0,1,0-.12.08.08,0,0,1,.12,0,1.08,1.08,0,0,1,0,1.68A.07.07,0,0,1,32.65,62.61Z"/><path d="M33,63a.07.07,0,0,1-.06,0,.09.09,0,0,1,0-.12,1.37,1.37,0,0,0,0-2.13.08.08,0,0,1,0-.12.08.08,0,0,1,.12,0,1.54,1.54,0,0,1,.6,1.22A1.58,1.58,0,0,1,33.05,63Z"/><circle class="cls-5" cx="209.21" cy="100.7" r="0.82"/><path class="cls-6" d="M204.73,98.21a5.37,5.37,0,0,1,.86-1.13,5.14,5.14,0,0,1,7.24,0,5.37,5.37,0,0,1,.86,1.13"/><path class="cls-6" d="M205.61,99.09a3.89,3.89,0,0,1,.81-1.18,4,4,0,0,1,5.58,0,4.11,4.11,0,0,1,.82,1.18"/><path class="cls-6" d="M206.52,100a2.78,2.78,0,0,1,5.38,0"/><line class="cls-6" x1="209.26" y1="102.75" x2="209.26" y2="112.07"/><rect class="cls-12" x="199.14" y="105.7" width="20.72" height="26.32"/><line class="cls-13" x1="199.14" y1="109.24" x2="219.85" y2="109.24"/><circle class="cls-14" cx="209.21" cy="120.39" r="7.92"/><circle class="cls-15" cx="209.21" cy="120.39" r="6.14"/><circle class="cls-15" cx="214.46" cy="107.51" r="0.46"/><circle class="cls-15" cx="216.23" cy="107.51" r="0.46"/><circle class="cls-15" cx="218.09" cy="107.51" r="0.46"/><path class="cls-16" d="M216.7,117.59H213a1.42,1.42,0,0,0-1.42,1.42v2.32a1.42,1.42,0,0,0,1.42,1.42l3.67.26a6,6,0,0,0,.45-2.62A13,13,0,0,0,216.7,117.59Z"/><circle class="cls-5" cx="205.52" cy="50.9" r="0.82"/><path class="cls-6" d="M201,48.41a5.37,5.37,0,0,1,.86-1.13,5.12,5.12,0,0,1,7.24,0,5.37,5.37,0,0,1,.86,1.13"/><path class="cls-6" d="M201.92,49.29a3.89,3.89,0,0,1,.81-1.18,4,4,0,0,1,5.59,0,4.07,4.07,0,0,1,.81,1.18"/><path class="cls-6" d="M202.83,50.2a2.78,2.78,0,0,1,5.38,0"/><line class="cls-6" x1="205.57" y1="52.95" x2="205.57" y2="62.27"/><rect class="cls-17" x="203.34" y="58.23" width="4.67" height="14.77"/><path class="cls-18" d="M206.11,56.79h4.16c.49,0,.64-.22.35-.61a1.16,1.16,0,0,0-.78-.5c-2.5,0-5,0-7.49,0a.92.92,0,0,0-.61.26,2.33,2.33,0,0,0-.29.68,2.26,2.26,0,0,0,.6.17Z"/><path class="cls-19" d="M213.07,58.64c0-.16,0-.27,0-.37a1.55,1.55,0,0,0-1.62-1.61c-1.22,0-2.44,0-3.66,0H201a1.59,1.59,0,0,0-1.82,1.82c0,.32-.07.46-.42.54a8.79,8.79,0,0,0-1.81.62,3.72,3.72,0,0,0-2.1,4.33,11.76,11.76,0,0,0,2.45,4.79c.54.72,1.15,1.38,1.71,2.08a.87.87,0,0,1,.15.5c0,1.22,0,2.44,0,3.65v.52h13.92v-.56q0-4.05,0-8.1a1.93,1.93,0,0,1,.18-.78c1-2,1.95-4.09,2.93-6.14.33-.69.15-1-.61-1.05Zm-8.82,2.23a1.36,1.36,0,0,1,1.15-1.75,1.33,1.33,0,0,1,1.45,1.49c0,3.41,0,6.82,0,10.23a1.3,1.3,0,0,1-.76,1.3,1.26,1.26,0,0,1-1.41-.18,1.41,1.41,0,0,1-.45-1.43Zm-5.16-.08V68l-.14.07c-.6-1-1.22-1.91-1.77-2.9a5.51,5.51,0,0,1-.56-1.53,1.89,1.89,0,0,1,.59-2.07A4.3,4.3,0,0,1,199.09,60.79Z"/><path class="cls-18" d="M206.09,77.67h5.8c1.25,0,1.76-.68,1.43-1.87-.25-.9-.25-.9-1.2-.9-4.16,0-8.31,0-12.47,0-.42,0-.62.12-.68.52,0,.19-.11.38-.15.57a1.24,1.24,0,0,0,1.28,1.68Z"/><line class="cls-20" x1="205" y1="60.79" x2="203.42" y2="60.79"/><line class="cls-20" x1="205" y1="62.27" x2="203.42" y2="62.27"/><line class="cls-20" x1="205" y1="63.74" x2="203.42" y2="63.74"/><line class="cls-20" x1="205" y1="65.22" x2="203.42" y2="65.22"/><line class="cls-20" x1="205" y1="66.69" x2="203.42" y2="66.69"/><line class="cls-20" x1="205" y1="68.16" x2="203.42" y2="68.16"/><line class="cls-20" x1="205" y1="69.64" x2="203.42" y2="69.64"/><circle class="cls-5" cx="72.1" cy="16.57" r="0.82"/><path class="cls-6" d="M67.62,14.08A4.9,4.9,0,0,1,68.48,13a5.12,5.12,0,0,1,7.24,0,4.86,4.86,0,0,1,.85,1.13"/><path class="cls-6" d="M68.49,15a4,4,0,0,1,7.21,0"/><path class="cls-6" d="M69.41,15.87a2.77,2.77,0,0,1,4.65-1.27,2.73,2.73,0,0,1,.73,1.27"/><line class="cls-6" x1="72.14" y1="18.62" x2="72.14" y2="27.93"/><path class="cls-21" d="M79.32,31.84A7.23,7.23,0,1,0,67,36.94a8.12,8.12,0,0,1,2.12,3.65l.59,2.15h4.73l.56-2A8.25,8.25,0,0,1,77.16,37,7.16,7.16,0,0,0,79.32,31.84Z"/><path class="cls-22" d="M73.19,45.26H70.88a1.23,1.23,0,0,1-1.25-1.09l-.19-2.37,5.23,0-.23,2.4A1.21,1.21,0,0,1,73.19,45.26Z"/><path class="cls-23" d="M74.2,42.8c-1.46.06-2.93,0-4.39.05a.1.1,0,0,0,0,.2c1.46.05,2.92,0,4.39,0C74.37,43.06,74.36,42.79,74.2,42.8Z"/><path class="cls-23" d="M74.2,43.44c-1.46.06-2.93,0-4.39.05-.13,0-.12.19,0,.2,1.46.05,2.92,0,4.39,0C74.37,43.7,74.36,43.43,74.2,43.44Z"/><path class="cls-21" d="M72.69,20.94c0,.46-.25,2.14-.56,2.14s-.55-1.68-.55-2.14.25-.85.55-.85S72.69,20.47,72.69,20.94Z"/><path class="cls-21" d="M79.58,23.51c-.36.3-1.46,1.58-1.26,1.81s1.63-.67,2-1,.48-.74.28-1S79.93,23.21,79.58,23.51Z"/><path class="cls-21" d="M82.26,31c-.46.06-2.15,0-2.19-.28s1.59-.76,2.05-.82.87.14.91.44S82.73,30.92,82.26,31Z"/><path class="cls-21" d="M65.32,23c.37.29,1.53,1.52,1.35,1.76s-1.66-.6-2-.89-.51-.71-.32-.95S65,22.67,65.32,23Z"/><path class="cls-21" d="M61.82,29.78c.46.06,2.16,0,2.2-.28s-1.6-.76-2.06-.81-.87.14-.9.44S61.36,29.72,61.82,29.78Z"/><path class="cls-24" d="M75.22,35.52a1.78,1.78,0,0,1-.55-.64,2.35,2.35,0,0,0,.43-1.17,6,6,0,0,0,0-.74.64.64,0,0,0-.23-.59c-.18-.14-.42,0-.56.11a1.31,1.31,0,0,0-.3.6,2.6,2.6,0,0,0,0,1.27,2.9,2.9,0,0,0,.12.42,1.14,1.14,0,0,1-.34.19.72.72,0,0,1-.88-.44l-.09-.17.09-.25a4.78,4.78,0,0,0,.24-1.24c0-.35,0-.76-.29-1a.22.22,0,0,0-.3.08,2.57,2.57,0,0,0-.19,2.35,6.54,6.54,0,0,1-.3.59c-.13.21-.36.54-.64.5s-.48-.37-.61-.58a2.12,2.12,0,0,1-.23-.48l.09-.27A5,5,0,0,0,70.88,33c0-.31,0-.75-.31-.9a.21.21,0,0,0-.29.08,3.07,3.07,0,0,0-.17,2.09.64.64,0,0,0,0,.07,4.57,4.57,0,0,1-.9,1.42c-.17.19.1.46.28.28a5,5,0,0,0,.84-1.16,2.56,2.56,0,0,0,.22.35,1.25,1.25,0,0,0,.9.61,1.13,1.13,0,0,0,.87-.56,3,3,0,0,0,.26-.42,1.13,1.13,0,0,0,.8.57,1.36,1.36,0,0,0,.92-.24,2.73,2.73,0,0,0,.6.71A.24.24,0,1,0,75.22,35.52Zm-2.49-3a3.26,3.26,0,0,1,0,.5,3.44,3.44,0,0,1-.09.56A1.91,1.91,0,0,1,72.73,32.5Zm1.69,1.09a1.87,1.87,0,0,1,.12-.52.88.88,0,0,1,.1-.22s0,0,0,0v0a3.52,3.52,0,0,1-.15,1.33.47.47,0,0,1-.06.15A2.71,2.71,0,0,1,74.42,33.59Z"/><path class="cls-24" d="M75.63,34.45c-.77,2.35-1.58,4.68-2.45,7a.23.23,0,0,0,.43.17c.86-2.31,1.67-4.64,2.39-7C76.07,34.36,75.71,34.21,75.63,34.45Z"/><path class="cls-24" d="M68.64,34.31c.61,2.39,1.18,4.79,1.69,7.2.07.29.52.21.45-.08Q70,37.8,69,34.23C69,34,68.57,34.06,68.64,34.31Z"/><circle class="cls-5" cx="118.82" cy="5.37" r="0.82"/><path class="cls-6" d="M114.34,2.88a4.9,4.9,0,0,1,.86-1.13,5.12,5.12,0,0,1,7.24,0,4.9,4.9,0,0,1,.86,1.13"/><path class="cls-6" d="M115.21,3.75A4.17,4.17,0,0,1,116,2.58a4,4,0,0,1,6.4,1.17"/><path class="cls-6" d="M116.13,4.67a2.78,2.78,0,0,1,5.38,0"/><line class="cls-6" x1="118.87" y1="7.42" x2="118.87" y2="16.73"/><rect class="cls-24" x="111.2" y="11.74" width="15.23" height="31.51"/><path class="cls-25" d="M120.62,33.27V14.92c0-.75-.81-1.35-1.8-1.35s-1.8.6-1.8,1.35V33.27a4.27,4.27,0,1,0,3.6,0Z"/><path class="cls-26" d="M119.56,34.75V15.93a.74.74,0,1,0-1.48,0V34.75a2.68,2.68,0,0,0-1.88,2.56,2.62,2.62,0,1,0,5.24,0A2.68,2.68,0,0,0,119.56,34.75Z"/><rect class="cls-25" x="113.2" y="16.73" width="2.69" height="0.55"/><rect class="cls-25" x="113.2" y="19.48" width="2.69" height="0.55"/><rect class="cls-25" x="113.2" y="22.23" width="2.69" height="0.55"/><rect class="cls-25" x="113.2" y="24.98" width="2.69" height="0.55"/><rect class="cls-25" x="113.2" y="27.73" width="2.69" height="0.55"/><rect class="cls-25" x="113.2" y="30.48" width="2.69" height="0.55"/><rect class="cls-25" x="121.59" y="16.73" width="2.69" height="0.55"/><rect class="cls-25" x="121.59" y="19.48" width="2.69" height="0.55"/><rect class="cls-25" x="121.59" y="22.23" width="2.69" height="0.55"/><rect class="cls-25" x="121.59" y="24.98" width="2.69" height="0.55"/><rect class="cls-25" x="121.59" y="27.73" width="2.69" height="0.55"/><rect class="cls-25" x="121.59" y="30.48" width="2.69" height="0.55"/><circle class="cls-5" cx="27.99" cy="97.6" r="0.82"/><path class="cls-6" d="M23.51,95.11A4.9,4.9,0,0,1,24.37,94a5.12,5.12,0,0,1,7.24,0,4.9,4.9,0,0,1,.86,1.13"/><path class="cls-6" d="M24.39,96a3.73,3.73,0,0,1,.81-1.17A4,4,0,0,1,31.6,96"/><path class="cls-6" d="M25.3,96.9a2.78,2.78,0,0,1,5.38,0"/><line class="cls-6" x1="28.04" y1="99.65" x2="28.04" y2="108.96"/><rect class="cls-27" x="11.07" y="105.68" width="33.84" height="22.33"/><rect class="cls-27" x="9.68" y="103.89" width="36.61" height="1.71"/><rect class="cls-28" x="21.21" y="110.07" width="13.56" height="15.68"/><rect class="cls-29" x="22.13" y="110.89" width="11.73" height="13.87"/><rect class="cls-30" x="23.77" y="114.4" width="8.26" height="1.29"/><polygon class="cls-31" points="30.55 124.59 25.26 124.59 24.31 115.69 31.5 115.69 30.55 124.59"/><rect class="cls-32" x="27.25" y="110.89" width="1.47" height="2.26"/><path class="cls-13" d="M31.41,116.66c1.08,0,1.88-.09,1.88,1.73s-1.43,4.08-2.51,4.08"/><rect class="cls-28" x="14.43" y="115.05" width="5.07" height="1.56"/><rect class="cls-28" x="14.43" y="110.92" width="5.07" height="1.56"/><rect class="cls-28" x="14.43" y="118.8" width="5.07" height="1.56"/><ellipse class="cls-33" cx="39.26" cy="114.2" rx="2.71" ry="3.6"/><path class="cls-31" d="M39.2,116.8c1.71-1.9-.12-2.87-.24-3.93a1.72,1.72,0,0,1,.24-1.17,2,2,0,0,0-.81,1.54C38.38,115,40.19,115.15,39.2,116.8Z"/><rect class="cls-28" x="20.16" y="124.59" width="15.67" height="1.71"/><path class="cls-13" d="M162,32.9V26.77a3.88,3.88,0,0,1,3.87-3.87h2.91a3.88,3.88,0,0,1,3.87,3.87V32.9"/><rect class="cls-34" x="158.61" y="32.9" width="17.42" height="15.48" rx="1.23"/><path class="cls-35" d="M169.17,38.08a1.94,1.94,0,1,0-3,1.63l-.4,4.3h2.91l-.4-4.3A1.94,1.94,0,0,0,169.17,38.08Z"/><circle class="cls-5" cx="167.31" cy="15.22" r="0.82"/><path class="cls-6" d="M162.84,12.73a5.1,5.1,0,0,1,8.95,0"/><path class="cls-6" d="M163.71,13.6a3.89,3.89,0,0,1,.81-1.18,4,4,0,0,1,5.59,0,3.89,3.89,0,0,1,.81,1.18"/><path class="cls-6" d="M164.62,14.51a2.79,2.79,0,0,1,5.39,0"/><line class="cls-6" x1="167.36" y1="17.26" x2="167.36" y2="22.58"/><circle class="cls-5" cx="118.71" cy="97.66" r="0.72"/><path class="cls-6" d="M114.78,95.47a4.46,4.46,0,0,1,.75-1,4.5,4.5,0,0,1,6.37,0,4.46,4.46,0,0,1,.75,1"/><path class="cls-6" d="M115.54,96.24a3.47,3.47,0,0,1,6.34,0"/><path class="cls-6" d="M116.35,97a2.49,2.49,0,0,1,.63-1.11,2.46,2.46,0,0,1,3.46,0,2.51,2.51,0,0,1,.64,1.11"/><line class="cls-6" x1="118.75" y1="99.46" x2="118.75" y2="107.65"/><text class="cls-4" transform="translate(89.11 142.5)">802.11ah AP</text><polygon class="cls-36" points="124.07 128.01 113.57 128.01 115.71 104.25 121.93 104.25 124.07 128.01"/><line class="cls-37" x1="119.18" y1="50.08" x2="119.57" y2="80.24"/><polygon class="cls-38" points="117.07 79.55 119.62 83.83 122.05 79.48 117.07 79.55"/><line class="cls-37" x1="52.36" y1="115.69" x2="106.61" y2="102.49"/><polygon class="cls-38" points="106.49 105.08 110.09 101.64 105.31 100.24 106.49 105.08"/><line class="cls-37" x1="58.55" y1="78.41" x2="104.69" y2="93.69"/><polygon class="cls-38" points="103.21 95.83 108.09 94.82 104.78 91.09 103.21 95.83"/><line class="cls-37" x1="79.29" y1="56.36" x2="108.65" y2="85.32"/><polygon class="cls-38" points="106.38 86.58 111.2 87.84 109.88 83.03 106.38 86.58"/><line class="cls-37" x1="187.41" y1="115.83" x2="132.59" y2="102.49"/><polygon class="cls-38" points="133.89 100.24 129.1 101.64 132.71 105.08 133.89 100.24"/><line class="cls-37" x1="180.65" y1="78.41" x2="134.51" y2="93.69"/><polygon class="cls-38" points="134.42 91.09 131.1 94.82 135.99 95.83 134.42 91.09"/><line class="cls-37" x1="159.9" y1="56.36" x2="130.55" y2="85.32"/><polygon class="cls-38" points="129.31 83.03 127.99 87.84 132.82 86.58 129.31 83.03"/><line class="cls-1" x1="117.99" y1="357.25" x2="117.99" y2="245.39"/><line class="cls-1" x1="183.63" y1="287.78" x2="139.65" y2="247.95"/><line class="cls-1" x1="53.78" y1="287.78" x2="99.58" y2="247.95"/><rect class="cls-2" x="24.11" y="282.53" width="59.33" height="39.21"/><rect class="cls-2" x="20.19" y="279.78" width="67.16" height="3.41"/><rect class="cls-3" x="28.78" y="286.2" width="11.98" height="8.05"/><rect class="cls-3" x="47.78" y="286.2" width="11.98" height="8.05"/><rect class="cls-3" x="66.79" y="286.2" width="11.98" height="8.05"/><rect class="cls-3" x="28.78" y="297.39" width="11.98" height="8.05"/><rect class="cls-3" x="47.78" y="297.39" width="11.98" height="8.05"/><rect class="cls-3" x="66.79" y="297.39" width="11.98" height="8.05"/><rect class="cls-3" x="28.78" y="308.58" width="11.98" height="8.05"/><rect class="cls-3" x="47.78" y="308.58" width="11.98" height="13.16"/><rect class="cls-3" x="66.79" y="308.58" width="11.98" height="8.05"/><text class="cls-4" transform="translate(0 336.41)">Smart Home Providers</text><rect class="cls-2" x="153.97" y="284.02" width="59.33" height="39.21"/><rect class="cls-2" x="150.05" y="281.26" width="67.16" height="3.41"/><rect class="cls-3" x="158.63" y="287.69" width="11.98" height="8.05"/><rect class="cls-3" x="177.64" y="287.69" width="11.98" height="8.05"/><rect class="cls-3" x="196.65" y="287.69" width="11.98" height="8.05"/><rect class="cls-3" x="158.63" y="298.88" width="11.98" height="8.05"/><rect class="cls-3" x="177.64" y="298.88" width="11.98" height="8.05"/><rect class="cls-3" x="196.65" y="298.88" width="11.98" height="8.05"/><rect class="cls-3" x="158.63" y="310.07" width="11.98" height="8.05"/><rect class="cls-3" x="177.64" y="310.07" width="11.98" height="13.16"/><rect class="cls-3" x="196.65" y="310.07" width="11.98" height="8.05"/><text class="cls-4" transform="translate(129.86 337.89)">Smart City Providers</text><path class="cls-36" d="M86.85,202.8c.64,0,1.27,0,1.9.08a34.87,34.87,0,0,1,67.83,11.39,17.38,17.38,0,1,1,0,34.75c-.45,0-.89,0-1.33-.05v.11H123.67c-.64,0-1.3.06-2,.06s-1.32,0-2-.06H88.88v0c-.67.06-1.35.09-2,.09a23.17,23.17,0,0,1,0-46.34Z"/></g></g></svg>