<svg xmlns="http://www.w3.org/2000/svg" viewBox="0 0 101.24 93.58"><defs><style>.cls-1{fill:#03a5ed;}.cls-1,.cls-2,.cls-3,.cls-5,.cls-6{stroke:#000;stroke-miterlimit:10;stroke-width:0.75px;}.cls-2{fill:#b2b2b2;}.cls-3{fill:#1d1d1b;}.cls-4{fill:#fff;}.cls-5{fill:none;}.cls-6{fill:#7bbee7;}</style></defs><g id="Layer_2" data-name="Layer 2"><g id="pic"><rect class="cls-1" x="73.77" y="31.15" width="4.38" height="19.79" transform="translate(151.93 82.08) rotate(180)"/><path class="cls-1" d="M75.79,46.18h.35a5.64,5.64,0,0,1,5.64,5.64v6.58a0,0,0,0,1,0,0H70.15a0,0,0,0,1,0,0V51.83A5.64,5.64,0,0,1,75.79,46.18Z"/><path class="cls-1" d="M75.74,48.28h.45a7.38,7.38,0,0,1,7.38,7.38v6.08a0,0,0,0,1,0,0H68.35a0,0,0,0,1,0,0V55.66A7.38,7.38,0,0,1,75.74,48.28Z"/><path class="cls-1" d="M73.4,19.4h7.15v12H73.4a6,6,0,0,1-6-6h0A6,6,0,0,1,73.4,19.4Z"/><circle class="cls-2" cx="80.55" cy="25.4" r="6"/><circle class="cls-3" cx="80.49" cy="25.46" r="4.05"/><circle class="cls-4" cx="82.37" cy="24.02" r="0.94"/><circle class="cls-5" cx="32.96" cy="8.19" r="1.25"/><path class="cls-5" d="M26.12,4.39a8,8,0,0,1,1.31-1.73,7.83,7.83,0,0,1,11.06,0,7.92,7.92,0,0,1,1.3,1.73"/><path class="cls-5" d="M27.45,5.72a6.37,6.37,0,0,1,1.24-1.8,6,6,0,0,1,9.77,1.8"/><path class="cls-5" d="M28.85,7.12A4.11,4.11,0,0,1,30,5.19a4.24,4.24,0,0,1,6,0,4.18,4.18,0,0,1,1.1,1.93"/><line class="cls-5" x1="33.03" y1="11.31" x2="33.03" y2="59.54"/><rect class="cls-1" x="21.45" y="41.78" width="23.01" height="15.2"/><rect class="cls-5" x="7.78" y="12.76" width="21.05" height="13.62"/><line class="cls-5" x1="10.79" y1="12.76" x2="10.79" y2="26.38"/><line class="cls-5" x1="13.79" y1="12.76" x2="13.79" y2="26.38"/><line class="cls-5" x1="16.8" y1="12.76" x2="16.8" y2="26.38"/><line class="cls-5" x1="19.81" y1="12.76" x2="19.81" y2="26.38"/><line class="cls-5" x1="22.82" y1="12.76" x2="22.82" y2="26.38"/><line class="cls-5" x1="25.82" y1="12.76" x2="25.82" y2="26.38"/><line class="cls-5" x1="7.78" y1="15.48" x2="28.83" y2="15.48"/><line class="cls-5" x1="7.78" y1="18.21" x2="28.83" y2="18.21"/><line class="cls-5" x1="7.78" y1="20.93" x2="28.83" y2="20.93"/><line class="cls-5" x1="7.78" y1="23.66" x2="28.83" y2="23.66"/><rect class="cls-5" x="37.09" y="12.76" width="21.05" height="13.62"/><line class="cls-5" x1="40.09" y1="12.76" x2="40.09" y2="26.38"/><line class="cls-5" x1="43.1" y1="12.76" x2="43.1" y2="26.38"/><line class="cls-5" x1="46.11" y1="12.76" x2="46.11" y2="26.38"/><line class="cls-5" x1="49.11" y1="12.76" x2="49.11" y2="26.38"/><line class="cls-5" x1="52.12" y1="12.76" x2="52.12" y2="26.38"/><line class="cls-5" x1="55.13" y1="12.76" x2="55.13" y2="26.38"/><line class="cls-5" x1="37.09" y1="15.48" x2="58.14" y2="15.48"/><line class="cls-5" x1="37.09" y1="18.21" x2="58.14" y2="18.21"/><line class="cls-5" x1="37.09" y1="20.93" x2="58.14" y2="20.93"/><line class="cls-5" x1="37.09" y1="23.66" x2="58.14" y2="23.66"/><line class="cls-5" x1="28.83" y1="19.36" x2="37.09" y2="19.36"/><rect class="cls-1" x="19.27" y="45.37" width="27.38" height="15.2"/><rect class="cls-1" x="13.67" y="58.23" width="73.78" height="23.42"/><line class="cls-6" x1="13.79" y1="61.74" x2="87.57" y2="61.74"/><polyline class="cls-5" points="52.91 46.26 57.01 53.55 59.29 45.35"/><path class="cls-1" d="M52.33,55.3a4.69,4.69,0,0,1,9.37,0"/><circle class="cls-1" cx="52.91" cy="46.52" r="1.17"/><circle class="cls-1" cx="59.36" cy="45.35" r="1.17"/><line class="cls-6" x1="13.47" y1="35.01" x2="13.47" y2="50.16"/><path class="cls-1" d="M14.23,50.46a1,1,0,0,0-.81-.39h0a1,1,0,0,0-1,1v4.4h2.07V51.1A1,1,0,0,0,14.23,50.46Z"/><rect class="cls-1" x="11.83" y="31.29" width="3.17" height="3.84" rx="1.1"/><path class="cls-1" d="M15.49,53.65a.92.92,0,0,0-.86-.59H12.19a.92.92,0,0,0-.91.92v2.81h4.27V54A.88.88,0,0,0,15.49,53.65Z"/><rect class="cls-1" x="9.05" y="55.3" width="83.15" height="3.51"/><rect class="cls-1" x="63.56" y="64.13" width="10.53" height="4.94" rx="2.4"/><rect class="cls-6" x="64.97" y="65.42" width="7.71" height="2.36" rx="1.15"/><path class="cls-2" d="M14.91,93.2a15.22,15.22,0,0,1-1.79-.11,1.67,1.67,0,0,1,.41-3.31,11.68,11.68,0,0,0,3.34-.09A1.67,1.67,0,0,1,17.45,93,14.36,14.36,0,0,1,14.91,93.2ZM8.48,91.49a1.68,1.68,0,0,1-.83-.23,14.25,14.25,0,0,1-3.39-2.7A1.67,1.67,0,1,1,6.7,86.29a11.43,11.43,0,0,0,2.62,2.08,1.67,1.67,0,0,1-.84,3.12Zm13.43-.35A1.67,1.67,0,0,1,21,88.07a11.25,11.25,0,0,0,2.5-2.22A1.67,1.67,0,0,1,26.06,88a14.59,14.59,0,0,1-3.25,2.87A1.66,1.66,0,0,1,21.91,91.14ZM2.81,84.75a1.67,1.67,0,0,1-1.57-1.1A14.29,14.29,0,0,1,.38,79.4a1.67,1.67,0,1,1,3.33-.17,10.94,10.94,0,0,0,.67,3.27,1.68,1.68,0,0,1-1,2.15A1.63,1.63,0,0,1,2.81,84.75Zm24.41-.64a1.71,1.71,0,0,1-.49-.07A1.67,1.67,0,0,1,25.63,82a11.08,11.08,0,0,0,.49-3.3v0a1.67,1.67,0,0,1,1.66-1.68h0a1.67,1.67,0,0,1,1.67,1.65v.07a14.48,14.48,0,0,1-.64,4.29A1.67,1.67,0,0,1,27.22,84.11ZM2.79,75.94a1.63,1.63,0,0,1-.57-.1,1.68,1.68,0,0,1-1-2.14,14.68,14.68,0,0,1,2.07-3.81A1.67,1.67,0,1,1,6,71.9a11.31,11.31,0,0,0-1.59,2.94A1.67,1.67,0,0,1,2.79,75.94Zm24-.67a1.67,1.67,0,0,1-1.53-1,11.31,11.31,0,0,0-1.76-2.84,1.67,1.67,0,0,1,.2-2.35,1.66,1.66,0,0,1,2.35.2,14.6,14.6,0,0,1,2.28,3.68,1.66,1.66,0,0,1-1.54,2.33ZM8.44,69.18A1.67,1.67,0,0,1,7,68.35a1.66,1.66,0,0,1,.6-2.28,14.32,14.32,0,0,1,4-1.6,1.67,1.67,0,1,1,.75,3.25A11.22,11.22,0,0,0,9.28,69,1.71,1.71,0,0,1,8.44,69.18Zm12.31-.35a1.7,1.7,0,0,1-.76-.18,11,11,0,0,0-3.17-1.05,1.67,1.67,0,1,1,.57-3.29,14.69,14.69,0,0,1,4.12,1.37,1.67,1.67,0,0,1-.76,3.15Z"/><circle class="cls-2" cx="14.91" cy="78.65" r="12.88"/><circle class="cls-2" cx="14.91" cy="78.65" r="9.37"/><circle class="cls-2" cx="14.91" cy="78.65" r="1.76"/><path class="cls-2" d="M50.61,93.2a15.22,15.22,0,0,1-1.79-.11,1.67,1.67,0,0,1,.41-3.31,11.68,11.68,0,0,0,3.34-.09A1.67,1.67,0,0,1,53.15,93,14.36,14.36,0,0,1,50.61,93.2Zm-6.43-1.71a1.68,1.68,0,0,1-.83-.23A14.25,14.25,0,0,1,40,88.56a1.67,1.67,0,1,1,2.44-2.27A11.43,11.43,0,0,0,45,88.37a1.67,1.67,0,0,1-.84,3.12Zm13.43-.35a1.67,1.67,0,0,1-.91-3.07,11.25,11.25,0,0,0,2.5-2.22A1.67,1.67,0,0,1,61.76,88a14.77,14.77,0,0,1-3.24,2.87A1.69,1.69,0,0,1,57.61,91.14Zm-19.1-6.39a1.67,1.67,0,0,1-1.57-1.1,14.29,14.29,0,0,1-.86-4.25,1.67,1.67,0,1,1,3.33-.17,10.94,10.94,0,0,0,.67,3.27,1.68,1.68,0,0,1-1,2.15A1.59,1.59,0,0,1,38.51,84.75Zm24.42-.64a1.73,1.73,0,0,1-.5-.07A1.67,1.67,0,0,1,61.33,82a11.08,11.08,0,0,0,.49-3.3v0a1.67,1.67,0,0,1,1.66-1.68h0a1.66,1.66,0,0,1,1.67,1.65v.07a14.48,14.48,0,0,1-.64,4.29A1.67,1.67,0,0,1,62.93,84.11ZM38.49,75.94a1.54,1.54,0,0,1-.56-.1,1.67,1.67,0,0,1-1-2.14A14.68,14.68,0,0,1,39,69.89a1.67,1.67,0,0,1,2.67,2,11,11,0,0,0-1.6,2.94A1.66,1.66,0,0,1,38.49,75.94Zm24-.67a1.67,1.67,0,0,1-1.54-1,11.57,11.57,0,0,0-1.75-2.84,1.66,1.66,0,1,1,2.54-2.15A14.32,14.32,0,0,1,64,72.94a1.66,1.66,0,0,1-1.53,2.33ZM44.14,69.18a1.67,1.67,0,0,1-1.44-.83,1.66,1.66,0,0,1,.6-2.28,14.44,14.44,0,0,1,4-1.6,1.67,1.67,0,1,1,.75,3.25A11.22,11.22,0,0,0,45,69,1.69,1.69,0,0,1,44.14,69.18Zm12.31-.35a1.73,1.73,0,0,1-.76-.18,11,11,0,0,0-3.16-1.05,1.67,1.67,0,1,1,.56-3.29,14.59,14.59,0,0,1,4.12,1.37,1.67,1.67,0,0,1-.76,3.15Z"/><circle class="cls-2" cx="50.61" cy="78.65" r="12.88"/><circle class="cls-2" cx="50.61" cy="78.65" r="9.37"/><circle class="cls-2" cx="50.61" cy="78.65" r="1.76"/><path class="cls-2" d="M86.31,93.2a15.22,15.22,0,0,1-1.79-.11,1.67,1.67,0,1,1,.41-3.31,11.68,11.68,0,0,0,3.34-.09A1.67,1.67,0,1,1,88.85,93,14.36,14.36,0,0,1,86.31,93.2Zm-6.42-1.71a1.71,1.71,0,0,1-.84-.23,14.25,14.25,0,0,1-3.39-2.7,1.67,1.67,0,0,1,2.45-2.27,11.17,11.17,0,0,0,2.61,2.08,1.67,1.67,0,0,1-.83,3.12Zm13.42-.35a1.67,1.67,0,0,1-.91-3.07,11.53,11.53,0,0,0,2.51-2.22A1.67,1.67,0,1,1,97.46,88a14.54,14.54,0,0,1-3.24,2.87A1.69,1.69,0,0,1,93.31,91.14Zm-19.1-6.39a1.67,1.67,0,0,1-1.57-1.1,14.61,14.61,0,0,1-.86-4.25,1.67,1.67,0,1,1,3.33-.17,11.26,11.26,0,0,0,.67,3.27,1.66,1.66,0,0,1-1.57,2.25Zm24.42-.64a1.61,1.61,0,0,1-.49-.07A1.67,1.67,0,0,1,97,82a11.09,11.09,0,0,0,.5-3.3v0a1.67,1.67,0,0,1,1.66-1.68h0a1.66,1.66,0,0,1,1.67,1.65v.07a14.48,14.48,0,0,1-.64,4.29A1.67,1.67,0,0,1,98.63,84.11ZM74.19,75.94a1.58,1.58,0,0,1-.56-.1,1.67,1.67,0,0,1-1-2.14,14.68,14.68,0,0,1,2.07-3.81,1.67,1.67,0,0,1,2.67,2,11,11,0,0,0-1.6,2.94A1.66,1.66,0,0,1,74.19,75.94Zm24-.67a1.67,1.67,0,0,1-1.54-1,11.57,11.57,0,0,0-1.75-2.84,1.67,1.67,0,1,1,2.55-2.15,14.56,14.56,0,0,1,2.27,3.68,1.68,1.68,0,0,1-.88,2.2A1.64,1.64,0,0,1,98.17,75.27ZM79.84,69.18a1.67,1.67,0,0,1-1.44-.83,1.66,1.66,0,0,1,.6-2.28,14.38,14.38,0,0,1,4-1.6,1.67,1.67,0,1,1,.74,3.25A11.22,11.22,0,0,0,80.68,69,1.69,1.69,0,0,1,79.84,69.18Zm12.31-.35a1.76,1.76,0,0,1-.76-.18,11,11,0,0,0-3.16-1.05,1.67,1.67,0,0,1,.56-3.29,14.59,14.59,0,0,1,4.12,1.37,1.67,1.67,0,0,1-.76,3.15Z"/><circle class="cls-2" cx="86.31" cy="78.65" r="12.88"/><circle class="cls-2" cx="86.31" cy="78.65" r="9.37"/><circle class="cls-2" cx="86.31" cy="78.65" r="1.76"/></g></g></svg>