<svg xmlns="http://www.w3.org/2000/svg" viewBox="0 0 126.08 90.01"><defs><style>.cls-1,.cls-11,.cls-3,.cls-4{fill:none;}.cls-1{stroke:#7a84aa;stroke-dasharray:3 2;}.cls-1,.cls-10,.cls-11,.cls-12,.cls-3,.cls-6,.cls-7,.cls-9{stroke-miterlimit:10;}.cls-1,.cls-3,.cls-4{stroke-width:0.5px;}.cls-2{fill:#7a84aa;}.cls-3,.cls-4{stroke:#b2c1f3;}.cls-4,.cls-5{stroke-linecap:round;stroke-linejoin:round;}.cls-5,.cls-9{fill:#575756;}.cls-10,.cls-12,.cls-5,.cls-6,.cls-7,.cls-9{stroke:#000;}.cls-10,.cls-11,.cls-12,.cls-5,.cls-6,.cls-7,.cls-9{stroke-width:0.75px;}.cls-6{fill:#b2b2b2;}.cls-7{fill:#03a5ed;}.cls-8{fill:#0d0c0d;}.cls-10{fill:#cfc5fb;}.cls-11{stroke:#fff;}.cls-12{fill:#95c11f;}</style></defs><g id="Layer_2" data-name="Layer 2"><g id="pic"><line class="cls-1" x1="24.76" y1="22.78" x2="122.52" y2="11.74"/><polygon class="cls-2" points="122.07 14.3 126.08 11.34 121.51 9.34 122.07 14.3"/><circle class="cls-3" cx="11.29" cy="24.11" r="2.02"/><path class="cls-4" d="M.25,18a12.63,12.63,0,0,1,20-2.79A12.43,12.43,0,0,1,22.32,18"/><path class="cls-4" d="M2.4,20.12a9.74,9.74,0,0,1,15.77-2.9,9.54,9.54,0,0,1,2,2.9"/><path class="cls-4" d="M4.65,22.37a6.86,6.86,0,0,1,11.48-3.11,6.78,6.78,0,0,1,1.79,3.11"/><line class="cls-4" x1="11.4" y1="29.15" x2="11.4" y2="52.12"/><rect class="cls-5" x="10.51" y="38.05" width="1.55" height="29.65"/><rect class="cls-5" x="9.74" y="61.87" width="3.09" height="16.47"/><polygon class="cls-5" points="12.06 55.69 10.51 55.69 9.74 61.87 12.83 61.87 12.06 55.69"/><path class="cls-6" d="M6.45,82.61h4.87a0,0,0,0,1,0,0V87.2a2.44,2.44,0,0,1-2.44,2.44h0A2.44,2.44,0,0,1,6.45,87.2V82.61A0,0,0,0,1,6.45,82.61Z"/><path class="cls-6" d="M76.51,82.61h4.87a0,0,0,0,1,0,0V87.2a2.44,2.44,0,0,1-2.44,2.44h0a2.44,2.44,0,0,1-2.44-2.44V82.61A0,0,0,0,1,76.51,82.61Z"/><rect class="cls-7" x="3.28" y="68.77" width="80.18" height="16.01"/><circle class="cls-8" cx="11.16" cy="76.78" r="2.28"/><circle class="cls-8" cx="19.22" cy="76.78" r="2.28"/><circle class="cls-8" cx="27.28" cy="76.78" r="2.28"/><polygon class="cls-9" points="43.21 76.41 42.66 74.5 39.42 74.5 38.88 76.41 37.32 76.41 37.32 80.21 44.77 80.21 44.77 76.41 43.21 76.41"/><polygon class="cls-9" points="53.96 76.41 53.42 74.5 50.18 74.5 49.63 76.41 48.07 76.41 48.07 80.21 55.52 80.21 55.52 76.41 53.96 76.41"/><polygon class="cls-9" points="64.72 76.41 64.17 74.5 60.94 74.5 60.39 76.41 58.83 76.41 58.83 80.21 66.28 80.21 66.28 76.41 64.72 76.41"/><polygon class="cls-9" points="75.47 76.41 74.93 74.5 71.69 74.5 71.14 76.41 69.58 76.41 69.58 80.21 77.03 80.21 77.03 76.41 75.47 76.41"/><rect class="cls-10" x="60.74" y="0.38" width="27.97" height="39.28"/><line class="cls-11" x1="63.66" y1="8.67" x2="84.53" y2="8.67"/><line class="cls-11" x1="63.66" y1="12.35" x2="84.53" y2="12.35"/><line class="cls-11" x1="63.66" y1="16.03" x2="84.53" y2="16.03"/><line class="cls-11" x1="63.66" y1="19.7" x2="84.53" y2="19.7"/><line class="cls-11" x1="63.66" y1="23.38" x2="84.53" y2="23.38"/><rect class="cls-12" x="51.8" y="5.91" width="27.97" height="39.28"/><line class="cls-11" x1="54.72" y1="14.21" x2="75.59" y2="14.21"/><line class="cls-11" x1="54.72" y1="17.89" x2="75.59" y2="17.89"/><line class="cls-11" x1="54.72" y1="21.57" x2="75.59" y2="21.57"/><line class="cls-11" x1="54.72" y1="25.24" x2="75.59" y2="25.24"/><line class="cls-11" x1="54.72" y1="28.92" x2="75.59" y2="28.92"/></g></g></svg>