<svg xmlns="http://www.w3.org/2000/svg" viewBox="0 0 45.74 74.33"><defs><style>.cls-1{fill:#010101;}.cls-1,.cls-2,.cls-3,.cls-4,.cls-5{stroke:#1717b0;stroke-linecap:round;stroke-linejoin:round;stroke-width:0.25px;}.cls-2{fill:#cfc5fb;}.cls-3{fill:#81a8f8;}.cls-4{fill:#a6fcf6;}.cls-5{fill:#ceb0fa;}</style></defs><g id="Layer_2" data-name="Layer 2"><g id="pic"><polygon class="cls-1" points="0.13 37.85 0.13 37.85 0.13 37.85 22.86 51.29 22.86 51.29 22.86 51.29 0.13 37.85"/><polygon class="cls-1" points="45.6 37.85 22.86 51.29 22.86 51.29 22.86 51.29 22.86 51.29 45.6 37.85 45.6 37.85"/><polygon class="cls-2" points="6.35 27.52 0.13 37.85 0.13 37.85 22.86 27.52 22.86 27.52 22.86 27.52 22.86 0.13 6.35 27.52"/><polygon class="cls-3" points="22.86 27.52 0.13 37.85 22.86 51.29 22.86 51.29 22.86 27.52 22.86 27.52"/><polygon class="cls-4" points="39.37 27.52 22.86 0.13 22.86 0.13 22.86 27.52 22.86 27.52 45.6 37.85 45.6 37.85 39.37 27.52"/><polygon class="cls-5" points="22.86 27.52 22.86 51.29 45.6 37.85 22.86 27.52"/><polygon class="cls-3" points="0.13 42.16 22.86 74.2 22.86 55.6 0.13 42.16"/><polygon class="cls-5" points="22.86 55.6 22.86 74.21 45.61 42.16 22.86 55.6"/></g></g></svg>