<svg xmlns="http://www.w3.org/2000/svg" viewBox="0 0 179.54 97"><defs><style>.cls-1{isolation:isolate;}.cls-2{fill:#141497;}.cls-3{fill:#0c0c58;}.cls-4{fill:#0c0c5e;}.cls-5{fill:#12128c;}.cls-6{fill:#ceb0fa;}.cls-10,.cls-14,.cls-6{stroke:#1717b0;stroke-linecap:round;stroke-linejoin:round;stroke-width:0.25px;}.cls-7{fill:#598784;}.cls-8{fill:#8fd9d4;}.cls-9{fill:#1717b0;}.cls-10{fill:#a6fcf6;}.cls-11{fill:#131392;}.cls-12{fill:#0f0f6f;}.cls-13{fill:#121288;}.cls-14{fill:none;}</style></defs><g id="Layer_2" data-name="Layer 2"><g id="pic"><g class="cls-1"><polygon class="cls-2" points="23.82 28.33 18.81 25.43 23.62 22.65 28.63 25.55 23.82 28.33"/><polygon class="cls-3" points="23.74 28.46 18.74 25.55 18.73 25.52 23.73 28.43 23.74 28.46"/><polygon class="cls-4" points="28.63 25.55 23.62 22.65 23.61 17.12 28.61 20.03 28.63 25.55"/><polygon class="cls-5" points="28.65 19.91 23.65 17 23.68 16.99 28.68 19.9 28.65 19.91"/><polygon class="cls-6" points="28.61 20.03 28.63 25.55 23.82 28.33 23.8 22.8 28.61 20.03"/><polygon class="cls-7" points="23.82 28.33 18.81 25.43 18.8 19.9 23.8 22.8 23.82 28.33"/><polygon class="cls-8" points="23.8 22.8 18.8 19.9 23.61 17.12 28.61 20.03 23.8 22.8"/><polygon class="cls-9" points="23.73 28.43 18.73 25.52 18.71 19.9 23.72 22.8 23.73 28.43"/><polygon class="cls-10" points="23.76 22.73 18.75 19.82 23.65 17 28.65 19.91 23.76 22.73"/><polygon class="cls-11" points="23.73 22.76 18.72 19.86 18.75 19.82 23.76 22.73 23.73 22.76"/><polygon class="cls-12" points="23.72 22.8 18.71 19.9 18.72 19.86 23.73 22.76 23.72 22.8"/><path class="cls-13" d="M28.68,19.9l0,0V25.6l0,0-4.9,2.82h0v-5.7l0,0,4.89-2.82Zm-.05,5.66,0-5.53L23.8,22.8l0,5.53,4.81-2.77"/></g><g class="cls-1"><polygon class="cls-2" points="49.9 28.33 44.9 25.43 49.71 22.65 54.71 25.55 49.9 28.33"/><polygon class="cls-3" points="49.83 28.46 44.82 25.55 44.81 25.52 49.81 28.43 49.83 28.46"/><polygon class="cls-4" points="54.71 25.55 49.71 22.65 49.69 17.12 54.69 20.03 54.71 25.55"/><polygon class="cls-5" points="54.74 19.91 49.73 17 49.76 16.99 54.77 19.9 54.74 19.91"/><polygon class="cls-6" points="54.69 20.03 54.71 25.55 49.9 28.33 49.88 22.8 54.69 20.03"/><polygon class="cls-7" points="49.9 28.33 44.9 25.43 44.88 19.9 49.88 22.8 49.9 28.33"/><polygon class="cls-8" points="49.88 22.8 44.88 19.9 49.69 17.12 54.69 20.03 49.88 22.8"/><polygon class="cls-9" points="49.81 28.43 44.81 25.52 44.79 19.9 49.8 22.8 49.81 28.43"/><polygon class="cls-10" points="49.84 22.73 44.84 19.82 49.73 17 54.74 19.91 49.84 22.73"/><polygon class="cls-11" points="49.81 22.76 44.81 19.86 44.84 19.82 49.84 22.73 49.81 22.76"/><polygon class="cls-12" points="49.8 22.8 44.79 19.9 44.81 19.86 49.81 22.76 49.8 22.8"/><path class="cls-13" d="M54.77,19.9v5.7l0,0-4.89,2.82h0l0,0V22.76l0,0,4.9-2.82Zm-.06,5.66,0-5.53L49.88,22.8l0,5.53,4.81-2.77"/></g><g class="cls-1"><polygon class="cls-2" points="75.98 28.33 70.98 25.43 75.79 22.65 80.79 25.55 75.98 28.33"/><polygon class="cls-3" points="75.91 28.46 70.9 25.55 70.89 25.52 75.9 28.43 75.91 28.46"/><polygon class="cls-4" points="80.79 25.55 75.79 22.65 75.77 17.12 80.78 20.03 80.79 25.55"/><polygon class="cls-5" points="80.82 19.91 75.81 17 75.84 16.99 80.85 19.9 80.82 19.91"/><polygon class="cls-6" points="80.78 20.03 80.79 25.55 75.98 28.33 75.97 22.8 80.78 20.03"/><polygon class="cls-7" points="75.98 28.33 70.98 25.43 70.96 19.9 75.97 22.8 75.98 28.33"/><polygon class="cls-8" points="75.97 22.8 70.96 19.9 75.77 17.12 80.78 20.03 75.97 22.8"/><polygon class="cls-9" points="75.9 28.43 70.89 25.52 70.88 19.9 75.88 22.8 75.9 28.43"/><polygon class="cls-10" points="75.92 22.73 70.92 19.82 75.81 17 80.82 19.91 75.92 22.73"/><polygon class="cls-11" points="75.89 22.76 70.89 19.86 70.92 19.82 75.92 22.73 75.89 22.76"/><polygon class="cls-12" points="75.88 22.8 70.88 19.9 70.89 19.86 75.89 22.76 75.88 22.8"/><path class="cls-13" d="M80.85,19.9v0l0,5.63,0,0,0,0-4.89,2.82h0v0l0-5.63v0l0,0,4.9-2.82Zm-.06,5.66V20L76,22.8v5.53l4.81-2.77"/></g><g class="cls-1"><polygon class="cls-2" points="102.06 28.33 97.06 25.43 101.87 22.65 106.87 25.55 102.06 28.33"/><polygon class="cls-3" points="101.99 28.46 96.99 25.55 96.97 25.52 101.98 28.43 101.99 28.46"/><polygon class="cls-4" points="106.87 25.55 101.87 22.65 101.85 17.12 106.86 20.03 106.87 25.55"/><polygon class="cls-5" points="106.9 19.91 101.9 17 101.93 16.99 106.93 19.9 106.9 19.91"/><polygon class="cls-6" points="106.86 20.03 106.87 25.55 102.06 28.33 102.05 22.8 106.86 20.03"/><polygon class="cls-7" points="102.06 28.33 97.06 25.43 97.04 19.9 102.05 22.8 102.06 28.33"/><polygon class="cls-8" points="102.05 22.8 97.04 19.9 101.85 17.12 106.86 20.03 102.05 22.8"/><polygon class="cls-9" points="101.98 28.43 96.97 25.52 96.96 19.9 101.96 22.8 101.98 28.43"/><polygon class="cls-10" points="102 22.73 97 19.82 101.9 17 106.9 19.91 102 22.73"/><polygon class="cls-11" points="101.97 22.76 96.97 19.86 97 19.82 102 22.73 101.97 22.76"/><polygon class="cls-12" points="101.96 22.8 96.96 19.9 96.97 19.86 101.97 22.76 101.96 22.8"/><path class="cls-13" d="M106.93,19.9v0l0,5.63v0l0,0L102,28.45h0v0l0-5.63v0l0,0,4.9-2.82Zm-.06,5.66V20l-4.81,2.77v5.53l4.81-2.77"/></g><g class="cls-1"><polygon class="cls-2" points="128.15 28.33 123.14 25.43 127.95 22.65 132.96 25.55 128.15 28.33"/><polygon class="cls-3" points="128.07 28.46 123.07 25.55 123.06 25.52 128.06 28.43 128.07 28.46"/><polygon class="cls-4" points="132.96 25.55 127.95 22.65 127.94 17.12 132.94 20.03 132.96 25.55"/><polygon class="cls-5" points="132.98 19.91 127.98 17 128.01 16.99 133.01 19.9 132.98 19.91"/><polygon class="cls-6" points="132.94 20.03 132.96 25.55 128.15 28.33 128.13 22.8 132.94 20.03"/><polygon class="cls-7" points="128.15 28.33 123.14 25.43 123.13 19.9 128.13 22.8 128.15 28.33"/><polygon class="cls-8" points="128.13 22.8 123.13 19.9 127.94 17.12 132.94 20.03 128.13 22.8"/><polygon class="cls-9" points="128.06 28.43 123.06 25.52 123.04 19.9 128.04 22.8 128.06 28.43"/><polygon class="cls-10" points="128.09 22.73 123.08 19.82 127.98 17 132.98 19.91 128.09 22.73"/><polygon class="cls-11" points="128.06 22.76 123.05 19.86 123.08 19.82 128.09 22.73 128.06 22.76"/><polygon class="cls-12" points="128.04 22.8 123.04 19.9 123.05 19.86 128.06 22.76 128.04 22.8"/><path class="cls-13" d="M133,19.9v0l0,5.63v0l0,0-4.9,2.82h0v0l0-5.63,0,0,0,0L133,19.91Zm0,5.66,0-5.53-4.81,2.77v5.53L133,25.56"/></g><g class="cls-1"><polygon class="cls-2" points="23.82 52.99 18.81 50.08 23.62 47.3 28.63 50.21 23.82 52.99"/><polygon class="cls-3" points="23.74 53.11 18.74 50.21 18.73 50.18 23.73 53.09 23.74 53.11"/><polygon class="cls-4" points="28.63 50.21 23.62 47.3 23.61 41.77 28.61 44.68 28.63 50.21"/><polygon class="cls-5" points="28.65 44.56 23.65 41.65 23.68 41.65 28.68 44.56 28.65 44.56"/><polygon class="cls-6" points="28.61 44.68 28.63 50.21 23.82 52.99 23.8 47.46 28.61 44.68"/><polygon class="cls-7" points="23.82 52.99 18.81 50.08 18.8 44.55 23.8 47.46 23.82 52.99"/><polygon class="cls-8" points="23.8 47.46 18.8 44.55 23.61 41.77 28.61 44.68 23.8 47.46"/><polygon class="cls-9" points="23.73 53.09 18.73 50.18 18.71 44.55 23.72 47.46 23.73 53.09"/><polygon class="cls-10" points="23.76 47.39 18.75 44.48 23.65 41.65 28.65 44.56 23.76 47.39"/><polygon class="cls-11" points="23.73 47.42 18.72 44.51 18.75 44.48 23.76 47.39 23.73 47.42"/><polygon class="cls-12" points="23.72 47.46 18.71 44.55 18.72 44.51 23.73 47.42 23.72 47.46"/><path class="cls-13" d="M28.68,44.56l0,0v5.66l0,0-4.9,2.83h0V47.42l0,0,4.89-2.83Zm-.05,5.65,0-5.53L23.8,47.46l0,5.53,4.81-2.78"/></g><g class="cls-1"><polygon class="cls-2" points="49.9 52.99 44.9 50.08 49.71 47.3 54.71 50.21 49.9 52.99"/><polygon class="cls-3" points="49.83 53.11 44.82 50.21 44.81 50.18 49.81 53.09 49.83 53.11"/><polygon class="cls-4" points="54.71 50.21 49.71 47.3 49.69 41.77 54.69 44.68 54.71 50.21"/><polygon class="cls-5" points="54.74 44.56 49.73 41.65 49.76 41.65 54.77 44.56 54.74 44.56"/><polygon class="cls-6" points="54.69 44.68 54.71 50.21 49.9 52.99 49.88 47.46 54.69 44.68"/><polygon class="cls-7" points="49.9 52.99 44.9 50.08 44.88 44.55 49.88 47.46 49.9 52.99"/><polygon class="cls-8" points="49.88 47.46 44.88 44.55 49.69 41.77 54.69 44.68 49.88 47.46"/><polygon class="cls-9" points="49.81 53.09 44.81 50.18 44.79 44.55 49.8 47.46 49.81 53.09"/><polygon class="cls-10" points="49.84 47.39 44.84 44.48 49.73 41.65 54.74 44.56 49.84 47.39"/><polygon class="cls-11" points="49.81 47.42 44.81 44.51 44.84 44.48 49.84 47.39 49.81 47.42"/><polygon class="cls-12" points="49.8 47.46 44.79 44.55 44.81 44.51 49.81 47.42 49.8 47.46"/><path class="cls-13" d="M54.77,44.56v5.69l0,0-4.89,2.83h0l0,0V47.42l0,0,4.9-2.83Zm-.06,5.65,0-5.53-4.81,2.78,0,5.53,4.81-2.78"/></g><g class="cls-1"><polygon class="cls-2" points="75.98 52.99 70.98 50.08 75.79 47.3 80.79 50.21 75.98 52.99"/><polygon class="cls-3" points="75.91 53.11 70.9 50.21 70.89 50.18 75.9 53.09 75.91 53.11"/><polygon class="cls-4" points="80.79 50.21 75.79 47.3 75.77 41.77 80.78 44.68 80.79 50.21"/><polygon class="cls-5" points="80.82 44.56 75.81 41.65 75.84 41.65 80.85 44.56 80.82 44.56"/><polygon class="cls-6" points="80.78 44.68 80.79 50.21 75.98 52.99 75.97 47.46 80.78 44.68"/><polygon class="cls-7" points="75.98 52.99 70.98 50.08 70.96 44.55 75.97 47.46 75.98 52.99"/><polygon class="cls-8" points="75.97 47.46 70.96 44.55 75.77 41.77 80.78 44.68 75.97 47.46"/><polygon class="cls-9" points="75.9 53.09 70.89 50.18 70.88 44.55 75.88 47.46 75.9 53.09"/><polygon class="cls-10" points="75.92 47.39 70.92 44.48 75.81 41.65 80.82 44.56 75.92 47.39"/><polygon class="cls-11" points="75.89 47.42 70.89 44.51 70.92 44.48 75.92 47.39 75.89 47.42"/><polygon class="cls-12" points="75.88 47.46 70.88 44.55 70.89 44.51 75.89 47.42 75.88 47.46"/><path class="cls-13" d="M80.85,44.56v0l0,5.62,0,0,0,0-4.89,2.83h0v0l0-5.63v0l0,0,4.9-2.83Zm-.06,5.65V44.68L76,47.46V53l4.81-2.78"/></g><g class="cls-1"><polygon class="cls-2" points="102.06 52.99 97.06 50.08 101.87 47.3 106.87 50.21 102.06 52.99"/><polygon class="cls-3" points="101.99 53.11 96.99 50.21 96.97 50.18 101.98 53.09 101.99 53.11"/><polygon class="cls-4" points="106.87 50.21 101.87 47.3 101.85 41.77 106.86 44.68 106.87 50.21"/><polygon class="cls-5" points="106.9 44.56 101.9 41.65 101.93 41.65 106.93 44.56 106.9 44.56"/><polygon class="cls-6" points="106.86 44.68 106.87 50.21 102.06 52.99 102.05 47.46 106.86 44.68"/><polygon class="cls-7" points="102.06 52.99 97.06 50.08 97.04 44.55 102.05 47.46 102.06 52.99"/><polygon class="cls-8" points="102.05 47.46 97.04 44.55 101.85 41.77 106.86 44.68 102.05 47.46"/><polygon class="cls-9" points="101.98 53.09 96.97 50.18 96.96 44.55 101.96 47.46 101.98 53.09"/><polygon class="cls-10" points="102 47.39 97 44.48 101.9 41.65 106.9 44.56 102 47.39"/><polygon class="cls-11" points="101.97 47.42 96.97 44.51 97 44.48 102 47.39 101.97 47.42"/><polygon class="cls-12" points="101.96 47.46 96.96 44.55 96.97 44.51 101.97 47.42 101.96 47.46"/><path class="cls-13" d="M106.93,44.56v0l0,5.62v0l0,0L102,53.11h0v0l0-5.63v0l0,0,4.9-2.83Zm-.06,5.65V44.68l-4.81,2.78V53l4.81-2.78"/></g><g class="cls-1"><polygon class="cls-2" points="128.15 52.99 123.14 50.08 127.95 47.3 132.96 50.21 128.15 52.99"/><polygon class="cls-3" points="128.07 53.11 123.07 50.21 123.06 50.18 128.06 53.09 128.07 53.11"/><polygon class="cls-4" points="132.96 50.21 127.95 47.3 127.94 41.77 132.94 44.68 132.96 50.21"/><polygon class="cls-5" points="132.98 44.56 127.98 41.65 128.01 41.65 133.01 44.56 132.98 44.56"/><polygon class="cls-6" points="132.94 44.68 132.96 50.21 128.15 52.99 128.13 47.46 132.94 44.68"/><polygon class="cls-7" points="128.15 52.99 123.14 50.08 123.13 44.55 128.13 47.46 128.15 52.99"/><polygon class="cls-8" points="128.13 47.46 123.13 44.55 127.94 41.77 132.94 44.68 128.13 47.46"/><polygon class="cls-9" points="128.06 53.09 123.06 50.18 123.04 44.55 128.04 47.46 128.06 53.09"/><polygon class="cls-10" points="128.09 47.39 123.08 44.48 127.98 41.65 132.98 44.56 128.09 47.39"/><polygon class="cls-11" points="128.06 47.42 123.05 44.51 123.08 44.48 128.09 47.39 128.06 47.42"/><polygon class="cls-12" points="128.04 47.46 123.04 44.55 123.05 44.51 128.06 47.42 128.04 47.46"/><path class="cls-13" d="M133,44.56v0l0,5.62v0l0,0-4.9,2.83h0v0l0-5.63,0,0,0,0L133,44.56Zm0,5.65,0-5.53-4.81,2.78V53L133,50.21"/></g><g class="cls-1"><polygon class="cls-2" points="23.82 77.64 18.81 74.74 23.62 71.96 28.63 74.87 23.82 77.64"/><polygon class="cls-3" points="23.74 77.77 18.74 74.86 18.73 74.83 23.73 77.74 23.74 77.77"/><polygon class="cls-4" points="28.63 74.87 23.62 71.96 23.61 66.43 28.61 69.34 28.63 74.87"/><polygon class="cls-5" points="28.65 69.22 23.65 66.31 23.68 66.31 28.68 69.21 28.65 69.22"/><polygon class="cls-6" points="28.61 69.34 28.63 74.87 23.82 77.64 23.8 72.12 28.61 69.34"/><polygon class="cls-7" points="23.82 77.64 18.81 74.74 18.8 69.21 23.8 72.12 23.82 77.64"/><polygon class="cls-8" points="23.8 72.12 18.8 69.21 23.61 66.43 28.61 69.34 23.8 72.12"/><polygon class="cls-9" points="23.73 77.74 18.73 74.83 18.71 69.21 23.72 72.12 23.73 77.74"/><polygon class="cls-10" points="23.76 72.04 18.75 69.14 23.65 66.31 28.65 69.22 23.76 72.04"/><polygon class="cls-11" points="23.73 72.08 18.72 69.17 18.75 69.14 23.76 72.04 23.73 72.08"/><polygon class="cls-12" points="23.72 72.12 18.71 69.21 18.72 69.17 23.73 72.08 23.72 72.12"/><path class="cls-13" d="M28.68,69.21l0,0v5.67l0,0-4.9,2.83h0V72.08l0,0,4.89-2.82Zm-.05,5.66,0-5.53L23.8,72.12l0,5.52,4.81-2.77"/></g><g class="cls-1"><polygon class="cls-2" points="49.9 77.64 44.9 74.74 49.71 71.96 54.71 74.87 49.9 77.64"/><polygon class="cls-3" points="49.83 77.77 44.82 74.86 44.81 74.83 49.81 77.74 49.83 77.77"/><polygon class="cls-4" points="54.71 74.87 49.71 71.96 49.69 66.43 54.69 69.34 54.71 74.87"/><polygon class="cls-5" points="54.74 69.22 49.73 66.31 49.76 66.31 54.77 69.21 54.74 69.22"/><polygon class="cls-6" points="54.69 69.34 54.71 74.87 49.9 77.64 49.88 72.12 54.69 69.34"/><polygon class="cls-7" points="49.9 77.64 44.9 74.74 44.88 69.21 49.88 72.12 49.9 77.64"/><polygon class="cls-8" points="49.88 72.12 44.88 69.21 49.69 66.43 54.69 69.34 49.88 72.12"/><polygon class="cls-9" points="49.81 77.74 44.81 74.83 44.79 69.21 49.8 72.12 49.81 77.74"/><polygon class="cls-10" points="49.84 72.04 44.84 69.14 49.73 66.31 54.74 69.22 49.84 72.04"/><polygon class="cls-11" points="49.81 72.08 44.81 69.17 44.84 69.14 49.84 72.04 49.81 72.08"/><polygon class="cls-12" points="49.8 72.12 44.79 69.21 44.81 69.17 49.81 72.08 49.8 72.12"/><path class="cls-13" d="M54.77,69.21v5.7l0,0-4.89,2.83h0l0,0V72.08l0,0,4.9-2.82Zm-.06,5.66,0-5.53-4.81,2.78,0,5.52,4.81-2.77"/></g><g class="cls-1"><polygon class="cls-2" points="75.98 77.64 70.98 74.74 75.79 71.96 80.79 74.87 75.98 77.64"/><polygon class="cls-3" points="75.91 77.77 70.9 74.86 70.89 74.83 75.9 77.74 75.91 77.77"/><polygon class="cls-4" points="80.79 74.87 75.79 71.96 75.77 66.43 80.78 69.34 80.79 74.87"/><polygon class="cls-5" points="80.82 69.22 75.81 66.31 75.84 66.31 80.85 69.21 80.82 69.22"/><polygon class="cls-6" points="80.78 69.34 80.79 74.87 75.98 77.64 75.97 72.12 80.78 69.34"/><polygon class="cls-7" points="75.98 77.64 70.98 74.74 70.96 69.21 75.97 72.12 75.98 77.64"/><polygon class="cls-8" points="75.97 72.12 70.96 69.21 75.77 66.43 80.78 69.34 75.97 72.12"/><polygon class="cls-9" points="75.9 77.74 70.89 74.83 70.88 69.21 75.88 72.12 75.9 77.74"/><polygon class="cls-10" points="75.92 72.04 70.92 69.14 75.81 66.31 80.82 69.22 75.92 72.04"/><polygon class="cls-11" points="75.89 72.08 70.89 69.17 70.92 69.14 75.92 72.04 75.89 72.08"/><polygon class="cls-12" points="75.88 72.12 70.88 69.21 70.89 69.17 75.89 72.08 75.88 72.12"/><path class="cls-13" d="M80.85,69.21v0l0,5.63,0,0,0,0-4.89,2.83h0v0l0-5.62v0l0,0,4.9-2.82Zm-.06,5.66V69.34L76,72.12v5.52l4.81-2.77"/></g><g class="cls-1"><polygon class="cls-2" points="102.06 77.64 97.06 74.74 101.87 71.96 106.87 74.87 102.06 77.64"/><polygon class="cls-3" points="101.99 77.77 96.99 74.86 96.97 74.83 101.98 77.74 101.99 77.77"/><polygon class="cls-4" points="106.87 74.87 101.87 71.96 101.85 66.43 106.86 69.34 106.87 74.87"/><polygon class="cls-5" points="106.9 69.22 101.9 66.31 101.93 66.31 106.93 69.21 106.9 69.22"/><polygon class="cls-6" points="106.86 69.34 106.87 74.87 102.06 77.64 102.05 72.12 106.86 69.34"/><polygon class="cls-7" points="102.06 77.64 97.06 74.74 97.04 69.21 102.05 72.12 102.06 77.64"/><polygon class="cls-8" points="102.05 72.12 97.04 69.21 101.85 66.43 106.86 69.34 102.05 72.12"/><polygon class="cls-9" points="101.98 77.74 96.97 74.83 96.96 69.21 101.96 72.12 101.98 77.74"/><polygon class="cls-10" points="102 72.04 97 69.14 101.9 66.31 106.9 69.22 102 72.04"/><polygon class="cls-11" points="101.97 72.08 96.97 69.17 97 69.14 102 72.04 101.97 72.08"/><polygon class="cls-12" points="101.96 72.12 96.96 69.21 96.97 69.17 101.97 72.08 101.96 72.12"/><path class="cls-13" d="M106.93,69.21v0l0,5.63v0l0,0L102,77.77h0v0l0-5.62v0l0,0,4.9-2.82Zm-.06,5.66V69.34l-4.81,2.78v5.52l4.81-2.77"/></g><g class="cls-1"><polygon class="cls-2" points="128.15 77.64 123.14 74.74 127.95 71.96 132.96 74.87 128.15 77.64"/><polygon class="cls-3" points="128.07 77.77 123.07 74.86 123.06 74.83 128.06 77.74 128.07 77.77"/><polygon class="cls-4" points="132.96 74.87 127.95 71.96 127.94 66.43 132.94 69.34 132.96 74.87"/><polygon class="cls-5" points="132.98 69.22 127.98 66.31 128.01 66.31 133.01 69.21 132.98 69.22"/><polygon class="cls-6" points="132.94 69.34 132.96 74.87 128.15 77.64 128.13 72.12 132.94 69.34"/><polygon class="cls-7" points="128.15 77.64 123.14 74.74 123.13 69.21 128.13 72.12 128.15 77.64"/><polygon class="cls-8" points="128.13 72.12 123.13 69.21 127.94 66.43 132.94 69.34 128.13 72.12"/><polygon class="cls-9" points="128.06 77.74 123.06 74.83 123.04 69.21 128.04 72.12 128.06 77.74"/><polygon class="cls-10" points="128.09 72.04 123.08 69.14 127.98 66.31 132.98 69.22 128.09 72.04"/><polygon class="cls-11" points="128.06 72.08 123.05 69.17 123.08 69.14 128.09 72.04 128.06 72.08"/><polygon class="cls-12" points="128.04 72.12 123.04 69.21 123.05 69.17 128.06 72.08 128.04 72.12"/><path class="cls-13" d="M133,69.21v0l0,5.63v0l0,0-4.9,2.83h0v0l0-5.62,0,0,0,0L133,69.22Zm0,5.66,0-5.53-4.81,2.78v5.52L133,74.87"/></g><g class="cls-1"><polygon class="cls-2" points="153.79 28.33 148.79 25.43 153.6 22.65 158.6 25.55 153.79 28.33"/><polygon class="cls-3" points="153.72 28.46 148.72 25.55 148.7 25.52 153.71 28.43 153.72 28.46"/><polygon class="cls-4" points="158.6 25.55 153.6 22.65 153.58 17.12 158.59 20.03 158.6 25.55"/><polygon class="cls-5" points="158.63 19.91 153.63 17 153.66 16.99 158.66 19.9 158.63 19.91"/><polygon class="cls-6" points="158.59 20.03 158.6 25.55 153.79 28.33 153.78 22.8 158.59 20.03"/><polygon class="cls-7" points="153.79 28.33 148.79 25.43 148.77 19.9 153.78 22.8 153.79 28.33"/><polygon class="cls-8" points="153.78 22.8 148.77 19.9 153.58 17.12 158.59 20.03 153.78 22.8"/><polygon class="cls-9" points="153.71 28.43 148.7 25.52 148.69 19.9 153.69 22.8 153.71 28.43"/><polygon class="cls-10" points="153.74 22.73 148.73 19.82 153.63 17 158.63 19.91 153.74 22.73"/><polygon class="cls-11" points="153.71 22.76 148.7 19.86 148.73 19.82 153.74 22.73 153.71 22.76"/><polygon class="cls-12" points="153.69 22.8 148.69 19.9 148.7 19.86 153.71 22.76 153.69 22.8"/><path class="cls-13" d="M158.66,19.9v0l0,5.63v0l0,0-4.9,2.82h0v0l0-5.63v0l0,0,4.9-2.82Zm-.06,5.66V20l-4.81,2.77v5.53l4.81-2.77"/></g><g class="cls-1"><polygon class="cls-2" points="153.79 52.99 148.79 50.08 153.6 47.3 158.6 50.21 153.79 52.99"/><polygon class="cls-3" points="153.72 53.11 148.72 50.21 148.7 50.18 153.71 53.09 153.72 53.11"/><polygon class="cls-4" points="158.6 50.21 153.6 47.3 153.58 41.77 158.59 44.68 158.6 50.21"/><polygon class="cls-5" points="158.63 44.56 153.63 41.65 153.66 41.65 158.66 44.56 158.63 44.56"/><polygon class="cls-6" points="158.59 44.68 158.6 50.21 153.79 52.99 153.78 47.46 158.59 44.68"/><polygon class="cls-7" points="153.79 52.99 148.79 50.08 148.77 44.55 153.78 47.46 153.79 52.99"/><polygon class="cls-8" points="153.78 47.46 148.77 44.55 153.58 41.77 158.59 44.68 153.78 47.46"/><polygon class="cls-9" points="153.71 53.09 148.7 50.18 148.69 44.55 153.69 47.46 153.71 53.09"/><polygon class="cls-10" points="153.74 47.39 148.73 44.48 153.63 41.65 158.63 44.56 153.74 47.39"/><polygon class="cls-11" points="153.71 47.42 148.7 44.51 148.73 44.48 153.74 47.39 153.71 47.42"/><polygon class="cls-12" points="153.69 47.46 148.69 44.55 148.7 44.51 153.71 47.42 153.69 47.46"/><path class="cls-13" d="M158.66,44.56v0l0,5.62v0l0,0-4.9,2.83h0v0l0-5.63v0l0,0,4.9-2.83Zm-.06,5.65V44.68l-4.81,2.78V53l4.81-2.78"/></g><g class="cls-1"><polygon class="cls-2" points="153.79 77.64 148.79 74.74 153.6 71.96 158.6 74.87 153.79 77.64"/><polygon class="cls-3" points="153.72 77.77 148.72 74.86 148.7 74.83 153.71 77.74 153.72 77.77"/><polygon class="cls-4" points="158.6 74.87 153.6 71.96 153.58 66.43 158.59 69.34 158.6 74.87"/><polygon class="cls-5" points="158.63 69.22 153.63 66.31 153.66 66.31 158.66 69.21 158.63 69.22"/><polygon class="cls-6" points="158.59 69.34 158.6 74.87 153.79 77.64 153.78 72.12 158.59 69.34"/><polygon class="cls-7" points="153.79 77.64 148.79 74.74 148.77 69.21 153.78 72.12 153.79 77.64"/><polygon class="cls-8" points="153.78 72.12 148.77 69.21 153.58 66.43 158.59 69.34 153.78 72.12"/><polygon class="cls-9" points="153.71 77.74 148.7 74.83 148.69 69.21 153.69 72.12 153.71 77.74"/><polygon class="cls-10" points="153.74 72.04 148.73 69.14 153.63 66.31 158.63 69.22 153.74 72.04"/><polygon class="cls-11" points="153.71 72.08 148.7 69.17 148.73 69.14 153.74 72.04 153.71 72.08"/><polygon class="cls-12" points="153.69 72.12 148.69 69.21 148.7 69.17 153.71 72.08 153.69 72.12"/><path class="cls-13" d="M158.66,69.21v0l0,5.63v0l0,0-4.9,2.83h0v0l0-5.62v0l0,0,4.9-2.82Zm-.06,5.66V69.34l-4.81,2.78v5.52l4.81-2.77"/></g><g class="cls-1"><polygon class="cls-2" points="153.74 6.18 151.24 4.72 153.64 3.33 156.15 4.79 153.74 6.18"/><polygon class="cls-3" points="153.71 6.24 151.2 4.79 151.19 4.77 153.7 6.23 153.71 6.24"/><polygon class="cls-4" points="156.15 4.79 153.64 3.33 153.64 0.57 156.14 2.02 156.15 4.79"/><polygon class="cls-5" points="156.16 1.96 153.66 0.51 153.67 0.5 156.18 1.96 156.16 1.96"/><polygon class="cls-6" points="156.14 2.02 156.15 4.79 153.74 6.18 153.73 3.41 156.14 2.02"/><polygon class="cls-7" points="153.74 6.18 151.24 4.72 151.23 1.96 153.73 3.41 153.74 6.18"/><polygon class="cls-8" points="153.73 3.41 151.23 1.96 153.64 0.57 156.14 2.02 153.73 3.41"/><polygon class="cls-9" points="153.7 6.23 151.19 4.77 151.19 1.96 153.69 3.41 153.7 6.23"/><polygon class="cls-10" points="153.71 3.38 151.21 1.92 153.66 0.51 156.16 1.96 153.71 3.38"/><polygon class="cls-11" points="153.7 3.39 151.19 1.94 151.21 1.92 153.71 3.38 153.7 3.39"/><polygon class="cls-12" points="153.69 3.41 151.19 1.96 151.19 1.94 153.7 3.39 153.69 3.41"/><path class="cls-13" d="M156.18,2h0V4.81h0l-2.45,1.42h0V3.37L156.16,2Zm0,2.83V2l-2.41,1.39V6.18l2.41-1.39"/></g><g class="cls-1"><polygon class="cls-2" points="2.66 96.88 0.15 95.42 2.56 94.03 5.07 95.48 2.66 96.88"/><polygon class="cls-3" points="2.62 96.94 0.12 95.48 0.11 95.47 2.62 96.92 2.62 96.94"/><polygon class="cls-4" points="5.07 95.48 2.56 94.03 2.55 91.26 5.06 92.72 5.07 95.48"/><polygon class="cls-5" points="5.08 92.66 2.58 91.2 2.59 91.2 5.09 92.66 5.08 92.66"/><polygon class="cls-6" points="5.06 92.72 5.07 95.48 2.66 96.88 2.65 94.11 5.06 92.72"/><polygon class="cls-7" points="2.66 96.88 0.15 95.42 0.15 92.65 2.65 94.11 2.66 96.88"/><polygon class="cls-8" points="2.65 94.11 0.15 92.65 2.55 91.26 5.06 92.72 2.65 94.11"/><polygon class="cls-9" points="2.62 96.92 0.11 95.47 0.1 92.65 2.61 94.11 2.62 96.92"/><polygon class="cls-10" points="2.63 94.07 0.13 92.62 2.58 91.2 5.08 92.66 2.63 94.07"/><polygon class="cls-11" points="2.61 94.09 0.11 92.63 0.13 92.62 2.63 94.07 2.61 94.09"/><polygon class="cls-12" points="2.61 94.11 0.1 92.65 0.11 92.63 2.61 94.09 2.61 94.11"/><path class="cls-13" d="M5.09,92.66h0v2.84h0L2.64,96.94h0V94.09l0,0,2.45-1.41Zm0,2.82V92.72L2.65,94.11v2.76l2.41-1.39"/></g><g class="cls-1"><polygon class="cls-2" points="2.66 74.88 0.15 73.43 2.56 72.04 5.07 73.49 2.66 74.88"/><polygon class="cls-3" points="2.62 74.94 0.12 73.49 0.11 73.47 2.62 74.93 2.62 74.94"/><polygon class="cls-4" points="5.07 73.49 2.56 72.04 2.55 69.27 5.06 70.72 5.07 73.49"/><polygon class="cls-5" points="5.08 70.66 2.58 69.21 2.59 69.21 5.09 70.66 5.08 70.66"/><polygon class="cls-6" points="5.06 70.72 5.07 73.49 2.66 74.88 2.65 72.11 5.06 70.72"/><polygon class="cls-7" points="2.66 74.88 0.15 73.43 0.15 70.66 2.65 72.11 2.66 74.88"/><polygon class="cls-8" points="2.65 72.11 0.15 70.66 2.55 69.27 5.06 70.72 2.65 72.11"/><polygon class="cls-9" points="2.62 74.93 0.11 73.47 0.1 70.66 2.61 72.11 2.62 74.93"/><polygon class="cls-10" points="2.63 72.08 0.13 70.62 2.58 69.21 5.08 70.66 2.63 72.08"/><polygon class="cls-11" points="2.61 72.09 0.11 70.64 0.13 70.62 2.63 72.08 2.61 72.09"/><polygon class="cls-12" points="2.61 72.11 0.1 70.66 0.11 70.64 2.61 72.09 2.61 72.11"/><path class="cls-13" d="M5.09,70.66v2.87L2.64,74.94h0V72.09h0l2.45-1.42Zm0,2.83V70.72L2.65,72.11v2.77l2.41-1.39"/></g><g class="cls-1"><polygon class="cls-2" points="23.7 96.88 21.2 95.42 23.61 94.03 26.11 95.48 23.7 96.88"/><polygon class="cls-3" points="23.67 96.94 21.16 95.48 21.16 95.47 23.66 96.92 23.67 96.94"/><polygon class="cls-4" points="26.11 95.48 23.61 94.03 23.6 91.26 26.1 92.72 26.11 95.48"/><polygon class="cls-5" points="26.12 92.66 23.62 91.2 23.63 91.2 26.14 92.66 26.12 92.66"/><polygon class="cls-6" points="26.1 92.72 26.11 95.48 23.7 96.88 23.69 94.11 26.1 92.72"/><polygon class="cls-7" points="23.7 96.88 21.2 95.42 21.19 92.65 23.69 94.11 23.7 96.88"/><polygon class="cls-8" points="23.69 94.11 21.19 92.65 23.6 91.26 26.1 92.72 23.69 94.11"/><polygon class="cls-9" points="23.66 96.92 21.16 95.47 21.15 92.65 23.65 94.11 23.66 96.92"/><polygon class="cls-10" points="23.67 94.07 21.17 92.62 23.62 91.2 26.12 92.66 23.67 94.07"/><polygon class="cls-11" points="23.66 94.09 21.15 92.63 21.17 92.62 23.67 94.07 23.66 94.09"/><polygon class="cls-12" points="23.65 94.11 21.15 92.65 21.15 92.63 23.66 94.09 23.65 94.11"/><path class="cls-13" d="M26.14,92.66h0v2.84h0l-2.45,1.42h0V94.07l2.45-1.41Zm0,2.82V92.72l-2.41,1.39v2.76l2.41-1.39"/></g><g class="cls-1"><polygon class="cls-2" points="42.34 96.88 39.84 95.42 42.25 94.03 44.75 95.48 42.34 96.88"/><polygon class="cls-3" points="42.31 96.94 39.8 95.48 39.8 95.47 42.3 96.92 42.31 96.94"/><polygon class="cls-4" points="44.75 95.48 42.25 94.03 42.24 91.26 44.74 92.72 44.75 95.48"/><polygon class="cls-5" points="44.77 92.66 42.26 91.2 42.28 91.2 44.78 92.66 44.77 92.66"/><polygon class="cls-6" points="44.74 92.72 44.75 95.48 42.34 96.88 42.34 94.11 44.74 92.72"/><polygon class="cls-7" points="42.34 96.88 39.84 95.42 39.83 92.65 42.34 94.11 42.34 96.88"/><polygon class="cls-8" points="42.34 94.11 39.83 92.65 42.24 91.26 44.74 92.72 42.34 94.11"/><polygon class="cls-9" points="42.3 96.92 39.8 95.47 39.79 92.65 42.29 94.11 42.3 96.92"/><polygon class="cls-10" points="42.31 94.07 39.81 92.62 42.26 91.2 44.77 92.66 42.31 94.07"/><polygon class="cls-11" points="42.3 94.09 39.8 92.63 39.81 92.62 42.31 94.07 42.3 94.09"/><polygon class="cls-12" points="42.29 94.11 39.79 92.65 39.8 92.63 42.3 94.09 42.29 94.11"/><path class="cls-13" d="M44.78,92.66h0v2.84h0l-2.45,1.42h0V94.09l0,0,2.45-1.41Zm0,2.82V92.72l-2.4,1.39v2.76l2.41-1.39"/></g><g class="cls-1"><polygon class="cls-2" points="66.13 5.8 63.62 4.34 66.03 2.95 68.53 4.41 66.13 5.8"/><polygon class="cls-3" points="66.09 5.86 63.59 4.41 63.58 4.39 66.08 5.85 66.09 5.86"/><polygon class="cls-4" points="68.53 4.41 66.03 2.95 66.02 0.19 68.52 1.64 68.53 4.41"/><polygon class="cls-5" points="68.55 1.58 66.04 0.13 66.06 0.12 68.56 1.58 68.55 1.58"/><polygon class="cls-6" points="68.52 1.64 68.53 4.41 66.13 5.8 66.12 3.03 68.52 1.64"/><polygon class="cls-7" points="66.13 5.8 63.62 4.34 63.61 1.58 66.12 3.03 66.13 5.8"/><polygon class="cls-8" points="66.12 3.03 63.61 1.58 66.02 0.19 68.52 1.64 66.12 3.03"/><polygon class="cls-9" points="66.08 5.85 63.58 4.39 63.57 1.58 66.08 3.03 66.08 5.85"/><polygon class="cls-10" points="66.1 3 63.59 1.54 66.04 0.13 68.55 1.58 66.1 3"/><polygon class="cls-11" points="66.08 3.01 63.58 1.55 63.59 1.54 66.1 3 66.08 3.01"/><polygon class="cls-12" points="66.08 3.03 63.57 1.58 63.58 1.55 66.08 3.01 66.08 3.03"/><path class="cls-13" d="M68.56,1.58h0V4.43h0L66.1,5.86h0V3l0,0,2.45-1.41Zm0,2.83V1.64L66.12,3V5.8l2.41-1.39"/></g><g class="cls-1"><polygon class="cls-2" points="33.35 5.8 30.84 4.34 33.25 2.95 35.76 4.41 33.35 5.8"/><polygon class="cls-3" points="33.31 5.86 30.81 4.41 30.8 4.39 33.3 5.85 33.31 5.86"/><polygon class="cls-4" points="35.76 4.41 33.25 2.95 33.24 0.19 35.75 1.64 35.76 4.41"/><polygon class="cls-5" points="35.77 1.58 33.26 0.13 33.28 0.12 35.78 1.58 35.77 1.58"/><polygon class="cls-6" points="35.75 1.64 35.76 4.41 33.35 5.8 33.34 3.03 35.75 1.64"/><polygon class="cls-7" points="33.35 5.8 30.84 4.34 30.84 1.58 33.34 3.03 33.35 5.8"/><polygon class="cls-8" points="33.34 3.03 30.84 1.58 33.24 0.19 35.75 1.64 33.34 3.03"/><polygon class="cls-9" points="33.3 5.85 30.8 4.39 30.79 1.58 33.3 3.03 33.3 5.85"/><polygon class="cls-10" points="33.32 3 30.81 1.54 33.26 0.13 35.77 1.58 33.32 3"/><polygon class="cls-11" points="33.3 3.01 30.8 1.55 30.81 1.54 33.32 3 33.3 3.01"/><polygon class="cls-12" points="33.3 3.03 30.79 1.58 30.8 1.55 33.3 3.01 33.3 3.03"/><path class="cls-13" d="M35.78,1.58h0V4.43h0L33.33,5.86h0V3l0,0,2.45-1.41Zm0,2.83V1.64L33.34,3V5.8l2.4-1.39"/></g><g class="cls-1"><polygon class="cls-2" points="49.95 5.8 47.45 4.34 49.85 2.95 52.36 4.41 49.95 5.8"/><polygon class="cls-3" points="49.91 5.86 47.41 4.41 47.41 4.39 49.91 5.85 49.91 5.86"/><polygon class="cls-4" points="52.36 4.41 49.85 2.95 49.85 0.19 52.35 1.64 52.36 4.41"/><polygon class="cls-5" points="52.37 1.58 49.87 0.13 49.88 0.12 52.39 1.58 52.37 1.58"/><polygon class="cls-6" points="52.35 1.64 52.36 4.41 49.95 5.8 49.94 3.03 52.35 1.64"/><polygon class="cls-7" points="49.95 5.8 47.45 4.34 47.44 1.58 49.94 3.03 49.95 5.8"/><polygon class="cls-8" points="49.94 3.03 47.44 1.58 49.85 0.19 52.35 1.64 49.94 3.03"/><polygon class="cls-9" points="49.91 5.85 47.41 4.39 47.4 1.58 49.9 3.03 49.91 5.85"/><polygon class="cls-10" points="49.92 3 47.42 1.54 49.87 0.13 52.37 1.58 49.92 3"/><polygon class="cls-11" points="49.91 3.01 47.4 1.55 47.42 1.54 49.92 3 49.91 3.01"/><polygon class="cls-12" points="49.9 3.03 47.4 1.58 47.4 1.55 49.91 3.01 49.9 3.03"/><path class="cls-13" d="M52.39,1.58h0V4.43h0L49.93,5.86h0V3l2.45-1.41Zm0,2.83V1.64L49.94,3V5.8l2.41-1.39"/></g><g class="cls-1"><polygon class="cls-2" points="176.99 25.73 174.49 24.28 176.89 22.89 179.4 24.34 176.99 25.73"/><polygon class="cls-3" points="176.95 25.8 174.45 24.34 174.44 24.33 176.95 25.78 176.95 25.8"/><polygon class="cls-4" points="179.4 24.34 176.89 22.89 176.88 20.12 179.39 21.58 179.4 24.34"/><polygon class="cls-5" points="179.41 21.52 176.91 20.06 176.92 20.06 179.43 21.51 179.41 21.52"/><polygon class="cls-6" points="179.39 21.58 179.4 24.34 176.99 25.73 176.98 22.97 179.39 21.58"/><polygon class="cls-7" points="176.99 25.73 174.49 24.28 174.48 21.51 176.98 22.97 176.99 25.73"/><polygon class="cls-8" points="176.98 22.97 174.48 21.51 176.88 20.12 179.39 21.58 176.98 22.97"/><polygon class="cls-9" points="176.95 25.78 174.44 24.33 174.44 21.51 176.94 22.97 176.95 25.78"/><polygon class="cls-10" points="176.96 22.93 174.46 21.47 176.91 20.06 179.41 21.52 176.96 22.93"/><polygon class="cls-11" points="176.94 22.95 174.44 21.49 174.46 21.47 176.96 22.93 176.94 22.95"/><polygon class="cls-12" points="176.94 22.97 174.44 21.51 174.44 21.49 176.94 22.95 176.94 22.97"/><path class="cls-13" d="M179.43,21.51v2.87L177,25.79h0V22.93l2.45-1.41Zm0,2.83V21.58L177,23v2.76l2.41-1.39"/></g><g class="cls-1"><polygon class="cls-2" points="176.94 6.87 174.43 5.42 176.84 4.03 179.34 5.48 176.94 6.87"/><polygon class="cls-3" points="176.9 6.93 174.4 5.48 174.39 5.47 176.9 6.92 176.9 6.93"/><polygon class="cls-4" points="179.34 5.48 176.84 4.03 176.83 1.26 179.34 2.72 179.34 5.48"/><polygon class="cls-5" points="179.36 2.65 176.85 1.2 176.87 1.2 179.37 2.65 179.36 2.65"/><polygon class="cls-6" points="179.34 2.72 179.34 5.48 176.94 6.87 176.93 4.11 179.34 2.72"/><polygon class="cls-7" points="176.94 6.87 174.43 5.42 174.43 2.65 176.93 4.11 176.94 6.87"/><polygon class="cls-8" points="176.93 4.11 174.43 2.65 176.83 1.26 179.34 2.72 176.93 4.11"/><polygon class="cls-9" points="176.9 6.92 174.39 5.47 174.38 2.65 176.89 4.11 176.9 6.92"/><polygon class="cls-10" points="176.91 4.07 174.4 2.61 176.85 1.2 179.36 2.65 176.91 4.07"/><polygon class="cls-11" points="176.89 4.08 174.39 2.63 174.4 2.61 176.91 4.07 176.89 4.08"/><polygon class="cls-12" points="176.89 4.11 174.38 2.65 174.39 2.63 176.89 4.08 176.89 4.11"/><path class="cls-13" d="M179.37,2.65V5.52l-2.45,1.41h0V4.09l0,0,2.45-1.41Zm0,2.83V2.72l-2.41,1.39V6.87l2.4-1.39"/></g><path class="cls-14" d="M37.33,22.33a.78.78,0,0,1,.69-.44H39.9a.76.76,0,0,1,.76.76v.55a.76.76,0,0,1-.76.76H38a.77.77,0,0,1-.72-.51"/><path class="cls-14" d="M35.77,22.33a.77.77,0,0,0-.69-.44H33.2a.76.76,0,0,0-.76.76v.55a.76.76,0,0,0,.76.76h1.88a.77.77,0,0,0,.72-.51"/><line class="cls-14" x1="34.82" y1="22.93" x2="38.28" y2="22.93"/><path class="cls-14" d="M63.87,22.33a.75.75,0,0,1,.69-.44h1.87a.77.77,0,0,1,.77.76v.55a.77.77,0,0,1-.77.76H64.56a.76.76,0,0,1-.72-.51"/><path class="cls-14" d="M62.3,22.33a.75.75,0,0,0-.69-.44H59.74a.76.76,0,0,0-.76.76v.55a.76.76,0,0,0,.76.76h1.87a.75.75,0,0,0,.72-.51"/><line class="cls-14" x1="61.35" y1="22.93" x2="64.82" y2="22.93"/><path class="cls-14" d="M89.7,22.33a.77.77,0,0,1,.69-.44h1.87a.77.77,0,0,1,.77.76v.55a.77.77,0,0,1-.77.76H90.39a.77.77,0,0,1-.72-.51"/><path class="cls-14" d="M88.13,22.33a.75.75,0,0,0-.69-.44H85.57a.76.76,0,0,0-.76.76v.55a.76.76,0,0,0,.76.76h1.87a.75.75,0,0,0,.72-.51"/><line class="cls-14" x1="87.18" y1="22.93" x2="90.65" y2="22.93"/><path class="cls-14" d="M115.78,22.33a.77.77,0,0,1,.69-.44h1.88a.76.76,0,0,1,.76.76v.55a.76.76,0,0,1-.76.76h-1.88a.77.77,0,0,1-.72-.51"/><path class="cls-14" d="M114.22,22.33a.78.78,0,0,0-.69-.44h-1.88a.76.76,0,0,0-.76.76v.55a.76.76,0,0,0,.76.76h1.88a.77.77,0,0,0,.72-.51"/><line class="cls-14" x1="113.27" y1="22.93" x2="116.73" y2="22.93"/><path class="cls-14" d="M141.65,22.33a.75.75,0,0,1,.69-.44h1.87a.76.76,0,0,1,.76.76v.55a.76.76,0,0,1-.76.76h-1.87a.76.76,0,0,1-.72-.51"/><path class="cls-14" d="M140.08,22.33a.75.75,0,0,0-.69-.44h-1.87a.76.76,0,0,0-.76.76v.55a.76.76,0,0,0,.76.76h1.87a.76.76,0,0,0,.72-.51"/><line class="cls-14" x1="139.13" y1="22.93" x2="142.6" y2="22.93"/><path class="cls-14" d="M37.33,46.7a.79.79,0,0,1,.69-.43H39.9a.76.76,0,0,1,.76.76v.55a.76.76,0,0,1-.76.76H38a.77.77,0,0,1-.72-.51"/><path class="cls-14" d="M35.77,46.7a.77.77,0,0,0-.69-.43H33.2a.76.76,0,0,0-.76.76v.55a.76.76,0,0,0,.76.76h1.88a.77.77,0,0,0,.72-.51"/><line class="cls-14" x1="34.82" y1="47.3" x2="38.28" y2="47.3"/><path class="cls-14" d="M63.87,46.7a.76.76,0,0,1,.69-.43h1.87a.77.77,0,0,1,.77.76v.55a.77.77,0,0,1-.77.76H64.56a.76.76,0,0,1-.72-.51"/><path class="cls-14" d="M62.3,46.7a.76.76,0,0,0-.69-.43H59.74A.76.76,0,0,0,59,47v.55a.76.76,0,0,0,.76.76h1.87a.75.75,0,0,0,.72-.51"/><line class="cls-14" x1="61.35" y1="47.3" x2="64.82" y2="47.3"/><path class="cls-14" d="M89.7,46.7a.77.77,0,0,1,.69-.43h1.87A.77.77,0,0,1,93,47v.55a.77.77,0,0,1-.77.76H90.39a.77.77,0,0,1-.72-.51"/><path class="cls-14" d="M88.13,46.7a.76.76,0,0,0-.69-.43H85.57a.76.76,0,0,0-.76.76v.55a.76.76,0,0,0,.76.76h1.87a.75.75,0,0,0,.72-.51"/><line class="cls-14" x1="87.18" y1="47.3" x2="90.65" y2="47.3"/><path class="cls-14" d="M115.78,46.7a.77.77,0,0,1,.69-.43h1.88a.76.76,0,0,1,.76.76v.55a.76.76,0,0,1-.76.76h-1.88a.77.77,0,0,1-.72-.51"/><path class="cls-14" d="M114.22,46.7a.79.79,0,0,0-.69-.43h-1.88a.76.76,0,0,0-.76.76v.55a.76.76,0,0,0,.76.76h1.88a.77.77,0,0,0,.72-.51"/><line class="cls-14" x1="113.27" y1="47.3" x2="116.73" y2="47.3"/><path class="cls-14" d="M141.65,46.7a.76.76,0,0,1,.69-.43h1.87A.76.76,0,0,1,145,47v.55a.76.76,0,0,1-.76.76h-1.87a.76.76,0,0,1-.72-.51"/><path class="cls-14" d="M140.08,46.7a.76.76,0,0,0-.69-.43h-1.87a.76.76,0,0,0-.76.76v.55a.76.76,0,0,0,.76.76h1.87a.76.76,0,0,0,.72-.51"/><line class="cls-14" x1="139.13" y1="47.3" x2="142.6" y2="47.3"/><path class="cls-14" d="M37.33,71.08a.78.78,0,0,1,.69-.44H39.9a.77.77,0,0,1,.76.77V72a.77.77,0,0,1-.76.77H38a.78.78,0,0,1-.72-.51"/><path class="cls-14" d="M35.77,71.08a.77.77,0,0,0-.69-.44H33.2a.77.77,0,0,0-.76.77V72a.77.77,0,0,0,.76.77h1.88a.78.78,0,0,0,.72-.51"/><line class="cls-14" x1="34.82" y1="71.68" x2="38.28" y2="71.68"/><path class="cls-14" d="M63.87,71.08a.75.75,0,0,1,.69-.44h1.87a.78.78,0,0,1,.77.77V72a.78.78,0,0,1-.77.77H64.56a.77.77,0,0,1-.72-.51"/><path class="cls-14" d="M62.3,71.08a.75.75,0,0,0-.69-.44H59.74a.77.77,0,0,0-.76.77V72a.77.77,0,0,0,.76.77h1.87a.76.76,0,0,0,.72-.51"/><line class="cls-14" x1="61.35" y1="71.68" x2="64.82" y2="71.68"/><path class="cls-14" d="M89.7,71.08a.77.77,0,0,1,.69-.44h1.87a.78.78,0,0,1,.77.77V72a.78.78,0,0,1-.77.77H90.39a.78.78,0,0,1-.72-.51"/><path class="cls-14" d="M88.13,71.08a.75.75,0,0,0-.69-.44H85.57a.77.77,0,0,0-.76.77V72a.77.77,0,0,0,.76.77h1.87a.76.76,0,0,0,.72-.51"/><line class="cls-14" x1="87.18" y1="71.68" x2="90.65" y2="71.68"/><path class="cls-14" d="M115.78,71.08a.77.77,0,0,1,.69-.44h1.88a.77.77,0,0,1,.76.77V72a.77.77,0,0,1-.76.77h-1.88a.78.78,0,0,1-.72-.51"/><path class="cls-14" d="M114.22,71.08a.78.78,0,0,0-.69-.44h-1.88a.77.77,0,0,0-.76.77V72a.77.77,0,0,0,.76.77h1.88a.78.78,0,0,0,.72-.51"/><line class="cls-14" x1="113.27" y1="71.68" x2="116.73" y2="71.68"/><path class="cls-14" d="M141.65,71.08a.75.75,0,0,1,.69-.44h1.87a.77.77,0,0,1,.76.77V72a.77.77,0,0,1-.76.77h-1.87a.77.77,0,0,1-.72-.51"/><path class="cls-14" d="M140.08,71.08a.75.75,0,0,0-.69-.44h-1.87a.77.77,0,0,0-.76.77V72a.77.77,0,0,0,.76.77h1.87a.77.77,0,0,0,.72-.51"/><line class="cls-14" x1="139.13" y1="71.68" x2="142.6" y2="71.68"/><path class="cls-14" d="M24.4,35.84a.75.75,0,0,1,.44.69V38.4a.77.77,0,0,1-.77.76h-.54a.76.76,0,0,1-.76-.76V36.53a.75.75,0,0,1,.5-.72"/><path class="cls-14" d="M24.4,34.27a.75.75,0,0,0,.44-.69V31.71a.77.77,0,0,0-.77-.76h-.54a.76.76,0,0,0-.76.76v1.87a.76.76,0,0,0,.5.72"/><line class="cls-14" x1="23.8" y1="33.32" x2="23.8" y2="36.79"/><path class="cls-14" d="M50.29,35.84a.75.75,0,0,1,.44.69V38.4a.77.77,0,0,1-.77.76h-.54a.77.77,0,0,1-.77-.76V36.53a.76.76,0,0,1,.51-.72"/><path class="cls-14" d="M50.29,34.27a.75.75,0,0,0,.44-.69V31.71A.77.77,0,0,0,50,31h-.54a.77.77,0,0,0-.77.76v1.87a.77.77,0,0,0,.51.72"/><line class="cls-14" x1="49.69" y1="33.32" x2="49.69" y2="36.79"/><path class="cls-14" d="M76.58,35.84a.75.75,0,0,1,.44.69V38.4a.76.76,0,0,1-.77.76h-.54A.76.76,0,0,1,75,38.4V36.53a.75.75,0,0,1,.5-.72"/><path class="cls-14" d="M76.58,34.27a.75.75,0,0,0,.44-.69V31.71a.76.76,0,0,0-.77-.76h-.54a.76.76,0,0,0-.76.76v1.87a.76.76,0,0,0,.5.72"/><line class="cls-14" x1="75.98" y1="33.32" x2="75.98" y2="36.79"/><path class="cls-14" d="M102.56,35.84a.75.75,0,0,1,.43.69V38.4a.76.76,0,0,1-.76.76h-.54a.76.76,0,0,1-.77-.76V36.53a.75.75,0,0,1,.51-.72"/><path class="cls-14" d="M102.56,34.27a.75.75,0,0,0,.43-.69V31.71a.76.76,0,0,0-.76-.76h-.54a.76.76,0,0,0-.77.76v1.87a.76.76,0,0,0,.51.72"/><line class="cls-14" x1="101.96" y1="33.32" x2="101.96" y2="36.79"/><path class="cls-14" d="M128.74,35.84a.75.75,0,0,1,.44.69V38.4a.76.76,0,0,1-.76.76h-.55a.76.76,0,0,1-.76-.76V36.53a.75.75,0,0,1,.51-.72"/><path class="cls-14" d="M128.74,34.27a.75.75,0,0,0,.44-.69V31.71a.76.76,0,0,0-.76-.76h-.55a.76.76,0,0,0-.76.76v1.87a.76.76,0,0,0,.51.72"/><line class="cls-14" x1="128.14" y1="33.32" x2="128.14" y2="36.79"/><path class="cls-14" d="M154.39,35.84a.75.75,0,0,1,.44.69V38.4a.76.76,0,0,1-.76.76h-.55a.76.76,0,0,1-.76-.76V36.53a.75.75,0,0,1,.51-.72"/><path class="cls-14" d="M154.39,34.27a.75.75,0,0,0,.44-.69V31.71a.76.76,0,0,0-.76-.76h-.55a.76.76,0,0,0-.76.76v1.87a.76.76,0,0,0,.51.72"/><line class="cls-14" x1="153.79" y1="33.32" x2="153.79" y2="36.79"/><path class="cls-14" d="M24.4,60.49a.78.78,0,0,1,.44.69v1.88a.77.77,0,0,1-.77.76h-.54a.76.76,0,0,1-.76-.76V61.18a.77.77,0,0,1,.5-.72"/><path class="cls-14" d="M24.4,58.93a.78.78,0,0,0,.44-.69V56.36a.77.77,0,0,0-.77-.76h-.54a.76.76,0,0,0-.76.76v1.88a.77.77,0,0,0,.5.72"/><line class="cls-14" x1="23.8" y1="57.98" x2="23.8" y2="61.44"/><path class="cls-14" d="M50.29,60.49a.78.78,0,0,1,.44.69v1.88a.77.77,0,0,1-.77.76h-.54a.77.77,0,0,1-.77-.76V61.18a.78.78,0,0,1,.51-.72"/><path class="cls-14" d="M50.29,58.93a.78.78,0,0,0,.44-.69V56.36A.77.77,0,0,0,50,55.6h-.54a.77.77,0,0,0-.77.76v1.88a.78.78,0,0,0,.51.72"/><line class="cls-14" x1="49.69" y1="57.98" x2="49.69" y2="61.44"/><path class="cls-14" d="M76.58,60.49a.78.78,0,0,1,.44.69v1.88a.76.76,0,0,1-.77.76h-.54a.76.76,0,0,1-.76-.76V61.18a.77.77,0,0,1,.5-.72"/><path class="cls-14" d="M76.58,58.93a.78.78,0,0,0,.44-.69V56.36a.76.76,0,0,0-.77-.76h-.54a.76.76,0,0,0-.76.76v1.88a.77.77,0,0,0,.5.72"/><line class="cls-14" x1="75.98" y1="57.98" x2="75.98" y2="61.44"/><path class="cls-14" d="M102.56,60.49a.77.77,0,0,1,.43.69v1.88a.76.76,0,0,1-.76.76h-.54a.76.76,0,0,1-.77-.76V61.18a.77.77,0,0,1,.51-.72"/><path class="cls-14" d="M102.56,58.93a.77.77,0,0,0,.43-.69V56.36a.76.76,0,0,0-.76-.76h-.54a.76.76,0,0,0-.77.76v1.88a.77.77,0,0,0,.51.72"/><line class="cls-14" x1="101.96" y1="57.98" x2="101.96" y2="61.44"/><path class="cls-14" d="M128.74,60.49a.78.78,0,0,1,.44.69v1.88a.76.76,0,0,1-.76.76h-.55a.76.76,0,0,1-.76-.76V61.18a.77.77,0,0,1,.51-.72"/><path class="cls-14" d="M128.74,58.93a.78.78,0,0,0,.44-.69V56.36a.76.76,0,0,0-.76-.76h-.55a.76.76,0,0,0-.76.76v1.88a.77.77,0,0,0,.51.72"/><line class="cls-14" x1="128.14" y1="57.98" x2="128.14" y2="61.44"/><path class="cls-14" d="M154.39,60.49a.78.78,0,0,1,.44.69v1.88a.76.76,0,0,1-.76.76h-.55a.76.76,0,0,1-.76-.76V61.18a.77.77,0,0,1,.51-.72"/><path class="cls-14" d="M154.39,58.93a.78.78,0,0,0,.44-.69V56.36a.76.76,0,0,0-.76-.76h-.55a.76.76,0,0,0-.76.76v1.88a.77.77,0,0,0,.51.72"/><line class="cls-14" x1="153.79" y1="57.98" x2="153.79" y2="61.44"/><line class="cls-14" x1="153.66" y1="14.55" x2="153.66" y2="7.18"/><line class="cls-14" x1="161.01" y1="19.18" x2="171.38" y2="8.81"/><line class="cls-14" x1="9.81" y1="88.12" x2="20.18" y2="77.74"/><line class="cls-14" x1="162.28" y1="23.62" x2="171.7" y2="23.62"/><line class="cls-14" x1="7.11" y1="72.12" x2="16.53" y2="72.12"/><line class="cls-14" x1="49.73" y1="14.55" x2="49.73" y2="7.18"/><line class="cls-14" x1="23.65" y1="88.39" x2="23.65" y2="81.01"/><line class="cls-14" x1="53.01" y1="16.08" x2="62.12" y2="6.96"/><line class="cls-14" x1="45.4" y1="16.08" x2="36.28" y2="6.96"/><line class="cls-14" x1="37.8" y1="88.39" x2="28.69" y2="79.27"/></g></g></svg>