<svg xmlns="http://www.w3.org/2000/svg" viewBox="0 0 143.12 95.98"><defs><style>.cls-1{writing-mode:tb;text-orientation:upright;glyph-orientation-vertical:0deg;font-size:6.54px;fill:#00b1ff;letter-spacing:0.51em;}.cls-2{letter-spacing:0.5em;}.cls-3{letter-spacing:0.5em;}.cls-4{fill:#b2b2b2;}.cls-4,.cls-5,.cls-6{stroke:#000;}.cls-13,.cls-4,.cls-5,.cls-6{stroke-miterlimit:10;stroke-width:0.75px;}.cls-5,.cls-7{fill:#03a5ed;}.cls-6{fill:#2849d3;}.cls-8{fill:#b5c0f1;}.cls-13,.cls-9{fill:none;}.cls-10{fill:#5fce05;}.cls-11{fill:#bed9ff;}.cls-12{fill:#a6fcf6;}.cls-13{stroke:#a6fcf6;}</style></defs><g id="Layer_2" data-name="Layer 2"><g id="pic"><text class="cls-1" transform="translate(139.84)">0100010<tspan class="cls-2" x="0" y="69.16">1</tspan><tspan x="-14.72" y="0">0100101</tspan><tspan class="cls-2" x="-14.72" y="69.16">0</tspan><tspan x="-29.45" y="0">1010100</tspan><tspan class="cls-2" x="-29.45" y="69.16">1</tspan><tspan x="-44.17" y="0">0101010</tspan><tspan class="cls-2" x="-44.17" y="69.16">0</tspan><tspan x="-58.9" y="0">0100101</tspan><tspan class="cls-2" x="-58.9" y="69.16">0</tspan><tspan x="-73.62" y="0">0100010</tspan><tspan class="cls-3" x="-73.62" y="69.16">1</tspan><tspan x="-88.35" y="0">0100101</tspan><tspan class="cls-3" x="-88.35" y="69.16">0</tspan><tspan x="-103.07" y="0">1010100</tspan><tspan class="cls-3" x="-103.07" y="69.16">1</tspan><tspan x="-117.8" y="0">0101010</tspan><tspan class="cls-3" x="-117.8" y="69.16">0</tspan><tspan x="-132.52" y="0">0100101</tspan><tspan class="cls-3" x="-132.52" y="69.16">0</tspan></text><polygon class="cls-4" points="79.06 92.48 63.37 92.48 65 83.48 77.42 83.48 79.06 92.48"/><rect class="cls-5" x="31.8" y="28.34" width="78.83" height="56.49"/><rect class="cls-4" x="52.43" y="91.26" width="37.57" height="4.35"/><rect class="cls-6" x="35.03" y="31.68" width="72.37" height="42.62"/><polygon class="cls-7" points="85.77 71.28 85.72 71.28 85.7 71.28 85.77 71.28 85.77 71.28"/><polygon class="cls-7" points="85.77 71.28 85.72 71.28 85.77 71.28 85.77 71.28"/><polygon class="cls-8" points="85.7 71.28 85.77 71.28 85.77 71.28 85.7 71.28"/><polygon class="cls-9" points="74.48 60.76 74.48 60.76 85.7 54.69 74.48 60.76"/><path class="cls-10" d="M91.32,60a9.57,9.57,0,0,0,8.44-5l-8.49-4.56-8.39,4.55A9.58,9.58,0,0,0,91.32,60Z"/><path class="cls-11" d="M91.27,40.8a9.58,9.58,0,0,0-8.39,14.13l8.39-4.55Z"/><path class="cls-12" d="M93.27,49.22l8.49,4.56a9.6,9.6,0,0,0-8.44-14.15v9.62Z"/><rect class="cls-12" x="40.4" y="54.88" width="3.17" height="19.04"/><rect class="cls-12" x="55.81" y="51.53" width="3.17" height="22.39"/><rect class="cls-12" x="71.21" y="47.31" width="3.17" height="26.61"/><rect class="cls-12" x="48.1" y="60.3" width="3.17" height="13.62"/><rect class="cls-12" x="63.51" y="60.3" width="3.17" height="13.62"/><circle class="cls-12" cx="42.21" cy="48.74" r="2.03"/><circle class="cls-12" cx="49.86" cy="52.42" r="2.03"/><circle class="cls-12" cx="65.15" cy="48.74" r="2.03"/><circle class="cls-12" cx="57.5" cy="44.67" r="2.03"/><circle class="cls-12" cx="72.8" cy="41.33" r="2.03"/><polyline class="cls-13" points="42.21 49.25 49.35 52.42 57.51 44.67 65.09 48.92 72.8 41.33"/></g></g></svg>