<svg xmlns="http://www.w3.org/2000/svg" width="45.866" height="176.407" viewBox="0 0 45.866 176.407">
  <g id="Group_2019" data-name="Group 2019" transform="translate(-1363.457 -2274.75)">
    <rect id="Rectangle_298" data-name="Rectangle 298" width="4.504" height="5.135" transform="translate(1383.832 2332.013)" fill="#fff" stroke="#1717b0" stroke-linecap="round" stroke-linejoin="round" stroke-width="0.5"/>
    <rect id="Rectangle_299" data-name="Rectangle 299" width="10.55" height="5.135" transform="translate(1380.809 2335.268)" fill="#fff" stroke="#1717b0" stroke-linecap="round" stroke-linejoin="round" stroke-width="0.5"/>
    <path id="Path_2357" data-name="Path 2357" d="M1405.649,2293.55v-12.417c0-3.387-8.978-6.133-20.054-6.133h0c-11.075,0-20.053,2.746-20.053,6.133v12.417Z" fill="#fff" stroke="#1717b0" stroke-linecap="round" stroke-linejoin="round" stroke-width="0.5"/>
    <path id="Path_2358" data-name="Path 2358" d="M1367.767,2293.7v157.206h35.657V2293.7Zm26.148,47.723h-16.639v-23.912c0-3.134,3.725-5.675,8.319-5.675s8.32,2.541,8.32,5.675Z" fill="#fff" stroke="#1717b0" stroke-linecap="round" stroke-linejoin="round" stroke-width="0.5"/>
    <rect id="Rectangle_300" data-name="Rectangle 300" width="45.366" height="2.585" transform="translate(1363.707 2298.364)" fill="#fff" stroke="#1717b0" stroke-linecap="round" stroke-linejoin="round" stroke-width="0.5"/>
    <rect id="Rectangle_301" data-name="Rectangle 301" width="45.366" height="2.585" transform="translate(1363.707 2292.258)" fill="#fff" stroke="#1717b0" stroke-linecap="round" stroke-linejoin="round" stroke-width="0.5"/>
    <rect id="Rectangle_302" data-name="Rectangle 302" width="44.752" height="2.372" transform="translate(1363.707 2307.223)" fill="#fff" stroke="#1717b0" stroke-linecap="round" stroke-linejoin="round" stroke-width="0.5"/>
    <rect id="Rectangle_303" data-name="Rectangle 303" width="39.888" height="109.697" transform="translate(1366.14 2341.21)" fill="#fff" stroke="#1717b0" stroke-linecap="round" stroke-linejoin="round" stroke-width="0.5"/>
    <rect id="Rectangle_304" data-name="Rectangle 304" width="42.232" height="6.428" transform="translate(1364.967 2341.842)" fill="#fff" stroke="#1717b0" stroke-linecap="round" stroke-linejoin="round" stroke-width="0.5"/>
    <rect id="Rectangle_305" data-name="Rectangle 305" width="44.752" height="2.372" transform="translate(1363.707 2340.024)" fill="#fff" stroke="#1717b0" stroke-linecap="round" stroke-linejoin="round" stroke-width="0.5"/>
  </g>
</svg>
