<svg width="70" height="43" viewBox="0 0 70 43" fill="none" xmlns="http://www.w3.org/2000/svg">
<g clip-path="url(#clip0_408_10987)">
<path d="M65.8559 2.29637C64.587 1.09159 62.9888 0.299189 61.262 0.0323589C59.1097 -0.250642 56.9332 1.18862 55.4555 2.15082C53.9777 3.11303 51.207 5.92687 50.0184 6.73544C48.8297 7.54402 45.9064 8.35259 41.184 11.2554C36.4617 14.1582 17.757 26.1817 17.757 26.1817L22.6159 26.2302L0.947682 37.526H3.10808L0 39.9517C1.71868 40.356 3.5257 40.0891 5.05966 39.2078V39.8789C5.05966 39.8789 30.8318 29.6504 35.8352 32.3026L32.8155 33.1758C33.0805 33.1758 37.9876 33.4912 37.9876 33.4912C38.2285 35.5611 39.369 37.4047 41.1037 38.5367C44.0592 40.5015 44.1074 41.5688 44.1074 41.5688C44.1074 41.5688 42.5815 42.1995 42.5815 43C45.296 42.1429 48.2033 42.1429 50.9179 43C50.9179 43 50.7572 42.1914 48.7012 41.5688C46.6452 40.9462 44.6374 38.7469 43.6335 37.526C42.3967 35.9412 42.0916 33.8146 42.8304 31.9468C43.5372 30.1032 46.0429 29.0764 51.1106 26.4242C57.126 23.2951 58.4913 20.9502 59.3346 19.1471C60.1778 17.3439 61.4468 13.7296 62.1455 12.0316C62.7318 10.4468 63.7276 9.04797 65.0367 7.98873C66.6349 7.12356 68.2974 6.37967 70 5.75707C70 5.75707 66.8598 3.09686 65.8559 2.29637Z" fill="black"/>
</g>
<defs>
<clipPath id="clip0_408_10987">
<rect width="70" height="43" fill="white"/>
</clipPath>
</defs>
</svg>
