<svg id="id-1" xmlns="http://www.w3.org/2000/svg" width="17.501" height="17.501" viewBox="0 0 17.501 17.501">
  <g id="SUBSCAN-1">
    <path id="Fill-1" d="M9.68,2.244A1.315,1.315,0,0,0,7.821.385L.385,7.821a1.314,1.314,0,0,0,0,1.859L4.1,13.4h0a1.314,1.314,0,0,0,1.859,0l6.507-6.507,1.859,1.859L7.821,15.257A1.315,1.315,0,1,0,9.68,17.116L17.116,9.68a1.314,1.314,0,0,0,0-1.859L13.4,4.1a1.315,1.315,0,0,0-1.859,0L5.033,10.61,3.174,8.751Z" transform="translate(0 0)" fill="#2949d3" opacity="0.2"/>
    <path id="Fill-3" d="M2.244,11.007a1.315,1.315,0,1,1-1.859,0,1.314,1.314,0,0,1,1.859,0" transform="translate(0 -3.186)" fill="#2949d3"/>
    <path id="Fill-5" d="M7.555,5.7A1.315,1.315,0,1,1,5.7,5.7a1.315,1.315,0,0,1,1.859,0" transform="translate(-1.593 -1.593)" fill="#2949d3"/>
    <path id="Fill-7" d="M12.866.385a1.315,1.315,0,1,1-1.859,0,1.315,1.315,0,0,1,1.859,0" transform="translate(-3.186 0)" fill="#2949d3"/>
    <path id="Fill-9" d="M7.555,16.318a1.315,1.315,0,1,1-1.859,0,1.315,1.315,0,0,1,1.859,0" transform="translate(-1.593 -4.779)" fill="#2949d3"/>
    <path id="Fill-11" d="M12.866,11.007a1.315,1.315,0,1,1-1.859,0,1.314,1.314,0,0,1,1.859,0" transform="translate(-3.186 -3.186)" fill="#2949d3"/>
    <path id="Fill-13" d="M18.177,5.7a1.315,1.315,0,1,1-1.859,0,1.315,1.315,0,0,1,1.859,0" transform="translate(-4.779 -1.593)" fill="#2949d3"/>
    <path id="Fill-15" d="M12.866,21.63a1.315,1.315,0,1,1-1.859,0,1.315,1.315,0,0,1,1.859,0" transform="translate(-3.186 -6.372)" fill="#2949d3"/>
    <path id="Fill-17" d="M18.177,16.318a1.315,1.315,0,1,1-1.859,0,1.314,1.314,0,0,1,1.859,0" transform="translate(-4.779 -4.779)" fill="#2949d3"/>
    <path id="Fill-19" d="M23.489,11.007a1.315,1.315,0,1,1-1.859,0,1.314,1.314,0,0,1,1.859,0" transform="translate(-6.372 -3.186)" fill="#2949d3"/>
  </g>
</svg>
