<svg width="279" height="279" viewBox="0 0 279 279" fill="none" xmlns="http://www.w3.org/2000/svg">
<g clip-path="url(#clip0_228_802)">
<path d="M139.497 139.497H0C0 62.4541 62.4541 0 139.497 0V139.497Z" fill="#03A5ED"/>
<path d="M139.497 139.497V0C216.54 0 278.994 62.4541 278.994 139.497C278.994 216.54 216.54 278.994 139.497 278.994C62.4541 278.994 0 216.546 0 139.497H139.497Z" fill="#A1E7FF"/>
<path d="M139.497 225.675C187.092 225.675 225.675 187.092 225.675 139.497C225.675 91.9023 187.092 53.3193 139.497 53.3193C91.9024 53.3193 53.3193 91.9023 53.3193 139.497C53.3193 187.092 91.9024 225.675 139.497 225.675Z" fill="#F2F2F2"/>
<path d="M139.387 118.106V141.959L159.183 152.399L139.387 118.106Z" fill="#B5C0F1"/>
<path d="M139.386 141.959L119.59 152.399H159.182L139.386 141.959Z" fill="#221363"/>
<path d="M139.386 118.106L119.59 152.399L139.423 141.959L139.386 118.106Z" fill="#03A5ED"/>
<path d="M139.387 93.0226L97.6895 165.239H181.079L139.387 93.0226Z" stroke="#03A5ED" stroke-width="1.23111" stroke-miterlimit="10"/>
<path d="M139.387 96.2235C141.005 96.2235 142.317 94.9116 142.317 93.2934C142.317 91.6752 141.005 90.3634 139.387 90.3634C137.769 90.3634 136.457 91.6752 136.457 93.2934C136.457 94.9116 137.769 96.2235 139.387 96.2235Z" fill="#03A5ED"/>
<path d="M180.402 167.665C182.02 167.665 183.332 166.353 183.332 164.735C183.332 163.116 182.02 161.805 180.402 161.805C178.784 161.805 177.472 163.116 177.472 164.735C177.472 166.353 178.784 167.665 180.402 167.665Z" fill="#03A5ED"/>
<path d="M98.3734 167.708C99.9916 167.708 101.303 166.396 101.303 164.778C101.303 163.16 99.9916 161.848 98.3734 161.848C96.7552 161.848 95.4434 163.16 95.4434 164.778C95.4434 166.396 96.7552 167.708 98.3734 167.708Z" fill="#03A5ED"/>
</g>
<defs>
<clipPath id="clip0_228_802">
<rect width="279" height="279" fill="white"/>
</clipPath>
</defs>
</svg>
