<svg xmlns="http://www.w3.org/2000/svg" width="206.08" height="149.58" viewBox="0 0 206.08 149.58">
  <g id="Group_539" data-name="Group 539" transform="translate(-404.92 -526.901)">
    <g id="Group_526" data-name="Group 526">
      <g id="Group_525" data-name="Group 525">
        <g id="Group_524" data-name="Group 524">
          <g id="Group_523" data-name="Group 523">
            <circle id="Ellipse_55" data-name="Ellipse 55" cx="2.839" cy="2.839" r="2.839" transform="translate(551.001 542.046)" fill="none" stroke="#b2c1f3" stroke-linecap="round" stroke-linejoin="round" stroke-width="0.5"/>
            <path id="Path_497" data-name="Path 497" d="M538.332,536.26a17.749,17.749,0,0,1,31.016,0" fill="none" stroke="#b2c1f3" stroke-linecap="round" stroke-linejoin="round" stroke-width="0.5"/>
            <path id="Path_498" data-name="Path 498" d="M541.352,539.28a13.689,13.689,0,0,1,24.976,0" fill="none" stroke="#b2c1f3" stroke-linecap="round" stroke-linejoin="round" stroke-width="0.5"/>
            <path id="Path_499" data-name="Path 499" d="M544.52,542.449a9.634,9.634,0,0,1,18.64,0" fill="none" stroke="#b2c1f3" stroke-linecap="round" stroke-linejoin="round" stroke-width="0.5"/>
          </g>
        </g>
        <line id="Line_1" data-name="Line 1" y2="29.133" transform="translate(554.001 551.977)" fill="none" stroke="#b2c1f3" stroke-linecap="round" stroke-linejoin="round" stroke-width="0.5"/>
      </g>
    </g>
    <path id="Path_500" data-name="Path 500" d="M491.156,665.81l10.355-5.114s3.067,4.887-2.009,7.434A6.061,6.061,0,0,1,491.156,665.81Z" fill="#020202"/>
    <path id="Path_501" data-name="Path 501" d="M465.9,633.609c-12.5-3.409-13.449-8.523-13.449-8.523l-6.44-4.167s-6.156-.379-4.64,5.619,22.445,11.617,28.6,13.985,17.9,9.281,19.036,15.532,2.147,9.755,2.147,9.755l10.355-5.114C501.227,659.654,478.4,637.019,465.9,633.609Zm26.329,29.454-1.236-5.58a1.5,1.5,0,0,1,2.44-1.46l4.888,4.2Z" fill="#020202"/>
    <circle id="Ellipse_56" data-name="Ellipse 56" cx="0.853" cy="0.853" r="0.853" transform="translate(495.94 663.063)" fill="none" stroke="#333" stroke-miterlimit="10" stroke-width="0.5"/>
    <g id="Group_527" data-name="Group 527">
      <path id="Path_502" data-name="Path 502" d="M486.224,583.363,453.5,622.422l-.306,4.646a4.368,4.368,0,0,1-4.358,4.079h0a4.367,4.367,0,0,1-4.365-4.523l.308-8.641,23.624-34.5Z" fill="#191816"/>
      <path id="Path_503" data-name="Path 503" d="M472.451,594.639s-15.587,18.381-14.408,19.65,1.815.505,1.815.505l24.871-29.7L473.1,593.2Z" fill="#5b534f"/>
      <path id="Path_504" data-name="Path 504" d="M446.012,616.183s.206,1.465,3.228-1.161,26.083-31.485,26.083-31.485l-7.24.122Z" fill="#5b534f"/>
      <circle id="Ellipse_57" data-name="Ellipse 57" cx="2.778" cy="2.778" r="2.778" transform="translate(446.012 623.76)" fill="none" stroke="#333" stroke-miterlimit="10" stroke-width="0.5"/>
      <circle id="Ellipse_58" data-name="Ellipse 58" cx="0.853" cy="0.853" r="0.853" transform="translate(447.937 625.685)" fill="none" stroke="#333" stroke-miterlimit="10" stroke-width="0.5"/>
    </g>
    <g id="Group_528" data-name="Group 528">
      <path id="Path_505" data-name="Path 505" d="M548.912,661.628l11.449,1.513s-.171,5.768-5.807,5.059A6.061,6.061,0,0,1,548.912,661.628Z" fill="#020202"/>
      <path id="Path_506" data-name="Path 506" d="M545.848,620.82c-8.49-9.79-6.431-14.566-6.431-14.566l-3.032-7.046s-4.9-3.741-6.982,2.086,12.184,22.143,15.981,27.536,9.707,17.673,7.173,23.5-3.645,9.3-3.645,9.3l11.449,1.513C560.705,662.117,554.337,630.61,545.848,620.82Zm5.484,39.123,2.078-5.323a1.5,1.5,0,0,1,2.84.144l1.725,6.209Z" fill="#020202"/>
      <circle id="Ellipse_59" data-name="Ellipse 59" cx="0.853" cy="0.853" r="0.853" transform="translate(553.795 662.339)" fill="none" stroke="#333" stroke-miterlimit="10" stroke-width="0.5"/>
    </g>
    <path id="Path_507" data-name="Path 507" d="M579.473,592.5,542.8,602.571l-2.906,3.637a4.367,4.367,0,0,1-5.907.859h0a4.368,4.368,0,0,1-1-6.206l5.189-6.917L566.1,583.338Z" fill="#191816"/>
    <g id="Group_532" data-name="Group 532">
      <path id="Path_508" data-name="Path 508" d="M453.54,567.734l5.52-2.889,10.508-.609,90.625,1.749,10.649-2.379,24.119.63,4.7,3.5,1.736,14.142-7.7,12.654-13.512.8-22.379-3.01-76.46-.422-10.531.614L448.828,590.1Z" fill="#191816"/>
      <path id="Path_509" data-name="Path 509" d="M479.766,573.127h36.068a3.874,3.874,0,0,1,1.653.37l9.343,4.4a6.591,6.591,0,0,0,2.8.626h39.253l-1.136,7.845,5.3,1.247-4.341,5.2a4.792,4.792,0,0,1-3.677,1.719H551.649a4.8,4.8,0,0,1-3.324,1.215l-37.418-1.008a9.176,9.176,0,0,1-1.282-.126l-12.6-2.149a5.072,5.072,0,0,0-1.058-.069l-20.84.807v-.828l2-.212a2.958,2.958,0,0,0,2.644-2.941Z" fill="#eda400"/>
      <rect id="Rectangle_121" data-name="Rectangle 121" width="23.655" height="6.237" rx="1.158" transform="translate(488.995 569.531)" fill="#0b0904"/>
      <path id="Rectangle_122" data-name="Rectangle 122" d="M1.453,0H8.128A1.453,1.453,0,0,1,9.582,1.453v2.46a0,0,0,0,1,0,0H0a0,0,0,0,1,0,0V1.453A1.453,1.453,0,0,1,1.453,0Z" transform="translate(472.489 560.324)" fill="#2a2118"/>
      <path id="Rectangle_123" data-name="Rectangle 123" d="M1.453,0H8.128A1.453,1.453,0,0,1,9.582,1.453v2.46a0,0,0,0,1,0,0H0a0,0,0,0,1,0,0V1.453A1.453,1.453,0,0,1,1.453,0Z" transform="translate(519.298 560.324)" fill="#2a2118"/>
      <path id="Path_510" data-name="Path 510" d="M446.334,585.263l-2.078-9.443a4.476,4.476,0,0,1-.1-1.205l.261-5.1a2.222,2.222,0,0,1,1.722-2.052l16.737-3.854H599.665v.63H571.443l-.668,8.681a1.643,1.643,0,0,1-1.638,1.517H523.142l-11.585-5.777a2.106,2.106,0,0,0-.938-.221H490.607a2.1,2.1,0,0,0-1.17.356l-3.034,2.556a3.033,3.033,0,0,1-1.686.513h-4.762l-1.614-5.778a1.834,1.834,0,0,0-1.766-1.341H462.333a2.6,2.6,0,0,0-1.386.4l-3.177,2a2.6,2.6,0,0,0-1.211,2.357l.761,12.781Z" fill="#ffb600"/>
      <path id="Path_511" data-name="Path 511" d="M550.8,563.607h-87.92l-16.737,3.854a2.222,2.222,0,0,0-1.722,2.052l-.067,1.309,12.209-1.322a2.6,2.6,0,0,1,1.211-2.357l3.177-2a2.6,2.6,0,0,1,1.386-.4h14.242a1.834,1.834,0,0,1,1.766,1.341l1.614,5.778h4.762a3.033,3.033,0,0,0,1.686-.513l3.034-2.556a2.1,2.1,0,0,1,1.17-.356h20.012s.211-2.084,3.62-2.841C519.017,564.534,529.662,563.848,550.8,563.607Z" fill="#fad109"/>
      <path id="Path_512" data-name="Path 512" d="M485.069,569.952s.569-2.841,2.179-3.788,3.6.058,3.22.6-4.262,3.286-4.546,3.665S484.866,570.709,485.069,569.952Z" fill="#fff" opacity="0.72"/>
      <path id="Path_513" data-name="Path 513" d="M568.885,578.525l-1.136,7.845,5.3,1.247-4.341,5.2a4.792,4.792,0,0,1-3.677,1.719H551.649a4.8,4.8,0,0,1-3.324,1.215l-37.418-1.008a9.176,9.176,0,0,1-1.282-.126l-12.6-2.149a5.072,5.072,0,0,0-1.058-.069l-25.382.807v-.828l6.539-.212a2.958,2.958,0,0,0,2.644-2.941V579.094l10.749,8.043h70.32S568.222,583.545,568.885,578.525Z" fill="#c80"/>
      <path id="Path_514" data-name="Path 514" d="M497.393,592.373l55.582-.471a2.629,2.629,0,0,1,2.651,2.629h0" fill="none" stroke="#a07022" stroke-miterlimit="10" stroke-width="0.5"/>
      <g id="Group_529" data-name="Group 529">
        <rect id="Rectangle_124" data-name="Rectangle 124" width="22.351" height="5.872" rx="1.09" transform="translate(489.647 569.352)" fill="#ffb600"/>
        <rect id="Rectangle_125" data-name="Rectangle 125" width="8.713" height="3.231" rx="0.6" transform="translate(501.549 570.822)" fill="#100f0d"/>
        <rect id="Rectangle_126" data-name="Rectangle 126" width="3.724" height="3.231" rx="0.6" transform="translate(496.497 570.822)" fill="#100f0d"/>
        <rect id="Rectangle_127" data-name="Rectangle 127" width="3.724" height="3.231" rx="0.6" transform="translate(491.194 570.822)" fill="#100f0d"/>
      </g>
      <g id="Group_530" data-name="Group 530">
        <path id="Path_515" data-name="Path 515" d="M594.85,564.847l14.128,2.27a2.237,2.237,0,0,1,1.878,2.071l.14,2.29a2.241,2.241,0,0,1-.2,1.07l-10.468,22.786H587.543s4.925-.045,6.629-3.432c1.218-2.42,3.064-6.253,4.019-8.245a6.317,6.317,0,0,0,.621-2.732V569.109a3.248,3.248,0,0,0-1.765-2.89l-2.265-1.163A.111.111,0,0,1,594.85,564.847Z" fill="#ffb600"/>
        <path id="Path_516" data-name="Path 516" d="M608.05,578.525l-7.722,16.809H587.543s4.925-.045,6.629-3.432c1.218-2.42,3.064-6.253,4.019-8.245a6.317,6.317,0,0,0,.621-2.732v-6.49Z" fill="#c80"/>
        <path id="Path_517" data-name="Path 517" d="M596.635,595.334h3.693L610.8,572.548a2.241,2.241,0,0,0,.2-1.07l-.14-2.29a2.237,2.237,0,0,0-1.878-2.071,17.7,17.7,0,0,1-1.736,6.937c-1.7,3.362-10.607,21.28-10.607,21.28" fill="#fad109"/>
      </g>
      <g id="Group_531" data-name="Group 531">
        <path id="Path_518" data-name="Path 518" d="M523.924,571.26v-4.132h1.351a1.57,1.57,0,0,1,1.012.278,1,1,0,0,1,.339.823.836.836,0,0,1-.165.512,1.056,1.056,0,0,1-.448.345.964.964,0,0,1,.529.356,1.021,1.021,0,0,1,.2.626,1.106,1.106,0,0,1-.36.874,1.5,1.5,0,0,1-1.02.318Zm.545-2.37h.823a.859.859,0,0,0,.572-.179.6.6,0,0,0,.214-.486.59.59,0,0,0-.2-.5.973.973,0,0,0-.6-.156h-.806Zm0,.437v1.488h.9a.865.865,0,0,0,.6-.2.689.689,0,0,0,.22-.543q0-.747-.812-.747Z" fill="#666"/>
        <path id="Path_519" data-name="Path 519" d="M527.321,569.7a1.815,1.815,0,0,1,.178-.811,1.321,1.321,0,0,1,.494-.557,1.344,1.344,0,0,1,.722-.2,1.292,1.292,0,0,1,1.014.434,1.666,1.666,0,0,1,.388,1.155v.037a1.826,1.826,0,0,1-.172.805,1.3,1.3,0,0,1-.491.554,1.354,1.354,0,0,1-.733.2,1.292,1.292,0,0,1-1.012-.434,1.661,1.661,0,0,1-.388-1.15Zm.528.063a1.314,1.314,0,0,0,.237.82.8.8,0,0,0,1.27,0,1.438,1.438,0,0,0,.236-.879,1.309,1.309,0,0,0-.24-.818.8.8,0,0,0-1.264-.005A1.429,1.429,0,0,0,527.849,569.759Z" fill="#666"/>
        <path id="Path_520" data-name="Path 520" d="M532.564,570.446a.388.388,0,0,0-.161-.331,1.557,1.557,0,0,0-.559-.2,2.675,2.675,0,0,1-.633-.2.905.905,0,0,1-.346-.284.677.677,0,0,1-.112-.392.8.8,0,0,1,.319-.638,1.248,1.248,0,0,1,.816-.261,1.286,1.286,0,0,1,.847.269.856.856,0,0,1,.325.69h-.528a.474.474,0,0,0-.183-.372.685.685,0,0,0-.461-.156.712.712,0,0,0-.448.125.392.392,0,0,0-.162.326.319.319,0,0,0,.15.287,1.882,1.882,0,0,0,.544.185,2.825,2.825,0,0,1,.637.209.942.942,0,0,1,.362.294.728.728,0,0,1,.118.419.788.788,0,0,1-.329.66,1.388,1.388,0,0,1-.855.248,1.55,1.55,0,0,1-.653-.131,1.062,1.062,0,0,1-.444-.364.878.878,0,0,1-.16-.507h.525a.545.545,0,0,0,.212.419.817.817,0,0,0,.52.154.854.854,0,0,0,.479-.12A.373.373,0,0,0,532.564,570.446Z" fill="#666"/>
        <path id="Path_521" data-name="Path 521" d="M534.485,567.446v.744h.573v.4h-.573V570.5a.428.428,0,0,0,.076.277.325.325,0,0,0,.261.092,1.246,1.246,0,0,0,.25-.034v.424a1.553,1.553,0,0,1-.4.056.656.656,0,0,1-.531-.213.914.914,0,0,1-.178-.6v-1.905H533.4v-.4h.559v-.744Z" fill="#666"/>
        <path id="Path_522" data-name="Path 522" d="M535.475,569.7a1.815,1.815,0,0,1,.178-.811,1.321,1.321,0,0,1,.494-.557,1.344,1.344,0,0,1,.722-.2,1.292,1.292,0,0,1,1.014.434,1.665,1.665,0,0,1,.388,1.155v.037a1.826,1.826,0,0,1-.172.805,1.3,1.3,0,0,1-.491.554,1.354,1.354,0,0,1-.733.2,1.292,1.292,0,0,1-1.012-.434,1.661,1.661,0,0,1-.388-1.15Zm.528.063a1.314,1.314,0,0,0,.237.82.8.8,0,0,0,1.27,0,1.438,1.438,0,0,0,.236-.879,1.309,1.309,0,0,0-.24-.818.8.8,0,0,0-1.264-.005A1.429,1.429,0,0,0,536,569.759Z" fill="#666"/>
        <path id="Path_523" data-name="Path 523" d="M539.426,568.19l.017.385a1.119,1.119,0,0,1,.92-.442q.974,0,.982,1.1v2.029h-.525v-2.032a.71.71,0,0,0-.152-.491.608.608,0,0,0-.464-.159.761.761,0,0,0-.448.136.93.93,0,0,0-.3.358v2.188h-.525v-3.07Z" fill="#666"/>
        <path id="Path_524" data-name="Path 524" d="M542.219,571.26v-4.132h1.167a1.875,1.875,0,0,1,.953.238,1.612,1.612,0,0,1,.64.678,2.219,2.219,0,0,1,.228,1.011v.264a2.224,2.224,0,0,1-.225,1.025,1.59,1.59,0,0,1-.644.675,2,2,0,0,1-.975.241Zm.545-3.687v3.242h.573a1.25,1.25,0,0,0,.981-.392,1.625,1.625,0,0,0,.35-1.117v-.241a1.646,1.646,0,0,0-.33-1.1,1.178,1.178,0,0,0-.938-.4Z"/>
        <path id="Path_525" data-name="Path 525" d="M546.953,570.491l.715-2.3h.562L547,571.734q-.286.766-.911.767l-.1-.009-.2-.037v-.426l.142.012a.7.7,0,0,0,.416-.108.782.782,0,0,0,.245-.395l.117-.312-1.1-3.036h.574Z"/>
        <path id="Path_526" data-name="Path 526" d="M549.2,568.19l.017.385a1.12,1.12,0,0,1,.92-.442q.973,0,.982,1.1v2.029h-.525v-2.032a.71.71,0,0,0-.152-.491.608.608,0,0,0-.464-.159.767.767,0,0,0-.449.136.938.938,0,0,0-.3.358v2.188H548.7v-3.07Z"/>
        <path id="Path_527" data-name="Path 527" d="M553.8,571.26a1.111,1.111,0,0,1-.073-.323,1.176,1.176,0,0,1-.875.38,1.085,1.085,0,0,1-.745-.257.83.83,0,0,1-.291-.651.869.869,0,0,1,.365-.745,1.718,1.718,0,0,1,1.026-.266h.511v-.241a.589.589,0,0,0-.165-.438.659.659,0,0,0-.485-.164.77.77,0,0,0-.471.142.419.419,0,0,0-.19.344h-.528a.721.721,0,0,1,.163-.444,1.118,1.118,0,0,1,.443-.34,1.49,1.49,0,0,1,.614-.124,1.215,1.215,0,0,1,.832.265.961.961,0,0,1,.312.731v1.413a1.73,1.73,0,0,0,.108.673v.045Zm-.871-.4a.911.911,0,0,0,.468-.128.765.765,0,0,0,.321-.332v-.63h-.411q-.966,0-.965.565a.477.477,0,0,0,.164.386A.632.632,0,0,0,552.93,570.86Z"/>
        <path id="Path_528" data-name="Path 528" d="M555.561,568.19l.014.34a1.135,1.135,0,0,1,.912-.4.876.876,0,0,1,.876.494,1.142,1.142,0,0,1,.98-.494q1.009,0,1.027,1.07v2.057h-.525v-2.026a.7.7,0,0,0-.151-.493.664.664,0,0,0-.5-.163.693.693,0,0,0-.485.175.707.707,0,0,0-.224.47v2.037h-.528v-2.012a.587.587,0,0,0-.656-.67.7.7,0,0,0-.707.44v2.242h-.524v-3.07Z"/>
        <path id="Path_529" data-name="Path 529" d="M560.165,567.375a.311.311,0,0,1,.078-.216.29.29,0,0,1,.231-.088.3.3,0,0,1,.233.088.311.311,0,0,1,.079.216.283.283,0,0,1-.312.3.3.3,0,0,1-.231-.085A.3.3,0,0,1,560.165,567.375Zm.567,3.885h-.525v-3.07h.525Z"/>
        <path id="Path_530" data-name="Path 530" d="M562.8,570.888a.754.754,0,0,0,.491-.17.6.6,0,0,0,.233-.426h.5a.955.955,0,0,1-.181.5,1.2,1.2,0,0,1-.447.38,1.288,1.288,0,0,1-.592.142,1.267,1.267,0,0,1-1-.419,1.665,1.665,0,0,1-.37-1.145v-.088a1.841,1.841,0,0,1,.165-.8,1.252,1.252,0,0,1,.472-.543,1.347,1.347,0,0,1,.728-.192,1.232,1.232,0,0,1,.859.309,1.1,1.1,0,0,1,.364.8h-.5a.728.728,0,0,0-.226-.489.7.7,0,0,0-.5-.192.735.735,0,0,0-.62.288,1.351,1.351,0,0,0-.22.833v.1a1.325,1.325,0,0,0,.219.818A.736.736,0,0,0,562.8,570.888Z"/>
        <path id="Path_531" data-name="Path 531" d="M566.4,570.446a.388.388,0,0,0-.161-.331,1.557,1.557,0,0,0-.559-.2,2.675,2.675,0,0,1-.633-.2.905.905,0,0,1-.346-.284.677.677,0,0,1-.112-.392.8.8,0,0,1,.319-.638,1.248,1.248,0,0,1,.816-.261,1.286,1.286,0,0,1,.847.269.856.856,0,0,1,.325.69h-.528a.474.474,0,0,0-.183-.372.685.685,0,0,0-.461-.156.712.712,0,0,0-.448.125.392.392,0,0,0-.162.326.319.319,0,0,0,.15.287,1.881,1.881,0,0,0,.544.185,2.825,2.825,0,0,1,.637.209.942.942,0,0,1,.362.294.728.728,0,0,1,.118.419.788.788,0,0,1-.329.66,1.387,1.387,0,0,1-.855.248,1.55,1.55,0,0,1-.653-.131,1.062,1.062,0,0,1-.444-.364.878.878,0,0,1-.16-.507h.525a.545.545,0,0,0,.212.419.817.817,0,0,0,.52.154.854.854,0,0,0,.479-.12A.373.373,0,0,0,566.4,570.446Z"/>
      </g>
    </g>
    <g id="Group_533" data-name="Group 533">
      <path id="Path_532" data-name="Path 532" d="M415.733,614.093l13.491,16.289s15.027,32.2,16.163,34.095,2.273,5.556,1.642,5.682H444.5s-2.4-8.46-4.546-7.7-3.409,7.7-3.409,7.7h-2.526a86.007,86.007,0,0,1,3.966-9.092c1.338-2.146-4.6-14.774-14.068-25.634s-21.593-25.381-17.3-29.043S415.733,614.093,415.733,614.093Z" fill="#3a3a3a"/>
      <path id="Path_533" data-name="Path 533" d="M406.62,606.39c4.294-3.662,9.113,7.7,9.113,7.7l13.491,16.289s15.027,32.2,16.163,34.095,2.273,5.556,1.642,5.682l-1.868-.012a124.438,124.438,0,0,0-19.473-38.755C411.672,613.082,406.62,606.39,406.62,606.39Z" fill="#5b534f"/>
      <path id="Path_534" data-name="Path 534" d="M434.022,670.159h13.007s.758,6.062-6.5,6.314S434.022,670.159,434.022,670.159Z" fill="#3a3a3a"/>
    </g>
    <circle id="Ellipse_60" data-name="Ellipse 60" cx="0.921" cy="0.921" r="0.921" transform="translate(439.326 671.904)" fill="none" stroke="#333" stroke-miterlimit="10" stroke-width="0.5"/>
    <g id="Group_536" data-name="Group 536">
      <path id="Path_535" data-name="Path 535" d="M471.71,572.292s-3.941-6.388-10.418-4.7c-7.292,1.9-8.71,17.526-8.71,17.526s.094,1.8,1.326.852,1.575-16.839,7.668-17.2,8.429,5.266,9.376,5.143S471.71,572.292,471.71,572.292Z" fill="#3a3634"/>
      <path id="Path_536" data-name="Path 536" d="M459.737,580.118s-1.76-4.95,2.786-6.21a9.2,9.2,0,0,1,7.706,1.17l.723-1.17s-6.162-4.283-10.418-.363a6.1,6.1,0,0,0-1.132,8.186Z" fill="#3a3634"/>
      <path id="Path_537" data-name="Path 537" d="M447.393,584.667s-.1-5.279,2.368-6.688,3.791-2.74,4.262-1.977,1.894,5.02,1.894,5.02Z" fill="#191816"/>
      <g id="Group_535" data-name="Group 535">
        <path id="Path_538" data-name="Path 538" d="M460.564,593.92l1.176,2.5,14.964-6.671-1.326-2.841Z"/>
        <g id="Group_534" data-name="Group 534">
          <path id="Path_539" data-name="Path 539" d="M405.236,615.9l12.9-18.162a1.691,1.691,0,0,1,.563-.5l21.354-11.86a1.71,1.71,0,0,1,1.933.188h0a1.71,1.71,0,0,0,1.886.215l27.18-13.995a5.155,5.155,0,0,1,6.97,2.278l2.84,5.679a5.156,5.156,0,0,1-2.5,7.009l-59.4,26.63a1.7,1.7,0,0,0-.752.657l-4.228,6.8a1.709,1.709,0,0,1-2.235.617l-5.906-3.046A1.71,1.71,0,0,1,405.236,615.9Z" fill="#ffb600"/>
          <path id="Path_540" data-name="Path 540" d="M471.056,571.778l-27.18,13.995a1.71,1.71,0,0,1-1.886-.215h0a1.71,1.71,0,0,0-1.933-.188L418.7,597.23a1.691,1.691,0,0,0-.563.5l-12.9,18.162a1.71,1.71,0,0,0,.61,2.509s6.051-10.5,8.085-12.142c1.7-1.373,39.2-18.815,51.394-24.472a8.592,8.592,0,0,0,4.751-5.834Z" fill="#fad109"/>
          <path id="Path_541" data-name="Path 541" d="M415.385,603.612s42.377-24.624,42.756-23.993-44.349,26.139-44.21,25.761A12.991,12.991,0,0,1,415.385,603.612Z" fill="#fff" opacity="0.72"/>
        </g>
      </g>
    </g>
    <g id="Group_537" data-name="Group 537">
      <path id="Path_542" data-name="Path 542" d="M596.925,672.729l11.088-5.7s3.4,5.221-2.038,8.06A6.544,6.544,0,0,1,596.925,672.729Z" fill="#3a3a3a"/>
      <path id="Path_543" data-name="Path 543" d="M569.433,637.551c-13.312-4.3-15-8.1-15-8.1l-7.025-4.385s-6.652-.3-4.911,6.147,24.434,12.147,31.121,14.6,19.485,9.7,20.822,16.432,2.488,10.493,2.488,10.493l11.088-5.7C607.688,665.907,585.025,642.588,569.433,637.551Zm28.6,32.194-1.432-6a1.618,1.618,0,0,1,2.608-1.62l5.35,4.447Z" fill="#3a3a3a"/>
      <circle id="Ellipse_61" data-name="Ellipse 61" cx="0.921" cy="0.921" r="0.921" transform="translate(602.7 670.632)" fill="none" stroke="#333" stroke-miterlimit="10" stroke-width="0.5"/>
    </g>
    <g id="Group_538" data-name="Group 538">
      <path id="Path_544" data-name="Path 544" d="M584.7,567.68l-17.325,25.046a2.725,2.725,0,0,1-3.5.865h0a1.1,1.1,0,0,0-1.442.385l-12.762,20.005a6.061,6.061,0,0,0-.893,2.422l-2.429,17.379a4.516,4.516,0,0,0,4.164,5.131h0a4.517,4.517,0,0,0,4.8-4.072l.41-4.241a8.089,8.089,0,0,1,1.855-4.422l40.7-48.5a3.707,3.707,0,0,0-.681-5.4l-7.7-5.511A3.705,3.705,0,0,0,584.7,567.68Z" fill="#ffb600"/>
      <path id="Path_545" data-name="Path 545" d="M547.853,637.816a4.508,4.508,0,0,1-1.51-4.034l2.429-17.379a6.061,6.061,0,0,1,.893-2.422l12.762-20.005a1.1,1.1,0,0,1,1.442-.385h0a2.725,2.725,0,0,0,3.5-.865L584.7,567.68s3.657,3.6-.6,9.848-32.958,41.481-33.81,44.891S547.853,637.816,547.853,637.816Z" fill="#fad109"/>
      <path id="Path_546" data-name="Path 546" d="M549.9,619.293s32.3-47.8,32.958-48.048.1,1.07-.852,2.351-32.958,48.672-32.864,47.658A4.736,4.736,0,0,1,549.9,619.293Z" fill="#fff" opacity="0.72"/>
    </g>
  </g>
</svg>
