<?xml version="1.0" encoding="utf-8"?>
<!-- Generator: Adobe Illustrator 27.5.0, SVG Export Plug-In . SVG Version: 6.00 Build 0)  -->
<svg version="1.1" id="Слой_1" xmlns="http://www.w3.org/2000/svg" xmlns:xlink="http://www.w3.org/1999/xlink" x="0px" y="0px"
	 viewBox="0 0 1840 491" style="enable-background:new 0 0 1840 491;" xml:space="preserve">
<g>
	<g>
		<g>
			<path d="M617.31,296.86h-25.88v51.39h-23.22v-133.6h46.98c15.41,0,27.31,3.46,35.69,10.38c8.38,6.92,12.57,16.93,12.57,30.03
				c0,8.94-2.16,16.42-6.47,22.45c-4.31,6.03-10.32,10.67-18.03,13.91l30,55.63v1.19H644.1L617.31,296.86z M591.43,278.14h23.86
				c7.83,0,13.95-1.97,18.35-5.92c4.4-3.95,6.61-9.34,6.61-16.2c0-7.16-2.04-12.69-6.1-16.61c-4.07-3.91-10.14-5.93-18.22-6.06
				h-24.5V278.14z"/>
			<path d="M792.11,284.93c0,13.09-2.26,24.58-6.79,34.46c-4.53,9.88-11,17.47-19.41,22.76c-8.42,5.29-18.1,7.94-29.05,7.94
				c-10.82,0-20.48-2.64-28.95-7.94c-8.47-5.29-15.02-12.83-19.64-22.62c-4.62-9.79-6.96-21.07-7.02-33.86v-7.52
				c0-13.03,2.31-24.53,6.93-34.5c4.62-9.97,11.13-17.6,19.55-22.89c8.41-5.29,18.06-7.94,28.95-7.94c10.89,0,20.54,2.61,28.95,7.85
				c8.41,5.23,14.91,12.75,19.5,22.57c4.59,9.82,6.91,21.24,6.98,34.27V284.93z M768.9,277.96c0-14.81-2.8-26.15-8.39-34.05
				c-5.6-7.89-13.53-11.84-23.81-11.84c-10.03,0-17.88,3.93-23.54,11.79c-5.66,7.86-8.55,18.98-8.67,33.36v7.71
				c0,14.68,2.86,26.03,8.58,34.05c5.72,8.01,13.66,12.02,23.81,12.02c10.28,0,18.18-3.91,23.72-11.74
				c5.54-7.83,8.3-19.27,8.3-34.32V277.96z"/>
			<path d="M815.24,348.25v-133.6h45.79c15.11,0,26.61,3.03,34.5,9.08c7.89,6.06,11.84,15.08,11.84,27.07
				c0,6.12-1.65,11.62-4.96,16.52c-3.3,4.89-8.14,8.69-14.5,11.38c7.22,1.96,12.8,5.64,16.75,11.05c3.95,5.42,5.92,11.92,5.92,19.5
				c0,12.54-4.02,22.17-12.06,28.9c-8.05,6.73-19.56,10.09-34.55,10.09H815.24z M838.45,270.89h22.76c7.22,0,12.86-1.64,16.93-4.91
				c4.07-3.27,6.1-7.91,6.1-13.9c0-6.61-1.88-11.38-5.64-14.32c-3.76-2.94-9.62-4.4-17.57-4.4h-22.57V270.89z M838.45,287.96v41.75
				h25.79c7.28,0,12.97-1.8,17.07-5.42c4.1-3.61,6.15-8.62,6.15-15.05c0-13.89-7.1-20.98-21.29-21.29H838.45z"/>
			<path d="M1040.41,284.93c0,13.09-2.26,24.58-6.79,34.46c-4.53,9.88-11,17.47-19.41,22.76c-8.41,5.29-18.09,7.94-29.04,7.94
				c-10.83,0-20.48-2.64-28.95-7.94c-8.47-5.29-15.02-12.83-19.64-22.62c-4.62-9.79-6.96-21.07-7.02-33.86v-7.52
				c0-13.03,2.31-24.53,6.93-34.5c4.62-9.97,11.13-17.6,19.55-22.89c8.41-5.29,18.06-7.94,28.95-7.94c10.89,0,20.54,2.61,28.95,7.85
				c8.41,5.23,14.91,12.75,19.5,22.57c4.59,9.82,6.91,21.24,6.97,34.27V284.93z M1017.2,277.96c0-14.81-2.8-26.15-8.4-34.05
				c-5.6-7.89-13.53-11.84-23.81-11.84c-10.04,0-17.88,3.93-23.54,11.79c-5.66,7.86-8.55,18.98-8.67,33.36v7.71
				c0,14.68,2.86,26.03,8.58,34.05c5.72,8.01,13.66,12.02,23.81,12.02c10.28,0,18.18-3.91,23.72-11.74
				c5.54-7.83,8.31-19.27,8.31-34.32V277.96z"/>
			<path d="M1169.52,348.25h-23.22l-59.55-94.79v94.79h-23.22v-133.6h23.22l59.74,95.15v-95.15h23.03V348.25z"/>
			<path d="M1303.59,284.93c0,13.09-2.26,24.58-6.79,34.46c-4.53,9.88-11,17.47-19.41,22.76c-8.42,5.29-18.1,7.94-29.05,7.94
				c-10.82,0-20.48-2.64-28.95-7.94c-8.47-5.29-15.02-12.83-19.63-22.62c-4.62-9.79-6.96-21.07-7.02-33.86v-7.52
				c0-13.03,2.31-24.53,6.93-34.5c4.62-9.97,11.13-17.6,19.55-22.89c8.41-5.29,18.06-7.94,28.95-7.94s20.54,2.61,28.95,7.85
				c8.41,5.23,14.91,12.75,19.5,22.57c4.59,9.82,6.91,21.24,6.98,34.27V284.93z M1280.37,277.96c0-14.81-2.8-26.15-8.39-34.05
				c-5.6-7.89-13.53-11.84-23.81-11.84c-10.03,0-17.88,3.93-23.54,11.79c-5.66,7.86-8.55,18.98-8.67,33.36v7.71
				c0,14.68,2.86,26.03,8.58,34.05c5.72,8.01,13.66,12.02,23.81,12.02c10.28,0,18.18-3.91,23.72-11.74
				c5.54-7.83,8.3-19.27,8.3-34.32V277.96z"/>
			<path d="M1356.81,214.64l38.54,102.4l38.45-102.4h30.01v133.6h-23.12V304.2l2.29-58.91l-39.46,102.96h-16.61l-39.36-102.86
				l2.29,58.82v44.04h-23.12v-133.6H1356.81z"/>
			<path d="M1515.73,348.25h-23.12v-133.6h23.12V348.25z"/>
			<path d="M1646.22,304.75c-1.34,14.26-6.61,25.37-15.78,33.36c-9.18,7.98-21.38,11.97-36.61,11.97c-10.64,0-20.02-2.52-28.13-7.57
				c-8.11-5.05-14.36-12.22-18.76-21.52c-4.4-9.3-6.7-20.09-6.88-32.39v-12.48c0-12.6,2.23-23.7,6.7-33.31
				c4.46-9.6,10.87-17.01,19.22-22.21c8.35-5.2,18-7.8,28.95-7.8c14.74,0,26.61,3.99,35.6,11.97c9,7.98,14.22,19.28,15.69,33.91
				h-23.12c-1.1-9.6-3.9-16.53-8.39-20.78c-4.5-4.25-11.09-6.38-19.77-6.38c-10.1,0-17.85,3.69-23.26,11.07
				c-5.41,7.38-8.18,18.2-8.3,32.47v11.85c0,14.45,2.58,25.47,7.75,33.07c5.17,7.59,12.74,11.39,22.71,11.39
				c9.12,0,15.97-2.05,20.55-6.15c4.59-4.1,7.49-10.92,8.72-20.46H1646.22z"/>
			<path d="M1736.78,313.84c0-5.87-2.06-10.4-6.19-13.58c-4.13-3.18-11.58-6.39-22.34-9.64c-10.77-3.24-19.33-6.85-25.7-10.83
				c-12.17-7.65-18.26-17.62-18.26-29.91c0-10.77,4.39-19.64,13.17-26.61c8.78-6.97,20.17-10.46,34.18-10.46
				c9.3,0,17.59,1.71,24.87,5.14c7.28,3.43,13,8.31,17.16,14.64c4.16,6.33,6.24,13.35,6.24,21.06h-23.12
				c0-6.97-2.19-12.43-6.56-16.38c-4.37-3.95-10.63-5.92-18.76-5.92c-7.58,0-13.47,1.62-17.66,4.86c-4.19,3.24-6.29,7.77-6.29,13.58
				c0,4.89,2.26,8.98,6.79,12.25c4.53,3.27,11.99,6.46,22.39,9.54c10.4,3.09,18.75,6.61,25.05,10.55
				c6.3,3.95,10.92,8.48,13.86,13.58c2.93,5.11,4.4,11.09,4.4,17.94c0,11.14-4.27,19.99-12.8,26.57
				c-8.53,6.58-20.11,9.86-34.73,9.86c-9.66,0-18.55-1.79-26.65-5.37c-8.11-3.58-14.41-8.52-18.9-14.82s-6.75-13.64-6.75-22.02
				h23.22c0,7.59,2.51,13.46,7.53,17.62c5.01,4.16,12.2,6.24,21.56,6.24c8.08,0,14.15-1.64,18.22-4.91
				C1734.75,323.55,1736.78,319.22,1736.78,313.84z"/>
		</g>
	</g>
	<g>
		<path d="M283.12,284.74c20.23,0,36.7-16.46,36.7-36.7c0-20.24-16.46-36.7-36.7-36.7c-20.23,0-36.7,16.46-36.7,36.7
			C246.42,268.28,262.88,284.74,283.12,284.74z"/>
		<path d="M464.25,255.09c-1.37,0-2.7,0.14-4,0.38c-4.89-12.18-13.79-20.32-23.96-20.32c-0.51,0-1.01,0.02-1.5,0.06v-40.69
			c0-18.43-15.08-33.52-33.52-33.52h-83.67v-0.99c0-5.95-4.82-10.77-10.77-10.77h-19.57v-34.1c9.54-2.4,16.62-11.01,16.62-21.3
			c0-12.14-9.84-21.99-21.99-21.99c-12.14,0-21.99,9.84-21.99,21.99c0,10.29,7.08,18.9,16.62,21.3v34.1h-19.57
			c-5.95,0-10.77,4.82-10.77,10.77V161h-83.67c-18.43,0-33.52,15.08-33.52,33.52v40.66c-9.78,0.48-18.28,8.49-23.02,20.29
			c-1.3-0.24-2.63-0.38-4-0.38c-12.14,0-21.99,9.84-21.99,21.99c0,12.14,9.84,21.99,21.99,21.99c1.37,0,2.7-0.14,4-0.38
			c4.74,11.8,13.25,19.8,23.02,20.29v40.67c0,18.43,15.08,33.52,33.52,33.52h238.75c18.43,0,33.52-15.08,33.52-33.52v-40.69
			c0.5,0.04,1,0.06,1.5,0.06c10.17,0,19.07-8.15,23.96-20.32c1.3,0.24,2.63,0.38,4,0.38c12.14,0,21.99-9.84,21.99-21.99
			C486.23,264.93,476.39,255.09,464.25,255.09z M283.12,186.45c33.96,0,61.6,27.63,61.6,61.6c0,33.96-27.63,61.6-61.6,61.6
			s-61.6-27.63-61.6-61.6C221.52,214.08,249.15,186.45,283.12,186.45z M380.65,322.01c-1.48,1.74-37.01,42.67-101.37,42.67
			c-65.34,0-93.49-42.16-94.66-43.95c-3.75-5.76-2.11-13.48,3.65-17.22c5.74-3.73,13.42-2.12,17.18,3.59
			c1,1.49,22.64,32.68,73.83,32.68c52.46,0,81.23-32.55,82.43-33.94c4.49-5.18,12.33-5.78,17.54-1.33
			C384.46,308.98,385.09,316.79,380.65,322.01z"/>
	</g>
</g>
</svg>
