<svg xmlns="http://www.w3.org/2000/svg" width="233.001" height="245.884" viewBox="0 0 233.001 245.884">
  <g id="Group_1272" data-name="Group 127" transform="translate(-116.361 -383.877)">
    <rect id="Rectangle_134" data-name="Rectangle 134" width="43.24" height="5.405" transform="translate(292.36 394.937)" fill="#fff"/>
    <rect id="Rectangle_135" data-name="Rectangle 135" width="43.24" height="5.405" transform="translate(292.36 394.937)" fill="none" stroke="#1717b0" stroke-linecap="round" stroke-linejoin="round" stroke-width="0.5"/>
    <rect id="Rectangle_136" data-name="Rectangle 136" width="37.835" height="94.587" transform="translate(295.062 405.747)" fill="#fff"/>
    <rect id="Rectangle_137" data-name="Rectangle 137" width="37.835" height="94.587" transform="translate(295.062 405.747)" fill="none" stroke="#1717b0" stroke-linecap="round" stroke-linejoin="round" stroke-width="0.5"/>
    <line id="Line_50" data-name="Line 50" y2="94.587" transform="translate(300.467 405.747)" fill="none" stroke="#1717b0" stroke-linecap="round" stroke-linejoin="round" stroke-width="0.5"/>
    <line id="Line_51" data-name="Line 51" y2="94.587" transform="translate(305.872 405.747)" fill="none" stroke="#1717b0" stroke-linecap="round" stroke-linejoin="round" stroke-width="0.5"/>
    <line id="Line_52" data-name="Line 52" y2="94.587" transform="translate(313.98 405.747)" fill="none" stroke="#1717b0" stroke-linecap="round" stroke-linejoin="round" stroke-width="0.5"/>
    <line id="Line_53" data-name="Line 53" y2="94.587" transform="translate(324.79 405.747)" fill="none" stroke="#1717b0" stroke-linecap="round" stroke-linejoin="round" stroke-width="0.5"/>
    <rect id="Rectangle_138" data-name="Rectangle 138" width="54.05" height="10.81" transform="translate(286.955 384.127)" fill="#fff"/>
    <rect id="Rectangle_139" data-name="Rectangle 139" width="54.05" height="10.81" transform="translate(286.955 384.127)" fill="none" stroke="#1717b0" stroke-linecap="round" stroke-linejoin="round" stroke-width="0.5"/>
    <line id="Line_54" data-name="Line 54" x2="48.645" transform="translate(289.657 389.532)" fill="none" stroke="#1717b0" stroke-linecap="round" stroke-linejoin="round" stroke-width="0.5"/>
    <line id="Line_55" data-name="Line 55" x2="48.645" transform="translate(289.657 392.234)" fill="none" stroke="#1717b0" stroke-linecap="round" stroke-linejoin="round" stroke-width="0.5"/>
    <path id="Path_281" data-name="Path 281" d="M349.112,392.234A8.107,8.107,0,1,1,341,384.127a8.107,8.107,0,0,1,8.108,8.107" fill="#fff"/>
    <path id="Path_282" data-name="Path 282" d="M349.112,392.234A8.107,8.107,0,1,1,341,384.127,8.107,8.107,0,0,1,349.112,392.234Z" fill="none" stroke="#1717b0" stroke-linecap="round" stroke-linejoin="round" stroke-width="0.5"/>
    <path id="Path_283" data-name="Path 283" d="M346.409,392.234a5.4,5.4,0,1,1-5.4-5.4,5.405,5.405,0,0,1,5.4,5.4" fill="#fff"/>
    <circle id="Ellipse_5" data-name="Ellipse 5" cx="5.405" cy="5.405" r="5.405" transform="translate(335.599 386.829)" fill="none" stroke="#1717b0" stroke-linecap="round" stroke-linejoin="round" stroke-width="0.5"/>
    <path id="Path_284" data-name="Path 284" d="M295.062,392.234a8.108,8.108,0,1,1-8.107-8.107,8.107,8.107,0,0,1,8.107,8.107" fill="#fff"/>
    <path id="Path_285" data-name="Path 285" d="M295.062,392.234a8.108,8.108,0,1,1-8.107-8.107A8.107,8.107,0,0,1,295.062,392.234Z" fill="none" stroke="#1717b0" stroke-linecap="round" stroke-linejoin="round" stroke-width="0.5"/>
    <path id="Path_286" data-name="Path 286" d="M292.36,392.234a5.4,5.4,0,1,1-5.4-5.4,5.405,5.405,0,0,1,5.4,5.4" fill="#fff"/>
    <circle id="Ellipse_6" data-name="Ellipse 6" cx="5.405" cy="5.405" r="5.405" transform="translate(281.55 386.829)" fill="none" stroke="#1717b0" stroke-linecap="round" stroke-linejoin="round" stroke-width="0.5"/>
    <rect id="Rectangle_140" data-name="Rectangle 140" width="43.24" height="2.702" transform="translate(292.36 403.045)" fill="#fff"/>
    <rect id="Rectangle_141" data-name="Rectangle 141" width="43.24" height="2.702" transform="translate(292.36 403.045)" fill="none" stroke="#1717b0" stroke-linecap="round" stroke-linejoin="round" stroke-width="0.5"/>
    <rect id="Rectangle_142" data-name="Rectangle 142" width="43.24" height="2.702" transform="translate(292.36 400.342)" fill="#fff"/>
    <rect id="Rectangle_143" data-name="Rectangle 143" width="43.24" height="2.702" transform="translate(292.36 400.342)" fill="none" stroke="#1717b0" stroke-linecap="round" stroke-linejoin="round" stroke-width="0.5"/>
    <line id="Line_56" data-name="Line 56" y2="2.702" transform="translate(295.062 396.288)" fill="none" stroke="#1717b0" stroke-linecap="round" stroke-linejoin="round" stroke-width="0.5"/>
    <line id="Line_57" data-name="Line 57" y2="2.702" transform="translate(297.765 396.288)" fill="none" stroke="#1717b0" stroke-linecap="round" stroke-linejoin="round" stroke-width="0.5"/>
    <line id="Line_58" data-name="Line 58" y2="2.702" transform="translate(300.467 396.288)" fill="none" stroke="#1717b0" stroke-linecap="round" stroke-linejoin="round" stroke-width="0.5"/>
    <line id="Line_59" data-name="Line 59" y2="2.702" transform="translate(303.17 396.288)" fill="none" stroke="#1717b0" stroke-linecap="round" stroke-linejoin="round" stroke-width="0.5"/>
    <line id="Line_60" data-name="Line 60" y2="2.702" transform="translate(305.872 396.288)" fill="none" stroke="#1717b0" stroke-linecap="round" stroke-linejoin="round" stroke-width="0.5"/>
    <line id="Line_61" data-name="Line 61" y2="2.702" transform="translate(308.575 396.288)" fill="none" stroke="#1717b0" stroke-linecap="round" stroke-linejoin="round" stroke-width="0.5"/>
    <line id="Line_62" data-name="Line 62" y2="2.702" transform="translate(311.277 396.288)" fill="none" stroke="#1717b0" stroke-linecap="round" stroke-linejoin="round" stroke-width="0.5"/>
    <line id="Line_63" data-name="Line 63" y2="2.702" transform="translate(313.98 396.288)" fill="none" stroke="#1717b0" stroke-linecap="round" stroke-linejoin="round" stroke-width="0.5"/>
    <line id="Line_64" data-name="Line 64" y2="2.702" transform="translate(316.682 396.288)" fill="none" stroke="#1717b0" stroke-linecap="round" stroke-linejoin="round" stroke-width="0.5"/>
    <line id="Line_65" data-name="Line 65" y2="2.702" transform="translate(319.385 396.288)" fill="none" stroke="#1717b0" stroke-linecap="round" stroke-linejoin="round" stroke-width="0.5"/>
    <line id="Line_66" data-name="Line 66" y2="2.702" transform="translate(322.087 396.288)" fill="none" stroke="#1717b0" stroke-linecap="round" stroke-linejoin="round" stroke-width="0.5"/>
    <line id="Line_67" data-name="Line 67" y2="2.702" transform="translate(324.79 396.288)" fill="none" stroke="#1717b0" stroke-linecap="round" stroke-linejoin="round" stroke-width="0.5"/>
    <line id="Line_68" data-name="Line 68" y2="2.702" transform="translate(327.492 396.288)" fill="none" stroke="#1717b0" stroke-linecap="round" stroke-linejoin="round" stroke-width="0.5"/>
    <line id="Line_69" data-name="Line 69" y2="2.702" transform="translate(330.195 396.288)" fill="none" stroke="#1717b0" stroke-linecap="round" stroke-linejoin="round" stroke-width="0.5"/>
    <line id="Line_70" data-name="Line 70" y2="2.702" transform="translate(332.897 396.288)" fill="none" stroke="#1717b0" stroke-linecap="round" stroke-linejoin="round" stroke-width="0.5"/>
  </g>
</svg>