<svg id="Group_125" data-name="Group 125" xmlns="http://www.w3.org/2000/svg" xmlns:xlink="http://www.w3.org/1999/xlink" width="393.714" height="629.766" viewBox="0 0 393.714 629.766">
  <defs>
    <clipPath id="clip-path">
      <rect id="Rectangle_75" data-name="Rectangle 75" width="393.714" height="629.766" fill="none"/>
    </clipPath>
  </defs>
  <g id="Group_72" data-name="Group 72">
    <g id="Group_71" data-name="Group 71" clip-path="url(#clip-path)">
      <path id="Path_210" data-name="Path 210" d="M393.416,248.393l-79.441,46.958,79.442-46.957Z" fill="none" stroke="#1717b0" stroke-linecap="round" stroke-linejoin="round" stroke-width="0.5"/>
    </g>
  </g>
  <g id="Group_74" data-name="Group 74">
    <g id="Group_73" data-name="Group 73" clip-path="url(#clip-path)">
      <path id="Path_216" data-name="Path 216" d="M371.655,212.285l-57.68-95.7v95.7h0l79.441,36.107h0Z" fill="none" stroke="#1717b0" stroke-linecap="round" stroke-linejoin="round" stroke-width="0.5"/>
    </g>
  </g>
  <g id="Group_76" data-name="Group 76">
    <g id="Group_75" data-name="Group 75" clip-path="url(#clip-path)">
      <path id="Path_218" data-name="Path 218" d="M313.975,212.285v83.066l79.441-46.958Z" fill="none" stroke="#1717b0" stroke-linecap="round" stroke-linejoin="round" stroke-width="0.5"/>
    </g>
  </g>
  <g id="Group_121" data-name="Group 121">
    <path id="Path_207" data-name="Path 207" d="M234.534,248.393h0l79.441,46.957h0Z" fill="#010101"/>
    <path id="Path_208" data-name="Path 208" d="M234.534,248.393h0l79.441,46.957h0Z" fill="none" stroke="#1717b0" stroke-linecap="round" stroke-linejoin="round" stroke-width="0.5"/>
    <path id="Path_209" data-name="Path 209" d="M393.416,248.394l-79.441,46.958,79.442-46.958Z" fill="#010101"/>
    <path id="Path_211" data-name="Path 211" d="M256.3,212.285l-21.762,36.108,79.441-36.108h0v-95.7Z" fill="#cfc5fb"/>
    <path id="Path_212" data-name="Path 212" d="M256.3,212.285l-21.762,36.108,79.441-36.108h0v-95.7Z" fill="none" stroke="#1717b0" stroke-linecap="round" stroke-linejoin="round" stroke-width="0.5"/>
    <path id="Path_213" data-name="Path 213" d="M313.975,212.285l-79.441,36.108,79.441,46.958Z" fill="#81a8f8"/>
    <path id="Path_214" data-name="Path 214" d="M313.975,212.285l-79.441,36.108,79.441,46.958Z" fill="none" stroke="#1717b0" stroke-linecap="round" stroke-linejoin="round" stroke-width="0.5"/>
    <path id="Path_215" data-name="Path 215" d="M313.975,116.581v95.7h0l79.441,36.108h0l-21.762-36.109-57.68-95.7Z" fill="#a6fcf6"/>
    <path id="Path_217" data-name="Path 217" d="M313.975,295.351l79.441-46.958-79.441-36.108Z" fill="#ceb0fa"/>
    <path id="Path_219" data-name="Path 219" d="M234.534,263.457,313.976,375.4V310.391Z" fill="#81a8f8"/>
    <path id="Path_220" data-name="Path 220" d="M234.534,263.457,313.976,375.4V310.391Z" fill="none" stroke="#1717b0" stroke-linecap="round" stroke-linejoin="round" stroke-width="0.5"/>
    <path id="Path_221" data-name="Path 221" d="M313.975,310.393V375.4l79.489-111.947Z" fill="#ceb0fa"/>
  </g>
  <path id="Path_470" data-name="Path 470" d="M313.975,310.392v65.013l79.489-111.947Z" fill="none" stroke="#1717b0" stroke-linecap="round" stroke-linejoin="round" stroke-width="0.5"/>
</svg>
